<?xml version="1.0" encoding="utf-8" standalone="no"?>
<!DOCTYPE svg PUBLIC "-//W3C//DTD SVG 1.1//EN"
  "http://www.w3.org/Graphics/SVG/1.1/DTD/svg11.dtd">
<svg xmlns:xlink="http://www.w3.org/1999/xlink" width="709.419375pt" height="334.287513pt" viewBox="0 0 709.419375 334.287513" xmlns="http://www.w3.org/2000/svg" version="1.1">
 <metadata>
  <rdf:RDF xmlns:dc="http://purl.org/dc/elements/1.1/" xmlns:cc="http://creativecommons.org/ns#" xmlns:rdf="http://www.w3.org/1999/02/22-rdf-syntax-ns#">
   <cc:Work>
    <dc:type rdf:resource="http://purl.org/dc/dcmitype/StillImage"/>
    <dc:date>2026-05-07T19:33:12.869430</dc:date>
    <dc:format>image/svg+xml</dc:format>
    <dc:creator>
     <cc:Agent>
      <dc:title>Matplotlib v3.8.0, https://matplotlib.org/</dc:title>
     </cc:Agent>
    </dc:creator>
   </cc:Work>
  </rdf:RDF>
 </metadata>
 <defs>
  <style type="text/css">*{stroke-linejoin: round; stroke-linecap: butt}</style>
 </defs>
 <g id="figure_1">
  <g id="patch_1">
   <path d="M -0 334.287513 
L 709.419375 334.287513 
L 709.419375 0 
L -0 0 
z
" style="fill: #ffffff"/>
  </g>
  <g id="axes_1">
   <g id="patch_2">
    <path d="M 52.079375 294.795638 
L 702.219375 294.795638 
L 702.219375 10.323964 
L 52.079375 10.323964 
z
" style="fill: #ffffff"/>
   </g>
   <g id="matplotlib.axis_1">
    <g id="xtick_1">
     <g id="line2d_1">
      <defs>
       <path id="mbcd4ad57a7" d="M 0 0 
L 0 3.5 
" style="stroke: #222222; stroke-width: 0.8"/>
      </defs>
      <g>
       <use xlink:href="#mbcd4ad57a7" x="136.932841" y="294.795638" style="fill: #222222; stroke: #222222; stroke-width: 0.8"/>
      </g>
     </g>
     <g id="text_1">
      <!-- 400 -->
      <g style="fill: #222222" transform="translate(127.389091 309.394076) scale(0.1 -0.1)">
       <defs>
        <path id="DejaVuSans-34" d="M 2419 4116 
L 825 1625 
L 2419 1625 
L 2419 4116 
z
M 2253 4666 
L 3047 4666 
L 3047 1625 
L 3713 1625 
L 3713 1100 
L 3047 1100 
L 3047 0 
L 2419 0 
L 2419 1100 
L 313 1100 
L 313 1709 
L 2253 4666 
z
" transform="scale(0.015625)"/>
        <path id="DejaVuSans-30" d="M 2034 4250 
Q 1547 4250 1301 3770 
Q 1056 3291 1056 2328 
Q 1056 1369 1301 889 
Q 1547 409 2034 409 
Q 2525 409 2770 889 
Q 3016 1369 3016 2328 
Q 3016 3291 2770 3770 
Q 2525 4250 2034 4250 
z
M 2034 4750 
Q 2819 4750 3233 4129 
Q 3647 3509 3647 2328 
Q 3647 1150 3233 529 
Q 2819 -91 2034 -91 
Q 1250 -91 836 529 
Q 422 1150 422 2328 
Q 422 3509 836 4129 
Q 1250 4750 2034 4750 
z
" transform="scale(0.015625)"/>
       </defs>
       <use xlink:href="#DejaVuSans-34"/>
       <use xlink:href="#DejaVuSans-30" x="63.623047"/>
       <use xlink:href="#DejaVuSans-30" x="127.246094"/>
      </g>
     </g>
    </g>
    <g id="xtick_2">
     <g id="line2d_2">
      <g>
       <use xlink:href="#mbcd4ad57a7" x="223.341666" y="294.795638" style="fill: #222222; stroke: #222222; stroke-width: 0.8"/>
      </g>
     </g>
     <g id="text_2">
      <!-- 500 -->
      <g style="fill: #222222" transform="translate(213.797916 309.394076) scale(0.1 -0.1)">
       <defs>
        <path id="DejaVuSans-35" d="M 691 4666 
L 3169 4666 
L 3169 4134 
L 1269 4134 
L 1269 2991 
Q 1406 3038 1543 3061 
Q 1681 3084 1819 3084 
Q 2600 3084 3056 2656 
Q 3513 2228 3513 1497 
Q 3513 744 3044 326 
Q 2575 -91 1722 -91 
Q 1428 -91 1123 -41 
Q 819 9 494 109 
L 494 744 
Q 775 591 1075 516 
Q 1375 441 1709 441 
Q 2250 441 2565 725 
Q 2881 1009 2881 1497 
Q 2881 1984 2565 2268 
Q 2250 2553 1709 2553 
Q 1456 2553 1204 2497 
Q 953 2441 691 2322 
L 691 4666 
z
" transform="scale(0.015625)"/>
       </defs>
       <use xlink:href="#DejaVuSans-35"/>
       <use xlink:href="#DejaVuSans-30" x="63.623047"/>
       <use xlink:href="#DejaVuSans-30" x="127.246094"/>
      </g>
     </g>
    </g>
    <g id="xtick_3">
     <g id="line2d_3">
      <g>
       <use xlink:href="#mbcd4ad57a7" x="309.750491" y="294.795638" style="fill: #222222; stroke: #222222; stroke-width: 0.8"/>
      </g>
     </g>
     <g id="text_3">
      <!-- 600 -->
      <g style="fill: #222222" transform="translate(300.206741 309.394076) scale(0.1 -0.1)">
       <defs>
        <path id="DejaVuSans-36" d="M 2113 2584 
Q 1688 2584 1439 2293 
Q 1191 2003 1191 1497 
Q 1191 994 1439 701 
Q 1688 409 2113 409 
Q 2538 409 2786 701 
Q 3034 994 3034 1497 
Q 3034 2003 2786 2293 
Q 2538 2584 2113 2584 
z
M 3366 4563 
L 3366 3988 
Q 3128 4100 2886 4159 
Q 2644 4219 2406 4219 
Q 1781 4219 1451 3797 
Q 1122 3375 1075 2522 
Q 1259 2794 1537 2939 
Q 1816 3084 2150 3084 
Q 2853 3084 3261 2657 
Q 3669 2231 3669 1497 
Q 3669 778 3244 343 
Q 2819 -91 2113 -91 
Q 1303 -91 875 529 
Q 447 1150 447 2328 
Q 447 3434 972 4092 
Q 1497 4750 2381 4750 
Q 2619 4750 2861 4703 
Q 3103 4656 3366 4563 
z
" transform="scale(0.015625)"/>
       </defs>
       <use xlink:href="#DejaVuSans-36"/>
       <use xlink:href="#DejaVuSans-30" x="63.623047"/>
       <use xlink:href="#DejaVuSans-30" x="127.246094"/>
      </g>
     </g>
    </g>
    <g id="xtick_4">
     <g id="line2d_4">
      <g>
       <use xlink:href="#mbcd4ad57a7" x="396.159317" y="294.795638" style="fill: #222222; stroke: #222222; stroke-width: 0.8"/>
      </g>
     </g>
     <g id="text_4">
      <!-- 700 -->
      <g style="fill: #222222" transform="translate(386.615567 309.394076) scale(0.1 -0.1)">
       <defs>
        <path id="DejaVuSans-37" d="M 525 4666 
L 3525 4666 
L 3525 4397 
L 1831 0 
L 1172 0 
L 2766 4134 
L 525 4134 
L 525 4666 
z
" transform="scale(0.015625)"/>
       </defs>
       <use xlink:href="#DejaVuSans-37"/>
       <use xlink:href="#DejaVuSans-30" x="63.623047"/>
       <use xlink:href="#DejaVuSans-30" x="127.246094"/>
      </g>
     </g>
    </g>
    <g id="xtick_5">
     <g id="line2d_5">
      <g>
       <use xlink:href="#mbcd4ad57a7" x="482.568142" y="294.795638" style="fill: #222222; stroke: #222222; stroke-width: 0.8"/>
      </g>
     </g>
     <g id="text_5">
      <!-- 800 -->
      <g style="fill: #222222" transform="translate(473.024392 309.394076) scale(0.1 -0.1)">
       <defs>
        <path id="DejaVuSans-38" d="M 2034 2216 
Q 1584 2216 1326 1975 
Q 1069 1734 1069 1313 
Q 1069 891 1326 650 
Q 1584 409 2034 409 
Q 2484 409 2743 651 
Q 3003 894 3003 1313 
Q 3003 1734 2745 1975 
Q 2488 2216 2034 2216 
z
M 1403 2484 
Q 997 2584 770 2862 
Q 544 3141 544 3541 
Q 544 4100 942 4425 
Q 1341 4750 2034 4750 
Q 2731 4750 3128 4425 
Q 3525 4100 3525 3541 
Q 3525 3141 3298 2862 
Q 3072 2584 2669 2484 
Q 3125 2378 3379 2068 
Q 3634 1759 3634 1313 
Q 3634 634 3220 271 
Q 2806 -91 2034 -91 
Q 1263 -91 848 271 
Q 434 634 434 1313 
Q 434 1759 690 2068 
Q 947 2378 1403 2484 
z
M 1172 3481 
Q 1172 3119 1398 2916 
Q 1625 2713 2034 2713 
Q 2441 2713 2670 2916 
Q 2900 3119 2900 3481 
Q 2900 3844 2670 4047 
Q 2441 4250 2034 4250 
Q 1625 4250 1398 4047 
Q 1172 3844 1172 3481 
z
" transform="scale(0.015625)"/>
       </defs>
       <use xlink:href="#DejaVuSans-38"/>
       <use xlink:href="#DejaVuSans-30" x="63.623047"/>
       <use xlink:href="#DejaVuSans-30" x="127.246094"/>
      </g>
     </g>
    </g>
    <g id="xtick_6">
     <g id="line2d_6">
      <g>
       <use xlink:href="#mbcd4ad57a7" x="568.976967" y="294.795638" style="fill: #222222; stroke: #222222; stroke-width: 0.8"/>
      </g>
     </g>
     <g id="text_6">
      <!-- 900 -->
      <g style="fill: #222222" transform="translate(559.433217 309.394076) scale(0.1 -0.1)">
       <defs>
        <path id="DejaVuSans-39" d="M 703 97 
L 703 672 
Q 941 559 1184 500 
Q 1428 441 1663 441 
Q 2288 441 2617 861 
Q 2947 1281 2994 2138 
Q 2813 1869 2534 1725 
Q 2256 1581 1919 1581 
Q 1219 1581 811 2004 
Q 403 2428 403 3163 
Q 403 3881 828 4315 
Q 1253 4750 1959 4750 
Q 2769 4750 3195 4129 
Q 3622 3509 3622 2328 
Q 3622 1225 3098 567 
Q 2575 -91 1691 -91 
Q 1453 -91 1209 -44 
Q 966 3 703 97 
z
M 1959 2075 
Q 2384 2075 2632 2365 
Q 2881 2656 2881 3163 
Q 2881 3666 2632 3958 
Q 2384 4250 1959 4250 
Q 1534 4250 1286 3958 
Q 1038 3666 1038 3163 
Q 1038 2656 1286 2365 
Q 1534 2075 1959 2075 
z
" transform="scale(0.015625)"/>
       </defs>
       <use xlink:href="#DejaVuSans-39"/>
       <use xlink:href="#DejaVuSans-30" x="63.623047"/>
       <use xlink:href="#DejaVuSans-30" x="127.246094"/>
      </g>
     </g>
    </g>
    <g id="xtick_7">
     <g id="line2d_7">
      <g>
       <use xlink:href="#mbcd4ad57a7" x="655.385792" y="294.795638" style="fill: #222222; stroke: #222222; stroke-width: 0.8"/>
      </g>
     </g>
     <g id="text_7">
      <!-- 1000 -->
      <g style="fill: #222222" transform="translate(642.660792 309.394076) scale(0.1 -0.1)">
       <defs>
        <path id="DejaVuSans-31" d="M 794 531 
L 1825 531 
L 1825 4091 
L 703 3866 
L 703 4441 
L 1819 4666 
L 2450 4666 
L 2450 531 
L 3481 531 
L 3481 0 
L 794 0 
L 794 531 
z
" transform="scale(0.015625)"/>
       </defs>
       <use xlink:href="#DejaVuSans-31"/>
       <use xlink:href="#DejaVuSans-30" x="63.623047"/>
       <use xlink:href="#DejaVuSans-30" x="127.246094"/>
       <use xlink:href="#DejaVuSans-30" x="190.869141"/>
      </g>
     </g>
    </g>
    <g id="text_8">
     <!-- Bangos ilgis, nm -->
     <g style="fill: #222222" transform="translate(327.644688 324.591888) scale(0.12 -0.12)">
      <defs>
       <path id="DejaVuSans-42" d="M 1259 2228 
L 1259 519 
L 2272 519 
Q 2781 519 3026 730 
Q 3272 941 3272 1375 
Q 3272 1813 3026 2020 
Q 2781 2228 2272 2228 
L 1259 2228 
z
M 1259 4147 
L 1259 2741 
L 2194 2741 
Q 2656 2741 2882 2914 
Q 3109 3088 3109 3444 
Q 3109 3797 2882 3972 
Q 2656 4147 2194 4147 
L 1259 4147 
z
M 628 4666 
L 2241 4666 
Q 2963 4666 3353 4366 
Q 3744 4066 3744 3513 
Q 3744 3084 3544 2831 
Q 3344 2578 2956 2516 
Q 3422 2416 3680 2098 
Q 3938 1781 3938 1306 
Q 3938 681 3513 340 
Q 3088 0 2303 0 
L 628 0 
L 628 4666 
z
" transform="scale(0.015625)"/>
       <path id="DejaVuSans-61" d="M 2194 1759 
Q 1497 1759 1228 1600 
Q 959 1441 959 1056 
Q 959 750 1161 570 
Q 1363 391 1709 391 
Q 2188 391 2477 730 
Q 2766 1069 2766 1631 
L 2766 1759 
L 2194 1759 
z
M 3341 1997 
L 3341 0 
L 2766 0 
L 2766 531 
Q 2569 213 2275 61 
Q 1981 -91 1556 -91 
Q 1019 -91 701 211 
Q 384 513 384 1019 
Q 384 1609 779 1909 
Q 1175 2209 1959 2209 
L 2766 2209 
L 2766 2266 
Q 2766 2663 2505 2880 
Q 2244 3097 1772 3097 
Q 1472 3097 1187 3025 
Q 903 2953 641 2809 
L 641 3341 
Q 956 3463 1253 3523 
Q 1550 3584 1831 3584 
Q 2591 3584 2966 3190 
Q 3341 2797 3341 1997 
z
" transform="scale(0.015625)"/>
       <path id="DejaVuSans-6e" d="M 3513 2113 
L 3513 0 
L 2938 0 
L 2938 2094 
Q 2938 2591 2744 2837 
Q 2550 3084 2163 3084 
Q 1697 3084 1428 2787 
Q 1159 2491 1159 1978 
L 1159 0 
L 581 0 
L 581 3500 
L 1159 3500 
L 1159 2956 
Q 1366 3272 1645 3428 
Q 1925 3584 2291 3584 
Q 2894 3584 3203 3211 
Q 3513 2838 3513 2113 
z
" transform="scale(0.015625)"/>
       <path id="DejaVuSans-67" d="M 2906 1791 
Q 2906 2416 2648 2759 
Q 2391 3103 1925 3103 
Q 1463 3103 1205 2759 
Q 947 2416 947 1791 
Q 947 1169 1205 825 
Q 1463 481 1925 481 
Q 2391 481 2648 825 
Q 2906 1169 2906 1791 
z
M 3481 434 
Q 3481 -459 3084 -895 
Q 2688 -1331 1869 -1331 
Q 1566 -1331 1297 -1286 
Q 1028 -1241 775 -1147 
L 775 -588 
Q 1028 -725 1275 -790 
Q 1522 -856 1778 -856 
Q 2344 -856 2625 -561 
Q 2906 -266 2906 331 
L 2906 616 
Q 2728 306 2450 153 
Q 2172 0 1784 0 
Q 1141 0 747 490 
Q 353 981 353 1791 
Q 353 2603 747 3093 
Q 1141 3584 1784 3584 
Q 2172 3584 2450 3431 
Q 2728 3278 2906 2969 
L 2906 3500 
L 3481 3500 
L 3481 434 
z
" transform="scale(0.015625)"/>
       <path id="DejaVuSans-6f" d="M 1959 3097 
Q 1497 3097 1228 2736 
Q 959 2375 959 1747 
Q 959 1119 1226 758 
Q 1494 397 1959 397 
Q 2419 397 2687 759 
Q 2956 1122 2956 1747 
Q 2956 2369 2687 2733 
Q 2419 3097 1959 3097 
z
M 1959 3584 
Q 2709 3584 3137 3096 
Q 3566 2609 3566 1747 
Q 3566 888 3137 398 
Q 2709 -91 1959 -91 
Q 1206 -91 779 398 
Q 353 888 353 1747 
Q 353 2609 779 3096 
Q 1206 3584 1959 3584 
z
" transform="scale(0.015625)"/>
       <path id="DejaVuSans-73" d="M 2834 3397 
L 2834 2853 
Q 2591 2978 2328 3040 
Q 2066 3103 1784 3103 
Q 1356 3103 1142 2972 
Q 928 2841 928 2578 
Q 928 2378 1081 2264 
Q 1234 2150 1697 2047 
L 1894 2003 
Q 2506 1872 2764 1633 
Q 3022 1394 3022 966 
Q 3022 478 2636 193 
Q 2250 -91 1575 -91 
Q 1294 -91 989 -36 
Q 684 19 347 128 
L 347 722 
Q 666 556 975 473 
Q 1284 391 1588 391 
Q 1994 391 2212 530 
Q 2431 669 2431 922 
Q 2431 1156 2273 1281 
Q 2116 1406 1581 1522 
L 1381 1569 
Q 847 1681 609 1914 
Q 372 2147 372 2553 
Q 372 3047 722 3315 
Q 1072 3584 1716 3584 
Q 2034 3584 2315 3537 
Q 2597 3491 2834 3397 
z
" transform="scale(0.015625)"/>
       <path id="DejaVuSans-20" transform="scale(0.015625)"/>
       <path id="DejaVuSans-69" d="M 603 3500 
L 1178 3500 
L 1178 0 
L 603 0 
L 603 3500 
z
M 603 4863 
L 1178 4863 
L 1178 4134 
L 603 4134 
L 603 4863 
z
" transform="scale(0.015625)"/>
       <path id="DejaVuSans-6c" d="M 603 4863 
L 1178 4863 
L 1178 0 
L 603 0 
L 603 4863 
z
" transform="scale(0.015625)"/>
       <path id="DejaVuSans-2c" d="M 750 794 
L 1409 794 
L 1409 256 
L 897 -744 
L 494 -744 
L 750 256 
L 750 794 
z
" transform="scale(0.015625)"/>
       <path id="DejaVuSans-6d" d="M 3328 2828 
Q 3544 3216 3844 3400 
Q 4144 3584 4550 3584 
Q 5097 3584 5394 3201 
Q 5691 2819 5691 2113 
L 5691 0 
L 5113 0 
L 5113 2094 
Q 5113 2597 4934 2840 
Q 4756 3084 4391 3084 
Q 3944 3084 3684 2787 
Q 3425 2491 3425 1978 
L 3425 0 
L 2847 0 
L 2847 2094 
Q 2847 2600 2669 2842 
Q 2491 3084 2119 3084 
Q 1678 3084 1418 2786 
Q 1159 2488 1159 1978 
L 1159 0 
L 581 0 
L 581 3500 
L 1159 3500 
L 1159 2956 
Q 1356 3278 1631 3431 
Q 1906 3584 2284 3584 
Q 2666 3584 2933 3390 
Q 3200 3197 3328 2828 
z
" transform="scale(0.015625)"/>
      </defs>
      <use xlink:href="#DejaVuSans-42"/>
      <use xlink:href="#DejaVuSans-61" x="68.603516"/>
      <use xlink:href="#DejaVuSans-6e" x="129.882812"/>
      <use xlink:href="#DejaVuSans-67" x="193.261719"/>
      <use xlink:href="#DejaVuSans-6f" x="256.738281"/>
      <use xlink:href="#DejaVuSans-73" x="317.919922"/>
      <use xlink:href="#DejaVuSans-20" x="370.019531"/>
      <use xlink:href="#DejaVuSans-69" x="401.806641"/>
      <use xlink:href="#DejaVuSans-6c" x="429.589844"/>
      <use xlink:href="#DejaVuSans-67" x="457.373047"/>
      <use xlink:href="#DejaVuSans-69" x="520.849609"/>
      <use xlink:href="#DejaVuSans-73" x="548.632812"/>
      <use xlink:href="#DejaVuSans-2c" x="600.732422"/>
      <use xlink:href="#DejaVuSans-20" x="632.519531"/>
      <use xlink:href="#DejaVuSans-6e" x="664.306641"/>
      <use xlink:href="#DejaVuSans-6d" x="727.685547"/>
     </g>
    </g>
   </g>
   <g id="matplotlib.axis_2">
    <g id="ytick_1">
     <g id="line2d_8">
      <defs>
       <path id="m8fcd82b8dd" d="M 0 0 
L -3.5 0 
" style="stroke: #222222; stroke-width: 0.8"/>
      </defs>
      <g>
       <use xlink:href="#m8fcd82b8dd" x="52.079375" y="259.713039" style="fill: #222222; stroke: #222222; stroke-width: 0.8"/>
      </g>
     </g>
     <g id="text_9">
      <!-- 0.02 -->
      <g style="fill: #222222" transform="translate(22.81375 263.512258) scale(0.1 -0.1)">
       <defs>
        <path id="DejaVuSans-2e" d="M 684 794 
L 1344 794 
L 1344 0 
L 684 0 
L 684 794 
z
" transform="scale(0.015625)"/>
        <path id="DejaVuSans-32" d="M 1228 531 
L 3431 531 
L 3431 0 
L 469 0 
L 469 531 
Q 828 903 1448 1529 
Q 2069 2156 2228 2338 
Q 2531 2678 2651 2914 
Q 2772 3150 2772 3378 
Q 2772 3750 2511 3984 
Q 2250 4219 1831 4219 
Q 1534 4219 1204 4116 
Q 875 4013 500 3803 
L 500 4441 
Q 881 4594 1212 4672 
Q 1544 4750 1819 4750 
Q 2544 4750 2975 4387 
Q 3406 4025 3406 3419 
Q 3406 3131 3298 2873 
Q 3191 2616 2906 2266 
Q 2828 2175 2409 1742 
Q 1991 1309 1228 531 
z
" transform="scale(0.015625)"/>
       </defs>
       <use xlink:href="#DejaVuSans-30"/>
       <use xlink:href="#DejaVuSans-2e" x="63.623047"/>
       <use xlink:href="#DejaVuSans-30" x="95.410156"/>
       <use xlink:href="#DejaVuSans-32" x="159.033203"/>
      </g>
     </g>
    </g>
    <g id="ytick_2">
     <g id="line2d_9">
      <g>
       <use xlink:href="#m8fcd82b8dd" x="52.079375" y="218.260736" style="fill: #222222; stroke: #222222; stroke-width: 0.8"/>
      </g>
     </g>
     <g id="text_10">
      <!-- 0.04 -->
      <g style="fill: #222222" transform="translate(22.81375 222.059955) scale(0.1 -0.1)">
       <use xlink:href="#DejaVuSans-30"/>
       <use xlink:href="#DejaVuSans-2e" x="63.623047"/>
       <use xlink:href="#DejaVuSans-30" x="95.410156"/>
       <use xlink:href="#DejaVuSans-34" x="159.033203"/>
      </g>
     </g>
    </g>
    <g id="ytick_3">
     <g id="line2d_10">
      <g>
       <use xlink:href="#m8fcd82b8dd" x="52.079375" y="176.808432" style="fill: #222222; stroke: #222222; stroke-width: 0.8"/>
      </g>
     </g>
     <g id="text_11">
      <!-- 0.06 -->
      <g style="fill: #222222" transform="translate(22.81375 180.607651) scale(0.1 -0.1)">
       <use xlink:href="#DejaVuSans-30"/>
       <use xlink:href="#DejaVuSans-2e" x="63.623047"/>
       <use xlink:href="#DejaVuSans-30" x="95.410156"/>
       <use xlink:href="#DejaVuSans-36" x="159.033203"/>
      </g>
     </g>
    </g>
    <g id="ytick_4">
     <g id="line2d_11">
      <g>
       <use xlink:href="#m8fcd82b8dd" x="52.079375" y="135.356129" style="fill: #222222; stroke: #222222; stroke-width: 0.8"/>
      </g>
     </g>
     <g id="text_12">
      <!-- 0.08 -->
      <g style="fill: #222222" transform="translate(22.81375 139.155348) scale(0.1 -0.1)">
       <use xlink:href="#DejaVuSans-30"/>
       <use xlink:href="#DejaVuSans-2e" x="63.623047"/>
       <use xlink:href="#DejaVuSans-30" x="95.410156"/>
       <use xlink:href="#DejaVuSans-38" x="159.033203"/>
      </g>
     </g>
    </g>
    <g id="ytick_5">
     <g id="line2d_12">
      <g>
       <use xlink:href="#m8fcd82b8dd" x="52.079375" y="93.903826" style="fill: #222222; stroke: #222222; stroke-width: 0.8"/>
      </g>
     </g>
     <g id="text_13">
      <!-- 0.10 -->
      <g style="fill: #222222" transform="translate(22.81375 97.703044) scale(0.1 -0.1)">
       <use xlink:href="#DejaVuSans-30"/>
       <use xlink:href="#DejaVuSans-2e" x="63.623047"/>
       <use xlink:href="#DejaVuSans-31" x="95.410156"/>
       <use xlink:href="#DejaVuSans-30" x="159.033203"/>
      </g>
     </g>
    </g>
    <g id="ytick_6">
     <g id="line2d_13">
      <g>
       <use xlink:href="#m8fcd82b8dd" x="52.079375" y="52.451522" style="fill: #222222; stroke: #222222; stroke-width: 0.8"/>
      </g>
     </g>
     <g id="text_14">
      <!-- 0.12 -->
      <g style="fill: #222222" transform="translate(22.81375 56.250741) scale(0.1 -0.1)">
       <use xlink:href="#DejaVuSans-30"/>
       <use xlink:href="#DejaVuSans-2e" x="63.623047"/>
       <use xlink:href="#DejaVuSans-31" x="95.410156"/>
       <use xlink:href="#DejaVuSans-32" x="159.033203"/>
      </g>
     </g>
    </g>
    <g id="ytick_7">
     <g id="line2d_14">
      <g>
       <use xlink:href="#m8fcd82b8dd" x="52.079375" y="10.999219" style="fill: #222222; stroke: #222222; stroke-width: 0.8"/>
      </g>
     </g>
     <g id="text_15">
      <!-- 0.14 -->
      <g style="fill: #222222" transform="translate(22.81375 14.798437) scale(0.1 -0.1)">
       <use xlink:href="#DejaVuSans-30"/>
       <use xlink:href="#DejaVuSans-2e" x="63.623047"/>
       <use xlink:href="#DejaVuSans-31" x="95.410156"/>
       <use xlink:href="#DejaVuSans-34" x="159.033203"/>
      </g>
     </g>
    </g>
    <g id="text_16">
     <!-- L2 normalizuotas srautas -->
     <g style="fill: #222222" transform="translate(16.318125 228.228239) rotate(-90) scale(0.12 -0.12)">
      <defs>
       <path id="DejaVuSans-4c" d="M 628 4666 
L 1259 4666 
L 1259 531 
L 3531 531 
L 3531 0 
L 628 0 
L 628 4666 
z
" transform="scale(0.015625)"/>
       <path id="DejaVuSans-72" d="M 2631 2963 
Q 2534 3019 2420 3045 
Q 2306 3072 2169 3072 
Q 1681 3072 1420 2755 
Q 1159 2438 1159 1844 
L 1159 0 
L 581 0 
L 581 3500 
L 1159 3500 
L 1159 2956 
Q 1341 3275 1631 3429 
Q 1922 3584 2338 3584 
Q 2397 3584 2469 3576 
Q 2541 3569 2628 3553 
L 2631 2963 
z
" transform="scale(0.015625)"/>
       <path id="DejaVuSans-7a" d="M 353 3500 
L 3084 3500 
L 3084 2975 
L 922 459 
L 3084 459 
L 3084 0 
L 275 0 
L 275 525 
L 2438 3041 
L 353 3041 
L 353 3500 
z
" transform="scale(0.015625)"/>
       <path id="DejaVuSans-75" d="M 544 1381 
L 544 3500 
L 1119 3500 
L 1119 1403 
Q 1119 906 1312 657 
Q 1506 409 1894 409 
Q 2359 409 2629 706 
Q 2900 1003 2900 1516 
L 2900 3500 
L 3475 3500 
L 3475 0 
L 2900 0 
L 2900 538 
Q 2691 219 2414 64 
Q 2138 -91 1772 -91 
Q 1169 -91 856 284 
Q 544 659 544 1381 
z
M 1991 3584 
L 1991 3584 
z
" transform="scale(0.015625)"/>
       <path id="DejaVuSans-74" d="M 1172 4494 
L 1172 3500 
L 2356 3500 
L 2356 3053 
L 1172 3053 
L 1172 1153 
Q 1172 725 1289 603 
Q 1406 481 1766 481 
L 2356 481 
L 2356 0 
L 1766 0 
Q 1100 0 847 248 
Q 594 497 594 1153 
L 594 3053 
L 172 3053 
L 172 3500 
L 594 3500 
L 594 4494 
L 1172 4494 
z
" transform="scale(0.015625)"/>
      </defs>
      <use xlink:href="#DejaVuSans-4c"/>
      <use xlink:href="#DejaVuSans-32" x="55.712891"/>
      <use xlink:href="#DejaVuSans-20" x="119.335938"/>
      <use xlink:href="#DejaVuSans-6e" x="151.123047"/>
      <use xlink:href="#DejaVuSans-6f" x="214.501953"/>
      <use xlink:href="#DejaVuSans-72" x="275.683594"/>
      <use xlink:href="#DejaVuSans-6d" x="315.046875"/>
      <use xlink:href="#DejaVuSans-61" x="412.458984"/>
      <use xlink:href="#DejaVuSans-6c" x="473.738281"/>
      <use xlink:href="#DejaVuSans-69" x="501.521484"/>
      <use xlink:href="#DejaVuSans-7a" x="529.304688"/>
      <use xlink:href="#DejaVuSans-75" x="581.794922"/>
      <use xlink:href="#DejaVuSans-6f" x="645.173828"/>
      <use xlink:href="#DejaVuSans-74" x="706.355469"/>
      <use xlink:href="#DejaVuSans-61" x="745.564453"/>
      <use xlink:href="#DejaVuSans-73" x="806.84375"/>
      <use xlink:href="#DejaVuSans-20" x="858.943359"/>
      <use xlink:href="#DejaVuSans-73" x="890.730469"/>
      <use xlink:href="#DejaVuSans-72" x="942.830078"/>
      <use xlink:href="#DejaVuSans-61" x="983.943359"/>
      <use xlink:href="#DejaVuSans-75" x="1045.222656"/>
      <use xlink:href="#DejaVuSans-74" x="1108.601562"/>
      <use xlink:href="#DejaVuSans-61" x="1147.810547"/>
      <use xlink:href="#DejaVuSans-73" x="1209.089844"/>
     </g>
    </g>
   </g>
   <g id="line2d_15">
    <path d="M 81.631193 23.254495 
L 83.35937 23.408103 
L 85.087546 31.148808 
L 86.815723 37.763702 
L 88.543899 42.682085 
L 90.272076 49.130535 
L 92.000252 49.73835 
L 93.728429 47.525567 
L 95.456605 48.749399 
L 97.184782 54.823917 
L 98.912958 55.129958 
L 100.641135 44.970246 
L 102.369311 39.270705 
L 104.097488 60.356031 
L 105.825664 92.003958 
L 107.553841 102.04915 
L 109.282017 85.914226 
L 111.010194 70.998599 
L 112.73837 75.471916 
L 114.466547 87.159681 
L 116.194723 88.446594 
L 117.9229 77.854312 
L 119.651076 71.24988 
L 121.379253 73.654066 
L 123.107429 72.181406 
L 124.835606 63.295097 
L 126.563782 59.736353 
L 128.291959 70.568078 
L 130.020135 87.363531 
L 131.748312 97.557447 
L 133.476488 95.819843 
L 135.204665 88.015357 
L 136.932841 84.453302 
L 138.661018 89.015828 
L 140.389194 99.364381 
L 142.117371 107.180879 
L 143.845547 107.385243 
L 147.3019 96.319325 
L 149.030077 95.897153 
L 150.758253 102.177098 
L 152.48643 111.357122 
L 154.214606 118.289853 
L 155.942783 120.073134 
L 157.670959 117.495338 
L 159.399136 113.707861 
L 161.127312 112.863098 
L 162.855489 116.06018 
L 164.583665 122.406321 
L 166.311842 129.521995 
L 168.040018 134.585772 
L 169.768195 136.252537 
L 171.496371 135.642172 
L 173.224548 134.099161 
L 174.952724 133.033701 
L 176.680901 133.050987 
L 178.409077 134.053157 
L 181.86543 137.025977 
L 187.04996 140.604203 
L 188.778136 142.372018 
L 193.962666 148.362092 
L 197.419019 150.950321 
L 199.147195 152.396905 
L 200.875372 154.413782 
L 202.603548 157.40397 
L 204.331725 161.350135 
L 207.788078 169.869835 
L 209.516254 173.04647 
L 211.244431 174.969086 
L 212.972607 175.03455 
L 214.700784 173.390678 
L 216.42896 170.500676 
L 218.157137 167.381054 
L 219.885313 164.793177 
L 221.61349 163.179984 
L 223.341666 162.991931 
L 225.069843 164.815084 
L 226.798019 167.723102 
L 231.982549 179.073287 
L 233.710725 181.682387 
L 235.438902 183.06955 
L 237.167078 183.234616 
L 238.895255 182.445403 
L 240.623431 181.297562 
L 242.351608 179.820868 
L 244.079784 178.524598 
L 245.807961 177.887776 
L 247.536137 177.89894 
L 249.264314 178.583388 
L 250.99249 180.139437 
L 257.905196 188.115625 
L 259.633373 189.632921 
L 263.089726 191.625142 
L 264.817902 192.298509 
L 268.274255 193.189776 
L 273.458785 195.569513 
L 276.915138 197.957781 
L 280.371491 200.311259 
L 282.099667 201.329643 
L 283.827844 201.96453 
L 285.55602 202.276206 
L 289.012373 203.228057 
L 292.468726 204.899694 
L 294.196903 206.077629 
L 295.925079 207.6092 
L 299.381432 210.25432 
L 301.109609 211.35023 
L 302.837785 211.992506 
L 306.294138 213.561418 
L 309.750491 214.165826 
L 311.478668 214.37938 
L 314.935021 215.314548 
L 318.391374 216.803489 
L 321.847727 218.455589 
L 328.760433 221.958032 
L 333.944962 222.816173 
L 335.673139 222.999282 
L 339.129492 223.692087 
L 340.857668 224.23975 
L 342.585845 224.514298 
L 344.314021 225.094153 
L 346.042198 226.874746 
L 347.770374 231.926426 
L 349.498551 236.210983 
L 351.226727 236.928838 
L 352.954904 234.24569 
L 354.68308 230.568762 
L 356.411257 228.554219 
L 358.139433 229.682878 
L 359.86761 233.322007 
L 361.595786 237.26214 
L 363.323963 239.296731 
L 365.052139 238.504826 
L 368.508492 232.754844 
L 370.236669 231.421649 
L 371.964845 232.664619 
L 375.421198 238.984657 
L 377.149375 240.853625 
L 378.877552 240.708594 
L 382.333905 237.548038 
L 384.062081 237.313517 
L 385.790258 238.84396 
L 389.246611 244.418328 
L 390.974787 245.778241 
L 392.702964 245.356691 
L 394.43114 243.476723 
L 396.159317 241.241954 
L 397.887493 239.600887 
L 399.61567 239.598563 
L 401.343846 241.055746 
L 404.800199 245.633057 
L 406.528376 247.30698 
L 408.256552 247.999074 
L 409.984729 247.834626 
L 411.712905 247.316959 
L 413.441082 247.014351 
L 415.169258 246.89262 
L 416.897435 247.259131 
L 418.625611 247.76524 
L 427.266494 249.355075 
L 432.451023 251.409141 
L 434.1792 251.750146 
L 435.907376 251.759411 
L 439.363729 251.45374 
L 441.091906 251.719763 
L 442.820082 252.381033 
L 444.548259 253.619469 
L 446.276435 255.006594 
L 448.004612 256.21515 
L 449.732788 257.037425 
L 451.460965 257.158005 
L 453.189141 256.575778 
L 454.917318 255.580869 
L 456.645494 254.453893 
L 458.373671 253.816898 
L 460.101847 253.881913 
L 461.830024 254.634552 
L 463.5582 255.975039 
L 467.014553 259.1771 
L 468.74273 260.175423 
L 470.470906 260.608096 
L 472.199083 260.495122 
L 475.655436 259.507485 
L 477.383612 259.194501 
L 479.111789 259.279149 
L 480.839965 259.859824 
L 486.024495 262.269125 
L 487.752671 262.484685 
L 489.480848 262.28994 
L 491.209024 261.735248 
L 492.937201 260.981342 
L 496.393554 260.004954 
L 498.12173 260.161362 
L 499.849907 260.760314 
L 501.578083 261.884737 
L 505.034436 264.478419 
L 506.762613 265.510711 
L 508.490789 266.166392 
L 510.218966 266.33276 
L 511.947142 266.151879 
L 513.675319 265.66039 
L 515.403495 264.971664 
L 517.131672 264.533971 
L 518.859848 264.325259 
L 522.316201 265.13286 
L 524.044378 265.8996 
L 529.228907 268.569405 
L 530.957084 269.047627 
L 532.68526 269.141707 
L 534.413437 269.006983 
L 536.141613 268.683317 
L 541.326143 267.223521 
L 544.782496 267.448374 
L 546.510672 267.977344 
L 555.151555 271.318084 
L 556.879731 271.707466 
L 558.607908 271.813184 
L 560.336084 271.643713 
L 563.792437 270.986928 
L 565.520614 270.44355 
L 568.976967 269.746689 
L 570.705143 269.572849 
L 572.43332 269.698061 
L 575.889673 270.382509 
L 586.258732 274.477748 
L 587.986908 274.712313 
L 589.715085 275.088028 
L 591.443261 275.333276 
L 594.899614 275.360203 
L 596.627791 275.416251 
L 601.81232 275.24843 
L 605.268673 275.391152 
L 606.99685 275.153436 
L 610.453203 275.343959 
L 612.181379 275.109239 
L 613.909556 275.26705 
L 615.637732 275.303627 
L 617.365909 275.191439 
L 624.278615 275.822494 
L 626.006791 276.283275 
L 631.191321 277.215314 
L 634.647674 277.350829 
L 636.37585 277.611598 
L 638.104027 277.309696 
L 639.832203 277.486428 
L 643.288556 277.271716 
L 645.016733 277.514847 
L 646.744909 277.354764 
L 648.473086 277.799424 
L 650.201262 278.024232 
L 651.929439 278.4228 
L 653.657615 279.153867 
L 657.113968 280.420323 
L 658.842145 281.153602 
L 662.298498 281.865107 
L 664.026674 281.722956 
L 667.483027 280.516414 
L 669.211204 278.995015 
L 670.93938 277.912309 
L 672.667557 276.077278 
L 672.667557 276.077278 
" clip-path="url(#p659b8f65d2)" style="fill: none; stroke: #104a7e; stroke-width: 2.2; stroke-linecap: square"/>
   </g>
   <g id="line2d_16">
    <path d="M 81.631193 30.170719 
L 83.35937 30.558254 
L 85.087546 38.550706 
L 86.815723 40.587288 
L 88.543899 37.158907 
L 90.272076 42.391458 
L 92.000252 54.141046 
L 93.728429 61.35123 
L 95.456605 55.270867 
L 97.184782 51.173755 
L 98.912958 64.118238 
L 100.641135 72.678052 
L 102.369311 62.822226 
L 104.097488 57.9861 
L 105.825664 68.233416 
L 107.553841 80.23063 
L 109.282017 80.762096 
L 111.010194 75.415736 
L 112.73837 75.887331 
L 114.466547 82.125182 
L 116.194723 85.318205 
L 119.651076 73.425899 
L 121.379253 76.315281 
L 123.107429 80.342708 
L 124.835606 78.057354 
L 126.563782 75.168359 
L 128.291959 81.663691 
L 130.020135 95.607073 
L 131.748312 107.027269 
L 133.476488 106.792687 
L 135.204665 95.487315 
L 136.932841 82.486782 
L 138.661018 76.27464 
L 140.389194 80.873853 
L 142.117371 90.975051 
L 143.845547 99.182431 
L 145.573724 101.611872 
L 147.3019 99.563315 
L 149.030077 96.24284 
L 150.758253 95.636731 
L 152.48643 97.811593 
L 154.214606 100.800509 
L 155.942783 102.977876 
L 157.670959 104.569316 
L 159.399136 107.130066 
L 161.127312 113.03717 
L 162.855489 121.752925 
L 164.583665 131.120074 
L 166.311842 138.039702 
L 168.040018 139.84232 
L 169.768195 136.258471 
L 171.496371 130.150119 
L 173.224548 124.695429 
L 174.952724 122.460275 
L 176.680901 124.049635 
L 178.409077 128.259549 
L 180.137254 132.938883 
L 181.86543 135.942574 
L 183.593607 136.345265 
L 185.321783 134.791524 
L 187.04996 132.459626 
L 188.778136 131.282051 
L 190.506313 132.075141 
L 192.234489 134.964322 
L 195.690842 143.942554 
L 197.419019 147.892814 
L 199.147195 150.579775 
L 200.875372 152.116459 
L 202.603548 153.208088 
L 204.331725 154.593375 
L 206.059901 156.506769 
L 207.788078 159.549541 
L 209.516254 162.971687 
L 211.244431 166.692288 
L 212.972607 169.714685 
L 214.700784 171.572518 
L 216.42896 172.046047 
L 218.157137 171.561124 
L 219.885313 170.49984 
L 221.61349 169.201879 
L 223.341666 168.240865 
L 225.069843 168.481909 
L 226.798019 169.407896 
L 228.526196 171.263883 
L 231.982549 175.911718 
L 233.710725 178.020652 
L 235.438902 179.57079 
L 237.167078 180.494274 
L 240.623431 181.357429 
L 242.351608 181.615379 
L 244.079784 182.078437 
L 245.807961 183.086474 
L 247.536137 184.519388 
L 249.264314 186.314548 
L 252.720667 190.887579 
L 254.448843 192.794832 
L 256.17702 194.3454 
L 257.905196 195.490539 
L 259.633373 195.98036 
L 263.089726 195.649251 
L 266.546079 194.843372 
L 268.274255 194.587959 
L 270.002432 194.995665 
L 271.730608 195.636982 
L 273.458785 196.740289 
L 275.186961 198.311825 
L 280.371491 203.852891 
L 282.099667 205.48348 
L 283.827844 206.609002 
L 287.284197 207.799267 
L 292.468726 209.025554 
L 294.196903 209.608791 
L 295.925079 210.498453 
L 301.109609 212.620087 
L 302.837785 212.931239 
L 306.294138 214.215533 
L 311.478668 215.48988 
L 313.206844 216.220537 
L 314.935021 217.079887 
L 323.575903 222.26232 
L 325.30408 223.039545 
L 327.032256 223.974062 
L 328.760433 224.601697 
L 332.216786 224.755402 
L 337.401315 224.646719 
L 339.129492 224.695194 
L 340.857668 225.304275 
L 342.585845 226.383435 
L 344.314021 227.065083 
L 346.042198 226.572594 
L 347.770374 227.515411 
L 351.226727 231.829314 
L 352.954904 233.439251 
L 354.68308 234.731191 
L 356.411257 235.772413 
L 358.139433 236.57944 
L 359.86761 237.058233 
L 361.595786 237.138914 
L 366.780316 236.449803 
L 371.964845 235.795688 
L 373.693022 236.027704 
L 375.421198 236.438385 
L 377.149375 237.268471 
L 380.605728 239.259184 
L 382.333905 240.100397 
L 384.062081 240.695097 
L 385.790258 241.006225 
L 394.43114 241.860474 
L 397.887493 243.109947 
L 401.343846 245.041881 
L 403.072023 245.689323 
L 404.800199 246.064354 
L 406.528376 246.016825 
L 408.256552 245.634488 
L 409.984729 245.121838 
L 411.712905 244.846443 
L 413.441082 245.158718 
L 415.169258 245.813567 
L 418.625611 248.222718 
L 420.353788 249.095417 
L 422.081964 249.656873 
L 423.810141 249.92047 
L 425.538317 249.930616 
L 427.266494 249.810688 
L 428.99467 249.917747 
L 432.451023 250.701839 
L 435.907376 251.738732 
L 437.635553 252.138109 
L 442.820082 252.780239 
L 448.004612 253.971591 
L 449.732788 254.307039 
L 451.460965 254.456682 
L 454.917318 254.33619 
L 456.645494 254.227389 
L 458.373671 254.423718 
L 460.101847 254.893311 
L 463.5582 256.209939 
L 467.014553 257.451739 
L 468.74273 257.663017 
L 472.199083 257.705985 
L 473.927259 257.697544 
L 475.655436 257.847434 
L 477.383612 258.130255 
L 479.111789 258.561267 
L 482.568142 259.682352 
L 486.024495 260.553385 
L 496.393554 261.554162 
L 499.849907 262.0451 
L 503.30626 262.458334 
L 506.762613 262.562271 
L 510.218966 262.923882 
L 515.403495 264.16515 
L 518.859848 265.10365 
L 520.588025 265.612781 
L 524.044378 265.824023 
L 525.772554 265.829304 
L 532.68526 266.368627 
L 539.597966 267.689963 
L 541.326143 267.71066 
L 543.054319 268.04631 
L 544.782496 268.027549 
L 548.238849 268.139823 
L 549.967025 268.161381 
L 551.695202 268.037218 
L 555.151555 268.340525 
L 558.607908 268.816123 
L 570.705143 269.881481 
L 581.074202 271.704806 
L 582.802379 271.838181 
L 584.530555 272.123216 
L 586.258732 272.20305 
L 587.986908 272.050101 
L 591.443261 272.345012 
L 593.171438 272.346192 
L 596.627791 273.007139 
L 605.268673 274.795065 
L 606.99685 274.645181 
L 608.725026 274.742385 
L 610.453203 274.59585 
L 612.181379 274.049268 
L 613.909556 273.8356 
L 615.637732 273.466756 
L 617.365909 272.952913 
L 620.822262 272.678646 
L 624.278615 272.949982 
L 627.734968 274.146873 
L 629.463144 274.684733 
L 631.191321 275.617148 
L 634.647674 276.638532 
L 636.37585 277.29556 
L 638.104027 277.306859 
L 639.832203 277.698905 
L 643.288556 277.570281 
L 645.016733 277.673508 
L 646.744909 277.26068 
L 648.473086 277.348831 
L 651.929439 276.987782 
L 653.657615 277.152651 
L 655.385792 277.123386 
L 657.113968 277.221162 
L 658.842145 277.432999 
L 660.570321 277.249903 
L 662.298498 277.372033 
L 664.026674 277.060401 
L 665.754851 276.475065 
L 667.483027 276.190155 
L 669.211204 275.113864 
L 670.93938 274.814844 
L 672.667557 273.849183 
L 672.667557 273.849183 
" clip-path="url(#p659b8f65d2)" style="fill: none; stroke: #78003f; stroke-width: 2.2; stroke-linecap: square"/>
   </g>
   <g id="patch_3">
    <path d="M 52.079375 294.795638 
L 52.079375 10.323964 
" style="fill: none; stroke: #444444; stroke-width: 0.8; stroke-linejoin: miter; stroke-linecap: square"/>
   </g>
   <g id="patch_4">
    <path d="M 52.079375 294.795638 
L 702.219375 294.795638 
" style="fill: none; stroke: #444444; stroke-width: 0.8; stroke-linejoin: miter; stroke-linecap: square"/>
   </g>
   <g id="legend_1">
    <g id="line2d_17">
     <path d="M 502.117813 23.422401 
L 512.117813 23.422401 
L 522.117813 23.422401 
" style="fill: none; stroke: #104a7e; stroke-width: 2.2; stroke-linecap: square"/>
    </g>
    <g id="text_17">
     <!-- Tiriamas spektras (Dvinarė) -->
     <g style="fill: #222222" transform="translate(530.117813 26.922401) scale(0.1 -0.1)">
      <defs>
       <path id="DejaVuSans-54" d="M -19 4666 
L 3928 4666 
L 3928 4134 
L 2272 4134 
L 2272 0 
L 1638 0 
L 1638 4134 
L -19 4134 
L -19 4666 
z
" transform="scale(0.015625)"/>
       <path id="DejaVuSans-70" d="M 1159 525 
L 1159 -1331 
L 581 -1331 
L 581 3500 
L 1159 3500 
L 1159 2969 
Q 1341 3281 1617 3432 
Q 1894 3584 2278 3584 
Q 2916 3584 3314 3078 
Q 3713 2572 3713 1747 
Q 3713 922 3314 415 
Q 2916 -91 2278 -91 
Q 1894 -91 1617 61 
Q 1341 213 1159 525 
z
M 3116 1747 
Q 3116 2381 2855 2742 
Q 2594 3103 2138 3103 
Q 1681 3103 1420 2742 
Q 1159 2381 1159 1747 
Q 1159 1113 1420 752 
Q 1681 391 2138 391 
Q 2594 391 2855 752 
Q 3116 1113 3116 1747 
z
" transform="scale(0.015625)"/>
       <path id="DejaVuSans-65" d="M 3597 1894 
L 3597 1613 
L 953 1613 
Q 991 1019 1311 708 
Q 1631 397 2203 397 
Q 2534 397 2845 478 
Q 3156 559 3463 722 
L 3463 178 
Q 3153 47 2828 -22 
Q 2503 -91 2169 -91 
Q 1331 -91 842 396 
Q 353 884 353 1716 
Q 353 2575 817 3079 
Q 1281 3584 2069 3584 
Q 2775 3584 3186 3129 
Q 3597 2675 3597 1894 
z
M 3022 2063 
Q 3016 2534 2758 2815 
Q 2500 3097 2075 3097 
Q 1594 3097 1305 2825 
Q 1016 2553 972 2059 
L 3022 2063 
z
" transform="scale(0.015625)"/>
       <path id="DejaVuSans-6b" d="M 581 4863 
L 1159 4863 
L 1159 1991 
L 2875 3500 
L 3609 3500 
L 1753 1863 
L 3688 0 
L 2938 0 
L 1159 1709 
L 1159 0 
L 581 0 
L 581 4863 
z
" transform="scale(0.015625)"/>
       <path id="DejaVuSans-28" d="M 1984 4856 
Q 1566 4138 1362 3434 
Q 1159 2731 1159 2009 
Q 1159 1288 1364 580 
Q 1569 -128 1984 -844 
L 1484 -844 
Q 1016 -109 783 600 
Q 550 1309 550 2009 
Q 550 2706 781 3412 
Q 1013 4119 1484 4856 
L 1984 4856 
z
" transform="scale(0.015625)"/>
       <path id="DejaVuSans-44" d="M 1259 4147 
L 1259 519 
L 2022 519 
Q 2988 519 3436 956 
Q 3884 1394 3884 2338 
Q 3884 3275 3436 3711 
Q 2988 4147 2022 4147 
L 1259 4147 
z
M 628 4666 
L 1925 4666 
Q 3281 4666 3915 4102 
Q 4550 3538 4550 2338 
Q 4550 1131 3912 565 
Q 3275 0 1925 0 
L 628 0 
L 628 4666 
z
" transform="scale(0.015625)"/>
       <path id="DejaVuSans-76" d="M 191 3500 
L 800 3500 
L 1894 563 
L 2988 3500 
L 3597 3500 
L 2284 0 
L 1503 0 
L 191 3500 
z
" transform="scale(0.015625)"/>
       <path id="DejaVuSans-117" d="M 1778 4863 
L 2353 4863 
L 2353 4134 
L 1778 4134 
L 1778 4863 
z
M 2072 3584 
L 2072 3584 
z
M 3597 1894 
L 3597 1613 
L 953 1613 
Q 991 1019 1311 708 
Q 1631 397 2203 397 
Q 2534 397 2845 478 
Q 3156 559 3463 722 
L 3463 178 
Q 3153 47 2828 -22 
Q 2503 -91 2169 -91 
Q 1331 -91 842 396 
Q 353 884 353 1716 
Q 353 2575 817 3079 
Q 1281 3584 2069 3584 
Q 2775 3584 3186 3129 
Q 3597 2675 3597 1894 
z
M 3022 2063 
Q 3016 2534 2758 2815 
Q 2500 3097 2075 3097 
Q 1594 3097 1305 2825 
Q 1016 2553 972 2059 
L 3022 2063 
z
" transform="scale(0.015625)"/>
       <path id="DejaVuSans-29" d="M 513 4856 
L 1013 4856 
Q 1481 4119 1714 3412 
Q 1947 2706 1947 2009 
Q 1947 1309 1714 600 
Q 1481 -109 1013 -844 
L 513 -844 
Q 928 -128 1133 580 
Q 1338 1288 1338 2009 
Q 1338 2731 1133 3434 
Q 928 4138 513 4856 
z
" transform="scale(0.015625)"/>
      </defs>
      <use xlink:href="#DejaVuSans-54"/>
      <use xlink:href="#DejaVuSans-69" x="57.958984"/>
      <use xlink:href="#DejaVuSans-72" x="85.742188"/>
      <use xlink:href="#DejaVuSans-69" x="126.855469"/>
      <use xlink:href="#DejaVuSans-61" x="154.638672"/>
      <use xlink:href="#DejaVuSans-6d" x="215.917969"/>
      <use xlink:href="#DejaVuSans-61" x="313.330078"/>
      <use xlink:href="#DejaVuSans-73" x="374.609375"/>
      <use xlink:href="#DejaVuSans-20" x="426.708984"/>
      <use xlink:href="#DejaVuSans-73" x="458.496094"/>
      <use xlink:href="#DejaVuSans-70" x="510.595703"/>
      <use xlink:href="#DejaVuSans-65" x="574.072266"/>
      <use xlink:href="#DejaVuSans-6b" x="635.595703"/>
      <use xlink:href="#DejaVuSans-74" x="693.505859"/>
      <use xlink:href="#DejaVuSans-72" x="732.714844"/>
      <use xlink:href="#DejaVuSans-61" x="773.828125"/>
      <use xlink:href="#DejaVuSans-73" x="835.107422"/>
      <use xlink:href="#DejaVuSans-20" x="887.207031"/>
      <use xlink:href="#DejaVuSans-28" x="918.994141"/>
      <use xlink:href="#DejaVuSans-44" x="958.007812"/>
      <use xlink:href="#DejaVuSans-76" x="1035.009766"/>
      <use xlink:href="#DejaVuSans-69" x="1094.189453"/>
      <use xlink:href="#DejaVuSans-6e" x="1121.972656"/>
      <use xlink:href="#DejaVuSans-61" x="1185.351562"/>
      <use xlink:href="#DejaVuSans-72" x="1246.630859"/>
      <use xlink:href="#DejaVuSans-117" x="1287.744141"/>
      <use xlink:href="#DejaVuSans-29" x="1349.267578"/>
     </g>
    </g>
    <g id="line2d_18">
     <path d="M 502.117813 38.100526 
L 512.117813 38.100526 
L 522.117813 38.100526 
" style="fill: none; stroke: #78003f; stroke-width: 2.2; stroke-linecap: square"/>
    </g>
    <g id="text_18">
     <!-- Artimiausias kaimynas (Dvinarė) -->
     <g style="fill: #222222" transform="translate(530.117813 41.600526) scale(0.1 -0.1)">
      <defs>
       <path id="DejaVuSans-41" d="M 2188 4044 
L 1331 1722 
L 3047 1722 
L 2188 4044 
z
M 1831 4666 
L 2547 4666 
L 4325 0 
L 3669 0 
L 3244 1197 
L 1141 1197 
L 716 0 
L 50 0 
L 1831 4666 
z
" transform="scale(0.015625)"/>
       <path id="DejaVuSans-79" d="M 2059 -325 
Q 1816 -950 1584 -1140 
Q 1353 -1331 966 -1331 
L 506 -1331 
L 506 -850 
L 844 -850 
Q 1081 -850 1212 -737 
Q 1344 -625 1503 -206 
L 1606 56 
L 191 3500 
L 800 3500 
L 1894 763 
L 2988 3500 
L 3597 3500 
L 2059 -325 
z
" transform="scale(0.015625)"/>
      </defs>
      <use xlink:href="#DejaVuSans-41"/>
      <use xlink:href="#DejaVuSans-72" x="68.408203"/>
      <use xlink:href="#DejaVuSans-74" x="109.521484"/>
      <use xlink:href="#DejaVuSans-69" x="148.730469"/>
      <use xlink:href="#DejaVuSans-6d" x="176.513672"/>
      <use xlink:href="#DejaVuSans-69" x="273.925781"/>
      <use xlink:href="#DejaVuSans-61" x="301.708984"/>
      <use xlink:href="#DejaVuSans-75" x="362.988281"/>
      <use xlink:href="#DejaVuSans-73" x="426.367188"/>
      <use xlink:href="#DejaVuSans-69" x="478.466797"/>
      <use xlink:href="#DejaVuSans-61" x="506.25"/>
      <use xlink:href="#DejaVuSans-73" x="567.529297"/>
      <use xlink:href="#DejaVuSans-20" x="619.628906"/>
      <use xlink:href="#DejaVuSans-6b" x="651.416016"/>
      <use xlink:href="#DejaVuSans-61" x="707.576172"/>
      <use xlink:href="#DejaVuSans-69" x="768.855469"/>
      <use xlink:href="#DejaVuSans-6d" x="796.638672"/>
      <use xlink:href="#DejaVuSans-79" x="894.050781"/>
      <use xlink:href="#DejaVuSans-6e" x="953.230469"/>
      <use xlink:href="#DejaVuSans-61" x="1016.609375"/>
      <use xlink:href="#DejaVuSans-73" x="1077.888672"/>
      <use xlink:href="#DejaVuSans-20" x="1129.988281"/>
      <use xlink:href="#DejaVuSans-28" x="1161.775391"/>
      <use xlink:href="#DejaVuSans-44" x="1200.789062"/>
      <use xlink:href="#DejaVuSans-76" x="1277.791016"/>
      <use xlink:href="#DejaVuSans-69" x="1336.970703"/>
      <use xlink:href="#DejaVuSans-6e" x="1364.753906"/>
      <use xlink:href="#DejaVuSans-61" x="1428.132812"/>
      <use xlink:href="#DejaVuSans-72" x="1489.412109"/>
      <use xlink:href="#DejaVuSans-117" x="1530.525391"/>
      <use xlink:href="#DejaVuSans-29" x="1592.048828"/>
     </g>
    </g>
   </g>
  </g>
 </g>
 <defs>
  <clipPath id="p659b8f65d2">
   <rect x="52.079375" y="10.323964" width="650.14" height="284.471674"/>
  </clipPath>
 </defs>
</svg>
