<?xml version="1.0" encoding="utf-8" standalone="no"?>
<!DOCTYPE svg PUBLIC "-//W3C//DTD SVG 1.1//EN"
  "http://www.w3.org/Graphics/SVG/1.1/DTD/svg11.dtd">
<svg xmlns:xlink="http://www.w3.org/1999/xlink" width="745.674062pt" height="406.051741pt" viewBox="0 0 745.674062 406.051741" xmlns="http://www.w3.org/2000/svg" version="1.1">
 <metadata>
  <rdf:RDF xmlns:dc="http://purl.org/dc/elements/1.1/" xmlns:cc="http://creativecommons.org/ns#" xmlns:rdf="http://www.w3.org/1999/02/22-rdf-syntax-ns#">
   <cc:Work>
    <dc:type rdf:resource="http://purl.org/dc/dcmitype/StillImage"/>
    <dc:date>2026-04-26T14:38:52.388469</dc:date>
    <dc:format>image/svg+xml</dc:format>
    <dc:creator>
     <cc:Agent>
      <dc:title>Matplotlib v3.8.0, https://matplotlib.org/</dc:title>
     </cc:Agent>
    </dc:creator>
   </cc:Work>
  </rdf:RDF>
 </metadata>
 <defs>
  <style type="text/css">*{stroke-linejoin: round; stroke-linecap: butt}</style>
 </defs>
 <g id="figure_1">
  <g id="patch_1">
   <path d="M 0 406.051741 
L 745.674062 406.051741 
L 745.674062 0 
L 0 0 
z
" style="fill: #ffffff"/>
  </g>
  <g id="axes_1">
   <g id="patch_2">
    <path d="M 73.664063 366.559866 
L 738.474062 366.559866 
L 738.474062 8.274499 
L 73.664063 8.274499 
z
" style="fill: #ffffff"/>
   </g>
   <g id="matplotlib.axis_1">
    <g id="xtick_1">
     <g id="line2d_1">
      <defs>
       <path id="m672fcbdc2d" d="M 0 0 
L 0 3.5 
" style="stroke: #222222; stroke-width: 0.8"/>
      </defs>
      <g>
       <use xlink:href="#m672fcbdc2d" x="160.432194" y="366.559866" style="fill: #222222; stroke: #222222; stroke-width: 0.8"/>
      </g>
     </g>
     <g id="text_1">
      <!-- 400 -->
      <g style="fill: #222222" transform="translate(150.888444 381.158303) scale(0.1 -0.1)">
       <defs>
        <path id="DejaVuSans-34" d="M 2419 4116 
L 825 1625 
L 2419 1625 
L 2419 4116 
z
M 2253 4666 
L 3047 4666 
L 3047 1625 
L 3713 1625 
L 3713 1100 
L 3047 1100 
L 3047 0 
L 2419 0 
L 2419 1100 
L 313 1100 
L 313 1709 
L 2253 4666 
z
" transform="scale(0.015625)"/>
        <path id="DejaVuSans-30" d="M 2034 4250 
Q 1547 4250 1301 3770 
Q 1056 3291 1056 2328 
Q 1056 1369 1301 889 
Q 1547 409 2034 409 
Q 2525 409 2770 889 
Q 3016 1369 3016 2328 
Q 3016 3291 2770 3770 
Q 2525 4250 2034 4250 
z
M 2034 4750 
Q 2819 4750 3233 4129 
Q 3647 3509 3647 2328 
Q 3647 1150 3233 529 
Q 2819 -91 2034 -91 
Q 1250 -91 836 529 
Q 422 1150 422 2328 
Q 422 3509 836 4129 
Q 1250 4750 2034 4750 
z
" transform="scale(0.015625)"/>
       </defs>
       <use xlink:href="#DejaVuSans-34"/>
       <use xlink:href="#DejaVuSans-30" x="63.623047"/>
       <use xlink:href="#DejaVuSans-30" x="127.246094"/>
      </g>
     </g>
    </g>
    <g id="xtick_2">
     <g id="line2d_2">
      <g>
       <use xlink:href="#m672fcbdc2d" x="248.79078" y="366.559866" style="fill: #222222; stroke: #222222; stroke-width: 0.8"/>
      </g>
     </g>
     <g id="text_2">
      <!-- 500 -->
      <g style="fill: #222222" transform="translate(239.24703 381.158303) scale(0.1 -0.1)">
       <defs>
        <path id="DejaVuSans-35" d="M 691 4666 
L 3169 4666 
L 3169 4134 
L 1269 4134 
L 1269 2991 
Q 1406 3038 1543 3061 
Q 1681 3084 1819 3084 
Q 2600 3084 3056 2656 
Q 3513 2228 3513 1497 
Q 3513 744 3044 326 
Q 2575 -91 1722 -91 
Q 1428 -91 1123 -41 
Q 819 9 494 109 
L 494 744 
Q 775 591 1075 516 
Q 1375 441 1709 441 
Q 2250 441 2565 725 
Q 2881 1009 2881 1497 
Q 2881 1984 2565 2268 
Q 2250 2553 1709 2553 
Q 1456 2553 1204 2497 
Q 953 2441 691 2322 
L 691 4666 
z
" transform="scale(0.015625)"/>
       </defs>
       <use xlink:href="#DejaVuSans-35"/>
       <use xlink:href="#DejaVuSans-30" x="63.623047"/>
       <use xlink:href="#DejaVuSans-30" x="127.246094"/>
      </g>
     </g>
    </g>
    <g id="xtick_3">
     <g id="line2d_3">
      <g>
       <use xlink:href="#m672fcbdc2d" x="337.149366" y="366.559866" style="fill: #222222; stroke: #222222; stroke-width: 0.8"/>
      </g>
     </g>
     <g id="text_3">
      <!-- 600 -->
      <g style="fill: #222222" transform="translate(327.605616 381.158303) scale(0.1 -0.1)">
       <defs>
        <path id="DejaVuSans-36" d="M 2113 2584 
Q 1688 2584 1439 2293 
Q 1191 2003 1191 1497 
Q 1191 994 1439 701 
Q 1688 409 2113 409 
Q 2538 409 2786 701 
Q 3034 994 3034 1497 
Q 3034 2003 2786 2293 
Q 2538 2584 2113 2584 
z
M 3366 4563 
L 3366 3988 
Q 3128 4100 2886 4159 
Q 2644 4219 2406 4219 
Q 1781 4219 1451 3797 
Q 1122 3375 1075 2522 
Q 1259 2794 1537 2939 
Q 1816 3084 2150 3084 
Q 2853 3084 3261 2657 
Q 3669 2231 3669 1497 
Q 3669 778 3244 343 
Q 2819 -91 2113 -91 
Q 1303 -91 875 529 
Q 447 1150 447 2328 
Q 447 3434 972 4092 
Q 1497 4750 2381 4750 
Q 2619 4750 2861 4703 
Q 3103 4656 3366 4563 
z
" transform="scale(0.015625)"/>
       </defs>
       <use xlink:href="#DejaVuSans-36"/>
       <use xlink:href="#DejaVuSans-30" x="63.623047"/>
       <use xlink:href="#DejaVuSans-30" x="127.246094"/>
      </g>
     </g>
    </g>
    <g id="xtick_4">
     <g id="line2d_4">
      <g>
       <use xlink:href="#m672fcbdc2d" x="425.507951" y="366.559866" style="fill: #222222; stroke: #222222; stroke-width: 0.8"/>
      </g>
     </g>
     <g id="text_4">
      <!-- 700 -->
      <g style="fill: #222222" transform="translate(415.964201 381.158303) scale(0.1 -0.1)">
       <defs>
        <path id="DejaVuSans-37" d="M 525 4666 
L 3525 4666 
L 3525 4397 
L 1831 0 
L 1172 0 
L 2766 4134 
L 525 4134 
L 525 4666 
z
" transform="scale(0.015625)"/>
       </defs>
       <use xlink:href="#DejaVuSans-37"/>
       <use xlink:href="#DejaVuSans-30" x="63.623047"/>
       <use xlink:href="#DejaVuSans-30" x="127.246094"/>
      </g>
     </g>
    </g>
    <g id="xtick_5">
     <g id="line2d_5">
      <g>
       <use xlink:href="#m672fcbdc2d" x="513.866537" y="366.559866" style="fill: #222222; stroke: #222222; stroke-width: 0.8"/>
      </g>
     </g>
     <g id="text_5">
      <!-- 800 -->
      <g style="fill: #222222" transform="translate(504.322787 381.158303) scale(0.1 -0.1)">
       <defs>
        <path id="DejaVuSans-38" d="M 2034 2216 
Q 1584 2216 1326 1975 
Q 1069 1734 1069 1313 
Q 1069 891 1326 650 
Q 1584 409 2034 409 
Q 2484 409 2743 651 
Q 3003 894 3003 1313 
Q 3003 1734 2745 1975 
Q 2488 2216 2034 2216 
z
M 1403 2484 
Q 997 2584 770 2862 
Q 544 3141 544 3541 
Q 544 4100 942 4425 
Q 1341 4750 2034 4750 
Q 2731 4750 3128 4425 
Q 3525 4100 3525 3541 
Q 3525 3141 3298 2862 
Q 3072 2584 2669 2484 
Q 3125 2378 3379 2068 
Q 3634 1759 3634 1313 
Q 3634 634 3220 271 
Q 2806 -91 2034 -91 
Q 1263 -91 848 271 
Q 434 634 434 1313 
Q 434 1759 690 2068 
Q 947 2378 1403 2484 
z
M 1172 3481 
Q 1172 3119 1398 2916 
Q 1625 2713 2034 2713 
Q 2441 2713 2670 2916 
Q 2900 3119 2900 3481 
Q 2900 3844 2670 4047 
Q 2441 4250 2034 4250 
Q 1625 4250 1398 4047 
Q 1172 3844 1172 3481 
z
" transform="scale(0.015625)"/>
       </defs>
       <use xlink:href="#DejaVuSans-38"/>
       <use xlink:href="#DejaVuSans-30" x="63.623047"/>
       <use xlink:href="#DejaVuSans-30" x="127.246094"/>
      </g>
     </g>
    </g>
    <g id="xtick_6">
     <g id="line2d_6">
      <g>
       <use xlink:href="#m672fcbdc2d" x="602.225123" y="366.559866" style="fill: #222222; stroke: #222222; stroke-width: 0.8"/>
      </g>
     </g>
     <g id="text_6">
      <!-- 900 -->
      <g style="fill: #222222" transform="translate(592.681373 381.158303) scale(0.1 -0.1)">
       <defs>
        <path id="DejaVuSans-39" d="M 703 97 
L 703 672 
Q 941 559 1184 500 
Q 1428 441 1663 441 
Q 2288 441 2617 861 
Q 2947 1281 2994 2138 
Q 2813 1869 2534 1725 
Q 2256 1581 1919 1581 
Q 1219 1581 811 2004 
Q 403 2428 403 3163 
Q 403 3881 828 4315 
Q 1253 4750 1959 4750 
Q 2769 4750 3195 4129 
Q 3622 3509 3622 2328 
Q 3622 1225 3098 567 
Q 2575 -91 1691 -91 
Q 1453 -91 1209 -44 
Q 966 3 703 97 
z
M 1959 2075 
Q 2384 2075 2632 2365 
Q 2881 2656 2881 3163 
Q 2881 3666 2632 3958 
Q 2384 4250 1959 4250 
Q 1534 4250 1286 3958 
Q 1038 3666 1038 3163 
Q 1038 2656 1286 2365 
Q 1534 2075 1959 2075 
z
" transform="scale(0.015625)"/>
       </defs>
       <use xlink:href="#DejaVuSans-39"/>
       <use xlink:href="#DejaVuSans-30" x="63.623047"/>
       <use xlink:href="#DejaVuSans-30" x="127.246094"/>
      </g>
     </g>
    </g>
    <g id="xtick_7">
     <g id="line2d_7">
      <g>
       <use xlink:href="#m672fcbdc2d" x="690.583709" y="366.559866" style="fill: #222222; stroke: #222222; stroke-width: 0.8"/>
      </g>
     </g>
     <g id="text_7">
      <!-- 1000 -->
      <g style="fill: #222222" transform="translate(677.858709 381.158303) scale(0.1 -0.1)">
       <defs>
        <path id="DejaVuSans-31" d="M 794 531 
L 1825 531 
L 1825 4091 
L 703 3866 
L 703 4441 
L 1819 4666 
L 2450 4666 
L 2450 531 
L 3481 531 
L 3481 0 
L 794 0 
L 794 531 
z
" transform="scale(0.015625)"/>
       </defs>
       <use xlink:href="#DejaVuSans-31"/>
       <use xlink:href="#DejaVuSans-30" x="63.623047"/>
       <use xlink:href="#DejaVuSans-30" x="127.246094"/>
       <use xlink:href="#DejaVuSans-30" x="190.869141"/>
      </g>
     </g>
    </g>
    <g id="text_8">
     <!-- Bangos ilgis, nm -->
     <g style="fill: #222222" transform="translate(356.564375 396.356116) scale(0.12 -0.12)">
      <defs>
       <path id="DejaVuSans-42" d="M 1259 2228 
L 1259 519 
L 2272 519 
Q 2781 519 3026 730 
Q 3272 941 3272 1375 
Q 3272 1813 3026 2020 
Q 2781 2228 2272 2228 
L 1259 2228 
z
M 1259 4147 
L 1259 2741 
L 2194 2741 
Q 2656 2741 2882 2914 
Q 3109 3088 3109 3444 
Q 3109 3797 2882 3972 
Q 2656 4147 2194 4147 
L 1259 4147 
z
M 628 4666 
L 2241 4666 
Q 2963 4666 3353 4366 
Q 3744 4066 3744 3513 
Q 3744 3084 3544 2831 
Q 3344 2578 2956 2516 
Q 3422 2416 3680 2098 
Q 3938 1781 3938 1306 
Q 3938 681 3513 340 
Q 3088 0 2303 0 
L 628 0 
L 628 4666 
z
" transform="scale(0.015625)"/>
       <path id="DejaVuSans-61" d="M 2194 1759 
Q 1497 1759 1228 1600 
Q 959 1441 959 1056 
Q 959 750 1161 570 
Q 1363 391 1709 391 
Q 2188 391 2477 730 
Q 2766 1069 2766 1631 
L 2766 1759 
L 2194 1759 
z
M 3341 1997 
L 3341 0 
L 2766 0 
L 2766 531 
Q 2569 213 2275 61 
Q 1981 -91 1556 -91 
Q 1019 -91 701 211 
Q 384 513 384 1019 
Q 384 1609 779 1909 
Q 1175 2209 1959 2209 
L 2766 2209 
L 2766 2266 
Q 2766 2663 2505 2880 
Q 2244 3097 1772 3097 
Q 1472 3097 1187 3025 
Q 903 2953 641 2809 
L 641 3341 
Q 956 3463 1253 3523 
Q 1550 3584 1831 3584 
Q 2591 3584 2966 3190 
Q 3341 2797 3341 1997 
z
" transform="scale(0.015625)"/>
       <path id="DejaVuSans-6e" d="M 3513 2113 
L 3513 0 
L 2938 0 
L 2938 2094 
Q 2938 2591 2744 2837 
Q 2550 3084 2163 3084 
Q 1697 3084 1428 2787 
Q 1159 2491 1159 1978 
L 1159 0 
L 581 0 
L 581 3500 
L 1159 3500 
L 1159 2956 
Q 1366 3272 1645 3428 
Q 1925 3584 2291 3584 
Q 2894 3584 3203 3211 
Q 3513 2838 3513 2113 
z
" transform="scale(0.015625)"/>
       <path id="DejaVuSans-67" d="M 2906 1791 
Q 2906 2416 2648 2759 
Q 2391 3103 1925 3103 
Q 1463 3103 1205 2759 
Q 947 2416 947 1791 
Q 947 1169 1205 825 
Q 1463 481 1925 481 
Q 2391 481 2648 825 
Q 2906 1169 2906 1791 
z
M 3481 434 
Q 3481 -459 3084 -895 
Q 2688 -1331 1869 -1331 
Q 1566 -1331 1297 -1286 
Q 1028 -1241 775 -1147 
L 775 -588 
Q 1028 -725 1275 -790 
Q 1522 -856 1778 -856 
Q 2344 -856 2625 -561 
Q 2906 -266 2906 331 
L 2906 616 
Q 2728 306 2450 153 
Q 2172 0 1784 0 
Q 1141 0 747 490 
Q 353 981 353 1791 
Q 353 2603 747 3093 
Q 1141 3584 1784 3584 
Q 2172 3584 2450 3431 
Q 2728 3278 2906 2969 
L 2906 3500 
L 3481 3500 
L 3481 434 
z
" transform="scale(0.015625)"/>
       <path id="DejaVuSans-6f" d="M 1959 3097 
Q 1497 3097 1228 2736 
Q 959 2375 959 1747 
Q 959 1119 1226 758 
Q 1494 397 1959 397 
Q 2419 397 2687 759 
Q 2956 1122 2956 1747 
Q 2956 2369 2687 2733 
Q 2419 3097 1959 3097 
z
M 1959 3584 
Q 2709 3584 3137 3096 
Q 3566 2609 3566 1747 
Q 3566 888 3137 398 
Q 2709 -91 1959 -91 
Q 1206 -91 779 398 
Q 353 888 353 1747 
Q 353 2609 779 3096 
Q 1206 3584 1959 3584 
z
" transform="scale(0.015625)"/>
       <path id="DejaVuSans-73" d="M 2834 3397 
L 2834 2853 
Q 2591 2978 2328 3040 
Q 2066 3103 1784 3103 
Q 1356 3103 1142 2972 
Q 928 2841 928 2578 
Q 928 2378 1081 2264 
Q 1234 2150 1697 2047 
L 1894 2003 
Q 2506 1872 2764 1633 
Q 3022 1394 3022 966 
Q 3022 478 2636 193 
Q 2250 -91 1575 -91 
Q 1294 -91 989 -36 
Q 684 19 347 128 
L 347 722 
Q 666 556 975 473 
Q 1284 391 1588 391 
Q 1994 391 2212 530 
Q 2431 669 2431 922 
Q 2431 1156 2273 1281 
Q 2116 1406 1581 1522 
L 1381 1569 
Q 847 1681 609 1914 
Q 372 2147 372 2553 
Q 372 3047 722 3315 
Q 1072 3584 1716 3584 
Q 2034 3584 2315 3537 
Q 2597 3491 2834 3397 
z
" transform="scale(0.015625)"/>
       <path id="DejaVuSans-20" transform="scale(0.015625)"/>
       <path id="DejaVuSans-69" d="M 603 3500 
L 1178 3500 
L 1178 0 
L 603 0 
L 603 3500 
z
M 603 4863 
L 1178 4863 
L 1178 4134 
L 603 4134 
L 603 4863 
z
" transform="scale(0.015625)"/>
       <path id="DejaVuSans-6c" d="M 603 4863 
L 1178 4863 
L 1178 0 
L 603 0 
L 603 4863 
z
" transform="scale(0.015625)"/>
       <path id="DejaVuSans-2c" d="M 750 794 
L 1409 794 
L 1409 256 
L 897 -744 
L 494 -744 
L 750 256 
L 750 794 
z
" transform="scale(0.015625)"/>
       <path id="DejaVuSans-6d" d="M 3328 2828 
Q 3544 3216 3844 3400 
Q 4144 3584 4550 3584 
Q 5097 3584 5394 3201 
Q 5691 2819 5691 2113 
L 5691 0 
L 5113 0 
L 5113 2094 
Q 5113 2597 4934 2840 
Q 4756 3084 4391 3084 
Q 3944 3084 3684 2787 
Q 3425 2491 3425 1978 
L 3425 0 
L 2847 0 
L 2847 2094 
Q 2847 2600 2669 2842 
Q 2491 3084 2119 3084 
Q 1678 3084 1418 2786 
Q 1159 2488 1159 1978 
L 1159 0 
L 581 0 
L 581 3500 
L 1159 3500 
L 1159 2956 
Q 1356 3278 1631 3431 
Q 1906 3584 2284 3584 
Q 2666 3584 2933 3390 
Q 3200 3197 3328 2828 
z
" transform="scale(0.015625)"/>
      </defs>
      <use xlink:href="#DejaVuSans-42"/>
      <use xlink:href="#DejaVuSans-61" x="68.603516"/>
      <use xlink:href="#DejaVuSans-6e" x="129.882812"/>
      <use xlink:href="#DejaVuSans-67" x="193.261719"/>
      <use xlink:href="#DejaVuSans-6f" x="256.738281"/>
      <use xlink:href="#DejaVuSans-73" x="317.919922"/>
      <use xlink:href="#DejaVuSans-20" x="370.019531"/>
      <use xlink:href="#DejaVuSans-69" x="401.806641"/>
      <use xlink:href="#DejaVuSans-6c" x="429.589844"/>
      <use xlink:href="#DejaVuSans-67" x="457.373047"/>
      <use xlink:href="#DejaVuSans-69" x="520.849609"/>
      <use xlink:href="#DejaVuSans-73" x="548.632812"/>
      <use xlink:href="#DejaVuSans-2c" x="600.732422"/>
      <use xlink:href="#DejaVuSans-20" x="632.519531"/>
      <use xlink:href="#DejaVuSans-6e" x="664.306641"/>
      <use xlink:href="#DejaVuSans-6d" x="727.685547"/>
     </g>
    </g>
   </g>
   <g id="matplotlib.axis_2">
    <g id="ytick_1">
     <g id="line2d_8">
      <defs>
       <path id="m873b56c9b7" d="M 0 0 
L -3.5 0 
" style="stroke: #222222; stroke-width: 0.8"/>
      </defs>
      <g>
       <use xlink:href="#m873b56c9b7" x="73.664063" y="354.987685" style="fill: #222222; stroke: #222222; stroke-width: 0.8"/>
      </g>
     </g>
     <g id="text_9">
      <!-- −0.0008 -->
      <g style="fill: #222222" transform="translate(23.29375 358.786904) scale(0.1 -0.1)">
       <defs>
        <path id="DejaVuSans-2212" d="M 678 2272 
L 4684 2272 
L 4684 1741 
L 678 1741 
L 678 2272 
z
" transform="scale(0.015625)"/>
        <path id="DejaVuSans-2e" d="M 684 794 
L 1344 794 
L 1344 0 
L 684 0 
L 684 794 
z
" transform="scale(0.015625)"/>
       </defs>
       <use xlink:href="#DejaVuSans-2212"/>
       <use xlink:href="#DejaVuSans-30" x="83.789062"/>
       <use xlink:href="#DejaVuSans-2e" x="147.412109"/>
       <use xlink:href="#DejaVuSans-30" x="179.199219"/>
       <use xlink:href="#DejaVuSans-30" x="242.822266"/>
       <use xlink:href="#DejaVuSans-30" x="306.445312"/>
       <use xlink:href="#DejaVuSans-38" x="370.068359"/>
      </g>
     </g>
    </g>
    <g id="ytick_2">
     <g id="line2d_9">
      <g>
       <use xlink:href="#m873b56c9b7" x="73.664063" y="305.846476" style="fill: #222222; stroke: #222222; stroke-width: 0.8"/>
      </g>
     </g>
     <g id="text_10">
      <!-- −0.0006 -->
      <g style="fill: #222222" transform="translate(23.29375 309.645694) scale(0.1 -0.1)">
       <use xlink:href="#DejaVuSans-2212"/>
       <use xlink:href="#DejaVuSans-30" x="83.789062"/>
       <use xlink:href="#DejaVuSans-2e" x="147.412109"/>
       <use xlink:href="#DejaVuSans-30" x="179.199219"/>
       <use xlink:href="#DejaVuSans-30" x="242.822266"/>
       <use xlink:href="#DejaVuSans-30" x="306.445312"/>
       <use xlink:href="#DejaVuSans-36" x="370.068359"/>
      </g>
     </g>
    </g>
    <g id="ytick_3">
     <g id="line2d_10">
      <g>
       <use xlink:href="#m873b56c9b7" x="73.664063" y="256.705266" style="fill: #222222; stroke: #222222; stroke-width: 0.8"/>
      </g>
     </g>
     <g id="text_11">
      <!-- −0.0004 -->
      <g style="fill: #222222" transform="translate(23.29375 260.504485) scale(0.1 -0.1)">
       <use xlink:href="#DejaVuSans-2212"/>
       <use xlink:href="#DejaVuSans-30" x="83.789062"/>
       <use xlink:href="#DejaVuSans-2e" x="147.412109"/>
       <use xlink:href="#DejaVuSans-30" x="179.199219"/>
       <use xlink:href="#DejaVuSans-30" x="242.822266"/>
       <use xlink:href="#DejaVuSans-30" x="306.445312"/>
       <use xlink:href="#DejaVuSans-34" x="370.068359"/>
      </g>
     </g>
    </g>
    <g id="ytick_4">
     <g id="line2d_11">
      <g>
       <use xlink:href="#m873b56c9b7" x="73.664063" y="207.564057" style="fill: #222222; stroke: #222222; stroke-width: 0.8"/>
      </g>
     </g>
     <g id="text_12">
      <!-- −0.0002 -->
      <g style="fill: #222222" transform="translate(23.29375 211.363275) scale(0.1 -0.1)">
       <defs>
        <path id="DejaVuSans-32" d="M 1228 531 
L 3431 531 
L 3431 0 
L 469 0 
L 469 531 
Q 828 903 1448 1529 
Q 2069 2156 2228 2338 
Q 2531 2678 2651 2914 
Q 2772 3150 2772 3378 
Q 2772 3750 2511 3984 
Q 2250 4219 1831 4219 
Q 1534 4219 1204 4116 
Q 875 4013 500 3803 
L 500 4441 
Q 881 4594 1212 4672 
Q 1544 4750 1819 4750 
Q 2544 4750 2975 4387 
Q 3406 4025 3406 3419 
Q 3406 3131 3298 2873 
Q 3191 2616 2906 2266 
Q 2828 2175 2409 1742 
Q 1991 1309 1228 531 
z
" transform="scale(0.015625)"/>
       </defs>
       <use xlink:href="#DejaVuSans-2212"/>
       <use xlink:href="#DejaVuSans-30" x="83.789062"/>
       <use xlink:href="#DejaVuSans-2e" x="147.412109"/>
       <use xlink:href="#DejaVuSans-30" x="179.199219"/>
       <use xlink:href="#DejaVuSans-30" x="242.822266"/>
       <use xlink:href="#DejaVuSans-30" x="306.445312"/>
       <use xlink:href="#DejaVuSans-32" x="370.068359"/>
      </g>
     </g>
    </g>
    <g id="ytick_5">
     <g id="line2d_12">
      <g>
       <use xlink:href="#m873b56c9b7" x="73.664063" y="158.422847" style="fill: #222222; stroke: #222222; stroke-width: 0.8"/>
      </g>
     </g>
     <g id="text_13">
      <!-- 0.0000 -->
      <g style="fill: #222222" transform="translate(31.673438 162.222066) scale(0.1 -0.1)">
       <use xlink:href="#DejaVuSans-30"/>
       <use xlink:href="#DejaVuSans-2e" x="63.623047"/>
       <use xlink:href="#DejaVuSans-30" x="95.410156"/>
       <use xlink:href="#DejaVuSans-30" x="159.033203"/>
       <use xlink:href="#DejaVuSans-30" x="222.65625"/>
       <use xlink:href="#DejaVuSans-30" x="286.279297"/>
      </g>
     </g>
    </g>
    <g id="ytick_6">
     <g id="line2d_13">
      <g>
       <use xlink:href="#m873b56c9b7" x="73.664063" y="109.281638" style="fill: #222222; stroke: #222222; stroke-width: 0.8"/>
      </g>
     </g>
     <g id="text_14">
      <!-- 0.0002 -->
      <g style="fill: #222222" transform="translate(31.673438 113.080856) scale(0.1 -0.1)">
       <use xlink:href="#DejaVuSans-30"/>
       <use xlink:href="#DejaVuSans-2e" x="63.623047"/>
       <use xlink:href="#DejaVuSans-30" x="95.410156"/>
       <use xlink:href="#DejaVuSans-30" x="159.033203"/>
       <use xlink:href="#DejaVuSans-30" x="222.65625"/>
       <use xlink:href="#DejaVuSans-32" x="286.279297"/>
      </g>
     </g>
    </g>
    <g id="ytick_7">
     <g id="line2d_14">
      <g>
       <use xlink:href="#m873b56c9b7" x="73.664063" y="60.140428" style="fill: #222222; stroke: #222222; stroke-width: 0.8"/>
      </g>
     </g>
     <g id="text_15">
      <!-- 0.0004 -->
      <g style="fill: #222222" transform="translate(31.673438 63.939647) scale(0.1 -0.1)">
       <use xlink:href="#DejaVuSans-30"/>
       <use xlink:href="#DejaVuSans-2e" x="63.623047"/>
       <use xlink:href="#DejaVuSans-30" x="95.410156"/>
       <use xlink:href="#DejaVuSans-30" x="159.033203"/>
       <use xlink:href="#DejaVuSans-30" x="222.65625"/>
       <use xlink:href="#DejaVuSans-34" x="286.279297"/>
      </g>
     </g>
    </g>
    <g id="ytick_8">
     <g id="line2d_15">
      <g>
       <use xlink:href="#m873b56c9b7" x="73.664063" y="10.999219" style="fill: #222222; stroke: #222222; stroke-width: 0.8"/>
      </g>
     </g>
     <g id="text_16">
      <!-- 0.0006 -->
      <g style="fill: #222222" transform="translate(31.673438 14.798437) scale(0.1 -0.1)">
       <use xlink:href="#DejaVuSans-30"/>
       <use xlink:href="#DejaVuSans-2e" x="63.623047"/>
       <use xlink:href="#DejaVuSans-30" x="95.410156"/>
       <use xlink:href="#DejaVuSans-30" x="159.033203"/>
       <use xlink:href="#DejaVuSans-30" x="222.65625"/>
       <use xlink:href="#DejaVuSans-36" x="286.279297"/>
      </g>
     </g>
    </g>
    <g id="text_17">
     <!-- Antroji išvestinė -->
     <g style="fill: #222222" transform="translate(16.798125 235.59437) rotate(-90) scale(0.12 -0.12)">
      <defs>
       <path id="DejaVuSans-41" d="M 2188 4044 
L 1331 1722 
L 3047 1722 
L 2188 4044 
z
M 1831 4666 
L 2547 4666 
L 4325 0 
L 3669 0 
L 3244 1197 
L 1141 1197 
L 716 0 
L 50 0 
L 1831 4666 
z
" transform="scale(0.015625)"/>
       <path id="DejaVuSans-74" d="M 1172 4494 
L 1172 3500 
L 2356 3500 
L 2356 3053 
L 1172 3053 
L 1172 1153 
Q 1172 725 1289 603 
Q 1406 481 1766 481 
L 2356 481 
L 2356 0 
L 1766 0 
Q 1100 0 847 248 
Q 594 497 594 1153 
L 594 3053 
L 172 3053 
L 172 3500 
L 594 3500 
L 594 4494 
L 1172 4494 
z
" transform="scale(0.015625)"/>
       <path id="DejaVuSans-72" d="M 2631 2963 
Q 2534 3019 2420 3045 
Q 2306 3072 2169 3072 
Q 1681 3072 1420 2755 
Q 1159 2438 1159 1844 
L 1159 0 
L 581 0 
L 581 3500 
L 1159 3500 
L 1159 2956 
Q 1341 3275 1631 3429 
Q 1922 3584 2338 3584 
Q 2397 3584 2469 3576 
Q 2541 3569 2628 3553 
L 2631 2963 
z
" transform="scale(0.015625)"/>
       <path id="DejaVuSans-6a" d="M 603 3500 
L 1178 3500 
L 1178 -63 
Q 1178 -731 923 -1031 
Q 669 -1331 103 -1331 
L -116 -1331 
L -116 -844 
L 38 -844 
Q 366 -844 484 -692 
Q 603 -541 603 -63 
L 603 3500 
z
M 603 4863 
L 1178 4863 
L 1178 4134 
L 603 4134 
L 603 4863 
z
" transform="scale(0.015625)"/>
       <path id="DejaVuSans-161" d="M 2834 3397 
L 2834 2853 
Q 2591 2978 2328 3040 
Q 2066 3103 1784 3103 
Q 1356 3103 1142 2972 
Q 928 2841 928 2578 
Q 928 2378 1081 2264 
Q 1234 2150 1697 2047 
L 1894 2003 
Q 2506 1872 2764 1633 
Q 3022 1394 3022 966 
Q 3022 478 2636 193 
Q 2250 -91 1575 -91 
Q 1294 -91 989 -36 
Q 684 19 347 128 
L 347 722 
Q 666 556 975 473 
Q 1284 391 1588 391 
Q 1994 391 2212 530 
Q 2431 669 2431 922 
Q 2431 1156 2273 1281 
Q 2116 1406 1581 1522 
L 1381 1569 
Q 847 1681 609 1914 
Q 372 2147 372 2553 
Q 372 3047 722 3315 
Q 1072 3584 1716 3584 
Q 2034 3584 2315 3537 
Q 2597 3491 2834 3397 
z
M 1501 3944 
L 736 5119 
L 1170 5119 
L 1733 4353 
L 2295 5119 
L 2729 5119 
L 1964 3944 
L 1501 3944 
z
M 1720 3584 
L 1720 3584 
z
" transform="scale(0.015625)"/>
       <path id="DejaVuSans-76" d="M 191 3500 
L 800 3500 
L 1894 563 
L 2988 3500 
L 3597 3500 
L 2284 0 
L 1503 0 
L 191 3500 
z
" transform="scale(0.015625)"/>
       <path id="DejaVuSans-65" d="M 3597 1894 
L 3597 1613 
L 953 1613 
Q 991 1019 1311 708 
Q 1631 397 2203 397 
Q 2534 397 2845 478 
Q 3156 559 3463 722 
L 3463 178 
Q 3153 47 2828 -22 
Q 2503 -91 2169 -91 
Q 1331 -91 842 396 
Q 353 884 353 1716 
Q 353 2575 817 3079 
Q 1281 3584 2069 3584 
Q 2775 3584 3186 3129 
Q 3597 2675 3597 1894 
z
M 3022 2063 
Q 3016 2534 2758 2815 
Q 2500 3097 2075 3097 
Q 1594 3097 1305 2825 
Q 1016 2553 972 2059 
L 3022 2063 
z
" transform="scale(0.015625)"/>
       <path id="DejaVuSans-117" d="M 1778 4863 
L 2353 4863 
L 2353 4134 
L 1778 4134 
L 1778 4863 
z
M 2072 3584 
L 2072 3584 
z
M 3597 1894 
L 3597 1613 
L 953 1613 
Q 991 1019 1311 708 
Q 1631 397 2203 397 
Q 2534 397 2845 478 
Q 3156 559 3463 722 
L 3463 178 
Q 3153 47 2828 -22 
Q 2503 -91 2169 -91 
Q 1331 -91 842 396 
Q 353 884 353 1716 
Q 353 2575 817 3079 
Q 1281 3584 2069 3584 
Q 2775 3584 3186 3129 
Q 3597 2675 3597 1894 
z
M 3022 2063 
Q 3016 2534 2758 2815 
Q 2500 3097 2075 3097 
Q 1594 3097 1305 2825 
Q 1016 2553 972 2059 
L 3022 2063 
z
" transform="scale(0.015625)"/>
      </defs>
      <use xlink:href="#DejaVuSans-41"/>
      <use xlink:href="#DejaVuSans-6e" x="68.408203"/>
      <use xlink:href="#DejaVuSans-74" x="131.787109"/>
      <use xlink:href="#DejaVuSans-72" x="170.996094"/>
      <use xlink:href="#DejaVuSans-6f" x="209.859375"/>
      <use xlink:href="#DejaVuSans-6a" x="271.041016"/>
      <use xlink:href="#DejaVuSans-69" x="298.824219"/>
      <use xlink:href="#DejaVuSans-20" x="326.607422"/>
      <use xlink:href="#DejaVuSans-69" x="358.394531"/>
      <use xlink:href="#DejaVuSans-161" x="386.177734"/>
      <use xlink:href="#DejaVuSans-76" x="438.277344"/>
      <use xlink:href="#DejaVuSans-65" x="497.457031"/>
      <use xlink:href="#DejaVuSans-73" x="558.980469"/>
      <use xlink:href="#DejaVuSans-74" x="611.080078"/>
      <use xlink:href="#DejaVuSans-69" x="650.289062"/>
      <use xlink:href="#DejaVuSans-6e" x="678.072266"/>
      <use xlink:href="#DejaVuSans-117" x="741.451172"/>
     </g>
    </g>
   </g>
   <g id="line2d_16">
    <path d="M 103.882699 311.22658 
L 105.649871 350.274167 
L 107.417042 284.19558 
L 109.184214 123.778818 
L 110.951386 93.348158 
L 112.718557 170.347546 
L 114.485729 199.132956 
L 116.252901 84.727726 
L 118.020073 46.319626 
L 119.787244 178.852708 
L 121.554416 188.391066 
L 123.321588 133.696196 
L 125.088759 234.246507 
L 126.855931 251.801541 
L 128.623103 93.531583 
L 130.390275 24.560198 
L 133.924618 219.936038 
L 135.69179 224.497572 
L 139.226133 103.188704 
L 140.993305 111.350996 
L 142.760477 142.488995 
L 144.527648 130.444416 
L 146.29482 134.125734 
L 148.061992 193.516965 
L 149.829164 248.304582 
L 151.596335 241.254257 
L 153.363507 183.600416 
L 155.130679 110.000208 
L 156.89785 70.234301 
L 158.665022 90.590436 
L 160.432194 156.716373 
L 162.199366 230.640649 
L 163.966537 252.201442 
L 165.733709 213.821256 
L 169.268052 90.318172 
L 171.035224 62.849382 
L 172.802396 90.467593 
L 176.336739 200.464467 
L 178.103911 234.645371 
L 179.871083 234.266086 
L 181.638254 209.515582 
L 185.172598 144.68049 
L 186.93977 123.045915 
L 188.706941 113.344583 
L 190.474113 106.066629 
L 192.241285 111.148633 
L 195.775628 154.303715 
L 197.5428 171.260269 
L 199.309972 182.294642 
L 201.077143 185.731616 
L 202.844315 181.164639 
L 206.378658 158.160247 
L 208.14583 149.682967 
L 209.913002 145.546219 
L 211.680174 147.829522 
L 213.447345 151.824323 
L 215.214517 158.146886 
L 216.981689 162.98904 
L 218.74886 164.105271 
L 220.516032 167.356797 
L 222.283204 167.38793 
L 224.050376 165.325885 
L 225.817547 165.432064 
L 227.584719 162.206809 
L 229.351891 158.126207 
L 231.119062 154.860993 
L 232.886234 150.103662 
L 234.653406 146.538657 
L 236.420578 141.992216 
L 238.187749 138.679661 
L 239.954921 141.74515 
L 241.722093 148.879628 
L 243.489265 154.466544 
L 245.256436 158.062048 
L 247.023608 166.21331 
L 248.79078 172.747982 
L 250.557951 171.446452 
L 252.325123 169.681233 
L 254.092295 165.907829 
L 255.859467 159.914262 
L 259.39381 151.451823 
L 261.160982 149.183198 
L 262.928153 151.451431 
L 264.695325 154.121921 
L 266.462497 154.419484 
L 268.229669 157.886648 
L 269.99684 162.65184 
L 271.764012 163.55396 
L 275.298355 166.260059 
L 277.065527 162.237742 
L 278.832699 157.499346 
L 280.599871 157.071051 
L 282.367042 155.802642 
L 284.134214 151.913384 
L 285.901386 152.005619 
L 287.668557 154.953628 
L 289.435729 154.785511 
L 291.202901 154.385342 
L 292.970073 157.811061 
L 294.737244 160.681058 
L 296.504416 159.672292 
L 298.271588 160.455161 
L 300.038759 162.077051 
L 301.805931 160.745164 
L 303.573103 158.712788 
L 305.340275 157.531404 
L 307.107446 156.025703 
L 308.874618 153.572932 
L 310.64179 155.229679 
L 312.408961 159.804237 
L 314.176133 162.065683 
L 315.943305 162.44474 
L 317.710477 161.928889 
L 319.477648 162.777299 
L 321.24482 161.096841 
L 323.011992 156.258525 
L 324.779164 154.274688 
L 326.546335 152.007082 
L 328.313507 152.099263 
L 330.080679 156.443748 
L 331.84785 155.703914 
L 333.615022 153.060727 
L 335.382194 155.140448 
L 337.149366 158.884008 
L 338.916537 161.441288 
L 340.683709 162.197419 
L 342.450881 162.060647 
L 345.985224 159.865583 
L 347.752396 159.604288 
L 349.519568 158.667105 
L 351.286739 158.691622 
L 353.053911 158.838517 
L 354.821083 154.222133 
L 356.588254 151.708557 
L 358.355426 155.007766 
L 360.122598 156.580664 
L 361.88977 157.540263 
L 363.656941 159.04336 
L 365.424113 160.115712 
L 367.191285 162.944534 
L 368.958456 163.211152 
L 370.725628 156.588685 
L 372.4928 157.726719 
L 374.259972 169.13964 
L 376.027143 165.382673 
L 377.794315 152.638419 
L 379.561487 153.355584 
L 381.328658 161.644471 
L 383.09583 163.889915 
L 384.863002 156.707196 
L 386.630174 145.738053 
L 388.397345 139.889519 
L 390.164517 144.666629 
L 391.931689 157.221616 
L 393.69886 168.510367 
L 395.466032 171.420732 
L 397.233204 167.277509 
L 400.767547 154.079755 
L 402.534719 151.854358 
L 404.301891 156.200931 
L 406.069062 161.183827 
L 407.836234 163.247667 
L 409.603406 162.320251 
L 413.137749 154.262356 
L 414.904921 154.323503 
L 416.672093 156.727112 
L 420.206436 162.34297 
L 421.973608 162.366987 
L 425.507951 154.720363 
L 427.275123 154.308475 
L 429.042295 155.189682 
L 430.809467 158.02415 
L 432.576638 162.342209 
L 434.34381 163.304784 
L 436.110982 160.647225 
L 437.878153 157.008683 
L 439.645325 154.981996 
L 441.412497 154.319139 
L 443.179669 155.512787 
L 444.94684 159.521854 
L 446.714012 161.559205 
L 448.481184 161.347512 
L 450.248355 161.299721 
L 452.015527 159.120985 
L 453.782699 155.283239 
L 455.549871 153.895767 
L 457.317042 155.886272 
L 459.084214 158.204301 
L 460.851386 160.219236 
L 462.618557 161.820201 
L 464.385729 161.422257 
L 467.920073 156.527191 
L 469.687244 155.437243 
L 471.454416 155.721842 
L 473.221588 157.421148 
L 476.755931 160.361968 
L 478.523103 161.43447 
L 480.290275 159.870236 
L 482.057446 157.562579 
L 483.824618 155.773069 
L 485.59179 155.272657 
L 489.126133 158.346434 
L 490.893305 159.392102 
L 492.660477 160.830591 
L 494.427648 161.72061 
L 496.19482 160.509011 
L 497.961992 157.896258 
L 499.729164 156.627818 
L 501.496335 156.030898 
L 503.263507 155.839368 
L 505.030679 156.819937 
L 506.79785 158.175586 
L 508.565022 160.016447 
L 510.332194 161.136964 
L 512.099366 160.708855 
L 513.866537 159.932822 
L 517.400881 156.434468 
L 519.168052 156.306079 
L 520.935224 156.602862 
L 524.469568 158.588845 
L 526.236739 158.924874 
L 528.003911 159.996549 
L 529.771083 160.382108 
L 531.538254 159.811845 
L 535.072598 156.519399 
L 536.83977 156.41101 
L 538.606941 156.608743 
L 540.374113 157.152546 
L 542.141285 158.253374 
L 543.908456 158.534378 
L 545.675628 159.302711 
L 547.4428 160.596184 
L 549.209972 160.850277 
L 550.977143 159.556796 
L 552.744315 157.184638 
L 554.511487 156.644641 
L 556.278658 157.438218 
L 558.04583 157.477647 
L 559.813002 157.149021 
L 561.580174 157.480114 
L 563.347345 158.682838 
L 565.114517 160.039803 
L 566.881689 160.174453 
L 568.64886 159.362691 
L 570.416032 158.218631 
L 572.183204 158.400099 
L 573.950376 158.711412 
L 575.717547 156.914644 
L 577.484719 156.652031 
L 579.251891 157.080779 
L 581.019062 156.656748 
L 582.786234 157.846099 
L 584.553406 160.177803 
L 586.320578 160.955928 
L 588.087749 160.394962 
L 589.854921 159.573597 
L 591.622093 159.029955 
L 593.389265 158.937922 
L 595.156436 157.632937 
L 596.923608 156.606952 
L 598.69078 156.902204 
L 600.457951 156.695381 
L 602.225123 157.302979 
L 603.992295 158.774287 
L 605.759467 158.669174 
L 607.526638 159.030094 
L 609.29381 160.593437 
L 611.060982 160.150359 
L 612.828153 158.932631 
L 614.595325 159.385101 
L 616.362497 159.132081 
L 618.129669 156.409423 
L 619.89684 155.857608 
L 621.664012 157.719927 
L 623.431184 156.683761 
L 625.198355 156.131366 
L 626.965527 158.469981 
L 628.732699 159.168665 
L 630.499871 158.930961 
L 632.267042 159.759451 
L 634.034214 160.761698 
L 635.801386 161.2563 
L 637.568557 159.267689 
L 639.335729 158.321888 
L 641.102901 159.624974 
L 642.870073 157.103466 
L 644.637244 155.688414 
L 646.404416 157.429088 
L 648.171588 155.907913 
L 649.938759 155.513562 
L 651.705931 157.812312 
L 653.473103 158.409988 
L 655.240275 158.628706 
L 657.007446 160.414796 
L 658.774618 161.518431 
L 660.54179 160.043552 
L 662.308961 160.594214 
L 664.076133 160.885313 
L 665.843305 158.204772 
L 667.610477 158.654958 
L 669.377648 157.509968 
L 671.14482 155.319118 
L 672.911992 156.31279 
L 674.679164 155.269528 
L 678.213507 156.565904 
L 679.980679 156.535192 
L 681.74785 159.107079 
L 683.515022 159.312114 
L 685.282194 161.082826 
L 687.049366 163.145721 
L 688.816537 162.219684 
L 690.583709 163.022538 
L 692.350881 162.204877 
L 694.118052 160.294443 
L 695.885224 159.460281 
L 697.652396 155.811871 
L 699.419568 153.764441 
L 701.186739 151.894378 
L 702.953911 149.265106 
L 704.721083 148.658702 
L 706.488254 148.700182 
L 708.255426 149.321196 
L 708.255426 149.321196 
" clip-path="url(#pd82d00a4b4)" style="fill: none; stroke: #78003f; stroke-width: 2.4; stroke-linecap: square"/>
   </g>
   <g id="line2d_17">
    <path d="M 103.882699 291.287243 
L 105.649871 318.669168 
L 107.417042 245.498447 
L 109.184214 102.8359 
L 110.951386 96.461635 
L 112.718557 181.729952 
L 114.485729 198.789079 
L 116.252901 79.203954 
L 118.020073 58.532585 
L 119.787244 207.184687 
L 121.554416 205.053122 
L 123.321588 119.621503 
L 125.088759 201.627962 
L 126.855931 233.503208 
L 128.623103 103.852058 
L 130.390275 45.008328 
L 133.924618 221.399229 
L 135.69179 222.075532 
L 139.226133 93.437298 
L 140.993305 109.670106 
L 142.760477 156.995671 
L 144.527648 150.85376 
L 146.29482 139.502298 
L 148.061992 179.720771 
L 149.829164 231.277813 
L 151.596335 232.943184 
L 153.363507 179.405003 
L 155.130679 100.953287 
L 156.89785 55.832177 
L 158.665022 79.278778 
L 160.432194 157.234258 
L 162.199366 243.408393 
L 163.966537 269.632315 
L 165.733709 226.2138 
L 169.268052 86.62817 
L 171.035224 59.950308 
L 172.802396 92.98477 
L 174.569568 153.90935 
L 176.336739 207.89927 
L 178.103911 237.429733 
L 179.871083 231.118499 
L 181.638254 202.823104 
L 185.172598 140.916862 
L 186.93977 121.864309 
L 188.706941 112.898688 
L 190.474113 104.731901 
L 192.241285 108.598771 
L 194.008456 129.519851 
L 195.775628 153.323761 
L 197.5428 172.837971 
L 199.309972 185.906431 
L 201.077143 189.825285 
L 202.844315 184.057232 
L 206.378658 157.076435 
L 208.14583 147.918755 
L 209.913002 144.47716 
L 211.680174 148.383119 
L 213.447345 153.984135 
L 215.214517 161.244772 
L 216.981689 165.94365 
L 218.74886 165.99532 
L 220.516032 168.015729 
L 222.283204 167.006974 
L 224.050376 164.500479 
L 225.817547 164.952298 
L 227.584719 162.360345 
L 229.351891 158.92322 
L 231.119062 156.03079 
L 232.886234 151.098063 
L 234.653406 146.980167 
L 236.420578 141.580282 
L 238.187749 137.507402 
L 239.954921 140.418787 
L 241.722093 148.002915 
L 243.489265 154.284942 
L 245.256436 158.63395 
L 247.023608 167.784206 
L 248.79078 174.998327 
L 250.557951 173.55107 
L 252.325123 171.248785 
L 254.092295 166.533344 
L 255.859467 159.336439 
L 259.39381 149.020976 
L 261.160982 146.374482 
L 262.928153 148.904551 
L 264.695325 152.158536 
L 266.462497 153.06138 
L 268.229669 157.417868 
L 269.99684 163.110894 
L 271.764012 164.511959 
L 275.298355 167.788611 
L 277.065527 163.340191 
L 278.832699 158.01139 
L 280.599871 157.370643 
L 282.367042 155.833943 
L 284.134214 151.462417 
L 285.901386 151.555793 
L 287.668557 154.873439 
L 289.435729 154.772503 
L 291.202901 154.410695 
L 292.970073 158.295141 
L 294.737244 161.516205 
L 296.504416 160.330364 
L 298.271588 161.099564 
L 300.038759 162.761563 
L 301.805931 161.067667 
L 303.573103 158.568083 
L 305.340275 157.044645 
L 307.107446 155.185911 
L 308.874618 152.299857 
L 310.64179 154.182173 
L 312.408961 159.503427 
L 314.176133 162.296647 
L 315.943305 163.000776 
L 317.710477 162.693827 
L 319.477648 163.959189 
L 321.24482 162.215123 
L 323.011992 156.701229 
L 324.779164 154.414772 
L 326.546335 151.701111 
L 328.313507 151.726665 
L 330.080679 156.740247 
L 331.84785 155.734441 
L 333.615022 152.46375 
L 335.382194 154.774705 
L 337.149366 159.073522 
L 338.916537 161.986911 
L 340.683709 162.780983 
L 342.450881 162.537409 
L 345.985224 159.844856 
L 347.752396 159.546231 
L 349.519568 158.463078 
L 351.286739 158.565818 
L 353.053911 158.822662 
L 354.821083 153.298511 
L 356.588254 150.297739 
L 358.355426 154.336161 
L 360.122598 156.280941 
L 361.88977 157.492574 
L 363.656941 159.359714 
L 365.424113 161.021309 
L 367.191285 165.010152 
L 368.958456 165.06508 
L 370.725628 156.517674 
L 372.4928 158.364878 
L 374.259972 172.169089 
L 376.027143 165.692601 
L 377.794315 147.985391 
L 379.561487 148.234365 
L 381.328658 159.972749 
L 383.09583 165.920698 
L 384.863002 160.157562 
L 386.630174 147.892997 
L 388.397345 139.51736 
L 390.164517 142.740447 
L 393.69886 168.510577 
L 395.466032 172.617084 
L 397.233204 168.990344 
L 399.000376 162.19858 
L 400.767547 154.192608 
L 402.534719 150.553921 
L 404.301891 154.793579 
L 406.069062 160.301264 
L 407.836234 163.118479 
L 409.603406 163.005584 
L 411.370578 158.949681 
L 413.137749 154.50665 
L 414.904921 154.266615 
L 416.672093 156.379179 
L 418.439265 158.965882 
L 420.206436 162.40304 
L 421.973608 162.972729 
L 425.507951 154.785616 
L 427.275123 154.415187 
L 429.042295 154.972626 
L 430.809467 157.734738 
L 432.576638 162.668702 
L 434.34381 163.766394 
L 436.110982 160.697899 
L 437.878153 156.629345 
L 439.645325 154.544775 
L 441.412497 153.757023 
L 443.179669 154.926992 
L 444.94684 159.668411 
L 446.714012 161.949645 
L 448.481184 161.69263 
L 450.248355 162.152571 
L 452.015527 159.909417 
L 453.782699 155.175849 
L 455.549871 153.268663 
L 460.851386 159.870412 
L 462.618557 161.789987 
L 464.385729 161.506779 
L 467.920073 156.178039 
L 469.687244 155.208466 
L 471.454416 155.72854 
L 473.221588 157.825543 
L 474.988759 159.339884 
L 476.755931 161.039224 
L 478.523103 162.391489 
L 480.290275 160.317964 
L 482.057446 157.36087 
L 483.824618 155.090751 
L 485.59179 154.430218 
L 487.358961 156.467626 
L 489.126133 158.142369 
L 490.893305 159.193317 
L 492.660477 161.01026 
L 494.427648 162.383222 
L 496.19482 161.061898 
L 497.961992 157.896926 
L 499.729164 156.623194 
L 501.496335 156.054974 
L 503.263507 155.698298 
L 505.030679 156.695911 
L 506.79785 158.056576 
L 508.565022 160.171008 
L 510.332194 161.476024 
L 512.099366 160.859206 
L 513.866537 160.043675 
L 517.400881 155.869947 
L 519.168052 155.985687 
L 520.935224 156.458136 
L 522.702396 157.751309 
L 524.469568 158.799525 
L 526.236739 158.903127 
L 528.003911 160.23877 
L 529.771083 160.769885 
L 531.538254 160.098488 
L 535.072598 155.847122 
L 536.83977 155.979499 
L 538.606941 156.408109 
L 540.374113 157.173439 
L 542.141285 158.634487 
L 543.908456 158.776505 
L 545.675628 159.696057 
L 547.4428 161.523546 
L 549.209972 161.897664 
L 550.977143 160.012739 
L 552.744315 156.524604 
L 554.511487 155.825277 
L 556.278658 157.093548 
L 558.04583 157.096731 
L 559.813002 156.434402 
L 561.580174 156.735714 
L 563.347345 158.396823 
L 565.114517 160.381098 
L 566.881689 160.59883 
L 568.64886 159.476931 
L 570.416032 157.918749 
L 572.183204 158.482222 
L 573.950376 159.21831 
L 575.717547 156.552856 
L 577.484719 156.168298 
L 579.251891 156.727997 
L 581.019062 155.846629 
L 582.786234 157.48962 
L 584.553406 160.98865 
L 586.320578 162.118594 
L 588.087749 161.243499 
L 589.854921 160.060968 
L 591.622093 159.401233 
L 593.389265 159.486896 
L 595.156436 157.571139 
L 596.923608 156.001817 
L 598.69078 156.430283 
L 600.457951 155.917093 
L 602.225123 156.63419 
L 603.992295 158.721506 
L 605.759467 158.293156 
L 607.526638 158.729884 
L 609.29381 161.268205 
L 611.060982 160.693959 
L 612.828153 158.98381 
L 614.595325 160.100747 
L 616.362497 160.065884 
L 618.129669 155.852238 
L 619.89684 155.113546 
L 621.664012 158.227022 
L 623.431184 156.318913 
L 625.198355 155.070251 
L 626.965527 158.57034 
L 628.732699 159.326824 
L 630.499871 158.593148 
L 632.267042 159.772173 
L 634.034214 161.413356 
L 635.801386 162.387394 
L 637.568557 159.331748 
L 639.335729 158.125289 
L 641.102901 160.726729 
L 642.870073 156.77738 
L 644.637244 154.596314 
L 646.404416 157.614676 
L 648.171588 154.867859 
L 649.938759 153.897789 
L 651.705931 157.447903 
L 653.473103 158.057549 
L 655.240275 158.075099 
L 657.007446 160.923321 
L 658.774618 162.788379 
L 660.54179 160.416063 
L 662.308961 161.756487 
L 664.076133 162.760839 
L 665.843305 158.660776 
L 667.610477 160.035986 
L 669.377648 158.42814 
L 671.14482 154.75034 
L 672.911992 156.431159 
L 674.679164 154.20839 
L 676.446335 154.701492 
L 678.213507 155.002187 
L 679.980679 154.034082 
L 681.74785 157.577173 
L 683.515022 157.206307 
L 685.282194 159.706143 
L 687.049366 162.99172 
L 688.816537 161.541366 
L 690.583709 163.567765 
L 692.350881 163.031334 
L 694.118052 161.132524 
L 695.885224 161.527947 
L 697.652396 156.615547 
L 701.186739 153.774001 
L 702.953911 150.179227 
L 704.721083 149.996691 
L 706.488254 147.336761 
L 708.255426 145.552128 
L 708.255426 145.552128 
" clip-path="url(#pd82d00a4b4)" style="fill: none; stroke: #104a7e; stroke-width: 2.4; stroke-linecap: square"/>
   </g>
   <g id="line2d_18">
    <path d="M 73.664063 158.422847 
L 738.474062 158.422847 
" clip-path="url(#pd82d00a4b4)" style="fill: none; stroke-dasharray: 3.7,1.6; stroke-dashoffset: 0; stroke: #0d1530"/>
   </g>
   <g id="patch_3">
    <path d="M 73.664063 366.559866 
L 73.664063 8.274499 
" style="fill: none; stroke: #444444; stroke-width: 0.8; stroke-linejoin: miter; stroke-linecap: square"/>
   </g>
   <g id="patch_4">
    <path d="M 73.664062 366.559866 
L 738.474062 366.559866 
" style="fill: none; stroke: #444444; stroke-width: 0.8; stroke-linejoin: miter; stroke-linecap: square"/>
   </g>
   <g id="legend_1">
    <g id="line2d_19">
     <path d="M 650.064687 21.372937 
L 660.064687 21.372937 
L 670.064687 21.372937 
" style="fill: none; stroke: #78003f; stroke-width: 2.4; stroke-linecap: square"/>
    </g>
    <g id="text_18">
     <!-- Nedvinarė -->
     <g style="fill: #222222" transform="translate(678.064687 24.872937) scale(0.1 -0.1)">
      <defs>
       <path id="DejaVuSans-4e" d="M 628 4666 
L 1478 4666 
L 3547 763 
L 3547 4666 
L 4159 4666 
L 4159 0 
L 3309 0 
L 1241 3903 
L 1241 0 
L 628 0 
L 628 4666 
z
" transform="scale(0.015625)"/>
       <path id="DejaVuSans-64" d="M 2906 2969 
L 2906 4863 
L 3481 4863 
L 3481 0 
L 2906 0 
L 2906 525 
Q 2725 213 2448 61 
Q 2172 -91 1784 -91 
Q 1150 -91 751 415 
Q 353 922 353 1747 
Q 353 2572 751 3078 
Q 1150 3584 1784 3584 
Q 2172 3584 2448 3432 
Q 2725 3281 2906 2969 
z
M 947 1747 
Q 947 1113 1208 752 
Q 1469 391 1925 391 
Q 2381 391 2643 752 
Q 2906 1113 2906 1747 
Q 2906 2381 2643 2742 
Q 2381 3103 1925 3103 
Q 1469 3103 1208 2742 
Q 947 2381 947 1747 
z
" transform="scale(0.015625)"/>
      </defs>
      <use xlink:href="#DejaVuSans-4e"/>
      <use xlink:href="#DejaVuSans-65" x="74.804688"/>
      <use xlink:href="#DejaVuSans-64" x="136.328125"/>
      <use xlink:href="#DejaVuSans-76" x="199.804688"/>
      <use xlink:href="#DejaVuSans-69" x="258.984375"/>
      <use xlink:href="#DejaVuSans-6e" x="286.767578"/>
      <use xlink:href="#DejaVuSans-61" x="350.146484"/>
      <use xlink:href="#DejaVuSans-72" x="411.425781"/>
      <use xlink:href="#DejaVuSans-117" x="452.539062"/>
     </g>
    </g>
    <g id="line2d_20">
     <path d="M 650.064687 36.051062 
L 660.064687 36.051062 
L 670.064687 36.051062 
" style="fill: none; stroke: #104a7e; stroke-width: 2.4; stroke-linecap: square"/>
    </g>
    <g id="text_19">
     <!-- Dvinarė -->
     <g style="fill: #222222" transform="translate(678.064687 39.551062) scale(0.1 -0.1)">
      <defs>
       <path id="DejaVuSans-44" d="M 1259 4147 
L 1259 519 
L 2022 519 
Q 2988 519 3436 956 
Q 3884 1394 3884 2338 
Q 3884 3275 3436 3711 
Q 2988 4147 2022 4147 
L 1259 4147 
z
M 628 4666 
L 1925 4666 
Q 3281 4666 3915 4102 
Q 4550 3538 4550 2338 
Q 4550 1131 3912 565 
Q 3275 0 1925 0 
L 628 0 
L 628 4666 
z
" transform="scale(0.015625)"/>
      </defs>
      <use xlink:href="#DejaVuSans-44"/>
      <use xlink:href="#DejaVuSans-76" x="77.001953"/>
      <use xlink:href="#DejaVuSans-69" x="136.181641"/>
      <use xlink:href="#DejaVuSans-6e" x="163.964844"/>
      <use xlink:href="#DejaVuSans-61" x="227.34375"/>
      <use xlink:href="#DejaVuSans-72" x="288.623047"/>
      <use xlink:href="#DejaVuSans-117" x="329.736328"/>
     </g>
    </g>
   </g>
  </g>
 </g>
 <defs>
  <clipPath id="pd82d00a4b4">
   <rect x="73.664063" y="8.274499" width="664.81" height="358.285367"/>
  </clipPath>
 </defs>
</svg>
