<?xml version="1.0" encoding="utf-8" standalone="no"?>
<!DOCTYPE svg PUBLIC "-//W3C//DTD SVG 1.1//EN"
  "http://www.w3.org/Graphics/SVG/1.1/DTD/svg11.dtd">
<svg xmlns:xlink="http://www.w3.org/1999/xlink" width="745.481875pt" height="406.491875pt" viewBox="0 0 745.481875 406.491875" xmlns="http://www.w3.org/2000/svg" version="1.1">
 <metadata>
  <rdf:RDF xmlns:dc="http://purl.org/dc/elements/1.1/" xmlns:cc="http://creativecommons.org/ns#" xmlns:rdf="http://www.w3.org/1999/02/22-rdf-syntax-ns#">
   <cc:Work>
    <dc:type rdf:resource="http://purl.org/dc/dcmitype/StillImage"/>
    <dc:date>2026-04-26T14:38:49.932957</dc:date>
    <dc:format>image/svg+xml</dc:format>
    <dc:creator>
     <cc:Agent>
      <dc:title>Matplotlib v3.8.0, https://matplotlib.org/</dc:title>
     </cc:Agent>
    </dc:creator>
   </cc:Work>
  </rdf:RDF>
 </metadata>
 <defs>
  <style type="text/css">*{stroke-linejoin: round; stroke-linecap: butt}</style>
 </defs>
 <g id="figure_1">
  <g id="patch_1">
   <path d="M 0 406.491875 
L 745.481875 406.491875 
L 745.481875 0 
L 0 0 
z
" style="fill: #ffffff"/>
  </g>
  <g id="axes_1">
   <g id="patch_2">
    <path d="M 58.441875 367 
L 738.281875 367 
L 738.281875 7.2 
L 58.441875 7.2 
z
" style="fill: #ffffff"/>
   </g>
   <g id="matplotlib.axis_1">
    <g id="xtick_1">
     <g id="line2d_1">
      <defs>
       <path id="md00d5db22e" d="M 0 0 
L 0 3.5 
" style="stroke: #222222; stroke-width: 0.8"/>
      </defs>
      <g>
       <use xlink:href="#md00d5db22e" x="147.171657" y="367" style="fill: #222222; stroke: #222222; stroke-width: 0.8"/>
      </g>
     </g>
     <g id="text_1">
      <!-- 400 -->
      <g style="fill: #222222" transform="translate(137.627907 381.598437) scale(0.1 -0.1)">
       <defs>
        <path id="DejaVuSans-34" d="M 2419 4116 
L 825 1625 
L 2419 1625 
L 2419 4116 
z
M 2253 4666 
L 3047 4666 
L 3047 1625 
L 3713 1625 
L 3713 1100 
L 3047 1100 
L 3047 0 
L 2419 0 
L 2419 1100 
L 313 1100 
L 313 1709 
L 2253 4666 
z
" transform="scale(0.015625)"/>
        <path id="DejaVuSans-30" d="M 2034 4250 
Q 1547 4250 1301 3770 
Q 1056 3291 1056 2328 
Q 1056 1369 1301 889 
Q 1547 409 2034 409 
Q 2525 409 2770 889 
Q 3016 1369 3016 2328 
Q 3016 3291 2770 3770 
Q 2525 4250 2034 4250 
z
M 2034 4750 
Q 2819 4750 3233 4129 
Q 3647 3509 3647 2328 
Q 3647 1150 3233 529 
Q 2819 -91 2034 -91 
Q 1250 -91 836 529 
Q 422 1150 422 2328 
Q 422 3509 836 4129 
Q 1250 4750 2034 4750 
z
" transform="scale(0.015625)"/>
       </defs>
       <use xlink:href="#DejaVuSans-34"/>
       <use xlink:href="#DejaVuSans-30" x="63.623047"/>
       <use xlink:href="#DejaVuSans-30" x="127.246094"/>
      </g>
     </g>
    </g>
    <g id="xtick_2">
     <g id="line2d_2">
      <g>
       <use xlink:href="#md00d5db22e" x="237.527851" y="367" style="fill: #222222; stroke: #222222; stroke-width: 0.8"/>
      </g>
     </g>
     <g id="text_2">
      <!-- 500 -->
      <g style="fill: #222222" transform="translate(227.984101 381.598437) scale(0.1 -0.1)">
       <defs>
        <path id="DejaVuSans-35" d="M 691 4666 
L 3169 4666 
L 3169 4134 
L 1269 4134 
L 1269 2991 
Q 1406 3038 1543 3061 
Q 1681 3084 1819 3084 
Q 2600 3084 3056 2656 
Q 3513 2228 3513 1497 
Q 3513 744 3044 326 
Q 2575 -91 1722 -91 
Q 1428 -91 1123 -41 
Q 819 9 494 109 
L 494 744 
Q 775 591 1075 516 
Q 1375 441 1709 441 
Q 2250 441 2565 725 
Q 2881 1009 2881 1497 
Q 2881 1984 2565 2268 
Q 2250 2553 1709 2553 
Q 1456 2553 1204 2497 
Q 953 2441 691 2322 
L 691 4666 
z
" transform="scale(0.015625)"/>
       </defs>
       <use xlink:href="#DejaVuSans-35"/>
       <use xlink:href="#DejaVuSans-30" x="63.623047"/>
       <use xlink:href="#DejaVuSans-30" x="127.246094"/>
      </g>
     </g>
    </g>
    <g id="xtick_3">
     <g id="line2d_3">
      <g>
       <use xlink:href="#md00d5db22e" x="327.884044" y="367" style="fill: #222222; stroke: #222222; stroke-width: 0.8"/>
      </g>
     </g>
     <g id="text_3">
      <!-- 600 -->
      <g style="fill: #222222" transform="translate(318.340294 381.598437) scale(0.1 -0.1)">
       <defs>
        <path id="DejaVuSans-36" d="M 2113 2584 
Q 1688 2584 1439 2293 
Q 1191 2003 1191 1497 
Q 1191 994 1439 701 
Q 1688 409 2113 409 
Q 2538 409 2786 701 
Q 3034 994 3034 1497 
Q 3034 2003 2786 2293 
Q 2538 2584 2113 2584 
z
M 3366 4563 
L 3366 3988 
Q 3128 4100 2886 4159 
Q 2644 4219 2406 4219 
Q 1781 4219 1451 3797 
Q 1122 3375 1075 2522 
Q 1259 2794 1537 2939 
Q 1816 3084 2150 3084 
Q 2853 3084 3261 2657 
Q 3669 2231 3669 1497 
Q 3669 778 3244 343 
Q 2819 -91 2113 -91 
Q 1303 -91 875 529 
Q 447 1150 447 2328 
Q 447 3434 972 4092 
Q 1497 4750 2381 4750 
Q 2619 4750 2861 4703 
Q 3103 4656 3366 4563 
z
" transform="scale(0.015625)"/>
       </defs>
       <use xlink:href="#DejaVuSans-36"/>
       <use xlink:href="#DejaVuSans-30" x="63.623047"/>
       <use xlink:href="#DejaVuSans-30" x="127.246094"/>
      </g>
     </g>
    </g>
    <g id="xtick_4">
     <g id="line2d_4">
      <g>
       <use xlink:href="#md00d5db22e" x="418.240238" y="367" style="fill: #222222; stroke: #222222; stroke-width: 0.8"/>
      </g>
     </g>
     <g id="text_4">
      <!-- 700 -->
      <g style="fill: #222222" transform="translate(408.696488 381.598437) scale(0.1 -0.1)">
       <defs>
        <path id="DejaVuSans-37" d="M 525 4666 
L 3525 4666 
L 3525 4397 
L 1831 0 
L 1172 0 
L 2766 4134 
L 525 4134 
L 525 4666 
z
" transform="scale(0.015625)"/>
       </defs>
       <use xlink:href="#DejaVuSans-37"/>
       <use xlink:href="#DejaVuSans-30" x="63.623047"/>
       <use xlink:href="#DejaVuSans-30" x="127.246094"/>
      </g>
     </g>
    </g>
    <g id="xtick_5">
     <g id="line2d_5">
      <g>
       <use xlink:href="#md00d5db22e" x="508.596431" y="367" style="fill: #222222; stroke: #222222; stroke-width: 0.8"/>
      </g>
     </g>
     <g id="text_5">
      <!-- 800 -->
      <g style="fill: #222222" transform="translate(499.052681 381.598437) scale(0.1 -0.1)">
       <defs>
        <path id="DejaVuSans-38" d="M 2034 2216 
Q 1584 2216 1326 1975 
Q 1069 1734 1069 1313 
Q 1069 891 1326 650 
Q 1584 409 2034 409 
Q 2484 409 2743 651 
Q 3003 894 3003 1313 
Q 3003 1734 2745 1975 
Q 2488 2216 2034 2216 
z
M 1403 2484 
Q 997 2584 770 2862 
Q 544 3141 544 3541 
Q 544 4100 942 4425 
Q 1341 4750 2034 4750 
Q 2731 4750 3128 4425 
Q 3525 4100 3525 3541 
Q 3525 3141 3298 2862 
Q 3072 2584 2669 2484 
Q 3125 2378 3379 2068 
Q 3634 1759 3634 1313 
Q 3634 634 3220 271 
Q 2806 -91 2034 -91 
Q 1263 -91 848 271 
Q 434 634 434 1313 
Q 434 1759 690 2068 
Q 947 2378 1403 2484 
z
M 1172 3481 
Q 1172 3119 1398 2916 
Q 1625 2713 2034 2713 
Q 2441 2713 2670 2916 
Q 2900 3119 2900 3481 
Q 2900 3844 2670 4047 
Q 2441 4250 2034 4250 
Q 1625 4250 1398 4047 
Q 1172 3844 1172 3481 
z
" transform="scale(0.015625)"/>
       </defs>
       <use xlink:href="#DejaVuSans-38"/>
       <use xlink:href="#DejaVuSans-30" x="63.623047"/>
       <use xlink:href="#DejaVuSans-30" x="127.246094"/>
      </g>
     </g>
    </g>
    <g id="xtick_6">
     <g id="line2d_6">
      <g>
       <use xlink:href="#md00d5db22e" x="598.952625" y="367" style="fill: #222222; stroke: #222222; stroke-width: 0.8"/>
      </g>
     </g>
     <g id="text_6">
      <!-- 900 -->
      <g style="fill: #222222" transform="translate(589.408875 381.598437) scale(0.1 -0.1)">
       <defs>
        <path id="DejaVuSans-39" d="M 703 97 
L 703 672 
Q 941 559 1184 500 
Q 1428 441 1663 441 
Q 2288 441 2617 861 
Q 2947 1281 2994 2138 
Q 2813 1869 2534 1725 
Q 2256 1581 1919 1581 
Q 1219 1581 811 2004 
Q 403 2428 403 3163 
Q 403 3881 828 4315 
Q 1253 4750 1959 4750 
Q 2769 4750 3195 4129 
Q 3622 3509 3622 2328 
Q 3622 1225 3098 567 
Q 2575 -91 1691 -91 
Q 1453 -91 1209 -44 
Q 966 3 703 97 
z
M 1959 2075 
Q 2384 2075 2632 2365 
Q 2881 2656 2881 3163 
Q 2881 3666 2632 3958 
Q 2384 4250 1959 4250 
Q 1534 4250 1286 3958 
Q 1038 3666 1038 3163 
Q 1038 2656 1286 2365 
Q 1534 2075 1959 2075 
z
" transform="scale(0.015625)"/>
       </defs>
       <use xlink:href="#DejaVuSans-39"/>
       <use xlink:href="#DejaVuSans-30" x="63.623047"/>
       <use xlink:href="#DejaVuSans-30" x="127.246094"/>
      </g>
     </g>
    </g>
    <g id="xtick_7">
     <g id="line2d_7">
      <g>
       <use xlink:href="#md00d5db22e" x="689.308818" y="367" style="fill: #222222; stroke: #222222; stroke-width: 0.8"/>
      </g>
     </g>
     <g id="text_7">
      <!-- 1000 -->
      <g style="fill: #222222" transform="translate(676.583818 381.598437) scale(0.1 -0.1)">
       <defs>
        <path id="DejaVuSans-31" d="M 794 531 
L 1825 531 
L 1825 4091 
L 703 3866 
L 703 4441 
L 1819 4666 
L 2450 4666 
L 2450 531 
L 3481 531 
L 3481 0 
L 794 0 
L 794 531 
z
" transform="scale(0.015625)"/>
       </defs>
       <use xlink:href="#DejaVuSans-31"/>
       <use xlink:href="#DejaVuSans-30" x="63.623047"/>
       <use xlink:href="#DejaVuSans-30" x="127.246094"/>
       <use xlink:href="#DejaVuSans-30" x="190.869141"/>
      </g>
     </g>
    </g>
    <g id="text_8">
     <!-- Bangos ilgis, nm -->
     <g style="fill: #222222" transform="translate(348.857188 396.79625) scale(0.12 -0.12)">
      <defs>
       <path id="DejaVuSans-42" d="M 1259 2228 
L 1259 519 
L 2272 519 
Q 2781 519 3026 730 
Q 3272 941 3272 1375 
Q 3272 1813 3026 2020 
Q 2781 2228 2272 2228 
L 1259 2228 
z
M 1259 4147 
L 1259 2741 
L 2194 2741 
Q 2656 2741 2882 2914 
Q 3109 3088 3109 3444 
Q 3109 3797 2882 3972 
Q 2656 4147 2194 4147 
L 1259 4147 
z
M 628 4666 
L 2241 4666 
Q 2963 4666 3353 4366 
Q 3744 4066 3744 3513 
Q 3744 3084 3544 2831 
Q 3344 2578 2956 2516 
Q 3422 2416 3680 2098 
Q 3938 1781 3938 1306 
Q 3938 681 3513 340 
Q 3088 0 2303 0 
L 628 0 
L 628 4666 
z
" transform="scale(0.015625)"/>
       <path id="DejaVuSans-61" d="M 2194 1759 
Q 1497 1759 1228 1600 
Q 959 1441 959 1056 
Q 959 750 1161 570 
Q 1363 391 1709 391 
Q 2188 391 2477 730 
Q 2766 1069 2766 1631 
L 2766 1759 
L 2194 1759 
z
M 3341 1997 
L 3341 0 
L 2766 0 
L 2766 531 
Q 2569 213 2275 61 
Q 1981 -91 1556 -91 
Q 1019 -91 701 211 
Q 384 513 384 1019 
Q 384 1609 779 1909 
Q 1175 2209 1959 2209 
L 2766 2209 
L 2766 2266 
Q 2766 2663 2505 2880 
Q 2244 3097 1772 3097 
Q 1472 3097 1187 3025 
Q 903 2953 641 2809 
L 641 3341 
Q 956 3463 1253 3523 
Q 1550 3584 1831 3584 
Q 2591 3584 2966 3190 
Q 3341 2797 3341 1997 
z
" transform="scale(0.015625)"/>
       <path id="DejaVuSans-6e" d="M 3513 2113 
L 3513 0 
L 2938 0 
L 2938 2094 
Q 2938 2591 2744 2837 
Q 2550 3084 2163 3084 
Q 1697 3084 1428 2787 
Q 1159 2491 1159 1978 
L 1159 0 
L 581 0 
L 581 3500 
L 1159 3500 
L 1159 2956 
Q 1366 3272 1645 3428 
Q 1925 3584 2291 3584 
Q 2894 3584 3203 3211 
Q 3513 2838 3513 2113 
z
" transform="scale(0.015625)"/>
       <path id="DejaVuSans-67" d="M 2906 1791 
Q 2906 2416 2648 2759 
Q 2391 3103 1925 3103 
Q 1463 3103 1205 2759 
Q 947 2416 947 1791 
Q 947 1169 1205 825 
Q 1463 481 1925 481 
Q 2391 481 2648 825 
Q 2906 1169 2906 1791 
z
M 3481 434 
Q 3481 -459 3084 -895 
Q 2688 -1331 1869 -1331 
Q 1566 -1331 1297 -1286 
Q 1028 -1241 775 -1147 
L 775 -588 
Q 1028 -725 1275 -790 
Q 1522 -856 1778 -856 
Q 2344 -856 2625 -561 
Q 2906 -266 2906 331 
L 2906 616 
Q 2728 306 2450 153 
Q 2172 0 1784 0 
Q 1141 0 747 490 
Q 353 981 353 1791 
Q 353 2603 747 3093 
Q 1141 3584 1784 3584 
Q 2172 3584 2450 3431 
Q 2728 3278 2906 2969 
L 2906 3500 
L 3481 3500 
L 3481 434 
z
" transform="scale(0.015625)"/>
       <path id="DejaVuSans-6f" d="M 1959 3097 
Q 1497 3097 1228 2736 
Q 959 2375 959 1747 
Q 959 1119 1226 758 
Q 1494 397 1959 397 
Q 2419 397 2687 759 
Q 2956 1122 2956 1747 
Q 2956 2369 2687 2733 
Q 2419 3097 1959 3097 
z
M 1959 3584 
Q 2709 3584 3137 3096 
Q 3566 2609 3566 1747 
Q 3566 888 3137 398 
Q 2709 -91 1959 -91 
Q 1206 -91 779 398 
Q 353 888 353 1747 
Q 353 2609 779 3096 
Q 1206 3584 1959 3584 
z
" transform="scale(0.015625)"/>
       <path id="DejaVuSans-73" d="M 2834 3397 
L 2834 2853 
Q 2591 2978 2328 3040 
Q 2066 3103 1784 3103 
Q 1356 3103 1142 2972 
Q 928 2841 928 2578 
Q 928 2378 1081 2264 
Q 1234 2150 1697 2047 
L 1894 2003 
Q 2506 1872 2764 1633 
Q 3022 1394 3022 966 
Q 3022 478 2636 193 
Q 2250 -91 1575 -91 
Q 1294 -91 989 -36 
Q 684 19 347 128 
L 347 722 
Q 666 556 975 473 
Q 1284 391 1588 391 
Q 1994 391 2212 530 
Q 2431 669 2431 922 
Q 2431 1156 2273 1281 
Q 2116 1406 1581 1522 
L 1381 1569 
Q 847 1681 609 1914 
Q 372 2147 372 2553 
Q 372 3047 722 3315 
Q 1072 3584 1716 3584 
Q 2034 3584 2315 3537 
Q 2597 3491 2834 3397 
z
" transform="scale(0.015625)"/>
       <path id="DejaVuSans-20" transform="scale(0.015625)"/>
       <path id="DejaVuSans-69" d="M 603 3500 
L 1178 3500 
L 1178 0 
L 603 0 
L 603 3500 
z
M 603 4863 
L 1178 4863 
L 1178 4134 
L 603 4134 
L 603 4863 
z
" transform="scale(0.015625)"/>
       <path id="DejaVuSans-6c" d="M 603 4863 
L 1178 4863 
L 1178 0 
L 603 0 
L 603 4863 
z
" transform="scale(0.015625)"/>
       <path id="DejaVuSans-2c" d="M 750 794 
L 1409 794 
L 1409 256 
L 897 -744 
L 494 -744 
L 750 256 
L 750 794 
z
" transform="scale(0.015625)"/>
       <path id="DejaVuSans-6d" d="M 3328 2828 
Q 3544 3216 3844 3400 
Q 4144 3584 4550 3584 
Q 5097 3584 5394 3201 
Q 5691 2819 5691 2113 
L 5691 0 
L 5113 0 
L 5113 2094 
Q 5113 2597 4934 2840 
Q 4756 3084 4391 3084 
Q 3944 3084 3684 2787 
Q 3425 2491 3425 1978 
L 3425 0 
L 2847 0 
L 2847 2094 
Q 2847 2600 2669 2842 
Q 2491 3084 2119 3084 
Q 1678 3084 1418 2786 
Q 1159 2488 1159 1978 
L 1159 0 
L 581 0 
L 581 3500 
L 1159 3500 
L 1159 2956 
Q 1356 3278 1631 3431 
Q 1906 3584 2284 3584 
Q 2666 3584 2933 3390 
Q 3200 3197 3328 2828 
z
" transform="scale(0.015625)"/>
      </defs>
      <use xlink:href="#DejaVuSans-42"/>
      <use xlink:href="#DejaVuSans-61" x="68.603516"/>
      <use xlink:href="#DejaVuSans-6e" x="129.882812"/>
      <use xlink:href="#DejaVuSans-67" x="193.261719"/>
      <use xlink:href="#DejaVuSans-6f" x="256.738281"/>
      <use xlink:href="#DejaVuSans-73" x="317.919922"/>
      <use xlink:href="#DejaVuSans-20" x="370.019531"/>
      <use xlink:href="#DejaVuSans-69" x="401.806641"/>
      <use xlink:href="#DejaVuSans-6c" x="429.589844"/>
      <use xlink:href="#DejaVuSans-67" x="457.373047"/>
      <use xlink:href="#DejaVuSans-69" x="520.849609"/>
      <use xlink:href="#DejaVuSans-73" x="548.632812"/>
      <use xlink:href="#DejaVuSans-2c" x="600.732422"/>
      <use xlink:href="#DejaVuSans-20" x="632.519531"/>
      <use xlink:href="#DejaVuSans-6e" x="664.306641"/>
      <use xlink:href="#DejaVuSans-6d" x="727.685547"/>
     </g>
    </g>
   </g>
   <g id="matplotlib.axis_2">
    <g id="ytick_1">
     <g id="line2d_8">
      <defs>
       <path id="m5528b0b4a2" d="M 0 0 
L -3.5 0 
" style="stroke: #222222; stroke-width: 0.8"/>
      </defs>
      <g>
       <use xlink:href="#m5528b0b4a2" x="58.441875" y="350.699958" style="fill: #222222; stroke: #222222; stroke-width: 0.8"/>
      </g>
     </g>
     <g id="text_9">
      <!-- 0.000 -->
      <g style="fill: #222222" transform="translate(22.81375 354.499176) scale(0.1 -0.1)">
       <defs>
        <path id="DejaVuSans-2e" d="M 684 794 
L 1344 794 
L 1344 0 
L 684 0 
L 684 794 
z
" transform="scale(0.015625)"/>
       </defs>
       <use xlink:href="#DejaVuSans-30"/>
       <use xlink:href="#DejaVuSans-2e" x="63.623047"/>
       <use xlink:href="#DejaVuSans-30" x="95.410156"/>
       <use xlink:href="#DejaVuSans-30" x="159.033203"/>
       <use xlink:href="#DejaVuSans-30" x="222.65625"/>
      </g>
     </g>
    </g>
    <g id="ytick_2">
     <g id="line2d_9">
      <g>
       <use xlink:href="#m5528b0b4a2" x="58.441875" y="303.788676" style="fill: #222222; stroke: #222222; stroke-width: 0.8"/>
      </g>
     </g>
     <g id="text_10">
      <!-- 0.025 -->
      <g style="fill: #222222" transform="translate(22.81375 307.587895) scale(0.1 -0.1)">
       <defs>
        <path id="DejaVuSans-32" d="M 1228 531 
L 3431 531 
L 3431 0 
L 469 0 
L 469 531 
Q 828 903 1448 1529 
Q 2069 2156 2228 2338 
Q 2531 2678 2651 2914 
Q 2772 3150 2772 3378 
Q 2772 3750 2511 3984 
Q 2250 4219 1831 4219 
Q 1534 4219 1204 4116 
Q 875 4013 500 3803 
L 500 4441 
Q 881 4594 1212 4672 
Q 1544 4750 1819 4750 
Q 2544 4750 2975 4387 
Q 3406 4025 3406 3419 
Q 3406 3131 3298 2873 
Q 3191 2616 2906 2266 
Q 2828 2175 2409 1742 
Q 1991 1309 1228 531 
z
" transform="scale(0.015625)"/>
       </defs>
       <use xlink:href="#DejaVuSans-30"/>
       <use xlink:href="#DejaVuSans-2e" x="63.623047"/>
       <use xlink:href="#DejaVuSans-30" x="95.410156"/>
       <use xlink:href="#DejaVuSans-32" x="159.033203"/>
       <use xlink:href="#DejaVuSans-35" x="222.65625"/>
      </g>
     </g>
    </g>
    <g id="ytick_3">
     <g id="line2d_10">
      <g>
       <use xlink:href="#m5528b0b4a2" x="58.441875" y="256.877395" style="fill: #222222; stroke: #222222; stroke-width: 0.8"/>
      </g>
     </g>
     <g id="text_11">
      <!-- 0.050 -->
      <g style="fill: #222222" transform="translate(22.81375 260.676614) scale(0.1 -0.1)">
       <use xlink:href="#DejaVuSans-30"/>
       <use xlink:href="#DejaVuSans-2e" x="63.623047"/>
       <use xlink:href="#DejaVuSans-30" x="95.410156"/>
       <use xlink:href="#DejaVuSans-35" x="159.033203"/>
       <use xlink:href="#DejaVuSans-30" x="222.65625"/>
      </g>
     </g>
    </g>
    <g id="ytick_4">
     <g id="line2d_11">
      <g>
       <use xlink:href="#m5528b0b4a2" x="58.441875" y="209.966114" style="fill: #222222; stroke: #222222; stroke-width: 0.8"/>
      </g>
     </g>
     <g id="text_12">
      <!-- 0.075 -->
      <g style="fill: #222222" transform="translate(22.81375 213.765333) scale(0.1 -0.1)">
       <use xlink:href="#DejaVuSans-30"/>
       <use xlink:href="#DejaVuSans-2e" x="63.623047"/>
       <use xlink:href="#DejaVuSans-30" x="95.410156"/>
       <use xlink:href="#DejaVuSans-37" x="159.033203"/>
       <use xlink:href="#DejaVuSans-35" x="222.65625"/>
      </g>
     </g>
    </g>
    <g id="ytick_5">
     <g id="line2d_12">
      <g>
       <use xlink:href="#m5528b0b4a2" x="58.441875" y="163.054833" style="fill: #222222; stroke: #222222; stroke-width: 0.8"/>
      </g>
     </g>
     <g id="text_13">
      <!-- 0.100 -->
      <g style="fill: #222222" transform="translate(22.81375 166.854051) scale(0.1 -0.1)">
       <use xlink:href="#DejaVuSans-30"/>
       <use xlink:href="#DejaVuSans-2e" x="63.623047"/>
       <use xlink:href="#DejaVuSans-31" x="95.410156"/>
       <use xlink:href="#DejaVuSans-30" x="159.033203"/>
       <use xlink:href="#DejaVuSans-30" x="222.65625"/>
      </g>
     </g>
    </g>
    <g id="ytick_6">
     <g id="line2d_13">
      <g>
       <use xlink:href="#m5528b0b4a2" x="58.441875" y="116.143552" style="fill: #222222; stroke: #222222; stroke-width: 0.8"/>
      </g>
     </g>
     <g id="text_14">
      <!-- 0.125 -->
      <g style="fill: #222222" transform="translate(22.81375 119.94277) scale(0.1 -0.1)">
       <use xlink:href="#DejaVuSans-30"/>
       <use xlink:href="#DejaVuSans-2e" x="63.623047"/>
       <use xlink:href="#DejaVuSans-31" x="95.410156"/>
       <use xlink:href="#DejaVuSans-32" x="159.033203"/>
       <use xlink:href="#DejaVuSans-35" x="222.65625"/>
      </g>
     </g>
    </g>
    <g id="ytick_7">
     <g id="line2d_14">
      <g>
       <use xlink:href="#m5528b0b4a2" x="58.441875" y="69.23227" style="fill: #222222; stroke: #222222; stroke-width: 0.8"/>
      </g>
     </g>
     <g id="text_15">
      <!-- 0.150 -->
      <g style="fill: #222222" transform="translate(22.81375 73.031489) scale(0.1 -0.1)">
       <use xlink:href="#DejaVuSans-30"/>
       <use xlink:href="#DejaVuSans-2e" x="63.623047"/>
       <use xlink:href="#DejaVuSans-31" x="95.410156"/>
       <use xlink:href="#DejaVuSans-35" x="159.033203"/>
       <use xlink:href="#DejaVuSans-30" x="222.65625"/>
      </g>
     </g>
    </g>
    <g id="ytick_8">
     <g id="line2d_15">
      <g>
       <use xlink:href="#m5528b0b4a2" x="58.441875" y="22.320989" style="fill: #222222; stroke: #222222; stroke-width: 0.8"/>
      </g>
     </g>
     <g id="text_16">
      <!-- 0.175 -->
      <g style="fill: #222222" transform="translate(22.81375 26.120208) scale(0.1 -0.1)">
       <use xlink:href="#DejaVuSans-30"/>
       <use xlink:href="#DejaVuSans-2e" x="63.623047"/>
       <use xlink:href="#DejaVuSans-31" x="95.410156"/>
       <use xlink:href="#DejaVuSans-37" x="159.033203"/>
       <use xlink:href="#DejaVuSans-35" x="222.65625"/>
      </g>
     </g>
    </g>
    <g id="text_17">
     <!-- L2 normalizuotas srautas -->
     <g style="fill: #222222" transform="translate(16.318125 262.768437) rotate(-90) scale(0.12 -0.12)">
      <defs>
       <path id="DejaVuSans-4c" d="M 628 4666 
L 1259 4666 
L 1259 531 
L 3531 531 
L 3531 0 
L 628 0 
L 628 4666 
z
" transform="scale(0.015625)"/>
       <path id="DejaVuSans-72" d="M 2631 2963 
Q 2534 3019 2420 3045 
Q 2306 3072 2169 3072 
Q 1681 3072 1420 2755 
Q 1159 2438 1159 1844 
L 1159 0 
L 581 0 
L 581 3500 
L 1159 3500 
L 1159 2956 
Q 1341 3275 1631 3429 
Q 1922 3584 2338 3584 
Q 2397 3584 2469 3576 
Q 2541 3569 2628 3553 
L 2631 2963 
z
" transform="scale(0.015625)"/>
       <path id="DejaVuSans-7a" d="M 353 3500 
L 3084 3500 
L 3084 2975 
L 922 459 
L 3084 459 
L 3084 0 
L 275 0 
L 275 525 
L 2438 3041 
L 353 3041 
L 353 3500 
z
" transform="scale(0.015625)"/>
       <path id="DejaVuSans-75" d="M 544 1381 
L 544 3500 
L 1119 3500 
L 1119 1403 
Q 1119 906 1312 657 
Q 1506 409 1894 409 
Q 2359 409 2629 706 
Q 2900 1003 2900 1516 
L 2900 3500 
L 3475 3500 
L 3475 0 
L 2900 0 
L 2900 538 
Q 2691 219 2414 64 
Q 2138 -91 1772 -91 
Q 1169 -91 856 284 
Q 544 659 544 1381 
z
M 1991 3584 
L 1991 3584 
z
" transform="scale(0.015625)"/>
       <path id="DejaVuSans-74" d="M 1172 4494 
L 1172 3500 
L 2356 3500 
L 2356 3053 
L 1172 3053 
L 1172 1153 
Q 1172 725 1289 603 
Q 1406 481 1766 481 
L 2356 481 
L 2356 0 
L 1766 0 
Q 1100 0 847 248 
Q 594 497 594 1153 
L 594 3053 
L 172 3053 
L 172 3500 
L 594 3500 
L 594 4494 
L 1172 4494 
z
" transform="scale(0.015625)"/>
      </defs>
      <use xlink:href="#DejaVuSans-4c"/>
      <use xlink:href="#DejaVuSans-32" x="55.712891"/>
      <use xlink:href="#DejaVuSans-20" x="119.335938"/>
      <use xlink:href="#DejaVuSans-6e" x="151.123047"/>
      <use xlink:href="#DejaVuSans-6f" x="214.501953"/>
      <use xlink:href="#DejaVuSans-72" x="275.683594"/>
      <use xlink:href="#DejaVuSans-6d" x="315.046875"/>
      <use xlink:href="#DejaVuSans-61" x="412.458984"/>
      <use xlink:href="#DejaVuSans-6c" x="473.738281"/>
      <use xlink:href="#DejaVuSans-69" x="501.521484"/>
      <use xlink:href="#DejaVuSans-7a" x="529.304688"/>
      <use xlink:href="#DejaVuSans-75" x="581.794922"/>
      <use xlink:href="#DejaVuSans-6f" x="645.173828"/>
      <use xlink:href="#DejaVuSans-74" x="706.355469"/>
      <use xlink:href="#DejaVuSans-61" x="745.564453"/>
      <use xlink:href="#DejaVuSans-73" x="806.84375"/>
      <use xlink:href="#DejaVuSans-20" x="858.943359"/>
      <use xlink:href="#DejaVuSans-73" x="890.730469"/>
      <use xlink:href="#DejaVuSans-72" x="942.830078"/>
      <use xlink:href="#DejaVuSans-61" x="983.943359"/>
      <use xlink:href="#DejaVuSans-75" x="1045.222656"/>
      <use xlink:href="#DejaVuSans-74" x="1108.601562"/>
      <use xlink:href="#DejaVuSans-61" x="1147.810547"/>
      <use xlink:href="#DejaVuSans-73" x="1209.089844"/>
     </g>
    </g>
   </g>
   <g id="line2d_16">
    <path d="M 89.343693 62.994974 
L 91.150817 59.248301 
L 92.957941 64.595818 
L 94.765065 74.432065 
L 96.572189 80.627742 
L 98.379313 84.875355 
L 100.186436 88.783496 
L 101.99356 97.05144 
L 103.800684 101.905355 
L 105.607808 100.088805 
L 107.414932 101.624954 
L 109.222056 106.308766 
L 111.02918 105.409994 
L 112.836303 109.166429 
L 114.643427 117.669987 
L 116.450551 122.990978 
L 118.257675 122.250787 
L 120.064799 120.953912 
L 121.871923 122.670157 
L 123.679047 126.468683 
L 125.486171 131.104639 
L 127.293294 132.642687 
L 129.100418 132.55378 
L 130.907542 133.024192 
L 132.714666 132.407309 
L 134.52179 130.481308 
L 136.328914 129.422161 
L 138.136038 131.892469 
L 139.943162 137.007397 
L 141.750285 143.223629 
L 143.557409 147.567503 
L 145.364533 148.418821 
L 147.171657 147.00287 
L 148.978781 145.051477 
L 150.785905 146.242264 
L 152.593029 150.817795 
L 156.207276 163.653498 
L 158.0144 167.725756 
L 159.821524 168.078003 
L 161.628648 166.340202 
L 163.435772 164.259915 
L 165.242896 163.687458 
L 167.05002 165.759041 
L 168.857143 170.415908 
L 170.664267 176.449337 
L 172.471391 183.225362 
L 174.278515 189.335626 
L 176.085639 194.264456 
L 177.892763 197.87053 
L 179.699887 199.784563 
L 181.507011 199.975614 
L 183.314134 199.466396 
L 185.121258 198.806094 
L 186.928382 198.62117 
L 188.735506 199.243413 
L 190.54263 200.78036 
L 192.349754 203.11679 
L 195.964002 208.379188 
L 197.771125 210.738238 
L 199.578249 212.530914 
L 201.385373 214.088697 
L 204.999621 216.685186 
L 208.613869 219.911189 
L 210.420992 221.965827 
L 212.228116 224.244807 
L 214.03524 226.704216 
L 217.649488 232.287453 
L 221.263736 237.853746 
L 223.07086 240.241442 
L 224.877983 242.427591 
L 226.685107 244.016299 
L 228.492231 244.983773 
L 230.299355 245.350309 
L 233.913603 245.496984 
L 235.720727 245.468309 
L 237.527851 245.613424 
L 239.334974 246.456643 
L 241.142098 247.534781 
L 242.949222 249.087328 
L 248.370594 254.373036 
L 250.177718 255.832869 
L 251.984842 256.965606 
L 255.599089 258.644638 
L 259.213337 259.801598 
L 261.020461 260.574003 
L 262.827585 261.486425 
L 264.634709 262.562284 
L 270.05608 266.992312 
L 273.670328 269.833759 
L 275.477452 270.99083 
L 279.0917 272.758899 
L 282.705947 274.0822 
L 284.513071 274.594687 
L 291.741567 277.684024 
L 298.970062 281.499741 
L 300.777186 282.197875 
L 302.58431 282.723787 
L 306.198558 284.109341 
L 309.812805 285.999805 
L 311.619929 287.131538 
L 313.427053 288.450973 
L 317.041301 290.648402 
L 318.848425 291.521216 
L 324.269796 293.225885 
L 327.884044 293.727637 
L 329.691168 293.932452 
L 333.305416 294.73445 
L 336.919663 295.992505 
L 344.148159 298.885095 
L 345.955283 299.725929 
L 347.762407 300.39425 
L 353.183778 301.287773 
L 356.798026 301.742915 
L 358.60515 301.976675 
L 360.412274 302.426846 
L 364.026521 303.740771 
L 365.833645 303.96728 
L 367.640769 304.985093 
L 369.447893 306.232542 
L 371.255017 307.087354 
L 373.062141 307.678294 
L 374.869265 308.446395 
L 378.483512 310.522655 
L 380.290636 311.150059 
L 382.09776 311.101134 
L 385.712008 309.952064 
L 387.519132 309.764976 
L 389.326256 310.03561 
L 394.747627 311.746459 
L 400.168999 312.295106 
L 401.976123 312.691376 
L 405.59037 313.81466 
L 407.397494 314.205516 
L 414.62599 315.217982 
L 418.240238 316.278813 
L 421.854485 316.888811 
L 427.275857 317.363407 
L 434.504352 319.080488 
L 436.311476 319.303 
L 439.925724 319.471717 
L 443.539972 320.033129 
L 448.961343 321.33984 
L 452.575591 321.631944 
L 456.189839 321.887929 
L 459.804087 322.55831 
L 461.61121 322.985724 
L 465.225458 323.55223 
L 470.64683 323.910391 
L 472.453954 324.089847 
L 479.682449 325.364171 
L 488.718069 325.881858 
L 490.525192 326.164656 
L 494.13944 326.894066 
L 497.753688 327.404027 
L 506.789307 327.978812 
L 510.403555 328.591087 
L 514.017803 329.173949 
L 517.63205 329.490399 
L 523.053422 329.793233 
L 526.66767 330.219065 
L 530.281918 330.821564 
L 533.896165 331.175194 
L 539.317537 331.358623 
L 542.931785 331.466917 
L 546.546032 331.863238 
L 548.353156 332.20523 
L 553.774528 332.717955 
L 557.388776 332.902028 
L 562.810147 333.047603 
L 575.460014 334.137841 
L 579.074262 334.145765 
L 580.881386 334.044178 
L 584.495634 334.164948 
L 589.917005 334.759995 
L 593.531253 335.255144 
L 598.952625 335.550398 
L 606.18112 335.60575 
L 611.602492 336.111546 
L 618.830987 336.844894 
L 622.445235 337.008199 
L 626.059483 336.865804 
L 631.480854 336.851918 
L 633.287978 336.934569 
L 644.130721 338.200713 
L 645.937845 338.366484 
L 647.744969 338.387383 
L 654.973465 337.961364 
L 656.780588 337.877464 
L 662.20196 338.24373 
L 664.009084 338.622995 
L 667.623332 339.126896 
L 669.430456 339.487608 
L 671.237579 339.54149 
L 673.044703 339.747426 
L 678.466075 339.527848 
L 680.273199 339.180264 
L 682.080323 339.06334 
L 685.69457 338.656488 
L 689.308818 338.823001 
L 691.115942 339.102881 
L 698.344437 340.983578 
L 701.958685 341.478066 
L 705.572933 340.875696 
L 707.380057 339.963985 
L 707.380057 339.963985 
" clip-path="url(#pc570cfc8f7)" style="fill: none; stroke: #104a7e; stroke-width: 2.5; stroke-linecap: square"/>
   </g>
   <g id="line2d_17">
    <path d="M 89.343693 26.836463 
L 91.150817 23.554545 
L 92.957941 29.245213 
L 94.765065 40.98797 
L 96.572189 48.801628 
L 98.379313 54.305371 
L 100.186436 58.791453 
L 101.99356 67.905387 
L 103.800684 73.463908 
L 105.607808 71.608416 
L 107.414932 73.427039 
L 109.222056 79.343384 
L 111.02918 78.893062 
L 112.836303 83.130224 
L 114.643427 92.027668 
L 116.450551 97.729281 
L 118.257675 97.723348 
L 120.064799 96.432858 
L 121.871923 97.954261 
L 123.679047 101.307305 
L 125.486171 106.781928 
L 127.293294 110.702924 
L 129.100418 111.715375 
L 130.907542 113.560112 
L 132.714666 113.747927 
L 134.52179 112.424681 
L 136.328914 113.332104 
L 138.136038 116.900357 
L 139.943162 122.904794 
L 141.750285 130.229278 
L 143.557409 135.226756 
L 145.364533 136.537682 
L 147.171657 134.553368 
L 148.978781 131.338415 
L 150.785905 132.579493 
L 152.593029 138.760278 
L 154.400153 147.208466 
L 156.207276 154.738208 
L 158.0144 159.211788 
L 159.821524 158.988825 
L 161.628648 155.70217 
L 163.435772 151.626325 
L 165.242896 149.641592 
L 167.05002 151.66696 
L 168.857143 157.50724 
L 170.664267 165.086264 
L 172.471391 173.197076 
L 174.278515 180.40443 
L 176.085639 186.115604 
L 177.892763 189.914987 
L 179.699887 191.54988 
L 181.507011 191.233836 
L 183.314134 189.962807 
L 185.121258 188.318875 
L 186.928382 187.27482 
L 188.735506 187.419433 
L 190.54263 188.822979 
L 192.349754 191.226566 
L 195.964002 196.977966 
L 197.771125 199.582009 
L 199.578249 201.388437 
L 201.385373 202.752459 
L 204.999621 204.888946 
L 208.613869 208.055606 
L 210.420992 210.305362 
L 212.228116 212.960717 
L 214.03524 215.927938 
L 221.263736 228.757713 
L 223.07086 231.37327 
L 224.877983 233.708681 
L 226.685107 235.297275 
L 228.492231 236.100704 
L 230.299355 236.169702 
L 233.913603 235.617831 
L 235.720727 235.273774 
L 237.527851 235.168837 
L 239.334974 235.885197 
L 241.142098 236.914945 
L 242.949222 238.517813 
L 248.370594 244.164945 
L 250.177718 245.688248 
L 251.984842 246.809912 
L 255.599089 248.300763 
L 259.213337 249.165157 
L 261.020461 249.820949 
L 262.827585 250.64059 
L 264.634709 251.649924 
L 266.441832 253.066113 
L 270.05608 256.094314 
L 273.670328 259.010182 
L 275.477452 260.186249 
L 279.0917 261.924702 
L 280.898823 262.607427 
L 286.320195 264.367743 
L 288.127319 265.027937 
L 289.934443 265.810666 
L 293.548691 267.802164 
L 297.162938 269.815531 
L 298.970062 270.755916 
L 300.777186 271.442781 
L 302.58431 271.925194 
L 306.198558 273.267451 
L 309.812805 275.20047 
L 311.619929 276.393672 
L 313.427053 277.816883 
L 317.041301 280.184587 
L 318.848425 281.122172 
L 320.655549 281.670982 
L 324.269796 282.914371 
L 327.884044 283.380801 
L 329.691168 283.558533 
L 333.305416 284.369701 
L 336.919663 285.708026 
L 340.533911 287.244753 
L 347.762407 290.438023 
L 353.183778 291.269403 
L 356.798026 291.677129 
L 358.60515 291.895092 
L 360.412274 292.409783 
L 364.026521 293.939245 
L 365.833645 294.117957 
L 367.640769 295.231336 
L 369.447893 296.669391 
L 371.255017 297.628254 
L 373.062141 298.244622 
L 374.869265 299.077932 
L 378.483512 301.403158 
L 380.290636 302.092982 
L 382.09776 302.028102 
L 385.712008 300.612115 
L 387.519132 300.29188 
L 389.326256 300.512461 
L 391.13338 301.107943 
L 392.940503 301.839962 
L 394.747627 302.429576 
L 400.168999 303.055959 
L 401.976123 303.506236 
L 405.59037 304.7171 
L 407.397494 305.125273 
L 412.818866 305.796318 
L 414.62599 306.242576 
L 418.240238 307.462909 
L 421.854485 308.115812 
L 427.275857 308.569135 
L 434.504352 310.518142 
L 436.311476 310.761133 
L 438.1186 310.76674 
L 439.925724 310.909542 
L 443.539972 311.563811 
L 448.961343 313.112145 
L 452.575591 313.439809 
L 456.189839 313.7045 
L 459.804087 314.466047 
L 461.61121 314.930953 
L 465.225458 315.511702 
L 470.64683 315.886382 
L 472.453954 316.115027 
L 477.875325 317.392696 
L 479.682449 317.679565 
L 488.718069 318.149677 
L 490.525192 318.485193 
L 494.13944 319.36159 
L 497.753688 319.959007 
L 501.367936 320.162428 
L 504.982183 320.292565 
L 508.596431 320.889307 
L 512.210679 321.715321 
L 515.824927 322.214909 
L 521.246298 322.624246 
L 523.053422 322.701184 
L 526.66767 323.206834 
L 530.281918 323.927452 
L 533.896165 324.327947 
L 537.510413 324.472629 
L 542.931785 324.645987 
L 546.546032 325.164948 
L 548.353156 325.610538 
L 551.967404 326.083914 
L 557.388776 326.493989 
L 562.810147 326.620145 
L 575.460014 327.825526 
L 579.074262 327.827955 
L 580.881386 327.677046 
L 584.495634 327.797452 
L 589.917005 328.531191 
L 593.531253 329.1287 
L 598.952625 329.47466 
L 606.18112 329.522059 
L 611.602492 330.148659 
L 613.409616 330.382172 
L 615.216739 330.751492 
L 617.023863 330.972962 
L 618.830987 330.99674 
L 622.445235 331.217909 
L 626.059483 331.027394 
L 631.480854 330.958641 
L 633.287978 331.066188 
L 642.323597 332.600754 
L 644.130721 332.621511 
L 645.937845 332.833405 
L 647.744969 332.867397 
L 656.780588 332.030712 
L 662.20196 332.468433 
L 664.009084 332.988774 
L 667.623332 333.560857 
L 669.430456 333.984835 
L 671.237579 333.983581 
L 673.044703 334.274246 
L 678.466075 334.149564 
L 680.273199 333.631955 
L 682.080323 333.37037 
L 683.887447 332.841706 
L 685.69457 332.433769 
L 689.308818 332.360471 
L 691.115942 332.59398 
L 692.923066 332.996473 
L 694.73019 333.085398 
L 696.537314 333.306652 
L 698.344437 333.116404 
L 700.151561 332.688021 
L 701.958685 332.493712 
L 703.765809 331.725922 
L 705.572933 331.39396 
L 707.380057 330.142034 
L 707.380057 330.142034 
" clip-path="url(#pc570cfc8f7)" style="fill: none; stroke-dasharray: 5.18,2.24; stroke-dashoffset: 0; stroke: #78003f; stroke-width: 1.4"/>
   </g>
   <g id="line2d_18">
    <path d="M 89.343693 99.153485 
L 91.150817 94.942057 
L 92.957941 99.946423 
L 94.765065 107.876161 
L 96.572189 112.453856 
L 98.379313 115.44534 
L 100.186436 118.775539 
L 101.99356 126.197493 
L 103.800684 130.346803 
L 105.607808 128.569195 
L 107.414932 129.822869 
L 109.222056 133.274147 
L 111.02918 131.926927 
L 112.836303 135.202635 
L 114.643427 143.312307 
L 116.450551 148.252675 
L 118.257675 146.778225 
L 120.064799 145.474967 
L 121.871923 147.386052 
L 123.679047 151.630061 
L 125.486171 155.42735 
L 127.293294 154.58245 
L 129.100418 153.392186 
L 130.907542 152.488272 
L 132.714666 151.06669 
L 134.52179 148.537934 
L 136.328914 145.512218 
L 138.136038 146.884581 
L 139.943162 151.110001 
L 141.750285 156.217981 
L 143.557409 159.908251 
L 145.364533 160.29996 
L 147.171657 159.452373 
L 148.978781 158.76454 
L 150.785905 159.905036 
L 152.593029 162.875312 
L 154.400153 167.517163 
L 156.207276 172.568787 
L 158.0144 176.239724 
L 159.821524 177.167182 
L 163.435772 176.893505 
L 165.242896 177.733323 
L 167.05002 179.851122 
L 168.857143 183.324577 
L 170.664267 187.81241 
L 172.471391 193.253648 
L 174.278515 198.266822 
L 176.085639 202.413308 
L 177.892763 205.826073 
L 179.699887 208.019245 
L 181.507011 208.717392 
L 185.121258 209.293313 
L 186.928382 209.967521 
L 188.735506 211.067394 
L 190.54263 212.737741 
L 192.349754 215.007013 
L 195.964002 219.780409 
L 197.771125 221.894467 
L 201.385373 225.424935 
L 208.613869 231.766773 
L 214.03524 237.480495 
L 215.842364 239.639565 
L 223.07086 249.109615 
L 224.877983 251.146502 
L 226.685107 252.735322 
L 228.492231 253.866843 
L 230.299355 254.530917 
L 233.913603 255.376136 
L 237.527851 256.05801 
L 239.334974 257.028089 
L 241.142098 258.154618 
L 242.949222 259.656843 
L 248.370594 264.581127 
L 250.177718 265.977491 
L 251.984842 267.1213 
L 255.599089 268.988514 
L 259.213337 270.438039 
L 262.827585 272.33226 
L 264.634709 273.474644 
L 273.670328 280.657336 
L 275.477452 281.795411 
L 279.0917 283.593096 
L 282.705947 285.000661 
L 284.513071 285.56448 
L 291.741567 288.599695 
L 298.970062 292.243567 
L 300.777186 292.952969 
L 302.58431 293.522381 
L 306.198558 294.951231 
L 309.812805 296.79914 
L 311.619929 297.869404 
L 313.427053 299.085064 
L 317.041301 301.112217 
L 318.848425 301.92026 
L 324.269796 303.537399 
L 327.884044 304.074472 
L 329.691168 304.30637 
L 333.305416 305.099199 
L 336.919663 306.276984 
L 344.148159 308.962363 
L 345.955283 309.727311 
L 347.762407 310.350477 
L 353.183778 311.306143 
L 358.60515 312.058259 
L 360.412274 312.443909 
L 364.026521 313.542298 
L 365.833645 313.816603 
L 367.640769 314.73885 
L 369.447893 315.795693 
L 371.255017 316.546454 
L 373.062141 317.111966 
L 374.869265 317.814858 
L 378.483512 319.642151 
L 380.290636 320.207136 
L 382.09776 320.174165 
L 385.712008 319.292014 
L 387.519132 319.238071 
L 389.326256 319.558759 
L 394.747627 321.063343 
L 400.168999 321.534253 
L 401.976123 321.876517 
L 405.59037 322.91222 
L 407.397494 323.285758 
L 414.62599 324.193388 
L 420.047361 325.416874 
L 423.661609 325.805708 
L 425.468733 325.914488 
L 427.275857 326.157678 
L 434.504352 327.642834 
L 436.311476 327.844867 
L 439.925724 328.033893 
L 443.539972 328.502446 
L 448.961343 329.567535 
L 457.996963 330.31883 
L 465.225458 331.592759 
L 472.453954 332.064667 
L 481.489573 333.155637 
L 488.718069 333.614039 
L 492.332316 334.158036 
L 495.946564 334.671626 
L 499.560812 334.948654 
L 504.982183 335.212755 
L 510.403555 335.877804 
L 514.017803 336.357606 
L 517.63205 336.611604 
L 523.053422 336.885283 
L 528.474794 337.474183 
L 532.089041 337.894626 
L 535.703289 338.099812 
L 542.931785 338.287848 
L 546.546032 338.561527 
L 550.16028 338.958155 
L 555.581652 339.278893 
L 562.810147 339.475061 
L 575.460014 340.450156 
L 586.302758 340.667662 
L 597.145501 341.598772 
L 607.988244 341.799207 
L 613.409616 342.235364 
L 617.023863 342.629682 
L 622.445235 342.79849 
L 626.059483 342.704213 
L 633.287978 342.802951 
L 638.70935 343.225994 
L 642.323597 343.689829 
L 647.744969 343.907369 
L 653.166341 343.723472 
L 656.780588 343.724217 
L 664.009084 344.257216 
L 667.623332 344.692935 
L 669.430456 344.990381 
L 673.044703 345.220607 
L 678.466075 344.906132 
L 680.273199 344.728572 
L 685.69457 344.879207 
L 689.308818 345.285531 
L 691.115942 345.611783 
L 692.923066 346.133056 
L 694.73019 346.824214 
L 700.151561 349.805385 
L 701.958685 350.46242 
L 703.765809 350.645455 
L 705.572933 350.357432 
L 707.380057 349.785935 
L 707.380057 349.785935 
" clip-path="url(#pc570cfc8f7)" style="fill: none; stroke-dasharray: 5.18,2.24; stroke-dashoffset: 0; stroke: #0d1530; stroke-width: 1.4"/>
   </g>
   <g id="patch_3">
    <path d="M 58.441875 367 
L 58.441875 7.2 
" style="fill: none; stroke: #444444; stroke-width: 0.8; stroke-linejoin: miter; stroke-linecap: square"/>
   </g>
   <g id="patch_4">
    <path d="M 58.441875 367 
L 738.281875 367 
" style="fill: none; stroke: #444444; stroke-width: 0.8; stroke-linejoin: miter; stroke-linecap: square"/>
   </g>
   <g id="legend_1">
    <g id="line2d_19">
     <path d="M 623.206875 20.298437 
L 633.206875 20.298437 
L 643.206875 20.298437 
" style="fill: none; stroke: #104a7e; stroke-width: 2.5; stroke-linecap: square"/>
    </g>
    <g id="text_18">
     <!-- Vidurkis -->
     <g style="fill: #222222" transform="translate(651.206875 23.798437) scale(0.1 -0.1)">
      <defs>
       <path id="DejaVuSans-56" d="M 1831 0 
L 50 4666 
L 709 4666 
L 2188 738 
L 3669 4666 
L 4325 4666 
L 2547 0 
L 1831 0 
z
" transform="scale(0.015625)"/>
       <path id="DejaVuSans-64" d="M 2906 2969 
L 2906 4863 
L 3481 4863 
L 3481 0 
L 2906 0 
L 2906 525 
Q 2725 213 2448 61 
Q 2172 -91 1784 -91 
Q 1150 -91 751 415 
Q 353 922 353 1747 
Q 353 2572 751 3078 
Q 1150 3584 1784 3584 
Q 2172 3584 2448 3432 
Q 2725 3281 2906 2969 
z
M 947 1747 
Q 947 1113 1208 752 
Q 1469 391 1925 391 
Q 2381 391 2643 752 
Q 2906 1113 2906 1747 
Q 2906 2381 2643 2742 
Q 2381 3103 1925 3103 
Q 1469 3103 1208 2742 
Q 947 2381 947 1747 
z
" transform="scale(0.015625)"/>
       <path id="DejaVuSans-6b" d="M 581 4863 
L 1159 4863 
L 1159 1991 
L 2875 3500 
L 3609 3500 
L 1753 1863 
L 3688 0 
L 2938 0 
L 1159 1709 
L 1159 0 
L 581 0 
L 581 4863 
z
" transform="scale(0.015625)"/>
      </defs>
      <use xlink:href="#DejaVuSans-56"/>
      <use xlink:href="#DejaVuSans-69" x="66.158203"/>
      <use xlink:href="#DejaVuSans-64" x="93.941406"/>
      <use xlink:href="#DejaVuSans-75" x="157.417969"/>
      <use xlink:href="#DejaVuSans-72" x="220.796875"/>
      <use xlink:href="#DejaVuSans-6b" x="261.910156"/>
      <use xlink:href="#DejaVuSans-69" x="319.820312"/>
      <use xlink:href="#DejaVuSans-73" x="347.603516"/>
     </g>
    </g>
    <g id="line2d_20">
     <path d="M 623.206875 34.976562 
L 633.206875 34.976562 
L 643.206875 34.976562 
" style="fill: none; stroke-dasharray: 5.18,2.24; stroke-dashoffset: 0; stroke: #78003f; stroke-width: 1.4"/>
    </g>
    <g id="text_19">
     <!-- Vidurkis + 1 SN -->
     <g style="fill: #222222" transform="translate(651.206875 38.476562) scale(0.1 -0.1)">
      <defs>
       <path id="DejaVuSans-2b" d="M 2944 4013 
L 2944 2272 
L 4684 2272 
L 4684 1741 
L 2944 1741 
L 2944 0 
L 2419 0 
L 2419 1741 
L 678 1741 
L 678 2272 
L 2419 2272 
L 2419 4013 
L 2944 4013 
z
" transform="scale(0.015625)"/>
       <path id="DejaVuSans-53" d="M 3425 4513 
L 3425 3897 
Q 3066 4069 2747 4153 
Q 2428 4238 2131 4238 
Q 1616 4238 1336 4038 
Q 1056 3838 1056 3469 
Q 1056 3159 1242 3001 
Q 1428 2844 1947 2747 
L 2328 2669 
Q 3034 2534 3370 2195 
Q 3706 1856 3706 1288 
Q 3706 609 3251 259 
Q 2797 -91 1919 -91 
Q 1588 -91 1214 -16 
Q 841 59 441 206 
L 441 856 
Q 825 641 1194 531 
Q 1563 422 1919 422 
Q 2459 422 2753 634 
Q 3047 847 3047 1241 
Q 3047 1584 2836 1778 
Q 2625 1972 2144 2069 
L 1759 2144 
Q 1053 2284 737 2584 
Q 422 2884 422 3419 
Q 422 4038 858 4394 
Q 1294 4750 2059 4750 
Q 2388 4750 2728 4690 
Q 3069 4631 3425 4513 
z
" transform="scale(0.015625)"/>
       <path id="DejaVuSans-4e" d="M 628 4666 
L 1478 4666 
L 3547 763 
L 3547 4666 
L 4159 4666 
L 4159 0 
L 3309 0 
L 1241 3903 
L 1241 0 
L 628 0 
L 628 4666 
z
" transform="scale(0.015625)"/>
      </defs>
      <use xlink:href="#DejaVuSans-56"/>
      <use xlink:href="#DejaVuSans-69" x="66.158203"/>
      <use xlink:href="#DejaVuSans-64" x="93.941406"/>
      <use xlink:href="#DejaVuSans-75" x="157.417969"/>
      <use xlink:href="#DejaVuSans-72" x="220.796875"/>
      <use xlink:href="#DejaVuSans-6b" x="261.910156"/>
      <use xlink:href="#DejaVuSans-69" x="319.820312"/>
      <use xlink:href="#DejaVuSans-73" x="347.603516"/>
      <use xlink:href="#DejaVuSans-20" x="399.703125"/>
      <use xlink:href="#DejaVuSans-2b" x="431.490234"/>
      <use xlink:href="#DejaVuSans-20" x="515.279297"/>
      <use xlink:href="#DejaVuSans-31" x="547.066406"/>
      <use xlink:href="#DejaVuSans-20" x="610.689453"/>
      <use xlink:href="#DejaVuSans-53" x="642.476562"/>
      <use xlink:href="#DejaVuSans-4e" x="705.953125"/>
     </g>
    </g>
    <g id="line2d_21">
     <path d="M 623.206875 49.654687 
L 633.206875 49.654687 
L 643.206875 49.654687 
" style="fill: none; stroke-dasharray: 5.18,2.24; stroke-dashoffset: 0; stroke: #0d1530; stroke-width: 1.4"/>
    </g>
    <g id="text_20">
     <!-- Vidurkis - 1 SN -->
     <g style="fill: #222222" transform="translate(651.206875 53.154687) scale(0.1 -0.1)">
      <defs>
       <path id="DejaVuSans-2d" d="M 313 2009 
L 1997 2009 
L 1997 1497 
L 313 1497 
L 313 2009 
z
" transform="scale(0.015625)"/>
      </defs>
      <use xlink:href="#DejaVuSans-56"/>
      <use xlink:href="#DejaVuSans-69" x="66.158203"/>
      <use xlink:href="#DejaVuSans-64" x="93.941406"/>
      <use xlink:href="#DejaVuSans-75" x="157.417969"/>
      <use xlink:href="#DejaVuSans-72" x="220.796875"/>
      <use xlink:href="#DejaVuSans-6b" x="261.910156"/>
      <use xlink:href="#DejaVuSans-69" x="319.820312"/>
      <use xlink:href="#DejaVuSans-73" x="347.603516"/>
      <use xlink:href="#DejaVuSans-20" x="399.703125"/>
      <use xlink:href="#DejaVuSans-2d" x="431.490234"/>
      <use xlink:href="#DejaVuSans-20" x="467.574219"/>
      <use xlink:href="#DejaVuSans-31" x="499.361328"/>
      <use xlink:href="#DejaVuSans-20" x="562.984375"/>
      <use xlink:href="#DejaVuSans-53" x="594.771484"/>
      <use xlink:href="#DejaVuSans-4e" x="658.248047"/>
     </g>
    </g>
   </g>
  </g>
 </g>
 <defs>
  <clipPath id="pc570cfc8f7">
   <rect x="58.441875" y="7.2" width="679.84" height="359.8"/>
  </clipPath>
 </defs>
</svg>
