<?xml version="1.0" encoding="utf-8" standalone="no"?>
<!DOCTYPE svg PUBLIC "-//W3C//DTD SVG 1.1//EN"
  "http://www.w3.org/Graphics/SVG/1.1/DTD/svg11.dtd">
<svg xmlns:xlink="http://www.w3.org/1999/xlink" width="745.674062pt" height="406.491875pt" viewBox="0 0 745.674062 406.491875" xmlns="http://www.w3.org/2000/svg" version="1.1">
 <metadata>
  <rdf:RDF xmlns:dc="http://purl.org/dc/elements/1.1/" xmlns:cc="http://creativecommons.org/ns#" xmlns:rdf="http://www.w3.org/1999/02/22-rdf-syntax-ns#">
   <cc:Work>
    <dc:type rdf:resource="http://purl.org/dc/dcmitype/StillImage"/>
    <dc:date>2026-04-26T14:38:52.037941</dc:date>
    <dc:format>image/svg+xml</dc:format>
    <dc:creator>
     <cc:Agent>
      <dc:title>Matplotlib v3.8.0, https://matplotlib.org/</dc:title>
     </cc:Agent>
    </dc:creator>
   </cc:Work>
  </rdf:RDF>
 </metadata>
 <defs>
  <style type="text/css">*{stroke-linejoin: round; stroke-linecap: butt}</style>
 </defs>
 <g id="figure_1">
  <g id="patch_1">
   <path d="M 0 406.491875 
L 745.674062 406.491875 
L 745.674062 0 
L 0 0 
z
" style="fill: #ffffff"/>
  </g>
  <g id="axes_1">
   <g id="patch_2">
    <path d="M 73.664063 367 
L 738.474062 367 
L 738.474062 7.2 
L 73.664063 7.2 
z
" style="fill: #ffffff"/>
   </g>
   <g id="matplotlib.axis_1">
    <g id="xtick_1">
     <g id="line2d_1">
      <defs>
       <path id="m93230adb39" d="M 0 0 
L 0 3.5 
" style="stroke: #222222; stroke-width: 0.8"/>
      </defs>
      <g>
       <use xlink:href="#m93230adb39" x="160.432194" y="367" style="fill: #222222; stroke: #222222; stroke-width: 0.8"/>
      </g>
     </g>
     <g id="text_1">
      <!-- 400 -->
      <g style="fill: #222222" transform="translate(150.888444 381.598437) scale(0.1 -0.1)">
       <defs>
        <path id="DejaVuSans-34" d="M 2419 4116 
L 825 1625 
L 2419 1625 
L 2419 4116 
z
M 2253 4666 
L 3047 4666 
L 3047 1625 
L 3713 1625 
L 3713 1100 
L 3047 1100 
L 3047 0 
L 2419 0 
L 2419 1100 
L 313 1100 
L 313 1709 
L 2253 4666 
z
" transform="scale(0.015625)"/>
        <path id="DejaVuSans-30" d="M 2034 4250 
Q 1547 4250 1301 3770 
Q 1056 3291 1056 2328 
Q 1056 1369 1301 889 
Q 1547 409 2034 409 
Q 2525 409 2770 889 
Q 3016 1369 3016 2328 
Q 3016 3291 2770 3770 
Q 2525 4250 2034 4250 
z
M 2034 4750 
Q 2819 4750 3233 4129 
Q 3647 3509 3647 2328 
Q 3647 1150 3233 529 
Q 2819 -91 2034 -91 
Q 1250 -91 836 529 
Q 422 1150 422 2328 
Q 422 3509 836 4129 
Q 1250 4750 2034 4750 
z
" transform="scale(0.015625)"/>
       </defs>
       <use xlink:href="#DejaVuSans-34"/>
       <use xlink:href="#DejaVuSans-30" x="63.623047"/>
       <use xlink:href="#DejaVuSans-30" x="127.246094"/>
      </g>
     </g>
    </g>
    <g id="xtick_2">
     <g id="line2d_2">
      <g>
       <use xlink:href="#m93230adb39" x="248.79078" y="367" style="fill: #222222; stroke: #222222; stroke-width: 0.8"/>
      </g>
     </g>
     <g id="text_2">
      <!-- 500 -->
      <g style="fill: #222222" transform="translate(239.24703 381.598437) scale(0.1 -0.1)">
       <defs>
        <path id="DejaVuSans-35" d="M 691 4666 
L 3169 4666 
L 3169 4134 
L 1269 4134 
L 1269 2991 
Q 1406 3038 1543 3061 
Q 1681 3084 1819 3084 
Q 2600 3084 3056 2656 
Q 3513 2228 3513 1497 
Q 3513 744 3044 326 
Q 2575 -91 1722 -91 
Q 1428 -91 1123 -41 
Q 819 9 494 109 
L 494 744 
Q 775 591 1075 516 
Q 1375 441 1709 441 
Q 2250 441 2565 725 
Q 2881 1009 2881 1497 
Q 2881 1984 2565 2268 
Q 2250 2553 1709 2553 
Q 1456 2553 1204 2497 
Q 953 2441 691 2322 
L 691 4666 
z
" transform="scale(0.015625)"/>
       </defs>
       <use xlink:href="#DejaVuSans-35"/>
       <use xlink:href="#DejaVuSans-30" x="63.623047"/>
       <use xlink:href="#DejaVuSans-30" x="127.246094"/>
      </g>
     </g>
    </g>
    <g id="xtick_3">
     <g id="line2d_3">
      <g>
       <use xlink:href="#m93230adb39" x="337.149366" y="367" style="fill: #222222; stroke: #222222; stroke-width: 0.8"/>
      </g>
     </g>
     <g id="text_3">
      <!-- 600 -->
      <g style="fill: #222222" transform="translate(327.605616 381.598437) scale(0.1 -0.1)">
       <defs>
        <path id="DejaVuSans-36" d="M 2113 2584 
Q 1688 2584 1439 2293 
Q 1191 2003 1191 1497 
Q 1191 994 1439 701 
Q 1688 409 2113 409 
Q 2538 409 2786 701 
Q 3034 994 3034 1497 
Q 3034 2003 2786 2293 
Q 2538 2584 2113 2584 
z
M 3366 4563 
L 3366 3988 
Q 3128 4100 2886 4159 
Q 2644 4219 2406 4219 
Q 1781 4219 1451 3797 
Q 1122 3375 1075 2522 
Q 1259 2794 1537 2939 
Q 1816 3084 2150 3084 
Q 2853 3084 3261 2657 
Q 3669 2231 3669 1497 
Q 3669 778 3244 343 
Q 2819 -91 2113 -91 
Q 1303 -91 875 529 
Q 447 1150 447 2328 
Q 447 3434 972 4092 
Q 1497 4750 2381 4750 
Q 2619 4750 2861 4703 
Q 3103 4656 3366 4563 
z
" transform="scale(0.015625)"/>
       </defs>
       <use xlink:href="#DejaVuSans-36"/>
       <use xlink:href="#DejaVuSans-30" x="63.623047"/>
       <use xlink:href="#DejaVuSans-30" x="127.246094"/>
      </g>
     </g>
    </g>
    <g id="xtick_4">
     <g id="line2d_4">
      <g>
       <use xlink:href="#m93230adb39" x="425.507951" y="367" style="fill: #222222; stroke: #222222; stroke-width: 0.8"/>
      </g>
     </g>
     <g id="text_4">
      <!-- 700 -->
      <g style="fill: #222222" transform="translate(415.964201 381.598437) scale(0.1 -0.1)">
       <defs>
        <path id="DejaVuSans-37" d="M 525 4666 
L 3525 4666 
L 3525 4397 
L 1831 0 
L 1172 0 
L 2766 4134 
L 525 4134 
L 525 4666 
z
" transform="scale(0.015625)"/>
       </defs>
       <use xlink:href="#DejaVuSans-37"/>
       <use xlink:href="#DejaVuSans-30" x="63.623047"/>
       <use xlink:href="#DejaVuSans-30" x="127.246094"/>
      </g>
     </g>
    </g>
    <g id="xtick_5">
     <g id="line2d_5">
      <g>
       <use xlink:href="#m93230adb39" x="513.866537" y="367" style="fill: #222222; stroke: #222222; stroke-width: 0.8"/>
      </g>
     </g>
     <g id="text_5">
      <!-- 800 -->
      <g style="fill: #222222" transform="translate(504.322787 381.598437) scale(0.1 -0.1)">
       <defs>
        <path id="DejaVuSans-38" d="M 2034 2216 
Q 1584 2216 1326 1975 
Q 1069 1734 1069 1313 
Q 1069 891 1326 650 
Q 1584 409 2034 409 
Q 2484 409 2743 651 
Q 3003 894 3003 1313 
Q 3003 1734 2745 1975 
Q 2488 2216 2034 2216 
z
M 1403 2484 
Q 997 2584 770 2862 
Q 544 3141 544 3541 
Q 544 4100 942 4425 
Q 1341 4750 2034 4750 
Q 2731 4750 3128 4425 
Q 3525 4100 3525 3541 
Q 3525 3141 3298 2862 
Q 3072 2584 2669 2484 
Q 3125 2378 3379 2068 
Q 3634 1759 3634 1313 
Q 3634 634 3220 271 
Q 2806 -91 2034 -91 
Q 1263 -91 848 271 
Q 434 634 434 1313 
Q 434 1759 690 2068 
Q 947 2378 1403 2484 
z
M 1172 3481 
Q 1172 3119 1398 2916 
Q 1625 2713 2034 2713 
Q 2441 2713 2670 2916 
Q 2900 3119 2900 3481 
Q 2900 3844 2670 4047 
Q 2441 4250 2034 4250 
Q 1625 4250 1398 4047 
Q 1172 3844 1172 3481 
z
" transform="scale(0.015625)"/>
       </defs>
       <use xlink:href="#DejaVuSans-38"/>
       <use xlink:href="#DejaVuSans-30" x="63.623047"/>
       <use xlink:href="#DejaVuSans-30" x="127.246094"/>
      </g>
     </g>
    </g>
    <g id="xtick_6">
     <g id="line2d_6">
      <g>
       <use xlink:href="#m93230adb39" x="602.225123" y="367" style="fill: #222222; stroke: #222222; stroke-width: 0.8"/>
      </g>
     </g>
     <g id="text_6">
      <!-- 900 -->
      <g style="fill: #222222" transform="translate(592.681373 381.598437) scale(0.1 -0.1)">
       <defs>
        <path id="DejaVuSans-39" d="M 703 97 
L 703 672 
Q 941 559 1184 500 
Q 1428 441 1663 441 
Q 2288 441 2617 861 
Q 2947 1281 2994 2138 
Q 2813 1869 2534 1725 
Q 2256 1581 1919 1581 
Q 1219 1581 811 2004 
Q 403 2428 403 3163 
Q 403 3881 828 4315 
Q 1253 4750 1959 4750 
Q 2769 4750 3195 4129 
Q 3622 3509 3622 2328 
Q 3622 1225 3098 567 
Q 2575 -91 1691 -91 
Q 1453 -91 1209 -44 
Q 966 3 703 97 
z
M 1959 2075 
Q 2384 2075 2632 2365 
Q 2881 2656 2881 3163 
Q 2881 3666 2632 3958 
Q 2384 4250 1959 4250 
Q 1534 4250 1286 3958 
Q 1038 3666 1038 3163 
Q 1038 2656 1286 2365 
Q 1534 2075 1959 2075 
z
" transform="scale(0.015625)"/>
       </defs>
       <use xlink:href="#DejaVuSans-39"/>
       <use xlink:href="#DejaVuSans-30" x="63.623047"/>
       <use xlink:href="#DejaVuSans-30" x="127.246094"/>
      </g>
     </g>
    </g>
    <g id="xtick_7">
     <g id="line2d_7">
      <g>
       <use xlink:href="#m93230adb39" x="690.583709" y="367" style="fill: #222222; stroke: #222222; stroke-width: 0.8"/>
      </g>
     </g>
     <g id="text_7">
      <!-- 1000 -->
      <g style="fill: #222222" transform="translate(677.858709 381.598437) scale(0.1 -0.1)">
       <defs>
        <path id="DejaVuSans-31" d="M 794 531 
L 1825 531 
L 1825 4091 
L 703 3866 
L 703 4441 
L 1819 4666 
L 2450 4666 
L 2450 531 
L 3481 531 
L 3481 0 
L 794 0 
L 794 531 
z
" transform="scale(0.015625)"/>
       </defs>
       <use xlink:href="#DejaVuSans-31"/>
       <use xlink:href="#DejaVuSans-30" x="63.623047"/>
       <use xlink:href="#DejaVuSans-30" x="127.246094"/>
       <use xlink:href="#DejaVuSans-30" x="190.869141"/>
      </g>
     </g>
    </g>
    <g id="text_8">
     <!-- Bangos ilgis, nm -->
     <g style="fill: #222222" transform="translate(356.564375 396.79625) scale(0.12 -0.12)">
      <defs>
       <path id="DejaVuSans-42" d="M 1259 2228 
L 1259 519 
L 2272 519 
Q 2781 519 3026 730 
Q 3272 941 3272 1375 
Q 3272 1813 3026 2020 
Q 2781 2228 2272 2228 
L 1259 2228 
z
M 1259 4147 
L 1259 2741 
L 2194 2741 
Q 2656 2741 2882 2914 
Q 3109 3088 3109 3444 
Q 3109 3797 2882 3972 
Q 2656 4147 2194 4147 
L 1259 4147 
z
M 628 4666 
L 2241 4666 
Q 2963 4666 3353 4366 
Q 3744 4066 3744 3513 
Q 3744 3084 3544 2831 
Q 3344 2578 2956 2516 
Q 3422 2416 3680 2098 
Q 3938 1781 3938 1306 
Q 3938 681 3513 340 
Q 3088 0 2303 0 
L 628 0 
L 628 4666 
z
" transform="scale(0.015625)"/>
       <path id="DejaVuSans-61" d="M 2194 1759 
Q 1497 1759 1228 1600 
Q 959 1441 959 1056 
Q 959 750 1161 570 
Q 1363 391 1709 391 
Q 2188 391 2477 730 
Q 2766 1069 2766 1631 
L 2766 1759 
L 2194 1759 
z
M 3341 1997 
L 3341 0 
L 2766 0 
L 2766 531 
Q 2569 213 2275 61 
Q 1981 -91 1556 -91 
Q 1019 -91 701 211 
Q 384 513 384 1019 
Q 384 1609 779 1909 
Q 1175 2209 1959 2209 
L 2766 2209 
L 2766 2266 
Q 2766 2663 2505 2880 
Q 2244 3097 1772 3097 
Q 1472 3097 1187 3025 
Q 903 2953 641 2809 
L 641 3341 
Q 956 3463 1253 3523 
Q 1550 3584 1831 3584 
Q 2591 3584 2966 3190 
Q 3341 2797 3341 1997 
z
" transform="scale(0.015625)"/>
       <path id="DejaVuSans-6e" d="M 3513 2113 
L 3513 0 
L 2938 0 
L 2938 2094 
Q 2938 2591 2744 2837 
Q 2550 3084 2163 3084 
Q 1697 3084 1428 2787 
Q 1159 2491 1159 1978 
L 1159 0 
L 581 0 
L 581 3500 
L 1159 3500 
L 1159 2956 
Q 1366 3272 1645 3428 
Q 1925 3584 2291 3584 
Q 2894 3584 3203 3211 
Q 3513 2838 3513 2113 
z
" transform="scale(0.015625)"/>
       <path id="DejaVuSans-67" d="M 2906 1791 
Q 2906 2416 2648 2759 
Q 2391 3103 1925 3103 
Q 1463 3103 1205 2759 
Q 947 2416 947 1791 
Q 947 1169 1205 825 
Q 1463 481 1925 481 
Q 2391 481 2648 825 
Q 2906 1169 2906 1791 
z
M 3481 434 
Q 3481 -459 3084 -895 
Q 2688 -1331 1869 -1331 
Q 1566 -1331 1297 -1286 
Q 1028 -1241 775 -1147 
L 775 -588 
Q 1028 -725 1275 -790 
Q 1522 -856 1778 -856 
Q 2344 -856 2625 -561 
Q 2906 -266 2906 331 
L 2906 616 
Q 2728 306 2450 153 
Q 2172 0 1784 0 
Q 1141 0 747 490 
Q 353 981 353 1791 
Q 353 2603 747 3093 
Q 1141 3584 1784 3584 
Q 2172 3584 2450 3431 
Q 2728 3278 2906 2969 
L 2906 3500 
L 3481 3500 
L 3481 434 
z
" transform="scale(0.015625)"/>
       <path id="DejaVuSans-6f" d="M 1959 3097 
Q 1497 3097 1228 2736 
Q 959 2375 959 1747 
Q 959 1119 1226 758 
Q 1494 397 1959 397 
Q 2419 397 2687 759 
Q 2956 1122 2956 1747 
Q 2956 2369 2687 2733 
Q 2419 3097 1959 3097 
z
M 1959 3584 
Q 2709 3584 3137 3096 
Q 3566 2609 3566 1747 
Q 3566 888 3137 398 
Q 2709 -91 1959 -91 
Q 1206 -91 779 398 
Q 353 888 353 1747 
Q 353 2609 779 3096 
Q 1206 3584 1959 3584 
z
" transform="scale(0.015625)"/>
       <path id="DejaVuSans-73" d="M 2834 3397 
L 2834 2853 
Q 2591 2978 2328 3040 
Q 2066 3103 1784 3103 
Q 1356 3103 1142 2972 
Q 928 2841 928 2578 
Q 928 2378 1081 2264 
Q 1234 2150 1697 2047 
L 1894 2003 
Q 2506 1872 2764 1633 
Q 3022 1394 3022 966 
Q 3022 478 2636 193 
Q 2250 -91 1575 -91 
Q 1294 -91 989 -36 
Q 684 19 347 128 
L 347 722 
Q 666 556 975 473 
Q 1284 391 1588 391 
Q 1994 391 2212 530 
Q 2431 669 2431 922 
Q 2431 1156 2273 1281 
Q 2116 1406 1581 1522 
L 1381 1569 
Q 847 1681 609 1914 
Q 372 2147 372 2553 
Q 372 3047 722 3315 
Q 1072 3584 1716 3584 
Q 2034 3584 2315 3537 
Q 2597 3491 2834 3397 
z
" transform="scale(0.015625)"/>
       <path id="DejaVuSans-20" transform="scale(0.015625)"/>
       <path id="DejaVuSans-69" d="M 603 3500 
L 1178 3500 
L 1178 0 
L 603 0 
L 603 3500 
z
M 603 4863 
L 1178 4863 
L 1178 4134 
L 603 4134 
L 603 4863 
z
" transform="scale(0.015625)"/>
       <path id="DejaVuSans-6c" d="M 603 4863 
L 1178 4863 
L 1178 0 
L 603 0 
L 603 4863 
z
" transform="scale(0.015625)"/>
       <path id="DejaVuSans-2c" d="M 750 794 
L 1409 794 
L 1409 256 
L 897 -744 
L 494 -744 
L 750 256 
L 750 794 
z
" transform="scale(0.015625)"/>
       <path id="DejaVuSans-6d" d="M 3328 2828 
Q 3544 3216 3844 3400 
Q 4144 3584 4550 3584 
Q 5097 3584 5394 3201 
Q 5691 2819 5691 2113 
L 5691 0 
L 5113 0 
L 5113 2094 
Q 5113 2597 4934 2840 
Q 4756 3084 4391 3084 
Q 3944 3084 3684 2787 
Q 3425 2491 3425 1978 
L 3425 0 
L 2847 0 
L 2847 2094 
Q 2847 2600 2669 2842 
Q 2491 3084 2119 3084 
Q 1678 3084 1418 2786 
Q 1159 2488 1159 1978 
L 1159 0 
L 581 0 
L 581 3500 
L 1159 3500 
L 1159 2956 
Q 1356 3278 1631 3431 
Q 1906 3584 2284 3584 
Q 2666 3584 2933 3390 
Q 3200 3197 3328 2828 
z
" transform="scale(0.015625)"/>
      </defs>
      <use xlink:href="#DejaVuSans-42"/>
      <use xlink:href="#DejaVuSans-61" x="68.603516"/>
      <use xlink:href="#DejaVuSans-6e" x="129.882812"/>
      <use xlink:href="#DejaVuSans-67" x="193.261719"/>
      <use xlink:href="#DejaVuSans-6f" x="256.738281"/>
      <use xlink:href="#DejaVuSans-73" x="317.919922"/>
      <use xlink:href="#DejaVuSans-20" x="370.019531"/>
      <use xlink:href="#DejaVuSans-69" x="401.806641"/>
      <use xlink:href="#DejaVuSans-6c" x="429.589844"/>
      <use xlink:href="#DejaVuSans-67" x="457.373047"/>
      <use xlink:href="#DejaVuSans-69" x="520.849609"/>
      <use xlink:href="#DejaVuSans-73" x="548.632812"/>
      <use xlink:href="#DejaVuSans-2c" x="600.732422"/>
      <use xlink:href="#DejaVuSans-20" x="632.519531"/>
      <use xlink:href="#DejaVuSans-6e" x="664.306641"/>
      <use xlink:href="#DejaVuSans-6d" x="727.685547"/>
     </g>
    </g>
   </g>
   <g id="matplotlib.axis_2">
    <g id="ytick_1">
     <g id="line2d_8">
      <defs>
       <path id="ma62f8a6367" d="M 0 0 
L -3.5 0 
" style="stroke: #222222; stroke-width: 0.8"/>
      </defs>
      <g>
       <use xlink:href="#ma62f8a6367" x="73.664063" y="331.719119" style="fill: #222222; stroke: #222222; stroke-width: 0.8"/>
      </g>
     </g>
     <g id="text_9">
      <!-- −0.0020 -->
      <g style="fill: #222222" transform="translate(23.29375 335.518338) scale(0.1 -0.1)">
       <defs>
        <path id="DejaVuSans-2212" d="M 678 2272 
L 4684 2272 
L 4684 1741 
L 678 1741 
L 678 2272 
z
" transform="scale(0.015625)"/>
        <path id="DejaVuSans-2e" d="M 684 794 
L 1344 794 
L 1344 0 
L 684 0 
L 684 794 
z
" transform="scale(0.015625)"/>
        <path id="DejaVuSans-32" d="M 1228 531 
L 3431 531 
L 3431 0 
L 469 0 
L 469 531 
Q 828 903 1448 1529 
Q 2069 2156 2228 2338 
Q 2531 2678 2651 2914 
Q 2772 3150 2772 3378 
Q 2772 3750 2511 3984 
Q 2250 4219 1831 4219 
Q 1534 4219 1204 4116 
Q 875 4013 500 3803 
L 500 4441 
Q 881 4594 1212 4672 
Q 1544 4750 1819 4750 
Q 2544 4750 2975 4387 
Q 3406 4025 3406 3419 
Q 3406 3131 3298 2873 
Q 3191 2616 2906 2266 
Q 2828 2175 2409 1742 
Q 1991 1309 1228 531 
z
" transform="scale(0.015625)"/>
       </defs>
       <use xlink:href="#DejaVuSans-2212"/>
       <use xlink:href="#DejaVuSans-30" x="83.789062"/>
       <use xlink:href="#DejaVuSans-2e" x="147.412109"/>
       <use xlink:href="#DejaVuSans-30" x="179.199219"/>
       <use xlink:href="#DejaVuSans-30" x="242.822266"/>
       <use xlink:href="#DejaVuSans-32" x="306.445312"/>
       <use xlink:href="#DejaVuSans-30" x="370.068359"/>
      </g>
     </g>
    </g>
    <g id="ytick_2">
     <g id="line2d_9">
      <g>
       <use xlink:href="#ma62f8a6367" x="73.664063" y="282.029263" style="fill: #222222; stroke: #222222; stroke-width: 0.8"/>
      </g>
     </g>
     <g id="text_10">
      <!-- −0.0015 -->
      <g style="fill: #222222" transform="translate(23.29375 285.828481) scale(0.1 -0.1)">
       <use xlink:href="#DejaVuSans-2212"/>
       <use xlink:href="#DejaVuSans-30" x="83.789062"/>
       <use xlink:href="#DejaVuSans-2e" x="147.412109"/>
       <use xlink:href="#DejaVuSans-30" x="179.199219"/>
       <use xlink:href="#DejaVuSans-30" x="242.822266"/>
       <use xlink:href="#DejaVuSans-31" x="306.445312"/>
       <use xlink:href="#DejaVuSans-35" x="370.068359"/>
      </g>
     </g>
    </g>
    <g id="ytick_3">
     <g id="line2d_10">
      <g>
       <use xlink:href="#ma62f8a6367" x="73.664063" y="232.339406" style="fill: #222222; stroke: #222222; stroke-width: 0.8"/>
      </g>
     </g>
     <g id="text_11">
      <!-- −0.0010 -->
      <g style="fill: #222222" transform="translate(23.29375 236.138625) scale(0.1 -0.1)">
       <use xlink:href="#DejaVuSans-2212"/>
       <use xlink:href="#DejaVuSans-30" x="83.789062"/>
       <use xlink:href="#DejaVuSans-2e" x="147.412109"/>
       <use xlink:href="#DejaVuSans-30" x="179.199219"/>
       <use xlink:href="#DejaVuSans-30" x="242.822266"/>
       <use xlink:href="#DejaVuSans-31" x="306.445312"/>
       <use xlink:href="#DejaVuSans-30" x="370.068359"/>
      </g>
     </g>
    </g>
    <g id="ytick_4">
     <g id="line2d_11">
      <g>
       <use xlink:href="#ma62f8a6367" x="73.664063" y="182.649549" style="fill: #222222; stroke: #222222; stroke-width: 0.8"/>
      </g>
     </g>
     <g id="text_12">
      <!-- −0.0005 -->
      <g style="fill: #222222" transform="translate(23.29375 186.448768) scale(0.1 -0.1)">
       <use xlink:href="#DejaVuSans-2212"/>
       <use xlink:href="#DejaVuSans-30" x="83.789062"/>
       <use xlink:href="#DejaVuSans-2e" x="147.412109"/>
       <use xlink:href="#DejaVuSans-30" x="179.199219"/>
       <use xlink:href="#DejaVuSans-30" x="242.822266"/>
       <use xlink:href="#DejaVuSans-30" x="306.445312"/>
       <use xlink:href="#DejaVuSans-35" x="370.068359"/>
      </g>
     </g>
    </g>
    <g id="ytick_5">
     <g id="line2d_12">
      <g>
       <use xlink:href="#ma62f8a6367" x="73.664063" y="132.959693" style="fill: #222222; stroke: #222222; stroke-width: 0.8"/>
      </g>
     </g>
     <g id="text_13">
      <!-- 0.0000 -->
      <g style="fill: #222222" transform="translate(31.673438 136.758912) scale(0.1 -0.1)">
       <use xlink:href="#DejaVuSans-30"/>
       <use xlink:href="#DejaVuSans-2e" x="63.623047"/>
       <use xlink:href="#DejaVuSans-30" x="95.410156"/>
       <use xlink:href="#DejaVuSans-30" x="159.033203"/>
       <use xlink:href="#DejaVuSans-30" x="222.65625"/>
       <use xlink:href="#DejaVuSans-30" x="286.279297"/>
      </g>
     </g>
    </g>
    <g id="ytick_6">
     <g id="line2d_13">
      <g>
       <use xlink:href="#ma62f8a6367" x="73.664063" y="83.269836" style="fill: #222222; stroke: #222222; stroke-width: 0.8"/>
      </g>
     </g>
     <g id="text_14">
      <!-- 0.0005 -->
      <g style="fill: #222222" transform="translate(31.673438 87.069055) scale(0.1 -0.1)">
       <use xlink:href="#DejaVuSans-30"/>
       <use xlink:href="#DejaVuSans-2e" x="63.623047"/>
       <use xlink:href="#DejaVuSans-30" x="95.410156"/>
       <use xlink:href="#DejaVuSans-30" x="159.033203"/>
       <use xlink:href="#DejaVuSans-30" x="222.65625"/>
       <use xlink:href="#DejaVuSans-35" x="286.279297"/>
      </g>
     </g>
    </g>
    <g id="ytick_7">
     <g id="line2d_14">
      <g>
       <use xlink:href="#ma62f8a6367" x="73.664063" y="33.57998" style="fill: #222222; stroke: #222222; stroke-width: 0.8"/>
      </g>
     </g>
     <g id="text_15">
      <!-- 0.0010 -->
      <g style="fill: #222222" transform="translate(31.673438 37.379199) scale(0.1 -0.1)">
       <use xlink:href="#DejaVuSans-30"/>
       <use xlink:href="#DejaVuSans-2e" x="63.623047"/>
       <use xlink:href="#DejaVuSans-30" x="95.410156"/>
       <use xlink:href="#DejaVuSans-30" x="159.033203"/>
       <use xlink:href="#DejaVuSans-31" x="222.65625"/>
       <use xlink:href="#DejaVuSans-30" x="286.279297"/>
      </g>
     </g>
    </g>
    <g id="text_16">
     <!-- Pirmoji išvestinė -->
     <g style="fill: #222222" transform="translate(16.798125 236.042187) rotate(-90) scale(0.12 -0.12)">
      <defs>
       <path id="DejaVuSans-50" d="M 1259 4147 
L 1259 2394 
L 2053 2394 
Q 2494 2394 2734 2622 
Q 2975 2850 2975 3272 
Q 2975 3691 2734 3919 
Q 2494 4147 2053 4147 
L 1259 4147 
z
M 628 4666 
L 2053 4666 
Q 2838 4666 3239 4311 
Q 3641 3956 3641 3272 
Q 3641 2581 3239 2228 
Q 2838 1875 2053 1875 
L 1259 1875 
L 1259 0 
L 628 0 
L 628 4666 
z
" transform="scale(0.015625)"/>
       <path id="DejaVuSans-72" d="M 2631 2963 
Q 2534 3019 2420 3045 
Q 2306 3072 2169 3072 
Q 1681 3072 1420 2755 
Q 1159 2438 1159 1844 
L 1159 0 
L 581 0 
L 581 3500 
L 1159 3500 
L 1159 2956 
Q 1341 3275 1631 3429 
Q 1922 3584 2338 3584 
Q 2397 3584 2469 3576 
Q 2541 3569 2628 3553 
L 2631 2963 
z
" transform="scale(0.015625)"/>
       <path id="DejaVuSans-6a" d="M 603 3500 
L 1178 3500 
L 1178 -63 
Q 1178 -731 923 -1031 
Q 669 -1331 103 -1331 
L -116 -1331 
L -116 -844 
L 38 -844 
Q 366 -844 484 -692 
Q 603 -541 603 -63 
L 603 3500 
z
M 603 4863 
L 1178 4863 
L 1178 4134 
L 603 4134 
L 603 4863 
z
" transform="scale(0.015625)"/>
       <path id="DejaVuSans-161" d="M 2834 3397 
L 2834 2853 
Q 2591 2978 2328 3040 
Q 2066 3103 1784 3103 
Q 1356 3103 1142 2972 
Q 928 2841 928 2578 
Q 928 2378 1081 2264 
Q 1234 2150 1697 2047 
L 1894 2003 
Q 2506 1872 2764 1633 
Q 3022 1394 3022 966 
Q 3022 478 2636 193 
Q 2250 -91 1575 -91 
Q 1294 -91 989 -36 
Q 684 19 347 128 
L 347 722 
Q 666 556 975 473 
Q 1284 391 1588 391 
Q 1994 391 2212 530 
Q 2431 669 2431 922 
Q 2431 1156 2273 1281 
Q 2116 1406 1581 1522 
L 1381 1569 
Q 847 1681 609 1914 
Q 372 2147 372 2553 
Q 372 3047 722 3315 
Q 1072 3584 1716 3584 
Q 2034 3584 2315 3537 
Q 2597 3491 2834 3397 
z
M 1501 3944 
L 736 5119 
L 1170 5119 
L 1733 4353 
L 2295 5119 
L 2729 5119 
L 1964 3944 
L 1501 3944 
z
M 1720 3584 
L 1720 3584 
z
" transform="scale(0.015625)"/>
       <path id="DejaVuSans-76" d="M 191 3500 
L 800 3500 
L 1894 563 
L 2988 3500 
L 3597 3500 
L 2284 0 
L 1503 0 
L 191 3500 
z
" transform="scale(0.015625)"/>
       <path id="DejaVuSans-65" d="M 3597 1894 
L 3597 1613 
L 953 1613 
Q 991 1019 1311 708 
Q 1631 397 2203 397 
Q 2534 397 2845 478 
Q 3156 559 3463 722 
L 3463 178 
Q 3153 47 2828 -22 
Q 2503 -91 2169 -91 
Q 1331 -91 842 396 
Q 353 884 353 1716 
Q 353 2575 817 3079 
Q 1281 3584 2069 3584 
Q 2775 3584 3186 3129 
Q 3597 2675 3597 1894 
z
M 3022 2063 
Q 3016 2534 2758 2815 
Q 2500 3097 2075 3097 
Q 1594 3097 1305 2825 
Q 1016 2553 972 2059 
L 3022 2063 
z
" transform="scale(0.015625)"/>
       <path id="DejaVuSans-74" d="M 1172 4494 
L 1172 3500 
L 2356 3500 
L 2356 3053 
L 1172 3053 
L 1172 1153 
Q 1172 725 1289 603 
Q 1406 481 1766 481 
L 2356 481 
L 2356 0 
L 1766 0 
Q 1100 0 847 248 
Q 594 497 594 1153 
L 594 3053 
L 172 3053 
L 172 3500 
L 594 3500 
L 594 4494 
L 1172 4494 
z
" transform="scale(0.015625)"/>
       <path id="DejaVuSans-117" d="M 1778 4863 
L 2353 4863 
L 2353 4134 
L 1778 4134 
L 1778 4863 
z
M 2072 3584 
L 2072 3584 
z
M 3597 1894 
L 3597 1613 
L 953 1613 
Q 991 1019 1311 708 
Q 1631 397 2203 397 
Q 2534 397 2845 478 
Q 3156 559 3463 722 
L 3463 178 
Q 3153 47 2828 -22 
Q 2503 -91 2169 -91 
Q 1331 -91 842 396 
Q 353 884 353 1716 
Q 353 2575 817 3079 
Q 1281 3584 2069 3584 
Q 2775 3584 3186 3129 
Q 3597 2675 3597 1894 
z
M 3022 2063 
Q 3016 2534 2758 2815 
Q 2500 3097 2075 3097 
Q 1594 3097 1305 2825 
Q 1016 2553 972 2059 
L 3022 2063 
z
" transform="scale(0.015625)"/>
      </defs>
      <use xlink:href="#DejaVuSans-50"/>
      <use xlink:href="#DejaVuSans-69" x="58.052734"/>
      <use xlink:href="#DejaVuSans-72" x="85.835938"/>
      <use xlink:href="#DejaVuSans-6d" x="125.199219"/>
      <use xlink:href="#DejaVuSans-6f" x="222.611328"/>
      <use xlink:href="#DejaVuSans-6a" x="283.792969"/>
      <use xlink:href="#DejaVuSans-69" x="311.576172"/>
      <use xlink:href="#DejaVuSans-20" x="339.359375"/>
      <use xlink:href="#DejaVuSans-69" x="371.146484"/>
      <use xlink:href="#DejaVuSans-161" x="398.929688"/>
      <use xlink:href="#DejaVuSans-76" x="451.029297"/>
      <use xlink:href="#DejaVuSans-65" x="510.208984"/>
      <use xlink:href="#DejaVuSans-73" x="571.732422"/>
      <use xlink:href="#DejaVuSans-74" x="623.832031"/>
      <use xlink:href="#DejaVuSans-69" x="663.041016"/>
      <use xlink:href="#DejaVuSans-6e" x="690.824219"/>
      <use xlink:href="#DejaVuSans-117" x="754.203125"/>
     </g>
    </g>
   </g>
   <g id="line2d_15">
    <path d="M 103.882699 23.554545 
L 105.649871 147.162338 
L 107.417042 333.943798 
L 109.184214 350.645455 
L 110.951386 277.894488 
L 112.718557 245.363488 
L 114.485729 297.187023 
L 116.252901 311.226888 
L 118.020073 177.958375 
L 119.787244 129.859175 
L 121.554416 211.011102 
L 123.321588 178.343663 
L 125.088759 171.006755 
L 126.855931 301.015997 
L 128.623103 322.080738 
L 130.390275 196.030787 
L 132.157446 105.50924 
L 133.924618 137.445157 
L 135.69179 205.029188 
L 137.458961 244.345043 
L 139.226133 216.070248 
L 140.993305 154.983737 
L 142.760477 139.914417 
L 144.527648 129.204938 
L 146.29482 94.649133 
L 148.061992 89.895525 
L 149.829164 151.426627 
L 151.596335 235.311906 
L 153.363507 285.436543 
L 155.130679 276.045775 
L 156.89785 207.095322 
L 158.665022 133.368743 
L 160.432194 97.351737 
L 162.199366 130.6079 
L 163.966537 214.190285 
L 165.733709 282.328868 
L 167.500881 303.81735 
L 169.268052 271.444775 
L 172.802396 116.819952 
L 174.569568 83.690953 
L 176.336739 97.69916 
L 178.103911 151.708556 
L 179.871083 221.016802 
L 181.638254 274.412565 
L 183.405426 303.677874 
L 185.172598 305.56889 
L 186.93977 281.444616 
L 188.706941 248.333843 
L 190.474113 208.514136 
L 192.241285 163.628627 
L 194.008456 132.030908 
L 195.775628 121.113221 
L 197.5428 125.366714 
L 199.309972 141.882418 
L 202.844315 186.064279 
L 204.611487 200.781137 
L 206.378658 204.211244 
L 208.14583 200.356286 
L 211.680174 179.52366 
L 213.447345 172.932755 
L 215.214517 168.848148 
L 218.74886 176.235625 
L 220.516032 181.679674 
L 222.283204 190.689536 
L 227.584719 207.523909 
L 229.351891 207.979643 
L 231.119062 207.043986 
L 232.886234 202.217049 
L 234.653406 193.58468 
L 236.420578 182.990051 
L 239.954921 151.048269 
L 241.722093 140.019923 
L 243.489265 135.608642 
L 245.256436 133.619164 
L 247.023608 135.024918 
L 248.79078 146.223071 
L 250.557951 158.201031 
L 254.092295 176.415563 
L 255.859467 179.403165 
L 257.626638 178.828468 
L 259.39381 174.95114 
L 262.928153 160.002649 
L 264.695325 156.271503 
L 268.229669 149.794607 
L 269.99684 152.17684 
L 271.764012 156.636539 
L 273.531184 160.478281 
L 275.298355 167.0905 
L 277.065527 173.15782 
L 278.832699 173.262479 
L 280.599871 171.663721 
L 282.367042 171.075457 
L 284.134214 167.424587 
L 285.901386 160.544033 
L 287.668557 157.042387 
L 289.435729 154.93131 
L 291.202901 151.157673 
L 292.970073 148.399177 
L 296.504416 152.052655 
L 298.271588 152.189319 
L 300.038759 155.340661 
L 301.805931 158.101322 
L 303.573103 159.097852 
L 305.340275 158.570406 
L 307.107446 157.655619 
L 308.874618 154.692155 
L 310.64179 149.809118 
L 312.408961 149.526045 
L 314.176133 152.044018 
L 315.943305 155.419656 
L 317.710477 158.550892 
L 319.477648 161.091953 
L 321.24482 165.595801 
L 323.011992 165.418111 
L 326.546335 158.706955 
L 328.313507 151.714391 
L 330.080679 148.476259 
L 331.84785 148.512479 
L 335.382194 139.8373 
L 337.149366 138.766921 
L 338.916537 140.583395 
L 342.450881 146.690137 
L 344.218052 149.535811 
L 345.985224 150.889503 
L 349.519568 152.800913 
L 351.286739 152.265136 
L 353.053911 153.235753 
L 354.821083 152.937633 
L 356.588254 146.439571 
L 358.355426 142.074828 
L 360.122598 140.914435 
L 361.88977 139.094428 
L 363.656941 139.486535 
L 365.424113 140.098333 
L 367.191285 142.225359 
L 368.958456 147.413805 
L 370.725628 149.972183 
L 372.4928 144.446381 
L 374.259972 148.845942 
L 376.027143 161.784689 
L 377.794315 160.105991 
L 379.561487 152.426274 
L 381.328658 151.907851 
L 383.09583 157.638422 
L 384.863002 160.752821 
L 386.630174 154.862733 
L 390.164517 124.878337 
L 391.931689 117.974872 
L 393.69886 122.934909 
L 395.466032 134.295103 
L 397.233204 143.963712 
L 399.000376 148.620738 
L 400.767547 147.666332 
L 402.534719 141.594208 
L 404.301891 137.039414 
L 406.069062 137.999452 
L 407.836234 141.506302 
L 409.603406 145.805351 
L 411.370578 147.81177 
L 413.137749 145.440276 
L 414.904921 141.080662 
L 416.672093 138.808097 
L 418.439265 138.337194 
L 420.206436 140.505993 
L 421.973608 144.679418 
L 423.74078 146.887073 
L 425.507951 144.713378 
L 427.275123 140.896958 
L 429.042295 138.056885 
L 430.809467 135.666138 
L 432.576638 137.411847 
L 434.34381 142.007129 
L 436.110982 145.310154 
L 437.878153 145.60587 
L 439.645325 143.02223 
L 441.412497 140.039042 
L 443.179669 136.38299 
L 444.94684 135.330962 
L 446.714012 138.161033 
L 448.481184 140.405161 
L 450.248355 142.892741 
L 452.015527 145.05955 
L 453.782699 144.022233 
L 455.549871 139.980093 
L 457.317042 136.698035 
L 459.084214 135.87626 
L 460.851386 136.344456 
L 462.618557 138.782572 
L 464.385729 141.840911 
L 466.152901 143.635208 
L 467.920073 142.754186 
L 469.687244 140.568295 
L 471.454416 137.923886 
L 473.221588 136.198436 
L 474.988759 136.303274 
L 476.755931 136.894471 
L 478.523103 139.440506 
L 480.290275 141.766865 
L 482.057446 141.782184 
L 483.824618 140.375069 
L 485.59179 137.495205 
L 487.358961 135.278491 
L 489.126133 134.977444 
L 490.893305 135.154866 
L 492.660477 136.545567 
L 494.427648 139.050267 
L 496.19482 141.880897 
L 497.961992 142.425396 
L 501.496335 139.521284 
L 503.263507 137.159099 
L 505.030679 135.341567 
L 506.79785 134.56581 
L 508.565022 134.941532 
L 512.099366 139.332602 
L 513.866537 140.842485 
L 515.633709 141.775535 
L 517.400881 140.517445 
L 519.168052 138.558609 
L 522.702396 135.614121 
L 526.236739 135.882682 
L 528.003911 136.612112 
L 529.771083 138.428717 
L 531.538254 139.781929 
L 533.305426 140.675925 
L 535.072598 139.423791 
L 536.83977 137.596406 
L 540.374113 134.661433 
L 542.141285 134.113739 
L 543.908456 134.387248 
L 545.675628 134.294181 
L 547.4428 135.810747 
L 550.977143 139.737998 
L 552.744315 139.644918 
L 554.511487 137.734744 
L 556.278658 136.768023 
L 558.04583 136.141748 
L 559.813002 135.238818 
L 561.580174 134.080871 
L 563.347345 133.713605 
L 565.114517 134.501501 
L 566.881689 136.32962 
L 568.64886 137.33536 
L 570.416032 137.850158 
L 572.183204 137.004965 
L 573.950376 137.813355 
L 575.717547 137.471824 
L 577.484719 135.373288 
L 579.251891 134.606886 
L 582.786234 131.749579 
L 584.553406 132.268906 
L 586.320578 134.588859 
L 588.087749 136.367084 
L 589.854921 137.77947 
L 595.156436 139.062162 
L 596.923608 137.483721 
L 598.69078 136.124291 
L 600.457951 135.023528 
L 602.225123 133.329487 
L 603.992295 133.211734 
L 605.759467 133.898069 
L 607.526638 133.610257 
L 609.29381 134.880511 
L 611.060982 137.121975 
L 612.828153 137.675388 
L 614.595325 137.946736 
L 616.362497 139.232184 
L 618.129669 139.094179 
L 619.89684 135.974739 
L 621.664012 134.943972 
L 623.431184 134.83751 
L 625.198355 132.130367 
L 626.965527 131.130206 
L 628.732699 132.206623 
L 630.499871 132.336837 
L 632.267042 133.028681 
L 634.034214 134.499279 
L 637.568557 139.083419 
L 639.335729 138.179461 
L 641.102901 138.92008 
L 642.870073 140.124338 
L 644.637244 136.785502 
L 646.404416 135.700398 
L 648.171588 135.177735 
L 649.938759 131.631577 
L 651.705931 130.470908 
L 653.473103 130.643815 
L 655.240275 130.450103 
L 657.007446 130.976867 
L 658.774618 133.672805 
L 660.54179 135.9851 
L 662.308961 136.294885 
L 664.076133 139.498075 
L 665.843305 140.278819 
L 667.610477 139.145259 
L 669.377648 140.654343 
L 671.14482 137.668345 
L 672.911992 135.632933 
L 674.679164 134.254561 
L 676.446335 130.531294 
L 678.213507 130.245576 
L 679.980679 127.527013 
L 681.74785 127.191608 
L 683.515022 128.634006 
L 685.282194 128.63032 
L 687.049366 132.937489 
L 688.816537 136.271285 
L 690.583709 139.080253 
L 692.350881 143.712957 
L 695.885224 146.740944 
L 697.652396 146.877487 
L 699.419568 142.516741 
L 701.186739 139.340821 
L 704.721083 124.524846 
L 706.488254 116.157515 
L 708.255426 108.7949 
L 708.255426 108.7949 
" clip-path="url(#pd2d99854bf)" style="fill: none; stroke: #78003f; stroke-width: 2.4; stroke-linecap: square"/>
   </g>
   <g id="line2d_16">
    <path d="M 103.882699 74.963117 
L 105.649871 182.441347 
L 107.417042 334.219794 
L 109.184214 323.317784 
L 110.951386 244.287699 
L 112.718557 223.072999 
L 114.485729 281.995414 
L 116.252901 288.380053 
L 118.020073 153.830056 
L 119.787244 126.771241 
L 121.554416 232.720058 
L 125.088759 169.944779 
L 126.855931 272.112641 
L 128.623103 291.414557 
L 130.390275 183.824551 
L 132.157446 107.925343 
L 133.924618 142.828718 
L 135.69179 209.812534 
L 137.458961 245.810076 
L 139.226133 209.187147 
L 140.993305 140.672326 
L 142.760477 130.311866 
L 144.527648 138.363349 
L 146.29482 118.066115 
L 148.061992 107.752484 
L 149.829164 152.52325 
L 151.596335 225.621876 
L 153.363507 273.086984 
L 155.130679 259.56814 
L 156.89785 180.109079 
L 158.665022 93.590437 
L 160.432194 52.064775 
L 162.199366 91.667462 
L 163.966537 189.559791 
L 165.733709 271.589204 
L 167.500881 299.236301 
L 169.268052 265.00863 
L 172.802396 105.6935 
L 174.569568 77.212432 
L 176.336739 98.391278 
L 178.103911 157.258532 
L 179.871083 226.213636 
L 181.638254 274.870176 
L 183.405426 298.047192 
L 185.172598 295.530577 
L 186.93977 269.724898 
L 188.706941 236.383851 
L 190.474113 196.07302 
L 192.241285 149.519227 
L 194.008456 115.464464 
L 195.775628 102.758123 
L 197.5428 107.214839 
L 199.309972 126.079826 
L 202.844315 176.884685 
L 204.611487 193.152464 
L 206.378658 196.263678 
L 208.14583 190.974152 
L 209.913002 179.269491 
L 211.680174 168.411934 
L 213.447345 163.026582 
L 215.214517 161.230704 
L 216.981689 167.592071 
L 218.74886 173.398336 
L 220.516032 179.843298 
L 222.283204 188.91831 
L 225.817547 198.751089 
L 227.584719 204.295005 
L 229.351891 205.121424 
L 231.119062 205.104541 
L 232.886234 201.251402 
L 234.653406 193.25404 
L 236.420578 182.738706 
L 239.954921 148.90037 
L 241.722093 136.876956 
L 243.489265 132.042341 
L 245.256436 130.182391 
L 247.023608 132.383877 
L 248.79078 145.327792 
L 250.557951 159.200741 
L 254.092295 179.951358 
L 255.859467 182.924869 
L 257.626638 181.429424 
L 259.39381 175.861854 
L 262.928153 156.369244 
L 264.695325 150.819177 
L 266.462497 146.234443 
L 268.229669 142.145055 
L 269.99684 144.608524 
L 271.764012 149.729676 
L 273.531184 154.459876 
L 275.298355 162.330453 
L 277.065527 169.612404 
L 278.832699 170.286043 
L 280.599871 168.946722 
L 282.367042 168.583721 
L 284.134214 164.758228 
L 285.901386 157.322696 
L 287.668557 153.648272 
L 289.435729 151.580238 
L 291.202901 147.742514 
L 292.970073 145.089124 
L 296.504416 150.093754 
L 298.271588 150.622006 
L 300.038759 154.424317 
L 301.805931 157.641456 
L 303.573103 158.703274 
L 305.340275 157.876427 
L 307.107446 156.473532 
L 308.874618 152.639506 
L 310.64179 146.567369 
L 312.408961 145.778675 
L 314.176133 148.3156 
L 317.710477 155.722064 
L 319.477648 158.955816 
L 321.24482 164.679109 
L 323.011992 165.091201 
L 326.546335 158.606682 
L 328.313507 151.018915 
L 330.080679 147.773174 
L 331.84785 148.296698 
L 335.382194 138.655692 
L 337.149366 137.521504 
L 338.916537 139.708396 
L 342.450881 146.759265 
L 344.218052 149.944472 
L 345.985224 151.319597 
L 349.519568 153.137079 
L 351.286739 152.310177 
L 353.053911 153.368386 
L 354.821083 152.957023 
L 356.588254 145.077909 
L 358.355426 139.811706 
L 360.122598 138.466208 
L 361.88977 136.346395 
L 363.656941 136.961153 
L 365.424113 137.862117 
L 367.191285 141.165109 
L 368.958456 148.519477 
L 370.725628 151.911334 
L 372.4928 145.437166 
L 374.259972 151.817548 
L 376.027143 167.676709 
L 377.794315 163.579018 
L 379.561487 150.790328 
L 381.328658 147.095444 
L 384.863002 159.225944 
L 386.630174 156.10439 
L 388.397345 142.190083 
L 390.164517 125.517892 
L 391.931689 116.8181 
L 393.69886 121.120478 
L 395.466032 133.13867 
L 397.233204 144.084815 
L 399.000376 150.235438 
L 400.767547 150.193435 
L 402.534719 143.391488 
L 404.301891 137.462587 
L 406.069062 137.519827 
L 407.836234 140.501609 
L 409.603406 145.11672 
L 411.370578 147.915851 
L 413.137749 145.969064 
L 414.904921 141.579978 
L 416.672093 139.244848 
L 418.439265 138.273602 
L 420.206436 140.123404 
L 421.973608 144.713011 
L 423.74078 147.484492 
L 425.507951 145.380747 
L 427.275123 141.599947 
L 430.809467 136.017961 
L 432.576638 137.783633 
L 434.34381 142.887175 
L 436.110982 146.428762 
L 437.878153 146.567899 
L 441.412497 140.293706 
L 443.179669 135.978453 
L 444.94684 134.637889 
L 446.714012 137.993606 
L 448.481184 140.343766 
L 452.015527 146.37795 
L 453.782699 145.688735 
L 455.549871 141.124751 
L 457.317042 137.349967 
L 459.084214 136.32468 
L 460.851386 136.367522 
L 462.618557 138.666642 
L 464.385729 141.815096 
L 466.152901 143.656023 
L 467.920073 142.446183 
L 469.687244 140.02423 
L 471.454416 137.245754 
L 473.221588 135.665208 
L 474.988759 136.279398 
L 476.755931 137.148849 
L 478.523103 140.512338 
L 480.290275 143.569569 
L 482.057446 143.578378 
L 483.824618 141.851435 
L 485.59179 138.187501 
L 487.358961 135.391906 
L 489.126133 135.02422 
L 490.893305 134.938131 
L 492.660477 136.270734 
L 494.427648 139.124212 
L 496.19482 142.678081 
L 497.961992 143.393835 
L 499.729164 141.827213 
L 501.496335 140.482242 
L 503.263507 137.996316 
L 505.030679 136.074294 
L 506.79785 135.20237 
L 508.565022 135.481717 
L 512.099366 140.421339 
L 513.866537 141.972351 
L 515.633709 143.043617 
L 517.400881 141.322393 
L 519.168052 138.913373 
L 522.702396 135.734738 
L 524.469568 136.292944 
L 526.236739 136.344152 
L 528.003911 137.069971 
L 529.771083 139.282068 
L 531.538254 140.867157 
L 533.305426 141.993027 
L 535.072598 140.197708 
L 536.83977 137.825856 
L 540.374113 134.566283 
L 542.141285 134.223333 
L 543.908456 134.908688 
L 545.675628 134.795502 
L 547.4428 136.968568 
L 550.977143 142.590348 
L 552.744315 142.384238 
L 554.511487 139.519249 
L 556.278658 138.181723 
L 558.04583 137.368625 
L 559.813002 136.036248 
L 561.580174 134.151591 
L 563.347345 133.306697 
L 565.114517 134.109488 
L 566.881689 136.474879 
L 568.64886 137.629931 
L 570.416032 138.180243 
L 572.183204 136.814369 
L 573.950376 138.276304 
L 575.717547 138.10132 
L 577.484719 135.250913 
L 579.251891 134.453767 
L 581.019062 132.508877 
L 582.786234 130.285798 
L 584.553406 130.999043 
L 586.320578 134.436917 
L 588.087749 136.978257 
L 589.854921 139.000347 
L 591.622093 139.628513 
L 593.389265 140.583241 
L 595.156436 141.349999 
L 596.923608 139.205293 
L 598.69078 137.433103 
L 600.457951 135.981596 
L 602.225123 133.379135 
L 603.992295 133.087793 
L 605.759467 133.862325 
L 607.526638 132.87797 
L 609.29381 134.359069 
L 611.060982 137.48137 
L 612.828153 138.033418 
L 614.595325 138.388931 
L 616.362497 140.74803 
L 618.129669 141.04714 
L 619.89684 136.589136 
L 621.664012 135.693143 
L 623.431184 136.272317 
L 625.198355 132.289265 
L 626.965527 130.848275 
L 628.732699 132.527889 
L 630.499871 132.310786 
L 632.267042 132.803413 
L 634.034214 134.49381 
L 637.568557 140.907906 
L 639.335729 139.112125 
L 641.102901 140.426496 
L 642.870073 142.839492 
L 644.637244 137.764355 
L 646.404416 136.648684 
L 648.171588 136.456843 
L 649.938759 130.897198 
L 651.705931 129.135918 
L 653.473103 129.31987 
L 655.240275 128.544915 
L 657.007446 128.757261 
L 658.774618 132.59034 
L 660.54179 135.820095 
L 662.308961 135.81509 
L 664.076133 141.21347 
L 665.843305 142.83337 
L 667.610477 141.598406 
L 669.377648 145.443209 
L 671.14482 141.606968 
L 672.911992 139.501594 
L 674.679164 138.384688 
L 676.446335 132.683177 
L 678.213507 132.364043 
L 679.980679 127.149016 
L 681.74785 125.26362 
L 683.515022 125.78083 
L 685.282194 123.295423 
L 687.049366 127.857027 
L 688.816537 130.687235 
L 690.583709 132.902365 
L 692.350881 139.01101 
L 694.118052 140.358267 
L 695.885224 143.394898 
L 697.652396 145.381895 
L 699.419568 140.470932 
L 701.186739 140.178657 
L 702.953911 132.949734 
L 704.721083 126.841604 
L 706.488254 119.317362 
L 708.255426 108.905829 
L 708.255426 108.905829 
" clip-path="url(#pd2d99854bf)" style="fill: none; stroke: #104a7e; stroke-width: 2.4; stroke-linecap: square"/>
   </g>
   <g id="line2d_17">
    <path d="M 73.664063 132.959693 
L 738.474062 132.959693 
" clip-path="url(#pd2d99854bf)" style="fill: none; stroke-dasharray: 3.7,1.6; stroke-dashoffset: 0; stroke: #0d1530"/>
   </g>
   <g id="patch_3">
    <path d="M 73.664063 367 
L 73.664063 7.2 
" style="fill: none; stroke: #444444; stroke-width: 0.8; stroke-linejoin: miter; stroke-linecap: square"/>
   </g>
   <g id="patch_4">
    <path d="M 73.664062 367 
L 738.474062 367 
" style="fill: none; stroke: #444444; stroke-width: 0.8; stroke-linejoin: miter; stroke-linecap: square"/>
   </g>
   <g id="legend_1">
    <g id="line2d_18">
     <path d="M 650.064687 20.298437 
L 660.064687 20.298437 
L 670.064687 20.298437 
" style="fill: none; stroke: #78003f; stroke-width: 2.4; stroke-linecap: square"/>
    </g>
    <g id="text_17">
     <!-- Nedvinarė -->
     <g style="fill: #222222" transform="translate(678.064687 23.798437) scale(0.1 -0.1)">
      <defs>
       <path id="DejaVuSans-4e" d="M 628 4666 
L 1478 4666 
L 3547 763 
L 3547 4666 
L 4159 4666 
L 4159 0 
L 3309 0 
L 1241 3903 
L 1241 0 
L 628 0 
L 628 4666 
z
" transform="scale(0.015625)"/>
       <path id="DejaVuSans-64" d="M 2906 2969 
L 2906 4863 
L 3481 4863 
L 3481 0 
L 2906 0 
L 2906 525 
Q 2725 213 2448 61 
Q 2172 -91 1784 -91 
Q 1150 -91 751 415 
Q 353 922 353 1747 
Q 353 2572 751 3078 
Q 1150 3584 1784 3584 
Q 2172 3584 2448 3432 
Q 2725 3281 2906 2969 
z
M 947 1747 
Q 947 1113 1208 752 
Q 1469 391 1925 391 
Q 2381 391 2643 752 
Q 2906 1113 2906 1747 
Q 2906 2381 2643 2742 
Q 2381 3103 1925 3103 
Q 1469 3103 1208 2742 
Q 947 2381 947 1747 
z
" transform="scale(0.015625)"/>
      </defs>
      <use xlink:href="#DejaVuSans-4e"/>
      <use xlink:href="#DejaVuSans-65" x="74.804688"/>
      <use xlink:href="#DejaVuSans-64" x="136.328125"/>
      <use xlink:href="#DejaVuSans-76" x="199.804688"/>
      <use xlink:href="#DejaVuSans-69" x="258.984375"/>
      <use xlink:href="#DejaVuSans-6e" x="286.767578"/>
      <use xlink:href="#DejaVuSans-61" x="350.146484"/>
      <use xlink:href="#DejaVuSans-72" x="411.425781"/>
      <use xlink:href="#DejaVuSans-117" x="452.539062"/>
     </g>
    </g>
    <g id="line2d_19">
     <path d="M 650.064687 34.976562 
L 660.064687 34.976562 
L 670.064687 34.976562 
" style="fill: none; stroke: #104a7e; stroke-width: 2.4; stroke-linecap: square"/>
    </g>
    <g id="text_18">
     <!-- Dvinarė -->
     <g style="fill: #222222" transform="translate(678.064687 38.476562) scale(0.1 -0.1)">
      <defs>
       <path id="DejaVuSans-44" d="M 1259 4147 
L 1259 519 
L 2022 519 
Q 2988 519 3436 956 
Q 3884 1394 3884 2338 
Q 3884 3275 3436 3711 
Q 2988 4147 2022 4147 
L 1259 4147 
z
M 628 4666 
L 1925 4666 
Q 3281 4666 3915 4102 
Q 4550 3538 4550 2338 
Q 4550 1131 3912 565 
Q 3275 0 1925 0 
L 628 0 
L 628 4666 
z
" transform="scale(0.015625)"/>
      </defs>
      <use xlink:href="#DejaVuSans-44"/>
      <use xlink:href="#DejaVuSans-76" x="77.001953"/>
      <use xlink:href="#DejaVuSans-69" x="136.181641"/>
      <use xlink:href="#DejaVuSans-6e" x="163.964844"/>
      <use xlink:href="#DejaVuSans-61" x="227.34375"/>
      <use xlink:href="#DejaVuSans-72" x="288.623047"/>
      <use xlink:href="#DejaVuSans-117" x="329.736328"/>
     </g>
    </g>
   </g>
  </g>
 </g>
 <defs>
  <clipPath id="pd2d99854bf">
   <rect x="73.664063" y="7.2" width="664.81" height="359.8"/>
  </clipPath>
 </defs>
</svg>
