<?xml version="1.0" encoding="utf-8" standalone="no"?>
<!DOCTYPE svg PUBLIC "-//W3C//DTD SVG 1.1//EN"
  "http://www.w3.org/Graphics/SVG/1.1/DTD/svg11.dtd">
<svg xmlns:xlink="http://www.w3.org/1999/xlink" width="745.329375pt" height="406.491875pt" viewBox="0 0 745.329375 406.491875" xmlns="http://www.w3.org/2000/svg" version="1.1">
 <metadata>
  <rdf:RDF xmlns:dc="http://purl.org/dc/elements/1.1/" xmlns:cc="http://creativecommons.org/ns#" xmlns:rdf="http://www.w3.org/1999/02/22-rdf-syntax-ns#">
   <cc:Work>
    <dc:type rdf:resource="http://purl.org/dc/dcmitype/StillImage"/>
    <dc:date>2026-04-26T14:38:50.589853</dc:date>
    <dc:format>image/svg+xml</dc:format>
    <dc:creator>
     <cc:Agent>
      <dc:title>Matplotlib v3.8.0, https://matplotlib.org/</dc:title>
     </cc:Agent>
    </dc:creator>
   </cc:Work>
  </rdf:RDF>
 </metadata>
 <defs>
  <style type="text/css">*{stroke-linejoin: round; stroke-linecap: butt}</style>
 </defs>
 <g id="figure_1">
  <g id="patch_1">
   <path d="M 0 406.491875 
L 745.329375 406.491875 
L 745.329375 0 
L 0 0 
z
" style="fill: #ffffff"/>
  </g>
  <g id="axes_1">
   <g id="patch_2">
    <path d="M 52.079375 367 
L 738.129375 367 
L 738.129375 7.2 
L 52.079375 7.2 
z
" style="fill: #ffffff"/>
   </g>
   <g id="matplotlib.axis_1">
    <g id="xtick_1">
     <g id="line2d_1">
      <defs>
       <path id="m9c0cd6c770" d="M 0 0 
L 0 3.5 
" style="stroke: #222222; stroke-width: 0.8"/>
      </defs>
      <g>
       <use xlink:href="#m9c0cd6c770" x="141.619659" y="367" style="fill: #222222; stroke: #222222; stroke-width: 0.8"/>
      </g>
     </g>
     <g id="text_1">
      <!-- 400 -->
      <g style="fill: #222222" transform="translate(132.075909 381.598437) scale(0.1 -0.1)">
       <defs>
        <path id="DejaVuSans-34" d="M 2419 4116 
L 825 1625 
L 2419 1625 
L 2419 4116 
z
M 2253 4666 
L 3047 4666 
L 3047 1625 
L 3713 1625 
L 3713 1100 
L 3047 1100 
L 3047 0 
L 2419 0 
L 2419 1100 
L 313 1100 
L 313 1709 
L 2253 4666 
z
" transform="scale(0.015625)"/>
        <path id="DejaVuSans-30" d="M 2034 4250 
Q 1547 4250 1301 3770 
Q 1056 3291 1056 2328 
Q 1056 1369 1301 889 
Q 1547 409 2034 409 
Q 2525 409 2770 889 
Q 3016 1369 3016 2328 
Q 3016 3291 2770 3770 
Q 2525 4250 2034 4250 
z
M 2034 4750 
Q 2819 4750 3233 4129 
Q 3647 3509 3647 2328 
Q 3647 1150 3233 529 
Q 2819 -91 2034 -91 
Q 1250 -91 836 529 
Q 422 1150 422 2328 
Q 422 3509 836 4129 
Q 1250 4750 2034 4750 
z
" transform="scale(0.015625)"/>
       </defs>
       <use xlink:href="#DejaVuSans-34"/>
       <use xlink:href="#DejaVuSans-30" x="63.623047"/>
       <use xlink:href="#DejaVuSans-30" x="127.246094"/>
      </g>
     </g>
    </g>
    <g id="xtick_2">
     <g id="line2d_2">
      <g>
       <use xlink:href="#m9c0cd6c770" x="232.801212" y="367" style="fill: #222222; stroke: #222222; stroke-width: 0.8"/>
      </g>
     </g>
     <g id="text_2">
      <!-- 500 -->
      <g style="fill: #222222" transform="translate(223.257462 381.598437) scale(0.1 -0.1)">
       <defs>
        <path id="DejaVuSans-35" d="M 691 4666 
L 3169 4666 
L 3169 4134 
L 1269 4134 
L 1269 2991 
Q 1406 3038 1543 3061 
Q 1681 3084 1819 3084 
Q 2600 3084 3056 2656 
Q 3513 2228 3513 1497 
Q 3513 744 3044 326 
Q 2575 -91 1722 -91 
Q 1428 -91 1123 -41 
Q 819 9 494 109 
L 494 744 
Q 775 591 1075 516 
Q 1375 441 1709 441 
Q 2250 441 2565 725 
Q 2881 1009 2881 1497 
Q 2881 1984 2565 2268 
Q 2250 2553 1709 2553 
Q 1456 2553 1204 2497 
Q 953 2441 691 2322 
L 691 4666 
z
" transform="scale(0.015625)"/>
       </defs>
       <use xlink:href="#DejaVuSans-35"/>
       <use xlink:href="#DejaVuSans-30" x="63.623047"/>
       <use xlink:href="#DejaVuSans-30" x="127.246094"/>
      </g>
     </g>
    </g>
    <g id="xtick_3">
     <g id="line2d_3">
      <g>
       <use xlink:href="#m9c0cd6c770" x="323.982764" y="367" style="fill: #222222; stroke: #222222; stroke-width: 0.8"/>
      </g>
     </g>
     <g id="text_3">
      <!-- 600 -->
      <g style="fill: #222222" transform="translate(314.439014 381.598437) scale(0.1 -0.1)">
       <defs>
        <path id="DejaVuSans-36" d="M 2113 2584 
Q 1688 2584 1439 2293 
Q 1191 2003 1191 1497 
Q 1191 994 1439 701 
Q 1688 409 2113 409 
Q 2538 409 2786 701 
Q 3034 994 3034 1497 
Q 3034 2003 2786 2293 
Q 2538 2584 2113 2584 
z
M 3366 4563 
L 3366 3988 
Q 3128 4100 2886 4159 
Q 2644 4219 2406 4219 
Q 1781 4219 1451 3797 
Q 1122 3375 1075 2522 
Q 1259 2794 1537 2939 
Q 1816 3084 2150 3084 
Q 2853 3084 3261 2657 
Q 3669 2231 3669 1497 
Q 3669 778 3244 343 
Q 2819 -91 2113 -91 
Q 1303 -91 875 529 
Q 447 1150 447 2328 
Q 447 3434 972 4092 
Q 1497 4750 2381 4750 
Q 2619 4750 2861 4703 
Q 3103 4656 3366 4563 
z
" transform="scale(0.015625)"/>
       </defs>
       <use xlink:href="#DejaVuSans-36"/>
       <use xlink:href="#DejaVuSans-30" x="63.623047"/>
       <use xlink:href="#DejaVuSans-30" x="127.246094"/>
      </g>
     </g>
    </g>
    <g id="xtick_4">
     <g id="line2d_4">
      <g>
       <use xlink:href="#m9c0cd6c770" x="415.164317" y="367" style="fill: #222222; stroke: #222222; stroke-width: 0.8"/>
      </g>
     </g>
     <g id="text_4">
      <!-- 700 -->
      <g style="fill: #222222" transform="translate(405.620567 381.598437) scale(0.1 -0.1)">
       <defs>
        <path id="DejaVuSans-37" d="M 525 4666 
L 3525 4666 
L 3525 4397 
L 1831 0 
L 1172 0 
L 2766 4134 
L 525 4134 
L 525 4666 
z
" transform="scale(0.015625)"/>
       </defs>
       <use xlink:href="#DejaVuSans-37"/>
       <use xlink:href="#DejaVuSans-30" x="63.623047"/>
       <use xlink:href="#DejaVuSans-30" x="127.246094"/>
      </g>
     </g>
    </g>
    <g id="xtick_5">
     <g id="line2d_5">
      <g>
       <use xlink:href="#m9c0cd6c770" x="506.345869" y="367" style="fill: #222222; stroke: #222222; stroke-width: 0.8"/>
      </g>
     </g>
     <g id="text_5">
      <!-- 800 -->
      <g style="fill: #222222" transform="translate(496.802119 381.598437) scale(0.1 -0.1)">
       <defs>
        <path id="DejaVuSans-38" d="M 2034 2216 
Q 1584 2216 1326 1975 
Q 1069 1734 1069 1313 
Q 1069 891 1326 650 
Q 1584 409 2034 409 
Q 2484 409 2743 651 
Q 3003 894 3003 1313 
Q 3003 1734 2745 1975 
Q 2488 2216 2034 2216 
z
M 1403 2484 
Q 997 2584 770 2862 
Q 544 3141 544 3541 
Q 544 4100 942 4425 
Q 1341 4750 2034 4750 
Q 2731 4750 3128 4425 
Q 3525 4100 3525 3541 
Q 3525 3141 3298 2862 
Q 3072 2584 2669 2484 
Q 3125 2378 3379 2068 
Q 3634 1759 3634 1313 
Q 3634 634 3220 271 
Q 2806 -91 2034 -91 
Q 1263 -91 848 271 
Q 434 634 434 1313 
Q 434 1759 690 2068 
Q 947 2378 1403 2484 
z
M 1172 3481 
Q 1172 3119 1398 2916 
Q 1625 2713 2034 2713 
Q 2441 2713 2670 2916 
Q 2900 3119 2900 3481 
Q 2900 3844 2670 4047 
Q 2441 4250 2034 4250 
Q 1625 4250 1398 4047 
Q 1172 3844 1172 3481 
z
" transform="scale(0.015625)"/>
       </defs>
       <use xlink:href="#DejaVuSans-38"/>
       <use xlink:href="#DejaVuSans-30" x="63.623047"/>
       <use xlink:href="#DejaVuSans-30" x="127.246094"/>
      </g>
     </g>
    </g>
    <g id="xtick_6">
     <g id="line2d_6">
      <g>
       <use xlink:href="#m9c0cd6c770" x="597.527421" y="367" style="fill: #222222; stroke: #222222; stroke-width: 0.8"/>
      </g>
     </g>
     <g id="text_6">
      <!-- 900 -->
      <g style="fill: #222222" transform="translate(587.983671 381.598437) scale(0.1 -0.1)">
       <defs>
        <path id="DejaVuSans-39" d="M 703 97 
L 703 672 
Q 941 559 1184 500 
Q 1428 441 1663 441 
Q 2288 441 2617 861 
Q 2947 1281 2994 2138 
Q 2813 1869 2534 1725 
Q 2256 1581 1919 1581 
Q 1219 1581 811 2004 
Q 403 2428 403 3163 
Q 403 3881 828 4315 
Q 1253 4750 1959 4750 
Q 2769 4750 3195 4129 
Q 3622 3509 3622 2328 
Q 3622 1225 3098 567 
Q 2575 -91 1691 -91 
Q 1453 -91 1209 -44 
Q 966 3 703 97 
z
M 1959 2075 
Q 2384 2075 2632 2365 
Q 2881 2656 2881 3163 
Q 2881 3666 2632 3958 
Q 2384 4250 1959 4250 
Q 1534 4250 1286 3958 
Q 1038 3666 1038 3163 
Q 1038 2656 1286 2365 
Q 1534 2075 1959 2075 
z
" transform="scale(0.015625)"/>
       </defs>
       <use xlink:href="#DejaVuSans-39"/>
       <use xlink:href="#DejaVuSans-30" x="63.623047"/>
       <use xlink:href="#DejaVuSans-30" x="127.246094"/>
      </g>
     </g>
    </g>
    <g id="xtick_7">
     <g id="line2d_7">
      <g>
       <use xlink:href="#m9c0cd6c770" x="688.708974" y="367" style="fill: #222222; stroke: #222222; stroke-width: 0.8"/>
      </g>
     </g>
     <g id="text_7">
      <!-- 1000 -->
      <g style="fill: #222222" transform="translate(675.983974 381.598437) scale(0.1 -0.1)">
       <defs>
        <path id="DejaVuSans-31" d="M 794 531 
L 1825 531 
L 1825 4091 
L 703 3866 
L 703 4441 
L 1819 4666 
L 2450 4666 
L 2450 531 
L 3481 531 
L 3481 0 
L 794 0 
L 794 531 
z
" transform="scale(0.015625)"/>
       </defs>
       <use xlink:href="#DejaVuSans-31"/>
       <use xlink:href="#DejaVuSans-30" x="63.623047"/>
       <use xlink:href="#DejaVuSans-30" x="127.246094"/>
       <use xlink:href="#DejaVuSans-30" x="190.869141"/>
      </g>
     </g>
    </g>
    <g id="text_8">
     <!-- Bangos ilgis, nm -->
     <g style="fill: #222222" transform="translate(345.599688 396.79625) scale(0.12 -0.12)">
      <defs>
       <path id="DejaVuSans-42" d="M 1259 2228 
L 1259 519 
L 2272 519 
Q 2781 519 3026 730 
Q 3272 941 3272 1375 
Q 3272 1813 3026 2020 
Q 2781 2228 2272 2228 
L 1259 2228 
z
M 1259 4147 
L 1259 2741 
L 2194 2741 
Q 2656 2741 2882 2914 
Q 3109 3088 3109 3444 
Q 3109 3797 2882 3972 
Q 2656 4147 2194 4147 
L 1259 4147 
z
M 628 4666 
L 2241 4666 
Q 2963 4666 3353 4366 
Q 3744 4066 3744 3513 
Q 3744 3084 3544 2831 
Q 3344 2578 2956 2516 
Q 3422 2416 3680 2098 
Q 3938 1781 3938 1306 
Q 3938 681 3513 340 
Q 3088 0 2303 0 
L 628 0 
L 628 4666 
z
" transform="scale(0.015625)"/>
       <path id="DejaVuSans-61" d="M 2194 1759 
Q 1497 1759 1228 1600 
Q 959 1441 959 1056 
Q 959 750 1161 570 
Q 1363 391 1709 391 
Q 2188 391 2477 730 
Q 2766 1069 2766 1631 
L 2766 1759 
L 2194 1759 
z
M 3341 1997 
L 3341 0 
L 2766 0 
L 2766 531 
Q 2569 213 2275 61 
Q 1981 -91 1556 -91 
Q 1019 -91 701 211 
Q 384 513 384 1019 
Q 384 1609 779 1909 
Q 1175 2209 1959 2209 
L 2766 2209 
L 2766 2266 
Q 2766 2663 2505 2880 
Q 2244 3097 1772 3097 
Q 1472 3097 1187 3025 
Q 903 2953 641 2809 
L 641 3341 
Q 956 3463 1253 3523 
Q 1550 3584 1831 3584 
Q 2591 3584 2966 3190 
Q 3341 2797 3341 1997 
z
" transform="scale(0.015625)"/>
       <path id="DejaVuSans-6e" d="M 3513 2113 
L 3513 0 
L 2938 0 
L 2938 2094 
Q 2938 2591 2744 2837 
Q 2550 3084 2163 3084 
Q 1697 3084 1428 2787 
Q 1159 2491 1159 1978 
L 1159 0 
L 581 0 
L 581 3500 
L 1159 3500 
L 1159 2956 
Q 1366 3272 1645 3428 
Q 1925 3584 2291 3584 
Q 2894 3584 3203 3211 
Q 3513 2838 3513 2113 
z
" transform="scale(0.015625)"/>
       <path id="DejaVuSans-67" d="M 2906 1791 
Q 2906 2416 2648 2759 
Q 2391 3103 1925 3103 
Q 1463 3103 1205 2759 
Q 947 2416 947 1791 
Q 947 1169 1205 825 
Q 1463 481 1925 481 
Q 2391 481 2648 825 
Q 2906 1169 2906 1791 
z
M 3481 434 
Q 3481 -459 3084 -895 
Q 2688 -1331 1869 -1331 
Q 1566 -1331 1297 -1286 
Q 1028 -1241 775 -1147 
L 775 -588 
Q 1028 -725 1275 -790 
Q 1522 -856 1778 -856 
Q 2344 -856 2625 -561 
Q 2906 -266 2906 331 
L 2906 616 
Q 2728 306 2450 153 
Q 2172 0 1784 0 
Q 1141 0 747 490 
Q 353 981 353 1791 
Q 353 2603 747 3093 
Q 1141 3584 1784 3584 
Q 2172 3584 2450 3431 
Q 2728 3278 2906 2969 
L 2906 3500 
L 3481 3500 
L 3481 434 
z
" transform="scale(0.015625)"/>
       <path id="DejaVuSans-6f" d="M 1959 3097 
Q 1497 3097 1228 2736 
Q 959 2375 959 1747 
Q 959 1119 1226 758 
Q 1494 397 1959 397 
Q 2419 397 2687 759 
Q 2956 1122 2956 1747 
Q 2956 2369 2687 2733 
Q 2419 3097 1959 3097 
z
M 1959 3584 
Q 2709 3584 3137 3096 
Q 3566 2609 3566 1747 
Q 3566 888 3137 398 
Q 2709 -91 1959 -91 
Q 1206 -91 779 398 
Q 353 888 353 1747 
Q 353 2609 779 3096 
Q 1206 3584 1959 3584 
z
" transform="scale(0.015625)"/>
       <path id="DejaVuSans-73" d="M 2834 3397 
L 2834 2853 
Q 2591 2978 2328 3040 
Q 2066 3103 1784 3103 
Q 1356 3103 1142 2972 
Q 928 2841 928 2578 
Q 928 2378 1081 2264 
Q 1234 2150 1697 2047 
L 1894 2003 
Q 2506 1872 2764 1633 
Q 3022 1394 3022 966 
Q 3022 478 2636 193 
Q 2250 -91 1575 -91 
Q 1294 -91 989 -36 
Q 684 19 347 128 
L 347 722 
Q 666 556 975 473 
Q 1284 391 1588 391 
Q 1994 391 2212 530 
Q 2431 669 2431 922 
Q 2431 1156 2273 1281 
Q 2116 1406 1581 1522 
L 1381 1569 
Q 847 1681 609 1914 
Q 372 2147 372 2553 
Q 372 3047 722 3315 
Q 1072 3584 1716 3584 
Q 2034 3584 2315 3537 
Q 2597 3491 2834 3397 
z
" transform="scale(0.015625)"/>
       <path id="DejaVuSans-20" transform="scale(0.015625)"/>
       <path id="DejaVuSans-69" d="M 603 3500 
L 1178 3500 
L 1178 0 
L 603 0 
L 603 3500 
z
M 603 4863 
L 1178 4863 
L 1178 4134 
L 603 4134 
L 603 4863 
z
" transform="scale(0.015625)"/>
       <path id="DejaVuSans-6c" d="M 603 4863 
L 1178 4863 
L 1178 0 
L 603 0 
L 603 4863 
z
" transform="scale(0.015625)"/>
       <path id="DejaVuSans-2c" d="M 750 794 
L 1409 794 
L 1409 256 
L 897 -744 
L 494 -744 
L 750 256 
L 750 794 
z
" transform="scale(0.015625)"/>
       <path id="DejaVuSans-6d" d="M 3328 2828 
Q 3544 3216 3844 3400 
Q 4144 3584 4550 3584 
Q 5097 3584 5394 3201 
Q 5691 2819 5691 2113 
L 5691 0 
L 5113 0 
L 5113 2094 
Q 5113 2597 4934 2840 
Q 4756 3084 4391 3084 
Q 3944 3084 3684 2787 
Q 3425 2491 3425 1978 
L 3425 0 
L 2847 0 
L 2847 2094 
Q 2847 2600 2669 2842 
Q 2491 3084 2119 3084 
Q 1678 3084 1418 2786 
Q 1159 2488 1159 1978 
L 1159 0 
L 581 0 
L 581 3500 
L 1159 3500 
L 1159 2956 
Q 1356 3278 1631 3431 
Q 1906 3584 2284 3584 
Q 2666 3584 2933 3390 
Q 3200 3197 3328 2828 
z
" transform="scale(0.015625)"/>
      </defs>
      <use xlink:href="#DejaVuSans-42"/>
      <use xlink:href="#DejaVuSans-61" x="68.603516"/>
      <use xlink:href="#DejaVuSans-6e" x="129.882812"/>
      <use xlink:href="#DejaVuSans-67" x="193.261719"/>
      <use xlink:href="#DejaVuSans-6f" x="256.738281"/>
      <use xlink:href="#DejaVuSans-73" x="317.919922"/>
      <use xlink:href="#DejaVuSans-20" x="370.019531"/>
      <use xlink:href="#DejaVuSans-69" x="401.806641"/>
      <use xlink:href="#DejaVuSans-6c" x="429.589844"/>
      <use xlink:href="#DejaVuSans-67" x="457.373047"/>
      <use xlink:href="#DejaVuSans-69" x="520.849609"/>
      <use xlink:href="#DejaVuSans-73" x="548.632812"/>
      <use xlink:href="#DejaVuSans-2c" x="600.732422"/>
      <use xlink:href="#DejaVuSans-20" x="632.519531"/>
      <use xlink:href="#DejaVuSans-6e" x="664.306641"/>
      <use xlink:href="#DejaVuSans-6d" x="727.685547"/>
     </g>
    </g>
   </g>
   <g id="matplotlib.axis_2">
    <g id="ytick_1">
     <g id="line2d_8">
      <defs>
       <path id="mc27927a7c6" d="M 0 0 
L -3.5 0 
" style="stroke: #222222; stroke-width: 0.8"/>
      </defs>
      <g>
       <use xlink:href="#mc27927a7c6" x="52.079375" y="359.200051" style="fill: #222222; stroke: #222222; stroke-width: 0.8"/>
      </g>
     </g>
     <g id="text_9">
      <!-- 0.00 -->
      <g style="fill: #222222" transform="translate(22.81375 362.99927) scale(0.1 -0.1)">
       <defs>
        <path id="DejaVuSans-2e" d="M 684 794 
L 1344 794 
L 1344 0 
L 684 0 
L 684 794 
z
" transform="scale(0.015625)"/>
       </defs>
       <use xlink:href="#DejaVuSans-30"/>
       <use xlink:href="#DejaVuSans-2e" x="63.623047"/>
       <use xlink:href="#DejaVuSans-30" x="95.410156"/>
       <use xlink:href="#DejaVuSans-30" x="159.033203"/>
      </g>
     </g>
    </g>
    <g id="ytick_2">
     <g id="line2d_9">
      <g>
       <use xlink:href="#mc27927a7c6" x="52.079375" y="316.503388" style="fill: #222222; stroke: #222222; stroke-width: 0.8"/>
      </g>
     </g>
     <g id="text_10">
      <!-- 0.02 -->
      <g style="fill: #222222" transform="translate(22.81375 320.302606) scale(0.1 -0.1)">
       <defs>
        <path id="DejaVuSans-32" d="M 1228 531 
L 3431 531 
L 3431 0 
L 469 0 
L 469 531 
Q 828 903 1448 1529 
Q 2069 2156 2228 2338 
Q 2531 2678 2651 2914 
Q 2772 3150 2772 3378 
Q 2772 3750 2511 3984 
Q 2250 4219 1831 4219 
Q 1534 4219 1204 4116 
Q 875 4013 500 3803 
L 500 4441 
Q 881 4594 1212 4672 
Q 1544 4750 1819 4750 
Q 2544 4750 2975 4387 
Q 3406 4025 3406 3419 
Q 3406 3131 3298 2873 
Q 3191 2616 2906 2266 
Q 2828 2175 2409 1742 
Q 1991 1309 1228 531 
z
" transform="scale(0.015625)"/>
       </defs>
       <use xlink:href="#DejaVuSans-30"/>
       <use xlink:href="#DejaVuSans-2e" x="63.623047"/>
       <use xlink:href="#DejaVuSans-30" x="95.410156"/>
       <use xlink:href="#DejaVuSans-32" x="159.033203"/>
      </g>
     </g>
    </g>
    <g id="ytick_3">
     <g id="line2d_10">
      <g>
       <use xlink:href="#mc27927a7c6" x="52.079375" y="273.806724" style="fill: #222222; stroke: #222222; stroke-width: 0.8"/>
      </g>
     </g>
     <g id="text_11">
      <!-- 0.04 -->
      <g style="fill: #222222" transform="translate(22.81375 277.605943) scale(0.1 -0.1)">
       <use xlink:href="#DejaVuSans-30"/>
       <use xlink:href="#DejaVuSans-2e" x="63.623047"/>
       <use xlink:href="#DejaVuSans-30" x="95.410156"/>
       <use xlink:href="#DejaVuSans-34" x="159.033203"/>
      </g>
     </g>
    </g>
    <g id="ytick_4">
     <g id="line2d_11">
      <g>
       <use xlink:href="#mc27927a7c6" x="52.079375" y="231.110061" style="fill: #222222; stroke: #222222; stroke-width: 0.8"/>
      </g>
     </g>
     <g id="text_12">
      <!-- 0.06 -->
      <g style="fill: #222222" transform="translate(22.81375 234.909279) scale(0.1 -0.1)">
       <use xlink:href="#DejaVuSans-30"/>
       <use xlink:href="#DejaVuSans-2e" x="63.623047"/>
       <use xlink:href="#DejaVuSans-30" x="95.410156"/>
       <use xlink:href="#DejaVuSans-36" x="159.033203"/>
      </g>
     </g>
    </g>
    <g id="ytick_5">
     <g id="line2d_12">
      <g>
       <use xlink:href="#mc27927a7c6" x="52.079375" y="188.413397" style="fill: #222222; stroke: #222222; stroke-width: 0.8"/>
      </g>
     </g>
     <g id="text_13">
      <!-- 0.08 -->
      <g style="fill: #222222" transform="translate(22.81375 192.212616) scale(0.1 -0.1)">
       <use xlink:href="#DejaVuSans-30"/>
       <use xlink:href="#DejaVuSans-2e" x="63.623047"/>
       <use xlink:href="#DejaVuSans-30" x="95.410156"/>
       <use xlink:href="#DejaVuSans-38" x="159.033203"/>
      </g>
     </g>
    </g>
    <g id="ytick_6">
     <g id="line2d_13">
      <g>
       <use xlink:href="#mc27927a7c6" x="52.079375" y="145.716734" style="fill: #222222; stroke: #222222; stroke-width: 0.8"/>
      </g>
     </g>
     <g id="text_14">
      <!-- 0.10 -->
      <g style="fill: #222222" transform="translate(22.81375 149.515952) scale(0.1 -0.1)">
       <use xlink:href="#DejaVuSans-30"/>
       <use xlink:href="#DejaVuSans-2e" x="63.623047"/>
       <use xlink:href="#DejaVuSans-31" x="95.410156"/>
       <use xlink:href="#DejaVuSans-30" x="159.033203"/>
      </g>
     </g>
    </g>
    <g id="ytick_7">
     <g id="line2d_14">
      <g>
       <use xlink:href="#mc27927a7c6" x="52.079375" y="103.02007" style="fill: #222222; stroke: #222222; stroke-width: 0.8"/>
      </g>
     </g>
     <g id="text_15">
      <!-- 0.12 -->
      <g style="fill: #222222" transform="translate(22.81375 106.819289) scale(0.1 -0.1)">
       <use xlink:href="#DejaVuSans-30"/>
       <use xlink:href="#DejaVuSans-2e" x="63.623047"/>
       <use xlink:href="#DejaVuSans-31" x="95.410156"/>
       <use xlink:href="#DejaVuSans-32" x="159.033203"/>
      </g>
     </g>
    </g>
    <g id="ytick_8">
     <g id="line2d_15">
      <g>
       <use xlink:href="#mc27927a7c6" x="52.079375" y="60.323407" style="fill: #222222; stroke: #222222; stroke-width: 0.8"/>
      </g>
     </g>
     <g id="text_16">
      <!-- 0.14 -->
      <g style="fill: #222222" transform="translate(22.81375 64.122625) scale(0.1 -0.1)">
       <use xlink:href="#DejaVuSans-30"/>
       <use xlink:href="#DejaVuSans-2e" x="63.623047"/>
       <use xlink:href="#DejaVuSans-31" x="95.410156"/>
       <use xlink:href="#DejaVuSans-34" x="159.033203"/>
      </g>
     </g>
    </g>
    <g id="ytick_9">
     <g id="line2d_16">
      <g>
       <use xlink:href="#mc27927a7c6" x="52.079375" y="17.626743" style="fill: #222222; stroke: #222222; stroke-width: 0.8"/>
      </g>
     </g>
     <g id="text_17">
      <!-- 0.16 -->
      <g style="fill: #222222" transform="translate(22.81375 21.425962) scale(0.1 -0.1)">
       <use xlink:href="#DejaVuSans-30"/>
       <use xlink:href="#DejaVuSans-2e" x="63.623047"/>
       <use xlink:href="#DejaVuSans-31" x="95.410156"/>
       <use xlink:href="#DejaVuSans-36" x="159.033203"/>
      </g>
     </g>
    </g>
    <g id="text_18">
     <!-- L2 normalizuotas srautas -->
     <g style="fill: #222222" transform="translate(16.318125 262.768437) rotate(-90) scale(0.12 -0.12)">
      <defs>
       <path id="DejaVuSans-4c" d="M 628 4666 
L 1259 4666 
L 1259 531 
L 3531 531 
L 3531 0 
L 628 0 
L 628 4666 
z
" transform="scale(0.015625)"/>
       <path id="DejaVuSans-72" d="M 2631 2963 
Q 2534 3019 2420 3045 
Q 2306 3072 2169 3072 
Q 1681 3072 1420 2755 
Q 1159 2438 1159 1844 
L 1159 0 
L 581 0 
L 581 3500 
L 1159 3500 
L 1159 2956 
Q 1341 3275 1631 3429 
Q 1922 3584 2338 3584 
Q 2397 3584 2469 3576 
Q 2541 3569 2628 3553 
L 2631 2963 
z
" transform="scale(0.015625)"/>
       <path id="DejaVuSans-7a" d="M 353 3500 
L 3084 3500 
L 3084 2975 
L 922 459 
L 3084 459 
L 3084 0 
L 275 0 
L 275 525 
L 2438 3041 
L 353 3041 
L 353 3500 
z
" transform="scale(0.015625)"/>
       <path id="DejaVuSans-75" d="M 544 1381 
L 544 3500 
L 1119 3500 
L 1119 1403 
Q 1119 906 1312 657 
Q 1506 409 1894 409 
Q 2359 409 2629 706 
Q 2900 1003 2900 1516 
L 2900 3500 
L 3475 3500 
L 3475 0 
L 2900 0 
L 2900 538 
Q 2691 219 2414 64 
Q 2138 -91 1772 -91 
Q 1169 -91 856 284 
Q 544 659 544 1381 
z
M 1991 3584 
L 1991 3584 
z
" transform="scale(0.015625)"/>
       <path id="DejaVuSans-74" d="M 1172 4494 
L 1172 3500 
L 2356 3500 
L 2356 3053 
L 1172 3053 
L 1172 1153 
Q 1172 725 1289 603 
Q 1406 481 1766 481 
L 2356 481 
L 2356 0 
L 1766 0 
Q 1100 0 847 248 
Q 594 497 594 1153 
L 594 3053 
L 172 3053 
L 172 3500 
L 594 3500 
L 594 4494 
L 1172 4494 
z
" transform="scale(0.015625)"/>
      </defs>
      <use xlink:href="#DejaVuSans-4c"/>
      <use xlink:href="#DejaVuSans-32" x="55.712891"/>
      <use xlink:href="#DejaVuSans-20" x="119.335938"/>
      <use xlink:href="#DejaVuSans-6e" x="151.123047"/>
      <use xlink:href="#DejaVuSans-6f" x="214.501953"/>
      <use xlink:href="#DejaVuSans-72" x="275.683594"/>
      <use xlink:href="#DejaVuSans-6d" x="315.046875"/>
      <use xlink:href="#DejaVuSans-61" x="412.458984"/>
      <use xlink:href="#DejaVuSans-6c" x="473.738281"/>
      <use xlink:href="#DejaVuSans-69" x="501.521484"/>
      <use xlink:href="#DejaVuSans-7a" x="529.304688"/>
      <use xlink:href="#DejaVuSans-75" x="581.794922"/>
      <use xlink:href="#DejaVuSans-6f" x="645.173828"/>
      <use xlink:href="#DejaVuSans-74" x="706.355469"/>
      <use xlink:href="#DejaVuSans-61" x="745.564453"/>
      <use xlink:href="#DejaVuSans-73" x="806.84375"/>
      <use xlink:href="#DejaVuSans-20" x="858.943359"/>
      <use xlink:href="#DejaVuSans-73" x="890.730469"/>
      <use xlink:href="#DejaVuSans-72" x="942.830078"/>
      <use xlink:href="#DejaVuSans-61" x="983.943359"/>
      <use xlink:href="#DejaVuSans-75" x="1045.222656"/>
      <use xlink:href="#DejaVuSans-74" x="1108.601562"/>
      <use xlink:href="#DejaVuSans-61" x="1147.810547"/>
      <use xlink:href="#DejaVuSans-73" x="1209.089844"/>
     </g>
    </g>
   </g>
   <g id="line2d_17">
    <path d="M 83.263466 28.254936 
L 85.087097 23.554545 
L 86.910728 29.475317 
L 88.734359 40.824369 
L 90.55799 48.180253 
L 92.381621 53.278082 
L 94.205252 57.838697 
L 96.028883 67.389532 
L 97.852514 73.15654 
L 99.676145 71.256103 
L 101.499776 72.890124 
L 103.323407 77.962773 
L 105.147038 76.789802 
L 106.97067 81.232017 
L 108.794301 91.230261 
L 110.617932 97.482492 
L 112.441563 96.649728 
L 114.265194 95.123776 
L 116.088825 97.035147 
L 117.912456 101.316442 
L 119.736087 106.60608 
L 121.559718 108.457826 
L 123.383349 108.498525 
L 125.20698 109.055419 
L 127.030611 108.175893 
L 128.854242 105.763534 
L 130.677873 104.475547 
L 132.501504 107.35033 
L 134.325135 113.270296 
L 136.148766 120.452104 
L 137.972397 125.565156 
L 139.796028 126.822305 
L 141.619659 125.600304 
L 143.44329 123.762645 
L 145.266922 125.398223 
L 147.090553 130.74249 
L 150.737815 145.423659 
L 152.561446 150.132479 
L 154.385077 150.637117 
L 156.208708 148.745651 
L 158.032339 146.403636 
L 159.85597 145.715843 
L 161.679601 148.014657 
L 163.503232 153.282266 
L 165.326863 160.169181 
L 167.150494 167.951451 
L 168.974125 175.000854 
L 170.797756 180.710213 
L 172.621387 184.914529 
L 174.445018 187.202328 
L 176.268649 187.549798 
L 178.09228 187.122521 
L 179.915911 186.531874 
L 181.739542 186.470084 
L 183.563174 187.298571 
L 185.386805 189.136234 
L 187.210436 191.861653 
L 190.857698 197.984036 
L 192.681329 200.755022 
L 194.50496 202.891427 
L 196.328591 204.756092 
L 199.975853 207.839855 
L 203.623115 211.558396 
L 205.446746 213.908868 
L 207.270377 216.518909 
L 209.094008 219.341496 
L 212.74127 225.748524 
L 216.388532 232.114315 
L 218.212163 234.83628 
L 220.035794 237.323597 
L 221.859426 239.135204 
L 223.683057 240.24874 
L 225.506688 240.689489 
L 229.15395 240.917103 
L 230.977581 240.912066 
L 232.801212 241.09456 
L 234.624843 242.051739 
L 236.448474 243.263456 
L 238.272105 245.001916 
L 243.742998 250.938793 
L 245.566629 252.600802 
L 247.39026 253.911037 
L 251.037522 255.914135 
L 254.684784 257.360697 
L 256.508415 258.301562 
L 258.332046 259.395161 
L 260.155677 260.666133 
L 269.273833 269.066113 
L 271.097464 270.407346 
L 274.744726 272.476683 
L 276.568357 273.324274 
L 283.862881 276.29152 
L 285.686512 277.171336 
L 289.333774 279.331664 
L 292.981036 281.532298 
L 294.804667 282.58262 
L 296.628298 283.399689 
L 298.451929 284.030429 
L 302.099192 285.670275 
L 305.746454 287.869232 
L 307.570085 289.170378 
L 309.393716 290.673533 
L 313.040978 293.176956 
L 314.864609 294.171777 
L 320.335502 296.124871 
L 323.982764 296.715839 
L 325.806395 296.959356 
L 329.453657 297.877964 
L 333.100919 299.302289 
L 336.748181 300.927179 
L 344.042706 304.302655 
L 349.513599 305.380292 
L 353.160861 305.94112 
L 354.984492 306.226417 
L 356.808123 306.737284 
L 360.455385 308.199105 
L 362.279016 308.455415 
L 364.102647 309.564152 
L 365.926278 310.93224 
L 367.749909 311.896733 
L 369.57354 312.604932 
L 371.397171 313.524879 
L 375.044433 315.91304 
L 376.868065 316.607532 
L 378.691696 316.537798 
L 382.338958 315.250208 
L 384.162589 315.051738 
L 385.98622 315.364955 
L 391.457113 317.26096 
L 396.928006 317.88563 
L 398.751637 318.345894 
L 402.398899 319.622078 
L 404.22253 320.061821 
L 409.693423 320.781952 
L 411.517054 321.212779 
L 415.164317 322.409507 
L 418.811579 323.091527 
L 424.282472 323.619476 
L 427.929734 324.680706 
L 429.753365 325.188134 
L 433.400627 325.796436 
L 435.224258 325.839494 
L 437.047889 326.000191 
L 440.695151 326.639953 
L 446.166044 328.090499 
L 449.813306 328.411721 
L 453.460569 328.702561 
L 457.107831 329.465692 
L 458.931462 329.951142 
L 462.578724 330.604921 
L 469.873248 331.221315 
L 477.167772 332.615259 
L 486.285927 333.207328 
L 488.109558 333.526469 
L 491.756821 334.339822 
L 495.404083 334.903635 
L 500.874976 335.166103 
L 502.698607 335.278593 
L 506.345869 335.826193 
L 511.816762 336.852397 
L 515.464024 337.20754 
L 520.934917 337.544047 
L 524.582179 338.013981 
L 528.229441 338.677008 
L 531.876704 339.075424 
L 535.523966 339.221648 
L 540.994859 339.39666 
L 544.642121 339.813459 
L 546.465752 340.171728 
L 551.936645 340.715131 
L 555.583907 340.910968 
L 561.0548 341.084273 
L 568.349324 341.807854 
L 570.172956 342.102592 
L 575.643849 342.337102 
L 582.938373 342.373109 
L 588.409266 343.01699 
L 592.056528 343.541353 
L 597.527421 343.85187 
L 604.821945 343.929427 
L 610.292839 344.495932 
L 617.587363 345.293976 
L 621.234625 345.45533 
L 624.881887 345.298129 
L 630.35278 345.283169 
L 632.176411 345.3769 
L 639.470935 346.415244 
L 641.294566 346.678384 
L 646.76546 346.93457 
L 654.059984 346.505078 
L 655.883615 346.430391 
L 661.354508 346.852934 
L 663.178139 347.252172 
L 666.825401 347.783675 
L 668.649032 348.143012 
L 670.472663 348.188272 
L 672.296294 348.372714 
L 677.767187 348.066321 
L 679.590818 347.69724 
L 681.414449 347.570691 
L 683.23808 347.32555 
L 685.061712 347.198684 
L 688.708974 347.483237 
L 690.532605 347.849559 
L 697.827129 350.097148 
L 701.474391 350.645455 
L 705.121653 349.920679 
L 706.945284 348.882483 
L 706.945284 348.882483 
" clip-path="url(#p7bcaf67e1b)" style="fill: none; stroke: #78003f; stroke-width: 2.7; stroke-linecap: square"/>
   </g>
   <g id="line2d_18">
    <path d="M 83.263466 46.537225 
L 85.087097 44.045509 
L 86.910728 50.789001 
L 88.734359 61.339048 
L 90.55799 67.145771 
L 94.205252 74.888876 
L 96.028883 83.711144 
L 97.852514 88.243575 
L 99.676145 85.504458 
L 101.499776 87.711824 
L 103.323407 94.076499 
L 105.147038 93.662476 
L 106.97067 97.254491 
L 108.794301 105.619377 
L 110.617932 110.869934 
L 112.441563 109.990006 
L 114.265194 108.718824 
L 116.088825 110.838015 
L 117.912456 115.322506 
L 119.736087 120.534833 
L 121.559718 121.87245 
L 123.383349 121.197551 
L 125.20698 121.644932 
L 127.030611 121.661868 
L 128.854242 120.365182 
L 130.677873 119.495905 
L 132.501504 122.046206 
L 134.325135 127.458025 
L 136.148766 134.086828 
L 137.972397 138.337023 
L 139.796028 138.138201 
L 141.619659 134.954167 
L 143.44329 131.187199 
L 145.266922 131.406078 
L 147.090553 136.050637 
L 150.737815 150.338173 
L 152.561446 154.66448 
L 154.385077 154.645025 
L 158.032339 149.854868 
L 159.85597 149.35126 
L 161.679601 151.942778 
L 163.503232 157.364228 
L 165.326863 164.136623 
L 167.150494 171.549589 
L 168.974125 178.105741 
L 170.797756 183.301319 
L 172.621387 186.992598 
L 174.445018 188.724415 
L 176.268649 188.415497 
L 178.09228 187.221114 
L 179.915911 185.820388 
L 181.739542 185.008954 
L 183.563174 185.229226 
L 185.386805 186.61748 
L 187.210436 189.003539 
L 190.857698 194.443017 
L 192.681329 196.774592 
L 194.50496 198.422247 
L 196.328591 199.820872 
L 199.975853 202.250096 
L 203.623115 205.72484 
L 205.446746 208.010153 
L 209.094008 213.232028 
L 210.917639 216.18637 
L 216.388532 225.56075 
L 218.212163 228.255017 
L 220.035794 230.741621 
L 221.859426 232.532344 
L 223.683057 233.581088 
L 225.506688 233.902068 
L 229.15395 233.823243 
L 230.977581 233.679041 
L 232.801212 233.773765 
L 234.624843 234.741786 
L 236.448474 236.028562 
L 238.272105 237.907612 
L 243.742998 244.231208 
L 245.566629 245.887361 
L 247.39026 247.089013 
L 251.037522 248.623613 
L 254.684784 249.412877 
L 256.508415 250.040449 
L 258.332046 250.85386 
L 260.155677 251.88788 
L 261.979309 253.377581 
L 265.626571 256.584897 
L 269.273833 259.645939 
L 271.097464 260.861876 
L 274.744726 262.63957 
L 276.568357 263.339357 
L 282.03925 265.162283 
L 283.862881 265.853861 
L 285.686512 266.679941 
L 289.333774 268.800754 
L 292.981036 270.941757 
L 294.804667 271.930745 
L 296.628298 272.632771 
L 298.451929 273.100003 
L 302.099192 274.41948 
L 305.746454 276.375366 
L 307.570085 277.608022 
L 309.393716 279.100899 
L 313.040978 281.587097 
L 314.864609 282.572715 
L 316.68824 283.13886 
L 320.335502 284.456712 
L 323.982764 284.946148 
L 325.806395 285.136697 
L 329.453657 286.024142 
L 333.100919 287.483581 
L 336.748181 289.140704 
L 342.219075 291.776797 
L 344.042706 292.521717 
L 347.689968 293.110485 
L 354.984492 293.822739 
L 356.808123 294.340117 
L 360.455385 295.968562 
L 362.279016 296.231878 
L 364.102647 297.588948 
L 365.926278 299.214983 
L 367.749909 300.219954 
L 369.57354 300.747104 
L 371.397171 301.434587 
L 373.220802 302.494687 
L 375.044433 303.691549 
L 376.868065 304.483426 
L 378.691696 304.484682 
L 382.338958 303.097695 
L 384.162589 302.826679 
L 385.98622 303.113073 
L 387.809851 303.78262 
L 389.633482 304.597515 
L 391.457113 305.263452 
L 396.928006 305.885716 
L 398.751637 306.298418 
L 402.398899 307.583546 
L 404.22253 308.048172 
L 411.517054 309.203783 
L 416.987948 310.858074 
L 418.811579 311.194271 
L 424.282472 311.78274 
L 431.576996 313.848108 
L 433.400627 314.109576 
L 435.224258 314.107499 
L 437.047889 314.253778 
L 440.695151 314.888264 
L 446.166044 316.520905 
L 449.813306 316.898145 
L 453.460569 317.190967 
L 457.107831 317.95188 
L 458.931462 318.441453 
L 462.578724 319.048483 
L 466.225986 319.280958 
L 469.873248 319.640916 
L 477.167772 321.316618 
L 486.285927 321.893059 
L 488.109558 322.225304 
L 491.756821 323.121871 
L 495.404083 323.768256 
L 499.051345 324.035882 
L 502.698607 324.252591 
L 506.345869 324.893742 
L 509.993131 325.760217 
L 513.640393 326.271795 
L 522.758548 327.063655 
L 524.582179 327.344317 
L 528.229441 328.120518 
L 531.876704 328.538649 
L 537.347597 328.755899 
L 540.994859 328.913643 
L 544.642121 329.502437 
L 546.465752 330.016162 
L 550.113014 330.579801 
L 555.583907 331.02532 
L 561.0548 331.159857 
L 568.349324 331.892372 
L 570.172956 332.262604 
L 575.643849 332.462553 
L 577.46748 332.420743 
L 579.291111 332.232795 
L 582.938373 332.359728 
L 588.409266 333.170599 
L 592.056528 333.891547 
L 597.527421 334.330164 
L 601.174683 334.341172 
L 606.645576 334.509775 
L 612.11647 335.189195 
L 613.940101 335.614964 
L 615.763732 335.88412 
L 617.587363 335.926829 
L 621.234625 336.211471 
L 623.058256 336.061388 
L 630.35278 336.010856 
L 632.176411 336.106107 
L 639.470935 337.430663 
L 641.294566 337.790749 
L 643.118197 337.84351 
L 644.941828 338.107731 
L 646.76546 338.144007 
L 650.412722 337.815444 
L 655.883615 337.256652 
L 661.354508 337.649715 
L 663.178139 338.211652 
L 665.00177 338.498124 
L 666.825401 338.953945 
L 668.649032 339.570786 
L 670.472663 339.696974 
L 672.296294 340.132908 
L 675.943556 340.109148 
L 677.767187 340.111942 
L 679.590818 339.609858 
L 681.414449 339.450646 
L 685.061712 338.620231 
L 688.708974 338.424967 
L 690.532605 338.549625 
L 692.356236 338.944935 
L 694.179867 339.185357 
L 696.003498 339.841593 
L 697.827129 340.252751 
L 699.65076 340.487007 
L 701.474391 340.87305 
L 703.298022 340.486151 
L 705.121653 340.347346 
L 706.945284 339.313916 
L 706.945284 339.313916 
" clip-path="url(#p7bcaf67e1b)" style="fill: none; stroke: #104a7e; stroke-width: 2.7; stroke-linecap: square"/>
   </g>
   <g id="patch_3">
    <path d="M 52.079375 367 
L 52.079375 7.2 
" style="fill: none; stroke: #444444; stroke-width: 0.8; stroke-linejoin: miter; stroke-linecap: square"/>
   </g>
   <g id="patch_4">
    <path d="M 52.079375 367 
L 738.129375 367 
" style="fill: none; stroke: #444444; stroke-width: 0.8; stroke-linejoin: miter; stroke-linecap: square"/>
   </g>
   <g id="legend_1">
    <g id="line2d_19">
     <path d="M 649.72 20.298437 
L 659.72 20.298437 
L 669.72 20.298437 
" style="fill: none; stroke: #78003f; stroke-width: 2.7; stroke-linecap: square"/>
    </g>
    <g id="text_19">
     <!-- Nedvinarė -->
     <g style="fill: #222222" transform="translate(677.72 23.798437) scale(0.1 -0.1)">
      <defs>
       <path id="DejaVuSans-4e" d="M 628 4666 
L 1478 4666 
L 3547 763 
L 3547 4666 
L 4159 4666 
L 4159 0 
L 3309 0 
L 1241 3903 
L 1241 0 
L 628 0 
L 628 4666 
z
" transform="scale(0.015625)"/>
       <path id="DejaVuSans-65" d="M 3597 1894 
L 3597 1613 
L 953 1613 
Q 991 1019 1311 708 
Q 1631 397 2203 397 
Q 2534 397 2845 478 
Q 3156 559 3463 722 
L 3463 178 
Q 3153 47 2828 -22 
Q 2503 -91 2169 -91 
Q 1331 -91 842 396 
Q 353 884 353 1716 
Q 353 2575 817 3079 
Q 1281 3584 2069 3584 
Q 2775 3584 3186 3129 
Q 3597 2675 3597 1894 
z
M 3022 2063 
Q 3016 2534 2758 2815 
Q 2500 3097 2075 3097 
Q 1594 3097 1305 2825 
Q 1016 2553 972 2059 
L 3022 2063 
z
" transform="scale(0.015625)"/>
       <path id="DejaVuSans-64" d="M 2906 2969 
L 2906 4863 
L 3481 4863 
L 3481 0 
L 2906 0 
L 2906 525 
Q 2725 213 2448 61 
Q 2172 -91 1784 -91 
Q 1150 -91 751 415 
Q 353 922 353 1747 
Q 353 2572 751 3078 
Q 1150 3584 1784 3584 
Q 2172 3584 2448 3432 
Q 2725 3281 2906 2969 
z
M 947 1747 
Q 947 1113 1208 752 
Q 1469 391 1925 391 
Q 2381 391 2643 752 
Q 2906 1113 2906 1747 
Q 2906 2381 2643 2742 
Q 2381 3103 1925 3103 
Q 1469 3103 1208 2742 
Q 947 2381 947 1747 
z
" transform="scale(0.015625)"/>
       <path id="DejaVuSans-76" d="M 191 3500 
L 800 3500 
L 1894 563 
L 2988 3500 
L 3597 3500 
L 2284 0 
L 1503 0 
L 191 3500 
z
" transform="scale(0.015625)"/>
       <path id="DejaVuSans-117" d="M 1778 4863 
L 2353 4863 
L 2353 4134 
L 1778 4134 
L 1778 4863 
z
M 2072 3584 
L 2072 3584 
z
M 3597 1894 
L 3597 1613 
L 953 1613 
Q 991 1019 1311 708 
Q 1631 397 2203 397 
Q 2534 397 2845 478 
Q 3156 559 3463 722 
L 3463 178 
Q 3153 47 2828 -22 
Q 2503 -91 2169 -91 
Q 1331 -91 842 396 
Q 353 884 353 1716 
Q 353 2575 817 3079 
Q 1281 3584 2069 3584 
Q 2775 3584 3186 3129 
Q 3597 2675 3597 1894 
z
M 3022 2063 
Q 3016 2534 2758 2815 
Q 2500 3097 2075 3097 
Q 1594 3097 1305 2825 
Q 1016 2553 972 2059 
L 3022 2063 
z
" transform="scale(0.015625)"/>
      </defs>
      <use xlink:href="#DejaVuSans-4e"/>
      <use xlink:href="#DejaVuSans-65" x="74.804688"/>
      <use xlink:href="#DejaVuSans-64" x="136.328125"/>
      <use xlink:href="#DejaVuSans-76" x="199.804688"/>
      <use xlink:href="#DejaVuSans-69" x="258.984375"/>
      <use xlink:href="#DejaVuSans-6e" x="286.767578"/>
      <use xlink:href="#DejaVuSans-61" x="350.146484"/>
      <use xlink:href="#DejaVuSans-72" x="411.425781"/>
      <use xlink:href="#DejaVuSans-117" x="452.539062"/>
     </g>
    </g>
    <g id="line2d_20">
     <path d="M 649.72 34.976562 
L 659.72 34.976562 
L 669.72 34.976562 
" style="fill: none; stroke: #104a7e; stroke-width: 2.7; stroke-linecap: square"/>
    </g>
    <g id="text_20">
     <!-- Dvinarė -->
     <g style="fill: #222222" transform="translate(677.72 38.476562) scale(0.1 -0.1)">
      <defs>
       <path id="DejaVuSans-44" d="M 1259 4147 
L 1259 519 
L 2022 519 
Q 2988 519 3436 956 
Q 3884 1394 3884 2338 
Q 3884 3275 3436 3711 
Q 2988 4147 2022 4147 
L 1259 4147 
z
M 628 4666 
L 1925 4666 
Q 3281 4666 3915 4102 
Q 4550 3538 4550 2338 
Q 4550 1131 3912 565 
Q 3275 0 1925 0 
L 628 0 
L 628 4666 
z
" transform="scale(0.015625)"/>
      </defs>
      <use xlink:href="#DejaVuSans-44"/>
      <use xlink:href="#DejaVuSans-76" x="77.001953"/>
      <use xlink:href="#DejaVuSans-69" x="136.181641"/>
      <use xlink:href="#DejaVuSans-6e" x="163.964844"/>
      <use xlink:href="#DejaVuSans-61" x="227.34375"/>
      <use xlink:href="#DejaVuSans-72" x="288.623047"/>
      <use xlink:href="#DejaVuSans-117" x="329.736328"/>
     </g>
    </g>
   </g>
  </g>
 </g>
 <defs>
  <clipPath id="p7bcaf67e1b">
   <rect x="52.079375" y="7.2" width="686.05" height="359.8"/>
  </clipPath>
 </defs>
</svg>
