<?xml version="1.0" encoding="utf-8" standalone="no"?>
<!DOCTYPE svg PUBLIC "-//W3C//DTD SVG 1.1//EN"
  "http://www.w3.org/Graphics/SVG/1.1/DTD/svg11.dtd">
<svg xmlns:xlink="http://www.w3.org/1999/xlink" width="712.84125pt" height="337.124062pt" viewBox="0 0 712.84125 337.124062" xmlns="http://www.w3.org/2000/svg" version="1.1">
 <metadata>
  <rdf:RDF xmlns:dc="http://purl.org/dc/elements/1.1/" xmlns:cc="http://creativecommons.org/ns#" xmlns:rdf="http://www.w3.org/1999/02/22-rdf-syntax-ns#">
   <cc:Work>
    <dc:type rdf:resource="http://purl.org/dc/dcmitype/StillImage"/>
    <dc:date>2026-05-06T17:48:37.407114</dc:date>
    <dc:format>image/svg+xml</dc:format>
    <dc:creator>
     <cc:Agent>
      <dc:title>Matplotlib v3.8.0, https://matplotlib.org/</dc:title>
     </cc:Agent>
    </dc:creator>
   </cc:Work>
  </rdf:RDF>
 </metadata>
 <defs>
  <style type="text/css">*{stroke-linejoin: round; stroke-linecap: butt}</style>
 </defs>
 <g id="figure_1">
  <g id="patch_1">
   <path d="M 0 337.124062 
L 712.84125 337.124062 
L 712.84125 0 
L 0 0 
z
" style="fill: #ffffff"/>
  </g>
  <g id="axes_1">
   <g id="patch_2">
    <path d="M 59.49125 298.6 
L 705.64125 298.6 
L 705.64125 7.2 
L 59.49125 7.2 
z
" style="fill: #ffffff"/>
   </g>
   <g id="PolyCollection_1">
    <path d="M 88.861705 156.554645 
L 88.861705 156.554645 
L 90.579275 150.45189 
L 92.296845 144.460315 
L 94.014416 138.617005 
L 95.731986 132.964016 
L 97.449557 127.558791 
L 99.167127 122.488543 
L 100.884698 117.886835 
L 102.602268 113.949478 
L 104.319839 110.945274 
L 106.037409 109.213641 
L 107.754979 109.136327 
L 109.47255 111.069927 
L 111.19012 115.23829 
L 112.907691 121.610471 
L 114.625261 129.815587 
L 116.342832 139.146762 
L 118.060402 148.672539 
L 119.777972 157.423672 
L 121.495543 164.588436 
L 122.957975 168.897563 
L 121.495543 168.897563 
L 119.777972 168.897563 
L 118.060402 168.897563 
L 116.342832 168.897563 
L 114.625261 168.897563 
L 112.907691 168.897563 
L 111.19012 168.897563 
L 109.47255 168.897563 
L 107.754979 168.897563 
L 106.037409 168.897563 
L 104.319839 168.897563 
L 102.602268 168.897563 
L 100.884698 168.897563 
L 99.167127 168.897563 
L 97.449557 168.897563 
L 95.731986 168.897563 
L 94.014416 168.897563 
L 92.296845 168.897563 
L 90.579275 168.897563 
L 88.861705 168.897563 
z
" clip-path="url(#p4b6f159885)" style="fill: #6193cd; fill-opacity: 0.22; stroke: #6193cd; stroke-opacity: 0.22"/>
    <path d="M 129.824363 168.897563 
L 130.083395 168.419446 
L 131.800966 163.577641 
L 133.518536 157.074893 
L 135.236106 149.008807 
L 136.953677 139.769709 
L 138.671247 130.131297 
L 140.388818 121.154625 
L 142.106388 113.937602 
L 143.823959 109.313193 
L 145.541529 107.619246 
L 147.2591 108.605845 
L 148.97667 111.464032 
L 150.69424 114.94396 
L 152.411811 117.577172 
L 154.129381 118.02416 
L 155.846952 115.471344 
L 157.564522 109.896455 
L 159.282093 102.072023 
L 160.999663 93.362775 
L 162.717234 85.482657 
L 164.434804 80.306045 
L 166.152374 79.683748 
L 167.869945 85.137053 
L 169.587515 97.356572 
L 171.305086 115.626139 
L 173.022656 137.536864 
L 174.740227 159.399202 
L 175.647969 168.897563 
L 174.740227 168.897563 
L 173.022656 168.897563 
L 171.305086 168.897563 
L 169.587515 168.897563 
L 167.869945 168.897563 
L 166.152374 168.897563 
L 164.434804 168.897563 
L 162.717234 168.897563 
L 160.999663 168.897563 
L 159.282093 168.897563 
L 157.564522 168.897563 
L 155.846952 168.897563 
L 154.129381 168.897563 
L 152.411811 168.897563 
L 150.69424 168.897563 
L 148.97667 168.897563 
L 147.2591 168.897563 
L 145.541529 168.897563 
L 143.823959 168.897563 
L 142.106388 168.897563 
L 140.388818 168.897563 
L 138.671247 168.897563 
L 136.953677 168.897563 
L 135.236106 168.897563 
L 133.518536 168.897563 
L 131.800966 168.897563 
L 130.083395 168.897563 
z
" clip-path="url(#p4b6f159885)" style="fill: #6193cd; fill-opacity: 0.22; stroke: #6193cd; stroke-opacity: 0.22"/>
    <path d="M 185.072925 168.897563 
L 186.76322 155.687073 
L 188.48079 142.150136 
L 190.198361 129.618841 
L 191.915931 118.871239 
L 193.633501 110.39479 
L 195.351072 104.442015 
L 197.068642 101.079069 
L 198.786213 100.220084 
L 200.503783 101.645423 
L 202.221354 105.009399 
L 203.938924 109.849951 
L 205.656495 115.615008 
L 207.374065 121.717064 
L 209.091635 127.619819 
L 210.809206 132.94807 
L 212.526776 137.593735 
L 214.244347 141.774477 
L 215.961917 146.003053 
L 217.679488 150.955241 
L 219.397058 157.270835 
L 221.114629 165.358654 
L 221.72738 168.897563 
L 221.114629 168.897563 
L 219.397058 168.897563 
L 217.679488 168.897563 
L 215.961917 168.897563 
L 214.244347 168.897563 
L 212.526776 168.897563 
L 210.809206 168.897563 
L 209.091635 168.897563 
L 207.374065 168.897563 
L 205.656495 168.897563 
L 203.938924 168.897563 
L 202.221354 168.897563 
L 200.503783 168.897563 
L 198.786213 168.897563 
L 197.068642 168.897563 
L 195.351072 168.897563 
L 193.633501 168.897563 
L 191.915931 168.897563 
L 190.198361 168.897563 
L 188.48079 168.897563 
L 186.76322 168.897563 
z
" clip-path="url(#p4b6f159885)" style="fill: #6193cd; fill-opacity: 0.22; stroke: #6193cd; stroke-opacity: 0.22"/>
    <path d="M 360.893688 168.897563 
L 361.955405 168.166499 
L 363.672975 168.852553 
L 363.702423 168.897563 
L 363.672975 168.897563 
L 361.955405 168.897563 
z
" clip-path="url(#p4b6f159885)" style="fill: #6193cd; fill-opacity: 0.22; stroke: #6193cd; stroke-opacity: 0.22"/>
    <path d="M 447.949992 168.897563 
L 449.551497 164.141365 
L 451.269068 159.895749 
L 452.986638 156.695725 
L 454.704209 154.44112 
L 456.421779 152.847154 
L 458.139349 151.588054 
L 459.85692 150.421814 
L 461.57449 149.25393 
L 463.292061 148.127433 
L 465.009631 147.158323 
L 466.727202 146.455507 
L 468.444772 146.064804 
L 470.162343 145.959275 
L 471.879913 146.072984 
L 473.597483 146.35424 
L 475.315054 146.80614 
L 477.032624 147.489566 
L 478.750195 148.482937 
L 480.467765 149.815441 
L 482.185336 151.405642 
L 483.902906 153.037882 
L 485.620476 154.39424 
L 487.338047 155.136857 
L 489.055617 155.013657 
L 490.773188 153.948397 
L 492.490758 152.078105 
L 494.208329 149.71791 
L 495.925899 147.259872 
L 497.64347 145.038733 
L 499.36104 143.212887 
L 501.07861 141.706457 
L 502.796181 140.238479 
L 504.513751 138.434887 
L 506.231322 135.989111 
L 507.948892 132.817767 
L 509.666463 129.155515 
L 511.384033 125.549503 
L 513.101604 122.744723 
L 514.819174 121.487501 
L 516.536744 122.302853 
L 518.254315 125.312342 
L 519.971885 130.148294 
L 521.689456 135.992932 
L 523.407026 141.737699 
L 525.124597 146.227607 
L 526.842167 148.532426 
L 528.559738 148.17501 
L 530.277308 145.25319 
L 531.994878 140.417754 
L 533.712449 134.708215 
L 535.430019 129.288299 
L 537.14759 125.152076 
L 538.86516 122.880235 
L 540.582731 122.510306 
L 542.300301 123.550955 
L 544.017871 125.131686 
L 545.735442 126.24651 
L 547.453012 126.028559 
L 549.170583 123.985589 
L 550.888153 120.136729 
L 552.605724 115.017177 
L 554.323294 109.552107 
L 556.040865 104.83423 
L 557.758435 101.862585 
L 559.476005 101.306729 
L 561.193576 103.349386 
L 562.911146 107.638197 
L 564.628717 113.353101 
L 566.346287 119.374517 
L 568.063858 124.517816 
L 569.781428 127.783003 
L 571.498999 128.561722 
L 573.216569 126.752836 
L 574.934139 122.760892 
L 576.65171 117.380848 
L 578.36928 111.599443 
L 580.086851 106.361978 
L 581.804421 102.3584 
L 583.521992 99.873899 
L 585.239562 98.732275 
L 586.957133 98.341863 
L 588.674703 97.835685 
L 590.392273 96.278866 
L 592.109844 92.899748 
L 593.827414 87.292863 
L 595.544985 79.546454 
L 597.262555 70.263478 
L 598.980126 60.469923 
L 600.697696 51.43278 
L 602.415266 44.432462 
L 604.132837 40.539055 
L 605.850407 40.427427 
L 607.567978 44.247631 
L 609.285548 51.561275 
L 611.003119 61.361643 
L 612.720689 72.196882 
L 614.43826 82.394437 
L 616.15583 90.347802 
L 617.8734 94.800455 
L 619.590971 95.063861 
L 621.308541 91.12705 
L 623.026112 83.638131 
L 624.743682 73.762468 
L 626.461253 62.953439 
L 628.178823 52.697235 
L 629.896394 44.290248 
L 631.613964 38.675334 
L 633.331534 36.330566 
L 635.049105 37.199813 
L 636.766675 40.678188 
L 638.484246 45.687048 
L 640.201816 50.860967 
L 641.919387 54.82377 
L 643.636957 56.489936 
L 645.354528 55.320267 
L 647.072098 51.473426 
L 648.789668 45.8049 
L 650.507239 39.689143 
L 652.224809 34.708132 
L 653.94238 32.32248 
L 655.65995 33.632327 
L 657.377521 39.237656 
L 659.095091 49.126928 
L 660.812661 62.555032 
L 662.530232 78.004739 
L 664.247802 93.416312 
L 665.965373 106.728296 
L 667.682943 116.464841 
L 669.400514 122.019132 
L 671.118084 123.550919 
L 672.835655 121.685546 
L 674.553225 117.222231 
L 676.270795 110.942155 
L 676.270795 110.942155 
L 676.270795 168.897563 
L 674.553225 168.897563 
L 672.835655 168.897563 
L 671.118084 168.897563 
L 669.400514 168.897563 
L 667.682943 168.897563 
L 665.965373 168.897563 
L 664.247802 168.897563 
L 662.530232 168.897563 
L 660.812661 168.897563 
L 659.095091 168.897563 
L 657.377521 168.897563 
L 655.65995 168.897563 
L 653.94238 168.897563 
L 652.224809 168.897563 
L 650.507239 168.897563 
L 648.789668 168.897563 
L 647.072098 168.897563 
L 645.354528 168.897563 
L 643.636957 168.897563 
L 641.919387 168.897563 
L 640.201816 168.897563 
L 638.484246 168.897563 
L 636.766675 168.897563 
L 635.049105 168.897563 
L 633.331534 168.897563 
L 631.613964 168.897563 
L 629.896394 168.897563 
L 628.178823 168.897563 
L 626.461253 168.897563 
L 624.743682 168.897563 
L 623.026112 168.897563 
L 621.308541 168.897563 
L 619.590971 168.897563 
L 617.8734 168.897563 
L 616.15583 168.897563 
L 614.43826 168.897563 
L 612.720689 168.897563 
L 611.003119 168.897563 
L 609.285548 168.897563 
L 607.567978 168.897563 
L 605.850407 168.897563 
L 604.132837 168.897563 
L 602.415266 168.897563 
L 600.697696 168.897563 
L 598.980126 168.897563 
L 597.262555 168.897563 
L 595.544985 168.897563 
L 593.827414 168.897563 
L 592.109844 168.897563 
L 590.392273 168.897563 
L 588.674703 168.897563 
L 586.957133 168.897563 
L 585.239562 168.897563 
L 583.521992 168.897563 
L 581.804421 168.897563 
L 580.086851 168.897563 
L 578.36928 168.897563 
L 576.65171 168.897563 
L 574.934139 168.897563 
L 573.216569 168.897563 
L 571.498999 168.897563 
L 569.781428 168.897563 
L 568.063858 168.897563 
L 566.346287 168.897563 
L 564.628717 168.897563 
L 562.911146 168.897563 
L 561.193576 168.897563 
L 559.476005 168.897563 
L 557.758435 168.897563 
L 556.040865 168.897563 
L 554.323294 168.897563 
L 552.605724 168.897563 
L 550.888153 168.897563 
L 549.170583 168.897563 
L 547.453012 168.897563 
L 545.735442 168.897563 
L 544.017871 168.897563 
L 542.300301 168.897563 
L 540.582731 168.897563 
L 538.86516 168.897563 
L 537.14759 168.897563 
L 535.430019 168.897563 
L 533.712449 168.897563 
L 531.994878 168.897563 
L 530.277308 168.897563 
L 528.559738 168.897563 
L 526.842167 168.897563 
L 525.124597 168.897563 
L 523.407026 168.897563 
L 521.689456 168.897563 
L 519.971885 168.897563 
L 518.254315 168.897563 
L 516.536744 168.897563 
L 514.819174 168.897563 
L 513.101604 168.897563 
L 511.384033 168.897563 
L 509.666463 168.897563 
L 507.948892 168.897563 
L 506.231322 168.897563 
L 504.513751 168.897563 
L 502.796181 168.897563 
L 501.07861 168.897563 
L 499.36104 168.897563 
L 497.64347 168.897563 
L 495.925899 168.897563 
L 494.208329 168.897563 
L 492.490758 168.897563 
L 490.773188 168.897563 
L 489.055617 168.897563 
L 487.338047 168.897563 
L 485.620476 168.897563 
L 483.902906 168.897563 
L 482.185336 168.897563 
L 480.467765 168.897563 
L 478.750195 168.897563 
L 477.032624 168.897563 
L 475.315054 168.897563 
L 473.597483 168.897563 
L 471.879913 168.897563 
L 470.162343 168.897563 
L 468.444772 168.897563 
L 466.727202 168.897563 
L 465.009631 168.897563 
L 463.292061 168.897563 
L 461.57449 168.897563 
L 459.85692 168.897563 
L 458.139349 168.897563 
L 456.421779 168.897563 
L 454.704209 168.897563 
L 452.986638 168.897563 
L 451.269068 168.897563 
L 449.551497 168.897563 
z
" clip-path="url(#p4b6f159885)" style="fill: #6193cd; fill-opacity: 0.22; stroke: #6193cd; stroke-opacity: 0.22"/>
   </g>
   <g id="PolyCollection_2">
    <path d="M 122.957975 168.897563 
L 123.213113 169.64934 
L 124.930684 172.422018 
L 126.648254 172.993745 
L 128.365825 171.589713 
L 129.824363 168.897563 
L 128.365825 168.897563 
L 126.648254 168.897563 
L 124.930684 168.897563 
L 123.213113 168.897563 
z
" clip-path="url(#p4b6f159885)" style="fill: #6f0037; fill-opacity: 0.18; stroke: #6f0037; stroke-opacity: 0.18"/>
    <path d="M 175.647969 168.897563 
L 176.457797 177.371369 
L 178.175367 188.725054 
L 179.892938 192.508859 
L 181.610508 189.376758 
L 183.328079 180.939167 
L 185.045649 169.110739 
L 185.072925 168.897563 
L 185.045649 168.897563 
L 183.328079 168.897563 
L 181.610508 168.897563 
L 179.892938 168.897563 
L 178.175367 168.897563 
L 176.457797 168.897563 
z
" clip-path="url(#p4b6f159885)" style="fill: #6f0037; fill-opacity: 0.18; stroke: #6f0037; stroke-opacity: 0.18"/>
    <path d="M 221.72738 168.897563 
L 222.832199 175.278386 
L 224.549769 186.735092 
L 226.26734 199.169328 
L 227.98491 211.891536 
L 229.702481 224.209615 
L 231.420051 235.520814 
L 233.137622 245.362137 
L 234.855192 253.426998 
L 236.572762 259.560263 
L 238.290333 263.742839 
L 240.007903 266.073001 
L 241.725474 266.746636 
L 243.443044 266.034644 
L 245.160615 264.255223 
L 246.878185 261.741696 
L 248.595756 258.810515 
L 250.313326 255.735611 
L 252.030896 252.733183 
L 253.748467 249.957176 
L 255.466037 247.502659 
L 257.183608 245.413479 
L 258.901178 243.691474 
L 260.618749 242.306028 
L 262.336319 241.20394 
L 264.05389 240.319899 
L 265.77146 239.587468 
L 267.48903 238.949614 
L 269.206601 238.367051 
L 270.924171 237.822613 
L 272.641742 237.320634 
L 274.359312 236.881695 
L 276.076883 236.534334 
L 277.794453 236.305875 
L 279.512024 236.214344 
L 281.229594 236.262843 
L 282.947164 236.437014 
L 284.664735 236.705722 
L 286.382305 237.024648 
L 288.099876 237.342172 
L 289.817446 237.606649 
L 291.535017 237.774026 
L 293.252587 237.814706 
L 294.970157 237.718696 
L 296.687728 237.498344 
L 298.405298 237.188269 
L 300.122869 236.842431 
L 301.840439 236.528565 
L 303.55801 236.320505 
L 305.27558 236.289139 
L 306.993151 236.493025 
L 308.710721 236.969793 
L 310.428291 237.72947 
L 312.145862 238.750638 
L 313.863432 239.979857 
L 315.581003 241.334328 
L 317.298573 242.707262 
L 319.016144 243.975197 
L 320.733714 245.006504 
L 322.451285 245.670457 
L 324.168855 245.84649 
L 325.886425 245.433324 
L 327.603996 244.357685 
L 329.321566 242.58202 
L 331.039137 240.110352 
L 332.756707 236.990998 
L 334.474278 233.314718 
L 336.191848 229.207062 
L 337.909419 224.814517 
L 339.626989 220.285383 
L 341.344559 215.747963 
L 343.06213 211.290085 
L 344.7797 206.944753 
L 346.497271 202.68663 
L 348.214841 198.442987 
L 349.932412 194.120637 
L 351.649982 189.647177 
L 353.367552 185.020495 
L 355.085123 180.355321 
L 356.802693 175.910992 
L 358.520264 172.083324 
L 360.237834 169.349163 
L 360.893688 168.897563 
L 360.237834 168.897563 
L 358.520264 168.897563 
L 356.802693 168.897563 
L 355.085123 168.897563 
L 353.367552 168.897563 
L 351.649982 168.897563 
L 349.932412 168.897563 
L 348.214841 168.897563 
L 346.497271 168.897563 
L 344.7797 168.897563 
L 343.06213 168.897563 
L 341.344559 168.897563 
L 339.626989 168.897563 
L 337.909419 168.897563 
L 336.191848 168.897563 
L 334.474278 168.897563 
L 332.756707 168.897563 
L 331.039137 168.897563 
L 329.321566 168.897563 
L 327.603996 168.897563 
L 325.886425 168.897563 
L 324.168855 168.897563 
L 322.451285 168.897563 
L 320.733714 168.897563 
L 319.016144 168.897563 
L 317.298573 168.897563 
L 315.581003 168.897563 
L 313.863432 168.897563 
L 312.145862 168.897563 
L 310.428291 168.897563 
L 308.710721 168.897563 
L 306.993151 168.897563 
L 305.27558 168.897563 
L 303.55801 168.897563 
L 301.840439 168.897563 
L 300.122869 168.897563 
L 298.405298 168.897563 
L 296.687728 168.897563 
L 294.970157 168.897563 
L 293.252587 168.897563 
L 291.535017 168.897563 
L 289.817446 168.897563 
L 288.099876 168.897563 
L 286.382305 168.897563 
L 284.664735 168.897563 
L 282.947164 168.897563 
L 281.229594 168.897563 
L 279.512024 168.897563 
L 277.794453 168.897563 
L 276.076883 168.897563 
L 274.359312 168.897563 
L 272.641742 168.897563 
L 270.924171 168.897563 
L 269.206601 168.897563 
L 267.48903 168.897563 
L 265.77146 168.897563 
L 264.05389 168.897563 
L 262.336319 168.897563 
L 260.618749 168.897563 
L 258.901178 168.897563 
L 257.183608 168.897563 
L 255.466037 168.897563 
L 253.748467 168.897563 
L 252.030896 168.897563 
L 250.313326 168.897563 
L 248.595756 168.897563 
L 246.878185 168.897563 
L 245.160615 168.897563 
L 243.443044 168.897563 
L 241.725474 168.897563 
L 240.007903 168.897563 
L 238.290333 168.897563 
L 236.572762 168.897563 
L 234.855192 168.897563 
L 233.137622 168.897563 
L 231.420051 168.897563 
L 229.702481 168.897563 
L 227.98491 168.897563 
L 226.26734 168.897563 
L 224.549769 168.897563 
L 222.832199 168.897563 
z
" clip-path="url(#p4b6f159885)" style="fill: #6f0037; fill-opacity: 0.18; stroke: #6f0037; stroke-opacity: 0.18"/>
    <path d="M 363.702423 168.897563 
L 365.390546 171.477796 
L 367.108116 175.815478 
L 368.825686 181.370185 
L 370.543257 187.480897 
L 372.260827 193.465947 
L 373.978398 198.762232 
L 375.695968 203.016535 
L 377.413539 206.109395 
L 379.131109 208.118388 
L 380.84868 209.245133 
L 382.56625 209.734092 
L 384.28382 209.804482 
L 386.001391 209.605437 
L 387.718961 209.194847 
L 389.436532 208.53792 
L 391.154102 207.522789 
L 392.871673 205.993821 
L 394.589243 203.803427 
L 396.306814 200.87751 
L 398.024384 197.279952 
L 399.741954 193.253731 
L 401.459525 189.216676 
L 403.177095 185.701233 
L 404.894666 183.246698 
L 406.612236 182.271027 
L 408.329807 182.958695 
L 410.047377 185.197076 
L 411.764948 188.578732 
L 413.482518 192.468334 
L 415.200088 196.117841 
L 416.917659 198.805458 
L 418.635229 199.972289 
L 420.3528 199.332949 
L 422.07037 196.940661 
L 423.787941 193.19227 
L 425.505511 188.765198 
L 427.223081 184.488288 
L 428.940652 181.163295 
L 430.658222 179.371723 
L 432.375793 179.316352 
L 434.093363 180.748456 
L 435.810934 183.013799 
L 437.528504 185.215306 
L 439.246075 186.450532 
L 440.963645 186.053738 
L 442.681215 183.767718 
L 444.398786 179.792418 
L 446.116356 174.698822 
L 447.833927 169.242257 
L 447.949992 168.897563 
L 447.833927 168.897563 
L 446.116356 168.897563 
L 444.398786 168.897563 
L 442.681215 168.897563 
L 440.963645 168.897563 
L 439.246075 168.897563 
L 437.528504 168.897563 
L 435.810934 168.897563 
L 434.093363 168.897563 
L 432.375793 168.897563 
L 430.658222 168.897563 
L 428.940652 168.897563 
L 427.223081 168.897563 
L 425.505511 168.897563 
L 423.787941 168.897563 
L 422.07037 168.897563 
L 420.3528 168.897563 
L 418.635229 168.897563 
L 416.917659 168.897563 
L 415.200088 168.897563 
L 413.482518 168.897563 
L 411.764948 168.897563 
L 410.047377 168.897563 
L 408.329807 168.897563 
L 406.612236 168.897563 
L 404.894666 168.897563 
L 403.177095 168.897563 
L 401.459525 168.897563 
L 399.741954 168.897563 
L 398.024384 168.897563 
L 396.306814 168.897563 
L 394.589243 168.897563 
L 392.871673 168.897563 
L 391.154102 168.897563 
L 389.436532 168.897563 
L 387.718961 168.897563 
L 386.001391 168.897563 
L 384.28382 168.897563 
L 382.56625 168.897563 
L 380.84868 168.897563 
L 379.131109 168.897563 
L 377.413539 168.897563 
L 375.695968 168.897563 
L 373.978398 168.897563 
L 372.260827 168.897563 
L 370.543257 168.897563 
L 368.825686 168.897563 
L 367.108116 168.897563 
L 365.390546 168.897563 
z
" clip-path="url(#p4b6f159885)" style="fill: #6f0037; fill-opacity: 0.18; stroke: #6f0037; stroke-opacity: 0.18"/>
   </g>
   <g id="matplotlib.axis_1">
    <g id="xtick_1">
     <g id="line2d_1">
      <defs>
       <path id="m32fb41e4ea" d="M 0 0 
L 0 3.5 
" style="stroke: #000000; stroke-width: 0.8"/>
      </defs>
      <g>
       <use xlink:href="#m32fb41e4ea" x="143.823959" y="298.6" style="stroke: #000000; stroke-width: 0.8"/>
      </g>
     </g>
     <g id="text_1">
      <!-- 400 -->
      <g transform="translate(134.280209 313.198437) scale(0.1 -0.1)">
       <defs>
        <path id="DejaVuSans-34" d="M 2419 4116 
L 825 1625 
L 2419 1625 
L 2419 4116 
z
M 2253 4666 
L 3047 4666 
L 3047 1625 
L 3713 1625 
L 3713 1100 
L 3047 1100 
L 3047 0 
L 2419 0 
L 2419 1100 
L 313 1100 
L 313 1709 
L 2253 4666 
z
" transform="scale(0.015625)"/>
        <path id="DejaVuSans-30" d="M 2034 4250 
Q 1547 4250 1301 3770 
Q 1056 3291 1056 2328 
Q 1056 1369 1301 889 
Q 1547 409 2034 409 
Q 2525 409 2770 889 
Q 3016 1369 3016 2328 
Q 3016 3291 2770 3770 
Q 2525 4250 2034 4250 
z
M 2034 4750 
Q 2819 4750 3233 4129 
Q 3647 3509 3647 2328 
Q 3647 1150 3233 529 
Q 2819 -91 2034 -91 
Q 1250 -91 836 529 
Q 422 1150 422 2328 
Q 422 3509 836 4129 
Q 1250 4750 2034 4750 
z
" transform="scale(0.015625)"/>
       </defs>
       <use xlink:href="#DejaVuSans-34"/>
       <use xlink:href="#DejaVuSans-30" x="63.623047"/>
       <use xlink:href="#DejaVuSans-30" x="127.246094"/>
      </g>
     </g>
    </g>
    <g id="xtick_2">
     <g id="line2d_2">
      <g>
       <use xlink:href="#m32fb41e4ea" x="229.702481" y="298.6" style="stroke: #000000; stroke-width: 0.8"/>
      </g>
     </g>
     <g id="text_2">
      <!-- 500 -->
      <g transform="translate(220.158731 313.198437) scale(0.1 -0.1)">
       <defs>
        <path id="DejaVuSans-35" d="M 691 4666 
L 3169 4666 
L 3169 4134 
L 1269 4134 
L 1269 2991 
Q 1406 3038 1543 3061 
Q 1681 3084 1819 3084 
Q 2600 3084 3056 2656 
Q 3513 2228 3513 1497 
Q 3513 744 3044 326 
Q 2575 -91 1722 -91 
Q 1428 -91 1123 -41 
Q 819 9 494 109 
L 494 744 
Q 775 591 1075 516 
Q 1375 441 1709 441 
Q 2250 441 2565 725 
Q 2881 1009 2881 1497 
Q 2881 1984 2565 2268 
Q 2250 2553 1709 2553 
Q 1456 2553 1204 2497 
Q 953 2441 691 2322 
L 691 4666 
z
" transform="scale(0.015625)"/>
       </defs>
       <use xlink:href="#DejaVuSans-35"/>
       <use xlink:href="#DejaVuSans-30" x="63.623047"/>
       <use xlink:href="#DejaVuSans-30" x="127.246094"/>
      </g>
     </g>
    </g>
    <g id="xtick_3">
     <g id="line2d_3">
      <g>
       <use xlink:href="#m32fb41e4ea" x="315.581003" y="298.6" style="stroke: #000000; stroke-width: 0.8"/>
      </g>
     </g>
     <g id="text_3">
      <!-- 600 -->
      <g transform="translate(306.037253 313.198437) scale(0.1 -0.1)">
       <defs>
        <path id="DejaVuSans-36" d="M 2113 2584 
Q 1688 2584 1439 2293 
Q 1191 2003 1191 1497 
Q 1191 994 1439 701 
Q 1688 409 2113 409 
Q 2538 409 2786 701 
Q 3034 994 3034 1497 
Q 3034 2003 2786 2293 
Q 2538 2584 2113 2584 
z
M 3366 4563 
L 3366 3988 
Q 3128 4100 2886 4159 
Q 2644 4219 2406 4219 
Q 1781 4219 1451 3797 
Q 1122 3375 1075 2522 
Q 1259 2794 1537 2939 
Q 1816 3084 2150 3084 
Q 2853 3084 3261 2657 
Q 3669 2231 3669 1497 
Q 3669 778 3244 343 
Q 2819 -91 2113 -91 
Q 1303 -91 875 529 
Q 447 1150 447 2328 
Q 447 3434 972 4092 
Q 1497 4750 2381 4750 
Q 2619 4750 2861 4703 
Q 3103 4656 3366 4563 
z
" transform="scale(0.015625)"/>
       </defs>
       <use xlink:href="#DejaVuSans-36"/>
       <use xlink:href="#DejaVuSans-30" x="63.623047"/>
       <use xlink:href="#DejaVuSans-30" x="127.246094"/>
      </g>
     </g>
    </g>
    <g id="xtick_4">
     <g id="line2d_4">
      <g>
       <use xlink:href="#m32fb41e4ea" x="401.459525" y="298.6" style="stroke: #000000; stroke-width: 0.8"/>
      </g>
     </g>
     <g id="text_4">
      <!-- 700 -->
      <g transform="translate(391.915775 313.198437) scale(0.1 -0.1)">
       <defs>
        <path id="DejaVuSans-37" d="M 525 4666 
L 3525 4666 
L 3525 4397 
L 1831 0 
L 1172 0 
L 2766 4134 
L 525 4134 
L 525 4666 
z
" transform="scale(0.015625)"/>
       </defs>
       <use xlink:href="#DejaVuSans-37"/>
       <use xlink:href="#DejaVuSans-30" x="63.623047"/>
       <use xlink:href="#DejaVuSans-30" x="127.246094"/>
      </g>
     </g>
    </g>
    <g id="xtick_5">
     <g id="line2d_5">
      <g>
       <use xlink:href="#m32fb41e4ea" x="487.338047" y="298.6" style="stroke: #000000; stroke-width: 0.8"/>
      </g>
     </g>
     <g id="text_5">
      <!-- 800 -->
      <g transform="translate(477.794297 313.198437) scale(0.1 -0.1)">
       <defs>
        <path id="DejaVuSans-38" d="M 2034 2216 
Q 1584 2216 1326 1975 
Q 1069 1734 1069 1313 
Q 1069 891 1326 650 
Q 1584 409 2034 409 
Q 2484 409 2743 651 
Q 3003 894 3003 1313 
Q 3003 1734 2745 1975 
Q 2488 2216 2034 2216 
z
M 1403 2484 
Q 997 2584 770 2862 
Q 544 3141 544 3541 
Q 544 4100 942 4425 
Q 1341 4750 2034 4750 
Q 2731 4750 3128 4425 
Q 3525 4100 3525 3541 
Q 3525 3141 3298 2862 
Q 3072 2584 2669 2484 
Q 3125 2378 3379 2068 
Q 3634 1759 3634 1313 
Q 3634 634 3220 271 
Q 2806 -91 2034 -91 
Q 1263 -91 848 271 
Q 434 634 434 1313 
Q 434 1759 690 2068 
Q 947 2378 1403 2484 
z
M 1172 3481 
Q 1172 3119 1398 2916 
Q 1625 2713 2034 2713 
Q 2441 2713 2670 2916 
Q 2900 3119 2900 3481 
Q 2900 3844 2670 4047 
Q 2441 4250 2034 4250 
Q 1625 4250 1398 4047 
Q 1172 3844 1172 3481 
z
" transform="scale(0.015625)"/>
       </defs>
       <use xlink:href="#DejaVuSans-38"/>
       <use xlink:href="#DejaVuSans-30" x="63.623047"/>
       <use xlink:href="#DejaVuSans-30" x="127.246094"/>
      </g>
     </g>
    </g>
    <g id="xtick_6">
     <g id="line2d_6">
      <g>
       <use xlink:href="#m32fb41e4ea" x="573.216569" y="298.6" style="stroke: #000000; stroke-width: 0.8"/>
      </g>
     </g>
     <g id="text_6">
      <!-- 900 -->
      <g transform="translate(563.672819 313.198437) scale(0.1 -0.1)">
       <defs>
        <path id="DejaVuSans-39" d="M 703 97 
L 703 672 
Q 941 559 1184 500 
Q 1428 441 1663 441 
Q 2288 441 2617 861 
Q 2947 1281 2994 2138 
Q 2813 1869 2534 1725 
Q 2256 1581 1919 1581 
Q 1219 1581 811 2004 
Q 403 2428 403 3163 
Q 403 3881 828 4315 
Q 1253 4750 1959 4750 
Q 2769 4750 3195 4129 
Q 3622 3509 3622 2328 
Q 3622 1225 3098 567 
Q 2575 -91 1691 -91 
Q 1453 -91 1209 -44 
Q 966 3 703 97 
z
M 1959 2075 
Q 2384 2075 2632 2365 
Q 2881 2656 2881 3163 
Q 2881 3666 2632 3958 
Q 2384 4250 1959 4250 
Q 1534 4250 1286 3958 
Q 1038 3666 1038 3163 
Q 1038 2656 1286 2365 
Q 1534 2075 1959 2075 
z
" transform="scale(0.015625)"/>
       </defs>
       <use xlink:href="#DejaVuSans-39"/>
       <use xlink:href="#DejaVuSans-30" x="63.623047"/>
       <use xlink:href="#DejaVuSans-30" x="127.246094"/>
      </g>
     </g>
    </g>
    <g id="xtick_7">
     <g id="line2d_7">
      <g>
       <use xlink:href="#m32fb41e4ea" x="659.095091" y="298.6" style="stroke: #000000; stroke-width: 0.8"/>
      </g>
     </g>
     <g id="text_7">
      <!-- 1000 -->
      <g transform="translate(646.370091 313.198437) scale(0.1 -0.1)">
       <defs>
        <path id="DejaVuSans-31" d="M 794 531 
L 1825 531 
L 1825 4091 
L 703 3866 
L 703 4441 
L 1819 4666 
L 2450 4666 
L 2450 531 
L 3481 531 
L 3481 0 
L 794 0 
L 794 531 
z
" transform="scale(0.015625)"/>
       </defs>
       <use xlink:href="#DejaVuSans-31"/>
       <use xlink:href="#DejaVuSans-30" x="63.623047"/>
       <use xlink:href="#DejaVuSans-30" x="127.246094"/>
       <use xlink:href="#DejaVuSans-30" x="190.869141"/>
      </g>
     </g>
    </g>
    <g id="text_8">
     <!-- Bangos ilgis, nm -->
     <g transform="translate(337.186953 327.636406) scale(0.11 -0.11)">
      <defs>
       <path id="DejaVuSans-42" d="M 1259 2228 
L 1259 519 
L 2272 519 
Q 2781 519 3026 730 
Q 3272 941 3272 1375 
Q 3272 1813 3026 2020 
Q 2781 2228 2272 2228 
L 1259 2228 
z
M 1259 4147 
L 1259 2741 
L 2194 2741 
Q 2656 2741 2882 2914 
Q 3109 3088 3109 3444 
Q 3109 3797 2882 3972 
Q 2656 4147 2194 4147 
L 1259 4147 
z
M 628 4666 
L 2241 4666 
Q 2963 4666 3353 4366 
Q 3744 4066 3744 3513 
Q 3744 3084 3544 2831 
Q 3344 2578 2956 2516 
Q 3422 2416 3680 2098 
Q 3938 1781 3938 1306 
Q 3938 681 3513 340 
Q 3088 0 2303 0 
L 628 0 
L 628 4666 
z
" transform="scale(0.015625)"/>
       <path id="DejaVuSans-61" d="M 2194 1759 
Q 1497 1759 1228 1600 
Q 959 1441 959 1056 
Q 959 750 1161 570 
Q 1363 391 1709 391 
Q 2188 391 2477 730 
Q 2766 1069 2766 1631 
L 2766 1759 
L 2194 1759 
z
M 3341 1997 
L 3341 0 
L 2766 0 
L 2766 531 
Q 2569 213 2275 61 
Q 1981 -91 1556 -91 
Q 1019 -91 701 211 
Q 384 513 384 1019 
Q 384 1609 779 1909 
Q 1175 2209 1959 2209 
L 2766 2209 
L 2766 2266 
Q 2766 2663 2505 2880 
Q 2244 3097 1772 3097 
Q 1472 3097 1187 3025 
Q 903 2953 641 2809 
L 641 3341 
Q 956 3463 1253 3523 
Q 1550 3584 1831 3584 
Q 2591 3584 2966 3190 
Q 3341 2797 3341 1997 
z
" transform="scale(0.015625)"/>
       <path id="DejaVuSans-6e" d="M 3513 2113 
L 3513 0 
L 2938 0 
L 2938 2094 
Q 2938 2591 2744 2837 
Q 2550 3084 2163 3084 
Q 1697 3084 1428 2787 
Q 1159 2491 1159 1978 
L 1159 0 
L 581 0 
L 581 3500 
L 1159 3500 
L 1159 2956 
Q 1366 3272 1645 3428 
Q 1925 3584 2291 3584 
Q 2894 3584 3203 3211 
Q 3513 2838 3513 2113 
z
" transform="scale(0.015625)"/>
       <path id="DejaVuSans-67" d="M 2906 1791 
Q 2906 2416 2648 2759 
Q 2391 3103 1925 3103 
Q 1463 3103 1205 2759 
Q 947 2416 947 1791 
Q 947 1169 1205 825 
Q 1463 481 1925 481 
Q 2391 481 2648 825 
Q 2906 1169 2906 1791 
z
M 3481 434 
Q 3481 -459 3084 -895 
Q 2688 -1331 1869 -1331 
Q 1566 -1331 1297 -1286 
Q 1028 -1241 775 -1147 
L 775 -588 
Q 1028 -725 1275 -790 
Q 1522 -856 1778 -856 
Q 2344 -856 2625 -561 
Q 2906 -266 2906 331 
L 2906 616 
Q 2728 306 2450 153 
Q 2172 0 1784 0 
Q 1141 0 747 490 
Q 353 981 353 1791 
Q 353 2603 747 3093 
Q 1141 3584 1784 3584 
Q 2172 3584 2450 3431 
Q 2728 3278 2906 2969 
L 2906 3500 
L 3481 3500 
L 3481 434 
z
" transform="scale(0.015625)"/>
       <path id="DejaVuSans-6f" d="M 1959 3097 
Q 1497 3097 1228 2736 
Q 959 2375 959 1747 
Q 959 1119 1226 758 
Q 1494 397 1959 397 
Q 2419 397 2687 759 
Q 2956 1122 2956 1747 
Q 2956 2369 2687 2733 
Q 2419 3097 1959 3097 
z
M 1959 3584 
Q 2709 3584 3137 3096 
Q 3566 2609 3566 1747 
Q 3566 888 3137 398 
Q 2709 -91 1959 -91 
Q 1206 -91 779 398 
Q 353 888 353 1747 
Q 353 2609 779 3096 
Q 1206 3584 1959 3584 
z
" transform="scale(0.015625)"/>
       <path id="DejaVuSans-73" d="M 2834 3397 
L 2834 2853 
Q 2591 2978 2328 3040 
Q 2066 3103 1784 3103 
Q 1356 3103 1142 2972 
Q 928 2841 928 2578 
Q 928 2378 1081 2264 
Q 1234 2150 1697 2047 
L 1894 2003 
Q 2506 1872 2764 1633 
Q 3022 1394 3022 966 
Q 3022 478 2636 193 
Q 2250 -91 1575 -91 
Q 1294 -91 989 -36 
Q 684 19 347 128 
L 347 722 
Q 666 556 975 473 
Q 1284 391 1588 391 
Q 1994 391 2212 530 
Q 2431 669 2431 922 
Q 2431 1156 2273 1281 
Q 2116 1406 1581 1522 
L 1381 1569 
Q 847 1681 609 1914 
Q 372 2147 372 2553 
Q 372 3047 722 3315 
Q 1072 3584 1716 3584 
Q 2034 3584 2315 3537 
Q 2597 3491 2834 3397 
z
" transform="scale(0.015625)"/>
       <path id="DejaVuSans-20" transform="scale(0.015625)"/>
       <path id="DejaVuSans-69" d="M 603 3500 
L 1178 3500 
L 1178 0 
L 603 0 
L 603 3500 
z
M 603 4863 
L 1178 4863 
L 1178 4134 
L 603 4134 
L 603 4863 
z
" transform="scale(0.015625)"/>
       <path id="DejaVuSans-6c" d="M 603 4863 
L 1178 4863 
L 1178 0 
L 603 0 
L 603 4863 
z
" transform="scale(0.015625)"/>
       <path id="DejaVuSans-2c" d="M 750 794 
L 1409 794 
L 1409 256 
L 897 -744 
L 494 -744 
L 750 256 
L 750 794 
z
" transform="scale(0.015625)"/>
       <path id="DejaVuSans-6d" d="M 3328 2828 
Q 3544 3216 3844 3400 
Q 4144 3584 4550 3584 
Q 5097 3584 5394 3201 
Q 5691 2819 5691 2113 
L 5691 0 
L 5113 0 
L 5113 2094 
Q 5113 2597 4934 2840 
Q 4756 3084 4391 3084 
Q 3944 3084 3684 2787 
Q 3425 2491 3425 1978 
L 3425 0 
L 2847 0 
L 2847 2094 
Q 2847 2600 2669 2842 
Q 2491 3084 2119 3084 
Q 1678 3084 1418 2786 
Q 1159 2488 1159 1978 
L 1159 0 
L 581 0 
L 581 3500 
L 1159 3500 
L 1159 2956 
Q 1356 3278 1631 3431 
Q 1906 3584 2284 3584 
Q 2666 3584 2933 3390 
Q 3200 3197 3328 2828 
z
" transform="scale(0.015625)"/>
      </defs>
      <use xlink:href="#DejaVuSans-42"/>
      <use xlink:href="#DejaVuSans-61" x="68.603516"/>
      <use xlink:href="#DejaVuSans-6e" x="129.882812"/>
      <use xlink:href="#DejaVuSans-67" x="193.261719"/>
      <use xlink:href="#DejaVuSans-6f" x="256.738281"/>
      <use xlink:href="#DejaVuSans-73" x="317.919922"/>
      <use xlink:href="#DejaVuSans-20" x="370.019531"/>
      <use xlink:href="#DejaVuSans-69" x="401.806641"/>
      <use xlink:href="#DejaVuSans-6c" x="429.589844"/>
      <use xlink:href="#DejaVuSans-67" x="457.373047"/>
      <use xlink:href="#DejaVuSans-69" x="520.849609"/>
      <use xlink:href="#DejaVuSans-73" x="548.632812"/>
      <use xlink:href="#DejaVuSans-2c" x="600.732422"/>
      <use xlink:href="#DejaVuSans-20" x="632.519531"/>
      <use xlink:href="#DejaVuSans-6e" x="664.306641"/>
      <use xlink:href="#DejaVuSans-6d" x="727.685547"/>
     </g>
    </g>
   </g>
   <g id="matplotlib.axis_2">
    <g id="ytick_1">
     <g id="line2d_8">
      <defs>
       <path id="m9123aaafd9" d="M 0 0 
L -3.5 0 
" style="stroke: #000000; stroke-width: 0.8"/>
      </defs>
      <g>
       <use xlink:href="#m9123aaafd9" x="59.49125" y="270.584011" style="stroke: #000000; stroke-width: 0.8"/>
      </g>
     </g>
     <g id="text_9">
      <!-- −0.10 -->
      <g transform="translate(21.845938 274.38323) scale(0.1 -0.1)">
       <defs>
        <path id="DejaVuSans-2212" d="M 678 2272 
L 4684 2272 
L 4684 1741 
L 678 1741 
L 678 2272 
z
" transform="scale(0.015625)"/>
        <path id="DejaVuSans-2e" d="M 684 794 
L 1344 794 
L 1344 0 
L 684 0 
L 684 794 
z
" transform="scale(0.015625)"/>
       </defs>
       <use xlink:href="#DejaVuSans-2212"/>
       <use xlink:href="#DejaVuSans-30" x="83.789062"/>
       <use xlink:href="#DejaVuSans-2e" x="147.412109"/>
       <use xlink:href="#DejaVuSans-31" x="179.199219"/>
       <use xlink:href="#DejaVuSans-30" x="242.822266"/>
      </g>
     </g>
    </g>
    <g id="ytick_2">
     <g id="line2d_9">
      <g>
       <use xlink:href="#m9123aaafd9" x="59.49125" y="219.740787" style="stroke: #000000; stroke-width: 0.8"/>
      </g>
     </g>
     <g id="text_10">
      <!-- −0.05 -->
      <g transform="translate(21.845938 223.540006) scale(0.1 -0.1)">
       <use xlink:href="#DejaVuSans-2212"/>
       <use xlink:href="#DejaVuSans-30" x="83.789062"/>
       <use xlink:href="#DejaVuSans-2e" x="147.412109"/>
       <use xlink:href="#DejaVuSans-30" x="179.199219"/>
       <use xlink:href="#DejaVuSans-35" x="242.822266"/>
      </g>
     </g>
    </g>
    <g id="ytick_3">
     <g id="line2d_10">
      <g>
       <use xlink:href="#m9123aaafd9" x="59.49125" y="168.897563" style="stroke: #000000; stroke-width: 0.8"/>
      </g>
     </g>
     <g id="text_11">
      <!-- 0.00 -->
      <g transform="translate(30.225625 172.696782) scale(0.1 -0.1)">
       <use xlink:href="#DejaVuSans-30"/>
       <use xlink:href="#DejaVuSans-2e" x="63.623047"/>
       <use xlink:href="#DejaVuSans-30" x="95.410156"/>
       <use xlink:href="#DejaVuSans-30" x="159.033203"/>
      </g>
     </g>
    </g>
    <g id="ytick_4">
     <g id="line2d_11">
      <g>
       <use xlink:href="#m9123aaafd9" x="59.49125" y="118.05434" style="stroke: #000000; stroke-width: 0.8"/>
      </g>
     </g>
     <g id="text_12">
      <!-- 0.05 -->
      <g transform="translate(30.225625 121.853558) scale(0.1 -0.1)">
       <use xlink:href="#DejaVuSans-30"/>
       <use xlink:href="#DejaVuSans-2e" x="63.623047"/>
       <use xlink:href="#DejaVuSans-30" x="95.410156"/>
       <use xlink:href="#DejaVuSans-35" x="159.033203"/>
      </g>
     </g>
    </g>
    <g id="ytick_5">
     <g id="line2d_12">
      <g>
       <use xlink:href="#m9123aaafd9" x="59.49125" y="67.211116" style="stroke: #000000; stroke-width: 0.8"/>
      </g>
     </g>
     <g id="text_13">
      <!-- 0.10 -->
      <g transform="translate(30.225625 71.010334) scale(0.1 -0.1)">
       <use xlink:href="#DejaVuSans-30"/>
       <use xlink:href="#DejaVuSans-2e" x="63.623047"/>
       <use xlink:href="#DejaVuSans-31" x="95.410156"/>
       <use xlink:href="#DejaVuSans-30" x="159.033203"/>
      </g>
     </g>
    </g>
    <g id="ytick_6">
     <g id="line2d_13">
      <g>
       <use xlink:href="#m9123aaafd9" x="59.49125" y="16.367892" style="stroke: #000000; stroke-width: 0.8"/>
      </g>
     </g>
     <g id="text_14">
      <!-- 0.15 -->
      <g transform="translate(30.225625 20.16711) scale(0.1 -0.1)">
       <use xlink:href="#DejaVuSans-30"/>
       <use xlink:href="#DejaVuSans-2e" x="63.623047"/>
       <use xlink:href="#DejaVuSans-31" x="95.410156"/>
       <use xlink:href="#DejaVuSans-35" x="159.033203"/>
      </g>
     </g>
    </g>
    <g id="text_15">
     <!-- Svoris -->
     <g transform="translate(15.558281 169.666406) rotate(-90) scale(0.11 -0.11)">
      <defs>
       <path id="DejaVuSans-53" d="M 3425 4513 
L 3425 3897 
Q 3066 4069 2747 4153 
Q 2428 4238 2131 4238 
Q 1616 4238 1336 4038 
Q 1056 3838 1056 3469 
Q 1056 3159 1242 3001 
Q 1428 2844 1947 2747 
L 2328 2669 
Q 3034 2534 3370 2195 
Q 3706 1856 3706 1288 
Q 3706 609 3251 259 
Q 2797 -91 1919 -91 
Q 1588 -91 1214 -16 
Q 841 59 441 206 
L 441 856 
Q 825 641 1194 531 
Q 1563 422 1919 422 
Q 2459 422 2753 634 
Q 3047 847 3047 1241 
Q 3047 1584 2836 1778 
Q 2625 1972 2144 2069 
L 1759 2144 
Q 1053 2284 737 2584 
Q 422 2884 422 3419 
Q 422 4038 858 4394 
Q 1294 4750 2059 4750 
Q 2388 4750 2728 4690 
Q 3069 4631 3425 4513 
z
" transform="scale(0.015625)"/>
       <path id="DejaVuSans-76" d="M 191 3500 
L 800 3500 
L 1894 563 
L 2988 3500 
L 3597 3500 
L 2284 0 
L 1503 0 
L 191 3500 
z
" transform="scale(0.015625)"/>
       <path id="DejaVuSans-72" d="M 2631 2963 
Q 2534 3019 2420 3045 
Q 2306 3072 2169 3072 
Q 1681 3072 1420 2755 
Q 1159 2438 1159 1844 
L 1159 0 
L 581 0 
L 581 3500 
L 1159 3500 
L 1159 2956 
Q 1341 3275 1631 3429 
Q 1922 3584 2338 3584 
Q 2397 3584 2469 3576 
Q 2541 3569 2628 3553 
L 2631 2963 
z
" transform="scale(0.015625)"/>
      </defs>
      <use xlink:href="#DejaVuSans-53"/>
      <use xlink:href="#DejaVuSans-76" x="63.476562"/>
      <use xlink:href="#DejaVuSans-6f" x="122.65625"/>
      <use xlink:href="#DejaVuSans-72" x="183.837891"/>
      <use xlink:href="#DejaVuSans-69" x="224.951172"/>
      <use xlink:href="#DejaVuSans-73" x="252.734375"/>
     </g>
    </g>
   </g>
   <g id="line2d_14">
    <path d="M 88.861705 212.547326 
L 90.579275 121.350061 
L 92.296845 116.088922 
L 94.014416 151.619045 
L 95.731986 165.532878 
L 97.449557 144.232055 
L 99.167127 128.218266 
L 100.884698 137.130264 
L 102.602268 137.544553 
L 104.319839 113.372086 
L 106.037409 112.724263 
L 107.754979 144.105335 
L 109.47255 150.929744 
L 112.907691 62.181967 
L 114.625261 77.025181 
L 116.342832 151.743611 
L 118.060402 217.806846 
L 119.777972 219.965354 
L 121.495543 185.430862 
L 123.213113 167.921746 
L 124.930684 179.200851 
L 126.648254 188.313607 
L 128.365825 171.620922 
L 130.083395 149.862078 
L 131.800966 151.262868 
L 133.518536 166.086795 
L 135.236106 169.077962 
L 136.953677 150.642205 
L 138.671247 123.669393 
L 140.388818 104.080002 
L 142.106388 92.044612 
L 143.823959 85.964922 
L 145.541529 82.687086 
L 147.2591 77.457824 
L 148.97667 76.540429 
L 150.69424 93.187875 
L 152.411811 129.083556 
L 154.129381 160.152109 
L 155.846952 162.088991 
L 157.564522 139.504356 
L 159.282093 112.87726 
L 160.999663 91.082649 
L 162.717234 72.883434 
L 164.434804 57.17631 
L 166.152374 48.13148 
L 167.869945 52.059099 
L 169.587515 70.463645 
L 171.305086 103.73545 
L 173.022656 147.144776 
L 174.740227 185.965919 
L 176.457797 210.477032 
L 178.175367 218.189256 
L 179.892938 212.558088 
L 181.610508 200.531327 
L 185.045649 172.11821 
L 188.48079 141.964167 
L 193.633501 91.768444 
L 195.351072 80.92728 
L 197.068642 76.214767 
L 198.786213 77.609569 
L 200.503783 84.521378 
L 202.221354 95.434226 
L 205.656495 119.833894 
L 207.374065 129.22259 
L 209.091635 135.155648 
L 210.809206 137.462066 
L 212.526776 136.953484 
L 214.244347 135.308099 
L 215.961917 134.662006 
L 217.679488 137.061286 
L 219.397058 143.753015 
L 221.114629 154.604456 
L 222.832199 168.327657 
L 227.98491 212.877009 
L 229.702481 226.378354 
L 231.420051 238.867861 
L 233.137622 250.363982 
L 234.855192 260.824586 
L 236.572762 270.034605 
L 238.290333 277.565072 
L 240.007903 282.842907 
L 241.725474 285.354545 
L 243.443044 284.904316 
L 245.160615 281.764366 
L 246.878185 276.60382 
L 250.313326 263.532397 
L 252.030896 257.0376 
L 253.748467 251.222731 
L 255.466037 246.375964 
L 257.183608 242.654663 
L 258.901178 240.102239 
L 260.618749 238.655931 
L 262.336319 238.159372 
L 264.05389 238.384809 
L 265.77146 239.069131 
L 270.924171 241.683036 
L 272.641742 242.362648 
L 276.076883 243.386841 
L 279.512024 244.064384 
L 281.229594 244.231157 
L 282.947164 244.221084 
L 284.664735 243.980654 
L 286.382305 243.466847 
L 288.099876 242.657232 
L 289.817446 241.557858 
L 291.535017 240.2084 
L 298.405298 234.221361 
L 300.122869 233.223603 
L 301.840439 232.675318 
L 303.55801 232.65736 
L 305.27558 233.212794 
L 306.993151 234.342855 
L 308.710721 236.00865 
L 310.428291 238.131864 
L 312.145862 240.598358 
L 317.298573 248.457934 
L 319.016144 250.594692 
L 320.733714 252.158219 
L 322.451285 252.972848 
L 324.168855 252.901352 
L 325.886425 251.86084 
L 327.603996 249.83301 
L 329.321566 246.865728 
L 331.039137 243.067529 
L 332.756707 238.593832 
L 336.191848 228.362878 
L 341.344559 212.51118 
L 343.06213 207.667851 
L 344.7797 203.205568 
L 346.497271 202.8385 
L 348.214841 205.412331 
L 349.932412 200.955991 
L 351.649982 189.896047 
L 353.367552 182.397114 
L 355.085123 185.13471 
L 356.802693 190.210635 
L 358.520264 187.792795 
L 360.237834 174.65559 
L 361.955405 156.415346 
L 363.672975 144.423939 
L 365.390546 148.276385 
L 367.108116 168.228527 
L 368.825686 194.701894 
L 370.543257 215.077216 
L 372.260827 222.372796 
L 373.978398 218.250003 
L 375.695968 209.839076 
L 377.413539 204.759311 
L 379.131109 206.581985 
L 380.84868 212.97047 
L 382.56625 218.151498 
L 384.28382 217.644023 
L 386.001391 211.36158 
L 387.718961 203.651619 
L 389.436532 200.336114 
L 391.154102 204.330969 
L 392.871673 213.260094 
L 394.589243 220.889376 
L 396.306814 221.178108 
L 398.024384 211.737691 
L 401.459525 177.257552 
L 403.177095 165.057108 
L 404.894666 161.707907 
L 406.612236 165.957735 
L 410.047377 180.948202 
L 413.482518 191.851269 
L 415.200088 199.372498 
L 416.917659 210.052244 
L 418.635229 221.557872 
L 420.3528 228.733869 
L 422.07037 226.323988 
L 423.787941 212.02253 
L 425.505511 188.061192 
L 427.223081 161.159607 
L 428.940652 140.477555 
L 430.658222 133.68517 
L 432.375793 143.36804 
L 434.093363 165.729644 
L 435.810934 192.2371 
L 437.528504 213.447184 
L 439.246075 222.524456 
L 440.963645 217.211819 
L 442.681215 200.480166 
L 444.398786 179.13226 
L 446.116356 160.536704 
L 447.833927 149.612204 
L 449.551497 147.361182 
L 451.269068 151.182241 
L 452.986638 156.717599 
L 454.704209 160.029762 
L 456.421779 159.113266 
L 458.139349 154.491816 
L 459.85692 148.661712 
L 461.57449 144.572955 
L 463.292061 144.04995 
L 465.009631 146.903261 
L 466.727202 151.109522 
L 468.444772 153.938748 
L 470.162343 153.290558 
L 471.879913 148.665822 
L 473.597483 141.549252 
L 475.315054 134.938486 
L 477.032624 132.109184 
L 478.750195 135.197097 
L 480.467765 144.149124 
L 483.902906 168.624834 
L 485.620476 176.574929 
L 487.338047 177.803468 
L 489.055617 171.665196 
L 490.773188 159.851608 
L 492.490758 145.919576 
L 494.208329 134.033312 
L 495.925899 127.563083 
L 497.64347 127.972654 
L 499.36104 134.30286 
L 501.07861 143.57055 
L 502.796181 151.875055 
L 504.513751 155.602427 
L 506.231322 152.454974 
L 507.948892 142.233632 
L 509.666463 127.044899 
L 511.384033 110.723564 
L 513.101604 97.737065 
L 514.819174 91.90472 
L 516.536744 95.19587 
L 518.254315 107.14366 
L 519.971885 125.194005 
L 521.689456 145.547454 
L 523.407026 163.948616 
L 525.124597 176.459055 
L 526.842167 180.404774 
L 528.559738 175.170577 
L 530.277308 162.341516 
L 533.712449 127.867767 
L 535.430019 114.263136 
L 537.14759 106.982153 
L 538.86516 106.729276 
L 540.582731 112.44521 
L 544.017871 131.768497 
L 545.735442 139.182262 
L 547.453012 141.56597 
L 549.170583 137.764692 
L 550.888153 128.210475 
L 552.605724 114.772178 
L 554.323294 100.289342 
L 556.040865 87.8367 
L 557.758435 79.917523 
L 559.476005 77.949931 
L 561.193576 82.190498 
L 562.911146 91.851381 
L 564.628717 105.217609 
L 566.346287 119.830231 
L 568.063858 132.928059 
L 569.781428 142.093171 
L 571.498999 145.80153 
L 573.216569 143.6771 
L 574.934139 136.479862 
L 576.65171 125.865361 
L 580.086851 102.732602 
L 581.804421 93.814508 
L 583.521992 88.132882 
L 585.239562 85.968247 
L 586.957133 86.889622 
L 588.674703 89.752774 
L 590.392273 92.913167 
L 592.109844 94.647859 
L 593.827414 93.628513 
L 595.544985 89.259334 
L 597.262555 81.807199 
L 598.980126 72.291158 
L 600.697696 62.145003 
L 602.415266 52.812375 
L 604.132837 45.521323 
L 605.850407 41.279567 
L 607.567978 40.917984 
L 609.285548 44.963845 
L 611.003119 53.290302 
L 612.720689 64.782072 
L 614.43826 77.414665 
L 616.15583 88.814455 
L 617.8734 96.916613 
L 619.590971 100.370084 
L 621.308541 98.694341 
L 623.026112 92.32082 
L 624.743682 82.429323 
L 629.896394 46.334207 
L 631.613964 36.310662 
L 633.331534 29.198386 
L 635.049105 26.157692 
L 636.766675 27.887055 
L 638.484246 33.957211 
L 641.919387 51.368844 
L 643.636957 57.927002 
L 645.354528 60.765586 
L 647.072098 59.404477 
L 648.789668 54.479692 
L 653.94238 33.447308 
L 655.65995 28.15426 
L 657.377521 24.8667 
L 659.095091 24.730604 
L 660.812661 29.583713 
L 662.530232 41.332086 
L 664.247802 60.103369 
L 665.965373 82.51871 
L 667.682943 102.798797 
L 669.400514 115.634547 
L 671.118084 117.131196 
L 672.835655 103.788046 
L 674.553225 71.965768 
L 676.270795 20.445455 
L 676.270795 20.445455 
" clip-path="url(#p4b6f159885)" style="fill: none; stroke: #104a7e; stroke-width: 2; stroke-linecap: square"/>
   </g>
   <g id="line2d_15">
    <path d="M 88.861705 156.554645 
L 94.014416 138.617005 
L 97.449557 127.558791 
L 99.167127 122.488543 
L 100.884698 117.886835 
L 102.602268 113.949478 
L 104.319839 110.945274 
L 106.037409 109.213641 
L 107.754979 109.136327 
L 109.47255 111.069927 
L 111.19012 115.23829 
L 112.907691 121.610471 
L 114.625261 129.815587 
L 119.777972 157.423672 
L 121.495543 164.588436 
L 123.213113 169.64934 
L 124.930684 172.422018 
L 126.648254 172.993745 
L 128.365825 171.589713 
L 130.083395 168.419446 
L 131.800966 163.577641 
L 133.518536 157.074893 
L 135.236106 149.008807 
L 140.388818 121.154625 
L 142.106388 113.937602 
L 143.823959 109.313193 
L 145.541529 107.619246 
L 147.2591 108.605845 
L 148.97667 111.464032 
L 150.69424 114.94396 
L 152.411811 117.577172 
L 154.129381 118.02416 
L 155.846952 115.471344 
L 157.564522 109.896455 
L 159.282093 102.072023 
L 160.999663 93.362775 
L 162.717234 85.482657 
L 164.434804 80.306045 
L 166.152374 79.683748 
L 167.869945 85.137053 
L 169.587515 97.356572 
L 171.305086 115.626139 
L 174.740227 159.399202 
L 176.457797 177.371369 
L 178.175367 188.725054 
L 179.892938 192.508859 
L 181.610508 189.376758 
L 183.328079 180.939167 
L 185.045649 169.110739 
L 190.198361 129.618841 
L 191.915931 118.871239 
L 193.633501 110.39479 
L 195.351072 104.442015 
L 197.068642 101.079069 
L 198.786213 100.220084 
L 200.503783 101.645423 
L 202.221354 105.009399 
L 203.938924 109.849951 
L 207.374065 121.717064 
L 209.091635 127.619819 
L 210.809206 132.94807 
L 212.526776 137.593735 
L 215.961917 146.003053 
L 217.679488 150.955241 
L 219.397058 157.270835 
L 221.114629 165.358654 
L 222.832199 175.278386 
L 224.549769 186.735092 
L 229.702481 224.209615 
L 231.420051 235.520814 
L 233.137622 245.362137 
L 234.855192 253.426998 
L 236.572762 259.560263 
L 238.290333 263.742839 
L 240.007903 266.073001 
L 241.725474 266.746636 
L 243.443044 266.034644 
L 245.160615 264.255223 
L 246.878185 261.741696 
L 253.748467 249.957176 
L 255.466037 247.502659 
L 257.183608 245.413479 
L 258.901178 243.691474 
L 260.618749 242.306028 
L 262.336319 241.20394 
L 264.05389 240.319899 
L 267.48903 238.949614 
L 270.924171 237.822613 
L 274.359312 236.881695 
L 276.076883 236.534334 
L 277.794453 236.305875 
L 279.512024 236.214344 
L 281.229594 236.262843 
L 284.664735 236.705722 
L 289.817446 237.606649 
L 291.535017 237.774026 
L 293.252587 237.814706 
L 294.970157 237.718696 
L 298.405298 237.188269 
L 301.840439 236.528565 
L 303.55801 236.320505 
L 305.27558 236.289139 
L 306.993151 236.493025 
L 308.710721 236.969793 
L 310.428291 237.72947 
L 312.145862 238.750638 
L 315.581003 241.334328 
L 319.016144 243.975197 
L 320.733714 245.006504 
L 322.451285 245.670457 
L 324.168855 245.84649 
L 325.886425 245.433324 
L 327.603996 244.357685 
L 329.321566 242.58202 
L 331.039137 240.110352 
L 332.756707 236.990998 
L 334.474278 233.314718 
L 337.909419 224.814517 
L 344.7797 206.944753 
L 351.649982 189.647177 
L 356.802693 175.910992 
L 358.520264 172.083324 
L 360.237834 169.349163 
L 361.955405 168.166499 
L 363.672975 168.852553 
L 365.390546 171.477796 
L 367.108116 175.815478 
L 368.825686 181.370185 
L 372.260827 193.465947 
L 373.978398 198.762232 
L 375.695968 203.016535 
L 377.413539 206.109395 
L 379.131109 208.118388 
L 380.84868 209.245133 
L 382.56625 209.734092 
L 384.28382 209.804482 
L 386.001391 209.605437 
L 387.718961 209.194847 
L 389.436532 208.53792 
L 391.154102 207.522789 
L 392.871673 205.993821 
L 394.589243 203.803427 
L 396.306814 200.87751 
L 398.024384 197.279952 
L 401.459525 189.216676 
L 403.177095 185.701233 
L 404.894666 183.246698 
L 406.612236 182.271027 
L 408.329807 182.958695 
L 410.047377 185.197076 
L 411.764948 188.578732 
L 415.200088 196.117841 
L 416.917659 198.805458 
L 418.635229 199.972289 
L 420.3528 199.332949 
L 422.07037 196.940661 
L 423.787941 193.19227 
L 427.223081 184.488288 
L 428.940652 181.163295 
L 430.658222 179.371723 
L 432.375793 179.316352 
L 434.093363 180.748456 
L 437.528504 185.215306 
L 439.246075 186.450532 
L 440.963645 186.053738 
L 442.681215 183.767718 
L 444.398786 179.792418 
L 446.116356 174.698822 
L 449.551497 164.141365 
L 451.269068 159.895749 
L 452.986638 156.695725 
L 454.704209 154.44112 
L 456.421779 152.847154 
L 459.85692 150.421814 
L 463.292061 148.127433 
L 465.009631 147.158323 
L 466.727202 146.455507 
L 468.444772 146.064804 
L 470.162343 145.959275 
L 471.879913 146.072984 
L 473.597483 146.35424 
L 475.315054 146.80614 
L 477.032624 147.489566 
L 478.750195 148.482937 
L 480.467765 149.815441 
L 483.902906 153.037882 
L 485.620476 154.39424 
L 487.338047 155.136857 
L 489.055617 155.013657 
L 490.773188 153.948397 
L 492.490758 152.078105 
L 497.64347 145.038733 
L 499.36104 143.212887 
L 502.796181 140.238479 
L 504.513751 138.434887 
L 506.231322 135.989111 
L 507.948892 132.817767 
L 511.384033 125.549503 
L 513.101604 122.744723 
L 514.819174 121.487501 
L 516.536744 122.302853 
L 518.254315 125.312342 
L 519.971885 130.148294 
L 523.407026 141.737699 
L 525.124597 146.227607 
L 526.842167 148.532426 
L 528.559738 148.17501 
L 530.277308 145.25319 
L 531.994878 140.417754 
L 535.430019 129.288299 
L 537.14759 125.152076 
L 538.86516 122.880235 
L 540.582731 122.510306 
L 542.300301 123.550955 
L 544.017871 125.131686 
L 545.735442 126.24651 
L 547.453012 126.028559 
L 549.170583 123.985589 
L 550.888153 120.136729 
L 556.040865 104.83423 
L 557.758435 101.862585 
L 559.476005 101.306729 
L 561.193576 103.349386 
L 562.911146 107.638197 
L 568.063858 124.517816 
L 569.781428 127.783003 
L 571.498999 128.561722 
L 573.216569 126.752836 
L 574.934139 122.760892 
L 576.65171 117.380848 
L 578.36928 111.599443 
L 580.086851 106.361978 
L 581.804421 102.3584 
L 583.521992 99.873899 
L 585.239562 98.732275 
L 586.957133 98.341863 
L 588.674703 97.835685 
L 590.392273 96.278866 
L 592.109844 92.899748 
L 593.827414 87.292863 
L 595.544985 79.546454 
L 600.697696 51.43278 
L 602.415266 44.432462 
L 604.132837 40.539055 
L 605.850407 40.427427 
L 607.567978 44.247631 
L 609.285548 51.561275 
L 611.003119 61.361643 
L 614.43826 82.394437 
L 616.15583 90.347802 
L 617.8734 94.800455 
L 619.590971 95.063861 
L 621.308541 91.12705 
L 623.026112 83.638131 
L 624.743682 73.762468 
L 628.178823 52.697235 
L 629.896394 44.290248 
L 631.613964 38.675334 
L 633.331534 36.330566 
L 635.049105 37.199813 
L 636.766675 40.678188 
L 640.201816 50.860967 
L 641.919387 54.82377 
L 643.636957 56.489936 
L 645.354528 55.320267 
L 647.072098 51.473426 
L 648.789668 45.8049 
L 650.507239 39.689143 
L 652.224809 34.708132 
L 653.94238 32.32248 
L 655.65995 33.632327 
L 657.377521 39.237656 
L 659.095091 49.126928 
L 660.812661 62.555032 
L 664.247802 93.416312 
L 665.965373 106.728296 
L 667.682943 116.464841 
L 669.400514 122.019132 
L 671.118084 123.550919 
L 672.835655 121.685546 
L 674.553225 117.222231 
L 676.270795 110.942155 
L 676.270795 110.942155 
" clip-path="url(#p4b6f159885)" style="fill: none; stroke: #78003f; stroke-width: 2; stroke-linecap: square"/>
   </g>
   <g id="line2d_16">
    <path d="M 59.49125 168.897563 
L 705.64125 168.897563 
" clip-path="url(#p4b6f159885)" style="fill: none; stroke-dasharray: 3.33,1.44; stroke-dashoffset: 0; stroke: #0d1530; stroke-width: 0.9"/>
   </g>
   <g id="patch_3">
    <path d="M 59.49125 298.6 
L 59.49125 7.2 
" style="fill: none; stroke: #000000; stroke-width: 0.8; stroke-linejoin: miter; stroke-linecap: square"/>
   </g>
   <g id="patch_4">
    <path d="M 59.49125 298.6 
L 705.64125 298.6 
" style="fill: none; stroke: #000000; stroke-width: 0.8; stroke-linejoin: miter; stroke-linecap: square"/>
   </g>
   <g id="legend_1">
    <g id="line2d_17">
     <path d="M 567.212813 245.847344 
L 576.212813 245.847344 
L 585.212813 245.847344 
" style="fill: none; stroke: #104a7e; stroke-width: 2; stroke-linecap: square"/>
    </g>
    <g id="text_16">
     <!-- Be glodinimo -->
     <g transform="translate(592.412813 248.997344) scale(0.09 -0.09)">
      <defs>
       <path id="DejaVuSans-65" d="M 3597 1894 
L 3597 1613 
L 953 1613 
Q 991 1019 1311 708 
Q 1631 397 2203 397 
Q 2534 397 2845 478 
Q 3156 559 3463 722 
L 3463 178 
Q 3153 47 2828 -22 
Q 2503 -91 2169 -91 
Q 1331 -91 842 396 
Q 353 884 353 1716 
Q 353 2575 817 3079 
Q 1281 3584 2069 3584 
Q 2775 3584 3186 3129 
Q 3597 2675 3597 1894 
z
M 3022 2063 
Q 3016 2534 2758 2815 
Q 2500 3097 2075 3097 
Q 1594 3097 1305 2825 
Q 1016 2553 972 2059 
L 3022 2063 
z
" transform="scale(0.015625)"/>
       <path id="DejaVuSans-64" d="M 2906 2969 
L 2906 4863 
L 3481 4863 
L 3481 0 
L 2906 0 
L 2906 525 
Q 2725 213 2448 61 
Q 2172 -91 1784 -91 
Q 1150 -91 751 415 
Q 353 922 353 1747 
Q 353 2572 751 3078 
Q 1150 3584 1784 3584 
Q 2172 3584 2448 3432 
Q 2725 3281 2906 2969 
z
M 947 1747 
Q 947 1113 1208 752 
Q 1469 391 1925 391 
Q 2381 391 2643 752 
Q 2906 1113 2906 1747 
Q 2906 2381 2643 2742 
Q 2381 3103 1925 3103 
Q 1469 3103 1208 2742 
Q 947 2381 947 1747 
z
" transform="scale(0.015625)"/>
      </defs>
      <use xlink:href="#DejaVuSans-42"/>
      <use xlink:href="#DejaVuSans-65" x="68.603516"/>
      <use xlink:href="#DejaVuSans-20" x="130.126953"/>
      <use xlink:href="#DejaVuSans-67" x="161.914062"/>
      <use xlink:href="#DejaVuSans-6c" x="225.390625"/>
      <use xlink:href="#DejaVuSans-6f" x="253.173828"/>
      <use xlink:href="#DejaVuSans-64" x="314.355469"/>
      <use xlink:href="#DejaVuSans-69" x="377.832031"/>
      <use xlink:href="#DejaVuSans-6e" x="405.615234"/>
      <use xlink:href="#DejaVuSans-69" x="468.994141"/>
      <use xlink:href="#DejaVuSans-6d" x="496.777344"/>
      <use xlink:href="#DejaVuSans-6f" x="594.189453"/>
     </g>
    </g>
    <g id="line2d_18">
     <path d="M 567.212813 259.057656 
L 576.212813 259.057656 
L 585.212813 259.057656 
" style="fill: none; stroke: #78003f; stroke-width: 2; stroke-linecap: square"/>
    </g>
    <g id="text_17">
     <!-- Glodinimas, sigma=8.0 -->
     <g transform="translate(592.412813 262.207656) scale(0.09 -0.09)">
      <defs>
       <path id="DejaVuSans-47" d="M 3809 666 
L 3809 1919 
L 2778 1919 
L 2778 2438 
L 4434 2438 
L 4434 434 
Q 4069 175 3628 42 
Q 3188 -91 2688 -91 
Q 1594 -91 976 548 
Q 359 1188 359 2328 
Q 359 3472 976 4111 
Q 1594 4750 2688 4750 
Q 3144 4750 3555 4637 
Q 3966 4525 4313 4306 
L 4313 3634 
Q 3963 3931 3569 4081 
Q 3175 4231 2741 4231 
Q 1884 4231 1454 3753 
Q 1025 3275 1025 2328 
Q 1025 1384 1454 906 
Q 1884 428 2741 428 
Q 3075 428 3337 486 
Q 3600 544 3809 666 
z
" transform="scale(0.015625)"/>
       <path id="DejaVuSans-3d" d="M 678 2906 
L 4684 2906 
L 4684 2381 
L 678 2381 
L 678 2906 
z
M 678 1631 
L 4684 1631 
L 4684 1100 
L 678 1100 
L 678 1631 
z
" transform="scale(0.015625)"/>
      </defs>
      <use xlink:href="#DejaVuSans-47"/>
      <use xlink:href="#DejaVuSans-6c" x="77.490234"/>
      <use xlink:href="#DejaVuSans-6f" x="105.273438"/>
      <use xlink:href="#DejaVuSans-64" x="166.455078"/>
      <use xlink:href="#DejaVuSans-69" x="229.931641"/>
      <use xlink:href="#DejaVuSans-6e" x="257.714844"/>
      <use xlink:href="#DejaVuSans-69" x="321.09375"/>
      <use xlink:href="#DejaVuSans-6d" x="348.876953"/>
      <use xlink:href="#DejaVuSans-61" x="446.289062"/>
      <use xlink:href="#DejaVuSans-73" x="507.568359"/>
      <use xlink:href="#DejaVuSans-2c" x="559.667969"/>
      <use xlink:href="#DejaVuSans-20" x="591.455078"/>
      <use xlink:href="#DejaVuSans-73" x="623.242188"/>
      <use xlink:href="#DejaVuSans-69" x="675.341797"/>
      <use xlink:href="#DejaVuSans-67" x="703.125"/>
      <use xlink:href="#DejaVuSans-6d" x="766.601562"/>
      <use xlink:href="#DejaVuSans-61" x="864.013672"/>
      <use xlink:href="#DejaVuSans-3d" x="925.292969"/>
      <use xlink:href="#DejaVuSans-38" x="1009.082031"/>
      <use xlink:href="#DejaVuSans-2e" x="1072.705078"/>
      <use xlink:href="#DejaVuSans-30" x="1104.492188"/>
     </g>
    </g>
    <g id="patch_5">
     <path d="M 567.212813 275.417969 
L 585.212813 275.417969 
L 585.212813 269.117969 
L 567.212813 269.117969 
z
" style="fill: #6193cd; fill-opacity: 0.22; stroke: #6193cd; stroke-opacity: 0.22; stroke-linejoin: miter"/>
    </g>
    <g id="text_18">
     <!-- Teigiamas plotas -->
     <g transform="translate(592.412813 275.417969) scale(0.09 -0.09)">
      <defs>
       <path id="DejaVuSans-54" d="M -19 4666 
L 3928 4666 
L 3928 4134 
L 2272 4134 
L 2272 0 
L 1638 0 
L 1638 4134 
L -19 4134 
L -19 4666 
z
" transform="scale(0.015625)"/>
       <path id="DejaVuSans-70" d="M 1159 525 
L 1159 -1331 
L 581 -1331 
L 581 3500 
L 1159 3500 
L 1159 2969 
Q 1341 3281 1617 3432 
Q 1894 3584 2278 3584 
Q 2916 3584 3314 3078 
Q 3713 2572 3713 1747 
Q 3713 922 3314 415 
Q 2916 -91 2278 -91 
Q 1894 -91 1617 61 
Q 1341 213 1159 525 
z
M 3116 1747 
Q 3116 2381 2855 2742 
Q 2594 3103 2138 3103 
Q 1681 3103 1420 2742 
Q 1159 2381 1159 1747 
Q 1159 1113 1420 752 
Q 1681 391 2138 391 
Q 2594 391 2855 752 
Q 3116 1113 3116 1747 
z
" transform="scale(0.015625)"/>
       <path id="DejaVuSans-74" d="M 1172 4494 
L 1172 3500 
L 2356 3500 
L 2356 3053 
L 1172 3053 
L 1172 1153 
Q 1172 725 1289 603 
Q 1406 481 1766 481 
L 2356 481 
L 2356 0 
L 1766 0 
Q 1100 0 847 248 
Q 594 497 594 1153 
L 594 3053 
L 172 3053 
L 172 3500 
L 594 3500 
L 594 4494 
L 1172 4494 
z
" transform="scale(0.015625)"/>
      </defs>
      <use xlink:href="#DejaVuSans-54"/>
      <use xlink:href="#DejaVuSans-65" x="44.083984"/>
      <use xlink:href="#DejaVuSans-69" x="105.607422"/>
      <use xlink:href="#DejaVuSans-67" x="133.390625"/>
      <use xlink:href="#DejaVuSans-69" x="196.867188"/>
      <use xlink:href="#DejaVuSans-61" x="224.650391"/>
      <use xlink:href="#DejaVuSans-6d" x="285.929688"/>
      <use xlink:href="#DejaVuSans-61" x="383.341797"/>
      <use xlink:href="#DejaVuSans-73" x="444.621094"/>
      <use xlink:href="#DejaVuSans-20" x="496.720703"/>
      <use xlink:href="#DejaVuSans-70" x="528.507812"/>
      <use xlink:href="#DejaVuSans-6c" x="591.984375"/>
      <use xlink:href="#DejaVuSans-6f" x="619.767578"/>
      <use xlink:href="#DejaVuSans-74" x="680.949219"/>
      <use xlink:href="#DejaVuSans-61" x="720.158203"/>
      <use xlink:href="#DejaVuSans-73" x="781.4375"/>
     </g>
    </g>
    <g id="patch_6">
     <path d="M 567.212813 288.628281 
L 585.212813 288.628281 
L 585.212813 282.328281 
L 567.212813 282.328281 
z
" style="fill: #6f0037; fill-opacity: 0.18; stroke: #6f0037; stroke-opacity: 0.18; stroke-linejoin: miter"/>
    </g>
    <g id="text_19">
     <!-- Neigiamas plotas -->
     <g transform="translate(592.412813 288.628281) scale(0.09 -0.09)">
      <defs>
       <path id="DejaVuSans-4e" d="M 628 4666 
L 1478 4666 
L 3547 763 
L 3547 4666 
L 4159 4666 
L 4159 0 
L 3309 0 
L 1241 3903 
L 1241 0 
L 628 0 
L 628 4666 
z
" transform="scale(0.015625)"/>
      </defs>
      <use xlink:href="#DejaVuSans-4e"/>
      <use xlink:href="#DejaVuSans-65" x="74.804688"/>
      <use xlink:href="#DejaVuSans-69" x="136.328125"/>
      <use xlink:href="#DejaVuSans-67" x="164.111328"/>
      <use xlink:href="#DejaVuSans-69" x="227.587891"/>
      <use xlink:href="#DejaVuSans-61" x="255.371094"/>
      <use xlink:href="#DejaVuSans-6d" x="316.650391"/>
      <use xlink:href="#DejaVuSans-61" x="414.0625"/>
      <use xlink:href="#DejaVuSans-73" x="475.341797"/>
      <use xlink:href="#DejaVuSans-20" x="527.441406"/>
      <use xlink:href="#DejaVuSans-70" x="559.228516"/>
      <use xlink:href="#DejaVuSans-6c" x="622.705078"/>
      <use xlink:href="#DejaVuSans-6f" x="650.488281"/>
      <use xlink:href="#DejaVuSans-74" x="711.669922"/>
      <use xlink:href="#DejaVuSans-61" x="750.878906"/>
      <use xlink:href="#DejaVuSans-73" x="812.158203"/>
     </g>
    </g>
   </g>
  </g>
 </g>
 <defs>
  <clipPath id="p4b6f159885">
   <rect x="59.49125" y="7.2" width="646.15" height="291.4"/>
  </clipPath>
 </defs>
</svg>
