<?xml version="1.0" encoding="utf-8" standalone="no"?>
<!DOCTYPE svg PUBLIC "-//W3C//DTD SVG 1.1//EN"
  "http://www.w3.org/Graphics/SVG/1.1/DTD/svg11.dtd">
<svg xmlns:xlink="http://www.w3.org/1999/xlink" width="712.90375pt" height="337.124062pt" viewBox="0 0 712.90375 337.124062" xmlns="http://www.w3.org/2000/svg" version="1.1">
 <metadata>
  <rdf:RDF xmlns:dc="http://purl.org/dc/elements/1.1/" xmlns:cc="http://creativecommons.org/ns#" xmlns:rdf="http://www.w3.org/1999/02/22-rdf-syntax-ns#">
   <cc:Work>
    <dc:type rdf:resource="http://purl.org/dc/dcmitype/StillImage"/>
    <dc:date>2026-05-06T17:48:35.731360</dc:date>
    <dc:format>image/svg+xml</dc:format>
    <dc:creator>
     <cc:Agent>
      <dc:title>Matplotlib v3.8.0, https://matplotlib.org/</dc:title>
     </cc:Agent>
    </dc:creator>
   </cc:Work>
  </rdf:RDF>
 </metadata>
 <defs>
  <style type="text/css">*{stroke-linejoin: round; stroke-linecap: butt}</style>
 </defs>
 <g id="figure_1">
  <g id="patch_1">
   <path d="M 0 337.124062 
L 712.90375 337.124062 
L 712.90375 0 
L 0 0 
z
" style="fill: #ffffff"/>
  </g>
  <g id="axes_1">
   <g id="patch_2">
    <path d="M 65.85375 298.6 
L 705.70375 298.6 
L 705.70375 7.2 
L 65.85375 7.2 
z
" style="fill: #ffffff"/>
   </g>
   <g id="PolyCollection_1">
    <defs>
     <path id="mf118adcf1d" d="M 183.592163 -219.225936 
L 185.081514 -223.100099 
L 186.782339 -227.47207 
L 188.483163 -231.714037 
L 190.183987 -235.77148 
L 191.884811 -239.612407 
L 193.585635 -243.222228 
L 195.286459 -246.596121 
L 196.987283 -249.731601 
L 198.688107 -252.623789 
L 200.388931 -255.26467 
L 202.089755 -257.645947 
L 203.790579 -259.763717 
L 205.491403 -261.622627 
L 207.192227 -263.237697 
L 208.893051 -264.633161 
L 210.593875 -265.839044 
L 212.294699 -266.88698 
L 213.995523 -267.80685 
L 215.696347 -268.625128 
L 217.397171 -269.364843 
L 219.097995 -270.046228 
L 220.798819 -270.686928 
L 222.499643 -271.30095 
L 224.200467 -271.896436 
L 225.901291 -272.473114 
L 227.602115 -273.020843 
L 229.302939 -273.520556 
L 231.003763 -273.948226 
L 232.704587 -274.281477 
L 234.405411 -274.507457 
L 236.106235 -274.629955 
L 237.807059 -274.673731 
L 239.507883 -274.684581 
L 241.208707 -274.724716 
L 242.909531 -274.864188 
L 244.610356 -275.170077 
L 246.31118 -275.695706 
L 248.012004 -276.4721 
L 249.712828 -277.503381 
L 251.413652 -278.766843 
L 253.114476 -280.217496 
L 254.8153 -281.795913 
L 256.516124 -283.43769 
L 258.216948 -285.082621 
L 259.917772 -286.681972 
L 261.618596 -288.202718 
L 263.31942 -289.628401 
L 265.020244 -290.956931 
L 266.721068 -292.19624 
L 268.421892 -293.359016 
L 270.122716 -294.457762 
L 271.82354 -295.501172 
L 273.524364 -296.492442 
L 275.225188 -297.429602 
L 276.926012 -298.307561 
L 278.626836 -299.121179 
L 280.32766 -299.868528 
L 282.028484 -300.553492 
L 283.729308 -301.186991 
L 285.430132 -301.78645 
L 287.130956 -302.373482 
L 288.83178 -302.970227 
L 290.532604 -303.5951 
L 292.233428 -304.258939 
L 293.934252 -304.962511 
L 295.635076 -305.696033 
L 297.3359 -306.440902 
L 299.036724 -307.173259 
L 300.737549 -307.868543 
L 302.438373 -308.505957 
L 304.139197 -309.071823 
L 305.840021 -309.561164 
L 307.540845 -309.977314 
L 309.241669 -310.329882 
L 310.942493 -310.631735 
L 312.643317 -310.89581 
L 314.344141 -311.132492 
L 316.044965 -311.34806 
L 317.745789 -311.544429 
L 319.446613 -311.720093 
L 321.147437 -311.871958 
L 322.848261 -311.997589 
L 324.549085 -312.097331 
L 326.249909 -312.17583 
L 327.950733 -312.242611 
L 329.651557 -312.311553 
L 331.352381 -312.399277 
L 333.053205 -312.522631 
L 334.754029 -312.695595 
L 336.454853 -312.926072 
L 338.155677 -313.213144 
L 339.856501 -313.545464 
L 341.557325 -313.901355 
L 343.258149 -314.251014 
L 344.958973 -314.560754 
L 346.659797 -314.798772 
L 348.360621 -314.941383 
L 350.061445 -314.978358 
L 351.762269 -314.915944 
L 353.463093 -314.776491 
L 355.163917 -314.594392 
L 356.864741 -314.409049 
L 358.565566 -314.256582 
L 360.26639 -314.162537 
L 361.967214 -314.137619 
L 363.668038 -314.177467 
L 365.368862 -314.266096 
L 367.069686 -314.381378 
L 368.77051 -314.50056 
L 370.471334 -314.604253 
L 372.172158 -314.678373 
L 373.872982 -314.714496 
L 375.573806 -314.709508 
L 377.27463 -314.665164 
L 378.975454 -314.587645 
L 380.676278 -314.48673 
L 382.377102 -314.374268 
L 384.077926 -314.261993 
L 385.77875 -314.159239 
L 387.479574 -314.071287 
L 389.180398 -313.998875 
L 390.881222 -313.938887 
L 392.582046 -313.885816 
L 394.28287 -313.83334 
L 395.983694 -313.775512 
L 397.684518 -313.707376 
L 399.385342 -313.625124 
L 401.086166 -313.526068 
L 402.78699 -313.408656 
L 404.487814 -313.272603 
L 406.188638 -313.119086 
L 407.889462 -312.950891 
L 409.590286 -312.772386 
L 411.29111 -312.589263 
L 412.991934 -312.407967 
L 414.692759 -312.234832 
L 416.393583 -312.074974 
L 418.094407 -311.931154 
L 419.795231 -311.802908 
L 421.496055 -311.686337 
L 423.196879 -311.574769 
L 424.897703 -311.460295 
L 426.598527 -311.335841 
L 428.299351 -311.19721 
L 430.000175 -311.044467 
L 431.700999 -310.882233 
L 433.401823 -310.718807 
L 435.102647 -310.564372 
L 436.803471 -310.42881 
L 438.504295 -310.31966 
L 440.205119 -310.240632 
L 441.905943 -310.190854 
L 443.606767 -310.164843 
L 445.307591 -310.153128 
L 447.008415 -310.143418 
L 448.709239 -310.122245 
L 450.410063 -310.076967 
L 452.110887 -309.997874 
L 453.811711 -309.879994 
L 455.512535 -309.724137 
L 457.213359 -309.536766 
L 458.914183 -309.328608 
L 460.615007 -309.112245 
L 462.315831 -308.899293 
L 464.016655 -308.697929 
L 465.717479 -308.511424 
L 467.418303 -308.338022 
L 469.119127 -308.172075 
L 470.819951 -308.005974 
L 472.520776 -307.83222 
L 474.2216 -307.645054 
L 475.922424 -307.441281 
L 477.623248 -307.220268 
L 479.324072 -306.983366 
L 481.024896 -306.733151 
L 482.72572 -306.472792 
L 484.426544 -306.205734 
L 486.127368 -305.935642 
L 487.828192 -305.666401 
L 489.529016 -305.401959 
L 491.22984 -305.145909 
L 492.930664 -304.900872 
L 494.631488 -304.6679 
L 496.332312 -304.446183 
L 498.033136 -304.233253 
L 499.73396 -304.025696 
L 501.434784 -303.820166 
L 503.135608 -303.614355 
L 504.836432 -303.407518 
L 506.537256 -303.200309 
L 508.23808 -302.993892 
L 509.938904 -302.788566 
L 511.639728 -302.582369 
L 513.340552 -302.370189 
L 515.041376 -302.143822 
L 516.7422 -301.893142 
L 518.443024 -301.608221 
L 520.143848 -301.281921 
L 521.844672 -300.912266 
L 523.545496 -300.503924 
L 525.24632 -300.068315 
L 526.947144 -299.622226 
L 528.647969 -299.185223 
L 530.348793 -298.776455 
L 532.049617 -298.411636 
L 533.750441 -298.100879 
L 535.451265 -297.847834 
L 537.152089 -297.650217 
L 538.852913 -297.501453 
L 540.553737 -297.392926 
L 542.254561 -297.316189 
L 543.955385 -297.264581 
L 545.656209 -297.233845 
L 547.357033 -297.221651 
L 549.057857 -297.226213 
L 550.758681 -297.244452 
L 552.459505 -297.270331 
L 554.160329 -297.293989 
L 555.861153 -297.302108 
L 557.561977 -297.279601 
L 559.262801 -297.212304 
L 560.963625 -297.090018 
L 562.664449 -296.909059 
L 564.365273 -296.673618 
L 566.066097 -296.395497 
L 567.766921 -296.092246 
L 569.467745 -295.784107 
L 571.168569 -295.490433 
L 572.869393 -295.226369 
L 574.570217 -295.000453 
L 576.271041 -294.813592 
L 577.971865 -294.659545 
L 579.672689 -294.526749 
L 581.373513 -294.401046 
L 583.074337 -294.26874 
L 584.775161 -294.119317 
L 586.475986 -293.94731 
L 588.17681 -293.752936 
L 589.877634 -293.541447 
L 591.578458 -293.321386 
L 593.279282 -293.102194 
L 594.980106 -292.891728 
L 596.68093 -292.694236 
L 598.381754 -292.50924 
L 600.082578 -292.331555 
L 601.783402 -292.152464 
L 603.484226 -291.961813 
L 605.18505 -291.750627 
L 606.885874 -291.513725 
L 608.586698 -291.251778 
L 610.287522 -290.972338 
L 611.988346 -290.68952 
L 613.68917 -290.422277 
L 615.389994 -290.19145 
L 617.090818 -290.016021 
L 618.791642 -289.909219 
L 620.492466 -289.875168 
L 622.19329 -289.906738 
L 623.894114 -289.985096 
L 625.594938 -290.081149 
L 627.295762 -290.15877 
L 628.996586 -290.179378 
L 630.69741 -290.107246 
L 632.398234 -289.914788 
L 634.099058 -289.587127 
L 635.799882 -289.125312 
L 637.500706 -288.547775 
L 639.20153 -287.88977 
L 640.902354 -287.200805 
L 642.603178 -286.540261 
L 644.304003 -285.971612 
L 646.004827 -285.555857 
L 647.705651 -285.34489 
L 649.406475 -285.375593 
L 651.107299 -285.665402 
L 652.808123 -286.209931 
L 654.508947 -286.982992 
L 656.209771 -287.939073 
L 657.910595 -289.018053 
L 659.611419 -290.151711 
L 661.312243 -291.271338 
L 663.013067 -292.315485 
L 664.713891 -293.236579 
L 666.414715 -294.005102 
L 668.115539 -294.610458 
L 669.816363 -295.058532 
L 671.517187 -295.366992 
L 673.218011 -295.559839 
L 674.918835 -295.662624 
L 676.619659 -295.699086 
L 676.619659 -295.699086 
L 676.619659 -219.225936 
L 674.918835 -219.225936 
L 673.218011 -219.225936 
L 671.517187 -219.225936 
L 669.816363 -219.225936 
L 668.115539 -219.225936 
L 666.414715 -219.225936 
L 664.713891 -219.225936 
L 663.013067 -219.225936 
L 661.312243 -219.225936 
L 659.611419 -219.225936 
L 657.910595 -219.225936 
L 656.209771 -219.225936 
L 654.508947 -219.225936 
L 652.808123 -219.225936 
L 651.107299 -219.225936 
L 649.406475 -219.225936 
L 647.705651 -219.225936 
L 646.004827 -219.225936 
L 644.304003 -219.225936 
L 642.603178 -219.225936 
L 640.902354 -219.225936 
L 639.20153 -219.225936 
L 637.500706 -219.225936 
L 635.799882 -219.225936 
L 634.099058 -219.225936 
L 632.398234 -219.225936 
L 630.69741 -219.225936 
L 628.996586 -219.225936 
L 627.295762 -219.225936 
L 625.594938 -219.225936 
L 623.894114 -219.225936 
L 622.19329 -219.225936 
L 620.492466 -219.225936 
L 618.791642 -219.225936 
L 617.090818 -219.225936 
L 615.389994 -219.225936 
L 613.68917 -219.225936 
L 611.988346 -219.225936 
L 610.287522 -219.225936 
L 608.586698 -219.225936 
L 606.885874 -219.225936 
L 605.18505 -219.225936 
L 603.484226 -219.225936 
L 601.783402 -219.225936 
L 600.082578 -219.225936 
L 598.381754 -219.225936 
L 596.68093 -219.225936 
L 594.980106 -219.225936 
L 593.279282 -219.225936 
L 591.578458 -219.225936 
L 589.877634 -219.225936 
L 588.17681 -219.225936 
L 586.475986 -219.225936 
L 584.775161 -219.225936 
L 583.074337 -219.225936 
L 581.373513 -219.225936 
L 579.672689 -219.225936 
L 577.971865 -219.225936 
L 576.271041 -219.225936 
L 574.570217 -219.225936 
L 572.869393 -219.225936 
L 571.168569 -219.225936 
L 569.467745 -219.225936 
L 567.766921 -219.225936 
L 566.066097 -219.225936 
L 564.365273 -219.225936 
L 562.664449 -219.225936 
L 560.963625 -219.225936 
L 559.262801 -219.225936 
L 557.561977 -219.225936 
L 555.861153 -219.225936 
L 554.160329 -219.225936 
L 552.459505 -219.225936 
L 550.758681 -219.225936 
L 549.057857 -219.225936 
L 547.357033 -219.225936 
L 545.656209 -219.225936 
L 543.955385 -219.225936 
L 542.254561 -219.225936 
L 540.553737 -219.225936 
L 538.852913 -219.225936 
L 537.152089 -219.225936 
L 535.451265 -219.225936 
L 533.750441 -219.225936 
L 532.049617 -219.225936 
L 530.348793 -219.225936 
L 528.647969 -219.225936 
L 526.947144 -219.225936 
L 525.24632 -219.225936 
L 523.545496 -219.225936 
L 521.844672 -219.225936 
L 520.143848 -219.225936 
L 518.443024 -219.225936 
L 516.7422 -219.225936 
L 515.041376 -219.225936 
L 513.340552 -219.225936 
L 511.639728 -219.225936 
L 509.938904 -219.225936 
L 508.23808 -219.225936 
L 506.537256 -219.225936 
L 504.836432 -219.225936 
L 503.135608 -219.225936 
L 501.434784 -219.225936 
L 499.73396 -219.225936 
L 498.033136 -219.225936 
L 496.332312 -219.225936 
L 494.631488 -219.225936 
L 492.930664 -219.225936 
L 491.22984 -219.225936 
L 489.529016 -219.225936 
L 487.828192 -219.225936 
L 486.127368 -219.225936 
L 484.426544 -219.225936 
L 482.72572 -219.225936 
L 481.024896 -219.225936 
L 479.324072 -219.225936 
L 477.623248 -219.225936 
L 475.922424 -219.225936 
L 474.2216 -219.225936 
L 472.520776 -219.225936 
L 470.819951 -219.225936 
L 469.119127 -219.225936 
L 467.418303 -219.225936 
L 465.717479 -219.225936 
L 464.016655 -219.225936 
L 462.315831 -219.225936 
L 460.615007 -219.225936 
L 458.914183 -219.225936 
L 457.213359 -219.225936 
L 455.512535 -219.225936 
L 453.811711 -219.225936 
L 452.110887 -219.225936 
L 450.410063 -219.225936 
L 448.709239 -219.225936 
L 447.008415 -219.225936 
L 445.307591 -219.225936 
L 443.606767 -219.225936 
L 441.905943 -219.225936 
L 440.205119 -219.225936 
L 438.504295 -219.225936 
L 436.803471 -219.225936 
L 435.102647 -219.225936 
L 433.401823 -219.225936 
L 431.700999 -219.225936 
L 430.000175 -219.225936 
L 428.299351 -219.225936 
L 426.598527 -219.225936 
L 424.897703 -219.225936 
L 423.196879 -219.225936 
L 421.496055 -219.225936 
L 419.795231 -219.225936 
L 418.094407 -219.225936 
L 416.393583 -219.225936 
L 414.692759 -219.225936 
L 412.991934 -219.225936 
L 411.29111 -219.225936 
L 409.590286 -219.225936 
L 407.889462 -219.225936 
L 406.188638 -219.225936 
L 404.487814 -219.225936 
L 402.78699 -219.225936 
L 401.086166 -219.225936 
L 399.385342 -219.225936 
L 397.684518 -219.225936 
L 395.983694 -219.225936 
L 394.28287 -219.225936 
L 392.582046 -219.225936 
L 390.881222 -219.225936 
L 389.180398 -219.225936 
L 387.479574 -219.225936 
L 385.77875 -219.225936 
L 384.077926 -219.225936 
L 382.377102 -219.225936 
L 380.676278 -219.225936 
L 378.975454 -219.225936 
L 377.27463 -219.225936 
L 375.573806 -219.225936 
L 373.872982 -219.225936 
L 372.172158 -219.225936 
L 370.471334 -219.225936 
L 368.77051 -219.225936 
L 367.069686 -219.225936 
L 365.368862 -219.225936 
L 363.668038 -219.225936 
L 361.967214 -219.225936 
L 360.26639 -219.225936 
L 358.565566 -219.225936 
L 356.864741 -219.225936 
L 355.163917 -219.225936 
L 353.463093 -219.225936 
L 351.762269 -219.225936 
L 350.061445 -219.225936 
L 348.360621 -219.225936 
L 346.659797 -219.225936 
L 344.958973 -219.225936 
L 343.258149 -219.225936 
L 341.557325 -219.225936 
L 339.856501 -219.225936 
L 338.155677 -219.225936 
L 336.454853 -219.225936 
L 334.754029 -219.225936 
L 333.053205 -219.225936 
L 331.352381 -219.225936 
L 329.651557 -219.225936 
L 327.950733 -219.225936 
L 326.249909 -219.225936 
L 324.549085 -219.225936 
L 322.848261 -219.225936 
L 321.147437 -219.225936 
L 319.446613 -219.225936 
L 317.745789 -219.225936 
L 316.044965 -219.225936 
L 314.344141 -219.225936 
L 312.643317 -219.225936 
L 310.942493 -219.225936 
L 309.241669 -219.225936 
L 307.540845 -219.225936 
L 305.840021 -219.225936 
L 304.139197 -219.225936 
L 302.438373 -219.225936 
L 300.737549 -219.225936 
L 299.036724 -219.225936 
L 297.3359 -219.225936 
L 295.635076 -219.225936 
L 293.934252 -219.225936 
L 292.233428 -219.225936 
L 290.532604 -219.225936 
L 288.83178 -219.225936 
L 287.130956 -219.225936 
L 285.430132 -219.225936 
L 283.729308 -219.225936 
L 282.028484 -219.225936 
L 280.32766 -219.225936 
L 278.626836 -219.225936 
L 276.926012 -219.225936 
L 275.225188 -219.225936 
L 273.524364 -219.225936 
L 271.82354 -219.225936 
L 270.122716 -219.225936 
L 268.421892 -219.225936 
L 266.721068 -219.225936 
L 265.020244 -219.225936 
L 263.31942 -219.225936 
L 261.618596 -219.225936 
L 259.917772 -219.225936 
L 258.216948 -219.225936 
L 256.516124 -219.225936 
L 254.8153 -219.225936 
L 253.114476 -219.225936 
L 251.413652 -219.225936 
L 249.712828 -219.225936 
L 248.012004 -219.225936 
L 246.31118 -219.225936 
L 244.610356 -219.225936 
L 242.909531 -219.225936 
L 241.208707 -219.225936 
L 239.507883 -219.225936 
L 237.807059 -219.225936 
L 236.106235 -219.225936 
L 234.405411 -219.225936 
L 232.704587 -219.225936 
L 231.003763 -219.225936 
L 229.302939 -219.225936 
L 227.602115 -219.225936 
L 225.901291 -219.225936 
L 224.200467 -219.225936 
L 222.499643 -219.225936 
L 220.798819 -219.225936 
L 219.097995 -219.225936 
L 217.397171 -219.225936 
L 215.696347 -219.225936 
L 213.995523 -219.225936 
L 212.294699 -219.225936 
L 210.593875 -219.225936 
L 208.893051 -219.225936 
L 207.192227 -219.225936 
L 205.491403 -219.225936 
L 203.790579 -219.225936 
L 202.089755 -219.225936 
L 200.388931 -219.225936 
L 198.688107 -219.225936 
L 196.987283 -219.225936 
L 195.286459 -219.225936 
L 193.585635 -219.225936 
L 191.884811 -219.225936 
L 190.183987 -219.225936 
L 188.483163 -219.225936 
L 186.782339 -219.225936 
L 185.081514 -219.225936 
z
" style="stroke: #6193cd; stroke-opacity: 0.22"/>
    </defs>
    <g clip-path="url(#pc4774c2cba)">
     <use xlink:href="#mf118adcf1d" x="0" y="337.124062" style="fill: #6193cd; fill-opacity: 0.22; stroke: #6193cd; stroke-opacity: 0.22"/>
    </g>
   </g>
   <g id="PolyCollection_2">
    <defs>
     <path id="m6926960eda" d="M 94.937841 -68.012416 
L 94.937841 -68.012416 
L 96.638665 -69.600954 
L 98.339489 -71.608089 
L 100.040313 -74.027332 
L 101.741137 -76.811001 
L 103.441961 -79.866205 
L 105.142785 -83.06229 
L 106.843609 -86.251919 
L 108.544433 -89.30176 
L 110.245257 -92.122175 
L 111.946081 -94.683116 
L 113.646905 -97.008615 
L 115.347729 -99.152445 
L 117.048553 -101.166586 
L 118.749377 -103.076491 
L 120.450201 -104.872042 
L 122.151025 -106.51458 
L 123.851849 -107.953507 
L 125.552673 -109.144277 
L 127.253497 -110.062625 
L 128.954322 -110.714705 
L 130.655146 -111.14556 
L 132.35597 -111.447488 
L 134.056794 -111.76623 
L 135.757618 -112.299669 
L 137.458442 -113.283452 
L 139.159266 -114.961497 
L 140.86009 -117.545129 
L 142.560914 -121.16984 
L 144.261738 -125.861019 
L 145.962562 -131.518508 
L 147.663386 -137.925065 
L 149.36421 -144.777471 
L 151.065034 -151.733023 
L 152.765858 -158.46042 
L 154.466682 -164.683624 
L 156.167506 -170.210432 
L 157.86833 -174.942785 
L 159.569154 -178.87139 
L 161.269978 -182.060606 
L 162.970802 -184.629934 
L 164.671626 -186.736222 
L 166.37245 -188.557706 
L 168.073274 -190.278986 
L 169.774098 -192.075938 
L 171.474922 -194.1008 
L 173.175746 -196.469147 
L 174.87657 -199.250976 
L 176.577394 -202.467499 
L 178.278218 -206.093865 
L 179.979042 -210.066843 
L 181.679866 -214.295872 
L 183.38069 -218.675846 
L 183.592163 -219.225936 
L 183.38069 -219.225936 
L 181.679866 -219.225936 
L 179.979042 -219.225936 
L 178.278218 -219.225936 
L 176.577394 -219.225936 
L 174.87657 -219.225936 
L 173.175746 -219.225936 
L 171.474922 -219.225936 
L 169.774098 -219.225936 
L 168.073274 -219.225936 
L 166.37245 -219.225936 
L 164.671626 -219.225936 
L 162.970802 -219.225936 
L 161.269978 -219.225936 
L 159.569154 -219.225936 
L 157.86833 -219.225936 
L 156.167506 -219.225936 
L 154.466682 -219.225936 
L 152.765858 -219.225936 
L 151.065034 -219.225936 
L 149.36421 -219.225936 
L 147.663386 -219.225936 
L 145.962562 -219.225936 
L 144.261738 -219.225936 
L 142.560914 -219.225936 
L 140.86009 -219.225936 
L 139.159266 -219.225936 
L 137.458442 -219.225936 
L 135.757618 -219.225936 
L 134.056794 -219.225936 
L 132.35597 -219.225936 
L 130.655146 -219.225936 
L 128.954322 -219.225936 
L 127.253497 -219.225936 
L 125.552673 -219.225936 
L 123.851849 -219.225936 
L 122.151025 -219.225936 
L 120.450201 -219.225936 
L 118.749377 -219.225936 
L 117.048553 -219.225936 
L 115.347729 -219.225936 
L 113.646905 -219.225936 
L 111.946081 -219.225936 
L 110.245257 -219.225936 
L 108.544433 -219.225936 
L 106.843609 -219.225936 
L 105.142785 -219.225936 
L 103.441961 -219.225936 
L 101.741137 -219.225936 
L 100.040313 -219.225936 
L 98.339489 -219.225936 
L 96.638665 -219.225936 
L 94.937841 -219.225936 
z
" style="stroke: #6f0037; stroke-opacity: 0.18"/>
    </defs>
    <g clip-path="url(#pc4774c2cba)">
     <use xlink:href="#m6926960eda" x="0" y="337.124062" style="fill: #6f0037; fill-opacity: 0.18; stroke: #6f0037; stroke-opacity: 0.18"/>
    </g>
   </g>
   <g id="matplotlib.axis_1">
    <g id="xtick_1">
     <g id="line2d_1">
      <defs>
       <path id="m0de7f031d2" d="M 0 0 
L 0 3.5 
" style="stroke: #000000; stroke-width: 0.8"/>
      </defs>
      <g>
       <use xlink:href="#m0de7f031d2" x="149.36421" y="298.6" style="stroke: #000000; stroke-width: 0.8"/>
      </g>
     </g>
     <g id="text_1">
      <!-- 400 -->
      <g transform="translate(139.82046 313.198437) scale(0.1 -0.1)">
       <defs>
        <path id="DejaVuSans-34" d="M 2419 4116 
L 825 1625 
L 2419 1625 
L 2419 4116 
z
M 2253 4666 
L 3047 4666 
L 3047 1625 
L 3713 1625 
L 3713 1100 
L 3047 1100 
L 3047 0 
L 2419 0 
L 2419 1100 
L 313 1100 
L 313 1709 
L 2253 4666 
z
" transform="scale(0.015625)"/>
        <path id="DejaVuSans-30" d="M 2034 4250 
Q 1547 4250 1301 3770 
Q 1056 3291 1056 2328 
Q 1056 1369 1301 889 
Q 1547 409 2034 409 
Q 2525 409 2770 889 
Q 3016 1369 3016 2328 
Q 3016 3291 2770 3770 
Q 2525 4250 2034 4250 
z
M 2034 4750 
Q 2819 4750 3233 4129 
Q 3647 3509 3647 2328 
Q 3647 1150 3233 529 
Q 2819 -91 2034 -91 
Q 1250 -91 836 529 
Q 422 1150 422 2328 
Q 422 3509 836 4129 
Q 1250 4750 2034 4750 
z
" transform="scale(0.015625)"/>
       </defs>
       <use xlink:href="#DejaVuSans-34"/>
       <use xlink:href="#DejaVuSans-30" x="63.623047"/>
       <use xlink:href="#DejaVuSans-30" x="127.246094"/>
      </g>
     </g>
    </g>
    <g id="xtick_2">
     <g id="line2d_2">
      <g>
       <use xlink:href="#m0de7f031d2" x="234.405411" y="298.6" style="stroke: #000000; stroke-width: 0.8"/>
      </g>
     </g>
     <g id="text_2">
      <!-- 500 -->
      <g transform="translate(224.861661 313.198437) scale(0.1 -0.1)">
       <defs>
        <path id="DejaVuSans-35" d="M 691 4666 
L 3169 4666 
L 3169 4134 
L 1269 4134 
L 1269 2991 
Q 1406 3038 1543 3061 
Q 1681 3084 1819 3084 
Q 2600 3084 3056 2656 
Q 3513 2228 3513 1497 
Q 3513 744 3044 326 
Q 2575 -91 1722 -91 
Q 1428 -91 1123 -41 
Q 819 9 494 109 
L 494 744 
Q 775 591 1075 516 
Q 1375 441 1709 441 
Q 2250 441 2565 725 
Q 2881 1009 2881 1497 
Q 2881 1984 2565 2268 
Q 2250 2553 1709 2553 
Q 1456 2553 1204 2497 
Q 953 2441 691 2322 
L 691 4666 
z
" transform="scale(0.015625)"/>
       </defs>
       <use xlink:href="#DejaVuSans-35"/>
       <use xlink:href="#DejaVuSans-30" x="63.623047"/>
       <use xlink:href="#DejaVuSans-30" x="127.246094"/>
      </g>
     </g>
    </g>
    <g id="xtick_3">
     <g id="line2d_3">
      <g>
       <use xlink:href="#m0de7f031d2" x="319.446613" y="298.6" style="stroke: #000000; stroke-width: 0.8"/>
      </g>
     </g>
     <g id="text_3">
      <!-- 600 -->
      <g transform="translate(309.902863 313.198437) scale(0.1 -0.1)">
       <defs>
        <path id="DejaVuSans-36" d="M 2113 2584 
Q 1688 2584 1439 2293 
Q 1191 2003 1191 1497 
Q 1191 994 1439 701 
Q 1688 409 2113 409 
Q 2538 409 2786 701 
Q 3034 994 3034 1497 
Q 3034 2003 2786 2293 
Q 2538 2584 2113 2584 
z
M 3366 4563 
L 3366 3988 
Q 3128 4100 2886 4159 
Q 2644 4219 2406 4219 
Q 1781 4219 1451 3797 
Q 1122 3375 1075 2522 
Q 1259 2794 1537 2939 
Q 1816 3084 2150 3084 
Q 2853 3084 3261 2657 
Q 3669 2231 3669 1497 
Q 3669 778 3244 343 
Q 2819 -91 2113 -91 
Q 1303 -91 875 529 
Q 447 1150 447 2328 
Q 447 3434 972 4092 
Q 1497 4750 2381 4750 
Q 2619 4750 2861 4703 
Q 3103 4656 3366 4563 
z
" transform="scale(0.015625)"/>
       </defs>
       <use xlink:href="#DejaVuSans-36"/>
       <use xlink:href="#DejaVuSans-30" x="63.623047"/>
       <use xlink:href="#DejaVuSans-30" x="127.246094"/>
      </g>
     </g>
    </g>
    <g id="xtick_4">
     <g id="line2d_4">
      <g>
       <use xlink:href="#m0de7f031d2" x="404.487814" y="298.6" style="stroke: #000000; stroke-width: 0.8"/>
      </g>
     </g>
     <g id="text_4">
      <!-- 700 -->
      <g transform="translate(394.944064 313.198437) scale(0.1 -0.1)">
       <defs>
        <path id="DejaVuSans-37" d="M 525 4666 
L 3525 4666 
L 3525 4397 
L 1831 0 
L 1172 0 
L 2766 4134 
L 525 4134 
L 525 4666 
z
" transform="scale(0.015625)"/>
       </defs>
       <use xlink:href="#DejaVuSans-37"/>
       <use xlink:href="#DejaVuSans-30" x="63.623047"/>
       <use xlink:href="#DejaVuSans-30" x="127.246094"/>
      </g>
     </g>
    </g>
    <g id="xtick_5">
     <g id="line2d_5">
      <g>
       <use xlink:href="#m0de7f031d2" x="489.529016" y="298.6" style="stroke: #000000; stroke-width: 0.8"/>
      </g>
     </g>
     <g id="text_5">
      <!-- 800 -->
      <g transform="translate(479.985266 313.198437) scale(0.1 -0.1)">
       <defs>
        <path id="DejaVuSans-38" d="M 2034 2216 
Q 1584 2216 1326 1975 
Q 1069 1734 1069 1313 
Q 1069 891 1326 650 
Q 1584 409 2034 409 
Q 2484 409 2743 651 
Q 3003 894 3003 1313 
Q 3003 1734 2745 1975 
Q 2488 2216 2034 2216 
z
M 1403 2484 
Q 997 2584 770 2862 
Q 544 3141 544 3541 
Q 544 4100 942 4425 
Q 1341 4750 2034 4750 
Q 2731 4750 3128 4425 
Q 3525 4100 3525 3541 
Q 3525 3141 3298 2862 
Q 3072 2584 2669 2484 
Q 3125 2378 3379 2068 
Q 3634 1759 3634 1313 
Q 3634 634 3220 271 
Q 2806 -91 2034 -91 
Q 1263 -91 848 271 
Q 434 634 434 1313 
Q 434 1759 690 2068 
Q 947 2378 1403 2484 
z
M 1172 3481 
Q 1172 3119 1398 2916 
Q 1625 2713 2034 2713 
Q 2441 2713 2670 2916 
Q 2900 3119 2900 3481 
Q 2900 3844 2670 4047 
Q 2441 4250 2034 4250 
Q 1625 4250 1398 4047 
Q 1172 3844 1172 3481 
z
" transform="scale(0.015625)"/>
       </defs>
       <use xlink:href="#DejaVuSans-38"/>
       <use xlink:href="#DejaVuSans-30" x="63.623047"/>
       <use xlink:href="#DejaVuSans-30" x="127.246094"/>
      </g>
     </g>
    </g>
    <g id="xtick_6">
     <g id="line2d_6">
      <g>
       <use xlink:href="#m0de7f031d2" x="574.570217" y="298.6" style="stroke: #000000; stroke-width: 0.8"/>
      </g>
     </g>
     <g id="text_6">
      <!-- 900 -->
      <g transform="translate(565.026467 313.198437) scale(0.1 -0.1)">
       <defs>
        <path id="DejaVuSans-39" d="M 703 97 
L 703 672 
Q 941 559 1184 500 
Q 1428 441 1663 441 
Q 2288 441 2617 861 
Q 2947 1281 2994 2138 
Q 2813 1869 2534 1725 
Q 2256 1581 1919 1581 
Q 1219 1581 811 2004 
Q 403 2428 403 3163 
Q 403 3881 828 4315 
Q 1253 4750 1959 4750 
Q 2769 4750 3195 4129 
Q 3622 3509 3622 2328 
Q 3622 1225 3098 567 
Q 2575 -91 1691 -91 
Q 1453 -91 1209 -44 
Q 966 3 703 97 
z
M 1959 2075 
Q 2384 2075 2632 2365 
Q 2881 2656 2881 3163 
Q 2881 3666 2632 3958 
Q 2384 4250 1959 4250 
Q 1534 4250 1286 3958 
Q 1038 3666 1038 3163 
Q 1038 2656 1286 2365 
Q 1534 2075 1959 2075 
z
" transform="scale(0.015625)"/>
       </defs>
       <use xlink:href="#DejaVuSans-39"/>
       <use xlink:href="#DejaVuSans-30" x="63.623047"/>
       <use xlink:href="#DejaVuSans-30" x="127.246094"/>
      </g>
     </g>
    </g>
    <g id="xtick_7">
     <g id="line2d_7">
      <g>
       <use xlink:href="#m0de7f031d2" x="659.611419" y="298.6" style="stroke: #000000; stroke-width: 0.8"/>
      </g>
     </g>
     <g id="text_7">
      <!-- 1000 -->
      <g transform="translate(646.886419 313.198437) scale(0.1 -0.1)">
       <defs>
        <path id="DejaVuSans-31" d="M 794 531 
L 1825 531 
L 1825 4091 
L 703 3866 
L 703 4441 
L 1819 4666 
L 2450 4666 
L 2450 531 
L 3481 531 
L 3481 0 
L 794 0 
L 794 531 
z
" transform="scale(0.015625)"/>
       </defs>
       <use xlink:href="#DejaVuSans-31"/>
       <use xlink:href="#DejaVuSans-30" x="63.623047"/>
       <use xlink:href="#DejaVuSans-30" x="127.246094"/>
       <use xlink:href="#DejaVuSans-30" x="190.869141"/>
      </g>
     </g>
    </g>
    <g id="text_8">
     <!-- Bangos ilgis, nm -->
     <g transform="translate(340.399453 327.636406) scale(0.11 -0.11)">
      <defs>
       <path id="DejaVuSans-42" d="M 1259 2228 
L 1259 519 
L 2272 519 
Q 2781 519 3026 730 
Q 3272 941 3272 1375 
Q 3272 1813 3026 2020 
Q 2781 2228 2272 2228 
L 1259 2228 
z
M 1259 4147 
L 1259 2741 
L 2194 2741 
Q 2656 2741 2882 2914 
Q 3109 3088 3109 3444 
Q 3109 3797 2882 3972 
Q 2656 4147 2194 4147 
L 1259 4147 
z
M 628 4666 
L 2241 4666 
Q 2963 4666 3353 4366 
Q 3744 4066 3744 3513 
Q 3744 3084 3544 2831 
Q 3344 2578 2956 2516 
Q 3422 2416 3680 2098 
Q 3938 1781 3938 1306 
Q 3938 681 3513 340 
Q 3088 0 2303 0 
L 628 0 
L 628 4666 
z
" transform="scale(0.015625)"/>
       <path id="DejaVuSans-61" d="M 2194 1759 
Q 1497 1759 1228 1600 
Q 959 1441 959 1056 
Q 959 750 1161 570 
Q 1363 391 1709 391 
Q 2188 391 2477 730 
Q 2766 1069 2766 1631 
L 2766 1759 
L 2194 1759 
z
M 3341 1997 
L 3341 0 
L 2766 0 
L 2766 531 
Q 2569 213 2275 61 
Q 1981 -91 1556 -91 
Q 1019 -91 701 211 
Q 384 513 384 1019 
Q 384 1609 779 1909 
Q 1175 2209 1959 2209 
L 2766 2209 
L 2766 2266 
Q 2766 2663 2505 2880 
Q 2244 3097 1772 3097 
Q 1472 3097 1187 3025 
Q 903 2953 641 2809 
L 641 3341 
Q 956 3463 1253 3523 
Q 1550 3584 1831 3584 
Q 2591 3584 2966 3190 
Q 3341 2797 3341 1997 
z
" transform="scale(0.015625)"/>
       <path id="DejaVuSans-6e" d="M 3513 2113 
L 3513 0 
L 2938 0 
L 2938 2094 
Q 2938 2591 2744 2837 
Q 2550 3084 2163 3084 
Q 1697 3084 1428 2787 
Q 1159 2491 1159 1978 
L 1159 0 
L 581 0 
L 581 3500 
L 1159 3500 
L 1159 2956 
Q 1366 3272 1645 3428 
Q 1925 3584 2291 3584 
Q 2894 3584 3203 3211 
Q 3513 2838 3513 2113 
z
" transform="scale(0.015625)"/>
       <path id="DejaVuSans-67" d="M 2906 1791 
Q 2906 2416 2648 2759 
Q 2391 3103 1925 3103 
Q 1463 3103 1205 2759 
Q 947 2416 947 1791 
Q 947 1169 1205 825 
Q 1463 481 1925 481 
Q 2391 481 2648 825 
Q 2906 1169 2906 1791 
z
M 3481 434 
Q 3481 -459 3084 -895 
Q 2688 -1331 1869 -1331 
Q 1566 -1331 1297 -1286 
Q 1028 -1241 775 -1147 
L 775 -588 
Q 1028 -725 1275 -790 
Q 1522 -856 1778 -856 
Q 2344 -856 2625 -561 
Q 2906 -266 2906 331 
L 2906 616 
Q 2728 306 2450 153 
Q 2172 0 1784 0 
Q 1141 0 747 490 
Q 353 981 353 1791 
Q 353 2603 747 3093 
Q 1141 3584 1784 3584 
Q 2172 3584 2450 3431 
Q 2728 3278 2906 2969 
L 2906 3500 
L 3481 3500 
L 3481 434 
z
" transform="scale(0.015625)"/>
       <path id="DejaVuSans-6f" d="M 1959 3097 
Q 1497 3097 1228 2736 
Q 959 2375 959 1747 
Q 959 1119 1226 758 
Q 1494 397 1959 397 
Q 2419 397 2687 759 
Q 2956 1122 2956 1747 
Q 2956 2369 2687 2733 
Q 2419 3097 1959 3097 
z
M 1959 3584 
Q 2709 3584 3137 3096 
Q 3566 2609 3566 1747 
Q 3566 888 3137 398 
Q 2709 -91 1959 -91 
Q 1206 -91 779 398 
Q 353 888 353 1747 
Q 353 2609 779 3096 
Q 1206 3584 1959 3584 
z
" transform="scale(0.015625)"/>
       <path id="DejaVuSans-73" d="M 2834 3397 
L 2834 2853 
Q 2591 2978 2328 3040 
Q 2066 3103 1784 3103 
Q 1356 3103 1142 2972 
Q 928 2841 928 2578 
Q 928 2378 1081 2264 
Q 1234 2150 1697 2047 
L 1894 2003 
Q 2506 1872 2764 1633 
Q 3022 1394 3022 966 
Q 3022 478 2636 193 
Q 2250 -91 1575 -91 
Q 1294 -91 989 -36 
Q 684 19 347 128 
L 347 722 
Q 666 556 975 473 
Q 1284 391 1588 391 
Q 1994 391 2212 530 
Q 2431 669 2431 922 
Q 2431 1156 2273 1281 
Q 2116 1406 1581 1522 
L 1381 1569 
Q 847 1681 609 1914 
Q 372 2147 372 2553 
Q 372 3047 722 3315 
Q 1072 3584 1716 3584 
Q 2034 3584 2315 3537 
Q 2597 3491 2834 3397 
z
" transform="scale(0.015625)"/>
       <path id="DejaVuSans-20" transform="scale(0.015625)"/>
       <path id="DejaVuSans-69" d="M 603 3500 
L 1178 3500 
L 1178 0 
L 603 0 
L 603 3500 
z
M 603 4863 
L 1178 4863 
L 1178 4134 
L 603 4134 
L 603 4863 
z
" transform="scale(0.015625)"/>
       <path id="DejaVuSans-6c" d="M 603 4863 
L 1178 4863 
L 1178 0 
L 603 0 
L 603 4863 
z
" transform="scale(0.015625)"/>
       <path id="DejaVuSans-2c" d="M 750 794 
L 1409 794 
L 1409 256 
L 897 -744 
L 494 -744 
L 750 256 
L 750 794 
z
" transform="scale(0.015625)"/>
       <path id="DejaVuSans-6d" d="M 3328 2828 
Q 3544 3216 3844 3400 
Q 4144 3584 4550 3584 
Q 5097 3584 5394 3201 
Q 5691 2819 5691 2113 
L 5691 0 
L 5113 0 
L 5113 2094 
Q 5113 2597 4934 2840 
Q 4756 3084 4391 3084 
Q 3944 3084 3684 2787 
Q 3425 2491 3425 1978 
L 3425 0 
L 2847 0 
L 2847 2094 
Q 2847 2600 2669 2842 
Q 2491 3084 2119 3084 
Q 1678 3084 1418 2786 
Q 1159 2488 1159 1978 
L 1159 0 
L 581 0 
L 581 3500 
L 1159 3500 
L 1159 2956 
Q 1356 3278 1631 3431 
Q 1906 3584 2284 3584 
Q 2666 3584 2933 3390 
Q 3200 3197 3328 2828 
z
" transform="scale(0.015625)"/>
      </defs>
      <use xlink:href="#DejaVuSans-42"/>
      <use xlink:href="#DejaVuSans-61" x="68.603516"/>
      <use xlink:href="#DejaVuSans-6e" x="129.882812"/>
      <use xlink:href="#DejaVuSans-67" x="193.261719"/>
      <use xlink:href="#DejaVuSans-6f" x="256.738281"/>
      <use xlink:href="#DejaVuSans-73" x="317.919922"/>
      <use xlink:href="#DejaVuSans-20" x="370.019531"/>
      <use xlink:href="#DejaVuSans-69" x="401.806641"/>
      <use xlink:href="#DejaVuSans-6c" x="429.589844"/>
      <use xlink:href="#DejaVuSans-67" x="457.373047"/>
      <use xlink:href="#DejaVuSans-69" x="520.849609"/>
      <use xlink:href="#DejaVuSans-73" x="548.632812"/>
      <use xlink:href="#DejaVuSans-2c" x="600.732422"/>
      <use xlink:href="#DejaVuSans-20" x="632.519531"/>
      <use xlink:href="#DejaVuSans-6e" x="664.306641"/>
      <use xlink:href="#DejaVuSans-6d" x="727.685547"/>
     </g>
    </g>
   </g>
   <g id="matplotlib.axis_2">
    <g id="ytick_1">
     <g id="line2d_8">
      <defs>
       <path id="m4058495067" d="M 0 0 
L -3.5 0 
" style="stroke: #000000; stroke-width: 0.8"/>
      </defs>
      <g>
       <use xlink:href="#m4058495067" x="65.85375" y="285.626762" style="stroke: #000000; stroke-width: 0.8"/>
      </g>
     </g>
     <g id="text_9">
      <!-- −0.010 -->
      <g transform="translate(21.845938 289.42598) scale(0.1 -0.1)">
       <defs>
        <path id="DejaVuSans-2212" d="M 678 2272 
L 4684 2272 
L 4684 1741 
L 678 1741 
L 678 2272 
z
" transform="scale(0.015625)"/>
        <path id="DejaVuSans-2e" d="M 684 794 
L 1344 794 
L 1344 0 
L 684 0 
L 684 794 
z
" transform="scale(0.015625)"/>
       </defs>
       <use xlink:href="#DejaVuSans-2212"/>
       <use xlink:href="#DejaVuSans-30" x="83.789062"/>
       <use xlink:href="#DejaVuSans-2e" x="147.412109"/>
       <use xlink:href="#DejaVuSans-30" x="179.199219"/>
       <use xlink:href="#DejaVuSans-31" x="242.822266"/>
       <use xlink:href="#DejaVuSans-30" x="306.445312"/>
      </g>
     </g>
    </g>
    <g id="ytick_2">
     <g id="line2d_9">
      <g>
       <use xlink:href="#m4058495067" x="65.85375" y="252.081035" style="stroke: #000000; stroke-width: 0.8"/>
      </g>
     </g>
     <g id="text_10">
      <!-- −0.008 -->
      <g transform="translate(21.845938 255.880253) scale(0.1 -0.1)">
       <use xlink:href="#DejaVuSans-2212"/>
       <use xlink:href="#DejaVuSans-30" x="83.789062"/>
       <use xlink:href="#DejaVuSans-2e" x="147.412109"/>
       <use xlink:href="#DejaVuSans-30" x="179.199219"/>
       <use xlink:href="#DejaVuSans-30" x="242.822266"/>
       <use xlink:href="#DejaVuSans-38" x="306.445312"/>
      </g>
     </g>
    </g>
    <g id="ytick_3">
     <g id="line2d_10">
      <g>
       <use xlink:href="#m4058495067" x="65.85375" y="218.535308" style="stroke: #000000; stroke-width: 0.8"/>
      </g>
     </g>
     <g id="text_11">
      <!-- −0.006 -->
      <g transform="translate(21.845938 222.334526) scale(0.1 -0.1)">
       <use xlink:href="#DejaVuSans-2212"/>
       <use xlink:href="#DejaVuSans-30" x="83.789062"/>
       <use xlink:href="#DejaVuSans-2e" x="147.412109"/>
       <use xlink:href="#DejaVuSans-30" x="179.199219"/>
       <use xlink:href="#DejaVuSans-30" x="242.822266"/>
       <use xlink:href="#DejaVuSans-36" x="306.445312"/>
      </g>
     </g>
    </g>
    <g id="ytick_4">
     <g id="line2d_11">
      <g>
       <use xlink:href="#m4058495067" x="65.85375" y="184.989581" style="stroke: #000000; stroke-width: 0.8"/>
      </g>
     </g>
     <g id="text_12">
      <!-- −0.004 -->
      <g transform="translate(21.845938 188.788799) scale(0.1 -0.1)">
       <use xlink:href="#DejaVuSans-2212"/>
       <use xlink:href="#DejaVuSans-30" x="83.789062"/>
       <use xlink:href="#DejaVuSans-2e" x="147.412109"/>
       <use xlink:href="#DejaVuSans-30" x="179.199219"/>
       <use xlink:href="#DejaVuSans-30" x="242.822266"/>
       <use xlink:href="#DejaVuSans-34" x="306.445312"/>
      </g>
     </g>
    </g>
    <g id="ytick_5">
     <g id="line2d_12">
      <g>
       <use xlink:href="#m4058495067" x="65.85375" y="151.443854" style="stroke: #000000; stroke-width: 0.8"/>
      </g>
     </g>
     <g id="text_13">
      <!-- −0.002 -->
      <g transform="translate(21.845938 155.243072) scale(0.1 -0.1)">
       <defs>
        <path id="DejaVuSans-32" d="M 1228 531 
L 3431 531 
L 3431 0 
L 469 0 
L 469 531 
Q 828 903 1448 1529 
Q 2069 2156 2228 2338 
Q 2531 2678 2651 2914 
Q 2772 3150 2772 3378 
Q 2772 3750 2511 3984 
Q 2250 4219 1831 4219 
Q 1534 4219 1204 4116 
Q 875 4013 500 3803 
L 500 4441 
Q 881 4594 1212 4672 
Q 1544 4750 1819 4750 
Q 2544 4750 2975 4387 
Q 3406 4025 3406 3419 
Q 3406 3131 3298 2873 
Q 3191 2616 2906 2266 
Q 2828 2175 2409 1742 
Q 1991 1309 1228 531 
z
" transform="scale(0.015625)"/>
       </defs>
       <use xlink:href="#DejaVuSans-2212"/>
       <use xlink:href="#DejaVuSans-30" x="83.789062"/>
       <use xlink:href="#DejaVuSans-2e" x="147.412109"/>
       <use xlink:href="#DejaVuSans-30" x="179.199219"/>
       <use xlink:href="#DejaVuSans-30" x="242.822266"/>
       <use xlink:href="#DejaVuSans-32" x="306.445312"/>
      </g>
     </g>
    </g>
    <g id="ytick_6">
     <g id="line2d_13">
      <g>
       <use xlink:href="#m4058495067" x="65.85375" y="117.898127" style="stroke: #000000; stroke-width: 0.8"/>
      </g>
     </g>
     <g id="text_14">
      <!-- 0.000 -->
      <g transform="translate(30.225625 121.697346) scale(0.1 -0.1)">
       <use xlink:href="#DejaVuSans-30"/>
       <use xlink:href="#DejaVuSans-2e" x="63.623047"/>
       <use xlink:href="#DejaVuSans-30" x="95.410156"/>
       <use xlink:href="#DejaVuSans-30" x="159.033203"/>
       <use xlink:href="#DejaVuSans-30" x="222.65625"/>
      </g>
     </g>
    </g>
    <g id="ytick_7">
     <g id="line2d_14">
      <g>
       <use xlink:href="#m4058495067" x="65.85375" y="84.3524" style="stroke: #000000; stroke-width: 0.8"/>
      </g>
     </g>
     <g id="text_15">
      <!-- 0.002 -->
      <g transform="translate(30.225625 88.151619) scale(0.1 -0.1)">
       <use xlink:href="#DejaVuSans-30"/>
       <use xlink:href="#DejaVuSans-2e" x="63.623047"/>
       <use xlink:href="#DejaVuSans-30" x="95.410156"/>
       <use xlink:href="#DejaVuSans-30" x="159.033203"/>
       <use xlink:href="#DejaVuSans-32" x="222.65625"/>
      </g>
     </g>
    </g>
    <g id="ytick_8">
     <g id="line2d_15">
      <g>
       <use xlink:href="#m4058495067" x="65.85375" y="50.806673" style="stroke: #000000; stroke-width: 0.8"/>
      </g>
     </g>
     <g id="text_16">
      <!-- 0.004 -->
      <g transform="translate(30.225625 54.605892) scale(0.1 -0.1)">
       <use xlink:href="#DejaVuSans-30"/>
       <use xlink:href="#DejaVuSans-2e" x="63.623047"/>
       <use xlink:href="#DejaVuSans-30" x="95.410156"/>
       <use xlink:href="#DejaVuSans-30" x="159.033203"/>
       <use xlink:href="#DejaVuSans-34" x="222.65625"/>
      </g>
     </g>
    </g>
    <g id="ytick_9">
     <g id="line2d_16">
      <g>
       <use xlink:href="#m4058495067" x="65.85375" y="17.260946" style="stroke: #000000; stroke-width: 0.8"/>
      </g>
     </g>
     <g id="text_17">
      <!-- 0.006 -->
      <g transform="translate(30.225625 21.060165) scale(0.1 -0.1)">
       <use xlink:href="#DejaVuSans-30"/>
       <use xlink:href="#DejaVuSans-2e" x="63.623047"/>
       <use xlink:href="#DejaVuSans-30" x="95.410156"/>
       <use xlink:href="#DejaVuSans-30" x="159.033203"/>
       <use xlink:href="#DejaVuSans-36" x="222.65625"/>
      </g>
     </g>
    </g>
    <g id="text_18">
     <!-- Vidurkių skirtumas -->
     <g transform="translate(15.558281 204.325) rotate(-90) scale(0.11 -0.11)">
      <defs>
       <path id="DejaVuSans-56" d="M 1831 0 
L 50 4666 
L 709 4666 
L 2188 738 
L 3669 4666 
L 4325 4666 
L 2547 0 
L 1831 0 
z
" transform="scale(0.015625)"/>
       <path id="DejaVuSans-64" d="M 2906 2969 
L 2906 4863 
L 3481 4863 
L 3481 0 
L 2906 0 
L 2906 525 
Q 2725 213 2448 61 
Q 2172 -91 1784 -91 
Q 1150 -91 751 415 
Q 353 922 353 1747 
Q 353 2572 751 3078 
Q 1150 3584 1784 3584 
Q 2172 3584 2448 3432 
Q 2725 3281 2906 2969 
z
M 947 1747 
Q 947 1113 1208 752 
Q 1469 391 1925 391 
Q 2381 391 2643 752 
Q 2906 1113 2906 1747 
Q 2906 2381 2643 2742 
Q 2381 3103 1925 3103 
Q 1469 3103 1208 2742 
Q 947 2381 947 1747 
z
" transform="scale(0.015625)"/>
       <path id="DejaVuSans-75" d="M 544 1381 
L 544 3500 
L 1119 3500 
L 1119 1403 
Q 1119 906 1312 657 
Q 1506 409 1894 409 
Q 2359 409 2629 706 
Q 2900 1003 2900 1516 
L 2900 3500 
L 3475 3500 
L 3475 0 
L 2900 0 
L 2900 538 
Q 2691 219 2414 64 
Q 2138 -91 1772 -91 
Q 1169 -91 856 284 
Q 544 659 544 1381 
z
M 1991 3584 
L 1991 3584 
z
" transform="scale(0.015625)"/>
       <path id="DejaVuSans-72" d="M 2631 2963 
Q 2534 3019 2420 3045 
Q 2306 3072 2169 3072 
Q 1681 3072 1420 2755 
Q 1159 2438 1159 1844 
L 1159 0 
L 581 0 
L 581 3500 
L 1159 3500 
L 1159 2956 
Q 1341 3275 1631 3429 
Q 1922 3584 2338 3584 
Q 2397 3584 2469 3576 
Q 2541 3569 2628 3553 
L 2631 2963 
z
" transform="scale(0.015625)"/>
       <path id="DejaVuSans-6b" d="M 581 4863 
L 1159 4863 
L 1159 1991 
L 2875 3500 
L 3609 3500 
L 1753 1863 
L 3688 0 
L 2938 0 
L 1159 1709 
L 1159 0 
L 581 0 
L 581 4863 
z
" transform="scale(0.015625)"/>
       <path id="DejaVuSans-173" d="M 544 1381 
L 544 3500 
L 1119 3500 
L 1119 1403 
Q 1119 906 1312 657 
Q 1506 409 1894 409 
Q 2359 409 2629 706 
Q 2900 1003 2900 1516 
L 2900 3500 
L 3475 3500 
L 3475 0 
L 2900 0 
L 2900 538 
Q 2691 219 2414 64 
Q 2138 -91 1772 -91 
Q 1169 -91 856 284 
Q 544 659 544 1381 
z
M 1991 3584 
L 1991 3584 
z
M 3095 0 
L 3467 0 
Q 3326 -191 3259 -328 
Q 3192 -466 3192 -563 
Q 3192 -706 3278 -778 
Q 3364 -850 3533 -850 
Q 3633 -850 3729 -826 
Q 3826 -803 3923 -756 
L 3923 -1172 
Q 3804 -1203 3698 -1218 
Q 3592 -1234 3498 -1234 
Q 3117 -1234 2937 -1098 
Q 2758 -963 2758 -672 
Q 2758 -522 2840 -358 
Q 2923 -194 3095 0 
z
" transform="scale(0.015625)"/>
       <path id="DejaVuSans-74" d="M 1172 4494 
L 1172 3500 
L 2356 3500 
L 2356 3053 
L 1172 3053 
L 1172 1153 
Q 1172 725 1289 603 
Q 1406 481 1766 481 
L 2356 481 
L 2356 0 
L 1766 0 
Q 1100 0 847 248 
Q 594 497 594 1153 
L 594 3053 
L 172 3053 
L 172 3500 
L 594 3500 
L 594 4494 
L 1172 4494 
z
" transform="scale(0.015625)"/>
      </defs>
      <use xlink:href="#DejaVuSans-56"/>
      <use xlink:href="#DejaVuSans-69" x="66.158203"/>
      <use xlink:href="#DejaVuSans-64" x="93.941406"/>
      <use xlink:href="#DejaVuSans-75" x="157.417969"/>
      <use xlink:href="#DejaVuSans-72" x="220.796875"/>
      <use xlink:href="#DejaVuSans-6b" x="261.910156"/>
      <use xlink:href="#DejaVuSans-69" x="319.820312"/>
      <use xlink:href="#DejaVuSans-173" x="347.603516"/>
      <use xlink:href="#DejaVuSans-20" x="410.982422"/>
      <use xlink:href="#DejaVuSans-73" x="442.769531"/>
      <use xlink:href="#DejaVuSans-6b" x="494.869141"/>
      <use xlink:href="#DejaVuSans-69" x="552.779297"/>
      <use xlink:href="#DejaVuSans-72" x="580.5625"/>
      <use xlink:href="#DejaVuSans-74" x="621.675781"/>
      <use xlink:href="#DejaVuSans-75" x="660.884766"/>
      <use xlink:href="#DejaVuSans-6d" x="724.263672"/>
      <use xlink:href="#DejaVuSans-61" x="821.675781"/>
      <use xlink:href="#DejaVuSans-73" x="882.955078"/>
     </g>
    </g>
   </g>
   <g id="line2d_17">
    <path d="M 94.937841 261.537612 
L 96.638665 278.89063 
L 98.339489 285.354545 
L 100.040313 279.076955 
L 101.741137 266.905577 
L 103.441961 256.388941 
L 105.142785 251.857221 
L 106.843609 246.133053 
L 108.544433 236.433274 
L 110.245257 229.843975 
L 111.946081 234.348603 
L 113.646905 244.499737 
L 115.347729 250.462615 
L 117.048553 243.782795 
L 118.749377 230.949899 
L 120.450201 223.079991 
L 122.151025 222.709444 
L 123.851849 224.711107 
L 127.253497 227.940354 
L 128.954322 227.332944 
L 130.655146 223.293559 
L 132.35597 217.67128 
L 134.056794 216.810857 
L 135.757618 223.854143 
L 137.458442 232.619711 
L 139.159266 235.909413 
L 140.86009 233.360043 
L 142.560914 229.367654 
L 144.261738 225.02283 
L 145.962562 218.243568 
L 147.663386 206.804361 
L 151.065034 176.231037 
L 152.765858 165.100377 
L 154.466682 159.602939 
L 156.167506 157.850007 
L 157.86833 156.510263 
L 159.569154 153.504952 
L 161.269978 149.387281 
L 162.970802 145.993461 
L 164.671626 145.013618 
L 166.37245 146.460711 
L 168.073274 148.760419 
L 169.774098 149.969105 
L 171.474922 149.069353 
L 173.175746 146.16782 
L 176.577394 138.255814 
L 178.278218 134.225002 
L 179.979042 129.85679 
L 181.679866 124.699716 
L 186.782339 106.41838 
L 188.483163 101.639787 
L 190.183987 98.10889 
L 195.286459 90.077205 
L 196.987283 86.624858 
L 200.388931 79.123309 
L 202.089755 76.097196 
L 203.790579 73.980756 
L 205.491403 72.7931 
L 207.192227 72.065296 
L 208.893051 71.553359 
L 210.593875 70.869538 
L 212.294699 69.89753 
L 215.696347 67.71769 
L 217.397171 66.842661 
L 219.097995 66.408366 
L 220.798819 66.190751 
L 222.499643 66.185151 
L 224.200467 66.021068 
L 225.901291 65.512011 
L 227.602115 64.571017 
L 232.704587 61.070015 
L 234.405411 60.380426 
L 236.106235 60.46561 
L 237.807059 61.055332 
L 239.507883 62.159918 
L 241.208707 63.442355 
L 242.909531 64.537428 
L 244.610356 65.198266 
L 246.31118 65.152253 
L 248.012004 64.29915 
L 249.712828 62.699333 
L 251.413652 60.618273 
L 256.516124 52.992572 
L 258.216948 50.791206 
L 259.917772 48.929534 
L 261.618596 47.577688 
L 265.020244 45.56829 
L 270.122716 42.9017 
L 275.225188 39.449067 
L 278.626836 37.214442 
L 282.028484 35.891985 
L 283.729308 35.469791 
L 287.130956 35.159334 
L 288.83178 35.006978 
L 290.532604 34.690827 
L 292.233428 34.208949 
L 293.934252 33.305079 
L 299.036724 29.503375 
L 302.438373 27.593627 
L 304.139197 27.055518 
L 310.942493 26.767127 
L 312.643317 26.36992 
L 316.044965 26.224246 
L 322.848261 24.835826 
L 324.549085 24.765535 
L 333.053205 25.399799 
L 334.754029 25.32508 
L 336.454853 25.48934 
L 338.155677 25.33817 
L 343.258149 22.917275 
L 344.958973 21.955129 
L 348.360621 20.445455 
L 350.061445 20.496607 
L 353.463093 21.805732 
L 355.163917 21.860777 
L 358.565566 25.838491 
L 360.26639 26.156517 
L 361.967214 24.734061 
L 363.668038 22.907652 
L 365.368862 21.803737 
L 367.069686 21.876854 
L 368.77051 22.641983 
L 370.471334 23.199735 
L 372.172158 23.073747 
L 375.573806 21.848821 
L 377.27463 21.638086 
L 378.975454 21.930577 
L 382.377102 23.63663 
L 384.077926 23.94152 
L 385.77875 23.922315 
L 389.180398 23.244045 
L 390.881222 23.152828 
L 397.684518 23.804665 
L 399.385342 23.608469 
L 401.086166 23.546379 
L 402.78699 23.631148 
L 404.487814 23.949698 
L 406.188638 24.08169 
L 407.889462 24.424288 
L 409.590286 24.648786 
L 411.29111 24.661804 
L 412.991934 24.899779 
L 418.094407 25.905393 
L 421.496055 26.077318 
L 423.196879 25.722704 
L 424.897703 25.609423 
L 428.299351 25.567975 
L 430.000175 25.873588 
L 433.401823 26.998647 
L 436.803471 27.438768 
L 438.504295 27.53352 
L 441.905943 27.455256 
L 445.307591 27.469308 
L 447.008415 27.228979 
L 448.709239 27.102009 
L 450.410063 26.771171 
L 453.811711 26.755052 
L 455.512535 26.913756 
L 462.315831 29.127463 
L 467.418303 29.190211 
L 470.819951 29.004672 
L 472.520776 29.107631 
L 474.2216 29.542852 
L 477.623248 30.081763 
L 481.024896 30.64697 
L 484.426544 31.076713 
L 486.127368 31.269517 
L 492.930664 32.860611 
L 498.033136 33.17495 
L 499.73396 33.181542 
L 501.434784 33.507804 
L 503.135608 33.493082 
L 508.23808 34.549546 
L 509.938904 34.958359 
L 513.340552 35.113261 
L 518.443024 35.197172 
L 521.844672 35.535615 
L 525.24632 36.886944 
L 526.947144 38.108325 
L 530.348793 39.313048 
L 533.750441 40.141315 
L 535.451265 40.229002 
L 537.152089 40.189059 
L 538.852913 39.954297 
L 540.553737 39.92441 
L 545.656209 40.275204 
L 547.357033 39.994604 
L 549.057857 40.587741 
L 550.758681 40.419578 
L 552.459505 40.505126 
L 555.861153 40.037193 
L 557.561977 39.328005 
L 559.262801 39.179906 
L 560.963625 39.22543 
L 564.365273 40.049646 
L 566.066097 40.537432 
L 569.467745 42.081955 
L 571.168569 42.441617 
L 572.869393 42.965537 
L 574.570217 43.088411 
L 577.971865 43.004738 
L 579.672689 42.974924 
L 581.373513 42.510369 
L 588.17681 43.051524 
L 589.877634 43.887955 
L 591.578458 44.369973 
L 593.279282 44.302736 
L 594.980106 44.87574 
L 596.68093 45.271377 
L 598.381754 44.983012 
L 601.783402 45.199899 
L 603.484226 45.063458 
L 606.885874 45.059766 
L 608.586698 45.607497 
L 610.287522 46.291481 
L 611.988346 46.237141 
L 613.68917 47.308466 
L 615.389994 48.070147 
L 617.090818 47.969291 
L 618.791642 48.710336 
L 620.492466 48.83282 
L 622.19329 48.214555 
L 623.894114 47.931565 
L 627.295762 46.645368 
L 628.996586 45.822297 
L 630.69741 45.914593 
L 634.099058 45.590683 
L 635.799882 46.868968 
L 637.500706 47.315266 
L 639.20153 48.525093 
L 640.902354 50.548239 
L 642.603178 51.184066 
L 644.304003 53.159981 
L 646.004827 53.972324 
L 647.705651 54.612722 
L 649.406475 55.402505 
L 651.107299 54.357535 
L 652.808123 54.100916 
L 654.508947 52.43135 
L 656.209771 50.499316 
L 657.910595 49.001519 
L 659.611419 46.729512 
L 661.312243 44.830813 
L 663.013067 43.555218 
L 664.713891 41.562783 
L 666.414715 41.296296 
L 669.816363 39.915166 
L 671.517187 41.118731 
L 673.218011 40.587004 
L 674.918835 42.68278 
L 676.619659 42.720224 
L 676.619659 42.720224 
" clip-path="url(#pc4774c2cba)" style="fill: none; stroke: #104a7e; stroke-width: 2; stroke-linecap: square"/>
   </g>
   <g id="line2d_18">
    <path d="M 94.937841 269.111646 
L 96.638665 267.523108 
L 98.339489 265.515973 
L 100.040313 263.096731 
L 101.741137 260.313061 
L 105.142785 254.061773 
L 108.544433 247.822302 
L 110.245257 245.001888 
L 111.946081 242.440947 
L 115.347729 237.971618 
L 118.749377 234.047572 
L 122.151025 230.609483 
L 123.851849 229.170555 
L 125.552673 227.979786 
L 127.253497 227.061437 
L 128.954322 226.409358 
L 130.655146 225.978502 
L 134.056794 225.357833 
L 135.757618 224.824394 
L 137.458442 223.840611 
L 139.159266 222.162566 
L 140.86009 219.578934 
L 142.560914 215.954223 
L 144.261738 211.263044 
L 145.962562 205.605555 
L 147.663386 199.198997 
L 152.765858 178.663643 
L 154.466682 172.440438 
L 156.167506 166.91363 
L 157.86833 162.181277 
L 159.569154 158.252672 
L 161.269978 155.063456 
L 162.970802 152.494129 
L 164.671626 150.38784 
L 171.474922 143.023262 
L 173.175746 140.654916 
L 174.87657 137.873086 
L 176.577394 134.656563 
L 178.278218 131.030197 
L 181.679866 122.828191 
L 188.483163 105.410025 
L 191.884811 97.511656 
L 195.286459 90.527941 
L 196.987283 87.392462 
L 198.688107 84.500274 
L 200.388931 81.859393 
L 202.089755 79.478115 
L 203.790579 77.360345 
L 205.491403 75.501435 
L 207.192227 73.886366 
L 208.893051 72.490902 
L 210.593875 71.285018 
L 213.995523 69.317213 
L 217.397171 67.75922 
L 222.499643 65.823112 
L 227.602115 64.10322 
L 231.003763 63.175836 
L 234.405411 62.616606 
L 237.807059 62.450332 
L 241.208707 62.399346 
L 242.909531 62.259874 
L 244.610356 61.953985 
L 246.31118 61.428357 
L 248.012004 60.651962 
L 249.712828 59.620682 
L 251.413652 58.35722 
L 254.8153 55.328149 
L 259.917772 50.442091 
L 263.31942 47.495662 
L 266.721068 44.927823 
L 270.122716 42.666301 
L 273.524364 40.631621 
L 276.926012 38.816501 
L 280.32766 37.255535 
L 283.729308 35.937071 
L 292.233428 32.865123 
L 304.139197 28.05224 
L 307.540845 27.146748 
L 310.942493 26.492328 
L 316.044965 25.776002 
L 321.147437 25.252105 
L 326.249909 24.948233 
L 333.053205 24.601432 
L 336.454853 24.197991 
L 339.856501 23.578599 
L 344.958973 22.563308 
L 348.360621 22.182679 
L 351.762269 22.208118 
L 361.967214 22.986444 
L 365.368862 22.857967 
L 372.172158 22.44569 
L 375.573806 22.414554 
L 380.676278 22.637333 
L 389.180398 23.125188 
L 402.78699 23.715406 
L 409.590286 24.351676 
L 418.094407 25.192909 
L 441.905943 26.933209 
L 452.110887 27.126189 
L 457.213359 27.587297 
L 469.119127 28.951987 
L 475.922424 29.682781 
L 482.72572 30.651271 
L 496.332312 32.67788 
L 518.443024 35.515841 
L 521.844672 36.211796 
L 533.750441 39.023183 
L 537.152089 39.473846 
L 540.553737 39.731136 
L 545.656209 39.890218 
L 552.459505 39.853732 
L 557.561977 39.844462 
L 560.963625 40.034045 
L 564.365273 40.450444 
L 576.271041 42.310471 
L 591.578458 43.802677 
L 600.082578 44.792508 
L 606.885874 45.610338 
L 617.090818 47.108042 
L 620.492466 47.248894 
L 623.894114 47.138967 
L 628.996586 46.944684 
L 630.69741 47.016817 
L 632.398234 47.209274 
L 634.099058 47.536936 
L 635.799882 47.99875 
L 639.20153 49.234293 
L 642.603178 50.583802 
L 644.304003 51.152451 
L 646.004827 51.568206 
L 647.705651 51.779173 
L 649.406475 51.74847 
L 651.107299 51.458661 
L 652.808123 50.914132 
L 654.508947 50.141071 
L 657.910595 48.10601 
L 663.013067 44.808577 
L 664.713891 43.887484 
L 666.414715 43.11896 
L 668.115539 42.513605 
L 669.816363 42.06553 
L 671.517187 41.757071 
L 674.918835 41.461438 
L 676.619659 41.424976 
L 676.619659 41.424976 
" clip-path="url(#pc4774c2cba)" style="fill: none; stroke: #78003f; stroke-width: 2; stroke-linecap: square"/>
   </g>
   <g id="line2d_19">
    <path d="M 65.85375 117.898127 
L 705.70375 117.898127 
" clip-path="url(#pc4774c2cba)" style="fill: none; stroke-dasharray: 3.33,1.44; stroke-dashoffset: 0; stroke: #0d1530; stroke-width: 0.9"/>
   </g>
   <g id="patch_3">
    <path d="M 65.85375 298.6 
L 65.85375 7.2 
" style="fill: none; stroke: #000000; stroke-width: 0.8; stroke-linejoin: miter; stroke-linecap: square"/>
   </g>
   <g id="patch_4">
    <path d="M 65.85375 298.6 
L 705.70375 298.6 
" style="fill: none; stroke: #000000; stroke-width: 0.8; stroke-linejoin: miter; stroke-linecap: square"/>
   </g>
   <g id="legend_1">
    <g id="line2d_20">
     <path d="M 512.62 245.847344 
L 521.62 245.847344 
L 530.62 245.847344 
" style="fill: none; stroke: #104a7e; stroke-width: 2; stroke-linecap: square"/>
    </g>
    <g id="text_19">
     <!-- Be glodinimo -->
     <g transform="translate(537.82 248.997344) scale(0.09 -0.09)">
      <defs>
       <path id="DejaVuSans-65" d="M 3597 1894 
L 3597 1613 
L 953 1613 
Q 991 1019 1311 708 
Q 1631 397 2203 397 
Q 2534 397 2845 478 
Q 3156 559 3463 722 
L 3463 178 
Q 3153 47 2828 -22 
Q 2503 -91 2169 -91 
Q 1331 -91 842 396 
Q 353 884 353 1716 
Q 353 2575 817 3079 
Q 1281 3584 2069 3584 
Q 2775 3584 3186 3129 
Q 3597 2675 3597 1894 
z
M 3022 2063 
Q 3016 2534 2758 2815 
Q 2500 3097 2075 3097 
Q 1594 3097 1305 2825 
Q 1016 2553 972 2059 
L 3022 2063 
z
" transform="scale(0.015625)"/>
      </defs>
      <use xlink:href="#DejaVuSans-42"/>
      <use xlink:href="#DejaVuSans-65" x="68.603516"/>
      <use xlink:href="#DejaVuSans-20" x="130.126953"/>
      <use xlink:href="#DejaVuSans-67" x="161.914062"/>
      <use xlink:href="#DejaVuSans-6c" x="225.390625"/>
      <use xlink:href="#DejaVuSans-6f" x="253.173828"/>
      <use xlink:href="#DejaVuSans-64" x="314.355469"/>
      <use xlink:href="#DejaVuSans-69" x="377.832031"/>
      <use xlink:href="#DejaVuSans-6e" x="405.615234"/>
      <use xlink:href="#DejaVuSans-69" x="468.994141"/>
      <use xlink:href="#DejaVuSans-6d" x="496.777344"/>
      <use xlink:href="#DejaVuSans-6f" x="594.189453"/>
     </g>
    </g>
    <g id="line2d_21">
     <path d="M 512.62 259.057656 
L 521.62 259.057656 
L 530.62 259.057656 
" style="fill: none; stroke: #78003f; stroke-width: 2; stroke-linecap: square"/>
    </g>
    <g id="text_20">
     <!-- Glodinimas, sigma=8 -->
     <g transform="translate(537.82 262.207656) scale(0.09 -0.09)">
      <defs>
       <path id="DejaVuSans-47" d="M 3809 666 
L 3809 1919 
L 2778 1919 
L 2778 2438 
L 4434 2438 
L 4434 434 
Q 4069 175 3628 42 
Q 3188 -91 2688 -91 
Q 1594 -91 976 548 
Q 359 1188 359 2328 
Q 359 3472 976 4111 
Q 1594 4750 2688 4750 
Q 3144 4750 3555 4637 
Q 3966 4525 4313 4306 
L 4313 3634 
Q 3963 3931 3569 4081 
Q 3175 4231 2741 4231 
Q 1884 4231 1454 3753 
Q 1025 3275 1025 2328 
Q 1025 1384 1454 906 
Q 1884 428 2741 428 
Q 3075 428 3337 486 
Q 3600 544 3809 666 
z
" transform="scale(0.015625)"/>
       <path id="DejaVuSans-3d" d="M 678 2906 
L 4684 2906 
L 4684 2381 
L 678 2381 
L 678 2906 
z
M 678 1631 
L 4684 1631 
L 4684 1100 
L 678 1100 
L 678 1631 
z
" transform="scale(0.015625)"/>
      </defs>
      <use xlink:href="#DejaVuSans-47"/>
      <use xlink:href="#DejaVuSans-6c" x="77.490234"/>
      <use xlink:href="#DejaVuSans-6f" x="105.273438"/>
      <use xlink:href="#DejaVuSans-64" x="166.455078"/>
      <use xlink:href="#DejaVuSans-69" x="229.931641"/>
      <use xlink:href="#DejaVuSans-6e" x="257.714844"/>
      <use xlink:href="#DejaVuSans-69" x="321.09375"/>
      <use xlink:href="#DejaVuSans-6d" x="348.876953"/>
      <use xlink:href="#DejaVuSans-61" x="446.289062"/>
      <use xlink:href="#DejaVuSans-73" x="507.568359"/>
      <use xlink:href="#DejaVuSans-2c" x="559.667969"/>
      <use xlink:href="#DejaVuSans-20" x="591.455078"/>
      <use xlink:href="#DejaVuSans-73" x="623.242188"/>
      <use xlink:href="#DejaVuSans-69" x="675.341797"/>
      <use xlink:href="#DejaVuSans-67" x="703.125"/>
      <use xlink:href="#DejaVuSans-6d" x="766.601562"/>
      <use xlink:href="#DejaVuSans-61" x="864.013672"/>
      <use xlink:href="#DejaVuSans-3d" x="925.292969"/>
      <use xlink:href="#DejaVuSans-38" x="1009.082031"/>
     </g>
    </g>
    <g id="patch_5">
     <path d="M 512.62 275.417969 
L 530.62 275.417969 
L 530.62 269.117969 
L 512.62 269.117969 
z
" style="fill: #6193cd; fill-opacity: 0.22; stroke: #6193cd; stroke-opacity: 0.22; stroke-linejoin: miter"/>
    </g>
    <g id="text_21">
     <!-- Teigiamas glodinto skirtumo plotas -->
     <g transform="translate(537.82 275.417969) scale(0.09 -0.09)">
      <defs>
       <path id="DejaVuSans-54" d="M -19 4666 
L 3928 4666 
L 3928 4134 
L 2272 4134 
L 2272 0 
L 1638 0 
L 1638 4134 
L -19 4134 
L -19 4666 
z
" transform="scale(0.015625)"/>
       <path id="DejaVuSans-70" d="M 1159 525 
L 1159 -1331 
L 581 -1331 
L 581 3500 
L 1159 3500 
L 1159 2969 
Q 1341 3281 1617 3432 
Q 1894 3584 2278 3584 
Q 2916 3584 3314 3078 
Q 3713 2572 3713 1747 
Q 3713 922 3314 415 
Q 2916 -91 2278 -91 
Q 1894 -91 1617 61 
Q 1341 213 1159 525 
z
M 3116 1747 
Q 3116 2381 2855 2742 
Q 2594 3103 2138 3103 
Q 1681 3103 1420 2742 
Q 1159 2381 1159 1747 
Q 1159 1113 1420 752 
Q 1681 391 2138 391 
Q 2594 391 2855 752 
Q 3116 1113 3116 1747 
z
" transform="scale(0.015625)"/>
      </defs>
      <use xlink:href="#DejaVuSans-54"/>
      <use xlink:href="#DejaVuSans-65" x="44.083984"/>
      <use xlink:href="#DejaVuSans-69" x="105.607422"/>
      <use xlink:href="#DejaVuSans-67" x="133.390625"/>
      <use xlink:href="#DejaVuSans-69" x="196.867188"/>
      <use xlink:href="#DejaVuSans-61" x="224.650391"/>
      <use xlink:href="#DejaVuSans-6d" x="285.929688"/>
      <use xlink:href="#DejaVuSans-61" x="383.341797"/>
      <use xlink:href="#DejaVuSans-73" x="444.621094"/>
      <use xlink:href="#DejaVuSans-20" x="496.720703"/>
      <use xlink:href="#DejaVuSans-67" x="528.507812"/>
      <use xlink:href="#DejaVuSans-6c" x="591.984375"/>
      <use xlink:href="#DejaVuSans-6f" x="619.767578"/>
      <use xlink:href="#DejaVuSans-64" x="680.949219"/>
      <use xlink:href="#DejaVuSans-69" x="744.425781"/>
      <use xlink:href="#DejaVuSans-6e" x="772.208984"/>
      <use xlink:href="#DejaVuSans-74" x="835.587891"/>
      <use xlink:href="#DejaVuSans-6f" x="874.796875"/>
      <use xlink:href="#DejaVuSans-20" x="935.978516"/>
      <use xlink:href="#DejaVuSans-73" x="967.765625"/>
      <use xlink:href="#DejaVuSans-6b" x="1019.865234"/>
      <use xlink:href="#DejaVuSans-69" x="1077.775391"/>
      <use xlink:href="#DejaVuSans-72" x="1105.558594"/>
      <use xlink:href="#DejaVuSans-74" x="1146.671875"/>
      <use xlink:href="#DejaVuSans-75" x="1185.880859"/>
      <use xlink:href="#DejaVuSans-6d" x="1249.259766"/>
      <use xlink:href="#DejaVuSans-6f" x="1346.671875"/>
      <use xlink:href="#DejaVuSans-20" x="1407.853516"/>
      <use xlink:href="#DejaVuSans-70" x="1439.640625"/>
      <use xlink:href="#DejaVuSans-6c" x="1503.117188"/>
      <use xlink:href="#DejaVuSans-6f" x="1530.900391"/>
      <use xlink:href="#DejaVuSans-74" x="1592.082031"/>
      <use xlink:href="#DejaVuSans-61" x="1631.291016"/>
      <use xlink:href="#DejaVuSans-73" x="1692.570312"/>
     </g>
    </g>
    <g id="patch_6">
     <path d="M 512.62 288.628281 
L 530.62 288.628281 
L 530.62 282.328281 
L 512.62 282.328281 
z
" style="fill: #6f0037; fill-opacity: 0.18; stroke: #6f0037; stroke-opacity: 0.18; stroke-linejoin: miter"/>
    </g>
    <g id="text_22">
     <!-- Neigiamas glodinto skirtumo plotas -->
     <g transform="translate(537.82 288.628281) scale(0.09 -0.09)">
      <defs>
       <path id="DejaVuSans-4e" d="M 628 4666 
L 1478 4666 
L 3547 763 
L 3547 4666 
L 4159 4666 
L 4159 0 
L 3309 0 
L 1241 3903 
L 1241 0 
L 628 0 
L 628 4666 
z
" transform="scale(0.015625)"/>
      </defs>
      <use xlink:href="#DejaVuSans-4e"/>
      <use xlink:href="#DejaVuSans-65" x="74.804688"/>
      <use xlink:href="#DejaVuSans-69" x="136.328125"/>
      <use xlink:href="#DejaVuSans-67" x="164.111328"/>
      <use xlink:href="#DejaVuSans-69" x="227.587891"/>
      <use xlink:href="#DejaVuSans-61" x="255.371094"/>
      <use xlink:href="#DejaVuSans-6d" x="316.650391"/>
      <use xlink:href="#DejaVuSans-61" x="414.0625"/>
      <use xlink:href="#DejaVuSans-73" x="475.341797"/>
      <use xlink:href="#DejaVuSans-20" x="527.441406"/>
      <use xlink:href="#DejaVuSans-67" x="559.228516"/>
      <use xlink:href="#DejaVuSans-6c" x="622.705078"/>
      <use xlink:href="#DejaVuSans-6f" x="650.488281"/>
      <use xlink:href="#DejaVuSans-64" x="711.669922"/>
      <use xlink:href="#DejaVuSans-69" x="775.146484"/>
      <use xlink:href="#DejaVuSans-6e" x="802.929688"/>
      <use xlink:href="#DejaVuSans-74" x="866.308594"/>
      <use xlink:href="#DejaVuSans-6f" x="905.517578"/>
      <use xlink:href="#DejaVuSans-20" x="966.699219"/>
      <use xlink:href="#DejaVuSans-73" x="998.486328"/>
      <use xlink:href="#DejaVuSans-6b" x="1050.585938"/>
      <use xlink:href="#DejaVuSans-69" x="1108.496094"/>
      <use xlink:href="#DejaVuSans-72" x="1136.279297"/>
      <use xlink:href="#DejaVuSans-74" x="1177.392578"/>
      <use xlink:href="#DejaVuSans-75" x="1216.601562"/>
      <use xlink:href="#DejaVuSans-6d" x="1279.980469"/>
      <use xlink:href="#DejaVuSans-6f" x="1377.392578"/>
      <use xlink:href="#DejaVuSans-20" x="1438.574219"/>
      <use xlink:href="#DejaVuSans-70" x="1470.361328"/>
      <use xlink:href="#DejaVuSans-6c" x="1533.837891"/>
      <use xlink:href="#DejaVuSans-6f" x="1561.621094"/>
      <use xlink:href="#DejaVuSans-74" x="1622.802734"/>
      <use xlink:href="#DejaVuSans-61" x="1662.011719"/>
      <use xlink:href="#DejaVuSans-73" x="1723.291016"/>
     </g>
    </g>
   </g>
  </g>
 </g>
 <defs>
  <clipPath id="pc4774c2cba">
   <rect x="65.85375" y="7.2" width="639.85" height="291.4"/>
  </clipPath>
 </defs>
</svg>
