<?xml version="1.0" encoding="utf-8" standalone="no"?>
<!DOCTYPE svg PUBLIC "-//W3C//DTD SVG 1.1//EN"
  "http://www.w3.org/Graphics/SVG/1.1/DTD/svg11.dtd">
<svg xmlns:xlink="http://www.w3.org/1999/xlink" width="712.84125pt" height="337.124062pt" viewBox="0 0 712.84125 337.124062" xmlns="http://www.w3.org/2000/svg" version="1.1">
 <metadata>
  <rdf:RDF xmlns:dc="http://purl.org/dc/elements/1.1/" xmlns:cc="http://creativecommons.org/ns#" xmlns:rdf="http://www.w3.org/1999/02/22-rdf-syntax-ns#">
   <cc:Work>
    <dc:type rdf:resource="http://purl.org/dc/dcmitype/StillImage"/>
    <dc:date>2026-05-06T17:48:38.174062</dc:date>
    <dc:format>image/svg+xml</dc:format>
    <dc:creator>
     <cc:Agent>
      <dc:title>Matplotlib v3.8.0, https://matplotlib.org/</dc:title>
     </cc:Agent>
    </dc:creator>
   </cc:Work>
  </rdf:RDF>
 </metadata>
 <defs>
  <style type="text/css">*{stroke-linejoin: round; stroke-linecap: butt}</style>
 </defs>
 <g id="figure_1">
  <g id="patch_1">
   <path d="M 0 337.124062 
L 712.84125 337.124062 
L 712.84125 0 
L 0 0 
z
" style="fill: #ffffff"/>
  </g>
  <g id="axes_1">
   <g id="patch_2">
    <path d="M 59.49125 298.6 
L 705.64125 298.6 
L 705.64125 7.2 
L 59.49125 7.2 
z
" style="fill: #ffffff"/>
   </g>
   <g id="PolyCollection_1">
    <path d="M 92.494306 191.176472 
L 94.014416 187.035625 
L 95.731986 182.652203 
L 97.449557 177.883569 
L 99.167127 172.10929 
L 100.884698 164.96468 
L 102.602268 156.542721 
L 104.319839 147.533425 
L 106.037409 139.224866 
L 107.754979 133.311768 
L 109.47255 131.508193 
L 111.19012 135.032741 
L 112.907691 144.112079 
L 114.625261 157.696523 
L 116.342832 173.550347 
L 118.060402 188.751017 
L 118.416156 191.176472 
L 118.060402 191.176472 
L 116.342832 191.176472 
L 114.625261 191.176472 
L 112.907691 191.176472 
L 111.19012 191.176472 
L 109.47255 191.176472 
L 107.754979 191.176472 
L 106.037409 191.176472 
L 104.319839 191.176472 
L 102.602268 191.176472 
L 100.884698 191.176472 
L 99.167127 191.176472 
L 97.449557 191.176472 
L 95.731986 191.176472 
L 94.014416 191.176472 
z
" clip-path="url(#p583a7e9b25)" style="fill: #6193cd; fill-opacity: 0.22; stroke: #6193cd; stroke-opacity: 0.22"/>
    <path d="M 127.784196 191.176472 
L 128.365825 189.004521 
L 130.083395 185.737402 
L 131.800966 186.375821 
L 133.518536 189.132213 
L 135.236106 190.364402 
L 136.953677 186.756262 
L 138.671247 177.466366 
L 140.388818 164.676751 
L 142.106388 152.486361 
L 143.823959 145.145046 
L 145.541529 145.572591 
L 147.2591 154.576598 
L 148.97667 170.707811 
L 150.69424 190.551264 
L 150.751193 191.176472 
L 150.69424 191.176472 
L 148.97667 191.176472 
L 147.2591 191.176472 
L 145.541529 191.176472 
L 143.823959 191.176472 
L 142.106388 191.176472 
L 140.388818 191.176472 
L 138.671247 191.176472 
L 136.953677 191.176472 
L 135.236106 191.176472 
L 133.518536 191.176472 
L 131.800966 191.176472 
L 130.083395 191.176472 
L 128.365825 191.176472 
z
" clip-path="url(#p583a7e9b25)" style="fill: #6193cd; fill-opacity: 0.22; stroke: #6193cd; stroke-opacity: 0.22"/>
    <path d="M 159.936205 191.176472 
L 160.999663 175.820899 
L 162.717234 148.025486 
L 164.434804 122.132868 
L 166.152374 103.383595 
L 167.869945 96.716929 
L 169.587515 105.551721 
L 171.305086 130.141645 
L 173.022656 166.393752 
L 174.087141 191.176472 
L 173.022656 191.176472 
L 171.305086 191.176472 
L 169.587515 191.176472 
L 167.869945 191.176472 
L 166.152374 191.176472 
L 164.434804 191.176472 
L 162.717234 191.176472 
L 160.999663 191.176472 
z
" clip-path="url(#p583a7e9b25)" style="fill: #6193cd; fill-opacity: 0.22; stroke: #6193cd; stroke-opacity: 0.22"/>
    <path d="M 187.851476 191.176472 
L 188.48079 183.935443 
L 190.198361 167.655273 
L 191.915931 154.992179 
L 193.633501 145.399949 
L 195.351072 138.217274 
L 197.068642 133.075709 
L 198.786213 130.024301 
L 200.503783 129.374559 
L 202.221354 131.383393 
L 203.938924 135.935546 
L 205.656495 142.360488 
L 207.374065 149.457486 
L 209.091635 155.738196 
L 210.809206 159.834348 
L 212.526776 160.952899 
L 214.244347 159.209676 
L 215.961917 155.682517 
L 217.679488 152.124789 
L 219.397058 150.43078 
L 221.114629 152.061292 
L 222.832199 157.652776 
L 224.549769 166.936089 
L 226.26734 178.93946 
L 227.835903 191.176472 
L 226.26734 191.176472 
L 224.549769 191.176472 
L 222.832199 191.176472 
L 221.114629 191.176472 
L 219.397058 191.176472 
L 217.679488 191.176472 
L 215.961917 191.176472 
L 214.244347 191.176472 
L 212.526776 191.176472 
L 210.809206 191.176472 
L 209.091635 191.176472 
L 207.374065 191.176472 
L 205.656495 191.176472 
L 203.938924 191.176472 
L 202.221354 191.176472 
L 200.503783 191.176472 
L 198.786213 191.176472 
L 197.068642 191.176472 
L 195.351072 191.176472 
L 193.633501 191.176472 
L 191.915931 191.176472 
L 190.198361 191.176472 
L 188.48079 191.176472 
z
" clip-path="url(#p583a7e9b25)" style="fill: #6193cd; fill-opacity: 0.22; stroke: #6193cd; stroke-opacity: 0.22"/>
    <path d="M 279.79276 191.176472 
L 281.229594 189.239019 
L 282.947164 187.632895 
L 284.664735 186.97381 
L 286.382305 187.389489 
L 288.099876 188.884838 
L 289.698276 191.176472 
L 288.099876 191.176472 
L 286.382305 191.176472 
L 284.664735 191.176472 
L 282.947164 191.176472 
L 281.229594 191.176472 
z
" clip-path="url(#p583a7e9b25)" style="fill: #6193cd; fill-opacity: 0.22; stroke: #6193cd; stroke-opacity: 0.22"/>
    <path d="M 346.258477 191.176472 
L 346.497271 189.836475 
L 348.214841 180.507569 
L 349.932412 171.871746 
L 351.649982 164.259259 
L 353.367552 157.925587 
L 355.085123 153.076439 
L 356.802693 149.933412 
L 358.520264 148.799228 
L 360.237834 150.061643 
L 361.955405 154.09327 
L 363.672975 161.061602 
L 365.390546 170.730199 
L 367.108116 182.36344 
L 368.323828 191.176472 
L 367.108116 191.176472 
L 365.390546 191.176472 
L 363.672975 191.176472 
L 361.955405 191.176472 
L 360.237834 191.176472 
L 358.520264 191.176472 
L 356.802693 191.176472 
L 355.085123 191.176472 
L 353.367552 191.176472 
L 351.649982 191.176472 
L 349.932412 191.176472 
L 348.214841 191.176472 
L 346.497271 191.176472 
z
" clip-path="url(#p583a7e9b25)" style="fill: #6193cd; fill-opacity: 0.22; stroke: #6193cd; stroke-opacity: 0.22"/>
    <path d="M 402.786997 191.176472 
L 403.177095 188.345117 
L 404.894666 180.409586 
L 406.612236 178.503341 
L 408.329807 183.121608 
L 409.645357 191.176472 
L 408.329807 191.176472 
L 406.612236 191.176472 
L 404.894666 191.176472 
L 403.177095 191.176472 
z
" clip-path="url(#p583a7e9b25)" style="fill: #6193cd; fill-opacity: 0.22; stroke: #6193cd; stroke-opacity: 0.22"/>
    <path d="M 451.659189 191.176472 
L 452.986638 186.532539 
L 454.704209 183.346127 
L 456.421779 182.047775 
L 458.139349 181.664531 
L 459.85692 181.494473 
L 461.57449 181.210981 
L 463.292061 180.778679 
L 465.009631 180.277619 
L 466.727202 179.755329 
L 468.444772 179.188451 
L 470.162343 178.5616 
L 471.879913 178.000304 
L 473.597483 177.86085 
L 475.315054 178.696986 
L 477.032624 181.08326 
L 478.750195 185.350355 
L 480.419892 191.176472 
L 478.750195 191.176472 
L 477.032624 191.176472 
L 475.315054 191.176472 
L 473.597483 191.176472 
L 471.879913 191.176472 
L 470.162343 191.176472 
L 468.444772 191.176472 
L 466.727202 191.176472 
L 465.009631 191.176472 
L 463.292061 191.176472 
L 461.57449 191.176472 
L 459.85692 191.176472 
L 458.139349 191.176472 
L 456.421779 191.176472 
L 454.704209 191.176472 
L 452.986638 191.176472 
z
" clip-path="url(#p583a7e9b25)" style="fill: #6193cd; fill-opacity: 0.22; stroke: #6193cd; stroke-opacity: 0.22"/>
    <path d="M 507.844242 191.176472 
L 507.948892 190.761829 
L 509.666463 181.157033 
L 511.384033 170.814516 
L 513.101604 162.391108 
L 514.819174 158.408322 
L 516.536744 160.515613 
L 518.254315 168.963403 
L 519.971885 182.438969 
L 520.917233 191.176472 
L 519.971885 191.176472 
L 518.254315 191.176472 
L 516.536744 191.176472 
L 514.819174 191.176472 
L 513.101604 191.176472 
L 511.384033 191.176472 
L 509.666463 191.176472 
L 507.948892 191.176472 
z
" clip-path="url(#p583a7e9b25)" style="fill: #6193cd; fill-opacity: 0.22; stroke: #6193cd; stroke-opacity: 0.22"/>
    <path d="M 533.080545 191.176472 
L 533.712449 185.599211 
L 535.430019 172.750494 
L 537.14759 164.754561 
L 538.86516 162.759738 
L 540.582731 166.275836 
L 542.300301 173.354708 
L 544.017871 181.135006 
L 545.735442 186.60476 
L 547.453012 187.387937 
L 549.170583 182.358777 
L 550.888153 171.934562 
L 552.605724 157.982852 
L 554.323294 143.377123 
L 556.040865 131.318875 
L 557.758435 124.595508 
L 559.476005 124.948842 
L 561.193576 132.689326 
L 562.911146 146.624794 
L 564.628717 164.305627 
L 566.346287 182.531334 
L 567.305332 191.176472 
L 566.346287 191.176472 
L 564.628717 191.176472 
L 562.911146 191.176472 
L 561.193576 191.176472 
L 559.476005 191.176472 
L 557.758435 191.176472 
L 556.040865 191.176472 
L 554.323294 191.176472 
L 552.605724 191.176472 
L 550.888153 191.176472 
L 549.170583 191.176472 
L 547.453012 191.176472 
L 545.735442 191.176472 
L 544.017871 191.176472 
L 542.300301 191.176472 
L 540.582731 191.176472 
L 538.86516 191.176472 
L 537.14759 191.176472 
L 535.430019 191.176472 
L 533.712449 191.176472 
z
" clip-path="url(#p583a7e9b25)" style="fill: #6193cd; fill-opacity: 0.22; stroke: #6193cd; stroke-opacity: 0.22"/>
    <path d="M 575.649973 191.176472 
L 576.65171 183.172146 
L 578.36928 168.587142 
L 580.086851 155.836149 
L 581.804421 146.946341 
L 583.521992 142.880126 
L 585.239562 143.375674 
L 586.957133 147.04654 
L 588.674703 151.716721 
L 590.392273 154.923152 
L 592.109844 154.479955 
L 593.827414 148.982457 
L 595.544985 138.142238 
L 597.262555 122.881967 
L 598.980126 105.171441 
L 600.697696 87.646767 
L 602.415266 73.10677 
L 604.132837 63.999661 
L 605.850407 61.990086 
L 607.567978 67.656628 
L 609.285548 80.348284 
L 611.003119 98.231215 
L 612.720689 118.552479 
L 614.43826 138.104047 
L 616.15583 153.801576 
L 617.8734 163.248192 
L 619.590971 165.163101 
L 621.308541 159.596028 
L 623.026112 147.889335 
L 624.743682 132.392668 
L 626.461253 115.995 
L 628.178823 101.593113 
L 629.896394 91.617233 
L 631.613964 87.678403 
L 633.331534 90.34222 
L 635.049105 99.023493 
L 636.766675 112.030737 
L 638.484246 126.809731 
L 640.201816 140.39245 
L 641.919387 149.973833 
L 643.636957 153.4903 
L 645.354528 150.091505 
L 647.072098 140.42373 
L 648.789668 126.629567 
L 650.507239 111.974464 
L 652.224809 100.13605 
L 653.94238 94.379264 
L 655.65995 96.879816 
L 657.377521 108.291072 
L 659.095091 127.493358 
L 660.812661 151.534996 
L 662.530232 175.994731 
L 663.833993 191.176472 
L 662.530232 191.176472 
L 660.812661 191.176472 
L 659.095091 191.176472 
L 657.377521 191.176472 
L 655.65995 191.176472 
L 653.94238 191.176472 
L 652.224809 191.176472 
L 650.507239 191.176472 
L 648.789668 191.176472 
L 647.072098 191.176472 
L 645.354528 191.176472 
L 643.636957 191.176472 
L 641.919387 191.176472 
L 640.201816 191.176472 
L 638.484246 191.176472 
L 636.766675 191.176472 
L 635.049105 191.176472 
L 633.331534 191.176472 
L 631.613964 191.176472 
L 629.896394 191.176472 
L 628.178823 191.176472 
L 626.461253 191.176472 
L 624.743682 191.176472 
L 623.026112 191.176472 
L 621.308541 191.176472 
L 619.590971 191.176472 
L 617.8734 191.176472 
L 616.15583 191.176472 
L 614.43826 191.176472 
L 612.720689 191.176472 
L 611.003119 191.176472 
L 609.285548 191.176472 
L 607.567978 191.176472 
L 605.850407 191.176472 
L 604.132837 191.176472 
L 602.415266 191.176472 
L 600.697696 191.176472 
L 598.980126 191.176472 
L 597.262555 191.176472 
L 595.544985 191.176472 
L 593.827414 191.176472 
L 592.109844 191.176472 
L 590.392273 191.176472 
L 588.674703 191.176472 
L 586.957133 191.176472 
L 585.239562 191.176472 
L 583.521992 191.176472 
L 581.804421 191.176472 
L 580.086851 191.176472 
L 578.36928 191.176472 
L 576.65171 191.176472 
z
" clip-path="url(#p583a7e9b25)" style="fill: #6193cd; fill-opacity: 0.22; stroke: #6193cd; stroke-opacity: 0.22"/>
    <path d="M 670.274325 191.176472 
L 671.118084 182.607563 
L 672.835655 158.78094 
L 674.553225 130.769452 
L 676.270795 100.460613 
L 676.270795 100.460613 
L 676.270795 191.176472 
L 674.553225 191.176472 
L 672.835655 191.176472 
L 671.118084 191.176472 
z
" clip-path="url(#p583a7e9b25)" style="fill: #6193cd; fill-opacity: 0.22; stroke: #6193cd; stroke-opacity: 0.22"/>
   </g>
   <g id="PolyCollection_2">
    <path d="M 88.861705 204.170319 
L 88.861705 204.170319 
L 90.579275 197.283272 
L 92.296845 191.714362 
L 92.494306 191.176472 
L 92.296845 191.176472 
L 90.579275 191.176472 
L 88.861705 191.176472 
z
" clip-path="url(#p583a7e9b25)" style="fill: #6f0037; fill-opacity: 0.18; stroke: #6f0037; stroke-opacity: 0.18"/>
    <path d="M 118.416156 191.176472 
L 119.777972 200.461049 
L 121.495543 206.721417 
L 123.213113 207.014807 
L 124.930684 202.436796 
L 126.648254 195.418367 
L 127.784196 191.176472 
L 126.648254 191.176472 
L 124.930684 191.176472 
L 123.213113 191.176472 
L 121.495543 191.176472 
L 119.777972 191.176472 
z
" clip-path="url(#p583a7e9b25)" style="fill: #6f0037; fill-opacity: 0.18; stroke: #6f0037; stroke-opacity: 0.18"/>
    <path d="M 150.751193 191.176472 
L 152.411811 209.406124 
L 154.129381 222.40114 
L 155.846952 225.846857 
L 157.564522 218.266286 
L 159.282093 200.621393 
L 159.936205 191.176472 
L 159.282093 191.176472 
L 157.564522 191.176472 
L 155.846952 191.176472 
L 154.129381 191.176472 
L 152.411811 191.176472 
z
" clip-path="url(#p583a7e9b25)" style="fill: #6f0037; fill-opacity: 0.18; stroke: #6f0037; stroke-opacity: 0.18"/>
    <path d="M 174.087141 191.176472 
L 174.740227 206.381224 
L 176.457797 240.939223 
L 178.175367 263.055445 
L 179.892938 269.99915 
L 181.610508 263.238032 
L 183.328079 246.83993 
L 185.045649 225.605866 
L 186.76322 203.698182 
L 187.851476 191.176472 
L 186.76322 191.176472 
L 185.045649 191.176472 
L 183.328079 191.176472 
L 181.610508 191.176472 
L 179.892938 191.176472 
L 178.175367 191.176472 
L 176.457797 191.176472 
L 174.740227 191.176472 
z
" clip-path="url(#p583a7e9b25)" style="fill: #6f0037; fill-opacity: 0.18; stroke: #6f0037; stroke-opacity: 0.18"/>
    <path d="M 227.835903 191.176472 
L 227.98491 192.338936 
L 229.702481 205.803316 
L 231.420051 218.236249 
L 233.137622 228.888232 
L 234.855192 237.358563 
L 236.572762 243.5273 
L 238.290333 247.459143 
L 240.007903 249.31348 
L 241.725474 249.282588 
L 243.443044 247.565782 
L 245.160615 244.37425 
L 246.878185 239.952374 
L 248.595756 234.59888 
L 250.313326 228.674478 
L 252.030896 222.589228 
L 253.748467 216.769762 
L 255.466037 211.612217 
L 257.183608 207.430532 
L 258.901178 204.411323 
L 260.618749 202.585479 
L 262.336319 201.823318 
L 264.05389 201.855718 
L 265.77146 202.318779 
L 267.48903 202.81503 
L 269.206601 202.980375 
L 270.924171 202.544093 
L 272.641742 201.370502 
L 274.359312 199.47547 
L 276.076883 197.017066 
L 277.794453 194.264856 
L 279.512024 191.555022 
L 279.79276 191.176472 
L 279.512024 191.176472 
L 277.794453 191.176472 
L 276.076883 191.176472 
L 274.359312 191.176472 
L 272.641742 191.176472 
L 270.924171 191.176472 
L 269.206601 191.176472 
L 267.48903 191.176472 
L 265.77146 191.176472 
L 264.05389 191.176472 
L 262.336319 191.176472 
L 260.618749 191.176472 
L 258.901178 191.176472 
L 257.183608 191.176472 
L 255.466037 191.176472 
L 253.748467 191.176472 
L 252.030896 191.176472 
L 250.313326 191.176472 
L 248.595756 191.176472 
L 246.878185 191.176472 
L 245.160615 191.176472 
L 243.443044 191.176472 
L 241.725474 191.176472 
L 240.007903 191.176472 
L 238.290333 191.176472 
L 236.572762 191.176472 
L 234.855192 191.176472 
L 233.137622 191.176472 
L 231.420051 191.176472 
L 229.702481 191.176472 
L 227.98491 191.176472 
z
" clip-path="url(#p583a7e9b25)" style="fill: #6f0037; fill-opacity: 0.18; stroke: #6f0037; stroke-opacity: 0.18"/>
    <path d="M 289.698276 191.176472 
L 289.817446 191.347327 
L 291.535017 194.569347 
L 293.252587 198.282715 
L 294.970157 202.198703 
L 296.687728 206.046937 
L 298.405298 209.607839 
L 300.122869 212.735202 
L 301.840439 215.367401 
L 303.55801 217.527152 
L 305.27558 219.310803 
L 306.993151 220.868945 
L 308.710721 222.380947 
L 310.428291 224.026687 
L 312.145862 225.959137 
L 313.863432 228.281296 
L 315.581003 231.030127 
L 317.298573 234.168936 
L 319.016144 237.588247 
L 320.733714 241.114237 
L 322.451285 244.523222 
L 324.168855 247.560537 
L 325.886425 249.96217 
L 327.603996 251.477377 
L 329.321566 251.890137 
L 331.039137 251.036894 
L 332.756707 248.817967 
L 334.474278 245.200925 
L 336.191848 240.216391 
L 337.909419 233.94968 
L 339.626989 226.533867 
L 341.344559 218.149387 
L 343.06213 209.030821 
L 344.7797 199.474656 
L 346.258477 191.176472 
L 344.7797 191.176472 
L 343.06213 191.176472 
L 341.344559 191.176472 
L 339.626989 191.176472 
L 337.909419 191.176472 
L 336.191848 191.176472 
L 334.474278 191.176472 
L 332.756707 191.176472 
L 331.039137 191.176472 
L 329.321566 191.176472 
L 327.603996 191.176472 
L 325.886425 191.176472 
L 324.168855 191.176472 
L 322.451285 191.176472 
L 320.733714 191.176472 
L 319.016144 191.176472 
L 317.298573 191.176472 
L 315.581003 191.176472 
L 313.863432 191.176472 
L 312.145862 191.176472 
L 310.428291 191.176472 
L 308.710721 191.176472 
L 306.993151 191.176472 
L 305.27558 191.176472 
L 303.55801 191.176472 
L 301.840439 191.176472 
L 300.122869 191.176472 
L 298.405298 191.176472 
L 296.687728 191.176472 
L 294.970157 191.176472 
L 293.252587 191.176472 
L 291.535017 191.176472 
L 289.817446 191.176472 
z
" clip-path="url(#p583a7e9b25)" style="fill: #6f0037; fill-opacity: 0.18; stroke: #6f0037; stroke-opacity: 0.18"/>
    <path d="M 368.323828 191.176472 
L 368.825686 194.814586 
L 370.543257 206.791152 
L 372.260827 217.199493 
L 373.978398 225.426765 
L 375.695968 231.449367 
L 377.413539 235.741638 
L 379.131109 239.044597 
L 380.84868 242.09729 
L 382.56625 245.421548 
L 384.28382 249.203646 
L 386.001391 253.265928 
L 387.718961 257.09611 
L 389.436532 259.910974 
L 391.154102 260.759302 
L 392.871673 258.68713 
L 394.589243 252.974744 
L 396.306814 243.410925 
L 398.024384 230.521354 
L 399.741954 215.648572 
L 401.459525 200.811351 
L 402.786997 191.176472 
L 401.459525 191.176472 
L 399.741954 191.176472 
L 398.024384 191.176472 
L 396.306814 191.176472 
L 394.589243 191.176472 
L 392.871673 191.176472 
L 391.154102 191.176472 
L 389.436532 191.176472 
L 387.718961 191.176472 
L 386.001391 191.176472 
L 384.28382 191.176472 
L 382.56625 191.176472 
L 380.84868 191.176472 
L 379.131109 191.176472 
L 377.413539 191.176472 
L 375.695968 191.176472 
L 373.978398 191.176472 
L 372.260827 191.176472 
L 370.543257 191.176472 
L 368.825686 191.176472 
z
" clip-path="url(#p583a7e9b25)" style="fill: #6f0037; fill-opacity: 0.18; stroke: #6f0037; stroke-opacity: 0.18"/>
    <path d="M 409.645357 191.176472 
L 410.047377 193.637962 
L 411.764948 208.415505 
L 413.482518 225.095932 
L 415.200088 240.995033 
L 416.917659 253.542228 
L 418.635229 260.716104 
L 420.3528 261.428267 
L 422.07037 255.792642 
L 423.787941 245.202099 
L 425.505511 232.141858 
L 427.223081 219.71549 
L 428.940652 210.943021 
L 430.658222 207.98769 
L 432.375793 211.535659 
L 434.093363 220.546974 
L 435.810934 232.497361 
L 437.528504 244.066753 
L 439.246075 252.068127 
L 440.963645 254.31964 
L 442.681215 250.18217 
L 444.398786 240.605551 
L 446.116356 227.702354 
L 447.833927 214.02896 
L 449.551497 201.837423 
L 451.269068 192.541269 
L 451.659189 191.176472 
L 451.269068 191.176472 
L 449.551497 191.176472 
L 447.833927 191.176472 
L 446.116356 191.176472 
L 444.398786 191.176472 
L 442.681215 191.176472 
L 440.963645 191.176472 
L 439.246075 191.176472 
L 437.528504 191.176472 
L 435.810934 191.176472 
L 434.093363 191.176472 
L 432.375793 191.176472 
L 430.658222 191.176472 
L 428.940652 191.176472 
L 427.223081 191.176472 
L 425.505511 191.176472 
L 423.787941 191.176472 
L 422.07037 191.176472 
L 420.3528 191.176472 
L 418.635229 191.176472 
L 416.917659 191.176472 
L 415.200088 191.176472 
L 413.482518 191.176472 
L 411.764948 191.176472 
L 410.047377 191.176472 
z
" clip-path="url(#p583a7e9b25)" style="fill: #6f0037; fill-opacity: 0.18; stroke: #6f0037; stroke-opacity: 0.18"/>
    <path d="M 480.419892 191.176472 
L 480.467765 191.343517 
L 482.185336 198.322671 
L 483.902906 205.075225 
L 485.620476 210.229966 
L 487.338047 212.678135 
L 489.055617 211.957995 
L 490.773188 208.458967 
L 492.490758 203.353066 
L 494.208329 198.251938 
L 495.925899 194.688085 
L 497.64347 193.590355 
L 499.36104 194.936817 
L 501.07861 197.715463 
L 502.796181 200.222873 
L 504.513751 200.618703 
L 506.231322 197.56718 
L 507.844242 191.176472 
L 506.231322 191.176472 
L 504.513751 191.176472 
L 502.796181 191.176472 
L 501.07861 191.176472 
L 499.36104 191.176472 
L 497.64347 191.176472 
L 495.925899 191.176472 
L 494.208329 191.176472 
L 492.490758 191.176472 
L 490.773188 191.176472 
L 489.055617 191.176472 
L 487.338047 191.176472 
L 485.620476 191.176472 
L 483.902906 191.176472 
L 482.185336 191.176472 
L 480.467765 191.176472 
z
" clip-path="url(#p583a7e9b25)" style="fill: #6f0037; fill-opacity: 0.18; stroke: #6f0037; stroke-opacity: 0.18"/>
    <path d="M 520.917233 191.176472 
L 521.689456 198.313848 
L 523.407026 213.24246 
L 525.124597 223.964996 
L 526.842167 228.114237 
L 528.559738 224.815545 
L 530.277308 214.913881 
L 531.994878 200.758703 
L 533.080545 191.176472 
L 531.994878 191.176472 
L 530.277308 191.176472 
L 528.559738 191.176472 
L 526.842167 191.176472 
L 525.124597 191.176472 
L 523.407026 191.176472 
L 521.689456 191.176472 
z
" clip-path="url(#p583a7e9b25)" style="fill: #6f0037; fill-opacity: 0.18; stroke: #6f0037; stroke-opacity: 0.18"/>
    <path d="M 567.305332 191.176472 
L 568.063858 198.01407 
L 569.781428 208.056351 
L 571.498999 211.09087 
L 573.216569 206.962411 
L 574.934139 196.896297 
L 575.649973 191.176472 
L 574.934139 191.176472 
L 573.216569 191.176472 
L 571.498999 191.176472 
L 569.781428 191.176472 
L 568.063858 191.176472 
z
" clip-path="url(#p583a7e9b25)" style="fill: #6f0037; fill-opacity: 0.18; stroke: #6f0037; stroke-opacity: 0.18"/>
    <path d="M 663.833993 191.176472 
L 664.247802 195.99511 
L 665.965373 207.613065 
L 667.682943 208.914334 
L 669.400514 200.050574 
L 670.274325 191.176472 
L 669.400514 191.176472 
L 667.682943 191.176472 
L 665.965373 191.176472 
L 664.247802 191.176472 
z
" clip-path="url(#p583a7e9b25)" style="fill: #6f0037; fill-opacity: 0.18; stroke: #6f0037; stroke-opacity: 0.18"/>
   </g>
   <g id="matplotlib.axis_1">
    <g id="xtick_1">
     <g id="line2d_1">
      <defs>
       <path id="mbec5129b73" d="M 0 0 
L 0 3.5 
" style="stroke: #000000; stroke-width: 0.8"/>
      </defs>
      <g>
       <use xlink:href="#mbec5129b73" x="143.823959" y="298.6" style="stroke: #000000; stroke-width: 0.8"/>
      </g>
     </g>
     <g id="text_1">
      <!-- 400 -->
      <g transform="translate(134.280209 313.198437) scale(0.1 -0.1)">
       <defs>
        <path id="DejaVuSans-34" d="M 2419 4116 
L 825 1625 
L 2419 1625 
L 2419 4116 
z
M 2253 4666 
L 3047 4666 
L 3047 1625 
L 3713 1625 
L 3713 1100 
L 3047 1100 
L 3047 0 
L 2419 0 
L 2419 1100 
L 313 1100 
L 313 1709 
L 2253 4666 
z
" transform="scale(0.015625)"/>
        <path id="DejaVuSans-30" d="M 2034 4250 
Q 1547 4250 1301 3770 
Q 1056 3291 1056 2328 
Q 1056 1369 1301 889 
Q 1547 409 2034 409 
Q 2525 409 2770 889 
Q 3016 1369 3016 2328 
Q 3016 3291 2770 3770 
Q 2525 4250 2034 4250 
z
M 2034 4750 
Q 2819 4750 3233 4129 
Q 3647 3509 3647 2328 
Q 3647 1150 3233 529 
Q 2819 -91 2034 -91 
Q 1250 -91 836 529 
Q 422 1150 422 2328 
Q 422 3509 836 4129 
Q 1250 4750 2034 4750 
z
" transform="scale(0.015625)"/>
       </defs>
       <use xlink:href="#DejaVuSans-34"/>
       <use xlink:href="#DejaVuSans-30" x="63.623047"/>
       <use xlink:href="#DejaVuSans-30" x="127.246094"/>
      </g>
     </g>
    </g>
    <g id="xtick_2">
     <g id="line2d_2">
      <g>
       <use xlink:href="#mbec5129b73" x="229.702481" y="298.6" style="stroke: #000000; stroke-width: 0.8"/>
      </g>
     </g>
     <g id="text_2">
      <!-- 500 -->
      <g transform="translate(220.158731 313.198437) scale(0.1 -0.1)">
       <defs>
        <path id="DejaVuSans-35" d="M 691 4666 
L 3169 4666 
L 3169 4134 
L 1269 4134 
L 1269 2991 
Q 1406 3038 1543 3061 
Q 1681 3084 1819 3084 
Q 2600 3084 3056 2656 
Q 3513 2228 3513 1497 
Q 3513 744 3044 326 
Q 2575 -91 1722 -91 
Q 1428 -91 1123 -41 
Q 819 9 494 109 
L 494 744 
Q 775 591 1075 516 
Q 1375 441 1709 441 
Q 2250 441 2565 725 
Q 2881 1009 2881 1497 
Q 2881 1984 2565 2268 
Q 2250 2553 1709 2553 
Q 1456 2553 1204 2497 
Q 953 2441 691 2322 
L 691 4666 
z
" transform="scale(0.015625)"/>
       </defs>
       <use xlink:href="#DejaVuSans-35"/>
       <use xlink:href="#DejaVuSans-30" x="63.623047"/>
       <use xlink:href="#DejaVuSans-30" x="127.246094"/>
      </g>
     </g>
    </g>
    <g id="xtick_3">
     <g id="line2d_3">
      <g>
       <use xlink:href="#mbec5129b73" x="315.581003" y="298.6" style="stroke: #000000; stroke-width: 0.8"/>
      </g>
     </g>
     <g id="text_3">
      <!-- 600 -->
      <g transform="translate(306.037253 313.198437) scale(0.1 -0.1)">
       <defs>
        <path id="DejaVuSans-36" d="M 2113 2584 
Q 1688 2584 1439 2293 
Q 1191 2003 1191 1497 
Q 1191 994 1439 701 
Q 1688 409 2113 409 
Q 2538 409 2786 701 
Q 3034 994 3034 1497 
Q 3034 2003 2786 2293 
Q 2538 2584 2113 2584 
z
M 3366 4563 
L 3366 3988 
Q 3128 4100 2886 4159 
Q 2644 4219 2406 4219 
Q 1781 4219 1451 3797 
Q 1122 3375 1075 2522 
Q 1259 2794 1537 2939 
Q 1816 3084 2150 3084 
Q 2853 3084 3261 2657 
Q 3669 2231 3669 1497 
Q 3669 778 3244 343 
Q 2819 -91 2113 -91 
Q 1303 -91 875 529 
Q 447 1150 447 2328 
Q 447 3434 972 4092 
Q 1497 4750 2381 4750 
Q 2619 4750 2861 4703 
Q 3103 4656 3366 4563 
z
" transform="scale(0.015625)"/>
       </defs>
       <use xlink:href="#DejaVuSans-36"/>
       <use xlink:href="#DejaVuSans-30" x="63.623047"/>
       <use xlink:href="#DejaVuSans-30" x="127.246094"/>
      </g>
     </g>
    </g>
    <g id="xtick_4">
     <g id="line2d_4">
      <g>
       <use xlink:href="#mbec5129b73" x="401.459525" y="298.6" style="stroke: #000000; stroke-width: 0.8"/>
      </g>
     </g>
     <g id="text_4">
      <!-- 700 -->
      <g transform="translate(391.915775 313.198437) scale(0.1 -0.1)">
       <defs>
        <path id="DejaVuSans-37" d="M 525 4666 
L 3525 4666 
L 3525 4397 
L 1831 0 
L 1172 0 
L 2766 4134 
L 525 4134 
L 525 4666 
z
" transform="scale(0.015625)"/>
       </defs>
       <use xlink:href="#DejaVuSans-37"/>
       <use xlink:href="#DejaVuSans-30" x="63.623047"/>
       <use xlink:href="#DejaVuSans-30" x="127.246094"/>
      </g>
     </g>
    </g>
    <g id="xtick_5">
     <g id="line2d_5">
      <g>
       <use xlink:href="#mbec5129b73" x="487.338047" y="298.6" style="stroke: #000000; stroke-width: 0.8"/>
      </g>
     </g>
     <g id="text_5">
      <!-- 800 -->
      <g transform="translate(477.794297 313.198437) scale(0.1 -0.1)">
       <defs>
        <path id="DejaVuSans-38" d="M 2034 2216 
Q 1584 2216 1326 1975 
Q 1069 1734 1069 1313 
Q 1069 891 1326 650 
Q 1584 409 2034 409 
Q 2484 409 2743 651 
Q 3003 894 3003 1313 
Q 3003 1734 2745 1975 
Q 2488 2216 2034 2216 
z
M 1403 2484 
Q 997 2584 770 2862 
Q 544 3141 544 3541 
Q 544 4100 942 4425 
Q 1341 4750 2034 4750 
Q 2731 4750 3128 4425 
Q 3525 4100 3525 3541 
Q 3525 3141 3298 2862 
Q 3072 2584 2669 2484 
Q 3125 2378 3379 2068 
Q 3634 1759 3634 1313 
Q 3634 634 3220 271 
Q 2806 -91 2034 -91 
Q 1263 -91 848 271 
Q 434 634 434 1313 
Q 434 1759 690 2068 
Q 947 2378 1403 2484 
z
M 1172 3481 
Q 1172 3119 1398 2916 
Q 1625 2713 2034 2713 
Q 2441 2713 2670 2916 
Q 2900 3119 2900 3481 
Q 2900 3844 2670 4047 
Q 2441 4250 2034 4250 
Q 1625 4250 1398 4047 
Q 1172 3844 1172 3481 
z
" transform="scale(0.015625)"/>
       </defs>
       <use xlink:href="#DejaVuSans-38"/>
       <use xlink:href="#DejaVuSans-30" x="63.623047"/>
       <use xlink:href="#DejaVuSans-30" x="127.246094"/>
      </g>
     </g>
    </g>
    <g id="xtick_6">
     <g id="line2d_6">
      <g>
       <use xlink:href="#mbec5129b73" x="573.216569" y="298.6" style="stroke: #000000; stroke-width: 0.8"/>
      </g>
     </g>
     <g id="text_6">
      <!-- 900 -->
      <g transform="translate(563.672819 313.198437) scale(0.1 -0.1)">
       <defs>
        <path id="DejaVuSans-39" d="M 703 97 
L 703 672 
Q 941 559 1184 500 
Q 1428 441 1663 441 
Q 2288 441 2617 861 
Q 2947 1281 2994 2138 
Q 2813 1869 2534 1725 
Q 2256 1581 1919 1581 
Q 1219 1581 811 2004 
Q 403 2428 403 3163 
Q 403 3881 828 4315 
Q 1253 4750 1959 4750 
Q 2769 4750 3195 4129 
Q 3622 3509 3622 2328 
Q 3622 1225 3098 567 
Q 2575 -91 1691 -91 
Q 1453 -91 1209 -44 
Q 966 3 703 97 
z
M 1959 2075 
Q 2384 2075 2632 2365 
Q 2881 2656 2881 3163 
Q 2881 3666 2632 3958 
Q 2384 4250 1959 4250 
Q 1534 4250 1286 3958 
Q 1038 3666 1038 3163 
Q 1038 2656 1286 2365 
Q 1534 2075 1959 2075 
z
" transform="scale(0.015625)"/>
       </defs>
       <use xlink:href="#DejaVuSans-39"/>
       <use xlink:href="#DejaVuSans-30" x="63.623047"/>
       <use xlink:href="#DejaVuSans-30" x="127.246094"/>
      </g>
     </g>
    </g>
    <g id="xtick_7">
     <g id="line2d_7">
      <g>
       <use xlink:href="#mbec5129b73" x="659.095091" y="298.6" style="stroke: #000000; stroke-width: 0.8"/>
      </g>
     </g>
     <g id="text_7">
      <!-- 1000 -->
      <g transform="translate(646.370091 313.198437) scale(0.1 -0.1)">
       <defs>
        <path id="DejaVuSans-31" d="M 794 531 
L 1825 531 
L 1825 4091 
L 703 3866 
L 703 4441 
L 1819 4666 
L 2450 4666 
L 2450 531 
L 3481 531 
L 3481 0 
L 794 0 
L 794 531 
z
" transform="scale(0.015625)"/>
       </defs>
       <use xlink:href="#DejaVuSans-31"/>
       <use xlink:href="#DejaVuSans-30" x="63.623047"/>
       <use xlink:href="#DejaVuSans-30" x="127.246094"/>
       <use xlink:href="#DejaVuSans-30" x="190.869141"/>
      </g>
     </g>
    </g>
    <g id="text_8">
     <!-- Bangos ilgis, nm -->
     <g transform="translate(337.186953 327.636406) scale(0.11 -0.11)">
      <defs>
       <path id="DejaVuSans-42" d="M 1259 2228 
L 1259 519 
L 2272 519 
Q 2781 519 3026 730 
Q 3272 941 3272 1375 
Q 3272 1813 3026 2020 
Q 2781 2228 2272 2228 
L 1259 2228 
z
M 1259 4147 
L 1259 2741 
L 2194 2741 
Q 2656 2741 2882 2914 
Q 3109 3088 3109 3444 
Q 3109 3797 2882 3972 
Q 2656 4147 2194 4147 
L 1259 4147 
z
M 628 4666 
L 2241 4666 
Q 2963 4666 3353 4366 
Q 3744 4066 3744 3513 
Q 3744 3084 3544 2831 
Q 3344 2578 2956 2516 
Q 3422 2416 3680 2098 
Q 3938 1781 3938 1306 
Q 3938 681 3513 340 
Q 3088 0 2303 0 
L 628 0 
L 628 4666 
z
" transform="scale(0.015625)"/>
       <path id="DejaVuSans-61" d="M 2194 1759 
Q 1497 1759 1228 1600 
Q 959 1441 959 1056 
Q 959 750 1161 570 
Q 1363 391 1709 391 
Q 2188 391 2477 730 
Q 2766 1069 2766 1631 
L 2766 1759 
L 2194 1759 
z
M 3341 1997 
L 3341 0 
L 2766 0 
L 2766 531 
Q 2569 213 2275 61 
Q 1981 -91 1556 -91 
Q 1019 -91 701 211 
Q 384 513 384 1019 
Q 384 1609 779 1909 
Q 1175 2209 1959 2209 
L 2766 2209 
L 2766 2266 
Q 2766 2663 2505 2880 
Q 2244 3097 1772 3097 
Q 1472 3097 1187 3025 
Q 903 2953 641 2809 
L 641 3341 
Q 956 3463 1253 3523 
Q 1550 3584 1831 3584 
Q 2591 3584 2966 3190 
Q 3341 2797 3341 1997 
z
" transform="scale(0.015625)"/>
       <path id="DejaVuSans-6e" d="M 3513 2113 
L 3513 0 
L 2938 0 
L 2938 2094 
Q 2938 2591 2744 2837 
Q 2550 3084 2163 3084 
Q 1697 3084 1428 2787 
Q 1159 2491 1159 1978 
L 1159 0 
L 581 0 
L 581 3500 
L 1159 3500 
L 1159 2956 
Q 1366 3272 1645 3428 
Q 1925 3584 2291 3584 
Q 2894 3584 3203 3211 
Q 3513 2838 3513 2113 
z
" transform="scale(0.015625)"/>
       <path id="DejaVuSans-67" d="M 2906 1791 
Q 2906 2416 2648 2759 
Q 2391 3103 1925 3103 
Q 1463 3103 1205 2759 
Q 947 2416 947 1791 
Q 947 1169 1205 825 
Q 1463 481 1925 481 
Q 2391 481 2648 825 
Q 2906 1169 2906 1791 
z
M 3481 434 
Q 3481 -459 3084 -895 
Q 2688 -1331 1869 -1331 
Q 1566 -1331 1297 -1286 
Q 1028 -1241 775 -1147 
L 775 -588 
Q 1028 -725 1275 -790 
Q 1522 -856 1778 -856 
Q 2344 -856 2625 -561 
Q 2906 -266 2906 331 
L 2906 616 
Q 2728 306 2450 153 
Q 2172 0 1784 0 
Q 1141 0 747 490 
Q 353 981 353 1791 
Q 353 2603 747 3093 
Q 1141 3584 1784 3584 
Q 2172 3584 2450 3431 
Q 2728 3278 2906 2969 
L 2906 3500 
L 3481 3500 
L 3481 434 
z
" transform="scale(0.015625)"/>
       <path id="DejaVuSans-6f" d="M 1959 3097 
Q 1497 3097 1228 2736 
Q 959 2375 959 1747 
Q 959 1119 1226 758 
Q 1494 397 1959 397 
Q 2419 397 2687 759 
Q 2956 1122 2956 1747 
Q 2956 2369 2687 2733 
Q 2419 3097 1959 3097 
z
M 1959 3584 
Q 2709 3584 3137 3096 
Q 3566 2609 3566 1747 
Q 3566 888 3137 398 
Q 2709 -91 1959 -91 
Q 1206 -91 779 398 
Q 353 888 353 1747 
Q 353 2609 779 3096 
Q 1206 3584 1959 3584 
z
" transform="scale(0.015625)"/>
       <path id="DejaVuSans-73" d="M 2834 3397 
L 2834 2853 
Q 2591 2978 2328 3040 
Q 2066 3103 1784 3103 
Q 1356 3103 1142 2972 
Q 928 2841 928 2578 
Q 928 2378 1081 2264 
Q 1234 2150 1697 2047 
L 1894 2003 
Q 2506 1872 2764 1633 
Q 3022 1394 3022 966 
Q 3022 478 2636 193 
Q 2250 -91 1575 -91 
Q 1294 -91 989 -36 
Q 684 19 347 128 
L 347 722 
Q 666 556 975 473 
Q 1284 391 1588 391 
Q 1994 391 2212 530 
Q 2431 669 2431 922 
Q 2431 1156 2273 1281 
Q 2116 1406 1581 1522 
L 1381 1569 
Q 847 1681 609 1914 
Q 372 2147 372 2553 
Q 372 3047 722 3315 
Q 1072 3584 1716 3584 
Q 2034 3584 2315 3537 
Q 2597 3491 2834 3397 
z
" transform="scale(0.015625)"/>
       <path id="DejaVuSans-20" transform="scale(0.015625)"/>
       <path id="DejaVuSans-69" d="M 603 3500 
L 1178 3500 
L 1178 0 
L 603 0 
L 603 3500 
z
M 603 4863 
L 1178 4863 
L 1178 4134 
L 603 4134 
L 603 4863 
z
" transform="scale(0.015625)"/>
       <path id="DejaVuSans-6c" d="M 603 4863 
L 1178 4863 
L 1178 0 
L 603 0 
L 603 4863 
z
" transform="scale(0.015625)"/>
       <path id="DejaVuSans-2c" d="M 750 794 
L 1409 794 
L 1409 256 
L 897 -744 
L 494 -744 
L 750 256 
L 750 794 
z
" transform="scale(0.015625)"/>
       <path id="DejaVuSans-6d" d="M 3328 2828 
Q 3544 3216 3844 3400 
Q 4144 3584 4550 3584 
Q 5097 3584 5394 3201 
Q 5691 2819 5691 2113 
L 5691 0 
L 5113 0 
L 5113 2094 
Q 5113 2597 4934 2840 
Q 4756 3084 4391 3084 
Q 3944 3084 3684 2787 
Q 3425 2491 3425 1978 
L 3425 0 
L 2847 0 
L 2847 2094 
Q 2847 2600 2669 2842 
Q 2491 3084 2119 3084 
Q 1678 3084 1418 2786 
Q 1159 2488 1159 1978 
L 1159 0 
L 581 0 
L 581 3500 
L 1159 3500 
L 1159 2956 
Q 1356 3278 1631 3431 
Q 1906 3584 2284 3584 
Q 2666 3584 2933 3390 
Q 3200 3197 3328 2828 
z
" transform="scale(0.015625)"/>
      </defs>
      <use xlink:href="#DejaVuSans-42"/>
      <use xlink:href="#DejaVuSans-61" x="68.603516"/>
      <use xlink:href="#DejaVuSans-6e" x="129.882812"/>
      <use xlink:href="#DejaVuSans-67" x="193.261719"/>
      <use xlink:href="#DejaVuSans-6f" x="256.738281"/>
      <use xlink:href="#DejaVuSans-73" x="317.919922"/>
      <use xlink:href="#DejaVuSans-20" x="370.019531"/>
      <use xlink:href="#DejaVuSans-69" x="401.806641"/>
      <use xlink:href="#DejaVuSans-6c" x="429.589844"/>
      <use xlink:href="#DejaVuSans-67" x="457.373047"/>
      <use xlink:href="#DejaVuSans-69" x="520.849609"/>
      <use xlink:href="#DejaVuSans-73" x="548.632812"/>
      <use xlink:href="#DejaVuSans-2c" x="600.732422"/>
      <use xlink:href="#DejaVuSans-20" x="632.519531"/>
      <use xlink:href="#DejaVuSans-6e" x="664.306641"/>
      <use xlink:href="#DejaVuSans-6d" x="727.685547"/>
     </g>
    </g>
   </g>
   <g id="matplotlib.axis_2">
    <g id="ytick_1">
     <g id="line2d_8">
      <defs>
       <path id="m22313320d4" d="M 0 0 
L -3.5 0 
" style="stroke: #000000; stroke-width: 0.8"/>
      </defs>
      <g>
       <use xlink:href="#m22313320d4" x="59.49125" y="291.396091" style="stroke: #000000; stroke-width: 0.8"/>
      </g>
     </g>
     <g id="text_9">
      <!-- −0.10 -->
      <g transform="translate(21.845938 295.19531) scale(0.1 -0.1)">
       <defs>
        <path id="DejaVuSans-2212" d="M 678 2272 
L 4684 2272 
L 4684 1741 
L 678 1741 
L 678 2272 
z
" transform="scale(0.015625)"/>
        <path id="DejaVuSans-2e" d="M 684 794 
L 1344 794 
L 1344 0 
L 684 0 
L 684 794 
z
" transform="scale(0.015625)"/>
       </defs>
       <use xlink:href="#DejaVuSans-2212"/>
       <use xlink:href="#DejaVuSans-30" x="83.789062"/>
       <use xlink:href="#DejaVuSans-2e" x="147.412109"/>
       <use xlink:href="#DejaVuSans-31" x="179.199219"/>
       <use xlink:href="#DejaVuSans-30" x="242.822266"/>
      </g>
     </g>
    </g>
    <g id="ytick_2">
     <g id="line2d_9">
      <g>
       <use xlink:href="#m22313320d4" x="59.49125" y="241.286282" style="stroke: #000000; stroke-width: 0.8"/>
      </g>
     </g>
     <g id="text_10">
      <!-- −0.05 -->
      <g transform="translate(21.845938 245.0855) scale(0.1 -0.1)">
       <use xlink:href="#DejaVuSans-2212"/>
       <use xlink:href="#DejaVuSans-30" x="83.789062"/>
       <use xlink:href="#DejaVuSans-2e" x="147.412109"/>
       <use xlink:href="#DejaVuSans-30" x="179.199219"/>
       <use xlink:href="#DejaVuSans-35" x="242.822266"/>
      </g>
     </g>
    </g>
    <g id="ytick_3">
     <g id="line2d_10">
      <g>
       <use xlink:href="#m22313320d4" x="59.49125" y="191.176472" style="stroke: #000000; stroke-width: 0.8"/>
      </g>
     </g>
     <g id="text_11">
      <!-- 0.00 -->
      <g transform="translate(30.225625 194.975691) scale(0.1 -0.1)">
       <use xlink:href="#DejaVuSans-30"/>
       <use xlink:href="#DejaVuSans-2e" x="63.623047"/>
       <use xlink:href="#DejaVuSans-30" x="95.410156"/>
       <use xlink:href="#DejaVuSans-30" x="159.033203"/>
      </g>
     </g>
    </g>
    <g id="ytick_4">
     <g id="line2d_11">
      <g>
       <use xlink:href="#m22313320d4" x="59.49125" y="141.066663" style="stroke: #000000; stroke-width: 0.8"/>
      </g>
     </g>
     <g id="text_12">
      <!-- 0.05 -->
      <g transform="translate(30.225625 144.865881) scale(0.1 -0.1)">
       <use xlink:href="#DejaVuSans-30"/>
       <use xlink:href="#DejaVuSans-2e" x="63.623047"/>
       <use xlink:href="#DejaVuSans-30" x="95.410156"/>
       <use xlink:href="#DejaVuSans-35" x="159.033203"/>
      </g>
     </g>
    </g>
    <g id="ytick_5">
     <g id="line2d_12">
      <g>
       <use xlink:href="#m22313320d4" x="59.49125" y="90.956853" style="stroke: #000000; stroke-width: 0.8"/>
      </g>
     </g>
     <g id="text_13">
      <!-- 0.10 -->
      <g transform="translate(30.225625 94.756072) scale(0.1 -0.1)">
       <use xlink:href="#DejaVuSans-30"/>
       <use xlink:href="#DejaVuSans-2e" x="63.623047"/>
       <use xlink:href="#DejaVuSans-31" x="95.410156"/>
       <use xlink:href="#DejaVuSans-30" x="159.033203"/>
      </g>
     </g>
    </g>
    <g id="ytick_6">
     <g id="line2d_13">
      <g>
       <use xlink:href="#m22313320d4" x="59.49125" y="40.847044" style="stroke: #000000; stroke-width: 0.8"/>
      </g>
     </g>
     <g id="text_14">
      <!-- 0.15 -->
      <g transform="translate(30.225625 44.646262) scale(0.1 -0.1)">
       <use xlink:href="#DejaVuSans-30"/>
       <use xlink:href="#DejaVuSans-2e" x="63.623047"/>
       <use xlink:href="#DejaVuSans-31" x="95.410156"/>
       <use xlink:href="#DejaVuSans-35" x="159.033203"/>
      </g>
     </g>
    </g>
    <g id="text_15">
     <!-- Svoris -->
     <g transform="translate(15.558281 169.666406) rotate(-90) scale(0.11 -0.11)">
      <defs>
       <path id="DejaVuSans-53" d="M 3425 4513 
L 3425 3897 
Q 3066 4069 2747 4153 
Q 2428 4238 2131 4238 
Q 1616 4238 1336 4038 
Q 1056 3838 1056 3469 
Q 1056 3159 1242 3001 
Q 1428 2844 1947 2747 
L 2328 2669 
Q 3034 2534 3370 2195 
Q 3706 1856 3706 1288 
Q 3706 609 3251 259 
Q 2797 -91 1919 -91 
Q 1588 -91 1214 -16 
Q 841 59 441 206 
L 441 856 
Q 825 641 1194 531 
Q 1563 422 1919 422 
Q 2459 422 2753 634 
Q 3047 847 3047 1241 
Q 3047 1584 2836 1778 
Q 2625 1972 2144 2069 
L 1759 2144 
Q 1053 2284 737 2584 
Q 422 2884 422 3419 
Q 422 4038 858 4394 
Q 1294 4750 2059 4750 
Q 2388 4750 2728 4690 
Q 3069 4631 3425 4513 
z
" transform="scale(0.015625)"/>
       <path id="DejaVuSans-76" d="M 191 3500 
L 800 3500 
L 1894 563 
L 2988 3500 
L 3597 3500 
L 2284 0 
L 1503 0 
L 191 3500 
z
" transform="scale(0.015625)"/>
       <path id="DejaVuSans-72" d="M 2631 2963 
Q 2534 3019 2420 3045 
Q 2306 3072 2169 3072 
Q 1681 3072 1420 2755 
Q 1159 2438 1159 1844 
L 1159 0 
L 581 0 
L 581 3500 
L 1159 3500 
L 1159 2956 
Q 1341 3275 1631 3429 
Q 1922 3584 2338 3584 
Q 2397 3584 2469 3576 
Q 2541 3569 2628 3553 
L 2631 2963 
z
" transform="scale(0.015625)"/>
      </defs>
      <use xlink:href="#DejaVuSans-53"/>
      <use xlink:href="#DejaVuSans-76" x="63.476562"/>
      <use xlink:href="#DejaVuSans-6f" x="122.65625"/>
      <use xlink:href="#DejaVuSans-72" x="183.837891"/>
      <use xlink:href="#DejaVuSans-69" x="224.951172"/>
      <use xlink:href="#DejaVuSans-73" x="252.734375"/>
     </g>
    </g>
   </g>
   <g id="line2d_14">
    <path d="M 88.861705 243.623484 
L 90.579275 124.302811 
L 92.296845 173.54297 
L 94.014416 204.902406 
L 95.731986 190.556836 
L 97.449557 173.991776 
L 99.167127 180.085113 
L 100.884698 187.990674 
L 102.602268 174.213882 
L 104.319839 152.533494 
L 106.037409 152.305396 
L 107.754979 162.627965 
L 109.47255 157.610835 
L 111.19012 135.52746 
L 112.907691 119.456202 
L 114.625261 131.479393 
L 118.060402 209.312607 
L 119.777972 221.762268 
L 121.495543 210.775424 
L 123.213113 198.116283 
L 124.930684 195.728432 
L 126.648254 198.17947 
L 128.365825 194.181055 
L 130.083395 184.910651 
L 131.800966 181.869747 
L 133.518536 186.540311 
L 135.236106 190.334345 
L 136.953677 184.330415 
L 140.388818 156.197041 
L 142.106388 148.67228 
L 143.823959 150.215943 
L 145.541529 155.624084 
L 147.2591 158.84763 
L 148.97667 162.394183 
L 150.69424 172.836816 
L 154.129381 211.041195 
L 155.846952 214.96059 
L 157.564522 202.837462 
L 159.282093 185.376043 
L 160.999663 169.579321 
L 162.717234 156.1449 
L 164.434804 144.592699 
L 166.152374 136.600631 
L 167.869945 135.066025 
L 169.587515 140.870803 
L 171.305086 154.980303 
L 173.022656 176.831519 
L 174.740227 200.143913 
L 176.457797 219.319034 
L 178.175367 230.992251 
L 179.892938 234.507573 
L 181.610508 232.547697 
L 183.328079 227.518346 
L 185.045649 220.157386 
L 186.76322 210.535312 
L 188.48079 198.672881 
L 190.198361 184.463647 
L 193.633501 151.804949 
L 195.351072 137.62666 
L 197.068642 127.239148 
L 198.786213 121.191163 
L 200.503783 119.610446 
L 202.221354 121.975102 
L 203.938924 126.991086 
L 207.374065 139.158705 
L 209.091635 144.318483 
L 210.809206 148.15565 
L 212.526776 150.560865 
L 214.244347 151.890138 
L 215.961917 152.993021 
L 217.679488 154.970874 
L 219.397058 158.698169 
L 221.114629 164.367819 
L 222.832199 171.522089 
L 226.26734 187.854611 
L 231.420051 213.921418 
L 236.572762 241.153318 
L 238.290333 249.138141 
L 240.007903 255.353949 
L 241.725474 258.974548 
L 243.443044 259.476114 
L 245.160615 256.844457 
L 246.878185 251.574951 
L 248.595756 244.479875 
L 253.748467 220.815995 
L 255.466037 214.376466 
L 257.183608 209.334332 
L 258.901178 205.79931 
L 260.618749 203.694554 
L 262.336319 202.790587 
L 264.05389 202.752277 
L 265.77146 203.196248 
L 267.48903 203.755681 
L 269.206601 204.137307 
L 270.924171 204.159944 
L 272.641742 203.76329 
L 274.359312 202.986792 
L 276.076883 201.937552 
L 279.512024 199.579359 
L 281.229594 198.540591 
L 282.947164 197.736402 
L 284.664735 197.228794 
L 286.382305 197.042607 
L 288.099876 197.168733 
L 289.817446 197.573601 
L 291.535017 198.21333 
L 293.252587 199.047666 
L 294.970157 200.051898 
L 296.687728 201.225715 
L 298.405298 202.595068 
L 300.122869 204.207548 
L 301.840439 206.125149 
L 303.55801 208.411771 
L 305.27558 211.122715 
L 306.993151 214.293278 
L 308.710721 217.929503 
L 310.428291 221.999397 
L 313.863432 231.09072 
L 317.298573 240.397685 
L 319.016144 244.584965 
L 320.733714 248.122358 
L 322.451285 250.760985 
L 324.168855 252.286181 
L 325.886425 252.54307 
L 327.603996 251.456434 
L 329.321566 249.04 
L 331.039137 245.395722 
L 332.756707 240.700103 
L 334.474278 235.182347 
L 337.909419 222.71267 
L 341.344559 209.991635 
L 343.06213 204.067633 
L 344.7797 198.654969 
L 346.497271 196.022962 
L 348.214841 200.077561 
L 349.932412 189.894513 
L 351.649982 157.211885 
L 353.367552 128.11429 
L 355.085123 130.797966 
L 356.802693 152.876192 
L 358.520264 172.098635 
L 360.237834 173.493792 
L 361.955405 159.717265 
L 363.672975 147.481139 
L 365.390546 154.29649 
L 367.108116 183.706889 
L 368.825686 222.110542 
L 370.543257 249.508868 
L 372.260827 254.852926 
L 373.978398 242.02251 
L 375.695968 224.633468 
L 377.413539 216.798859 
L 379.131109 224.388455 
L 380.84868 241.7094 
L 382.56625 256.840669 
L 384.28382 261.146115 
L 386.001391 254.901995 
L 387.718961 246.355461 
L 389.436532 245.311517 
L 391.154102 255.134065 
L 392.871673 269.496637 
L 394.589243 276.539818 
L 396.306814 267.083514 
L 398.024384 240.403945 
L 399.741954 204.942596 
L 401.459525 174.352618 
L 403.177095 159.790758 
L 404.894666 163.649041 
L 406.612236 179.330489 
L 408.329807 196.483428 
L 410.047377 207.949446 
L 411.764948 213.464883 
L 413.482518 218.468801 
L 415.200088 229.49306 
L 416.917659 248.626138 
L 418.635229 270.68784 
L 420.3528 285.354545 
L 422.07037 283.178179 
L 423.787941 261.237417 
L 427.223081 187.019373 
L 428.940652 161.53715 
L 430.658222 158.323402 
L 432.375793 177.691184 
L 435.810934 243.362238 
L 437.528504 264.085864 
L 439.246075 267.234238 
L 440.963645 254.620847 
L 442.681215 233.959888 
L 444.398786 214.849421 
L 446.116356 203.891166 
L 447.833927 202.064024 
L 449.551497 205.324379 
L 451.269068 207.554565 
L 452.986638 204.059815 
L 454.704209 193.81052 
L 456.421779 179.912204 
L 458.139349 168.163907 
L 459.85692 163.974227 
L 461.57449 169.401862 
L 463.292061 182.060126 
L 465.009631 196.188322 
L 466.727202 205.346211 
L 468.444772 205.282932 
L 470.162343 195.534917 
L 473.597483 164.056648 
L 475.315054 155.699181 
L 477.032624 158.99583 
L 478.750195 174.040656 
L 482.185336 219.233144 
L 483.902906 235.464183 
L 485.620476 240.820926 
L 487.338047 234.411732 
L 489.055617 218.874475 
L 490.773188 199.61675 
L 492.490758 182.922171 
L 494.208329 173.661771 
L 495.925899 173.773638 
L 497.64347 181.871842 
L 499.36104 193.977326 
L 501.07861 205.130706 
L 502.796181 211.099697 
L 504.513751 209.516098 
L 506.231322 200.424977 
L 507.948892 186.271152 
L 509.666463 171.108686 
L 511.384033 159.25047 
L 513.101604 153.979073 
L 514.819174 156.698046 
L 516.536744 166.640853 
L 518.254315 181.304144 
L 519.971885 197.412088 
L 521.689456 211.813289 
L 523.407026 222.018167 
L 525.124597 226.551954 
L 526.842167 225.232483 
L 528.559738 219.133097 
L 530.277308 210.128684 
L 531.994878 200.282967 
L 533.712449 191.376147 
L 535.430019 184.584586 
L 537.14759 180.311273 
L 538.86516 178.246701 
L 540.582731 177.627231 
L 542.300301 177.526459 
L 544.017871 177.066625 
L 545.735442 175.55724 
L 547.453012 172.581101 
L 549.170583 168.044353 
L 550.888153 162.176882 
L 554.323294 148.828531 
L 556.040865 143.017539 
L 557.758435 138.911547 
L 559.476005 137.173483 
L 561.193576 138.282783 
L 562.911146 142.497483 
L 564.628717 149.728708 
L 566.346287 159.370591 
L 569.781428 180.92219 
L 571.498999 189.755458 
L 573.216569 195.429679 
L 574.934139 197.057943 
L 576.65171 194.388397 
L 578.36928 187.875588 
L 580.086851 178.562054 
L 583.521992 157.182327 
L 585.239562 148.021597 
L 586.957133 141.469969 
L 588.674703 138.069102 
L 590.392273 137.60215 
L 592.109844 139.142223 
L 593.827414 141.336443 
L 595.544985 142.763044 
L 597.262555 142.247908 
L 598.980126 139.107532 
L 600.697696 133.281135 
L 602.415266 125.292536 
L 605.850407 107.099941 
L 607.567978 99.787952 
L 609.285548 95.831186 
L 611.003119 96.524856 
L 612.720689 102.251627 
L 614.43826 112.168977 
L 617.8734 136.776542 
L 619.590971 146.967309 
L 621.308541 153.135421 
L 623.026112 154.06967 
L 624.743682 149.503752 
L 626.461253 140.159743 
L 628.178823 127.45084 
L 631.613964 99.105088 
L 633.331534 87.525408 
L 635.049105 80.610214 
L 636.766675 80.1333 
L 638.484246 86.528787 
L 640.201816 98.437672 
L 643.636957 127.7205 
L 645.354528 139.284434 
L 647.072098 145.643092 
L 648.789668 145.425025 
L 650.507239 138.677354 
L 652.224809 127.020297 
L 655.65995 99.378814 
L 657.377521 88.650633 
L 659.095091 83.647254 
L 660.812661 87.601519 
L 662.530232 103.251972 
L 664.247802 130.300289 
L 665.965373 163.312762 
L 667.682943 193.567108 
L 669.400514 212.818446 
L 671.118084 213.969434 
L 672.835655 188.931743 
L 674.553225 127.246543 
L 676.270795 20.445455 
L 676.270795 20.445455 
" clip-path="url(#p583a7e9b25)" style="fill: none; stroke: #104a7e; stroke-width: 2; stroke-linecap: square"/>
   </g>
   <g id="line2d_15">
    <path d="M 88.861705 204.170319 
L 90.579275 197.283272 
L 92.296845 191.714362 
L 97.449557 177.883569 
L 99.167127 172.10929 
L 100.884698 164.96468 
L 102.602268 156.542721 
L 104.319839 147.533425 
L 106.037409 139.224866 
L 107.754979 133.311768 
L 109.47255 131.508193 
L 111.19012 135.032741 
L 112.907691 144.112079 
L 114.625261 157.696523 
L 118.060402 188.751017 
L 119.777972 200.461049 
L 121.495543 206.721417 
L 123.213113 207.014807 
L 124.930684 202.436796 
L 126.648254 195.418367 
L 128.365825 189.004521 
L 130.083395 185.737402 
L 131.800966 186.375821 
L 133.518536 189.132213 
L 135.236106 190.364402 
L 136.953677 186.756262 
L 138.671247 177.466366 
L 142.106388 152.486361 
L 143.823959 145.145046 
L 145.541529 145.572591 
L 147.2591 154.576598 
L 148.97667 170.707811 
L 152.411811 209.406124 
L 154.129381 222.40114 
L 155.846952 225.846857 
L 157.564522 218.266286 
L 159.282093 200.621393 
L 160.999663 175.820899 
L 162.717234 148.025486 
L 164.434804 122.132868 
L 166.152374 103.383595 
L 167.869945 96.716929 
L 169.587515 105.551721 
L 171.305086 130.141645 
L 173.022656 166.393752 
L 174.740227 206.381224 
L 176.457797 240.939223 
L 178.175367 263.055445 
L 179.892938 269.99915 
L 181.610508 263.238032 
L 183.328079 246.83993 
L 188.48079 183.935443 
L 190.198361 167.655273 
L 191.915931 154.992179 
L 193.633501 145.399949 
L 195.351072 138.217274 
L 197.068642 133.075709 
L 198.786213 130.024301 
L 200.503783 129.374559 
L 202.221354 131.383393 
L 203.938924 135.935546 
L 205.656495 142.360488 
L 207.374065 149.457486 
L 209.091635 155.738196 
L 210.809206 159.834348 
L 212.526776 160.952899 
L 214.244347 159.209676 
L 217.679488 152.124789 
L 219.397058 150.43078 
L 221.114629 152.061292 
L 222.832199 157.652776 
L 224.549769 166.936089 
L 226.26734 178.93946 
L 229.702481 205.803316 
L 231.420051 218.236249 
L 233.137622 228.888232 
L 234.855192 237.358563 
L 236.572762 243.5273 
L 238.290333 247.459143 
L 240.007903 249.31348 
L 241.725474 249.282588 
L 243.443044 247.565782 
L 245.160615 244.37425 
L 246.878185 239.952374 
L 248.595756 234.59888 
L 253.748467 216.769762 
L 255.466037 211.612217 
L 257.183608 207.430532 
L 258.901178 204.411323 
L 260.618749 202.585479 
L 262.336319 201.823318 
L 264.05389 201.855718 
L 267.48903 202.81503 
L 269.206601 202.980375 
L 270.924171 202.544093 
L 272.641742 201.370502 
L 274.359312 199.47547 
L 276.076883 197.017066 
L 279.512024 191.555022 
L 281.229594 189.239019 
L 282.947164 187.632895 
L 284.664735 186.97381 
L 286.382305 187.389489 
L 288.099876 188.884838 
L 289.817446 191.347327 
L 291.535017 194.569347 
L 294.970157 202.198703 
L 296.687728 206.046937 
L 298.405298 209.607839 
L 300.122869 212.735202 
L 301.840439 215.367401 
L 303.55801 217.527152 
L 305.27558 219.310803 
L 310.428291 224.026687 
L 312.145862 225.959137 
L 313.863432 228.281296 
L 315.581003 231.030127 
L 317.298573 234.168936 
L 322.451285 244.523222 
L 324.168855 247.560537 
L 325.886425 249.96217 
L 327.603996 251.477377 
L 329.321566 251.890137 
L 331.039137 251.036894 
L 332.756707 248.817967 
L 334.474278 245.200925 
L 336.191848 240.216391 
L 337.909419 233.94968 
L 339.626989 226.533867 
L 341.344559 218.149387 
L 344.7797 199.474656 
L 348.214841 180.507569 
L 349.932412 171.871746 
L 351.649982 164.259259 
L 353.367552 157.925587 
L 355.085123 153.076439 
L 356.802693 149.933412 
L 358.520264 148.799228 
L 360.237834 150.061643 
L 361.955405 154.09327 
L 363.672975 161.061602 
L 365.390546 170.730199 
L 367.108116 182.36344 
L 370.543257 206.791152 
L 372.260827 217.199493 
L 373.978398 225.426765 
L 375.695968 231.449367 
L 377.413539 235.741638 
L 379.131109 239.044597 
L 380.84868 242.09729 
L 382.56625 245.421548 
L 384.28382 249.203646 
L 387.718961 257.09611 
L 389.436532 259.910974 
L 391.154102 260.759302 
L 392.871673 258.68713 
L 394.589243 252.974744 
L 396.306814 243.410925 
L 398.024384 230.521354 
L 401.459525 200.811351 
L 403.177095 188.345117 
L 404.894666 180.409586 
L 406.612236 178.503341 
L 408.329807 183.121608 
L 410.047377 193.637962 
L 411.764948 208.415505 
L 415.200088 240.995033 
L 416.917659 253.542228 
L 418.635229 260.716104 
L 420.3528 261.428267 
L 422.07037 255.792642 
L 423.787941 245.202099 
L 427.223081 219.71549 
L 428.940652 210.943021 
L 430.658222 207.98769 
L 432.375793 211.535659 
L 434.093363 220.546974 
L 437.528504 244.066753 
L 439.246075 252.068127 
L 440.963645 254.31964 
L 442.681215 250.18217 
L 444.398786 240.605551 
L 449.551497 201.837423 
L 451.269068 192.541269 
L 452.986638 186.532539 
L 454.704209 183.346127 
L 456.421779 182.047775 
L 458.139349 181.664531 
L 459.85692 181.494473 
L 461.57449 181.210981 
L 465.009631 180.277619 
L 468.444772 179.188451 
L 471.879913 178.000304 
L 473.597483 177.86085 
L 475.315054 178.696986 
L 477.032624 181.08326 
L 478.750195 185.350355 
L 480.467765 191.343517 
L 483.902906 205.075225 
L 485.620476 210.229966 
L 487.338047 212.678135 
L 489.055617 211.957995 
L 490.773188 208.458967 
L 494.208329 198.251938 
L 495.925899 194.688085 
L 497.64347 193.590355 
L 499.36104 194.936817 
L 501.07861 197.715463 
L 502.796181 200.222873 
L 504.513751 200.618703 
L 506.231322 197.56718 
L 507.948892 190.761829 
L 509.666463 181.157033 
L 511.384033 170.814516 
L 513.101604 162.391108 
L 514.819174 158.408322 
L 516.536744 160.515613 
L 518.254315 168.963403 
L 519.971885 182.438969 
L 523.407026 213.24246 
L 525.124597 223.964996 
L 526.842167 228.114237 
L 528.559738 224.815545 
L 530.277308 214.913881 
L 531.994878 200.758703 
L 533.712449 185.599211 
L 535.430019 172.750494 
L 537.14759 164.754561 
L 538.86516 162.759738 
L 540.582731 166.275836 
L 542.300301 173.354708 
L 544.017871 181.135006 
L 545.735442 186.60476 
L 547.453012 187.387937 
L 549.170583 182.358777 
L 550.888153 171.934562 
L 554.323294 143.377123 
L 556.040865 131.318875 
L 557.758435 124.595508 
L 559.476005 124.948842 
L 561.193576 132.689326 
L 562.911146 146.624794 
L 566.346287 182.531334 
L 568.063858 198.01407 
L 569.781428 208.056351 
L 571.498999 211.09087 
L 573.216569 206.962411 
L 574.934139 196.896297 
L 580.086851 155.836149 
L 581.804421 146.946341 
L 583.521992 142.880126 
L 585.239562 143.375674 
L 586.957133 147.04654 
L 588.674703 151.716721 
L 590.392273 154.923152 
L 592.109844 154.479955 
L 593.827414 148.982457 
L 595.544985 138.142238 
L 597.262555 122.881967 
L 600.697696 87.646767 
L 602.415266 73.10677 
L 604.132837 63.999661 
L 605.850407 61.990086 
L 607.567978 67.656628 
L 609.285548 80.348284 
L 611.003119 98.231215 
L 614.43826 138.104047 
L 616.15583 153.801576 
L 617.8734 163.248192 
L 619.590971 165.163101 
L 621.308541 159.596028 
L 623.026112 147.889335 
L 628.178823 101.593113 
L 629.896394 91.617233 
L 631.613964 87.678403 
L 633.331534 90.34222 
L 635.049105 99.023493 
L 636.766675 112.030737 
L 638.484246 126.809731 
L 640.201816 140.39245 
L 641.919387 149.973833 
L 643.636957 153.4903 
L 645.354528 150.091505 
L 647.072098 140.42373 
L 650.507239 111.974464 
L 652.224809 100.13605 
L 653.94238 94.379264 
L 655.65995 96.879816 
L 657.377521 108.291072 
L 659.095091 127.493358 
L 662.530232 175.994731 
L 664.247802 195.99511 
L 665.965373 207.613065 
L 667.682943 208.914334 
L 669.400514 200.050574 
L 671.118084 182.607563 
L 672.835655 158.78094 
L 674.553225 130.769452 
L 676.270795 100.460613 
L 676.270795 100.460613 
" clip-path="url(#p583a7e9b25)" style="fill: none; stroke: #78003f; stroke-width: 2; stroke-linecap: square"/>
   </g>
   <g id="line2d_16">
    <path d="M 59.49125 191.176472 
L 705.64125 191.176472 
" clip-path="url(#p583a7e9b25)" style="fill: none; stroke-dasharray: 3.33,1.44; stroke-dashoffset: 0; stroke: #0d1530; stroke-width: 0.9"/>
   </g>
   <g id="patch_3">
    <path d="M 59.49125 298.6 
L 59.49125 7.2 
" style="fill: none; stroke: #000000; stroke-width: 0.8; stroke-linejoin: miter; stroke-linecap: square"/>
   </g>
   <g id="patch_4">
    <path d="M 59.49125 298.6 
L 705.64125 298.6 
" style="fill: none; stroke: #000000; stroke-width: 0.8; stroke-linejoin: miter; stroke-linecap: square"/>
   </g>
   <g id="legend_1">
    <g id="line2d_17">
     <path d="M 567.212813 245.847344 
L 576.212813 245.847344 
L 585.212813 245.847344 
" style="fill: none; stroke: #104a7e; stroke-width: 2; stroke-linecap: square"/>
    </g>
    <g id="text_16">
     <!-- Be glodinimo -->
     <g transform="translate(592.412813 248.997344) scale(0.09 -0.09)">
      <defs>
       <path id="DejaVuSans-65" d="M 3597 1894 
L 3597 1613 
L 953 1613 
Q 991 1019 1311 708 
Q 1631 397 2203 397 
Q 2534 397 2845 478 
Q 3156 559 3463 722 
L 3463 178 
Q 3153 47 2828 -22 
Q 2503 -91 2169 -91 
Q 1331 -91 842 396 
Q 353 884 353 1716 
Q 353 2575 817 3079 
Q 1281 3584 2069 3584 
Q 2775 3584 3186 3129 
Q 3597 2675 3597 1894 
z
M 3022 2063 
Q 3016 2534 2758 2815 
Q 2500 3097 2075 3097 
Q 1594 3097 1305 2825 
Q 1016 2553 972 2059 
L 3022 2063 
z
" transform="scale(0.015625)"/>
       <path id="DejaVuSans-64" d="M 2906 2969 
L 2906 4863 
L 3481 4863 
L 3481 0 
L 2906 0 
L 2906 525 
Q 2725 213 2448 61 
Q 2172 -91 1784 -91 
Q 1150 -91 751 415 
Q 353 922 353 1747 
Q 353 2572 751 3078 
Q 1150 3584 1784 3584 
Q 2172 3584 2448 3432 
Q 2725 3281 2906 2969 
z
M 947 1747 
Q 947 1113 1208 752 
Q 1469 391 1925 391 
Q 2381 391 2643 752 
Q 2906 1113 2906 1747 
Q 2906 2381 2643 2742 
Q 2381 3103 1925 3103 
Q 1469 3103 1208 2742 
Q 947 2381 947 1747 
z
" transform="scale(0.015625)"/>
      </defs>
      <use xlink:href="#DejaVuSans-42"/>
      <use xlink:href="#DejaVuSans-65" x="68.603516"/>
      <use xlink:href="#DejaVuSans-20" x="130.126953"/>
      <use xlink:href="#DejaVuSans-67" x="161.914062"/>
      <use xlink:href="#DejaVuSans-6c" x="225.390625"/>
      <use xlink:href="#DejaVuSans-6f" x="253.173828"/>
      <use xlink:href="#DejaVuSans-64" x="314.355469"/>
      <use xlink:href="#DejaVuSans-69" x="377.832031"/>
      <use xlink:href="#DejaVuSans-6e" x="405.615234"/>
      <use xlink:href="#DejaVuSans-69" x="468.994141"/>
      <use xlink:href="#DejaVuSans-6d" x="496.777344"/>
      <use xlink:href="#DejaVuSans-6f" x="594.189453"/>
     </g>
    </g>
    <g id="line2d_18">
     <path d="M 567.212813 259.057656 
L 576.212813 259.057656 
L 585.212813 259.057656 
" style="fill: none; stroke: #78003f; stroke-width: 2; stroke-linecap: square"/>
    </g>
    <g id="text_17">
     <!-- Glodinimas, sigma=8.0 -->
     <g transform="translate(592.412813 262.207656) scale(0.09 -0.09)">
      <defs>
       <path id="DejaVuSans-47" d="M 3809 666 
L 3809 1919 
L 2778 1919 
L 2778 2438 
L 4434 2438 
L 4434 434 
Q 4069 175 3628 42 
Q 3188 -91 2688 -91 
Q 1594 -91 976 548 
Q 359 1188 359 2328 
Q 359 3472 976 4111 
Q 1594 4750 2688 4750 
Q 3144 4750 3555 4637 
Q 3966 4525 4313 4306 
L 4313 3634 
Q 3963 3931 3569 4081 
Q 3175 4231 2741 4231 
Q 1884 4231 1454 3753 
Q 1025 3275 1025 2328 
Q 1025 1384 1454 906 
Q 1884 428 2741 428 
Q 3075 428 3337 486 
Q 3600 544 3809 666 
z
" transform="scale(0.015625)"/>
       <path id="DejaVuSans-3d" d="M 678 2906 
L 4684 2906 
L 4684 2381 
L 678 2381 
L 678 2906 
z
M 678 1631 
L 4684 1631 
L 4684 1100 
L 678 1100 
L 678 1631 
z
" transform="scale(0.015625)"/>
      </defs>
      <use xlink:href="#DejaVuSans-47"/>
      <use xlink:href="#DejaVuSans-6c" x="77.490234"/>
      <use xlink:href="#DejaVuSans-6f" x="105.273438"/>
      <use xlink:href="#DejaVuSans-64" x="166.455078"/>
      <use xlink:href="#DejaVuSans-69" x="229.931641"/>
      <use xlink:href="#DejaVuSans-6e" x="257.714844"/>
      <use xlink:href="#DejaVuSans-69" x="321.09375"/>
      <use xlink:href="#DejaVuSans-6d" x="348.876953"/>
      <use xlink:href="#DejaVuSans-61" x="446.289062"/>
      <use xlink:href="#DejaVuSans-73" x="507.568359"/>
      <use xlink:href="#DejaVuSans-2c" x="559.667969"/>
      <use xlink:href="#DejaVuSans-20" x="591.455078"/>
      <use xlink:href="#DejaVuSans-73" x="623.242188"/>
      <use xlink:href="#DejaVuSans-69" x="675.341797"/>
      <use xlink:href="#DejaVuSans-67" x="703.125"/>
      <use xlink:href="#DejaVuSans-6d" x="766.601562"/>
      <use xlink:href="#DejaVuSans-61" x="864.013672"/>
      <use xlink:href="#DejaVuSans-3d" x="925.292969"/>
      <use xlink:href="#DejaVuSans-38" x="1009.082031"/>
      <use xlink:href="#DejaVuSans-2e" x="1072.705078"/>
      <use xlink:href="#DejaVuSans-30" x="1104.492188"/>
     </g>
    </g>
    <g id="patch_5">
     <path d="M 567.212813 275.417969 
L 585.212813 275.417969 
L 585.212813 269.117969 
L 567.212813 269.117969 
z
" style="fill: #6193cd; fill-opacity: 0.22; stroke: #6193cd; stroke-opacity: 0.22; stroke-linejoin: miter"/>
    </g>
    <g id="text_18">
     <!-- Teigiamas plotas -->
     <g transform="translate(592.412813 275.417969) scale(0.09 -0.09)">
      <defs>
       <path id="DejaVuSans-54" d="M -19 4666 
L 3928 4666 
L 3928 4134 
L 2272 4134 
L 2272 0 
L 1638 0 
L 1638 4134 
L -19 4134 
L -19 4666 
z
" transform="scale(0.015625)"/>
       <path id="DejaVuSans-70" d="M 1159 525 
L 1159 -1331 
L 581 -1331 
L 581 3500 
L 1159 3500 
L 1159 2969 
Q 1341 3281 1617 3432 
Q 1894 3584 2278 3584 
Q 2916 3584 3314 3078 
Q 3713 2572 3713 1747 
Q 3713 922 3314 415 
Q 2916 -91 2278 -91 
Q 1894 -91 1617 61 
Q 1341 213 1159 525 
z
M 3116 1747 
Q 3116 2381 2855 2742 
Q 2594 3103 2138 3103 
Q 1681 3103 1420 2742 
Q 1159 2381 1159 1747 
Q 1159 1113 1420 752 
Q 1681 391 2138 391 
Q 2594 391 2855 752 
Q 3116 1113 3116 1747 
z
" transform="scale(0.015625)"/>
       <path id="DejaVuSans-74" d="M 1172 4494 
L 1172 3500 
L 2356 3500 
L 2356 3053 
L 1172 3053 
L 1172 1153 
Q 1172 725 1289 603 
Q 1406 481 1766 481 
L 2356 481 
L 2356 0 
L 1766 0 
Q 1100 0 847 248 
Q 594 497 594 1153 
L 594 3053 
L 172 3053 
L 172 3500 
L 594 3500 
L 594 4494 
L 1172 4494 
z
" transform="scale(0.015625)"/>
      </defs>
      <use xlink:href="#DejaVuSans-54"/>
      <use xlink:href="#DejaVuSans-65" x="44.083984"/>
      <use xlink:href="#DejaVuSans-69" x="105.607422"/>
      <use xlink:href="#DejaVuSans-67" x="133.390625"/>
      <use xlink:href="#DejaVuSans-69" x="196.867188"/>
      <use xlink:href="#DejaVuSans-61" x="224.650391"/>
      <use xlink:href="#DejaVuSans-6d" x="285.929688"/>
      <use xlink:href="#DejaVuSans-61" x="383.341797"/>
      <use xlink:href="#DejaVuSans-73" x="444.621094"/>
      <use xlink:href="#DejaVuSans-20" x="496.720703"/>
      <use xlink:href="#DejaVuSans-70" x="528.507812"/>
      <use xlink:href="#DejaVuSans-6c" x="591.984375"/>
      <use xlink:href="#DejaVuSans-6f" x="619.767578"/>
      <use xlink:href="#DejaVuSans-74" x="680.949219"/>
      <use xlink:href="#DejaVuSans-61" x="720.158203"/>
      <use xlink:href="#DejaVuSans-73" x="781.4375"/>
     </g>
    </g>
    <g id="patch_6">
     <path d="M 567.212813 288.628281 
L 585.212813 288.628281 
L 585.212813 282.328281 
L 567.212813 282.328281 
z
" style="fill: #6f0037; fill-opacity: 0.18; stroke: #6f0037; stroke-opacity: 0.18; stroke-linejoin: miter"/>
    </g>
    <g id="text_19">
     <!-- Neigiamas plotas -->
     <g transform="translate(592.412813 288.628281) scale(0.09 -0.09)">
      <defs>
       <path id="DejaVuSans-4e" d="M 628 4666 
L 1478 4666 
L 3547 763 
L 3547 4666 
L 4159 4666 
L 4159 0 
L 3309 0 
L 1241 3903 
L 1241 0 
L 628 0 
L 628 4666 
z
" transform="scale(0.015625)"/>
      </defs>
      <use xlink:href="#DejaVuSans-4e"/>
      <use xlink:href="#DejaVuSans-65" x="74.804688"/>
      <use xlink:href="#DejaVuSans-69" x="136.328125"/>
      <use xlink:href="#DejaVuSans-67" x="164.111328"/>
      <use xlink:href="#DejaVuSans-69" x="227.587891"/>
      <use xlink:href="#DejaVuSans-61" x="255.371094"/>
      <use xlink:href="#DejaVuSans-6d" x="316.650391"/>
      <use xlink:href="#DejaVuSans-61" x="414.0625"/>
      <use xlink:href="#DejaVuSans-73" x="475.341797"/>
      <use xlink:href="#DejaVuSans-20" x="527.441406"/>
      <use xlink:href="#DejaVuSans-70" x="559.228516"/>
      <use xlink:href="#DejaVuSans-6c" x="622.705078"/>
      <use xlink:href="#DejaVuSans-6f" x="650.488281"/>
      <use xlink:href="#DejaVuSans-74" x="711.669922"/>
      <use xlink:href="#DejaVuSans-61" x="750.878906"/>
      <use xlink:href="#DejaVuSans-73" x="812.158203"/>
     </g>
    </g>
   </g>
  </g>
 </g>
 <defs>
  <clipPath id="p583a7e9b25">
   <rect x="59.49125" y="7.2" width="646.15" height="291.4"/>
  </clipPath>
 </defs>
</svg>
