<?xml version="1.0" encoding="utf-8" standalone="no"?>
<!DOCTYPE svg PUBLIC "-//W3C//DTD SVG 1.1//EN"
  "http://www.w3.org/Graphics/SVG/1.1/DTD/svg11.dtd">
<svg xmlns:xlink="http://www.w3.org/1999/xlink" width="712.711562pt" height="337.124062pt" viewBox="0 0 712.711562 337.124062" xmlns="http://www.w3.org/2000/svg" version="1.1">
 <metadata>
  <rdf:RDF xmlns:dc="http://purl.org/dc/elements/1.1/" xmlns:cc="http://creativecommons.org/ns#" xmlns:rdf="http://www.w3.org/1999/02/22-rdf-syntax-ns#">
   <cc:Work>
    <dc:type rdf:resource="http://purl.org/dc/dcmitype/StillImage"/>
    <dc:date>2026-05-06T17:48:32.833886</dc:date>
    <dc:format>image/svg+xml</dc:format>
    <dc:creator>
     <cc:Agent>
      <dc:title>Matplotlib v3.8.0, https://matplotlib.org/</dc:title>
     </cc:Agent>
    </dc:creator>
   </cc:Work>
  </rdf:RDF>
 </metadata>
 <defs>
  <style type="text/css">*{stroke-linejoin: round; stroke-linecap: butt}</style>
 </defs>
 <g id="figure_1">
  <g id="patch_1">
   <path d="M 0 337.124062 
L 712.711562 337.124062 
L 712.711562 0 
L 0 0 
z
" style="fill: #ffffff"/>
  </g>
  <g id="axes_1">
   <g id="patch_2">
    <path d="M 51.111563 298.6 
L 705.511563 298.6 
L 705.511563 7.2 
L 51.111563 7.2 
z
" style="fill: #ffffff"/>
   </g>
   <g id="matplotlib.axis_1">
    <g id="xtick_1">
     <g id="line2d_1">
      <defs>
       <path id="m01b3bc610e" d="M 0 0 
L 0 3.5 
" style="stroke: #000000; stroke-width: 0.8"/>
      </defs>
      <g>
       <use xlink:href="#m01b3bc610e" x="136.521026" y="298.6" style="stroke: #000000; stroke-width: 0.8"/>
      </g>
     </g>
     <g id="text_1">
      <!-- 400 -->
      <g transform="translate(126.977276 313.198437) scale(0.1 -0.1)">
       <defs>
        <path id="DejaVuSans-34" d="M 2419 4116 
L 825 1625 
L 2419 1625 
L 2419 4116 
z
M 2253 4666 
L 3047 4666 
L 3047 1625 
L 3713 1625 
L 3713 1100 
L 3047 1100 
L 3047 0 
L 2419 0 
L 2419 1100 
L 313 1100 
L 313 1709 
L 2253 4666 
z
" transform="scale(0.015625)"/>
        <path id="DejaVuSans-30" d="M 2034 4250 
Q 1547 4250 1301 3770 
Q 1056 3291 1056 2328 
Q 1056 1369 1301 889 
Q 1547 409 2034 409 
Q 2525 409 2770 889 
Q 3016 1369 3016 2328 
Q 3016 3291 2770 3770 
Q 2525 4250 2034 4250 
z
M 2034 4750 
Q 2819 4750 3233 4129 
Q 3647 3509 3647 2328 
Q 3647 1150 3233 529 
Q 2819 -91 2034 -91 
Q 1250 -91 836 529 
Q 422 1150 422 2328 
Q 422 3509 836 4129 
Q 1250 4750 2034 4750 
z
" transform="scale(0.015625)"/>
       </defs>
       <use xlink:href="#DejaVuSans-34"/>
       <use xlink:href="#DejaVuSans-30" x="63.623047"/>
       <use xlink:href="#DejaVuSans-30" x="127.246094"/>
      </g>
     </g>
    </g>
    <g id="xtick_2">
     <g id="line2d_2">
      <g>
       <use xlink:href="#m01b3bc610e" x="223.496039" y="298.6" style="stroke: #000000; stroke-width: 0.8"/>
      </g>
     </g>
     <g id="text_2">
      <!-- 500 -->
      <g transform="translate(213.952289 313.198437) scale(0.1 -0.1)">
       <defs>
        <path id="DejaVuSans-35" d="M 691 4666 
L 3169 4666 
L 3169 4134 
L 1269 4134 
L 1269 2991 
Q 1406 3038 1543 3061 
Q 1681 3084 1819 3084 
Q 2600 3084 3056 2656 
Q 3513 2228 3513 1497 
Q 3513 744 3044 326 
Q 2575 -91 1722 -91 
Q 1428 -91 1123 -41 
Q 819 9 494 109 
L 494 744 
Q 775 591 1075 516 
Q 1375 441 1709 441 
Q 2250 441 2565 725 
Q 2881 1009 2881 1497 
Q 2881 1984 2565 2268 
Q 2250 2553 1709 2553 
Q 1456 2553 1204 2497 
Q 953 2441 691 2322 
L 691 4666 
z
" transform="scale(0.015625)"/>
       </defs>
       <use xlink:href="#DejaVuSans-35"/>
       <use xlink:href="#DejaVuSans-30" x="63.623047"/>
       <use xlink:href="#DejaVuSans-30" x="127.246094"/>
      </g>
     </g>
    </g>
    <g id="xtick_3">
     <g id="line2d_3">
      <g>
       <use xlink:href="#m01b3bc610e" x="310.471052" y="298.6" style="stroke: #000000; stroke-width: 0.8"/>
      </g>
     </g>
     <g id="text_3">
      <!-- 600 -->
      <g transform="translate(300.927302 313.198437) scale(0.1 -0.1)">
       <defs>
        <path id="DejaVuSans-36" d="M 2113 2584 
Q 1688 2584 1439 2293 
Q 1191 2003 1191 1497 
Q 1191 994 1439 701 
Q 1688 409 2113 409 
Q 2538 409 2786 701 
Q 3034 994 3034 1497 
Q 3034 2003 2786 2293 
Q 2538 2584 2113 2584 
z
M 3366 4563 
L 3366 3988 
Q 3128 4100 2886 4159 
Q 2644 4219 2406 4219 
Q 1781 4219 1451 3797 
Q 1122 3375 1075 2522 
Q 1259 2794 1537 2939 
Q 1816 3084 2150 3084 
Q 2853 3084 3261 2657 
Q 3669 2231 3669 1497 
Q 3669 778 3244 343 
Q 2819 -91 2113 -91 
Q 1303 -91 875 529 
Q 447 1150 447 2328 
Q 447 3434 972 4092 
Q 1497 4750 2381 4750 
Q 2619 4750 2861 4703 
Q 3103 4656 3366 4563 
z
" transform="scale(0.015625)"/>
       </defs>
       <use xlink:href="#DejaVuSans-36"/>
       <use xlink:href="#DejaVuSans-30" x="63.623047"/>
       <use xlink:href="#DejaVuSans-30" x="127.246094"/>
      </g>
     </g>
    </g>
    <g id="xtick_4">
     <g id="line2d_4">
      <g>
       <use xlink:href="#m01b3bc610e" x="397.446065" y="298.6" style="stroke: #000000; stroke-width: 0.8"/>
      </g>
     </g>
     <g id="text_4">
      <!-- 700 -->
      <g transform="translate(387.902315 313.198437) scale(0.1 -0.1)">
       <defs>
        <path id="DejaVuSans-37" d="M 525 4666 
L 3525 4666 
L 3525 4397 
L 1831 0 
L 1172 0 
L 2766 4134 
L 525 4134 
L 525 4666 
z
" transform="scale(0.015625)"/>
       </defs>
       <use xlink:href="#DejaVuSans-37"/>
       <use xlink:href="#DejaVuSans-30" x="63.623047"/>
       <use xlink:href="#DejaVuSans-30" x="127.246094"/>
      </g>
     </g>
    </g>
    <g id="xtick_5">
     <g id="line2d_5">
      <g>
       <use xlink:href="#m01b3bc610e" x="484.421079" y="298.6" style="stroke: #000000; stroke-width: 0.8"/>
      </g>
     </g>
     <g id="text_5">
      <!-- 800 -->
      <g transform="translate(474.877329 313.198437) scale(0.1 -0.1)">
       <defs>
        <path id="DejaVuSans-38" d="M 2034 2216 
Q 1584 2216 1326 1975 
Q 1069 1734 1069 1313 
Q 1069 891 1326 650 
Q 1584 409 2034 409 
Q 2484 409 2743 651 
Q 3003 894 3003 1313 
Q 3003 1734 2745 1975 
Q 2488 2216 2034 2216 
z
M 1403 2484 
Q 997 2584 770 2862 
Q 544 3141 544 3541 
Q 544 4100 942 4425 
Q 1341 4750 2034 4750 
Q 2731 4750 3128 4425 
Q 3525 4100 3525 3541 
Q 3525 3141 3298 2862 
Q 3072 2584 2669 2484 
Q 3125 2378 3379 2068 
Q 3634 1759 3634 1313 
Q 3634 634 3220 271 
Q 2806 -91 2034 -91 
Q 1263 -91 848 271 
Q 434 634 434 1313 
Q 434 1759 690 2068 
Q 947 2378 1403 2484 
z
M 1172 3481 
Q 1172 3119 1398 2916 
Q 1625 2713 2034 2713 
Q 2441 2713 2670 2916 
Q 2900 3119 2900 3481 
Q 2900 3844 2670 4047 
Q 2441 4250 2034 4250 
Q 1625 4250 1398 4047 
Q 1172 3844 1172 3481 
z
" transform="scale(0.015625)"/>
       </defs>
       <use xlink:href="#DejaVuSans-38"/>
       <use xlink:href="#DejaVuSans-30" x="63.623047"/>
       <use xlink:href="#DejaVuSans-30" x="127.246094"/>
      </g>
     </g>
    </g>
    <g id="xtick_6">
     <g id="line2d_6">
      <g>
       <use xlink:href="#m01b3bc610e" x="571.396092" y="298.6" style="stroke: #000000; stroke-width: 0.8"/>
      </g>
     </g>
     <g id="text_6">
      <!-- 900 -->
      <g transform="translate(561.852342 313.198437) scale(0.1 -0.1)">
       <defs>
        <path id="DejaVuSans-39" d="M 703 97 
L 703 672 
Q 941 559 1184 500 
Q 1428 441 1663 441 
Q 2288 441 2617 861 
Q 2947 1281 2994 2138 
Q 2813 1869 2534 1725 
Q 2256 1581 1919 1581 
Q 1219 1581 811 2004 
Q 403 2428 403 3163 
Q 403 3881 828 4315 
Q 1253 4750 1959 4750 
Q 2769 4750 3195 4129 
Q 3622 3509 3622 2328 
Q 3622 1225 3098 567 
Q 2575 -91 1691 -91 
Q 1453 -91 1209 -44 
Q 966 3 703 97 
z
M 1959 2075 
Q 2384 2075 2632 2365 
Q 2881 2656 2881 3163 
Q 2881 3666 2632 3958 
Q 2384 4250 1959 4250 
Q 1534 4250 1286 3958 
Q 1038 3666 1038 3163 
Q 1038 2656 1286 2365 
Q 1534 2075 1959 2075 
z
" transform="scale(0.015625)"/>
       </defs>
       <use xlink:href="#DejaVuSans-39"/>
       <use xlink:href="#DejaVuSans-30" x="63.623047"/>
       <use xlink:href="#DejaVuSans-30" x="127.246094"/>
      </g>
     </g>
    </g>
    <g id="xtick_7">
     <g id="line2d_7">
      <g>
       <use xlink:href="#m01b3bc610e" x="658.371105" y="298.6" style="stroke: #000000; stroke-width: 0.8"/>
      </g>
     </g>
     <g id="text_7">
      <!-- 1000 -->
      <g transform="translate(645.646105 313.198437) scale(0.1 -0.1)">
       <defs>
        <path id="DejaVuSans-31" d="M 794 531 
L 1825 531 
L 1825 4091 
L 703 3866 
L 703 4441 
L 1819 4666 
L 2450 4666 
L 2450 531 
L 3481 531 
L 3481 0 
L 794 0 
L 794 531 
z
" transform="scale(0.015625)"/>
       </defs>
       <use xlink:href="#DejaVuSans-31"/>
       <use xlink:href="#DejaVuSans-30" x="63.623047"/>
       <use xlink:href="#DejaVuSans-30" x="127.246094"/>
       <use xlink:href="#DejaVuSans-30" x="190.869141"/>
      </g>
     </g>
    </g>
    <g id="text_8">
     <!-- Bangos ilgis, nm -->
     <g transform="translate(332.932266 327.636406) scale(0.11 -0.11)">
      <defs>
       <path id="DejaVuSans-42" d="M 1259 2228 
L 1259 519 
L 2272 519 
Q 2781 519 3026 730 
Q 3272 941 3272 1375 
Q 3272 1813 3026 2020 
Q 2781 2228 2272 2228 
L 1259 2228 
z
M 1259 4147 
L 1259 2741 
L 2194 2741 
Q 2656 2741 2882 2914 
Q 3109 3088 3109 3444 
Q 3109 3797 2882 3972 
Q 2656 4147 2194 4147 
L 1259 4147 
z
M 628 4666 
L 2241 4666 
Q 2963 4666 3353 4366 
Q 3744 4066 3744 3513 
Q 3744 3084 3544 2831 
Q 3344 2578 2956 2516 
Q 3422 2416 3680 2098 
Q 3938 1781 3938 1306 
Q 3938 681 3513 340 
Q 3088 0 2303 0 
L 628 0 
L 628 4666 
z
" transform="scale(0.015625)"/>
       <path id="DejaVuSans-61" d="M 2194 1759 
Q 1497 1759 1228 1600 
Q 959 1441 959 1056 
Q 959 750 1161 570 
Q 1363 391 1709 391 
Q 2188 391 2477 730 
Q 2766 1069 2766 1631 
L 2766 1759 
L 2194 1759 
z
M 3341 1997 
L 3341 0 
L 2766 0 
L 2766 531 
Q 2569 213 2275 61 
Q 1981 -91 1556 -91 
Q 1019 -91 701 211 
Q 384 513 384 1019 
Q 384 1609 779 1909 
Q 1175 2209 1959 2209 
L 2766 2209 
L 2766 2266 
Q 2766 2663 2505 2880 
Q 2244 3097 1772 3097 
Q 1472 3097 1187 3025 
Q 903 2953 641 2809 
L 641 3341 
Q 956 3463 1253 3523 
Q 1550 3584 1831 3584 
Q 2591 3584 2966 3190 
Q 3341 2797 3341 1997 
z
" transform="scale(0.015625)"/>
       <path id="DejaVuSans-6e" d="M 3513 2113 
L 3513 0 
L 2938 0 
L 2938 2094 
Q 2938 2591 2744 2837 
Q 2550 3084 2163 3084 
Q 1697 3084 1428 2787 
Q 1159 2491 1159 1978 
L 1159 0 
L 581 0 
L 581 3500 
L 1159 3500 
L 1159 2956 
Q 1366 3272 1645 3428 
Q 1925 3584 2291 3584 
Q 2894 3584 3203 3211 
Q 3513 2838 3513 2113 
z
" transform="scale(0.015625)"/>
       <path id="DejaVuSans-67" d="M 2906 1791 
Q 2906 2416 2648 2759 
Q 2391 3103 1925 3103 
Q 1463 3103 1205 2759 
Q 947 2416 947 1791 
Q 947 1169 1205 825 
Q 1463 481 1925 481 
Q 2391 481 2648 825 
Q 2906 1169 2906 1791 
z
M 3481 434 
Q 3481 -459 3084 -895 
Q 2688 -1331 1869 -1331 
Q 1566 -1331 1297 -1286 
Q 1028 -1241 775 -1147 
L 775 -588 
Q 1028 -725 1275 -790 
Q 1522 -856 1778 -856 
Q 2344 -856 2625 -561 
Q 2906 -266 2906 331 
L 2906 616 
Q 2728 306 2450 153 
Q 2172 0 1784 0 
Q 1141 0 747 490 
Q 353 981 353 1791 
Q 353 2603 747 3093 
Q 1141 3584 1784 3584 
Q 2172 3584 2450 3431 
Q 2728 3278 2906 2969 
L 2906 3500 
L 3481 3500 
L 3481 434 
z
" transform="scale(0.015625)"/>
       <path id="DejaVuSans-6f" d="M 1959 3097 
Q 1497 3097 1228 2736 
Q 959 2375 959 1747 
Q 959 1119 1226 758 
Q 1494 397 1959 397 
Q 2419 397 2687 759 
Q 2956 1122 2956 1747 
Q 2956 2369 2687 2733 
Q 2419 3097 1959 3097 
z
M 1959 3584 
Q 2709 3584 3137 3096 
Q 3566 2609 3566 1747 
Q 3566 888 3137 398 
Q 2709 -91 1959 -91 
Q 1206 -91 779 398 
Q 353 888 353 1747 
Q 353 2609 779 3096 
Q 1206 3584 1959 3584 
z
" transform="scale(0.015625)"/>
       <path id="DejaVuSans-73" d="M 2834 3397 
L 2834 2853 
Q 2591 2978 2328 3040 
Q 2066 3103 1784 3103 
Q 1356 3103 1142 2972 
Q 928 2841 928 2578 
Q 928 2378 1081 2264 
Q 1234 2150 1697 2047 
L 1894 2003 
Q 2506 1872 2764 1633 
Q 3022 1394 3022 966 
Q 3022 478 2636 193 
Q 2250 -91 1575 -91 
Q 1294 -91 989 -36 
Q 684 19 347 128 
L 347 722 
Q 666 556 975 473 
Q 1284 391 1588 391 
Q 1994 391 2212 530 
Q 2431 669 2431 922 
Q 2431 1156 2273 1281 
Q 2116 1406 1581 1522 
L 1381 1569 
Q 847 1681 609 1914 
Q 372 2147 372 2553 
Q 372 3047 722 3315 
Q 1072 3584 1716 3584 
Q 2034 3584 2315 3537 
Q 2597 3491 2834 3397 
z
" transform="scale(0.015625)"/>
       <path id="DejaVuSans-20" transform="scale(0.015625)"/>
       <path id="DejaVuSans-69" d="M 603 3500 
L 1178 3500 
L 1178 0 
L 603 0 
L 603 3500 
z
M 603 4863 
L 1178 4863 
L 1178 4134 
L 603 4134 
L 603 4863 
z
" transform="scale(0.015625)"/>
       <path id="DejaVuSans-6c" d="M 603 4863 
L 1178 4863 
L 1178 0 
L 603 0 
L 603 4863 
z
" transform="scale(0.015625)"/>
       <path id="DejaVuSans-2c" d="M 750 794 
L 1409 794 
L 1409 256 
L 897 -744 
L 494 -744 
L 750 256 
L 750 794 
z
" transform="scale(0.015625)"/>
       <path id="DejaVuSans-6d" d="M 3328 2828 
Q 3544 3216 3844 3400 
Q 4144 3584 4550 3584 
Q 5097 3584 5394 3201 
Q 5691 2819 5691 2113 
L 5691 0 
L 5113 0 
L 5113 2094 
Q 5113 2597 4934 2840 
Q 4756 3084 4391 3084 
Q 3944 3084 3684 2787 
Q 3425 2491 3425 1978 
L 3425 0 
L 2847 0 
L 2847 2094 
Q 2847 2600 2669 2842 
Q 2491 3084 2119 3084 
Q 1678 3084 1418 2786 
Q 1159 2488 1159 1978 
L 1159 0 
L 581 0 
L 581 3500 
L 1159 3500 
L 1159 2956 
Q 1356 3278 1631 3431 
Q 1906 3584 2284 3584 
Q 2666 3584 2933 3390 
Q 3200 3197 3328 2828 
z
" transform="scale(0.015625)"/>
      </defs>
      <use xlink:href="#DejaVuSans-42"/>
      <use xlink:href="#DejaVuSans-61" x="68.603516"/>
      <use xlink:href="#DejaVuSans-6e" x="129.882812"/>
      <use xlink:href="#DejaVuSans-67" x="193.261719"/>
      <use xlink:href="#DejaVuSans-6f" x="256.738281"/>
      <use xlink:href="#DejaVuSans-73" x="317.919922"/>
      <use xlink:href="#DejaVuSans-20" x="370.019531"/>
      <use xlink:href="#DejaVuSans-69" x="401.806641"/>
      <use xlink:href="#DejaVuSans-6c" x="429.589844"/>
      <use xlink:href="#DejaVuSans-67" x="457.373047"/>
      <use xlink:href="#DejaVuSans-69" x="520.849609"/>
      <use xlink:href="#DejaVuSans-73" x="548.632812"/>
      <use xlink:href="#DejaVuSans-2c" x="600.732422"/>
      <use xlink:href="#DejaVuSans-20" x="632.519531"/>
      <use xlink:href="#DejaVuSans-6e" x="664.306641"/>
      <use xlink:href="#DejaVuSans-6d" x="727.685547"/>
     </g>
    </g>
   </g>
   <g id="matplotlib.axis_2">
    <g id="ytick_1">
     <g id="line2d_8">
      <defs>
       <path id="mccab2f0f98" d="M 0 0 
L -3.5 0 
" style="stroke: #000000; stroke-width: 0.8"/>
      </defs>
      <g>
       <use xlink:href="#mccab2f0f98" x="51.111563" y="292.282865" style="stroke: #000000; stroke-width: 0.8"/>
      </g>
     </g>
     <g id="text_9">
      <!-- 0.00 -->
      <g transform="translate(21.845938 296.082084) scale(0.1 -0.1)">
       <defs>
        <path id="DejaVuSans-2e" d="M 684 794 
L 1344 794 
L 1344 0 
L 684 0 
L 684 794 
z
" transform="scale(0.015625)"/>
       </defs>
       <use xlink:href="#DejaVuSans-30"/>
       <use xlink:href="#DejaVuSans-2e" x="63.623047"/>
       <use xlink:href="#DejaVuSans-30" x="95.410156"/>
       <use xlink:href="#DejaVuSans-30" x="159.033203"/>
      </g>
     </g>
    </g>
    <g id="ytick_2">
     <g id="line2d_9">
      <g>
       <use xlink:href="#mccab2f0f98" x="51.111563" y="257.703077" style="stroke: #000000; stroke-width: 0.8"/>
      </g>
     </g>
     <g id="text_10">
      <!-- 0.02 -->
      <g transform="translate(21.845938 261.502296) scale(0.1 -0.1)">
       <defs>
        <path id="DejaVuSans-32" d="M 1228 531 
L 3431 531 
L 3431 0 
L 469 0 
L 469 531 
Q 828 903 1448 1529 
Q 2069 2156 2228 2338 
Q 2531 2678 2651 2914 
Q 2772 3150 2772 3378 
Q 2772 3750 2511 3984 
Q 2250 4219 1831 4219 
Q 1534 4219 1204 4116 
Q 875 4013 500 3803 
L 500 4441 
Q 881 4594 1212 4672 
Q 1544 4750 1819 4750 
Q 2544 4750 2975 4387 
Q 3406 4025 3406 3419 
Q 3406 3131 3298 2873 
Q 3191 2616 2906 2266 
Q 2828 2175 2409 1742 
Q 1991 1309 1228 531 
z
" transform="scale(0.015625)"/>
       </defs>
       <use xlink:href="#DejaVuSans-30"/>
       <use xlink:href="#DejaVuSans-2e" x="63.623047"/>
       <use xlink:href="#DejaVuSans-30" x="95.410156"/>
       <use xlink:href="#DejaVuSans-32" x="159.033203"/>
      </g>
     </g>
    </g>
    <g id="ytick_3">
     <g id="line2d_10">
      <g>
       <use xlink:href="#mccab2f0f98" x="51.111563" y="223.123289" style="stroke: #000000; stroke-width: 0.8"/>
      </g>
     </g>
     <g id="text_11">
      <!-- 0.04 -->
      <g transform="translate(21.845938 226.922508) scale(0.1 -0.1)">
       <use xlink:href="#DejaVuSans-30"/>
       <use xlink:href="#DejaVuSans-2e" x="63.623047"/>
       <use xlink:href="#DejaVuSans-30" x="95.410156"/>
       <use xlink:href="#DejaVuSans-34" x="159.033203"/>
      </g>
     </g>
    </g>
    <g id="ytick_4">
     <g id="line2d_11">
      <g>
       <use xlink:href="#mccab2f0f98" x="51.111563" y="188.543501" style="stroke: #000000; stroke-width: 0.8"/>
      </g>
     </g>
     <g id="text_12">
      <!-- 0.06 -->
      <g transform="translate(21.845938 192.34272) scale(0.1 -0.1)">
       <use xlink:href="#DejaVuSans-30"/>
       <use xlink:href="#DejaVuSans-2e" x="63.623047"/>
       <use xlink:href="#DejaVuSans-30" x="95.410156"/>
       <use xlink:href="#DejaVuSans-36" x="159.033203"/>
      </g>
     </g>
    </g>
    <g id="ytick_5">
     <g id="line2d_12">
      <g>
       <use xlink:href="#mccab2f0f98" x="51.111563" y="153.963713" style="stroke: #000000; stroke-width: 0.8"/>
      </g>
     </g>
     <g id="text_13">
      <!-- 0.08 -->
      <g transform="translate(21.845938 157.762932) scale(0.1 -0.1)">
       <use xlink:href="#DejaVuSans-30"/>
       <use xlink:href="#DejaVuSans-2e" x="63.623047"/>
       <use xlink:href="#DejaVuSans-30" x="95.410156"/>
       <use xlink:href="#DejaVuSans-38" x="159.033203"/>
      </g>
     </g>
    </g>
    <g id="ytick_6">
     <g id="line2d_13">
      <g>
       <use xlink:href="#mccab2f0f98" x="51.111563" y="119.383925" style="stroke: #000000; stroke-width: 0.8"/>
      </g>
     </g>
     <g id="text_14">
      <!-- 0.10 -->
      <g transform="translate(21.845938 123.183144) scale(0.1 -0.1)">
       <use xlink:href="#DejaVuSans-30"/>
       <use xlink:href="#DejaVuSans-2e" x="63.623047"/>
       <use xlink:href="#DejaVuSans-31" x="95.410156"/>
       <use xlink:href="#DejaVuSans-30" x="159.033203"/>
      </g>
     </g>
    </g>
    <g id="ytick_7">
     <g id="line2d_14">
      <g>
       <use xlink:href="#mccab2f0f98" x="51.111563" y="84.804137" style="stroke: #000000; stroke-width: 0.8"/>
      </g>
     </g>
     <g id="text_15">
      <!-- 0.12 -->
      <g transform="translate(21.845938 88.603356) scale(0.1 -0.1)">
       <use xlink:href="#DejaVuSans-30"/>
       <use xlink:href="#DejaVuSans-2e" x="63.623047"/>
       <use xlink:href="#DejaVuSans-31" x="95.410156"/>
       <use xlink:href="#DejaVuSans-32" x="159.033203"/>
      </g>
     </g>
    </g>
    <g id="ytick_8">
     <g id="line2d_15">
      <g>
       <use xlink:href="#mccab2f0f98" x="51.111563" y="50.224349" style="stroke: #000000; stroke-width: 0.8"/>
      </g>
     </g>
     <g id="text_16">
      <!-- 0.14 -->
      <g transform="translate(21.845938 54.023568) scale(0.1 -0.1)">
       <use xlink:href="#DejaVuSans-30"/>
       <use xlink:href="#DejaVuSans-2e" x="63.623047"/>
       <use xlink:href="#DejaVuSans-31" x="95.410156"/>
       <use xlink:href="#DejaVuSans-34" x="159.033203"/>
      </g>
     </g>
    </g>
    <g id="ytick_9">
     <g id="line2d_16">
      <g>
       <use xlink:href="#mccab2f0f98" x="51.111563" y="15.644561" style="stroke: #000000; stroke-width: 0.8"/>
      </g>
     </g>
     <g id="text_17">
      <!-- 0.16 -->
      <g transform="translate(21.845938 19.44378) scale(0.1 -0.1)">
       <use xlink:href="#DejaVuSans-30"/>
       <use xlink:href="#DejaVuSans-2e" x="63.623047"/>
       <use xlink:href="#DejaVuSans-31" x="95.410156"/>
       <use xlink:href="#DejaVuSans-36" x="159.033203"/>
      </g>
     </g>
    </g>
    <g id="text_18">
     <!-- L2 normalizuotas srautas -->
     <g transform="translate(15.558281 222.262734) rotate(-90) scale(0.11 -0.11)">
      <defs>
       <path id="DejaVuSans-4c" d="M 628 4666 
L 1259 4666 
L 1259 531 
L 3531 531 
L 3531 0 
L 628 0 
L 628 4666 
z
" transform="scale(0.015625)"/>
       <path id="DejaVuSans-72" d="M 2631 2963 
Q 2534 3019 2420 3045 
Q 2306 3072 2169 3072 
Q 1681 3072 1420 2755 
Q 1159 2438 1159 1844 
L 1159 0 
L 581 0 
L 581 3500 
L 1159 3500 
L 1159 2956 
Q 1341 3275 1631 3429 
Q 1922 3584 2338 3584 
Q 2397 3584 2469 3576 
Q 2541 3569 2628 3553 
L 2631 2963 
z
" transform="scale(0.015625)"/>
       <path id="DejaVuSans-7a" d="M 353 3500 
L 3084 3500 
L 3084 2975 
L 922 459 
L 3084 459 
L 3084 0 
L 275 0 
L 275 525 
L 2438 3041 
L 353 3041 
L 353 3500 
z
" transform="scale(0.015625)"/>
       <path id="DejaVuSans-75" d="M 544 1381 
L 544 3500 
L 1119 3500 
L 1119 1403 
Q 1119 906 1312 657 
Q 1506 409 1894 409 
Q 2359 409 2629 706 
Q 2900 1003 2900 1516 
L 2900 3500 
L 3475 3500 
L 3475 0 
L 2900 0 
L 2900 538 
Q 2691 219 2414 64 
Q 2138 -91 1772 -91 
Q 1169 -91 856 284 
Q 544 659 544 1381 
z
M 1991 3584 
L 1991 3584 
z
" transform="scale(0.015625)"/>
       <path id="DejaVuSans-74" d="M 1172 4494 
L 1172 3500 
L 2356 3500 
L 2356 3053 
L 1172 3053 
L 1172 1153 
Q 1172 725 1289 603 
Q 1406 481 1766 481 
L 2356 481 
L 2356 0 
L 1766 0 
Q 1100 0 847 248 
Q 594 497 594 1153 
L 594 3053 
L 172 3053 
L 172 3500 
L 594 3500 
L 594 4494 
L 1172 4494 
z
" transform="scale(0.015625)"/>
      </defs>
      <use xlink:href="#DejaVuSans-4c"/>
      <use xlink:href="#DejaVuSans-32" x="55.712891"/>
      <use xlink:href="#DejaVuSans-20" x="119.335938"/>
      <use xlink:href="#DejaVuSans-6e" x="151.123047"/>
      <use xlink:href="#DejaVuSans-6f" x="214.501953"/>
      <use xlink:href="#DejaVuSans-72" x="275.683594"/>
      <use xlink:href="#DejaVuSans-6d" x="315.046875"/>
      <use xlink:href="#DejaVuSans-61" x="412.458984"/>
      <use xlink:href="#DejaVuSans-6c" x="473.738281"/>
      <use xlink:href="#DejaVuSans-69" x="501.521484"/>
      <use xlink:href="#DejaVuSans-7a" x="529.304688"/>
      <use xlink:href="#DejaVuSans-75" x="581.794922"/>
      <use xlink:href="#DejaVuSans-6f" x="645.173828"/>
      <use xlink:href="#DejaVuSans-74" x="706.355469"/>
      <use xlink:href="#DejaVuSans-61" x="745.564453"/>
      <use xlink:href="#DejaVuSans-73" x="806.84375"/>
      <use xlink:href="#DejaVuSans-20" x="858.943359"/>
      <use xlink:href="#DejaVuSans-73" x="890.730469"/>
      <use xlink:href="#DejaVuSans-72" x="942.830078"/>
      <use xlink:href="#DejaVuSans-61" x="983.943359"/>
      <use xlink:href="#DejaVuSans-75" x="1045.222656"/>
      <use xlink:href="#DejaVuSans-74" x="1108.601562"/>
      <use xlink:href="#DejaVuSans-61" x="1147.810547"/>
      <use xlink:href="#DejaVuSans-73" x="1209.089844"/>
     </g>
    </g>
   </g>
   <g id="line2d_17">
    <path d="M 80.857017 24.252275 
L 82.596517 20.445455 
L 84.336018 25.240654 
L 86.075518 34.432188 
L 87.815018 40.389677 
L 89.554518 44.51838 
L 91.294019 48.211996 
L 93.033519 55.947164 
L 94.773019 60.617832 
L 96.512519 59.078678 
L 98.25202 60.402063 
L 99.99152 64.510373 
L 101.73102 63.56039 
L 103.470521 67.158115 
L 105.210021 75.255636 
L 106.949521 80.319283 
L 108.689021 79.644832 
L 110.428522 78.408972 
L 112.168022 79.956981 
L 113.907522 83.424378 
L 115.647022 87.708426 
L 117.386523 89.208144 
L 119.126023 89.241107 
L 120.865523 89.692132 
L 122.605023 88.979809 
L 124.344524 87.026053 
L 126.084024 85.98292 
L 127.823524 88.31119 
L 129.563024 93.105737 
L 131.302525 98.922243 
L 133.042025 103.063275 
L 134.781525 104.081433 
L 136.521026 103.091742 
L 138.260526 101.603432 
L 140.000026 102.928077 
L 141.739526 107.256369 
L 145.218527 119.146566 
L 146.958027 122.960212 
L 148.697527 123.368916 
L 150.437028 121.837028 
L 152.176528 119.940243 
L 153.916028 119.383204 
L 155.655528 121.245 
L 157.395029 125.511207 
L 159.134529 131.088881 
L 160.874029 137.391697 
L 162.61353 143.100969 
L 164.35303 147.724947 
L 166.09253 151.13 
L 167.83203 152.982875 
L 169.571531 153.264289 
L 171.311031 152.91824 
L 173.050531 152.439878 
L 174.790031 152.389835 
L 176.529532 153.060822 
L 178.269032 154.549135 
L 180.008532 156.756436 
L 183.487533 161.71492 
L 185.227033 163.959126 
L 186.966533 165.689388 
L 188.706034 167.19957 
L 192.185034 169.697092 
L 195.664035 172.708718 
L 197.403535 174.612352 
L 200.882535 179.012206 
L 204.361536 184.201223 
L 207.840536 189.356841 
L 209.580037 191.561345 
L 211.319537 193.575809 
L 213.059037 195.04302 
L 214.798538 195.944867 
L 216.538038 196.301826 
L 220.017038 196.48617 
L 221.756539 196.48209 
L 223.496039 196.629891 
L 225.235539 197.405105 
L 226.975039 198.386467 
L 228.71454 199.794436 
L 233.93304 204.60268 
L 235.672541 205.948732 
L 237.412041 207.009884 
L 240.891042 208.632182 
L 244.370042 209.803744 
L 246.109542 210.565746 
L 247.849043 211.451445 
L 249.588543 212.480798 
L 258.286044 219.283895 
L 260.025544 220.370152 
L 263.504545 222.046096 
L 266.983545 223.312517 
L 268.723046 223.807008 
L 275.681047 226.693231 
L 282.639048 230.230838 
L 284.378548 230.892577 
L 286.118048 231.40341 
L 289.597049 232.731512 
L 293.076049 234.512435 
L 294.81555 235.566226 
L 296.55505 236.783623 
L 300.034051 238.811131 
L 301.773551 239.616831 
L 306.992052 241.198631 
L 310.471052 241.677252 
L 312.210552 241.874475 
L 315.689553 242.618451 
L 319.168553 243.772004 
L 326.126555 246.431483 
L 327.866055 247.202883 
L 329.605555 247.821772 
L 334.824056 248.694545 
L 338.303056 249.148756 
L 340.042557 249.379817 
L 341.782057 249.793565 
L 345.261057 250.977485 
L 347.000558 251.185069 
L 348.740058 252.083029 
L 350.479558 253.191036 
L 352.219059 253.972174 
L 353.958559 254.54574 
L 355.698059 255.290799 
L 359.17706 257.224958 
L 360.91656 257.787423 
L 362.65606 257.730946 
L 366.135061 256.688134 
L 367.874561 256.527394 
L 369.614061 256.781067 
L 374.832562 258.316631 
L 380.051063 258.822548 
L 381.790563 259.195313 
L 385.269564 260.228887 
L 387.009064 260.585032 
L 393.967065 261.517186 
L 397.446065 262.48641 
L 400.925066 263.038774 
L 406.143567 263.466357 
L 413.101568 265.026106 
L 414.841068 265.229465 
L 418.320069 265.394485 
L 421.799069 265.912624 
L 427.01757 267.087414 
L 432.236071 267.446194 
L 433.975571 267.58312 
L 437.454572 268.201175 
L 440.933572 268.882785 
L 442.673072 269.12383 
L 449.631073 269.623044 
L 456.589074 270.751991 
L 465.286576 271.231505 
L 468.765576 271.852342 
L 472.244577 272.413892 
L 475.723577 272.706134 
L 480.942078 272.90901 
L 484.421079 273.352509 
L 489.63958 274.183626 
L 493.11858 274.471254 
L 498.337081 274.743789 
L 501.816081 275.124386 
L 507.034582 275.847696 
L 510.513583 276.07103 
L 517.471584 276.24421 
L 520.950584 276.581773 
L 522.690085 276.871933 
L 527.908585 277.312033 
L 531.387586 277.47064 
L 536.606087 277.610998 
L 548.782589 278.603694 
L 552.261589 278.620557 
L 555.74059 278.572484 
L 559.21959 278.809608 
L 569.656592 279.821202 
L 580.093593 280.045911 
L 585.312094 280.551986 
L 588.791095 280.978892 
L 595.749096 281.059267 
L 602.707097 281.011661 
L 604.446597 281.087573 
L 616.623099 282.332367 
L 618.362599 282.349121 
L 625.3206 282.001278 
L 627.060101 281.940789 
L 632.278601 282.283004 
L 634.018102 282.606345 
L 637.497102 283.036806 
L 639.236602 283.327831 
L 640.976103 283.364487 
L 642.715603 283.513865 
L 647.934104 283.26572 
L 649.673604 282.966803 
L 656.631605 282.664228 
L 658.371105 282.793483 
L 660.110606 283.090165 
L 667.068607 284.910475 
L 670.547607 285.354545 
L 674.026608 284.767554 
L 675.766108 283.926725 
L 675.766108 283.926725 
" clip-path="url(#p7a3f643120)" style="fill: none; stroke: #104a7e; stroke-opacity: 0.5; stroke-width: 2; stroke-linecap: square"/>
   </g>
   <g id="line2d_18">
    <path d="M 80.857017 39.058998 
L 82.596517 37.040971 
L 84.336018 42.502488 
L 86.075518 51.046911 
L 87.815018 55.749743 
L 91.294019 62.02084 
L 93.033519 69.165946 
L 94.773019 72.836736 
L 96.512519 70.618341 
L 98.25202 72.406074 
L 99.99152 77.560788 
L 101.73102 77.225474 
L 103.470521 80.134626 
L 105.210021 86.9093 
L 106.949521 91.161697 
L 108.689021 90.449049 
L 110.428522 89.419526 
L 112.168022 91.135847 
L 113.907522 94.76781 
L 115.647022 98.989245 
L 117.386523 100.072573 
L 119.126023 99.525977 
L 120.865523 99.888308 
L 122.605023 99.902024 
L 124.344524 98.851845 
L 126.084024 98.147823 
L 127.823524 100.213298 
L 129.563024 104.596299 
L 131.302525 109.96493 
L 133.042025 113.407138 
L 134.781525 113.246114 
L 136.521026 110.667383 
L 138.260526 107.616536 
L 140.000026 107.793805 
L 141.739526 111.555407 
L 145.218527 123.126803 
L 146.958027 126.630655 
L 148.697527 126.614898 
L 152.176528 122.735377 
L 153.916028 122.327507 
L 155.655528 124.426363 
L 157.395029 128.817165 
L 159.134529 134.30209 
L 160.874029 140.305809 
L 162.61353 145.6156 
L 164.35303 149.82347 
L 166.09253 152.813015 
L 167.83203 154.215604 
L 169.571531 153.965414 
L 171.311031 152.99809 
L 173.050531 151.863649 
L 174.790031 151.206473 
L 176.529532 151.384871 
L 178.269032 152.50921 
L 180.008532 154.441665 
L 183.487533 158.847068 
L 185.227033 160.735398 
L 186.966533 162.069825 
L 188.706034 163.202563 
L 192.185034 165.169978 
L 195.664035 167.984153 
L 197.403535 169.835015 
L 200.882535 174.064183 
L 204.361536 179.028496 
L 209.580037 186.231217 
L 211.319537 188.245104 
L 213.059037 189.6954 
L 214.798538 190.544773 
L 216.538038 190.804732 
L 220.017038 190.740892 
L 221.756539 190.624104 
L 223.496039 190.700821 
L 225.235539 191.484815 
L 226.975039 192.526968 
L 228.71454 194.0488 
L 233.93304 199.170245 
L 235.672541 200.511553 
L 237.412041 201.484765 
L 240.891042 202.727629 
L 244.370042 203.366849 
L 246.109542 203.875116 
L 247.849043 204.533893 
L 249.588543 205.37134 
L 251.328043 206.577841 
L 254.807044 209.175428 
L 258.286044 211.654548 
L 260.025544 212.63933 
L 263.504545 214.079074 
L 266.983545 215.107828 
L 268.723046 215.489929 
L 273.941547 217.351347 
L 277.420547 219.068982 
L 280.899548 220.802968 
L 282.639048 221.603944 
L 284.378548 222.172511 
L 286.118048 222.55092 
L 289.597049 223.619556 
L 293.076049 225.203618 
L 294.81555 226.201939 
L 296.55505 227.411011 
L 300.034051 229.42457 
L 301.773551 230.222816 
L 305.252551 231.253705 
L 306.992052 231.748654 
L 310.471052 232.145046 
L 312.210552 232.29937 
L 315.689553 233.018107 
L 319.168553 234.200099 
L 326.126555 236.888818 
L 327.866055 237.67715 
L 329.605555 238.280457 
L 334.824056 238.903677 
L 338.303056 239.182144 
L 340.042557 239.334147 
L 341.782057 239.753169 
L 345.261057 241.072037 
L 347.000558 241.285295 
L 348.740058 242.384378 
L 350.479558 243.701295 
L 352.219059 244.515215 
L 353.958559 244.942151 
L 355.698059 245.49894 
L 360.91656 247.968178 
L 362.65606 247.969195 
L 366.135061 246.845882 
L 367.874561 246.626388 
L 369.614061 246.858337 
L 371.353561 247.400599 
L 373.093062 248.060577 
L 374.832562 248.599916 
L 381.790563 249.43813 
L 385.269564 250.478947 
L 387.009064 250.855245 
L 393.967065 251.791168 
L 399.185566 253.13097 
L 400.925066 253.403253 
L 406.143567 253.879851 
L 413.101568 255.552581 
L 414.841068 255.764343 
L 416.580568 255.76266 
L 418.320069 255.881131 
L 421.799069 256.394997 
L 427.01757 257.717264 
L 430.49657 258.022789 
L 433.975571 258.259944 
L 437.454572 258.876203 
L 439.194072 259.272705 
L 442.673072 259.764335 
L 447.891573 260.065674 
L 449.631073 260.244144 
L 456.589074 261.601286 
L 465.286576 262.068141 
L 467.026076 262.337225 
L 470.505077 263.06335 
L 473.984077 263.586853 
L 482.681578 264.221028 
L 486.160579 264.84823 
L 487.900079 265.200131 
L 491.37908 265.614455 
L 500.076581 266.255778 
L 503.555582 266.806068 
L 507.034582 267.309771 
L 510.513583 267.538379 
L 515.732083 267.697806 
L 517.471584 267.754073 
L 520.950584 268.230934 
L 522.690085 268.646997 
L 526.169085 269.103485 
L 531.387586 269.464309 
L 536.606087 269.573269 
L 548.782589 270.625826 
L 552.261589 270.594454 
L 554.001089 270.442236 
L 557.48009 270.545038 
L 562.698591 271.201758 
L 566.177591 271.78565 
L 571.396092 272.140884 
L 578.354093 272.144111 
L 583.572594 272.639436 
L 585.312094 272.836608 
L 587.051594 273.181436 
L 588.791095 273.399423 
L 590.530595 273.434013 
L 594.009595 273.664543 
L 597.488596 273.517607 
L 604.446597 273.57921 
L 611.404598 274.65196 
L 613.144098 274.943592 
L 614.883599 274.986322 
L 616.623099 275.200313 
L 618.362599 275.229693 
L 623.5811 274.803482 
L 627.060101 274.511029 
L 632.278601 274.829369 
L 634.018102 275.284479 
L 635.757602 275.51649 
L 637.497102 275.885658 
L 639.236602 276.385234 
L 640.976103 276.487432 
L 642.715603 276.840493 
L 647.934104 276.823512 
L 649.673604 276.416877 
L 651.413104 276.287933 
L 654.892105 275.615385 
L 660.110606 275.558201 
L 661.850106 275.87836 
L 663.589606 276.073077 
L 665.329106 276.604559 
L 667.068607 276.937554 
L 668.808107 277.127275 
L 670.547607 277.43993 
L 672.287107 277.126582 
L 674.026608 277.014165 
L 675.766108 276.177196 
L 675.766108 276.177196 
" clip-path="url(#p7a3f643120)" style="fill: none; stroke: #78003f; stroke-opacity: 0.5; stroke-width: 2; stroke-linecap: square"/>
   </g>
   <g id="patch_3">
    <path d="M 51.111563 298.6 
L 51.111563 7.2 
" style="fill: none; stroke: #000000; stroke-width: 0.8; stroke-linejoin: miter; stroke-linecap: square"/>
   </g>
   <g id="patch_4">
    <path d="M 51.111562 298.6 
L 705.511562 298.6 
" style="fill: none; stroke: #000000; stroke-width: 0.8; stroke-linejoin: miter; stroke-linecap: square"/>
   </g>
   <g id="line2d_19">
    <path d="M 80.857017 32.297807 
L 82.596517 34.248088 
L 84.336018 36.478067 
L 86.075518 38.980913 
L 89.554518 44.679207 
L 99.99152 63.105916 
L 103.470521 68.64187 
L 106.949521 73.710349 
L 110.428522 78.168233 
L 112.168022 80.122204 
L 113.907522 81.881402 
L 115.647022 83.452285 
L 119.126023 86.138821 
L 124.344524 89.859009 
L 126.084024 91.271234 
L 127.823524 92.839516 
L 131.302525 96.447271 
L 134.781525 100.544303 
L 140.000026 107.23161 
L 145.218527 114.036517 
L 153.916028 124.973228 
L 155.655528 127.501157 
L 159.134529 133.156595 
L 164.35303 141.995847 
L 166.09253 144.601772 
L 167.83203 146.909776 
L 169.571531 148.910439 
L 171.311031 150.640474 
L 174.790031 153.584121 
L 180.008532 157.853383 
L 183.487533 161.041707 
L 188.706034 166.180259 
L 193.924534 171.534867 
L 197.403535 175.338389 
L 202.622036 181.443826 
L 206.101036 185.497056 
L 209.580037 189.14729 
L 211.319537 190.727263 
L 213.059037 192.118121 
L 214.798538 193.322495 
L 216.538038 194.361208 
L 220.017038 196.096645 
L 225.235539 198.543106 
L 228.71454 200.445493 
L 233.93304 203.680022 
L 239.151541 206.885163 
L 253.067543 215.082219 
L 258.286044 218.301996 
L 261.765045 220.262692 
L 265.244045 222.016753 
L 270.462546 224.375993 
L 284.378548 230.535205 
L 291.336549 233.787814 
L 300.034051 237.891315 
L 303.513051 239.277188 
L 306.992052 240.440795 
L 313.950053 242.383049 
L 320.908054 244.42472 
L 329.605555 247.069427 
L 334.824056 248.399042 
L 341.782057 250.140788 
L 345.261057 251.187394 
L 350.479558 253.00993 
L 355.698059 254.827819 
L 359.17706 255.797329 
L 362.65606 256.487421 
L 367.874561 257.161067 
L 374.832562 258.062554 
L 381.790563 259.269997 
L 399.185566 262.446254 
L 413.101568 264.680976 
L 430.49657 267.212731 
L 446.152073 269.266541 
L 458.328575 270.640637 
L 505.295082 275.44909 
L 515.732083 276.242741 
L 541.824587 278.00758 
L 554.001089 278.638876 
L 564.438091 279.270586 
L 576.614593 279.968314 
L 597.488596 281.031681 
L 606.186097 281.410955 
L 616.623099 281.988796 
L 634.018102 282.608106 
L 640.976103 282.999368 
L 646.194603 283.073562 
L 654.892105 283.12464 
L 660.110606 283.505066 
L 668.808107 284.3727 
L 674.026608 284.614904 
L 675.766108 284.642057 
L 675.766108 284.642057 
" clip-path="url(#p7a3f643120)" style="fill: none; stroke-dasharray: 9.62,4.16; stroke-dashoffset: 0; stroke: #104a7e; stroke-width: 2.6"/>
   </g>
   <g id="line2d_20">
    <path d="M 80.857017 47.885281 
L 82.596517 49.671812 
L 84.336018 51.69489 
L 86.075518 53.948354 
L 89.554518 59.044763 
L 101.73102 78.303955 
L 105.210021 83.215073 
L 108.689021 87.644408 
L 112.168022 91.469702 
L 113.907522 93.134233 
L 117.386523 95.998877 
L 120.865523 98.431096 
L 126.084024 102.019077 
L 129.563024 104.67761 
L 136.521026 110.393013 
L 140.000026 113.495474 
L 145.218527 118.601337 
L 150.437028 124.019682 
L 152.176528 125.991531 
L 153.916028 128.134587 
L 155.655528 130.485082 
L 159.134529 135.746558 
L 162.61353 141.209571 
L 164.35303 143.72335 
L 166.09253 145.955459 
L 167.83203 147.853919 
L 169.571531 149.418643 
L 171.311031 150.697179 
L 174.790031 152.734088 
L 178.269032 154.669508 
L 181.748032 156.937983 
L 185.227033 159.580557 
L 190.445534 163.975491 
L 193.924534 167.164508 
L 197.403535 170.657696 
L 200.882535 174.463355 
L 206.101036 180.32861 
L 209.580037 183.84256 
L 211.319537 185.359238 
L 213.059037 186.688712 
L 214.798538 187.833641 
L 218.277538 189.673661 
L 225.235539 192.831919 
L 228.71454 194.728675 
L 239.151541 200.877776 
L 244.370042 203.419265 
L 249.588543 205.969913 
L 263.504545 213.199486 
L 268.723046 215.375279 
L 282.639048 220.98454 
L 291.336549 224.650309 
L 300.034051 228.500089 
L 303.513051 229.827625 
L 306.992052 230.944612 
L 313.950053 232.819911 
L 319.168553 234.298823 
L 329.605555 237.380986 
L 334.824056 238.603616 
L 340.042557 239.807167 
L 343.521557 240.780247 
L 348.740058 242.568456 
L 355.698059 245.039973 
L 359.17706 245.988464 
L 362.65606 246.655582 
L 367.874561 247.318378 
L 373.093062 247.986228 
L 378.311562 248.852415 
L 411.362068 254.857384 
L 428.75707 257.556611 
L 440.933572 259.239935 
L 460.068075 261.618438 
L 484.421079 264.517051 
L 498.337081 266.108337 
L 510.513583 267.322944 
L 524.429585 268.640376 
L 533.127086 269.383139 
L 547.043088 270.263214 
L 559.21959 270.918133 
L 578.354093 272.315401 
L 597.488596 273.495768 
L 604.446597 273.860257 
L 618.362599 274.758792 
L 630.539101 275.106635 
L 637.497102 275.753878 
L 642.715603 276.167261 
L 646.194603 276.257852 
L 651.413104 276.145344 
L 656.631605 276.021196 
L 661.850106 276.153437 
L 674.026608 276.735616 
L 675.766108 276.75901 
L 675.766108 276.75901 
" clip-path="url(#p7a3f643120)" style="fill: none; stroke-dasharray: 9.62,4.16; stroke-dashoffset: 0; stroke: #78003f; stroke-width: 2.6"/>
   </g>
   <g id="legend_1">
    <g id="line2d_21">
     <path d="M 557.536094 18.988594 
L 566.536094 18.988594 
L 575.536094 18.988594 
" style="fill: none; stroke: #104a7e; stroke-opacity: 0.5; stroke-width: 2; stroke-linecap: square"/>
    </g>
    <g id="text_19">
     <!-- Nedvinarė (be glodinimo) -->
     <g transform="translate(582.736094 22.138594) scale(0.09 -0.09)">
      <defs>
       <path id="DejaVuSans-4e" d="M 628 4666 
L 1478 4666 
L 3547 763 
L 3547 4666 
L 4159 4666 
L 4159 0 
L 3309 0 
L 1241 3903 
L 1241 0 
L 628 0 
L 628 4666 
z
" transform="scale(0.015625)"/>
       <path id="DejaVuSans-65" d="M 3597 1894 
L 3597 1613 
L 953 1613 
Q 991 1019 1311 708 
Q 1631 397 2203 397 
Q 2534 397 2845 478 
Q 3156 559 3463 722 
L 3463 178 
Q 3153 47 2828 -22 
Q 2503 -91 2169 -91 
Q 1331 -91 842 396 
Q 353 884 353 1716 
Q 353 2575 817 3079 
Q 1281 3584 2069 3584 
Q 2775 3584 3186 3129 
Q 3597 2675 3597 1894 
z
M 3022 2063 
Q 3016 2534 2758 2815 
Q 2500 3097 2075 3097 
Q 1594 3097 1305 2825 
Q 1016 2553 972 2059 
L 3022 2063 
z
" transform="scale(0.015625)"/>
       <path id="DejaVuSans-64" d="M 2906 2969 
L 2906 4863 
L 3481 4863 
L 3481 0 
L 2906 0 
L 2906 525 
Q 2725 213 2448 61 
Q 2172 -91 1784 -91 
Q 1150 -91 751 415 
Q 353 922 353 1747 
Q 353 2572 751 3078 
Q 1150 3584 1784 3584 
Q 2172 3584 2448 3432 
Q 2725 3281 2906 2969 
z
M 947 1747 
Q 947 1113 1208 752 
Q 1469 391 1925 391 
Q 2381 391 2643 752 
Q 2906 1113 2906 1747 
Q 2906 2381 2643 2742 
Q 2381 3103 1925 3103 
Q 1469 3103 1208 2742 
Q 947 2381 947 1747 
z
" transform="scale(0.015625)"/>
       <path id="DejaVuSans-76" d="M 191 3500 
L 800 3500 
L 1894 563 
L 2988 3500 
L 3597 3500 
L 2284 0 
L 1503 0 
L 191 3500 
z
" transform="scale(0.015625)"/>
       <path id="DejaVuSans-117" d="M 1778 4863 
L 2353 4863 
L 2353 4134 
L 1778 4134 
L 1778 4863 
z
M 2072 3584 
L 2072 3584 
z
M 3597 1894 
L 3597 1613 
L 953 1613 
Q 991 1019 1311 708 
Q 1631 397 2203 397 
Q 2534 397 2845 478 
Q 3156 559 3463 722 
L 3463 178 
Q 3153 47 2828 -22 
Q 2503 -91 2169 -91 
Q 1331 -91 842 396 
Q 353 884 353 1716 
Q 353 2575 817 3079 
Q 1281 3584 2069 3584 
Q 2775 3584 3186 3129 
Q 3597 2675 3597 1894 
z
M 3022 2063 
Q 3016 2534 2758 2815 
Q 2500 3097 2075 3097 
Q 1594 3097 1305 2825 
Q 1016 2553 972 2059 
L 3022 2063 
z
" transform="scale(0.015625)"/>
       <path id="DejaVuSans-28" d="M 1984 4856 
Q 1566 4138 1362 3434 
Q 1159 2731 1159 2009 
Q 1159 1288 1364 580 
Q 1569 -128 1984 -844 
L 1484 -844 
Q 1016 -109 783 600 
Q 550 1309 550 2009 
Q 550 2706 781 3412 
Q 1013 4119 1484 4856 
L 1984 4856 
z
" transform="scale(0.015625)"/>
       <path id="DejaVuSans-62" d="M 3116 1747 
Q 3116 2381 2855 2742 
Q 2594 3103 2138 3103 
Q 1681 3103 1420 2742 
Q 1159 2381 1159 1747 
Q 1159 1113 1420 752 
Q 1681 391 2138 391 
Q 2594 391 2855 752 
Q 3116 1113 3116 1747 
z
M 1159 2969 
Q 1341 3281 1617 3432 
Q 1894 3584 2278 3584 
Q 2916 3584 3314 3078 
Q 3713 2572 3713 1747 
Q 3713 922 3314 415 
Q 2916 -91 2278 -91 
Q 1894 -91 1617 61 
Q 1341 213 1159 525 
L 1159 0 
L 581 0 
L 581 4863 
L 1159 4863 
L 1159 2969 
z
" transform="scale(0.015625)"/>
       <path id="DejaVuSans-29" d="M 513 4856 
L 1013 4856 
Q 1481 4119 1714 3412 
Q 1947 2706 1947 2009 
Q 1947 1309 1714 600 
Q 1481 -109 1013 -844 
L 513 -844 
Q 928 -128 1133 580 
Q 1338 1288 1338 2009 
Q 1338 2731 1133 3434 
Q 928 4138 513 4856 
z
" transform="scale(0.015625)"/>
      </defs>
      <use xlink:href="#DejaVuSans-4e"/>
      <use xlink:href="#DejaVuSans-65" x="74.804688"/>
      <use xlink:href="#DejaVuSans-64" x="136.328125"/>
      <use xlink:href="#DejaVuSans-76" x="199.804688"/>
      <use xlink:href="#DejaVuSans-69" x="258.984375"/>
      <use xlink:href="#DejaVuSans-6e" x="286.767578"/>
      <use xlink:href="#DejaVuSans-61" x="350.146484"/>
      <use xlink:href="#DejaVuSans-72" x="411.425781"/>
      <use xlink:href="#DejaVuSans-117" x="452.539062"/>
      <use xlink:href="#DejaVuSans-20" x="514.0625"/>
      <use xlink:href="#DejaVuSans-28" x="545.849609"/>
      <use xlink:href="#DejaVuSans-62" x="584.863281"/>
      <use xlink:href="#DejaVuSans-65" x="648.339844"/>
      <use xlink:href="#DejaVuSans-20" x="709.863281"/>
      <use xlink:href="#DejaVuSans-67" x="741.650391"/>
      <use xlink:href="#DejaVuSans-6c" x="805.126953"/>
      <use xlink:href="#DejaVuSans-6f" x="832.910156"/>
      <use xlink:href="#DejaVuSans-64" x="894.091797"/>
      <use xlink:href="#DejaVuSans-69" x="957.568359"/>
      <use xlink:href="#DejaVuSans-6e" x="985.351562"/>
      <use xlink:href="#DejaVuSans-69" x="1048.730469"/>
      <use xlink:href="#DejaVuSans-6d" x="1076.513672"/>
      <use xlink:href="#DejaVuSans-6f" x="1173.925781"/>
      <use xlink:href="#DejaVuSans-29" x="1235.107422"/>
     </g>
    </g>
    <g id="line2d_22">
     <path d="M 557.536094 32.198906 
L 566.536094 32.198906 
L 575.536094 32.198906 
" style="fill: none; stroke: #78003f; stroke-opacity: 0.5; stroke-width: 2; stroke-linecap: square"/>
    </g>
    <g id="text_20">
     <!-- Dvinarė (be glodinimo) -->
     <g transform="translate(582.736094 35.348906) scale(0.09 -0.09)">
      <defs>
       <path id="DejaVuSans-44" d="M 1259 4147 
L 1259 519 
L 2022 519 
Q 2988 519 3436 956 
Q 3884 1394 3884 2338 
Q 3884 3275 3436 3711 
Q 2988 4147 2022 4147 
L 1259 4147 
z
M 628 4666 
L 1925 4666 
Q 3281 4666 3915 4102 
Q 4550 3538 4550 2338 
Q 4550 1131 3912 565 
Q 3275 0 1925 0 
L 628 0 
L 628 4666 
z
" transform="scale(0.015625)"/>
      </defs>
      <use xlink:href="#DejaVuSans-44"/>
      <use xlink:href="#DejaVuSans-76" x="77.001953"/>
      <use xlink:href="#DejaVuSans-69" x="136.181641"/>
      <use xlink:href="#DejaVuSans-6e" x="163.964844"/>
      <use xlink:href="#DejaVuSans-61" x="227.34375"/>
      <use xlink:href="#DejaVuSans-72" x="288.623047"/>
      <use xlink:href="#DejaVuSans-117" x="329.736328"/>
      <use xlink:href="#DejaVuSans-20" x="391.259766"/>
      <use xlink:href="#DejaVuSans-28" x="423.046875"/>
      <use xlink:href="#DejaVuSans-62" x="462.060547"/>
      <use xlink:href="#DejaVuSans-65" x="525.537109"/>
      <use xlink:href="#DejaVuSans-20" x="587.060547"/>
      <use xlink:href="#DejaVuSans-67" x="618.847656"/>
      <use xlink:href="#DejaVuSans-6c" x="682.324219"/>
      <use xlink:href="#DejaVuSans-6f" x="710.107422"/>
      <use xlink:href="#DejaVuSans-64" x="771.289062"/>
      <use xlink:href="#DejaVuSans-69" x="834.765625"/>
      <use xlink:href="#DejaVuSans-6e" x="862.548828"/>
      <use xlink:href="#DejaVuSans-69" x="925.927734"/>
      <use xlink:href="#DejaVuSans-6d" x="953.710938"/>
      <use xlink:href="#DejaVuSans-6f" x="1051.123047"/>
      <use xlink:href="#DejaVuSans-29" x="1112.304688"/>
     </g>
    </g>
    <g id="line2d_23">
     <path d="M 557.536094 45.409219 
L 566.536094 45.409219 
L 575.536094 45.409219 
" style="fill: none; stroke-dasharray: 9.62,4.16; stroke-dashoffset: 0; stroke: #104a7e; stroke-width: 2.6"/>
    </g>
    <g id="text_21">
     <!-- Nedvinarė (σ=8) -->
     <g transform="translate(582.736094 48.559219) scale(0.09 -0.09)">
      <defs>
       <path id="DejaVuSans-3c3" d="M 1959 3044 
Q 1484 3044 1228 2700 
Q 959 2341 959 1747 
Q 959 1119 1226 758 
Q 1494 397 1959 397 
Q 2419 397 2687 759 
Q 2956 1122 2956 1747 
Q 2956 2319 2688 2700 
Q 2441 3044 1959 3044 
z
M 1959 3500 
L 3869 3500 
L 3869 2925 
L 3225 2925 
Q 3566 2438 3566 1747 
Q 3566 888 3138 400 
Q 2709 -91 1959 -91 
Q 1206 -91 781 400 
Q 353 888 353 1747 
Q 353 2613 781 3097 
Q 1134 3500 1959 3500 
z
" transform="scale(0.015625)"/>
       <path id="DejaVuSans-3d" d="M 678 2906 
L 4684 2906 
L 4684 2381 
L 678 2381 
L 678 2906 
z
M 678 1631 
L 4684 1631 
L 4684 1100 
L 678 1100 
L 678 1631 
z
" transform="scale(0.015625)"/>
      </defs>
      <use xlink:href="#DejaVuSans-4e"/>
      <use xlink:href="#DejaVuSans-65" x="74.804688"/>
      <use xlink:href="#DejaVuSans-64" x="136.328125"/>
      <use xlink:href="#DejaVuSans-76" x="199.804688"/>
      <use xlink:href="#DejaVuSans-69" x="258.984375"/>
      <use xlink:href="#DejaVuSans-6e" x="286.767578"/>
      <use xlink:href="#DejaVuSans-61" x="350.146484"/>
      <use xlink:href="#DejaVuSans-72" x="411.425781"/>
      <use xlink:href="#DejaVuSans-117" x="452.539062"/>
      <use xlink:href="#DejaVuSans-20" x="514.0625"/>
      <use xlink:href="#DejaVuSans-28" x="545.849609"/>
      <use xlink:href="#DejaVuSans-3c3" x="584.863281"/>
      <use xlink:href="#DejaVuSans-3d" x="648.242188"/>
      <use xlink:href="#DejaVuSans-38" x="732.03125"/>
      <use xlink:href="#DejaVuSans-29" x="795.654297"/>
     </g>
    </g>
    <g id="line2d_24">
     <path d="M 557.536094 58.619531 
L 566.536094 58.619531 
L 575.536094 58.619531 
" style="fill: none; stroke-dasharray: 9.62,4.16; stroke-dashoffset: 0; stroke: #78003f; stroke-width: 2.6"/>
    </g>
    <g id="text_22">
     <!-- Dvinarė (σ=8) -->
     <g transform="translate(582.736094 61.769531) scale(0.09 -0.09)">
      <use xlink:href="#DejaVuSans-44"/>
      <use xlink:href="#DejaVuSans-76" x="77.001953"/>
      <use xlink:href="#DejaVuSans-69" x="136.181641"/>
      <use xlink:href="#DejaVuSans-6e" x="163.964844"/>
      <use xlink:href="#DejaVuSans-61" x="227.34375"/>
      <use xlink:href="#DejaVuSans-72" x="288.623047"/>
      <use xlink:href="#DejaVuSans-117" x="329.736328"/>
      <use xlink:href="#DejaVuSans-20" x="391.259766"/>
      <use xlink:href="#DejaVuSans-28" x="423.046875"/>
      <use xlink:href="#DejaVuSans-3c3" x="462.060547"/>
      <use xlink:href="#DejaVuSans-3d" x="525.439453"/>
      <use xlink:href="#DejaVuSans-38" x="609.228516"/>
      <use xlink:href="#DejaVuSans-29" x="672.851562"/>
     </g>
    </g>
   </g>
  </g>
 </g>
 <defs>
  <clipPath id="p7a3f643120">
   <rect x="51.111563" y="7.2" width="654.4" height="291.4"/>
  </clipPath>
 </defs>
</svg>
