<?xml version="1.0" encoding="utf-8" standalone="no"?>
<!DOCTYPE svg PUBLIC "-//W3C//DTD SVG 1.1//EN"
  "http://www.w3.org/Graphics/SVG/1.1/DTD/svg11.dtd">
<svg xmlns:xlink="http://www.w3.org/1999/xlink" width="709.429062pt" height="334.491875pt" viewBox="0 0 709.429062 334.491875" xmlns="http://www.w3.org/2000/svg" version="1.1">
 <metadata>
  <rdf:RDF xmlns:dc="http://purl.org/dc/elements/1.1/" xmlns:cc="http://creativecommons.org/ns#" xmlns:rdf="http://www.w3.org/1999/02/22-rdf-syntax-ns#">
   <cc:Work>
    <dc:type rdf:resource="http://purl.org/dc/dcmitype/StillImage"/>
    <dc:date>2026-04-26T17:46:28.015861</dc:date>
    <dc:format>image/svg+xml</dc:format>
    <dc:creator>
     <cc:Agent>
      <dc:title>Matplotlib v3.8.0, https://matplotlib.org/</dc:title>
     </cc:Agent>
    </dc:creator>
   </cc:Work>
  </rdf:RDF>
 </metadata>
 <defs>
  <style type="text/css">*{stroke-linejoin: round; stroke-linecap: butt}</style>
 </defs>
 <g id="figure_1">
  <g id="patch_1">
   <path d="M 0 334.491875 
L 709.429062 334.491875 
L 709.429062 0 
L 0 0 
z
" style="fill: #ffffff"/>
  </g>
  <g id="axes_1">
   <g id="patch_2">
    <path d="M 60.459063 295 
L 702.229063 295 
L 702.229063 7.2 
L 60.459063 7.2 
z
" style="fill: #ffffff"/>
   </g>
   <g id="matplotlib.axis_1">
    <g id="xtick_1">
     <g id="line2d_1">
      <defs>
       <path id="mf11a5297c3" d="M 0 0 
L 0 3.5 
" style="stroke: #222222; stroke-width: 0.8"/>
      </defs>
      <g>
       <use xlink:href="#mf11a5297c3" x="144.220112" y="295" style="fill: #222222; stroke: #222222; stroke-width: 0.8"/>
      </g>
     </g>
     <g id="text_1">
      <!-- 400 -->
      <g style="fill: #222222" transform="translate(134.676362 309.598437) scale(0.1 -0.1)">
       <defs>
        <path id="DejaVuSans-34" d="M 2419 4116 
L 825 1625 
L 2419 1625 
L 2419 4116 
z
M 2253 4666 
L 3047 4666 
L 3047 1625 
L 3713 1625 
L 3713 1100 
L 3047 1100 
L 3047 0 
L 2419 0 
L 2419 1100 
L 313 1100 
L 313 1709 
L 2253 4666 
z
" transform="scale(0.015625)"/>
        <path id="DejaVuSans-30" d="M 2034 4250 
Q 1547 4250 1301 3770 
Q 1056 3291 1056 2328 
Q 1056 1369 1301 889 
Q 1547 409 2034 409 
Q 2525 409 2770 889 
Q 3016 1369 3016 2328 
Q 3016 3291 2770 3770 
Q 2525 4250 2034 4250 
z
M 2034 4750 
Q 2819 4750 3233 4129 
Q 3647 3509 3647 2328 
Q 3647 1150 3233 529 
Q 2819 -91 2034 -91 
Q 1250 -91 836 529 
Q 422 1150 422 2328 
Q 422 3509 836 4129 
Q 1250 4750 2034 4750 
z
" transform="scale(0.015625)"/>
       </defs>
       <use xlink:href="#DejaVuSans-34"/>
       <use xlink:href="#DejaVuSans-30" x="63.623047"/>
       <use xlink:href="#DejaVuSans-30" x="127.246094"/>
      </g>
     </g>
    </g>
    <g id="xtick_2">
     <g id="line2d_2">
      <g>
       <use xlink:href="#mf11a5297c3" x="229.516497" y="295" style="fill: #222222; stroke: #222222; stroke-width: 0.8"/>
      </g>
     </g>
     <g id="text_2">
      <!-- 500 -->
      <g style="fill: #222222" transform="translate(219.972747 309.598437) scale(0.1 -0.1)">
       <defs>
        <path id="DejaVuSans-35" d="M 691 4666 
L 3169 4666 
L 3169 4134 
L 1269 4134 
L 1269 2991 
Q 1406 3038 1543 3061 
Q 1681 3084 1819 3084 
Q 2600 3084 3056 2656 
Q 3513 2228 3513 1497 
Q 3513 744 3044 326 
Q 2575 -91 1722 -91 
Q 1428 -91 1123 -41 
Q 819 9 494 109 
L 494 744 
Q 775 591 1075 516 
Q 1375 441 1709 441 
Q 2250 441 2565 725 
Q 2881 1009 2881 1497 
Q 2881 1984 2565 2268 
Q 2250 2553 1709 2553 
Q 1456 2553 1204 2497 
Q 953 2441 691 2322 
L 691 4666 
z
" transform="scale(0.015625)"/>
       </defs>
       <use xlink:href="#DejaVuSans-35"/>
       <use xlink:href="#DejaVuSans-30" x="63.623047"/>
       <use xlink:href="#DejaVuSans-30" x="127.246094"/>
      </g>
     </g>
    </g>
    <g id="xtick_3">
     <g id="line2d_3">
      <g>
       <use xlink:href="#mf11a5297c3" x="314.812882" y="295" style="fill: #222222; stroke: #222222; stroke-width: 0.8"/>
      </g>
     </g>
     <g id="text_3">
      <!-- 600 -->
      <g style="fill: #222222" transform="translate(305.269132 309.598437) scale(0.1 -0.1)">
       <defs>
        <path id="DejaVuSans-36" d="M 2113 2584 
Q 1688 2584 1439 2293 
Q 1191 2003 1191 1497 
Q 1191 994 1439 701 
Q 1688 409 2113 409 
Q 2538 409 2786 701 
Q 3034 994 3034 1497 
Q 3034 2003 2786 2293 
Q 2538 2584 2113 2584 
z
M 3366 4563 
L 3366 3988 
Q 3128 4100 2886 4159 
Q 2644 4219 2406 4219 
Q 1781 4219 1451 3797 
Q 1122 3375 1075 2522 
Q 1259 2794 1537 2939 
Q 1816 3084 2150 3084 
Q 2853 3084 3261 2657 
Q 3669 2231 3669 1497 
Q 3669 778 3244 343 
Q 2819 -91 2113 -91 
Q 1303 -91 875 529 
Q 447 1150 447 2328 
Q 447 3434 972 4092 
Q 1497 4750 2381 4750 
Q 2619 4750 2861 4703 
Q 3103 4656 3366 4563 
z
" transform="scale(0.015625)"/>
       </defs>
       <use xlink:href="#DejaVuSans-36"/>
       <use xlink:href="#DejaVuSans-30" x="63.623047"/>
       <use xlink:href="#DejaVuSans-30" x="127.246094"/>
      </g>
     </g>
    </g>
    <g id="xtick_4">
     <g id="line2d_4">
      <g>
       <use xlink:href="#mf11a5297c3" x="400.109267" y="295" style="fill: #222222; stroke: #222222; stroke-width: 0.8"/>
      </g>
     </g>
     <g id="text_4">
      <!-- 700 -->
      <g style="fill: #222222" transform="translate(390.565517 309.598437) scale(0.1 -0.1)">
       <defs>
        <path id="DejaVuSans-37" d="M 525 4666 
L 3525 4666 
L 3525 4397 
L 1831 0 
L 1172 0 
L 2766 4134 
L 525 4134 
L 525 4666 
z
" transform="scale(0.015625)"/>
       </defs>
       <use xlink:href="#DejaVuSans-37"/>
       <use xlink:href="#DejaVuSans-30" x="63.623047"/>
       <use xlink:href="#DejaVuSans-30" x="127.246094"/>
      </g>
     </g>
    </g>
    <g id="xtick_5">
     <g id="line2d_5">
      <g>
       <use xlink:href="#mf11a5297c3" x="485.405652" y="295" style="fill: #222222; stroke: #222222; stroke-width: 0.8"/>
      </g>
     </g>
     <g id="text_5">
      <!-- 800 -->
      <g style="fill: #222222" transform="translate(475.861902 309.598437) scale(0.1 -0.1)">
       <defs>
        <path id="DejaVuSans-38" d="M 2034 2216 
Q 1584 2216 1326 1975 
Q 1069 1734 1069 1313 
Q 1069 891 1326 650 
Q 1584 409 2034 409 
Q 2484 409 2743 651 
Q 3003 894 3003 1313 
Q 3003 1734 2745 1975 
Q 2488 2216 2034 2216 
z
M 1403 2484 
Q 997 2584 770 2862 
Q 544 3141 544 3541 
Q 544 4100 942 4425 
Q 1341 4750 2034 4750 
Q 2731 4750 3128 4425 
Q 3525 4100 3525 3541 
Q 3525 3141 3298 2862 
Q 3072 2584 2669 2484 
Q 3125 2378 3379 2068 
Q 3634 1759 3634 1313 
Q 3634 634 3220 271 
Q 2806 -91 2034 -91 
Q 1263 -91 848 271 
Q 434 634 434 1313 
Q 434 1759 690 2068 
Q 947 2378 1403 2484 
z
M 1172 3481 
Q 1172 3119 1398 2916 
Q 1625 2713 2034 2713 
Q 2441 2713 2670 2916 
Q 2900 3119 2900 3481 
Q 2900 3844 2670 4047 
Q 2441 4250 2034 4250 
Q 1625 4250 1398 4047 
Q 1172 3844 1172 3481 
z
" transform="scale(0.015625)"/>
       </defs>
       <use xlink:href="#DejaVuSans-38"/>
       <use xlink:href="#DejaVuSans-30" x="63.623047"/>
       <use xlink:href="#DejaVuSans-30" x="127.246094"/>
      </g>
     </g>
    </g>
    <g id="xtick_6">
     <g id="line2d_6">
      <g>
       <use xlink:href="#mf11a5297c3" x="570.702037" y="295" style="fill: #222222; stroke: #222222; stroke-width: 0.8"/>
      </g>
     </g>
     <g id="text_6">
      <!-- 900 -->
      <g style="fill: #222222" transform="translate(561.158287 309.598437) scale(0.1 -0.1)">
       <defs>
        <path id="DejaVuSans-39" d="M 703 97 
L 703 672 
Q 941 559 1184 500 
Q 1428 441 1663 441 
Q 2288 441 2617 861 
Q 2947 1281 2994 2138 
Q 2813 1869 2534 1725 
Q 2256 1581 1919 1581 
Q 1219 1581 811 2004 
Q 403 2428 403 3163 
Q 403 3881 828 4315 
Q 1253 4750 1959 4750 
Q 2769 4750 3195 4129 
Q 3622 3509 3622 2328 
Q 3622 1225 3098 567 
Q 2575 -91 1691 -91 
Q 1453 -91 1209 -44 
Q 966 3 703 97 
z
M 1959 2075 
Q 2384 2075 2632 2365 
Q 2881 2656 2881 3163 
Q 2881 3666 2632 3958 
Q 2384 4250 1959 4250 
Q 1534 4250 1286 3958 
Q 1038 3666 1038 3163 
Q 1038 2656 1286 2365 
Q 1534 2075 1959 2075 
z
" transform="scale(0.015625)"/>
       </defs>
       <use xlink:href="#DejaVuSans-39"/>
       <use xlink:href="#DejaVuSans-30" x="63.623047"/>
       <use xlink:href="#DejaVuSans-30" x="127.246094"/>
      </g>
     </g>
    </g>
    <g id="xtick_7">
     <g id="line2d_7">
      <g>
       <use xlink:href="#mf11a5297c3" x="655.998422" y="295" style="fill: #222222; stroke: #222222; stroke-width: 0.8"/>
      </g>
     </g>
     <g id="text_7">
      <!-- 1000 -->
      <g style="fill: #222222" transform="translate(643.273422 309.598437) scale(0.1 -0.1)">
       <defs>
        <path id="DejaVuSans-31" d="M 794 531 
L 1825 531 
L 1825 4091 
L 703 3866 
L 703 4441 
L 1819 4666 
L 2450 4666 
L 2450 531 
L 3481 531 
L 3481 0 
L 794 0 
L 794 531 
z
" transform="scale(0.015625)"/>
       </defs>
       <use xlink:href="#DejaVuSans-31"/>
       <use xlink:href="#DejaVuSans-30" x="63.623047"/>
       <use xlink:href="#DejaVuSans-30" x="127.246094"/>
       <use xlink:href="#DejaVuSans-30" x="190.869141"/>
      </g>
     </g>
    </g>
    <g id="text_8">
     <!-- Bangos ilgis, nm -->
     <g style="fill: #222222" transform="translate(331.839375 324.79625) scale(0.12 -0.12)">
      <defs>
       <path id="DejaVuSans-42" d="M 1259 2228 
L 1259 519 
L 2272 519 
Q 2781 519 3026 730 
Q 3272 941 3272 1375 
Q 3272 1813 3026 2020 
Q 2781 2228 2272 2228 
L 1259 2228 
z
M 1259 4147 
L 1259 2741 
L 2194 2741 
Q 2656 2741 2882 2914 
Q 3109 3088 3109 3444 
Q 3109 3797 2882 3972 
Q 2656 4147 2194 4147 
L 1259 4147 
z
M 628 4666 
L 2241 4666 
Q 2963 4666 3353 4366 
Q 3744 4066 3744 3513 
Q 3744 3084 3544 2831 
Q 3344 2578 2956 2516 
Q 3422 2416 3680 2098 
Q 3938 1781 3938 1306 
Q 3938 681 3513 340 
Q 3088 0 2303 0 
L 628 0 
L 628 4666 
z
" transform="scale(0.015625)"/>
       <path id="DejaVuSans-61" d="M 2194 1759 
Q 1497 1759 1228 1600 
Q 959 1441 959 1056 
Q 959 750 1161 570 
Q 1363 391 1709 391 
Q 2188 391 2477 730 
Q 2766 1069 2766 1631 
L 2766 1759 
L 2194 1759 
z
M 3341 1997 
L 3341 0 
L 2766 0 
L 2766 531 
Q 2569 213 2275 61 
Q 1981 -91 1556 -91 
Q 1019 -91 701 211 
Q 384 513 384 1019 
Q 384 1609 779 1909 
Q 1175 2209 1959 2209 
L 2766 2209 
L 2766 2266 
Q 2766 2663 2505 2880 
Q 2244 3097 1772 3097 
Q 1472 3097 1187 3025 
Q 903 2953 641 2809 
L 641 3341 
Q 956 3463 1253 3523 
Q 1550 3584 1831 3584 
Q 2591 3584 2966 3190 
Q 3341 2797 3341 1997 
z
" transform="scale(0.015625)"/>
       <path id="DejaVuSans-6e" d="M 3513 2113 
L 3513 0 
L 2938 0 
L 2938 2094 
Q 2938 2591 2744 2837 
Q 2550 3084 2163 3084 
Q 1697 3084 1428 2787 
Q 1159 2491 1159 1978 
L 1159 0 
L 581 0 
L 581 3500 
L 1159 3500 
L 1159 2956 
Q 1366 3272 1645 3428 
Q 1925 3584 2291 3584 
Q 2894 3584 3203 3211 
Q 3513 2838 3513 2113 
z
" transform="scale(0.015625)"/>
       <path id="DejaVuSans-67" d="M 2906 1791 
Q 2906 2416 2648 2759 
Q 2391 3103 1925 3103 
Q 1463 3103 1205 2759 
Q 947 2416 947 1791 
Q 947 1169 1205 825 
Q 1463 481 1925 481 
Q 2391 481 2648 825 
Q 2906 1169 2906 1791 
z
M 3481 434 
Q 3481 -459 3084 -895 
Q 2688 -1331 1869 -1331 
Q 1566 -1331 1297 -1286 
Q 1028 -1241 775 -1147 
L 775 -588 
Q 1028 -725 1275 -790 
Q 1522 -856 1778 -856 
Q 2344 -856 2625 -561 
Q 2906 -266 2906 331 
L 2906 616 
Q 2728 306 2450 153 
Q 2172 0 1784 0 
Q 1141 0 747 490 
Q 353 981 353 1791 
Q 353 2603 747 3093 
Q 1141 3584 1784 3584 
Q 2172 3584 2450 3431 
Q 2728 3278 2906 2969 
L 2906 3500 
L 3481 3500 
L 3481 434 
z
" transform="scale(0.015625)"/>
       <path id="DejaVuSans-6f" d="M 1959 3097 
Q 1497 3097 1228 2736 
Q 959 2375 959 1747 
Q 959 1119 1226 758 
Q 1494 397 1959 397 
Q 2419 397 2687 759 
Q 2956 1122 2956 1747 
Q 2956 2369 2687 2733 
Q 2419 3097 1959 3097 
z
M 1959 3584 
Q 2709 3584 3137 3096 
Q 3566 2609 3566 1747 
Q 3566 888 3137 398 
Q 2709 -91 1959 -91 
Q 1206 -91 779 398 
Q 353 888 353 1747 
Q 353 2609 779 3096 
Q 1206 3584 1959 3584 
z
" transform="scale(0.015625)"/>
       <path id="DejaVuSans-73" d="M 2834 3397 
L 2834 2853 
Q 2591 2978 2328 3040 
Q 2066 3103 1784 3103 
Q 1356 3103 1142 2972 
Q 928 2841 928 2578 
Q 928 2378 1081 2264 
Q 1234 2150 1697 2047 
L 1894 2003 
Q 2506 1872 2764 1633 
Q 3022 1394 3022 966 
Q 3022 478 2636 193 
Q 2250 -91 1575 -91 
Q 1294 -91 989 -36 
Q 684 19 347 128 
L 347 722 
Q 666 556 975 473 
Q 1284 391 1588 391 
Q 1994 391 2212 530 
Q 2431 669 2431 922 
Q 2431 1156 2273 1281 
Q 2116 1406 1581 1522 
L 1381 1569 
Q 847 1681 609 1914 
Q 372 2147 372 2553 
Q 372 3047 722 3315 
Q 1072 3584 1716 3584 
Q 2034 3584 2315 3537 
Q 2597 3491 2834 3397 
z
" transform="scale(0.015625)"/>
       <path id="DejaVuSans-20" transform="scale(0.015625)"/>
       <path id="DejaVuSans-69" d="M 603 3500 
L 1178 3500 
L 1178 0 
L 603 0 
L 603 3500 
z
M 603 4863 
L 1178 4863 
L 1178 4134 
L 603 4134 
L 603 4863 
z
" transform="scale(0.015625)"/>
       <path id="DejaVuSans-6c" d="M 603 4863 
L 1178 4863 
L 1178 0 
L 603 0 
L 603 4863 
z
" transform="scale(0.015625)"/>
       <path id="DejaVuSans-2c" d="M 750 794 
L 1409 794 
L 1409 256 
L 897 -744 
L 494 -744 
L 750 256 
L 750 794 
z
" transform="scale(0.015625)"/>
       <path id="DejaVuSans-6d" d="M 3328 2828 
Q 3544 3216 3844 3400 
Q 4144 3584 4550 3584 
Q 5097 3584 5394 3201 
Q 5691 2819 5691 2113 
L 5691 0 
L 5113 0 
L 5113 2094 
Q 5113 2597 4934 2840 
Q 4756 3084 4391 3084 
Q 3944 3084 3684 2787 
Q 3425 2491 3425 1978 
L 3425 0 
L 2847 0 
L 2847 2094 
Q 2847 2600 2669 2842 
Q 2491 3084 2119 3084 
Q 1678 3084 1418 2786 
Q 1159 2488 1159 1978 
L 1159 0 
L 581 0 
L 581 3500 
L 1159 3500 
L 1159 2956 
Q 1356 3278 1631 3431 
Q 1906 3584 2284 3584 
Q 2666 3584 2933 3390 
Q 3200 3197 3328 2828 
z
" transform="scale(0.015625)"/>
      </defs>
      <use xlink:href="#DejaVuSans-42"/>
      <use xlink:href="#DejaVuSans-61" x="68.603516"/>
      <use xlink:href="#DejaVuSans-6e" x="129.882812"/>
      <use xlink:href="#DejaVuSans-67" x="193.261719"/>
      <use xlink:href="#DejaVuSans-6f" x="256.738281"/>
      <use xlink:href="#DejaVuSans-73" x="317.919922"/>
      <use xlink:href="#DejaVuSans-20" x="370.019531"/>
      <use xlink:href="#DejaVuSans-69" x="401.806641"/>
      <use xlink:href="#DejaVuSans-6c" x="429.589844"/>
      <use xlink:href="#DejaVuSans-67" x="457.373047"/>
      <use xlink:href="#DejaVuSans-69" x="520.849609"/>
      <use xlink:href="#DejaVuSans-73" x="548.632812"/>
      <use xlink:href="#DejaVuSans-2c" x="600.732422"/>
      <use xlink:href="#DejaVuSans-20" x="632.519531"/>
      <use xlink:href="#DejaVuSans-6e" x="664.306641"/>
      <use xlink:href="#DejaVuSans-6d" x="727.685547"/>
     </g>
    </g>
   </g>
   <g id="matplotlib.axis_2">
    <g id="ytick_1">
     <g id="line2d_8">
      <defs>
       <path id="m1453765fbb" d="M 0 0 
L -3.5 0 
" style="stroke: #222222; stroke-width: 0.8"/>
      </defs>
      <g>
       <use xlink:href="#m1453765fbb" x="60.459063" y="287.885045" style="fill: #222222; stroke: #222222; stroke-width: 0.8"/>
      </g>
     </g>
     <g id="text_9">
      <!-- −0.10 -->
      <g style="fill: #222222" transform="translate(22.81375 291.684264) scale(0.1 -0.1)">
       <defs>
        <path id="DejaVuSans-2212" d="M 678 2272 
L 4684 2272 
L 4684 1741 
L 678 1741 
L 678 2272 
z
" transform="scale(0.015625)"/>
        <path id="DejaVuSans-2e" d="M 684 794 
L 1344 794 
L 1344 0 
L 684 0 
L 684 794 
z
" transform="scale(0.015625)"/>
       </defs>
       <use xlink:href="#DejaVuSans-2212"/>
       <use xlink:href="#DejaVuSans-30" x="83.789062"/>
       <use xlink:href="#DejaVuSans-2e" x="147.412109"/>
       <use xlink:href="#DejaVuSans-31" x="179.199219"/>
       <use xlink:href="#DejaVuSans-30" x="242.822266"/>
      </g>
     </g>
    </g>
    <g id="ytick_2">
     <g id="line2d_9">
      <g>
       <use xlink:href="#m1453765fbb" x="60.459063" y="238.394296" style="fill: #222222; stroke: #222222; stroke-width: 0.8"/>
      </g>
     </g>
     <g id="text_10">
      <!-- −0.05 -->
      <g style="fill: #222222" transform="translate(22.81375 242.193515) scale(0.1 -0.1)">
       <use xlink:href="#DejaVuSans-2212"/>
       <use xlink:href="#DejaVuSans-30" x="83.789062"/>
       <use xlink:href="#DejaVuSans-2e" x="147.412109"/>
       <use xlink:href="#DejaVuSans-30" x="179.199219"/>
       <use xlink:href="#DejaVuSans-35" x="242.822266"/>
      </g>
     </g>
    </g>
    <g id="ytick_3">
     <g id="line2d_10">
      <g>
       <use xlink:href="#m1453765fbb" x="60.459063" y="188.903547" style="fill: #222222; stroke: #222222; stroke-width: 0.8"/>
      </g>
     </g>
     <g id="text_11">
      <!-- 0.00 -->
      <g style="fill: #222222" transform="translate(31.193438 192.702765) scale(0.1 -0.1)">
       <use xlink:href="#DejaVuSans-30"/>
       <use xlink:href="#DejaVuSans-2e" x="63.623047"/>
       <use xlink:href="#DejaVuSans-30" x="95.410156"/>
       <use xlink:href="#DejaVuSans-30" x="159.033203"/>
      </g>
     </g>
    </g>
    <g id="ytick_4">
     <g id="line2d_11">
      <g>
       <use xlink:href="#m1453765fbb" x="60.459063" y="139.412797" style="fill: #222222; stroke: #222222; stroke-width: 0.8"/>
      </g>
     </g>
     <g id="text_12">
      <!-- 0.05 -->
      <g style="fill: #222222" transform="translate(31.193438 143.212016) scale(0.1 -0.1)">
       <use xlink:href="#DejaVuSans-30"/>
       <use xlink:href="#DejaVuSans-2e" x="63.623047"/>
       <use xlink:href="#DejaVuSans-30" x="95.410156"/>
       <use xlink:href="#DejaVuSans-35" x="159.033203"/>
      </g>
     </g>
    </g>
    <g id="ytick_5">
     <g id="line2d_12">
      <g>
       <use xlink:href="#m1453765fbb" x="60.459063" y="89.922048" style="fill: #222222; stroke: #222222; stroke-width: 0.8"/>
      </g>
     </g>
     <g id="text_13">
      <!-- 0.10 -->
      <g style="fill: #222222" transform="translate(31.193438 93.721266) scale(0.1 -0.1)">
       <use xlink:href="#DejaVuSans-30"/>
       <use xlink:href="#DejaVuSans-2e" x="63.623047"/>
       <use xlink:href="#DejaVuSans-31" x="95.410156"/>
       <use xlink:href="#DejaVuSans-30" x="159.033203"/>
      </g>
     </g>
    </g>
    <g id="ytick_6">
     <g id="line2d_13">
      <g>
       <use xlink:href="#m1453765fbb" x="60.459063" y="40.431298" style="fill: #222222; stroke: #222222; stroke-width: 0.8"/>
      </g>
     </g>
     <g id="text_14">
      <!-- 0.15 -->
      <g style="fill: #222222" transform="translate(31.193438 44.230517) scale(0.1 -0.1)">
       <use xlink:href="#DejaVuSans-30"/>
       <use xlink:href="#DejaVuSans-2e" x="63.623047"/>
       <use xlink:href="#DejaVuSans-31" x="95.410156"/>
       <use xlink:href="#DejaVuSans-35" x="159.033203"/>
      </g>
     </g>
    </g>
    <g id="text_15">
     <!-- Svoris -->
     <g style="fill: #222222" transform="translate(16.318125 169.390625) rotate(-90) scale(0.12 -0.12)">
      <defs>
       <path id="DejaVuSans-53" d="M 3425 4513 
L 3425 3897 
Q 3066 4069 2747 4153 
Q 2428 4238 2131 4238 
Q 1616 4238 1336 4038 
Q 1056 3838 1056 3469 
Q 1056 3159 1242 3001 
Q 1428 2844 1947 2747 
L 2328 2669 
Q 3034 2534 3370 2195 
Q 3706 1856 3706 1288 
Q 3706 609 3251 259 
Q 2797 -91 1919 -91 
Q 1588 -91 1214 -16 
Q 841 59 441 206 
L 441 856 
Q 825 641 1194 531 
Q 1563 422 1919 422 
Q 2459 422 2753 634 
Q 3047 847 3047 1241 
Q 3047 1584 2836 1778 
Q 2625 1972 2144 2069 
L 1759 2144 
Q 1053 2284 737 2584 
Q 422 2884 422 3419 
Q 422 4038 858 4394 
Q 1294 4750 2059 4750 
Q 2388 4750 2728 4690 
Q 3069 4631 3425 4513 
z
" transform="scale(0.015625)"/>
       <path id="DejaVuSans-76" d="M 191 3500 
L 800 3500 
L 1894 563 
L 2988 3500 
L 3597 3500 
L 2284 0 
L 1503 0 
L 191 3500 
z
" transform="scale(0.015625)"/>
       <path id="DejaVuSans-72" d="M 2631 2963 
Q 2534 3019 2420 3045 
Q 2306 3072 2169 3072 
Q 1681 3072 1420 2755 
Q 1159 2438 1159 1844 
L 1159 0 
L 581 0 
L 581 3500 
L 1159 3500 
L 1159 2956 
Q 1341 3275 1631 3429 
Q 1922 3584 2338 3584 
Q 2397 3584 2469 3576 
Q 2541 3569 2628 3553 
L 2631 2963 
z
" transform="scale(0.015625)"/>
      </defs>
      <use xlink:href="#DejaVuSans-53"/>
      <use xlink:href="#DejaVuSans-76" x="63.476562"/>
      <use xlink:href="#DejaVuSans-6f" x="122.65625"/>
      <use xlink:href="#DejaVuSans-72" x="183.837891"/>
      <use xlink:href="#DejaVuSans-69" x="224.951172"/>
      <use xlink:href="#DejaVuSans-73" x="252.734375"/>
     </g>
    </g>
   </g>
   <g id="line2d_14">
    <path d="M 89.630426 240.702661 
L 91.336354 122.856115 
L 93.042282 171.487842 
L 94.748209 202.459891 
L 96.454137 188.291579 
L 98.160065 171.931142 
L 99.865992 177.949202 
L 101.57192 185.75714 
L 103.277848 172.150561 
L 104.983775 150.737975 
L 106.689703 150.51267 
L 108.395631 160.707718 
L 110.101559 155.752572 
L 111.807486 133.94202 
L 113.513414 118.069327 
L 115.219342 129.944003 
L 118.631197 206.81562 
L 120.337125 219.111466 
L 122.043052 208.260372 
L 123.74898 195.757644 
L 125.454908 193.399298 
L 127.160835 195.82005 
L 128.866763 191.871038 
L 130.572691 182.715172 
L 132.278619 179.711832 
L 133.984546 184.324681 
L 135.690474 188.071835 
L 137.396402 182.142083 
L 140.808257 154.356271 
L 142.514185 146.924458 
L 144.220112 148.449044 
L 145.92604 153.790376 
L 147.631968 156.974107 
L 149.337896 160.476853 
L 151.043823 170.790476 
L 154.455679 208.522865 
L 156.161606 212.393847 
L 157.867534 200.420499 
L 159.573462 183.174804 
L 161.279389 167.573235 
L 162.985317 154.304779 
L 164.691245 142.895288 
L 166.397173 135.001946 
L 168.1031 133.486292 
L 169.809028 139.21935 
L 171.514956 153.154533 
L 173.220883 174.735792 
L 174.926811 197.760183 
L 176.632739 216.698417 
L 178.338666 228.227432 
L 180.044594 231.699336 
L 181.750522 229.76368 
L 183.45645 224.796467 
L 185.162377 217.526446 
L 186.868305 208.023242 
L 188.574233 196.307357 
L 190.28016 182.273663 
L 193.692016 150.018429 
L 195.397943 136.015295 
L 197.103871 125.756107 
L 198.809799 119.782832 
L 200.515727 118.221634 
L 202.221654 120.557067 
L 203.927582 125.511075 
L 207.339437 137.528363 
L 209.045365 142.624397 
L 210.751293 146.414164 
L 212.45722 148.789672 
L 214.163148 150.102533 
L 215.869076 151.191802 
L 217.575003 153.14523 
L 219.280931 156.826486 
L 220.986859 162.426099 
L 222.692787 169.491988 
L 226.104642 185.622737 
L 231.222425 211.367505 
L 236.340208 238.262975 
L 238.046136 246.149152 
L 239.752064 252.28817 
L 241.457991 255.86404 
L 243.163919 256.35941 
L 244.869847 253.760266 
L 246.575774 248.555861 
L 248.281702 241.54844 
L 253.399485 218.176906 
L 255.105413 211.816932 
L 256.811341 206.837089 
L 258.517268 203.345737 
L 260.223196 201.266983 
L 261.929124 200.374182 
L 263.635051 200.336345 
L 268.752834 201.704262 
L 270.458762 201.726619 
L 272.16469 201.334865 
L 273.870618 200.56796 
L 275.576545 199.531683 
L 278.988401 197.202622 
L 280.694328 196.176686 
L 282.400256 195.38243 
L 284.106184 194.88109 
L 285.812111 194.697201 
L 287.518039 194.821765 
L 289.223967 195.221628 
L 290.929895 195.85345 
L 292.635822 196.677475 
L 294.34175 197.669298 
L 296.047678 198.828612 
L 297.753605 200.181048 
L 299.459533 201.773609 
L 301.165461 203.667523 
L 302.871388 205.9259 
L 304.577316 208.603358 
L 306.283244 211.734758 
L 307.989171 215.326068 
L 309.695099 219.345689 
L 313.106955 228.324711 
L 316.51881 237.516708 
L 318.224738 241.652262 
L 319.930665 245.145956 
L 321.636593 247.751985 
L 323.342521 249.258337 
L 325.048448 249.512049 
L 326.754376 248.438832 
L 328.460304 246.052245 
L 330.166232 242.452981 
L 331.872159 237.815364 
L 333.578087 232.365766 
L 336.989942 220.050125 
L 340.401798 207.486233 
L 342.107725 201.635411 
L 343.813653 196.289611 
L 345.519581 193.690196 
L 347.225509 197.694769 
L 348.931436 187.637486 
L 350.637364 155.358555 
L 352.343292 126.620411 
L 354.049219 129.270965 
L 355.755147 151.076466 
L 357.461075 170.061432 
L 359.167002 171.439326 
L 360.87293 157.832968 
L 362.578858 145.748004 
L 364.284786 152.479178 
L 365.990713 181.526263 
L 367.696641 219.455484 
L 369.402569 246.515318 
L 371.108496 251.793338 
L 372.814424 239.121421 
L 374.520352 221.947213 
L 376.226279 214.209412 
L 377.932207 221.70526 
L 379.638135 238.812221 
L 381.344063 253.75654 
L 383.04999 258.008774 
L 384.755918 251.841781 
L 386.461846 243.400836 
L 388.167773 242.369808 
L 389.873701 252.071031 
L 391.579629 266.25618 
L 393.285556 273.212344 
L 394.991484 263.872847 
L 396.697412 237.522859 
L 398.403339 202.499591 
L 400.109267 172.287523 
L 401.815195 157.90557 
L 403.521123 161.716198 
L 405.22705 177.20392 
L 406.932978 194.144946 
L 408.638906 205.469303 
L 410.344833 210.916595 
L 412.050761 215.858696 
L 413.756689 226.746771 
L 415.462616 245.643495 
L 417.168544 267.432662 
L 418.874472 281.918182 
L 420.5804 279.7687 
L 422.286327 258.098985 
L 425.698183 184.797804 
L 427.40411 159.630376 
L 429.110038 156.456324 
L 430.815966 175.584833 
L 434.227821 240.444595 
L 435.933749 260.912212 
L 437.639677 264.021705 
L 439.345604 251.564156 
L 441.051532 231.158455 
L 442.75746 212.284086 
L 444.463387 201.461209 
L 446.169315 199.656631 
L 447.875243 202.876693 
L 449.58117 205.079312 
L 451.287098 201.627722 
L 452.993026 191.505039 
L 454.698954 177.778421 
L 456.404881 166.175267 
L 458.110809 162.037354 
L 459.816737 167.397944 
L 461.522664 179.899836 
L 463.228592 193.853497 
L 464.93452 202.89825 
L 466.640447 202.835751 
L 468.346375 193.208158 
L 471.75823 162.118759 
L 473.464158 153.864536 
L 475.170086 157.120456 
L 476.876014 171.979418 
L 480.287869 216.613611 
L 481.993797 232.64414 
L 483.699724 237.934713 
L 485.405652 231.604702 
L 487.11158 216.25939 
L 488.817507 197.239569 
L 490.523435 180.751225 
L 492.229363 171.605217 
L 493.935291 171.715693 
L 495.641218 179.713848 
L 497.347146 191.669784 
L 499.053074 202.685383 
L 500.759001 208.580645 
L 502.464929 207.016622 
L 504.170857 198.037821 
L 505.876784 184.058855 
L 507.582712 169.083702 
L 509.28864 157.371973 
L 510.994568 152.165687 
L 512.700495 154.851059 
L 514.406423 164.671024 
L 516.112351 179.153162 
L 517.818278 195.062111 
L 519.524206 209.285408 
L 521.230134 219.364224 
L 522.936061 223.842009 
L 524.641989 222.538844 
L 526.347917 216.514811 
L 528.053845 207.621637 
L 529.759772 197.897548 
L 531.4657 189.100759 
L 533.171628 182.393098 
L 534.877555 178.172576 
L 536.583483 176.133512 
L 538.289411 175.521699 
L 539.995338 175.422174 
L 541.701266 174.968021 
L 543.407194 173.477279 
L 545.113122 170.537899 
L 546.819049 166.057187 
L 548.524977 160.26219 
L 551.936832 147.078727 
L 553.64276 141.339523 
L 555.348688 137.284263 
L 557.054615 135.567682 
L 558.760543 136.663294 
L 560.466471 140.825942 
L 562.172398 147.967849 
L 563.878326 157.490626 
L 567.290182 178.77598 
L 568.996109 187.500114 
L 570.702037 193.104226 
L 572.407965 194.712364 
L 574.113892 192.075791 
L 575.81982 185.643439 
L 577.525748 176.444966 
L 580.937603 155.329381 
L 582.643531 146.281831 
L 584.349459 139.81115 
L 586.055386 136.4523 
L 587.761314 135.991114 
L 589.467242 137.512154 
L 591.173169 139.679253 
L 592.879097 141.088214 
L 594.585025 140.579427 
L 596.290952 137.477834 
L 597.99688 131.723407 
L 599.702808 123.833498 
L 603.114663 105.865664 
L 604.820591 98.644019 
L 606.526519 94.736146 
L 608.232446 95.421257 
L 609.938374 101.077286 
L 611.644302 110.872119 
L 615.056157 135.175673 
L 616.762085 145.240534 
L 618.468013 151.332435 
L 620.17394 152.255135 
L 621.879868 147.74562 
L 623.585796 138.517046 
L 625.291723 125.965152 
L 628.703579 97.969598 
L 630.409506 86.532981 
L 632.115434 79.703224 
L 633.821362 79.232204 
L 635.52729 85.548681 
L 637.233217 97.310439 
L 640.645073 126.231491 
L 642.351 137.652558 
L 644.056928 143.932658 
L 645.762856 143.717285 
L 647.468783 137.052981 
L 649.174711 125.539946 
L 652.586566 98.239973 
L 654.292494 87.644339 
L 655.998422 82.70278 
L 657.70435 86.608195 
L 659.410277 102.065295 
L 661.116205 128.779444 
L 662.822133 161.384063 
L 664.52806 191.264631 
L 666.233988 210.278129 
L 667.939916 211.414899 
L 669.645843 186.686538 
L 671.351771 125.763431 
L 673.057699 20.281818 
L 673.057699 20.281818 
" clip-path="url(#pc835317dea)" style="fill: none; stroke: #104a7e; stroke-width: 2.2; stroke-linecap: square"/>
   </g>
   <g id="line2d_15">
    <path d="M 60.459063 188.903547 
L 702.229063 188.903547 
" clip-path="url(#pc835317dea)" style="fill: none; stroke-dasharray: 3.33,1.44; stroke-dashoffset: 0; stroke: #0d1530; stroke-width: 0.9"/>
   </g>
   <g id="patch_3">
    <path d="M 60.459063 295 
L 60.459063 7.2 
" style="fill: none; stroke: #444444; stroke-width: 0.8; stroke-linejoin: miter; stroke-linecap: square"/>
   </g>
   <g id="patch_4">
    <path d="M 60.459063 295 
L 702.229063 295 
" style="fill: none; stroke: #444444; stroke-width: 0.8; stroke-linejoin: miter; stroke-linecap: square"/>
   </g>
  </g>
 </g>
 <defs>
  <clipPath id="pc835317dea">
   <rect x="60.459063" y="7.2" width="641.77" height="287.8"/>
  </clipPath>
 </defs>
</svg>
