<?xml version="1.0" encoding="utf-8" standalone="no"?>
<!DOCTYPE svg PUBLIC "-//W3C//DTD SVG 1.1//EN"
  "http://www.w3.org/Graphics/SVG/1.1/DTD/svg11.dtd">
<svg xmlns:xlink="http://www.w3.org/1999/xlink" width="709.429062pt" height="334.491875pt" viewBox="0 0 709.429062 334.491875" xmlns="http://www.w3.org/2000/svg" version="1.1">
 <metadata>
  <rdf:RDF xmlns:dc="http://purl.org/dc/elements/1.1/" xmlns:cc="http://creativecommons.org/ns#" xmlns:rdf="http://www.w3.org/1999/02/22-rdf-syntax-ns#">
   <cc:Work>
    <dc:type rdf:resource="http://purl.org/dc/dcmitype/StillImage"/>
    <dc:date>2026-04-26T17:46:28.422602</dc:date>
    <dc:format>image/svg+xml</dc:format>
    <dc:creator>
     <cc:Agent>
      <dc:title>Matplotlib v3.8.0, https://matplotlib.org/</dc:title>
     </cc:Agent>
    </dc:creator>
   </cc:Work>
  </rdf:RDF>
 </metadata>
 <defs>
  <style type="text/css">*{stroke-linejoin: round; stroke-linecap: butt}</style>
 </defs>
 <g id="figure_1">
  <g id="patch_1">
   <path d="M 0 334.491875 
L 709.429062 334.491875 
L 709.429062 0 
L 0 0 
z
" style="fill: #ffffff"/>
  </g>
  <g id="axes_1">
   <g id="patch_2">
    <path d="M 60.459063 295 
L 702.229063 295 
L 702.229063 7.2 
L 60.459063 7.2 
z
" style="fill: #ffffff"/>
   </g>
   <g id="matplotlib.axis_1">
    <g id="xtick_1">
     <g id="line2d_1">
      <defs>
       <path id="m29464323d9" d="M 0 0 
L 0 3.5 
" style="stroke: #222222; stroke-width: 0.8"/>
      </defs>
      <g>
       <use xlink:href="#m29464323d9" x="144.220112" y="295" style="fill: #222222; stroke: #222222; stroke-width: 0.8"/>
      </g>
     </g>
     <g id="text_1">
      <!-- 400 -->
      <g style="fill: #222222" transform="translate(134.676362 309.598437) scale(0.1 -0.1)">
       <defs>
        <path id="DejaVuSans-34" d="M 2419 4116 
L 825 1625 
L 2419 1625 
L 2419 4116 
z
M 2253 4666 
L 3047 4666 
L 3047 1625 
L 3713 1625 
L 3713 1100 
L 3047 1100 
L 3047 0 
L 2419 0 
L 2419 1100 
L 313 1100 
L 313 1709 
L 2253 4666 
z
" transform="scale(0.015625)"/>
        <path id="DejaVuSans-30" d="M 2034 4250 
Q 1547 4250 1301 3770 
Q 1056 3291 1056 2328 
Q 1056 1369 1301 889 
Q 1547 409 2034 409 
Q 2525 409 2770 889 
Q 3016 1369 3016 2328 
Q 3016 3291 2770 3770 
Q 2525 4250 2034 4250 
z
M 2034 4750 
Q 2819 4750 3233 4129 
Q 3647 3509 3647 2328 
Q 3647 1150 3233 529 
Q 2819 -91 2034 -91 
Q 1250 -91 836 529 
Q 422 1150 422 2328 
Q 422 3509 836 4129 
Q 1250 4750 2034 4750 
z
" transform="scale(0.015625)"/>
       </defs>
       <use xlink:href="#DejaVuSans-34"/>
       <use xlink:href="#DejaVuSans-30" x="63.623047"/>
       <use xlink:href="#DejaVuSans-30" x="127.246094"/>
      </g>
     </g>
    </g>
    <g id="xtick_2">
     <g id="line2d_2">
      <g>
       <use xlink:href="#m29464323d9" x="229.516497" y="295" style="fill: #222222; stroke: #222222; stroke-width: 0.8"/>
      </g>
     </g>
     <g id="text_2">
      <!-- 500 -->
      <g style="fill: #222222" transform="translate(219.972747 309.598437) scale(0.1 -0.1)">
       <defs>
        <path id="DejaVuSans-35" d="M 691 4666 
L 3169 4666 
L 3169 4134 
L 1269 4134 
L 1269 2991 
Q 1406 3038 1543 3061 
Q 1681 3084 1819 3084 
Q 2600 3084 3056 2656 
Q 3513 2228 3513 1497 
Q 3513 744 3044 326 
Q 2575 -91 1722 -91 
Q 1428 -91 1123 -41 
Q 819 9 494 109 
L 494 744 
Q 775 591 1075 516 
Q 1375 441 1709 441 
Q 2250 441 2565 725 
Q 2881 1009 2881 1497 
Q 2881 1984 2565 2268 
Q 2250 2553 1709 2553 
Q 1456 2553 1204 2497 
Q 953 2441 691 2322 
L 691 4666 
z
" transform="scale(0.015625)"/>
       </defs>
       <use xlink:href="#DejaVuSans-35"/>
       <use xlink:href="#DejaVuSans-30" x="63.623047"/>
       <use xlink:href="#DejaVuSans-30" x="127.246094"/>
      </g>
     </g>
    </g>
    <g id="xtick_3">
     <g id="line2d_3">
      <g>
       <use xlink:href="#m29464323d9" x="314.812882" y="295" style="fill: #222222; stroke: #222222; stroke-width: 0.8"/>
      </g>
     </g>
     <g id="text_3">
      <!-- 600 -->
      <g style="fill: #222222" transform="translate(305.269132 309.598437) scale(0.1 -0.1)">
       <defs>
        <path id="DejaVuSans-36" d="M 2113 2584 
Q 1688 2584 1439 2293 
Q 1191 2003 1191 1497 
Q 1191 994 1439 701 
Q 1688 409 2113 409 
Q 2538 409 2786 701 
Q 3034 994 3034 1497 
Q 3034 2003 2786 2293 
Q 2538 2584 2113 2584 
z
M 3366 4563 
L 3366 3988 
Q 3128 4100 2886 4159 
Q 2644 4219 2406 4219 
Q 1781 4219 1451 3797 
Q 1122 3375 1075 2522 
Q 1259 2794 1537 2939 
Q 1816 3084 2150 3084 
Q 2853 3084 3261 2657 
Q 3669 2231 3669 1497 
Q 3669 778 3244 343 
Q 2819 -91 2113 -91 
Q 1303 -91 875 529 
Q 447 1150 447 2328 
Q 447 3434 972 4092 
Q 1497 4750 2381 4750 
Q 2619 4750 2861 4703 
Q 3103 4656 3366 4563 
z
" transform="scale(0.015625)"/>
       </defs>
       <use xlink:href="#DejaVuSans-36"/>
       <use xlink:href="#DejaVuSans-30" x="63.623047"/>
       <use xlink:href="#DejaVuSans-30" x="127.246094"/>
      </g>
     </g>
    </g>
    <g id="xtick_4">
     <g id="line2d_4">
      <g>
       <use xlink:href="#m29464323d9" x="400.109267" y="295" style="fill: #222222; stroke: #222222; stroke-width: 0.8"/>
      </g>
     </g>
     <g id="text_4">
      <!-- 700 -->
      <g style="fill: #222222" transform="translate(390.565517 309.598437) scale(0.1 -0.1)">
       <defs>
        <path id="DejaVuSans-37" d="M 525 4666 
L 3525 4666 
L 3525 4397 
L 1831 0 
L 1172 0 
L 2766 4134 
L 525 4134 
L 525 4666 
z
" transform="scale(0.015625)"/>
       </defs>
       <use xlink:href="#DejaVuSans-37"/>
       <use xlink:href="#DejaVuSans-30" x="63.623047"/>
       <use xlink:href="#DejaVuSans-30" x="127.246094"/>
      </g>
     </g>
    </g>
    <g id="xtick_5">
     <g id="line2d_5">
      <g>
       <use xlink:href="#m29464323d9" x="485.405652" y="295" style="fill: #222222; stroke: #222222; stroke-width: 0.8"/>
      </g>
     </g>
     <g id="text_5">
      <!-- 800 -->
      <g style="fill: #222222" transform="translate(475.861902 309.598437) scale(0.1 -0.1)">
       <defs>
        <path id="DejaVuSans-38" d="M 2034 2216 
Q 1584 2216 1326 1975 
Q 1069 1734 1069 1313 
Q 1069 891 1326 650 
Q 1584 409 2034 409 
Q 2484 409 2743 651 
Q 3003 894 3003 1313 
Q 3003 1734 2745 1975 
Q 2488 2216 2034 2216 
z
M 1403 2484 
Q 997 2584 770 2862 
Q 544 3141 544 3541 
Q 544 4100 942 4425 
Q 1341 4750 2034 4750 
Q 2731 4750 3128 4425 
Q 3525 4100 3525 3541 
Q 3525 3141 3298 2862 
Q 3072 2584 2669 2484 
Q 3125 2378 3379 2068 
Q 3634 1759 3634 1313 
Q 3634 634 3220 271 
Q 2806 -91 2034 -91 
Q 1263 -91 848 271 
Q 434 634 434 1313 
Q 434 1759 690 2068 
Q 947 2378 1403 2484 
z
M 1172 3481 
Q 1172 3119 1398 2916 
Q 1625 2713 2034 2713 
Q 2441 2713 2670 2916 
Q 2900 3119 2900 3481 
Q 2900 3844 2670 4047 
Q 2441 4250 2034 4250 
Q 1625 4250 1398 4047 
Q 1172 3844 1172 3481 
z
" transform="scale(0.015625)"/>
       </defs>
       <use xlink:href="#DejaVuSans-38"/>
       <use xlink:href="#DejaVuSans-30" x="63.623047"/>
       <use xlink:href="#DejaVuSans-30" x="127.246094"/>
      </g>
     </g>
    </g>
    <g id="xtick_6">
     <g id="line2d_6">
      <g>
       <use xlink:href="#m29464323d9" x="570.702037" y="295" style="fill: #222222; stroke: #222222; stroke-width: 0.8"/>
      </g>
     </g>
     <g id="text_6">
      <!-- 900 -->
      <g style="fill: #222222" transform="translate(561.158287 309.598437) scale(0.1 -0.1)">
       <defs>
        <path id="DejaVuSans-39" d="M 703 97 
L 703 672 
Q 941 559 1184 500 
Q 1428 441 1663 441 
Q 2288 441 2617 861 
Q 2947 1281 2994 2138 
Q 2813 1869 2534 1725 
Q 2256 1581 1919 1581 
Q 1219 1581 811 2004 
Q 403 2428 403 3163 
Q 403 3881 828 4315 
Q 1253 4750 1959 4750 
Q 2769 4750 3195 4129 
Q 3622 3509 3622 2328 
Q 3622 1225 3098 567 
Q 2575 -91 1691 -91 
Q 1453 -91 1209 -44 
Q 966 3 703 97 
z
M 1959 2075 
Q 2384 2075 2632 2365 
Q 2881 2656 2881 3163 
Q 2881 3666 2632 3958 
Q 2384 4250 1959 4250 
Q 1534 4250 1286 3958 
Q 1038 3666 1038 3163 
Q 1038 2656 1286 2365 
Q 1534 2075 1959 2075 
z
" transform="scale(0.015625)"/>
       </defs>
       <use xlink:href="#DejaVuSans-39"/>
       <use xlink:href="#DejaVuSans-30" x="63.623047"/>
       <use xlink:href="#DejaVuSans-30" x="127.246094"/>
      </g>
     </g>
    </g>
    <g id="xtick_7">
     <g id="line2d_7">
      <g>
       <use xlink:href="#m29464323d9" x="655.998422" y="295" style="fill: #222222; stroke: #222222; stroke-width: 0.8"/>
      </g>
     </g>
     <g id="text_7">
      <!-- 1000 -->
      <g style="fill: #222222" transform="translate(643.273422 309.598437) scale(0.1 -0.1)">
       <defs>
        <path id="DejaVuSans-31" d="M 794 531 
L 1825 531 
L 1825 4091 
L 703 3866 
L 703 4441 
L 1819 4666 
L 2450 4666 
L 2450 531 
L 3481 531 
L 3481 0 
L 794 0 
L 794 531 
z
" transform="scale(0.015625)"/>
       </defs>
       <use xlink:href="#DejaVuSans-31"/>
       <use xlink:href="#DejaVuSans-30" x="63.623047"/>
       <use xlink:href="#DejaVuSans-30" x="127.246094"/>
       <use xlink:href="#DejaVuSans-30" x="190.869141"/>
      </g>
     </g>
    </g>
    <g id="text_8">
     <!-- Bangos ilgis, nm -->
     <g style="fill: #222222" transform="translate(331.839375 324.79625) scale(0.12 -0.12)">
      <defs>
       <path id="DejaVuSans-42" d="M 1259 2228 
L 1259 519 
L 2272 519 
Q 2781 519 3026 730 
Q 3272 941 3272 1375 
Q 3272 1813 3026 2020 
Q 2781 2228 2272 2228 
L 1259 2228 
z
M 1259 4147 
L 1259 2741 
L 2194 2741 
Q 2656 2741 2882 2914 
Q 3109 3088 3109 3444 
Q 3109 3797 2882 3972 
Q 2656 4147 2194 4147 
L 1259 4147 
z
M 628 4666 
L 2241 4666 
Q 2963 4666 3353 4366 
Q 3744 4066 3744 3513 
Q 3744 3084 3544 2831 
Q 3344 2578 2956 2516 
Q 3422 2416 3680 2098 
Q 3938 1781 3938 1306 
Q 3938 681 3513 340 
Q 3088 0 2303 0 
L 628 0 
L 628 4666 
z
" transform="scale(0.015625)"/>
       <path id="DejaVuSans-61" d="M 2194 1759 
Q 1497 1759 1228 1600 
Q 959 1441 959 1056 
Q 959 750 1161 570 
Q 1363 391 1709 391 
Q 2188 391 2477 730 
Q 2766 1069 2766 1631 
L 2766 1759 
L 2194 1759 
z
M 3341 1997 
L 3341 0 
L 2766 0 
L 2766 531 
Q 2569 213 2275 61 
Q 1981 -91 1556 -91 
Q 1019 -91 701 211 
Q 384 513 384 1019 
Q 384 1609 779 1909 
Q 1175 2209 1959 2209 
L 2766 2209 
L 2766 2266 
Q 2766 2663 2505 2880 
Q 2244 3097 1772 3097 
Q 1472 3097 1187 3025 
Q 903 2953 641 2809 
L 641 3341 
Q 956 3463 1253 3523 
Q 1550 3584 1831 3584 
Q 2591 3584 2966 3190 
Q 3341 2797 3341 1997 
z
" transform="scale(0.015625)"/>
       <path id="DejaVuSans-6e" d="M 3513 2113 
L 3513 0 
L 2938 0 
L 2938 2094 
Q 2938 2591 2744 2837 
Q 2550 3084 2163 3084 
Q 1697 3084 1428 2787 
Q 1159 2491 1159 1978 
L 1159 0 
L 581 0 
L 581 3500 
L 1159 3500 
L 1159 2956 
Q 1366 3272 1645 3428 
Q 1925 3584 2291 3584 
Q 2894 3584 3203 3211 
Q 3513 2838 3513 2113 
z
" transform="scale(0.015625)"/>
       <path id="DejaVuSans-67" d="M 2906 1791 
Q 2906 2416 2648 2759 
Q 2391 3103 1925 3103 
Q 1463 3103 1205 2759 
Q 947 2416 947 1791 
Q 947 1169 1205 825 
Q 1463 481 1925 481 
Q 2391 481 2648 825 
Q 2906 1169 2906 1791 
z
M 3481 434 
Q 3481 -459 3084 -895 
Q 2688 -1331 1869 -1331 
Q 1566 -1331 1297 -1286 
Q 1028 -1241 775 -1147 
L 775 -588 
Q 1028 -725 1275 -790 
Q 1522 -856 1778 -856 
Q 2344 -856 2625 -561 
Q 2906 -266 2906 331 
L 2906 616 
Q 2728 306 2450 153 
Q 2172 0 1784 0 
Q 1141 0 747 490 
Q 353 981 353 1791 
Q 353 2603 747 3093 
Q 1141 3584 1784 3584 
Q 2172 3584 2450 3431 
Q 2728 3278 2906 2969 
L 2906 3500 
L 3481 3500 
L 3481 434 
z
" transform="scale(0.015625)"/>
       <path id="DejaVuSans-6f" d="M 1959 3097 
Q 1497 3097 1228 2736 
Q 959 2375 959 1747 
Q 959 1119 1226 758 
Q 1494 397 1959 397 
Q 2419 397 2687 759 
Q 2956 1122 2956 1747 
Q 2956 2369 2687 2733 
Q 2419 3097 1959 3097 
z
M 1959 3584 
Q 2709 3584 3137 3096 
Q 3566 2609 3566 1747 
Q 3566 888 3137 398 
Q 2709 -91 1959 -91 
Q 1206 -91 779 398 
Q 353 888 353 1747 
Q 353 2609 779 3096 
Q 1206 3584 1959 3584 
z
" transform="scale(0.015625)"/>
       <path id="DejaVuSans-73" d="M 2834 3397 
L 2834 2853 
Q 2591 2978 2328 3040 
Q 2066 3103 1784 3103 
Q 1356 3103 1142 2972 
Q 928 2841 928 2578 
Q 928 2378 1081 2264 
Q 1234 2150 1697 2047 
L 1894 2003 
Q 2506 1872 2764 1633 
Q 3022 1394 3022 966 
Q 3022 478 2636 193 
Q 2250 -91 1575 -91 
Q 1294 -91 989 -36 
Q 684 19 347 128 
L 347 722 
Q 666 556 975 473 
Q 1284 391 1588 391 
Q 1994 391 2212 530 
Q 2431 669 2431 922 
Q 2431 1156 2273 1281 
Q 2116 1406 1581 1522 
L 1381 1569 
Q 847 1681 609 1914 
Q 372 2147 372 2553 
Q 372 3047 722 3315 
Q 1072 3584 1716 3584 
Q 2034 3584 2315 3537 
Q 2597 3491 2834 3397 
z
" transform="scale(0.015625)"/>
       <path id="DejaVuSans-20" transform="scale(0.015625)"/>
       <path id="DejaVuSans-69" d="M 603 3500 
L 1178 3500 
L 1178 0 
L 603 0 
L 603 3500 
z
M 603 4863 
L 1178 4863 
L 1178 4134 
L 603 4134 
L 603 4863 
z
" transform="scale(0.015625)"/>
       <path id="DejaVuSans-6c" d="M 603 4863 
L 1178 4863 
L 1178 0 
L 603 0 
L 603 4863 
z
" transform="scale(0.015625)"/>
       <path id="DejaVuSans-2c" d="M 750 794 
L 1409 794 
L 1409 256 
L 897 -744 
L 494 -744 
L 750 256 
L 750 794 
z
" transform="scale(0.015625)"/>
       <path id="DejaVuSans-6d" d="M 3328 2828 
Q 3544 3216 3844 3400 
Q 4144 3584 4550 3584 
Q 5097 3584 5394 3201 
Q 5691 2819 5691 2113 
L 5691 0 
L 5113 0 
L 5113 2094 
Q 5113 2597 4934 2840 
Q 4756 3084 4391 3084 
Q 3944 3084 3684 2787 
Q 3425 2491 3425 1978 
L 3425 0 
L 2847 0 
L 2847 2094 
Q 2847 2600 2669 2842 
Q 2491 3084 2119 3084 
Q 1678 3084 1418 2786 
Q 1159 2488 1159 1978 
L 1159 0 
L 581 0 
L 581 3500 
L 1159 3500 
L 1159 2956 
Q 1356 3278 1631 3431 
Q 1906 3584 2284 3584 
Q 2666 3584 2933 3390 
Q 3200 3197 3328 2828 
z
" transform="scale(0.015625)"/>
      </defs>
      <use xlink:href="#DejaVuSans-42"/>
      <use xlink:href="#DejaVuSans-61" x="68.603516"/>
      <use xlink:href="#DejaVuSans-6e" x="129.882812"/>
      <use xlink:href="#DejaVuSans-67" x="193.261719"/>
      <use xlink:href="#DejaVuSans-6f" x="256.738281"/>
      <use xlink:href="#DejaVuSans-73" x="317.919922"/>
      <use xlink:href="#DejaVuSans-20" x="370.019531"/>
      <use xlink:href="#DejaVuSans-69" x="401.806641"/>
      <use xlink:href="#DejaVuSans-6c" x="429.589844"/>
      <use xlink:href="#DejaVuSans-67" x="457.373047"/>
      <use xlink:href="#DejaVuSans-69" x="520.849609"/>
      <use xlink:href="#DejaVuSans-73" x="548.632812"/>
      <use xlink:href="#DejaVuSans-2c" x="600.732422"/>
      <use xlink:href="#DejaVuSans-20" x="632.519531"/>
      <use xlink:href="#DejaVuSans-6e" x="664.306641"/>
      <use xlink:href="#DejaVuSans-6d" x="727.685547"/>
     </g>
    </g>
   </g>
   <g id="matplotlib.axis_2">
    <g id="ytick_1">
     <g id="line2d_8">
      <defs>
       <path id="m8c068cadde" d="M 0 0 
L -3.5 0 
" style="stroke: #222222; stroke-width: 0.8"/>
      </defs>
      <g>
       <use xlink:href="#m8c068cadde" x="60.459063" y="268.577881" style="fill: #222222; stroke: #222222; stroke-width: 0.8"/>
      </g>
     </g>
     <g id="text_9">
      <!-- −0.10 -->
      <g style="fill: #222222" transform="translate(22.81375 272.377099) scale(0.1 -0.1)">
       <defs>
        <path id="DejaVuSans-2212" d="M 678 2272 
L 4684 2272 
L 4684 1741 
L 678 1741 
L 678 2272 
z
" transform="scale(0.015625)"/>
        <path id="DejaVuSans-2e" d="M 684 794 
L 1344 794 
L 1344 0 
L 684 0 
L 684 794 
z
" transform="scale(0.015625)"/>
       </defs>
       <use xlink:href="#DejaVuSans-2212"/>
       <use xlink:href="#DejaVuSans-30" x="83.789062"/>
       <use xlink:href="#DejaVuSans-2e" x="147.412109"/>
       <use xlink:href="#DejaVuSans-31" x="179.199219"/>
       <use xlink:href="#DejaVuSans-30" x="242.822266"/>
      </g>
     </g>
    </g>
    <g id="ytick_2">
     <g id="line2d_9">
      <g>
       <use xlink:href="#m8c068cadde" x="60.459063" y="222.657813" style="fill: #222222; stroke: #222222; stroke-width: 0.8"/>
      </g>
     </g>
     <g id="text_10">
      <!-- −0.05 -->
      <g style="fill: #222222" transform="translate(22.81375 226.457032) scale(0.1 -0.1)">
       <use xlink:href="#DejaVuSans-2212"/>
       <use xlink:href="#DejaVuSans-30" x="83.789062"/>
       <use xlink:href="#DejaVuSans-2e" x="147.412109"/>
       <use xlink:href="#DejaVuSans-30" x="179.199219"/>
       <use xlink:href="#DejaVuSans-35" x="242.822266"/>
      </g>
     </g>
    </g>
    <g id="ytick_3">
     <g id="line2d_10">
      <g>
       <use xlink:href="#m8c068cadde" x="60.459063" y="176.737746" style="fill: #222222; stroke: #222222; stroke-width: 0.8"/>
      </g>
     </g>
     <g id="text_11">
      <!-- 0.00 -->
      <g style="fill: #222222" transform="translate(31.193438 180.536965) scale(0.1 -0.1)">
       <use xlink:href="#DejaVuSans-30"/>
       <use xlink:href="#DejaVuSans-2e" x="63.623047"/>
       <use xlink:href="#DejaVuSans-30" x="95.410156"/>
       <use xlink:href="#DejaVuSans-30" x="159.033203"/>
      </g>
     </g>
    </g>
    <g id="ytick_4">
     <g id="line2d_11">
      <g>
       <use xlink:href="#m8c068cadde" x="60.459063" y="130.817679" style="fill: #222222; stroke: #222222; stroke-width: 0.8"/>
      </g>
     </g>
     <g id="text_12">
      <!-- 0.05 -->
      <g style="fill: #222222" transform="translate(31.193438 134.616897) scale(0.1 -0.1)">
       <use xlink:href="#DejaVuSans-30"/>
       <use xlink:href="#DejaVuSans-2e" x="63.623047"/>
       <use xlink:href="#DejaVuSans-30" x="95.410156"/>
       <use xlink:href="#DejaVuSans-35" x="159.033203"/>
      </g>
     </g>
    </g>
    <g id="ytick_5">
     <g id="line2d_12">
      <g>
       <use xlink:href="#m8c068cadde" x="60.459063" y="84.897611" style="fill: #222222; stroke: #222222; stroke-width: 0.8"/>
      </g>
     </g>
     <g id="text_13">
      <!-- 0.10 -->
      <g style="fill: #222222" transform="translate(31.193438 88.69683) scale(0.1 -0.1)">
       <use xlink:href="#DejaVuSans-30"/>
       <use xlink:href="#DejaVuSans-2e" x="63.623047"/>
       <use xlink:href="#DejaVuSans-31" x="95.410156"/>
       <use xlink:href="#DejaVuSans-30" x="159.033203"/>
      </g>
     </g>
    </g>
    <g id="ytick_6">
     <g id="line2d_13">
      <g>
       <use xlink:href="#m8c068cadde" x="60.459063" y="38.977544" style="fill: #222222; stroke: #222222; stroke-width: 0.8"/>
      </g>
     </g>
     <g id="text_14">
      <!-- 0.15 -->
      <g style="fill: #222222" transform="translate(31.193438 42.776763) scale(0.1 -0.1)">
       <use xlink:href="#DejaVuSans-30"/>
       <use xlink:href="#DejaVuSans-2e" x="63.623047"/>
       <use xlink:href="#DejaVuSans-31" x="95.410156"/>
       <use xlink:href="#DejaVuSans-35" x="159.033203"/>
      </g>
     </g>
    </g>
    <g id="text_15">
     <!-- Svoris -->
     <g style="fill: #222222" transform="translate(16.318125 169.390625) rotate(-90) scale(0.12 -0.12)">
      <defs>
       <path id="DejaVuSans-53" d="M 3425 4513 
L 3425 3897 
Q 3066 4069 2747 4153 
Q 2428 4238 2131 4238 
Q 1616 4238 1336 4038 
Q 1056 3838 1056 3469 
Q 1056 3159 1242 3001 
Q 1428 2844 1947 2747 
L 2328 2669 
Q 3034 2534 3370 2195 
Q 3706 1856 3706 1288 
Q 3706 609 3251 259 
Q 2797 -91 1919 -91 
Q 1588 -91 1214 -16 
Q 841 59 441 206 
L 441 856 
Q 825 641 1194 531 
Q 1563 422 1919 422 
Q 2459 422 2753 634 
Q 3047 847 3047 1241 
Q 3047 1584 2836 1778 
Q 2625 1972 2144 2069 
L 1759 2144 
Q 1053 2284 737 2584 
Q 422 2884 422 3419 
Q 422 4038 858 4394 
Q 1294 4750 2059 4750 
Q 2388 4750 2728 4690 
Q 3069 4631 3425 4513 
z
" transform="scale(0.015625)"/>
       <path id="DejaVuSans-76" d="M 191 3500 
L 800 3500 
L 1894 563 
L 2988 3500 
L 3597 3500 
L 2284 0 
L 1503 0 
L 191 3500 
z
" transform="scale(0.015625)"/>
       <path id="DejaVuSans-72" d="M 2631 2963 
Q 2534 3019 2420 3045 
Q 2306 3072 2169 3072 
Q 1681 3072 1420 2755 
Q 1159 2438 1159 1844 
L 1159 0 
L 581 0 
L 581 3500 
L 1159 3500 
L 1159 2956 
Q 1341 3275 1631 3429 
Q 1922 3584 2338 3584 
Q 2397 3584 2469 3576 
Q 2541 3569 2628 3553 
L 2631 2963 
z
" transform="scale(0.015625)"/>
      </defs>
      <use xlink:href="#DejaVuSans-53"/>
      <use xlink:href="#DejaVuSans-76" x="63.476562"/>
      <use xlink:href="#DejaVuSans-6f" x="122.65625"/>
      <use xlink:href="#DejaVuSans-72" x="183.837891"/>
      <use xlink:href="#DejaVuSans-69" x="224.951172"/>
      <use xlink:href="#DejaVuSans-73" x="252.734375"/>
     </g>
    </g>
   </g>
   <g id="line2d_14">
    <path d="M 89.630426 216.160895 
L 91.336354 133.794275 
L 93.042282 129.042573 
L 94.748209 161.132309 
L 96.454137 173.698864 
L 98.160065 154.460602 
L 99.865992 139.997431 
L 101.57192 148.046478 
L 103.277848 148.420652 
L 104.983775 126.588808 
L 106.689703 126.003714 
L 108.395631 154.346153 
L 110.101559 160.509753 
L 113.513414 80.355436 
L 115.219342 93.761379 
L 116.925269 161.244813 
L 118.631197 220.911136 
L 120.337125 222.860635 
L 122.043052 191.670123 
L 123.74898 175.856417 
L 125.454908 186.043364 
L 127.160835 194.273732 
L 128.866763 179.197402 
L 130.572691 159.545469 
L 132.278619 160.81062 
L 133.984546 174.199144 
L 135.690474 176.900676 
L 137.396402 160.250056 
L 139.102329 135.889025 
L 140.808257 118.196478 
L 142.514185 107.326477 
L 144.220112 101.835484 
L 145.92604 98.875041 
L 147.631968 94.15213 
L 149.337896 93.323566 
L 151.043823 108.359037 
L 152.749751 140.778934 
L 154.455679 168.839115 
L 156.161606 170.588448 
L 157.867534 150.190687 
L 159.573462 126.141896 
L 161.279389 106.457661 
L 162.985317 90.020679 
L 164.691245 75.834477 
L 166.397173 67.66546 
L 168.1031 71.212767 
L 169.809028 87.835198 
L 171.514956 117.885289 
L 173.220883 157.091284 
L 174.926811 192.15337 
L 176.632739 214.291068 
L 178.338666 221.256517 
L 180.044594 216.170615 
L 181.750522 205.308408 
L 185.162377 179.646537 
L 188.574233 152.412314 
L 193.692016 107.07705 
L 195.397943 97.285638 
L 197.103871 93.029438 
L 198.809799 94.289181 
L 200.515727 100.531719 
L 202.221654 110.387874 
L 205.63351 132.424919 
L 207.339437 140.904506 
L 209.045365 146.263065 
L 210.751293 148.346152 
L 212.45722 147.886817 
L 214.163148 146.400754 
L 215.869076 145.817222 
L 217.575003 147.98418 
L 219.280931 154.027947 
L 220.986859 163.828642 
L 222.692787 176.223023 
L 227.81057 216.458655 
L 229.516497 228.652664 
L 231.222425 239.93281 
L 232.928353 250.315759 
L 234.63428 259.763462 
L 236.340208 268.081674 
L 238.046136 274.882964 
L 239.752064 279.649746 
L 241.457991 281.918182 
L 243.163919 281.511548 
L 244.869847 278.67564 
L 246.575774 274.01479 
L 249.98763 262.209075 
L 251.693557 256.34317 
L 253.399485 251.091355 
L 255.105413 246.713902 
L 256.811341 243.352935 
L 258.517268 241.047662 
L 260.223196 239.741401 
L 261.929124 239.292924 
L 263.635051 239.496531 
L 265.340979 240.11459 
L 270.458762 242.47539 
L 273.870618 243.594247 
L 277.282473 244.361325 
L 278.988401 244.626153 
L 280.694328 244.776777 
L 282.400256 244.767679 
L 284.106184 244.55053 
L 285.812111 244.086475 
L 287.518039 243.355256 
L 289.223967 242.362334 
L 290.929895 241.143544 
L 297.753605 235.736231 
L 299.459533 234.835086 
L 301.165461 234.339892 
L 302.871388 234.323673 
L 304.577316 234.825324 
L 306.283244 235.845961 
L 307.989171 237.350457 
L 309.695099 239.268079 
L 313.106955 243.900789 
L 316.51881 248.594275 
L 318.224738 250.524129 
L 319.930665 251.93626 
L 321.636593 252.672009 
L 323.342521 252.607435 
L 325.048448 251.667677 
L 326.754376 249.836202 
L 328.460304 247.156242 
L 330.166232 243.725823 
L 331.872159 239.685315 
L 335.284015 230.445026 
L 340.401798 216.12825 
L 342.107725 211.753901 
L 343.813653 207.723702 
L 345.519581 207.392177 
L 347.225509 209.716783 
L 348.931436 205.691952 
L 350.637364 195.702944 
L 352.343292 188.930133 
L 354.049219 191.402647 
L 355.755147 195.98707 
L 357.461075 193.80335 
L 359.167002 181.938222 
L 360.87293 165.464184 
L 362.578858 154.633906 
L 364.284786 158.113319 
L 365.990713 176.133493 
L 367.696641 200.043439 
L 369.402569 218.445816 
L 371.108496 225.034965 
L 372.814424 221.311382 
L 374.520352 213.714886 
L 376.226279 209.126995 
L 377.932207 210.77318 
L 379.638135 216.543067 
L 381.344063 221.222415 
L 383.04999 220.764079 
L 384.755918 215.089966 
L 386.461846 208.126561 
L 388.167773 205.132097 
L 389.873701 208.740129 
L 391.579629 216.804646 
L 393.285556 223.695184 
L 394.991484 223.955958 
L 396.697412 215.429658 
L 400.109267 184.288235 
L 401.815195 173.269162 
L 403.521123 170.244265 
L 405.22705 174.082581 
L 408.638906 187.62152 
L 412.050761 197.468841 
L 413.756689 204.261788 
L 415.462616 213.907413 
L 417.168544 224.298949 
L 418.874472 230.780094 
L 420.5804 228.603562 
L 422.286327 215.686916 
L 423.992255 194.045757 
L 425.698183 169.749057 
L 427.40411 151.069651 
L 429.110038 144.934973 
L 430.815966 153.68025 
L 432.521893 173.876576 
L 434.227821 197.817312 
L 435.933749 216.973621 
L 437.639677 225.171939 
L 439.345604 220.373726 
L 441.051532 205.262201 
L 442.75746 185.981416 
L 444.463387 169.18647 
L 446.169315 159.319791 
L 447.875243 157.286735 
L 449.58117 160.7378 
L 451.287098 165.737169 
L 452.993026 168.728615 
L 454.698954 167.900863 
L 456.404881 163.726909 
L 458.110809 158.461335 
L 459.816737 154.768493 
L 461.522664 154.29613 
L 463.228592 156.873155 
L 464.93452 160.672123 
L 466.640447 163.227395 
L 468.346375 162.641969 
L 470.052303 158.465047 
L 471.75823 152.037575 
L 473.464158 146.066931 
L 475.170086 143.51159 
L 476.876014 146.300501 
L 478.581941 154.385701 
L 481.993797 176.491425 
L 483.699724 183.671711 
L 485.405652 184.781291 
L 487.11158 179.237388 
L 488.817507 168.567712 
L 490.523435 155.98472 
L 492.229363 145.249405 
L 493.935291 139.405689 
L 495.641218 139.775601 
L 497.347146 145.492852 
L 499.053074 153.863151 
L 500.759001 161.363529 
L 502.464929 164.729979 
L 504.170857 161.887294 
L 505.876784 152.655687 
L 507.582712 138.937681 
L 509.28864 124.196743 
L 510.994568 112.467729 
L 512.700495 107.200131 
L 514.406423 110.172598 
L 516.112351 120.963481 
L 517.818278 137.266009 
L 519.524206 155.648631 
L 521.230134 172.268006 
L 522.936061 183.567057 
L 524.641989 187.130712 
L 526.347917 182.403343 
L 528.053845 170.816521 
L 531.4657 139.680871 
L 533.171628 127.393578 
L 534.877555 120.817614 
L 536.583483 120.589222 
L 538.289411 125.751682 
L 541.701266 143.203892 
L 543.407194 149.899781 
L 545.113122 152.052675 
L 546.819049 148.619474 
L 548.524977 139.990394 
L 550.230905 127.853329 
L 551.936832 114.772868 
L 553.64276 103.526017 
L 555.348688 96.373656 
L 557.054615 94.596586 
L 558.760543 98.426538 
L 560.466471 107.151956 
L 562.172398 119.223931 
L 563.878326 132.421611 
L 565.584254 144.251173 
L 567.290182 152.528827 
L 568.996109 155.878105 
L 570.702037 153.959384 
L 572.407965 147.459055 
L 574.113892 137.872358 
L 577.525748 116.979547 
L 579.231675 108.924994 
L 580.937603 103.79352 
L 582.643531 101.838487 
L 584.349459 102.670645 
L 586.055386 105.256558 
L 587.761314 108.110929 
L 589.467242 109.677651 
L 591.173169 108.757008 
L 592.879097 104.810898 
L 594.585025 98.080353 
L 599.702808 71.893103 
L 601.408736 65.308044 
L 603.114663 61.477019 
L 604.820591 61.150447 
L 606.526519 64.804547 
L 608.232446 72.324752 
L 609.938374 82.703772 
L 611.644302 94.11315 
L 613.350229 104.409096 
L 615.056157 111.726721 
L 616.762085 114.845792 
L 618.468013 113.332311 
L 620.17394 107.575939 
L 621.879868 98.642238 
L 626.997651 66.042217 
L 628.703579 56.989253 
L 630.409506 50.565659 
L 632.115434 47.819397 
L 633.821362 49.381305 
L 635.52729 54.863687 
L 638.939145 70.589349 
L 640.645073 76.512479 
L 642.351 79.076204 
L 644.056928 77.84689 
L 645.762856 73.398973 
L 650.880639 54.403158 
L 652.586566 49.622637 
L 654.292494 46.653411 
L 655.998422 46.530494 
L 657.70435 50.913676 
L 659.410277 61.524452 
L 661.116205 78.478109 
L 662.822133 98.722969 
L 664.52806 117.039332 
L 666.233988 128.632195 
L 667.939916 129.983923 
L 669.645843 117.932793 
L 671.351771 89.19187 
L 673.057699 42.660276 
L 673.057699 42.660276 
" clip-path="url(#pba88614042)" style="fill: none; stroke: #104a7e; stroke-width: 2.2; stroke-linecap: square"/>
   </g>
   <g id="line2d_15">
    <path d="M 89.630426 224.799633 
L 91.336354 115.455536 
L 93.042282 160.578558 
L 94.748209 189.316021 
L 96.454137 176.169931 
L 98.160065 160.989875 
L 99.865992 166.573741 
L 101.57192 173.818348 
L 103.277848 161.193462 
L 104.983775 141.325762 
L 106.689703 141.116712 
L 108.395631 150.576203 
L 110.101559 145.978563 
L 111.807486 125.741609 
L 113.513414 111.014107 
L 115.219342 122.032044 
L 118.631197 193.357491 
L 120.337125 204.76621 
L 122.043052 194.698006 
L 123.74898 183.097331 
L 125.454908 180.909136 
L 127.160835 183.155234 
L 128.866763 179.491137 
L 130.572691 170.995854 
L 132.278619 168.209199 
L 133.984546 172.489239 
L 135.690474 175.966041 
L 137.396402 170.464112 
L 140.808257 144.683004 
L 142.514185 137.787385 
L 144.220112 139.201974 
L 145.92604 144.157937 
L 147.631968 147.111967 
L 149.337896 150.361995 
L 151.043823 159.931506 
L 154.455679 194.94156 
L 156.161606 198.533257 
L 157.867534 187.423768 
L 159.573462 171.422324 
L 161.279389 156.946384 
L 162.985317 144.635227 
L 164.691245 134.048913 
L 166.397173 126.725064 
L 168.1031 125.318761 
L 169.809028 130.638188 
L 171.514956 143.567969 
L 173.220883 163.592173 
L 174.926811 184.955389 
L 176.632739 202.527259 
L 178.338666 213.224473 
L 180.044594 216.445885 
L 181.750522 214.649883 
L 183.45645 210.041047 
L 185.162377 203.295547 
L 186.868305 194.477984 
L 188.574233 183.607383 
L 190.28016 170.586199 
L 193.692016 140.65813 
L 195.397943 127.665302 
L 197.103871 118.146298 
L 198.809799 112.603985 
L 200.515727 111.155426 
L 202.221654 113.322361 
L 203.927582 117.918944 
L 207.339437 129.069204 
L 209.045365 133.797567 
L 210.751293 137.313907 
L 212.45722 139.518026 
L 214.163148 140.736166 
L 215.869076 141.746846 
L 217.575003 143.559338 
L 219.280931 146.974997 
L 220.986859 152.170606 
L 222.692787 158.726702 
L 226.104642 173.693641 
L 231.222425 197.580964 
L 236.340208 222.535967 
L 238.046136 229.853169 
L 239.752064 235.549265 
L 241.457991 238.867142 
L 243.163919 239.326772 
L 244.869847 236.915152 
L 246.575774 232.086237 
L 248.281702 225.584391 
L 253.399485 203.899078 
L 255.105413 197.997966 
L 256.811341 193.37741 
L 258.517268 190.137954 
L 260.223196 188.209179 
L 261.929124 187.380793 
L 263.635051 187.345685 
L 268.752834 188.614909 
L 270.458762 188.635653 
L 272.16469 188.272164 
L 273.870618 187.56059 
L 277.282473 185.514451 
L 280.694328 183.48614 
L 282.400256 182.749188 
L 284.106184 182.284019 
L 285.812111 182.113397 
L 287.518039 182.228974 
L 289.223967 182.599987 
L 290.929895 183.186224 
L 292.635822 183.950797 
L 294.34175 184.871062 
L 296.047678 185.946733 
L 297.753605 187.201593 
L 299.459533 188.679253 
L 301.165461 190.436524 
L 302.871388 192.531963 
L 304.577316 195.016246 
L 306.283244 197.92172 
L 307.989171 201.253923 
L 309.695099 204.983535 
L 313.106955 213.314734 
L 316.51881 221.843542 
L 318.224738 225.680722 
L 319.930665 228.922352 
L 321.636593 231.34036 
L 323.342521 232.73803 
L 325.048448 232.973438 
L 326.754376 231.977651 
L 328.460304 229.763253 
L 330.166232 226.42367 
L 331.872159 222.12065 
L 333.578087 217.064233 
L 336.989942 205.637146 
L 340.401798 193.979719 
L 342.107725 188.551026 
L 343.813653 183.590917 
L 345.519581 181.179046 
L 347.225509 184.894695 
L 348.931436 175.56303 
L 350.637364 145.612974 
L 352.343292 118.948244 
L 354.049219 121.407564 
L 355.755147 141.639832 
L 357.461075 159.255062 
L 359.167002 160.533542 
L 360.87293 147.908862 
L 362.578858 136.69581 
L 364.284786 142.94134 
L 365.990713 169.892722 
L 367.696641 205.085407 
L 369.402569 230.192916 
L 371.108496 235.090135 
L 372.814424 223.332477 
L 374.520352 207.397362 
L 376.226279 200.217831 
L 377.932207 207.172866 
L 379.638135 223.045586 
L 381.344063 236.911695 
L 383.04999 240.857137 
L 384.755918 235.135083 
L 386.461846 227.303139 
L 388.167773 226.346498 
L 389.873701 235.347793 
L 391.579629 248.509504 
L 393.285556 254.963792 
L 394.991484 246.298126 
L 396.697412 221.849249 
L 398.403339 189.352856 
L 400.109267 161.320544 
L 401.815195 147.976226 
L 403.521123 151.511923 
L 405.22705 165.88223 
L 406.932978 181.600987 
L 408.638906 192.108308 
L 410.344833 197.162586 
L 412.050761 201.748123 
L 413.756689 211.85064 
L 415.462616 229.383994 
L 417.168544 249.601105 
L 418.874472 263.041517 
L 420.5804 261.047117 
L 422.286327 240.940839 
L 425.698183 172.928226 
L 427.40411 149.57659 
L 429.110038 146.631541 
L 430.815966 164.379958 
L 434.227821 224.560186 
L 435.933749 243.551096 
L 437.639677 246.436244 
L 439.345604 234.877488 
L 441.051532 215.944027 
L 442.75746 198.431415 
L 444.463387 188.389392 
L 446.169315 186.715011 
L 447.875243 189.702751 
L 449.58117 191.746454 
L 451.287098 188.543892 
L 452.993026 179.151545 
L 454.698954 166.415281 
L 456.404881 155.649277 
L 458.110809 151.809908 
L 459.816737 156.78374 
L 461.522664 168.383639 
L 463.228592 181.330565 
L 464.93452 189.722753 
L 466.640447 189.664763 
L 468.346375 180.731786 
L 471.75823 151.88544 
L 473.464158 144.226746 
L 475.170086 147.247757 
L 476.876014 161.034668 
L 480.287869 202.448571 
L 481.993797 217.322522 
L 483.699724 222.231389 
L 485.405652 216.358078 
L 487.11158 202.119907 
L 488.817507 184.472338 
L 490.523435 169.173602 
L 492.229363 160.687464 
L 493.935291 160.78997 
L 495.641218 168.21107 
L 497.347146 179.304403 
L 499.053074 189.525244 
L 500.759001 194.995172 
L 502.464929 193.54399 
L 504.170857 185.212996 
L 505.876784 172.242592 
L 507.582712 158.347873 
L 509.28864 147.481127 
L 510.994568 142.650467 
L 512.700495 145.142093 
L 514.406423 154.253563 
L 516.112351 167.690837 
L 517.818278 182.45198 
L 519.524206 195.649087 
L 521.230134 205.000732 
L 522.936061 209.155451 
L 524.641989 207.946308 
L 526.347917 202.3569 
L 528.053845 194.105354 
L 529.759772 185.082844 
L 531.4657 176.92073 
L 533.171628 170.697016 
L 534.877555 166.780999 
L 536.583483 164.88905 
L 538.289411 164.321378 
L 539.995338 164.229034 
L 541.701266 163.807647 
L 543.407194 162.42446 
L 545.113122 159.697152 
L 546.819049 155.539716 
L 548.524977 150.16282 
L 551.936832 137.930523 
L 553.64276 132.605394 
L 555.348688 128.842715 
L 557.054615 127.249983 
L 558.760543 128.266548 
L 560.466471 132.128868 
L 562.172398 138.755496 
L 563.878326 147.59122 
L 567.290182 167.340867 
L 568.996109 175.435569 
L 570.702037 180.635353 
L 572.407965 182.127467 
L 574.113892 179.681118 
L 575.81982 173.71285 
L 577.525748 165.178033 
L 580.937603 145.585905 
L 582.643531 137.191122 
L 584.349459 131.187291 
L 586.055386 128.070777 
L 587.761314 127.642865 
L 589.467242 129.054164 
L 591.173169 131.06491 
L 592.879097 132.372217 
L 594.585025 131.900138 
L 596.290952 129.02232 
L 597.99688 123.683067 
L 599.702808 116.362402 
L 603.114663 99.69092 
L 604.820591 92.990305 
L 606.526519 89.36438 
L 608.232446 90.000061 
L 609.938374 95.248016 
L 611.644302 104.336167 
L 615.056157 126.886256 
L 616.762085 136.224953 
L 618.468013 141.877333 
L 620.17394 142.733461 
L 621.879868 138.549301 
L 623.585796 129.986555 
L 625.291723 118.340261 
L 628.703579 92.364543 
L 630.409506 81.753061 
L 632.115434 75.41606 
L 633.821362 74.979024 
L 635.52729 80.839777 
L 637.233217 91.752942 
L 640.645073 118.587384 
L 642.351 129.184438 
L 644.056928 135.011438 
L 645.762856 134.811604 
L 647.468783 128.62812 
L 649.174711 117.945733 
L 652.586566 92.615411 
L 654.292494 82.784236 
L 655.998422 78.199203 
L 657.70435 81.822848 
L 659.410277 96.164742 
L 661.116205 120.951506 
L 662.822133 151.203751 
L 664.52806 178.928481 
L 666.233988 196.570185 
L 667.939916 197.624938 
L 669.645843 174.680692 
L 671.351771 118.153093 
L 673.057699 20.281818 
L 673.057699 20.281818 
" clip-path="url(#pba88614042)" style="fill: none; stroke: #78003f; stroke-width: 2.2; stroke-linecap: square"/>
   </g>
   <g id="line2d_16">
    <path d="M 60.459063 176.737746 
L 702.229063 176.737746 
" clip-path="url(#pba88614042)" style="fill: none; stroke-dasharray: 3.33,1.44; stroke-dashoffset: 0; stroke: #0d1530; stroke-width: 0.9"/>
   </g>
   <g id="patch_3">
    <path d="M 60.459063 295 
L 60.459063 7.2 
" style="fill: none; stroke: #444444; stroke-width: 0.8; stroke-linejoin: miter; stroke-linecap: square"/>
   </g>
   <g id="patch_4">
    <path d="M 60.459063 295 
L 702.229063 295 
" style="fill: none; stroke: #444444; stroke-width: 0.8; stroke-linejoin: miter; stroke-linecap: square"/>
   </g>
   <g id="legend_1">
    <g id="line2d_17">
     <path d="M 69.459063 20.298437 
L 79.459063 20.298437 
L 89.459063 20.298437 
" style="fill: none; stroke: #104a7e; stroke-width: 2.2; stroke-linecap: square"/>
    </g>
    <g id="text_16">
     <!-- Funkcinė logistinė regresija -->
     <g style="fill: #222222" transform="translate(97.459063 23.798437) scale(0.1 -0.1)">
      <defs>
       <path id="DejaVuSans-46" d="M 628 4666 
L 3309 4666 
L 3309 4134 
L 1259 4134 
L 1259 2759 
L 3109 2759 
L 3109 2228 
L 1259 2228 
L 1259 0 
L 628 0 
L 628 4666 
z
" transform="scale(0.015625)"/>
       <path id="DejaVuSans-75" d="M 544 1381 
L 544 3500 
L 1119 3500 
L 1119 1403 
Q 1119 906 1312 657 
Q 1506 409 1894 409 
Q 2359 409 2629 706 
Q 2900 1003 2900 1516 
L 2900 3500 
L 3475 3500 
L 3475 0 
L 2900 0 
L 2900 538 
Q 2691 219 2414 64 
Q 2138 -91 1772 -91 
Q 1169 -91 856 284 
Q 544 659 544 1381 
z
M 1991 3584 
L 1991 3584 
z
" transform="scale(0.015625)"/>
       <path id="DejaVuSans-6b" d="M 581 4863 
L 1159 4863 
L 1159 1991 
L 2875 3500 
L 3609 3500 
L 1753 1863 
L 3688 0 
L 2938 0 
L 1159 1709 
L 1159 0 
L 581 0 
L 581 4863 
z
" transform="scale(0.015625)"/>
       <path id="DejaVuSans-63" d="M 3122 3366 
L 3122 2828 
Q 2878 2963 2633 3030 
Q 2388 3097 2138 3097 
Q 1578 3097 1268 2742 
Q 959 2388 959 1747 
Q 959 1106 1268 751 
Q 1578 397 2138 397 
Q 2388 397 2633 464 
Q 2878 531 3122 666 
L 3122 134 
Q 2881 22 2623 -34 
Q 2366 -91 2075 -91 
Q 1284 -91 818 406 
Q 353 903 353 1747 
Q 353 2603 823 3093 
Q 1294 3584 2113 3584 
Q 2378 3584 2631 3529 
Q 2884 3475 3122 3366 
z
" transform="scale(0.015625)"/>
       <path id="DejaVuSans-117" d="M 1778 4863 
L 2353 4863 
L 2353 4134 
L 1778 4134 
L 1778 4863 
z
M 2072 3584 
L 2072 3584 
z
M 3597 1894 
L 3597 1613 
L 953 1613 
Q 991 1019 1311 708 
Q 1631 397 2203 397 
Q 2534 397 2845 478 
Q 3156 559 3463 722 
L 3463 178 
Q 3153 47 2828 -22 
Q 2503 -91 2169 -91 
Q 1331 -91 842 396 
Q 353 884 353 1716 
Q 353 2575 817 3079 
Q 1281 3584 2069 3584 
Q 2775 3584 3186 3129 
Q 3597 2675 3597 1894 
z
M 3022 2063 
Q 3016 2534 2758 2815 
Q 2500 3097 2075 3097 
Q 1594 3097 1305 2825 
Q 1016 2553 972 2059 
L 3022 2063 
z
" transform="scale(0.015625)"/>
       <path id="DejaVuSans-74" d="M 1172 4494 
L 1172 3500 
L 2356 3500 
L 2356 3053 
L 1172 3053 
L 1172 1153 
Q 1172 725 1289 603 
Q 1406 481 1766 481 
L 2356 481 
L 2356 0 
L 1766 0 
Q 1100 0 847 248 
Q 594 497 594 1153 
L 594 3053 
L 172 3053 
L 172 3500 
L 594 3500 
L 594 4494 
L 1172 4494 
z
" transform="scale(0.015625)"/>
       <path id="DejaVuSans-65" d="M 3597 1894 
L 3597 1613 
L 953 1613 
Q 991 1019 1311 708 
Q 1631 397 2203 397 
Q 2534 397 2845 478 
Q 3156 559 3463 722 
L 3463 178 
Q 3153 47 2828 -22 
Q 2503 -91 2169 -91 
Q 1331 -91 842 396 
Q 353 884 353 1716 
Q 353 2575 817 3079 
Q 1281 3584 2069 3584 
Q 2775 3584 3186 3129 
Q 3597 2675 3597 1894 
z
M 3022 2063 
Q 3016 2534 2758 2815 
Q 2500 3097 2075 3097 
Q 1594 3097 1305 2825 
Q 1016 2553 972 2059 
L 3022 2063 
z
" transform="scale(0.015625)"/>
       <path id="DejaVuSans-6a" d="M 603 3500 
L 1178 3500 
L 1178 -63 
Q 1178 -731 923 -1031 
Q 669 -1331 103 -1331 
L -116 -1331 
L -116 -844 
L 38 -844 
Q 366 -844 484 -692 
Q 603 -541 603 -63 
L 603 3500 
z
M 603 4863 
L 1178 4863 
L 1178 4134 
L 603 4134 
L 603 4863 
z
" transform="scale(0.015625)"/>
      </defs>
      <use xlink:href="#DejaVuSans-46"/>
      <use xlink:href="#DejaVuSans-75" x="52.019531"/>
      <use xlink:href="#DejaVuSans-6e" x="115.398438"/>
      <use xlink:href="#DejaVuSans-6b" x="178.777344"/>
      <use xlink:href="#DejaVuSans-63" x="236.6875"/>
      <use xlink:href="#DejaVuSans-69" x="291.667969"/>
      <use xlink:href="#DejaVuSans-6e" x="319.451172"/>
      <use xlink:href="#DejaVuSans-117" x="382.830078"/>
      <use xlink:href="#DejaVuSans-20" x="444.353516"/>
      <use xlink:href="#DejaVuSans-6c" x="476.140625"/>
      <use xlink:href="#DejaVuSans-6f" x="503.923828"/>
      <use xlink:href="#DejaVuSans-67" x="565.105469"/>
      <use xlink:href="#DejaVuSans-69" x="628.582031"/>
      <use xlink:href="#DejaVuSans-73" x="656.365234"/>
      <use xlink:href="#DejaVuSans-74" x="708.464844"/>
      <use xlink:href="#DejaVuSans-69" x="747.673828"/>
      <use xlink:href="#DejaVuSans-6e" x="775.457031"/>
      <use xlink:href="#DejaVuSans-117" x="838.835938"/>
      <use xlink:href="#DejaVuSans-20" x="900.359375"/>
      <use xlink:href="#DejaVuSans-72" x="932.146484"/>
      <use xlink:href="#DejaVuSans-65" x="971.009766"/>
      <use xlink:href="#DejaVuSans-67" x="1032.533203"/>
      <use xlink:href="#DejaVuSans-72" x="1096.009766"/>
      <use xlink:href="#DejaVuSans-65" x="1134.873047"/>
      <use xlink:href="#DejaVuSans-73" x="1196.396484"/>
      <use xlink:href="#DejaVuSans-69" x="1248.496094"/>
      <use xlink:href="#DejaVuSans-6a" x="1276.279297"/>
      <use xlink:href="#DejaVuSans-61" x="1304.0625"/>
     </g>
    </g>
    <g id="line2d_18">
     <path d="M 69.459063 34.976562 
L 79.459063 34.976562 
L 89.459063 34.976562 
" style="fill: none; stroke: #78003f; stroke-width: 2.2; stroke-linecap: square"/>
    </g>
    <g id="text_17">
     <!-- Funkcinis tiesinis SVM -->
     <g style="fill: #222222" transform="translate(97.459063 38.476562) scale(0.1 -0.1)">
      <defs>
       <path id="DejaVuSans-56" d="M 1831 0 
L 50 4666 
L 709 4666 
L 2188 738 
L 3669 4666 
L 4325 4666 
L 2547 0 
L 1831 0 
z
" transform="scale(0.015625)"/>
       <path id="DejaVuSans-4d" d="M 628 4666 
L 1569 4666 
L 2759 1491 
L 3956 4666 
L 4897 4666 
L 4897 0 
L 4281 0 
L 4281 4097 
L 3078 897 
L 2444 897 
L 1241 4097 
L 1241 0 
L 628 0 
L 628 4666 
z
" transform="scale(0.015625)"/>
      </defs>
      <use xlink:href="#DejaVuSans-46"/>
      <use xlink:href="#DejaVuSans-75" x="52.019531"/>
      <use xlink:href="#DejaVuSans-6e" x="115.398438"/>
      <use xlink:href="#DejaVuSans-6b" x="178.777344"/>
      <use xlink:href="#DejaVuSans-63" x="236.6875"/>
      <use xlink:href="#DejaVuSans-69" x="291.667969"/>
      <use xlink:href="#DejaVuSans-6e" x="319.451172"/>
      <use xlink:href="#DejaVuSans-69" x="382.830078"/>
      <use xlink:href="#DejaVuSans-73" x="410.613281"/>
      <use xlink:href="#DejaVuSans-20" x="462.712891"/>
      <use xlink:href="#DejaVuSans-74" x="494.5"/>
      <use xlink:href="#DejaVuSans-69" x="533.708984"/>
      <use xlink:href="#DejaVuSans-65" x="561.492188"/>
      <use xlink:href="#DejaVuSans-73" x="623.015625"/>
      <use xlink:href="#DejaVuSans-69" x="675.115234"/>
      <use xlink:href="#DejaVuSans-6e" x="702.898438"/>
      <use xlink:href="#DejaVuSans-69" x="766.277344"/>
      <use xlink:href="#DejaVuSans-73" x="794.060547"/>
      <use xlink:href="#DejaVuSans-20" x="846.160156"/>
      <use xlink:href="#DejaVuSans-53" x="877.947266"/>
      <use xlink:href="#DejaVuSans-56" x="941.423828"/>
      <use xlink:href="#DejaVuSans-4d" x="1009.832031"/>
     </g>
    </g>
   </g>
  </g>
 </g>
 <defs>
  <clipPath id="pba88614042">
   <rect x="60.459063" y="7.2" width="641.77" height="287.8"/>
  </clipPath>
 </defs>
</svg>
