<?xml version="1.0" encoding="utf-8" standalone="no"?>
<!DOCTYPE svg PUBLIC "-//W3C//DTD SVG 1.1//EN"
  "http://www.w3.org/Graphics/SVG/1.1/DTD/svg11.dtd">
<svg xmlns:xlink="http://www.w3.org/1999/xlink" width="709.456562pt" height="334.491875pt" viewBox="0 0 709.456562 334.491875" xmlns="http://www.w3.org/2000/svg" version="1.1">
 <metadata>
  <rdf:RDF xmlns:dc="http://purl.org/dc/elements/1.1/" xmlns:cc="http://creativecommons.org/ns#" xmlns:rdf="http://www.w3.org/1999/02/22-rdf-syntax-ns#">
   <cc:Work>
    <dc:type rdf:resource="http://purl.org/dc/dcmitype/StillImage"/>
    <dc:date>2026-04-26T17:36:25.200550</dc:date>
    <dc:format>image/svg+xml</dc:format>
    <dc:creator>
     <cc:Agent>
      <dc:title>Matplotlib v3.8.0, https://matplotlib.org/</dc:title>
     </cc:Agent>
    </dc:creator>
   </cc:Work>
  </rdf:RDF>
 </metadata>
 <defs>
  <style type="text/css">*{stroke-linejoin: round; stroke-linecap: butt}</style>
 </defs>
 <g id="figure_1">
  <g id="patch_1">
   <path d="M 0 334.491875 
L 709.456562 334.491875 
L 709.456562 0 
L 0 0 
z
" style="fill: #ffffff"/>
  </g>
  <g id="axes_1">
   <g id="patch_2">
    <path d="M 54.096563 295 
L 702.256562 295 
L 702.256562 7.2 
L 54.096563 7.2 
z
" style="fill: #ffffff"/>
   </g>
   <g id="matplotlib.axis_1">
    <g id="xtick_1">
     <g id="line2d_1">
      <defs>
       <path id="m3a9964bfc0" d="M 0 0 
L 0 3.5 
" style="stroke: #222222; stroke-width: 0.8"/>
      </defs>
      <g>
       <use xlink:href="#m3a9964bfc0" x="138.691608" y="295" style="fill: #222222; stroke: #222222; stroke-width: 0.8"/>
      </g>
     </g>
     <g id="text_1">
      <!-- 400 -->
      <g style="fill: #222222" transform="translate(129.147858 309.598437) scale(0.1 -0.1)">
       <defs>
        <path id="DejaVuSans-34" d="M 2419 4116 
L 825 1625 
L 2419 1625 
L 2419 4116 
z
M 2253 4666 
L 3047 4666 
L 3047 1625 
L 3713 1625 
L 3713 1100 
L 3047 1100 
L 3047 0 
L 2419 0 
L 2419 1100 
L 313 1100 
L 313 1709 
L 2253 4666 
z
" transform="scale(0.015625)"/>
        <path id="DejaVuSans-30" d="M 2034 4250 
Q 1547 4250 1301 3770 
Q 1056 3291 1056 2328 
Q 1056 1369 1301 889 
Q 1547 409 2034 409 
Q 2525 409 2770 889 
Q 3016 1369 3016 2328 
Q 3016 3291 2770 3770 
Q 2525 4250 2034 4250 
z
M 2034 4750 
Q 2819 4750 3233 4129 
Q 3647 3509 3647 2328 
Q 3647 1150 3233 529 
Q 2819 -91 2034 -91 
Q 1250 -91 836 529 
Q 422 1150 422 2328 
Q 422 3509 836 4129 
Q 1250 4750 2034 4750 
z
" transform="scale(0.015625)"/>
       </defs>
       <use xlink:href="#DejaVuSans-34"/>
       <use xlink:href="#DejaVuSans-30" x="63.623047"/>
       <use xlink:href="#DejaVuSans-30" x="127.246094"/>
      </g>
     </g>
    </g>
    <g id="xtick_2">
     <g id="line2d_2">
      <g>
       <use xlink:href="#m3a9964bfc0" x="224.837275" y="295" style="fill: #222222; stroke: #222222; stroke-width: 0.8"/>
      </g>
     </g>
     <g id="text_2">
      <!-- 500 -->
      <g style="fill: #222222" transform="translate(215.293525 309.598437) scale(0.1 -0.1)">
       <defs>
        <path id="DejaVuSans-35" d="M 691 4666 
L 3169 4666 
L 3169 4134 
L 1269 4134 
L 1269 2991 
Q 1406 3038 1543 3061 
Q 1681 3084 1819 3084 
Q 2600 3084 3056 2656 
Q 3513 2228 3513 1497 
Q 3513 744 3044 326 
Q 2575 -91 1722 -91 
Q 1428 -91 1123 -41 
Q 819 9 494 109 
L 494 744 
Q 775 591 1075 516 
Q 1375 441 1709 441 
Q 2250 441 2565 725 
Q 2881 1009 2881 1497 
Q 2881 1984 2565 2268 
Q 2250 2553 1709 2553 
Q 1456 2553 1204 2497 
Q 953 2441 691 2322 
L 691 4666 
z
" transform="scale(0.015625)"/>
       </defs>
       <use xlink:href="#DejaVuSans-35"/>
       <use xlink:href="#DejaVuSans-30" x="63.623047"/>
       <use xlink:href="#DejaVuSans-30" x="127.246094"/>
      </g>
     </g>
    </g>
    <g id="xtick_3">
     <g id="line2d_3">
      <g>
       <use xlink:href="#m3a9964bfc0" x="310.982942" y="295" style="fill: #222222; stroke: #222222; stroke-width: 0.8"/>
      </g>
     </g>
     <g id="text_3">
      <!-- 600 -->
      <g style="fill: #222222" transform="translate(301.439192 309.598437) scale(0.1 -0.1)">
       <defs>
        <path id="DejaVuSans-36" d="M 2113 2584 
Q 1688 2584 1439 2293 
Q 1191 2003 1191 1497 
Q 1191 994 1439 701 
Q 1688 409 2113 409 
Q 2538 409 2786 701 
Q 3034 994 3034 1497 
Q 3034 2003 2786 2293 
Q 2538 2584 2113 2584 
z
M 3366 4563 
L 3366 3988 
Q 3128 4100 2886 4159 
Q 2644 4219 2406 4219 
Q 1781 4219 1451 3797 
Q 1122 3375 1075 2522 
Q 1259 2794 1537 2939 
Q 1816 3084 2150 3084 
Q 2853 3084 3261 2657 
Q 3669 2231 3669 1497 
Q 3669 778 3244 343 
Q 2819 -91 2113 -91 
Q 1303 -91 875 529 
Q 447 1150 447 2328 
Q 447 3434 972 4092 
Q 1497 4750 2381 4750 
Q 2619 4750 2861 4703 
Q 3103 4656 3366 4563 
z
" transform="scale(0.015625)"/>
       </defs>
       <use xlink:href="#DejaVuSans-36"/>
       <use xlink:href="#DejaVuSans-30" x="63.623047"/>
       <use xlink:href="#DejaVuSans-30" x="127.246094"/>
      </g>
     </g>
    </g>
    <g id="xtick_4">
     <g id="line2d_4">
      <g>
       <use xlink:href="#m3a9964bfc0" x="397.128609" y="295" style="fill: #222222; stroke: #222222; stroke-width: 0.8"/>
      </g>
     </g>
     <g id="text_4">
      <!-- 700 -->
      <g style="fill: #222222" transform="translate(387.584859 309.598437) scale(0.1 -0.1)">
       <defs>
        <path id="DejaVuSans-37" d="M 525 4666 
L 3525 4666 
L 3525 4397 
L 1831 0 
L 1172 0 
L 2766 4134 
L 525 4134 
L 525 4666 
z
" transform="scale(0.015625)"/>
       </defs>
       <use xlink:href="#DejaVuSans-37"/>
       <use xlink:href="#DejaVuSans-30" x="63.623047"/>
       <use xlink:href="#DejaVuSans-30" x="127.246094"/>
      </g>
     </g>
    </g>
    <g id="xtick_5">
     <g id="line2d_5">
      <g>
       <use xlink:href="#m3a9964bfc0" x="483.274276" y="295" style="fill: #222222; stroke: #222222; stroke-width: 0.8"/>
      </g>
     </g>
     <g id="text_5">
      <!-- 800 -->
      <g style="fill: #222222" transform="translate(473.730526 309.598437) scale(0.1 -0.1)">
       <defs>
        <path id="DejaVuSans-38" d="M 2034 2216 
Q 1584 2216 1326 1975 
Q 1069 1734 1069 1313 
Q 1069 891 1326 650 
Q 1584 409 2034 409 
Q 2484 409 2743 651 
Q 3003 894 3003 1313 
Q 3003 1734 2745 1975 
Q 2488 2216 2034 2216 
z
M 1403 2484 
Q 997 2584 770 2862 
Q 544 3141 544 3541 
Q 544 4100 942 4425 
Q 1341 4750 2034 4750 
Q 2731 4750 3128 4425 
Q 3525 4100 3525 3541 
Q 3525 3141 3298 2862 
Q 3072 2584 2669 2484 
Q 3125 2378 3379 2068 
Q 3634 1759 3634 1313 
Q 3634 634 3220 271 
Q 2806 -91 2034 -91 
Q 1263 -91 848 271 
Q 434 634 434 1313 
Q 434 1759 690 2068 
Q 947 2378 1403 2484 
z
M 1172 3481 
Q 1172 3119 1398 2916 
Q 1625 2713 2034 2713 
Q 2441 2713 2670 2916 
Q 2900 3119 2900 3481 
Q 2900 3844 2670 4047 
Q 2441 4250 2034 4250 
Q 1625 4250 1398 4047 
Q 1172 3844 1172 3481 
z
" transform="scale(0.015625)"/>
       </defs>
       <use xlink:href="#DejaVuSans-38"/>
       <use xlink:href="#DejaVuSans-30" x="63.623047"/>
       <use xlink:href="#DejaVuSans-30" x="127.246094"/>
      </g>
     </g>
    </g>
    <g id="xtick_6">
     <g id="line2d_6">
      <g>
       <use xlink:href="#m3a9964bfc0" x="569.419944" y="295" style="fill: #222222; stroke: #222222; stroke-width: 0.8"/>
      </g>
     </g>
     <g id="text_6">
      <!-- 900 -->
      <g style="fill: #222222" transform="translate(559.876194 309.598437) scale(0.1 -0.1)">
       <defs>
        <path id="DejaVuSans-39" d="M 703 97 
L 703 672 
Q 941 559 1184 500 
Q 1428 441 1663 441 
Q 2288 441 2617 861 
Q 2947 1281 2994 2138 
Q 2813 1869 2534 1725 
Q 2256 1581 1919 1581 
Q 1219 1581 811 2004 
Q 403 2428 403 3163 
Q 403 3881 828 4315 
Q 1253 4750 1959 4750 
Q 2769 4750 3195 4129 
Q 3622 3509 3622 2328 
Q 3622 1225 3098 567 
Q 2575 -91 1691 -91 
Q 1453 -91 1209 -44 
Q 966 3 703 97 
z
M 1959 2075 
Q 2384 2075 2632 2365 
Q 2881 2656 2881 3163 
Q 2881 3666 2632 3958 
Q 2384 4250 1959 4250 
Q 1534 4250 1286 3958 
Q 1038 3666 1038 3163 
Q 1038 2656 1286 2365 
Q 1534 2075 1959 2075 
z
" transform="scale(0.015625)"/>
       </defs>
       <use xlink:href="#DejaVuSans-39"/>
       <use xlink:href="#DejaVuSans-30" x="63.623047"/>
       <use xlink:href="#DejaVuSans-30" x="127.246094"/>
      </g>
     </g>
    </g>
    <g id="xtick_7">
     <g id="line2d_7">
      <g>
       <use xlink:href="#m3a9964bfc0" x="655.565611" y="295" style="fill: #222222; stroke: #222222; stroke-width: 0.8"/>
      </g>
     </g>
     <g id="text_7">
      <!-- 1000 -->
      <g style="fill: #222222" transform="translate(642.840611 309.598437) scale(0.1 -0.1)">
       <defs>
        <path id="DejaVuSans-31" d="M 794 531 
L 1825 531 
L 1825 4091 
L 703 3866 
L 703 4441 
L 1819 4666 
L 2450 4666 
L 2450 531 
L 3481 531 
L 3481 0 
L 794 0 
L 794 531 
z
" transform="scale(0.015625)"/>
       </defs>
       <use xlink:href="#DejaVuSans-31"/>
       <use xlink:href="#DejaVuSans-30" x="63.623047"/>
       <use xlink:href="#DejaVuSans-30" x="127.246094"/>
       <use xlink:href="#DejaVuSans-30" x="190.869141"/>
      </g>
     </g>
    </g>
    <g id="text_8">
     <!-- Bangos ilgis, nm -->
     <g style="fill: #222222" transform="translate(328.671875 324.79625) scale(0.12 -0.12)">
      <defs>
       <path id="DejaVuSans-42" d="M 1259 2228 
L 1259 519 
L 2272 519 
Q 2781 519 3026 730 
Q 3272 941 3272 1375 
Q 3272 1813 3026 2020 
Q 2781 2228 2272 2228 
L 1259 2228 
z
M 1259 4147 
L 1259 2741 
L 2194 2741 
Q 2656 2741 2882 2914 
Q 3109 3088 3109 3444 
Q 3109 3797 2882 3972 
Q 2656 4147 2194 4147 
L 1259 4147 
z
M 628 4666 
L 2241 4666 
Q 2963 4666 3353 4366 
Q 3744 4066 3744 3513 
Q 3744 3084 3544 2831 
Q 3344 2578 2956 2516 
Q 3422 2416 3680 2098 
Q 3938 1781 3938 1306 
Q 3938 681 3513 340 
Q 3088 0 2303 0 
L 628 0 
L 628 4666 
z
" transform="scale(0.015625)"/>
       <path id="DejaVuSans-61" d="M 2194 1759 
Q 1497 1759 1228 1600 
Q 959 1441 959 1056 
Q 959 750 1161 570 
Q 1363 391 1709 391 
Q 2188 391 2477 730 
Q 2766 1069 2766 1631 
L 2766 1759 
L 2194 1759 
z
M 3341 1997 
L 3341 0 
L 2766 0 
L 2766 531 
Q 2569 213 2275 61 
Q 1981 -91 1556 -91 
Q 1019 -91 701 211 
Q 384 513 384 1019 
Q 384 1609 779 1909 
Q 1175 2209 1959 2209 
L 2766 2209 
L 2766 2266 
Q 2766 2663 2505 2880 
Q 2244 3097 1772 3097 
Q 1472 3097 1187 3025 
Q 903 2953 641 2809 
L 641 3341 
Q 956 3463 1253 3523 
Q 1550 3584 1831 3584 
Q 2591 3584 2966 3190 
Q 3341 2797 3341 1997 
z
" transform="scale(0.015625)"/>
       <path id="DejaVuSans-6e" d="M 3513 2113 
L 3513 0 
L 2938 0 
L 2938 2094 
Q 2938 2591 2744 2837 
Q 2550 3084 2163 3084 
Q 1697 3084 1428 2787 
Q 1159 2491 1159 1978 
L 1159 0 
L 581 0 
L 581 3500 
L 1159 3500 
L 1159 2956 
Q 1366 3272 1645 3428 
Q 1925 3584 2291 3584 
Q 2894 3584 3203 3211 
Q 3513 2838 3513 2113 
z
" transform="scale(0.015625)"/>
       <path id="DejaVuSans-67" d="M 2906 1791 
Q 2906 2416 2648 2759 
Q 2391 3103 1925 3103 
Q 1463 3103 1205 2759 
Q 947 2416 947 1791 
Q 947 1169 1205 825 
Q 1463 481 1925 481 
Q 2391 481 2648 825 
Q 2906 1169 2906 1791 
z
M 3481 434 
Q 3481 -459 3084 -895 
Q 2688 -1331 1869 -1331 
Q 1566 -1331 1297 -1286 
Q 1028 -1241 775 -1147 
L 775 -588 
Q 1028 -725 1275 -790 
Q 1522 -856 1778 -856 
Q 2344 -856 2625 -561 
Q 2906 -266 2906 331 
L 2906 616 
Q 2728 306 2450 153 
Q 2172 0 1784 0 
Q 1141 0 747 490 
Q 353 981 353 1791 
Q 353 2603 747 3093 
Q 1141 3584 1784 3584 
Q 2172 3584 2450 3431 
Q 2728 3278 2906 2969 
L 2906 3500 
L 3481 3500 
L 3481 434 
z
" transform="scale(0.015625)"/>
       <path id="DejaVuSans-6f" d="M 1959 3097 
Q 1497 3097 1228 2736 
Q 959 2375 959 1747 
Q 959 1119 1226 758 
Q 1494 397 1959 397 
Q 2419 397 2687 759 
Q 2956 1122 2956 1747 
Q 2956 2369 2687 2733 
Q 2419 3097 1959 3097 
z
M 1959 3584 
Q 2709 3584 3137 3096 
Q 3566 2609 3566 1747 
Q 3566 888 3137 398 
Q 2709 -91 1959 -91 
Q 1206 -91 779 398 
Q 353 888 353 1747 
Q 353 2609 779 3096 
Q 1206 3584 1959 3584 
z
" transform="scale(0.015625)"/>
       <path id="DejaVuSans-73" d="M 2834 3397 
L 2834 2853 
Q 2591 2978 2328 3040 
Q 2066 3103 1784 3103 
Q 1356 3103 1142 2972 
Q 928 2841 928 2578 
Q 928 2378 1081 2264 
Q 1234 2150 1697 2047 
L 1894 2003 
Q 2506 1872 2764 1633 
Q 3022 1394 3022 966 
Q 3022 478 2636 193 
Q 2250 -91 1575 -91 
Q 1294 -91 989 -36 
Q 684 19 347 128 
L 347 722 
Q 666 556 975 473 
Q 1284 391 1588 391 
Q 1994 391 2212 530 
Q 2431 669 2431 922 
Q 2431 1156 2273 1281 
Q 2116 1406 1581 1522 
L 1381 1569 
Q 847 1681 609 1914 
Q 372 2147 372 2553 
Q 372 3047 722 3315 
Q 1072 3584 1716 3584 
Q 2034 3584 2315 3537 
Q 2597 3491 2834 3397 
z
" transform="scale(0.015625)"/>
       <path id="DejaVuSans-20" transform="scale(0.015625)"/>
       <path id="DejaVuSans-69" d="M 603 3500 
L 1178 3500 
L 1178 0 
L 603 0 
L 603 3500 
z
M 603 4863 
L 1178 4863 
L 1178 4134 
L 603 4134 
L 603 4863 
z
" transform="scale(0.015625)"/>
       <path id="DejaVuSans-6c" d="M 603 4863 
L 1178 4863 
L 1178 0 
L 603 0 
L 603 4863 
z
" transform="scale(0.015625)"/>
       <path id="DejaVuSans-2c" d="M 750 794 
L 1409 794 
L 1409 256 
L 897 -744 
L 494 -744 
L 750 256 
L 750 794 
z
" transform="scale(0.015625)"/>
       <path id="DejaVuSans-6d" d="M 3328 2828 
Q 3544 3216 3844 3400 
Q 4144 3584 4550 3584 
Q 5097 3584 5394 3201 
Q 5691 2819 5691 2113 
L 5691 0 
L 5113 0 
L 5113 2094 
Q 5113 2597 4934 2840 
Q 4756 3084 4391 3084 
Q 3944 3084 3684 2787 
Q 3425 2491 3425 1978 
L 3425 0 
L 2847 0 
L 2847 2094 
Q 2847 2600 2669 2842 
Q 2491 3084 2119 3084 
Q 1678 3084 1418 2786 
Q 1159 2488 1159 1978 
L 1159 0 
L 581 0 
L 581 3500 
L 1159 3500 
L 1159 2956 
Q 1356 3278 1631 3431 
Q 1906 3584 2284 3584 
Q 2666 3584 2933 3390 
Q 3200 3197 3328 2828 
z
" transform="scale(0.015625)"/>
      </defs>
      <use xlink:href="#DejaVuSans-42"/>
      <use xlink:href="#DejaVuSans-61" x="68.603516"/>
      <use xlink:href="#DejaVuSans-6e" x="129.882812"/>
      <use xlink:href="#DejaVuSans-67" x="193.261719"/>
      <use xlink:href="#DejaVuSans-6f" x="256.738281"/>
      <use xlink:href="#DejaVuSans-73" x="317.919922"/>
      <use xlink:href="#DejaVuSans-20" x="370.019531"/>
      <use xlink:href="#DejaVuSans-69" x="401.806641"/>
      <use xlink:href="#DejaVuSans-6c" x="429.589844"/>
      <use xlink:href="#DejaVuSans-67" x="457.373047"/>
      <use xlink:href="#DejaVuSans-69" x="520.849609"/>
      <use xlink:href="#DejaVuSans-73" x="548.632812"/>
      <use xlink:href="#DejaVuSans-2c" x="600.732422"/>
      <use xlink:href="#DejaVuSans-20" x="632.519531"/>
      <use xlink:href="#DejaVuSans-6e" x="664.306641"/>
      <use xlink:href="#DejaVuSans-6d" x="727.685547"/>
     </g>
    </g>
   </g>
   <g id="matplotlib.axis_2">
    <g id="ytick_1">
     <g id="line2d_8">
      <defs>
       <path id="m9653711652" d="M 0 0 
L -3.5 0 
" style="stroke: #222222; stroke-width: 0.8"/>
      </defs>
      <g>
       <use xlink:href="#m9653711652" x="54.096563" y="261.586274" style="fill: #222222; stroke: #222222; stroke-width: 0.8"/>
      </g>
     </g>
     <g id="text_9">
      <!-- −7.5 -->
      <g style="fill: #222222" transform="translate(22.81375 265.385493) scale(0.1 -0.1)">
       <defs>
        <path id="DejaVuSans-2212" d="M 678 2272 
L 4684 2272 
L 4684 1741 
L 678 1741 
L 678 2272 
z
" transform="scale(0.015625)"/>
        <path id="DejaVuSans-2e" d="M 684 794 
L 1344 794 
L 1344 0 
L 684 0 
L 684 794 
z
" transform="scale(0.015625)"/>
       </defs>
       <use xlink:href="#DejaVuSans-2212"/>
       <use xlink:href="#DejaVuSans-37" x="83.789062"/>
       <use xlink:href="#DejaVuSans-2e" x="147.412109"/>
       <use xlink:href="#DejaVuSans-35" x="179.199219"/>
      </g>
     </g>
    </g>
    <g id="ytick_2">
     <g id="line2d_9">
      <g>
       <use xlink:href="#m9653711652" x="54.096563" y="223.441874" style="fill: #222222; stroke: #222222; stroke-width: 0.8"/>
      </g>
     </g>
     <g id="text_10">
      <!-- −5.0 -->
      <g style="fill: #222222" transform="translate(22.81375 227.241093) scale(0.1 -0.1)">
       <use xlink:href="#DejaVuSans-2212"/>
       <use xlink:href="#DejaVuSans-35" x="83.789062"/>
       <use xlink:href="#DejaVuSans-2e" x="147.412109"/>
       <use xlink:href="#DejaVuSans-30" x="179.199219"/>
      </g>
     </g>
    </g>
    <g id="ytick_3">
     <g id="line2d_10">
      <g>
       <use xlink:href="#m9653711652" x="54.096563" y="185.297474" style="fill: #222222; stroke: #222222; stroke-width: 0.8"/>
      </g>
     </g>
     <g id="text_11">
      <!-- −2.5 -->
      <g style="fill: #222222" transform="translate(22.81375 189.096693) scale(0.1 -0.1)">
       <defs>
        <path id="DejaVuSans-32" d="M 1228 531 
L 3431 531 
L 3431 0 
L 469 0 
L 469 531 
Q 828 903 1448 1529 
Q 2069 2156 2228 2338 
Q 2531 2678 2651 2914 
Q 2772 3150 2772 3378 
Q 2772 3750 2511 3984 
Q 2250 4219 1831 4219 
Q 1534 4219 1204 4116 
Q 875 4013 500 3803 
L 500 4441 
Q 881 4594 1212 4672 
Q 1544 4750 1819 4750 
Q 2544 4750 2975 4387 
Q 3406 4025 3406 3419 
Q 3406 3131 3298 2873 
Q 3191 2616 2906 2266 
Q 2828 2175 2409 1742 
Q 1991 1309 1228 531 
z
" transform="scale(0.015625)"/>
       </defs>
       <use xlink:href="#DejaVuSans-2212"/>
       <use xlink:href="#DejaVuSans-32" x="83.789062"/>
       <use xlink:href="#DejaVuSans-2e" x="147.412109"/>
       <use xlink:href="#DejaVuSans-35" x="179.199219"/>
      </g>
     </g>
    </g>
    <g id="ytick_4">
     <g id="line2d_11">
      <g>
       <use xlink:href="#m9653711652" x="54.096563" y="147.153074" style="fill: #222222; stroke: #222222; stroke-width: 0.8"/>
      </g>
     </g>
     <g id="text_12">
      <!-- 0.0 -->
      <g style="fill: #222222" transform="translate(31.193438 150.952292) scale(0.1 -0.1)">
       <use xlink:href="#DejaVuSans-30"/>
       <use xlink:href="#DejaVuSans-2e" x="63.623047"/>
       <use xlink:href="#DejaVuSans-30" x="95.410156"/>
      </g>
     </g>
    </g>
    <g id="ytick_5">
     <g id="line2d_12">
      <g>
       <use xlink:href="#m9653711652" x="54.096563" y="109.008673" style="fill: #222222; stroke: #222222; stroke-width: 0.8"/>
      </g>
     </g>
     <g id="text_13">
      <!-- 2.5 -->
      <g style="fill: #222222" transform="translate(31.193438 112.807892) scale(0.1 -0.1)">
       <use xlink:href="#DejaVuSans-32"/>
       <use xlink:href="#DejaVuSans-2e" x="63.623047"/>
       <use xlink:href="#DejaVuSans-35" x="95.410156"/>
      </g>
     </g>
    </g>
    <g id="ytick_6">
     <g id="line2d_13">
      <g>
       <use xlink:href="#m9653711652" x="54.096563" y="70.864273" style="fill: #222222; stroke: #222222; stroke-width: 0.8"/>
      </g>
     </g>
     <g id="text_14">
      <!-- 5.0 -->
      <g style="fill: #222222" transform="translate(31.193438 74.663492) scale(0.1 -0.1)">
       <use xlink:href="#DejaVuSans-35"/>
       <use xlink:href="#DejaVuSans-2e" x="63.623047"/>
       <use xlink:href="#DejaVuSans-30" x="95.410156"/>
      </g>
     </g>
    </g>
    <g id="ytick_7">
     <g id="line2d_14">
      <g>
       <use xlink:href="#m9653711652" x="54.096563" y="32.719873" style="fill: #222222; stroke: #222222; stroke-width: 0.8"/>
      </g>
     </g>
     <g id="text_15">
      <!-- 7.5 -->
      <g style="fill: #222222" transform="translate(31.193438 36.519092) scale(0.1 -0.1)">
       <use xlink:href="#DejaVuSans-37"/>
       <use xlink:href="#DejaVuSans-2e" x="63.623047"/>
       <use xlink:href="#DejaVuSans-35" x="95.410156"/>
      </g>
     </g>
    </g>
    <g id="text_16">
     <!-- Svoris -->
     <g style="fill: #222222" transform="translate(16.318125 169.390625) rotate(-90) scale(0.12 -0.12)">
      <defs>
       <path id="DejaVuSans-53" d="M 3425 4513 
L 3425 3897 
Q 3066 4069 2747 4153 
Q 2428 4238 2131 4238 
Q 1616 4238 1336 4038 
Q 1056 3838 1056 3469 
Q 1056 3159 1242 3001 
Q 1428 2844 1947 2747 
L 2328 2669 
Q 3034 2534 3370 2195 
Q 3706 1856 3706 1288 
Q 3706 609 3251 259 
Q 2797 -91 1919 -91 
Q 1588 -91 1214 -16 
Q 841 59 441 206 
L 441 856 
Q 825 641 1194 531 
Q 1563 422 1919 422 
Q 2459 422 2753 634 
Q 3047 847 3047 1241 
Q 3047 1584 2836 1778 
Q 2625 1972 2144 2069 
L 1759 2144 
Q 1053 2284 737 2584 
Q 422 2884 422 3419 
Q 422 4038 858 4394 
Q 1294 4750 2059 4750 
Q 2388 4750 2728 4690 
Q 3069 4631 3425 4513 
z
" transform="scale(0.015625)"/>
       <path id="DejaVuSans-76" d="M 191 3500 
L 800 3500 
L 1894 563 
L 2988 3500 
L 3597 3500 
L 2284 0 
L 1503 0 
L 191 3500 
z
" transform="scale(0.015625)"/>
       <path id="DejaVuSans-72" d="M 2631 2963 
Q 2534 3019 2420 3045 
Q 2306 3072 2169 3072 
Q 1681 3072 1420 2755 
Q 1159 2438 1159 1844 
L 1159 0 
L 581 0 
L 581 3500 
L 1159 3500 
L 1159 2956 
Q 1341 3275 1631 3429 
Q 1922 3584 2338 3584 
Q 2397 3584 2469 3576 
Q 2541 3569 2628 3553 
L 2631 2963 
z
" transform="scale(0.015625)"/>
      </defs>
      <use xlink:href="#DejaVuSans-53"/>
      <use xlink:href="#DejaVuSans-76" x="63.476562"/>
      <use xlink:href="#DejaVuSans-6f" x="122.65625"/>
      <use xlink:href="#DejaVuSans-72" x="183.837891"/>
      <use xlink:href="#DejaVuSans-69" x="224.951172"/>
      <use xlink:href="#DejaVuSans-73" x="252.734375"/>
     </g>
    </g>
   </g>
   <g id="line2d_15">
    <path d="M 83.558381 147.951545 
L 85.281294 146.134968 
L 87.004207 146.884615 
L 88.727121 147.362041 
L 92.172947 146.891448 
L 95.618774 147.104573 
L 97.341687 146.89483 
L 99.064601 146.564761 
L 100.787514 146.561288 
L 102.510427 146.718442 
L 104.233341 146.642059 
L 107.679167 146.061181 
L 109.402081 146.244227 
L 112.847908 147.429184 
L 114.570821 147.618721 
L 119.739561 147.222375 
L 123.185388 147.198817 
L 126.631214 147.011386 
L 130.077041 147.140253 
L 131.799954 147.048847 
L 136.968694 146.505976 
L 142.137434 146.660889 
L 145.583261 146.873865 
L 149.029088 147.455501 
L 150.752001 147.515171 
L 154.197828 147.064767 
L 159.366568 146.443867 
L 162.812395 146.29883 
L 164.535308 146.387204 
L 166.258221 146.602011 
L 171.426961 147.581525 
L 173.149875 147.759242 
L 176.595701 147.782923 
L 181.764441 147.447799 
L 186.933181 146.804004 
L 190.379008 146.337814 
L 193.824835 146.087594 
L 197.270661 146.099529 
L 209.331055 146.554965 
L 214.499795 146.658614 
L 221.391448 147.102501 
L 236.897668 148.185254 
L 240.343495 148.152824 
L 245.512235 147.842489 
L 252.403888 147.429515 
L 257.572628 147.329891 
L 298.922549 147.415469 
L 309.260029 147.760741 
L 319.597509 148.083428 
L 324.766249 148.034007 
L 331.657902 147.730423 
L 341.995382 147.226859 
L 343.718296 147.288588 
L 345.441209 147.133558 
L 348.887036 146.192994 
L 350.609949 146.233852 
L 354.055776 146.862627 
L 355.778689 146.883867 
L 359.224516 146.487841 
L 360.947429 146.591601 
L 362.670342 147.039355 
L 364.393256 147.624024 
L 366.116169 148.041145 
L 367.839082 148.122505 
L 373.007822 147.543158 
L 374.730736 147.658704 
L 378.176562 148.152767 
L 379.899476 148.218314 
L 385.068216 147.977243 
L 390.236956 148.452674 
L 391.959869 148.308707 
L 393.682783 147.902529 
L 397.128609 146.896942 
L 398.851523 146.675247 
L 400.574436 146.733987 
L 405.743176 147.408431 
L 410.911916 147.736418 
L 416.080656 148.586872 
L 417.803569 148.553738 
L 419.526483 148.219705 
L 422.972309 147.089785 
L 424.695223 146.701835 
L 426.418136 146.652908 
L 428.141049 146.947769 
L 431.586876 147.947567 
L 433.30979 148.26307 
L 435.032703 148.311002 
L 436.755616 148.118972 
L 440.201443 147.513479 
L 441.924356 147.346647 
L 445.370183 147.368466 
L 448.81601 147.349214 
L 455.707663 146.738938 
L 459.15349 147.014284 
L 462.599316 147.368799 
L 464.32223 147.367835 
L 467.768056 146.97741 
L 471.213883 146.612956 
L 472.936796 146.663145 
L 474.65971 146.892192 
L 479.82845 147.827324 
L 481.551363 147.908877 
L 483.274276 147.811302 
L 490.16593 146.886424 
L 491.888843 146.888127 
L 500.50341 147.432282 
L 503.949237 147.078394 
L 507.395063 146.667022 
L 509.117977 146.586768 
L 512.563803 146.779535 
L 519.455457 147.622618 
L 522.901283 147.671554 
L 528.070023 147.291714 
L 533.238763 146.987658 
L 548.744984 146.610105 
L 553.913724 146.357375 
L 557.35955 146.347803 
L 560.805377 146.52206 
L 569.419944 147.217826 
L 572.86577 147.201973 
L 578.03451 146.797698 
L 583.20325 146.396326 
L 586.649077 146.337441 
L 595.263644 146.360359 
L 600.432384 146.01047 
L 605.601124 145.701506 
L 609.046951 145.799253 
L 617.661517 146.573924 
L 621.107344 146.518634 
L 624.553171 146.182893 
L 629.721911 145.575056 
L 633.167737 145.462516 
L 636.613564 145.741188 
L 641.782304 146.363052 
L 645.228131 146.456538 
L 648.673958 146.176339 
L 653.842698 145.592187 
L 655.565611 145.516014 
L 657.288524 145.576215 
L 659.011438 145.814483 
L 662.457264 146.728867 
L 664.180178 147.189469 
L 665.903091 147.482558 
L 667.626004 147.500081 
L 669.348918 147.118899 
L 671.071831 146.179784 
L 672.794744 144.55381 
L 672.794744 144.55381 
" clip-path="url(#p268729068e)" style="fill: none; stroke: #4a4a4a; stroke-width: 2.2; stroke-linecap: square"/>
   </g>
   <g id="line2d_16">
    <path d="M 83.558381 120.162761 
L 85.281294 144.015123 
L 87.004207 158.090856 
L 88.727121 159.601319 
L 90.450034 149.331688 
L 92.172947 132.882382 
L 93.895861 119.220034 
L 95.618774 116.209516 
L 97.341687 125.749282 
L 99.064601 142.421753 
L 100.787514 156.917442 
L 102.510427 161.535043 
L 104.233341 154.077122 
L 107.679167 122.703589 
L 109.402081 114.711038 
L 111.124994 118.681517 
L 112.847908 132.884827 
L 114.570821 151.107545 
L 116.293734 166.933551 
L 118.016648 177.898992 
L 119.739561 186.243138 
L 121.462474 195.58401 
L 123.185388 206.399411 
L 124.908301 214.470008 
L 126.631214 213.818775 
L 128.354128 201.495835 
L 130.077041 179.997913 
L 131.799954 155.379915 
L 133.522868 132.789316 
L 136.968694 94.005945 
L 140.414521 50.240583 
L 142.137434 31.638562 
L 143.860348 22.863023 
L 145.583261 27.192066 
L 147.306174 43.124724 
L 149.029088 64.996282 
L 150.752001 85.375742 
L 152.474914 97.661233 
L 154.197828 97.857983 
L 155.920741 85.447403 
L 157.643654 63.679009 
L 159.366568 39.361216 
L 161.089481 21.770483 
L 162.812395 20.281818 
L 164.535308 41.002474 
L 166.258221 83.694359 
L 169.704048 199.531757 
L 171.426961 246.886971 
L 173.149875 274.560064 
L 174.872788 281.918182 
L 176.595701 275.211244 
L 178.318615 263.781821 
L 180.041528 255.313738 
L 181.764441 252.405191 
L 183.487355 251.892039 
L 185.210268 247.005862 
L 186.933181 231.219486 
L 188.656095 201.927222 
L 190.379008 162.210516 
L 192.101921 119.886473 
L 193.824835 84.394865 
L 195.547748 63.078278 
L 197.270661 58.508875 
L 198.993575 67.820956 
L 200.716488 84.069801 
L 202.439401 98.925581 
L 204.162315 105.674637 
L 205.885228 101.497517 
L 207.608141 88.27802 
L 209.331055 71.72189 
L 211.053968 59.177693 
L 212.776881 57.006577 
L 214.499795 68.443665 
L 216.222708 92.622201 
L 219.668535 158.631521 
L 221.391448 186.594066 
L 223.114362 203.461264 
L 224.837275 206.762081 
L 226.560188 197.294003 
L 228.283102 178.621256 
L 230.006015 155.977856 
L 231.728928 134.93375 
L 233.451842 120.163705 
L 235.174755 114.570262 
L 236.897668 118.896391 
L 238.620582 131.844549 
L 240.343495 150.610323 
L 243.789322 191.523692 
L 245.512235 207.47555 
L 247.235148 217.885201 
L 248.958062 222.310582 
L 250.680975 221.323837 
L 252.403888 216.184759 
L 254.126802 208.46119 
L 257.572628 191.069294 
L 259.295542 183.408782 
L 261.018455 177.013605 
L 262.741368 171.81381 
L 264.464282 167.506114 
L 267.910108 160.207168 
L 269.633022 156.860658 
L 271.355935 153.818603 
L 273.078849 151.389856 
L 274.801762 149.981044 
L 276.524675 149.994794 
L 278.247589 151.728907 
L 279.970502 155.294437 
L 281.693415 160.566067 
L 283.416329 167.173618 
L 286.862155 181.94075 
L 288.585069 188.628565 
L 290.307982 193.908076 
L 292.030895 197.239252 
L 293.753809 198.300072 
L 295.476722 197.022198 
L 297.199635 193.595507 
L 298.922549 188.441884 
L 300.645462 182.160282 
L 304.091289 169.013737 
L 305.814202 163.482188 
L 307.537115 159.32833 
L 309.260029 156.826303 
L 310.982942 156.030394 
L 312.705855 156.780742 
L 314.428769 158.728579 
L 317.874595 164.113094 
L 319.597509 166.284899 
L 321.320422 167.227592 
L 323.043335 166.331696 
L 324.766249 163.094803 
L 326.489162 157.173595 
L 328.212076 148.432668 
L 329.934989 136.991467 
L 331.657902 123.271745 
L 336.826642 78.00693 
L 338.549556 66.391954 
L 340.272469 59.183375 
L 341.995382 57.342604 
L 343.718296 60.710377 
L 345.441209 67.739333 
L 347.164122 75.772413 
L 348.887036 81.995674 
L 350.609949 84.81175 
L 352.332862 85.001919 
L 354.055776 85.967674 
L 355.778689 92.677164 
L 357.501602 109.53917 
L 359.224516 138.047054 
L 364.393256 248.855799 
L 366.116169 270.552725 
L 367.839082 277.358249 
L 369.561996 270.573561 
L 371.284909 254.275286 
L 376.453649 191.133275 
L 378.176562 172.745633 
L 379.899476 156.497128 
L 381.622389 142.610056 
L 383.345303 131.527345 
L 385.068216 123.539532 
L 386.791129 118.430493 
L 388.514043 115.604699 
L 390.236956 114.718049 
L 391.959869 116.327599 
L 393.682783 121.928607 
L 395.405696 133.10813 
L 397.128609 150.172428 
L 400.574436 191.515861 
L 402.297349 206.318291 
L 404.020263 211.743112 
L 405.743176 207.3459 
L 407.466089 196.437381 
L 409.189003 184.688949 
L 410.911916 177.427342 
L 412.634829 176.928993 
L 414.357743 181.180985 
L 416.080656 184.890479 
L 417.803569 182.304549 
L 419.526483 170.402002 
L 421.249396 150.835651 
L 422.972309 129.638402 
L 424.695223 114.749901 
L 426.418136 112.43081 
L 428.141049 124.220691 
L 429.863963 145.927792 
L 431.586876 169.184364 
L 433.30979 184.85126 
L 435.032703 186.730607 
L 436.755616 174.016515 
L 440.201443 127.708227 
L 441.924356 111.164603 
L 443.64727 107.330088 
L 445.370183 116.540879 
L 447.093096 134.338698 
L 448.81601 153.665623 
L 450.538923 167.852269 
L 452.261836 173.092416 
L 453.98475 169.465657 
L 455.707663 160.263388 
L 457.430576 150.095998 
L 459.15349 142.726794 
L 460.876403 139.595464 
L 462.599316 139.581175 
L 464.32223 139.957659 
L 466.045143 138.003476 
L 467.768056 132.515388 
L 471.213883 117.099451 
L 472.936796 113.743875 
L 474.65971 117.066473 
L 476.382623 127.390606 
L 479.82845 158.272944 
L 481.551363 170.278084 
L 483.274276 175.195993 
L 484.99719 172.10729 
L 486.720103 162.855078 
L 488.443017 151.432877 
L 490.16593 142.575903 
L 491.888843 140.080634 
L 493.611757 145.488664 
L 495.33467 157.591351 
L 497.057583 172.863017 
L 498.780497 186.61237 
L 500.50341 194.464302 
L 502.226323 193.732887 
L 503.949237 184.276533 
L 505.67215 168.546463 
L 507.395063 150.783602 
L 509.117977 135.640322 
L 510.84089 126.74065 
L 512.563803 125.688949 
L 514.286717 131.800227 
L 516.00963 142.522318 
L 517.732543 154.317745 
L 519.455457 163.713829 
L 521.17837 168.253719 
L 522.901283 167.125612 
L 524.624197 161.309126 
L 526.34711 153.191871 
L 528.070023 145.776909 
L 529.792937 141.751232 
L 531.51585 142.723858 
L 533.238763 148.84607 
L 534.961677 158.864483 
L 536.68459 170.523727 
L 538.407503 181.173691 
L 540.130417 188.428164 
L 541.85333 190.731066 
L 543.576244 187.701679 
L 545.299157 180.169225 
L 550.467897 149.580039 
L 552.19081 142.98902 
L 553.913724 139.8663 
L 555.636637 140.054906 
L 557.35955 142.811467 
L 559.082464 147.075357 
L 560.805377 151.743727 
L 562.52829 155.899857 
L 564.251204 158.956511 
L 565.974117 160.690167 
L 567.69703 161.166595 
L 569.419944 160.591924 
L 571.142857 159.149626 
L 572.86577 156.885449 
L 574.588684 153.677474 
L 576.311597 149.293454 
L 578.03451 143.510558 
L 579.757424 136.260464 
L 581.480337 127.760182 
L 584.926164 109.67556 
L 586.649077 102.170549 
L 588.37199 97.218738 
L 590.094904 95.683669 
L 591.817817 97.916179 
L 593.54073 103.64779 
L 595.263644 112.040709 
L 598.709471 131.731456 
L 600.432384 140.32874 
L 602.155297 146.603081 
L 603.878211 149.892098 
L 605.601124 150.000847 
L 607.324037 147.223393 
L 609.046951 142.29758 
L 612.492777 130.329941 
L 614.215691 125.476634 
L 615.938604 122.377483 
L 617.661517 121.205821 
L 619.384431 121.668627 
L 621.107344 123.14683 
L 622.830257 124.89487 
L 624.553171 126.234224 
L 626.276084 126.699801 
L 627.998997 126.125958 
L 629.721911 124.673819 
L 631.444824 122.801819 
L 633.167737 121.175695 
L 634.890651 120.514616 
L 636.613564 121.3869 
L 638.336477 124.001779 
L 640.059391 128.07461 
L 641.782304 132.839845 
L 643.505217 137.232 
L 645.228131 140.176108 
L 646.951044 140.881091 
L 648.673958 139.04475 
L 650.396871 134.936466 
L 653.842698 123.628119 
L 655.565611 119.248229 
L 657.288524 117.798158 
L 659.011438 120.436521 
L 660.734351 127.372127 
L 664.180178 147.832282 
L 665.903091 155.407606 
L 667.626004 157.470368 
L 669.348918 153.016615 
L 671.071831 142.725309 
L 672.794744 128.265537 
L 672.794744 128.265537 
" clip-path="url(#p268729068e)" style="fill: none; stroke: #b7d0ee; stroke-width: 2.2; stroke-linecap: square"/>
   </g>
   <g id="line2d_17">
    <path d="M 54.096563 147.153074 
L 702.256562 147.153074 
" clip-path="url(#p268729068e)" style="fill: none; stroke-dasharray: 3.33,1.44; stroke-dashoffset: 0; stroke: #0d1530; stroke-width: 0.9"/>
   </g>
   <g id="patch_3">
    <path d="M 54.096563 295 
L 54.096563 7.2 
" style="fill: none; stroke: #444444; stroke-width: 0.8; stroke-linejoin: miter; stroke-linecap: square"/>
   </g>
   <g id="patch_4">
    <path d="M 54.096563 295 
L 702.256562 295 
" style="fill: none; stroke: #444444; stroke-width: 0.8; stroke-linejoin: miter; stroke-linecap: square"/>
   </g>
   <g id="legend_1">
    <g id="line2d_18">
     <path d="M 554.633125 20.298437 
L 564.633125 20.298437 
L 574.633125 20.298437 
" style="fill: none; stroke: #4a4a4a; stroke-width: 2.2; stroke-linecap: square"/>
    </g>
    <g id="text_17">
     <!-- Neapdoroti duomenys -->
     <g style="fill: #222222" transform="translate(582.633125 23.798437) scale(0.1 -0.1)">
      <defs>
       <path id="DejaVuSans-4e" d="M 628 4666 
L 1478 4666 
L 3547 763 
L 3547 4666 
L 4159 4666 
L 4159 0 
L 3309 0 
L 1241 3903 
L 1241 0 
L 628 0 
L 628 4666 
z
" transform="scale(0.015625)"/>
       <path id="DejaVuSans-65" d="M 3597 1894 
L 3597 1613 
L 953 1613 
Q 991 1019 1311 708 
Q 1631 397 2203 397 
Q 2534 397 2845 478 
Q 3156 559 3463 722 
L 3463 178 
Q 3153 47 2828 -22 
Q 2503 -91 2169 -91 
Q 1331 -91 842 396 
Q 353 884 353 1716 
Q 353 2575 817 3079 
Q 1281 3584 2069 3584 
Q 2775 3584 3186 3129 
Q 3597 2675 3597 1894 
z
M 3022 2063 
Q 3016 2534 2758 2815 
Q 2500 3097 2075 3097 
Q 1594 3097 1305 2825 
Q 1016 2553 972 2059 
L 3022 2063 
z
" transform="scale(0.015625)"/>
       <path id="DejaVuSans-70" d="M 1159 525 
L 1159 -1331 
L 581 -1331 
L 581 3500 
L 1159 3500 
L 1159 2969 
Q 1341 3281 1617 3432 
Q 1894 3584 2278 3584 
Q 2916 3584 3314 3078 
Q 3713 2572 3713 1747 
Q 3713 922 3314 415 
Q 2916 -91 2278 -91 
Q 1894 -91 1617 61 
Q 1341 213 1159 525 
z
M 3116 1747 
Q 3116 2381 2855 2742 
Q 2594 3103 2138 3103 
Q 1681 3103 1420 2742 
Q 1159 2381 1159 1747 
Q 1159 1113 1420 752 
Q 1681 391 2138 391 
Q 2594 391 2855 752 
Q 3116 1113 3116 1747 
z
" transform="scale(0.015625)"/>
       <path id="DejaVuSans-64" d="M 2906 2969 
L 2906 4863 
L 3481 4863 
L 3481 0 
L 2906 0 
L 2906 525 
Q 2725 213 2448 61 
Q 2172 -91 1784 -91 
Q 1150 -91 751 415 
Q 353 922 353 1747 
Q 353 2572 751 3078 
Q 1150 3584 1784 3584 
Q 2172 3584 2448 3432 
Q 2725 3281 2906 2969 
z
M 947 1747 
Q 947 1113 1208 752 
Q 1469 391 1925 391 
Q 2381 391 2643 752 
Q 2906 1113 2906 1747 
Q 2906 2381 2643 2742 
Q 2381 3103 1925 3103 
Q 1469 3103 1208 2742 
Q 947 2381 947 1747 
z
" transform="scale(0.015625)"/>
       <path id="DejaVuSans-74" d="M 1172 4494 
L 1172 3500 
L 2356 3500 
L 2356 3053 
L 1172 3053 
L 1172 1153 
Q 1172 725 1289 603 
Q 1406 481 1766 481 
L 2356 481 
L 2356 0 
L 1766 0 
Q 1100 0 847 248 
Q 594 497 594 1153 
L 594 3053 
L 172 3053 
L 172 3500 
L 594 3500 
L 594 4494 
L 1172 4494 
z
" transform="scale(0.015625)"/>
       <path id="DejaVuSans-75" d="M 544 1381 
L 544 3500 
L 1119 3500 
L 1119 1403 
Q 1119 906 1312 657 
Q 1506 409 1894 409 
Q 2359 409 2629 706 
Q 2900 1003 2900 1516 
L 2900 3500 
L 3475 3500 
L 3475 0 
L 2900 0 
L 2900 538 
Q 2691 219 2414 64 
Q 2138 -91 1772 -91 
Q 1169 -91 856 284 
Q 544 659 544 1381 
z
M 1991 3584 
L 1991 3584 
z
" transform="scale(0.015625)"/>
       <path id="DejaVuSans-79" d="M 2059 -325 
Q 1816 -950 1584 -1140 
Q 1353 -1331 966 -1331 
L 506 -1331 
L 506 -850 
L 844 -850 
Q 1081 -850 1212 -737 
Q 1344 -625 1503 -206 
L 1606 56 
L 191 3500 
L 800 3500 
L 1894 763 
L 2988 3500 
L 3597 3500 
L 2059 -325 
z
" transform="scale(0.015625)"/>
      </defs>
      <use xlink:href="#DejaVuSans-4e"/>
      <use xlink:href="#DejaVuSans-65" x="74.804688"/>
      <use xlink:href="#DejaVuSans-61" x="136.328125"/>
      <use xlink:href="#DejaVuSans-70" x="197.607422"/>
      <use xlink:href="#DejaVuSans-64" x="261.083984"/>
      <use xlink:href="#DejaVuSans-6f" x="324.560547"/>
      <use xlink:href="#DejaVuSans-72" x="385.742188"/>
      <use xlink:href="#DejaVuSans-6f" x="424.605469"/>
      <use xlink:href="#DejaVuSans-74" x="485.787109"/>
      <use xlink:href="#DejaVuSans-69" x="524.996094"/>
      <use xlink:href="#DejaVuSans-20" x="552.779297"/>
      <use xlink:href="#DejaVuSans-64" x="584.566406"/>
      <use xlink:href="#DejaVuSans-75" x="648.042969"/>
      <use xlink:href="#DejaVuSans-6f" x="711.421875"/>
      <use xlink:href="#DejaVuSans-6d" x="772.603516"/>
      <use xlink:href="#DejaVuSans-65" x="870.015625"/>
      <use xlink:href="#DejaVuSans-6e" x="931.539062"/>
      <use xlink:href="#DejaVuSans-79" x="994.917969"/>
      <use xlink:href="#DejaVuSans-73" x="1054.097656"/>
     </g>
    </g>
    <g id="line2d_19">
     <path d="M 554.633125 34.976562 
L 564.633125 34.976562 
L 574.633125 34.976562 
" style="fill: none; stroke: #b7d0ee; stroke-width: 2.2; stroke-linecap: square"/>
    </g>
    <g id="text_18">
     <!-- σ=6.0 -->
     <g style="fill: #222222" transform="translate(582.633125 38.476562) scale(0.1 -0.1)">
      <defs>
       <path id="DejaVuSans-3c3" d="M 1959 3044 
Q 1484 3044 1228 2700 
Q 959 2341 959 1747 
Q 959 1119 1226 758 
Q 1494 397 1959 397 
Q 2419 397 2687 759 
Q 2956 1122 2956 1747 
Q 2956 2319 2688 2700 
Q 2441 3044 1959 3044 
z
M 1959 3500 
L 3869 3500 
L 3869 2925 
L 3225 2925 
Q 3566 2438 3566 1747 
Q 3566 888 3138 400 
Q 2709 -91 1959 -91 
Q 1206 -91 781 400 
Q 353 888 353 1747 
Q 353 2613 781 3097 
Q 1134 3500 1959 3500 
z
" transform="scale(0.015625)"/>
       <path id="DejaVuSans-3d" d="M 678 2906 
L 4684 2906 
L 4684 2381 
L 678 2381 
L 678 2906 
z
M 678 1631 
L 4684 1631 
L 4684 1100 
L 678 1100 
L 678 1631 
z
" transform="scale(0.015625)"/>
      </defs>
      <use xlink:href="#DejaVuSans-3c3"/>
      <use xlink:href="#DejaVuSans-3d" x="63.378906"/>
      <use xlink:href="#DejaVuSans-36" x="147.167969"/>
      <use xlink:href="#DejaVuSans-2e" x="210.791016"/>
      <use xlink:href="#DejaVuSans-30" x="242.578125"/>
     </g>
    </g>
   </g>
  </g>
 </g>
 <defs>
  <clipPath id="p268729068e">
   <rect x="54.096563" y="7.2" width="648.16" height="287.8"/>
  </clipPath>
 </defs>
</svg>
