<?xml version="1.0" encoding="utf-8" standalone="no"?>
<!DOCTYPE svg PUBLIC "-//W3C//DTD SVG 1.1//EN"
  "http://www.w3.org/Graphics/SVG/1.1/DTD/svg11.dtd">
<svg xmlns:xlink="http://www.w3.org/1999/xlink" width="709.275937pt" height="334.491875pt" viewBox="0 0 709.275937 334.491875" xmlns="http://www.w3.org/2000/svg" version="1.1">
 <metadata>
  <rdf:RDF xmlns:dc="http://purl.org/dc/elements/1.1/" xmlns:cc="http://creativecommons.org/ns#" xmlns:rdf="http://www.w3.org/1999/02/22-rdf-syntax-ns#">
   <cc:Work>
    <dc:type rdf:resource="http://purl.org/dc/dcmitype/StillImage"/>
    <dc:date>2026-04-26T17:36:24.820118</dc:date>
    <dc:format>image/svg+xml</dc:format>
    <dc:creator>
     <cc:Agent>
      <dc:title>Matplotlib v3.8.0, https://matplotlib.org/</dc:title>
     </cc:Agent>
    </dc:creator>
   </cc:Work>
  </rdf:RDF>
 </metadata>
 <defs>
  <style type="text/css">*{stroke-linejoin: round; stroke-linecap: butt}</style>
 </defs>
 <g id="figure_1">
  <g id="patch_1">
   <path d="M 0 334.491875 
L 709.275937 334.491875 
L 709.275937 0 
L 0 0 
z
" style="fill: #ffffff"/>
  </g>
  <g id="axes_1">
   <g id="patch_2">
    <path d="M 44.555937 295 
L 702.075938 295 
L 702.075938 7.2 
L 44.555937 7.2 
z
" style="fill: #ffffff"/>
   </g>
   <g id="matplotlib.axis_1">
    <g id="xtick_1">
     <g id="line2d_1">
      <defs>
       <path id="m934dcc48c9" d="M 0 0 
L 0 3.5 
" style="stroke: #222222; stroke-width: 0.8"/>
      </defs>
      <g>
       <use xlink:href="#m934dcc48c9" x="130.372609" y="295" style="fill: #222222; stroke: #222222; stroke-width: 0.8"/>
      </g>
     </g>
     <g id="text_1">
      <!-- 400 -->
      <g style="fill: #222222" transform="translate(120.828859 309.598437) scale(0.1 -0.1)">
       <defs>
        <path id="DejaVuSans-34" d="M 2419 4116 
L 825 1625 
L 2419 1625 
L 2419 4116 
z
M 2253 4666 
L 3047 4666 
L 3047 1625 
L 3713 1625 
L 3713 1100 
L 3047 1100 
L 3047 0 
L 2419 0 
L 2419 1100 
L 313 1100 
L 313 1709 
L 2253 4666 
z
" transform="scale(0.015625)"/>
        <path id="DejaVuSans-30" d="M 2034 4250 
Q 1547 4250 1301 3770 
Q 1056 3291 1056 2328 
Q 1056 1369 1301 889 
Q 1547 409 2034 409 
Q 2525 409 2770 889 
Q 3016 1369 3016 2328 
Q 3016 3291 2770 3770 
Q 2525 4250 2034 4250 
z
M 2034 4750 
Q 2819 4750 3233 4129 
Q 3647 3509 3647 2328 
Q 3647 1150 3233 529 
Q 2819 -91 2034 -91 
Q 1250 -91 836 529 
Q 422 1150 422 2328 
Q 422 3509 836 4129 
Q 1250 4750 2034 4750 
z
" transform="scale(0.015625)"/>
       </defs>
       <use xlink:href="#DejaVuSans-34"/>
       <use xlink:href="#DejaVuSans-30" x="63.623047"/>
       <use xlink:href="#DejaVuSans-30" x="127.246094"/>
      </g>
     </g>
    </g>
    <g id="xtick_2">
     <g id="line2d_2">
      <g>
       <use xlink:href="#m934dcc48c9" x="217.762296" y="295" style="fill: #222222; stroke: #222222; stroke-width: 0.8"/>
      </g>
     </g>
     <g id="text_2">
      <!-- 500 -->
      <g style="fill: #222222" transform="translate(208.218546 309.598437) scale(0.1 -0.1)">
       <defs>
        <path id="DejaVuSans-35" d="M 691 4666 
L 3169 4666 
L 3169 4134 
L 1269 4134 
L 1269 2991 
Q 1406 3038 1543 3061 
Q 1681 3084 1819 3084 
Q 2600 3084 3056 2656 
Q 3513 2228 3513 1497 
Q 3513 744 3044 326 
Q 2575 -91 1722 -91 
Q 1428 -91 1123 -41 
Q 819 9 494 109 
L 494 744 
Q 775 591 1075 516 
Q 1375 441 1709 441 
Q 2250 441 2565 725 
Q 2881 1009 2881 1497 
Q 2881 1984 2565 2268 
Q 2250 2553 1709 2553 
Q 1456 2553 1204 2497 
Q 953 2441 691 2322 
L 691 4666 
z
" transform="scale(0.015625)"/>
       </defs>
       <use xlink:href="#DejaVuSans-35"/>
       <use xlink:href="#DejaVuSans-30" x="63.623047"/>
       <use xlink:href="#DejaVuSans-30" x="127.246094"/>
      </g>
     </g>
    </g>
    <g id="xtick_3">
     <g id="line2d_3">
      <g>
       <use xlink:href="#m934dcc48c9" x="305.151982" y="295" style="fill: #222222; stroke: #222222; stroke-width: 0.8"/>
      </g>
     </g>
     <g id="text_3">
      <!-- 600 -->
      <g style="fill: #222222" transform="translate(295.608232 309.598437) scale(0.1 -0.1)">
       <defs>
        <path id="DejaVuSans-36" d="M 2113 2584 
Q 1688 2584 1439 2293 
Q 1191 2003 1191 1497 
Q 1191 994 1439 701 
Q 1688 409 2113 409 
Q 2538 409 2786 701 
Q 3034 994 3034 1497 
Q 3034 2003 2786 2293 
Q 2538 2584 2113 2584 
z
M 3366 4563 
L 3366 3988 
Q 3128 4100 2886 4159 
Q 2644 4219 2406 4219 
Q 1781 4219 1451 3797 
Q 1122 3375 1075 2522 
Q 1259 2794 1537 2939 
Q 1816 3084 2150 3084 
Q 2853 3084 3261 2657 
Q 3669 2231 3669 1497 
Q 3669 778 3244 343 
Q 2819 -91 2113 -91 
Q 1303 -91 875 529 
Q 447 1150 447 2328 
Q 447 3434 972 4092 
Q 1497 4750 2381 4750 
Q 2619 4750 2861 4703 
Q 3103 4656 3366 4563 
z
" transform="scale(0.015625)"/>
       </defs>
       <use xlink:href="#DejaVuSans-36"/>
       <use xlink:href="#DejaVuSans-30" x="63.623047"/>
       <use xlink:href="#DejaVuSans-30" x="127.246094"/>
      </g>
     </g>
    </g>
    <g id="xtick_4">
     <g id="line2d_4">
      <g>
       <use xlink:href="#m934dcc48c9" x="392.541668" y="295" style="fill: #222222; stroke: #222222; stroke-width: 0.8"/>
      </g>
     </g>
     <g id="text_4">
      <!-- 700 -->
      <g style="fill: #222222" transform="translate(382.997918 309.598437) scale(0.1 -0.1)">
       <defs>
        <path id="DejaVuSans-37" d="M 525 4666 
L 3525 4666 
L 3525 4397 
L 1831 0 
L 1172 0 
L 2766 4134 
L 525 4134 
L 525 4666 
z
" transform="scale(0.015625)"/>
       </defs>
       <use xlink:href="#DejaVuSans-37"/>
       <use xlink:href="#DejaVuSans-30" x="63.623047"/>
       <use xlink:href="#DejaVuSans-30" x="127.246094"/>
      </g>
     </g>
    </g>
    <g id="xtick_5">
     <g id="line2d_5">
      <g>
       <use xlink:href="#m934dcc48c9" x="479.931355" y="295" style="fill: #222222; stroke: #222222; stroke-width: 0.8"/>
      </g>
     </g>
     <g id="text_5">
      <!-- 800 -->
      <g style="fill: #222222" transform="translate(470.387605 309.598437) scale(0.1 -0.1)">
       <defs>
        <path id="DejaVuSans-38" d="M 2034 2216 
Q 1584 2216 1326 1975 
Q 1069 1734 1069 1313 
Q 1069 891 1326 650 
Q 1584 409 2034 409 
Q 2484 409 2743 651 
Q 3003 894 3003 1313 
Q 3003 1734 2745 1975 
Q 2488 2216 2034 2216 
z
M 1403 2484 
Q 997 2584 770 2862 
Q 544 3141 544 3541 
Q 544 4100 942 4425 
Q 1341 4750 2034 4750 
Q 2731 4750 3128 4425 
Q 3525 4100 3525 3541 
Q 3525 3141 3298 2862 
Q 3072 2584 2669 2484 
Q 3125 2378 3379 2068 
Q 3634 1759 3634 1313 
Q 3634 634 3220 271 
Q 2806 -91 2034 -91 
Q 1263 -91 848 271 
Q 434 634 434 1313 
Q 434 1759 690 2068 
Q 947 2378 1403 2484 
z
M 1172 3481 
Q 1172 3119 1398 2916 
Q 1625 2713 2034 2713 
Q 2441 2713 2670 2916 
Q 2900 3119 2900 3481 
Q 2900 3844 2670 4047 
Q 2441 4250 2034 4250 
Q 1625 4250 1398 4047 
Q 1172 3844 1172 3481 
z
" transform="scale(0.015625)"/>
       </defs>
       <use xlink:href="#DejaVuSans-38"/>
       <use xlink:href="#DejaVuSans-30" x="63.623047"/>
       <use xlink:href="#DejaVuSans-30" x="127.246094"/>
      </g>
     </g>
    </g>
    <g id="xtick_6">
     <g id="line2d_6">
      <g>
       <use xlink:href="#m934dcc48c9" x="567.321041" y="295" style="fill: #222222; stroke: #222222; stroke-width: 0.8"/>
      </g>
     </g>
     <g id="text_6">
      <!-- 900 -->
      <g style="fill: #222222" transform="translate(557.777291 309.598437) scale(0.1 -0.1)">
       <defs>
        <path id="DejaVuSans-39" d="M 703 97 
L 703 672 
Q 941 559 1184 500 
Q 1428 441 1663 441 
Q 2288 441 2617 861 
Q 2947 1281 2994 2138 
Q 2813 1869 2534 1725 
Q 2256 1581 1919 1581 
Q 1219 1581 811 2004 
Q 403 2428 403 3163 
Q 403 3881 828 4315 
Q 1253 4750 1959 4750 
Q 2769 4750 3195 4129 
Q 3622 3509 3622 2328 
Q 3622 1225 3098 567 
Q 2575 -91 1691 -91 
Q 1453 -91 1209 -44 
Q 966 3 703 97 
z
M 1959 2075 
Q 2384 2075 2632 2365 
Q 2881 2656 2881 3163 
Q 2881 3666 2632 3958 
Q 2384 4250 1959 4250 
Q 1534 4250 1286 3958 
Q 1038 3666 1038 3163 
Q 1038 2656 1286 2365 
Q 1534 2075 1959 2075 
z
" transform="scale(0.015625)"/>
       </defs>
       <use xlink:href="#DejaVuSans-39"/>
       <use xlink:href="#DejaVuSans-30" x="63.623047"/>
       <use xlink:href="#DejaVuSans-30" x="127.246094"/>
      </g>
     </g>
    </g>
    <g id="xtick_7">
     <g id="line2d_7">
      <g>
       <use xlink:href="#m934dcc48c9" x="654.710728" y="295" style="fill: #222222; stroke: #222222; stroke-width: 0.8"/>
      </g>
     </g>
     <g id="text_7">
      <!-- 1000 -->
      <g style="fill: #222222" transform="translate(641.985728 309.598437) scale(0.1 -0.1)">
       <defs>
        <path id="DejaVuSans-31" d="M 794 531 
L 1825 531 
L 1825 4091 
L 703 3866 
L 703 4441 
L 1819 4666 
L 2450 4666 
L 2450 531 
L 3481 531 
L 3481 0 
L 794 0 
L 794 531 
z
" transform="scale(0.015625)"/>
       </defs>
       <use xlink:href="#DejaVuSans-31"/>
       <use xlink:href="#DejaVuSans-30" x="63.623047"/>
       <use xlink:href="#DejaVuSans-30" x="127.246094"/>
       <use xlink:href="#DejaVuSans-30" x="190.869141"/>
      </g>
     </g>
    </g>
    <g id="text_8">
     <!-- Bangos ilgis, nm -->
     <g style="fill: #222222" transform="translate(323.81125 324.79625) scale(0.12 -0.12)">
      <defs>
       <path id="DejaVuSans-42" d="M 1259 2228 
L 1259 519 
L 2272 519 
Q 2781 519 3026 730 
Q 3272 941 3272 1375 
Q 3272 1813 3026 2020 
Q 2781 2228 2272 2228 
L 1259 2228 
z
M 1259 4147 
L 1259 2741 
L 2194 2741 
Q 2656 2741 2882 2914 
Q 3109 3088 3109 3444 
Q 3109 3797 2882 3972 
Q 2656 4147 2194 4147 
L 1259 4147 
z
M 628 4666 
L 2241 4666 
Q 2963 4666 3353 4366 
Q 3744 4066 3744 3513 
Q 3744 3084 3544 2831 
Q 3344 2578 2956 2516 
Q 3422 2416 3680 2098 
Q 3938 1781 3938 1306 
Q 3938 681 3513 340 
Q 3088 0 2303 0 
L 628 0 
L 628 4666 
z
" transform="scale(0.015625)"/>
       <path id="DejaVuSans-61" d="M 2194 1759 
Q 1497 1759 1228 1600 
Q 959 1441 959 1056 
Q 959 750 1161 570 
Q 1363 391 1709 391 
Q 2188 391 2477 730 
Q 2766 1069 2766 1631 
L 2766 1759 
L 2194 1759 
z
M 3341 1997 
L 3341 0 
L 2766 0 
L 2766 531 
Q 2569 213 2275 61 
Q 1981 -91 1556 -91 
Q 1019 -91 701 211 
Q 384 513 384 1019 
Q 384 1609 779 1909 
Q 1175 2209 1959 2209 
L 2766 2209 
L 2766 2266 
Q 2766 2663 2505 2880 
Q 2244 3097 1772 3097 
Q 1472 3097 1187 3025 
Q 903 2953 641 2809 
L 641 3341 
Q 956 3463 1253 3523 
Q 1550 3584 1831 3584 
Q 2591 3584 2966 3190 
Q 3341 2797 3341 1997 
z
" transform="scale(0.015625)"/>
       <path id="DejaVuSans-6e" d="M 3513 2113 
L 3513 0 
L 2938 0 
L 2938 2094 
Q 2938 2591 2744 2837 
Q 2550 3084 2163 3084 
Q 1697 3084 1428 2787 
Q 1159 2491 1159 1978 
L 1159 0 
L 581 0 
L 581 3500 
L 1159 3500 
L 1159 2956 
Q 1366 3272 1645 3428 
Q 1925 3584 2291 3584 
Q 2894 3584 3203 3211 
Q 3513 2838 3513 2113 
z
" transform="scale(0.015625)"/>
       <path id="DejaVuSans-67" d="M 2906 1791 
Q 2906 2416 2648 2759 
Q 2391 3103 1925 3103 
Q 1463 3103 1205 2759 
Q 947 2416 947 1791 
Q 947 1169 1205 825 
Q 1463 481 1925 481 
Q 2391 481 2648 825 
Q 2906 1169 2906 1791 
z
M 3481 434 
Q 3481 -459 3084 -895 
Q 2688 -1331 1869 -1331 
Q 1566 -1331 1297 -1286 
Q 1028 -1241 775 -1147 
L 775 -588 
Q 1028 -725 1275 -790 
Q 1522 -856 1778 -856 
Q 2344 -856 2625 -561 
Q 2906 -266 2906 331 
L 2906 616 
Q 2728 306 2450 153 
Q 2172 0 1784 0 
Q 1141 0 747 490 
Q 353 981 353 1791 
Q 353 2603 747 3093 
Q 1141 3584 1784 3584 
Q 2172 3584 2450 3431 
Q 2728 3278 2906 2969 
L 2906 3500 
L 3481 3500 
L 3481 434 
z
" transform="scale(0.015625)"/>
       <path id="DejaVuSans-6f" d="M 1959 3097 
Q 1497 3097 1228 2736 
Q 959 2375 959 1747 
Q 959 1119 1226 758 
Q 1494 397 1959 397 
Q 2419 397 2687 759 
Q 2956 1122 2956 1747 
Q 2956 2369 2687 2733 
Q 2419 3097 1959 3097 
z
M 1959 3584 
Q 2709 3584 3137 3096 
Q 3566 2609 3566 1747 
Q 3566 888 3137 398 
Q 2709 -91 1959 -91 
Q 1206 -91 779 398 
Q 353 888 353 1747 
Q 353 2609 779 3096 
Q 1206 3584 1959 3584 
z
" transform="scale(0.015625)"/>
       <path id="DejaVuSans-73" d="M 2834 3397 
L 2834 2853 
Q 2591 2978 2328 3040 
Q 2066 3103 1784 3103 
Q 1356 3103 1142 2972 
Q 928 2841 928 2578 
Q 928 2378 1081 2264 
Q 1234 2150 1697 2047 
L 1894 2003 
Q 2506 1872 2764 1633 
Q 3022 1394 3022 966 
Q 3022 478 2636 193 
Q 2250 -91 1575 -91 
Q 1294 -91 989 -36 
Q 684 19 347 128 
L 347 722 
Q 666 556 975 473 
Q 1284 391 1588 391 
Q 1994 391 2212 530 
Q 2431 669 2431 922 
Q 2431 1156 2273 1281 
Q 2116 1406 1581 1522 
L 1381 1569 
Q 847 1681 609 1914 
Q 372 2147 372 2553 
Q 372 3047 722 3315 
Q 1072 3584 1716 3584 
Q 2034 3584 2315 3537 
Q 2597 3491 2834 3397 
z
" transform="scale(0.015625)"/>
       <path id="DejaVuSans-20" transform="scale(0.015625)"/>
       <path id="DejaVuSans-69" d="M 603 3500 
L 1178 3500 
L 1178 0 
L 603 0 
L 603 3500 
z
M 603 4863 
L 1178 4863 
L 1178 4134 
L 603 4134 
L 603 4863 
z
" transform="scale(0.015625)"/>
       <path id="DejaVuSans-6c" d="M 603 4863 
L 1178 4863 
L 1178 0 
L 603 0 
L 603 4863 
z
" transform="scale(0.015625)"/>
       <path id="DejaVuSans-2c" d="M 750 794 
L 1409 794 
L 1409 256 
L 897 -744 
L 494 -744 
L 750 256 
L 750 794 
z
" transform="scale(0.015625)"/>
       <path id="DejaVuSans-6d" d="M 3328 2828 
Q 3544 3216 3844 3400 
Q 4144 3584 4550 3584 
Q 5097 3584 5394 3201 
Q 5691 2819 5691 2113 
L 5691 0 
L 5113 0 
L 5113 2094 
Q 5113 2597 4934 2840 
Q 4756 3084 4391 3084 
Q 3944 3084 3684 2787 
Q 3425 2491 3425 1978 
L 3425 0 
L 2847 0 
L 2847 2094 
Q 2847 2600 2669 2842 
Q 2491 3084 2119 3084 
Q 1678 3084 1418 2786 
Q 1159 2488 1159 1978 
L 1159 0 
L 581 0 
L 581 3500 
L 1159 3500 
L 1159 2956 
Q 1356 3278 1631 3431 
Q 1906 3584 2284 3584 
Q 2666 3584 2933 3390 
Q 3200 3197 3328 2828 
z
" transform="scale(0.015625)"/>
      </defs>
      <use xlink:href="#DejaVuSans-42"/>
      <use xlink:href="#DejaVuSans-61" x="68.603516"/>
      <use xlink:href="#DejaVuSans-6e" x="129.882812"/>
      <use xlink:href="#DejaVuSans-67" x="193.261719"/>
      <use xlink:href="#DejaVuSans-6f" x="256.738281"/>
      <use xlink:href="#DejaVuSans-73" x="317.919922"/>
      <use xlink:href="#DejaVuSans-20" x="370.019531"/>
      <use xlink:href="#DejaVuSans-69" x="401.806641"/>
      <use xlink:href="#DejaVuSans-6c" x="429.589844"/>
      <use xlink:href="#DejaVuSans-67" x="457.373047"/>
      <use xlink:href="#DejaVuSans-69" x="520.849609"/>
      <use xlink:href="#DejaVuSans-73" x="548.632812"/>
      <use xlink:href="#DejaVuSans-2c" x="600.732422"/>
      <use xlink:href="#DejaVuSans-20" x="632.519531"/>
      <use xlink:href="#DejaVuSans-6e" x="664.306641"/>
      <use xlink:href="#DejaVuSans-6d" x="727.685547"/>
     </g>
    </g>
   </g>
   <g id="matplotlib.axis_2">
    <g id="ytick_1">
     <g id="line2d_8">
      <defs>
       <path id="mad90750d67" d="M 0 0 
L -3.5 0 
" style="stroke: #222222; stroke-width: 0.8"/>
      </defs>
      <g>
       <use xlink:href="#mad90750d67" x="44.555937" y="277.865973" style="fill: #222222; stroke: #222222; stroke-width: 0.8"/>
      </g>
     </g>
     <g id="text_9">
      <!-- −6 -->
      <g style="fill: #222222" transform="translate(22.81375 281.665192) scale(0.1 -0.1)">
       <defs>
        <path id="DejaVuSans-2212" d="M 678 2272 
L 4684 2272 
L 4684 1741 
L 678 1741 
L 678 2272 
z
" transform="scale(0.015625)"/>
       </defs>
       <use xlink:href="#DejaVuSans-2212"/>
       <use xlink:href="#DejaVuSans-36" x="83.789062"/>
      </g>
     </g>
    </g>
    <g id="ytick_2">
     <g id="line2d_9">
      <g>
       <use xlink:href="#mad90750d67" x="44.555937" y="237.000075" style="fill: #222222; stroke: #222222; stroke-width: 0.8"/>
      </g>
     </g>
     <g id="text_10">
      <!-- −4 -->
      <g style="fill: #222222" transform="translate(22.81375 240.799294) scale(0.1 -0.1)">
       <use xlink:href="#DejaVuSans-2212"/>
       <use xlink:href="#DejaVuSans-34" x="83.789062"/>
      </g>
     </g>
    </g>
    <g id="ytick_3">
     <g id="line2d_10">
      <g>
       <use xlink:href="#mad90750d67" x="44.555937" y="196.134177" style="fill: #222222; stroke: #222222; stroke-width: 0.8"/>
      </g>
     </g>
     <g id="text_11">
      <!-- −2 -->
      <g style="fill: #222222" transform="translate(22.81375 199.933396) scale(0.1 -0.1)">
       <defs>
        <path id="DejaVuSans-32" d="M 1228 531 
L 3431 531 
L 3431 0 
L 469 0 
L 469 531 
Q 828 903 1448 1529 
Q 2069 2156 2228 2338 
Q 2531 2678 2651 2914 
Q 2772 3150 2772 3378 
Q 2772 3750 2511 3984 
Q 2250 4219 1831 4219 
Q 1534 4219 1204 4116 
Q 875 4013 500 3803 
L 500 4441 
Q 881 4594 1212 4672 
Q 1544 4750 1819 4750 
Q 2544 4750 2975 4387 
Q 3406 4025 3406 3419 
Q 3406 3131 3298 2873 
Q 3191 2616 2906 2266 
Q 2828 2175 2409 1742 
Q 1991 1309 1228 531 
z
" transform="scale(0.015625)"/>
       </defs>
       <use xlink:href="#DejaVuSans-2212"/>
       <use xlink:href="#DejaVuSans-32" x="83.789062"/>
      </g>
     </g>
    </g>
    <g id="ytick_4">
     <g id="line2d_11">
      <g>
       <use xlink:href="#mad90750d67" x="44.555937" y="155.268279" style="fill: #222222; stroke: #222222; stroke-width: 0.8"/>
      </g>
     </g>
     <g id="text_12">
      <!-- 0 -->
      <g style="fill: #222222" transform="translate(31.193437 159.067497) scale(0.1 -0.1)">
       <use xlink:href="#DejaVuSans-30"/>
      </g>
     </g>
    </g>
    <g id="ytick_5">
     <g id="line2d_12">
      <g>
       <use xlink:href="#mad90750d67" x="44.555937" y="114.40238" style="fill: #222222; stroke: #222222; stroke-width: 0.8"/>
      </g>
     </g>
     <g id="text_13">
      <!-- 2 -->
      <g style="fill: #222222" transform="translate(31.193437 118.201599) scale(0.1 -0.1)">
       <use xlink:href="#DejaVuSans-32"/>
      </g>
     </g>
    </g>
    <g id="ytick_6">
     <g id="line2d_13">
      <g>
       <use xlink:href="#mad90750d67" x="44.555937" y="73.536482" style="fill: #222222; stroke: #222222; stroke-width: 0.8"/>
      </g>
     </g>
     <g id="text_14">
      <!-- 4 -->
      <g style="fill: #222222" transform="translate(31.193437 77.335701) scale(0.1 -0.1)">
       <use xlink:href="#DejaVuSans-34"/>
      </g>
     </g>
    </g>
    <g id="ytick_7">
     <g id="line2d_14">
      <g>
       <use xlink:href="#mad90750d67" x="44.555937" y="32.670584" style="fill: #222222; stroke: #222222; stroke-width: 0.8"/>
      </g>
     </g>
     <g id="text_15">
      <!-- 6 -->
      <g style="fill: #222222" transform="translate(31.193437 36.469803) scale(0.1 -0.1)">
       <use xlink:href="#DejaVuSans-36"/>
      </g>
     </g>
    </g>
    <g id="text_16">
     <!-- Svoris -->
     <g style="fill: #222222" transform="translate(16.318125 169.390625) rotate(-90) scale(0.12 -0.12)">
      <defs>
       <path id="DejaVuSans-53" d="M 3425 4513 
L 3425 3897 
Q 3066 4069 2747 4153 
Q 2428 4238 2131 4238 
Q 1616 4238 1336 4038 
Q 1056 3838 1056 3469 
Q 1056 3159 1242 3001 
Q 1428 2844 1947 2747 
L 2328 2669 
Q 3034 2534 3370 2195 
Q 3706 1856 3706 1288 
Q 3706 609 3251 259 
Q 2797 -91 1919 -91 
Q 1588 -91 1214 -16 
Q 841 59 441 206 
L 441 856 
Q 825 641 1194 531 
Q 1563 422 1919 422 
Q 2459 422 2753 634 
Q 3047 847 3047 1241 
Q 3047 1584 2836 1778 
Q 2625 1972 2144 2069 
L 1759 2144 
Q 1053 2284 737 2584 
Q 422 2884 422 3419 
Q 422 4038 858 4394 
Q 1294 4750 2059 4750 
Q 2388 4750 2728 4690 
Q 3069 4631 3425 4513 
z
" transform="scale(0.015625)"/>
       <path id="DejaVuSans-76" d="M 191 3500 
L 800 3500 
L 1894 563 
L 2988 3500 
L 3597 3500 
L 2284 0 
L 1503 0 
L 191 3500 
z
" transform="scale(0.015625)"/>
       <path id="DejaVuSans-72" d="M 2631 2963 
Q 2534 3019 2420 3045 
Q 2306 3072 2169 3072 
Q 1681 3072 1420 2755 
Q 1159 2438 1159 1844 
L 1159 0 
L 581 0 
L 581 3500 
L 1159 3500 
L 1159 2956 
Q 1341 3275 1631 3429 
Q 1922 3584 2338 3584 
Q 2397 3584 2469 3576 
Q 2541 3569 2628 3553 
L 2631 2963 
z
" transform="scale(0.015625)"/>
      </defs>
      <use xlink:href="#DejaVuSans-53"/>
      <use xlink:href="#DejaVuSans-76" x="63.476562"/>
      <use xlink:href="#DejaVuSans-6f" x="122.65625"/>
      <use xlink:href="#DejaVuSans-72" x="183.837891"/>
      <use xlink:href="#DejaVuSans-69" x="224.951172"/>
      <use xlink:href="#DejaVuSans-73" x="252.734375"/>
     </g>
    </g>
   </g>
   <g id="line2d_15">
    <path d="M 74.44321 156.14538 
L 76.191004 154.312856 
L 77.938798 154.207138 
L 79.686591 154.921083 
L 81.434385 155.200668 
L 84.929973 154.450866 
L 86.677766 154.629944 
L 88.42556 154.638269 
L 90.173354 154.152546 
L 91.921147 154.139528 
L 93.668941 154.770102 
L 95.416735 154.907232 
L 98.912322 153.123928 
L 100.660116 153.422188 
L 102.40791 154.923586 
L 104.155704 156.251065 
L 105.903497 156.294439 
L 107.651291 155.6005 
L 109.399085 155.24867 
L 112.894672 155.658426 
L 116.39026 154.885778 
L 118.138053 154.913926 
L 119.885847 155.211799 
L 121.633641 155.271904 
L 123.381435 154.901454 
L 125.129228 154.35946 
L 126.877022 153.96583 
L 128.624816 153.72399 
L 133.868197 153.430882 
L 135.615991 153.412448 
L 137.363784 153.746963 
L 140.859372 155.092547 
L 142.607166 155.131467 
L 149.59834 153.338964 
L 151.346134 153.023344 
L 153.093928 152.841596 
L 154.841722 152.920518 
L 156.589515 153.29034 
L 158.337309 153.958906 
L 161.832897 155.611251 
L 163.58069 156.103779 
L 165.328484 156.258749 
L 167.076278 156.145596 
L 172.319659 155.332995 
L 177.56304 154.389079 
L 181.058628 153.71844 
L 182.806421 153.500597 
L 184.554215 153.405904 
L 188.049802 153.572817 
L 196.788771 154.590266 
L 200.284359 154.626392 
L 205.52774 154.628558 
L 209.023327 154.981072 
L 223.005677 157.115467 
L 226.501264 157.451851 
L 229.996852 157.608374 
L 233.492439 157.536232 
L 249.222583 156.670008 
L 257.961552 156.714516 
L 275.439489 156.766679 
L 298.160807 156.616814 
L 315.638745 156.935349 
L 322.629919 156.668761 
L 336.612269 155.95029 
L 338.360063 156.002009 
L 340.107857 155.912463 
L 343.603444 155.53954 
L 348.846825 155.647961 
L 354.090207 154.776504 
L 355.838 154.853915 
L 357.585794 155.254835 
L 359.333588 155.786793 
L 361.081381 156.196216 
L 362.829175 156.342814 
L 369.82035 156.025512 
L 373.315937 156.257991 
L 375.063731 156.247794 
L 380.307112 155.900007 
L 383.8027 156.159703 
L 385.550494 156.313006 
L 387.298287 156.318808 
L 389.046081 156.129111 
L 394.289462 155.191108 
L 396.037256 155.123809 
L 399.532843 155.364 
L 411.767399 156.470634 
L 413.515193 156.422209 
L 415.262987 156.134835 
L 420.506368 154.697205 
L 422.254162 154.560718 
L 424.001956 154.755287 
L 429.245337 156.163462 
L 430.99313 156.345861 
L 432.740924 156.239109 
L 436.236512 155.473935 
L 437.984305 155.100275 
L 439.732099 154.880757 
L 441.479893 154.835525 
L 448.471068 155.071672 
L 455.462243 154.768989 
L 462.453418 154.95467 
L 471.192386 154.591099 
L 474.687974 155.020343 
L 478.183561 155.422548 
L 479.931355 155.447235 
L 481.679149 155.323892 
L 488.670323 154.437701 
L 490.418117 154.44593 
L 497.409292 155.001125 
L 499.157086 154.93788 
L 502.652673 154.427288 
L 506.148261 153.838374 
L 507.896054 153.721179 
L 509.643848 153.787311 
L 511.391642 154.027391 
L 518.382817 155.42022 
L 520.130611 155.499505 
L 521.878404 155.394329 
L 525.373992 154.792038 
L 528.869579 154.17045 
L 530.617373 154.024146 
L 532.365167 154.019064 
L 535.860754 154.322042 
L 539.356342 154.671177 
L 541.104135 154.719076 
L 542.851929 154.642692 
L 546.347516 154.180679 
L 549.843104 153.639436 
L 551.590898 153.480307 
L 553.338691 153.44077 
L 556.834279 153.720107 
L 563.825454 154.729669 
L 565.573247 154.804185 
L 569.068835 154.616875 
L 577.807804 153.645387 
L 581.303391 153.620405 
L 588.294566 153.755817 
L 591.790153 153.518278 
L 598.781328 152.789147 
L 602.276916 152.696648 
L 605.772503 152.945258 
L 612.763678 153.821888 
L 616.259266 153.85761 
L 619.754853 153.530779 
L 626.746028 152.604068 
L 630.241615 152.400053 
L 633.737203 152.556777 
L 638.980584 153.038428 
L 642.476171 153.068117 
L 647.719553 152.680353 
L 652.962934 152.374112 
L 656.458521 152.468896 
L 658.206315 152.704969 
L 665.19749 154.198008 
L 666.945284 154.228081 
L 668.693077 153.959963 
L 670.440871 153.320524 
L 672.188665 152.285271 
L 672.188665 152.285271 
" clip-path="url(#p5ad1ebca02)" style="fill: none; stroke: #4a4a4a; stroke-width: 2.2; stroke-linecap: square"/>
   </g>
   <g id="line2d_16">
    <path d="M 74.44321 147.822357 
L 76.191004 152.576548 
L 77.938798 155.779211 
L 79.686591 156.831376 
L 81.434385 155.567028 
L 83.182179 152.453665 
L 86.677766 144.594427 
L 88.42556 141.28169 
L 90.173354 138.279408 
L 91.921147 135.024061 
L 95.416735 127.260518 
L 97.164529 124.07112 
L 98.912322 122.788252 
L 100.660116 124.154352 
L 102.40791 128.174345 
L 104.155704 134.230473 
L 105.903497 141.615464 
L 107.651291 150.042709 
L 109.399085 159.616714 
L 112.894672 180.408107 
L 114.642466 187.849495 
L 116.39026 189.608234 
L 118.138053 183.917543 
L 119.885847 171.254573 
L 123.381435 137.428185 
L 125.129228 123.815562 
L 126.877022 115.07351 
L 128.624816 110.23381 
L 130.372609 106.742653 
L 132.120403 102.092854 
L 133.868197 95.222664 
L 137.363784 79.06836 
L 139.111578 73.372013 
L 140.859372 70.175317 
L 142.607166 68.190779 
L 144.354959 65.148677 
L 146.102753 59.034043 
L 147.850547 49.268727 
L 149.59834 37.28568 
L 151.346134 26.280533 
L 153.093928 20.281818 
L 154.841722 22.88753 
L 156.589515 36.077659 
L 158.337309 59.489985 
L 160.085103 90.426943 
L 163.58069 157.381202 
L 165.328484 184.87732 
L 167.076278 204.726356 
L 168.824071 216.129688 
L 170.571865 219.460957 
L 172.319659 215.701113 
L 174.067453 206.007326 
L 175.815246 191.56441 
L 177.56304 173.681525 
L 181.058628 134.326439 
L 182.806421 116.805212 
L 184.554215 103.077852 
L 186.302009 94.008264 
L 188.049802 89.362289 
L 189.797596 87.861977 
L 191.54539 87.57673 
L 193.293184 86.534012 
L 195.040977 83.368092 
L 196.788771 77.812527 
L 198.536565 70.874966 
L 200.284359 64.614961 
L 202.032152 61.568687 
L 203.779946 63.988837 
L 205.52774 73.13725 
L 207.275533 88.848655 
L 209.023327 109.488711 
L 212.518915 154.041466 
L 214.266708 171.680105 
L 216.014502 183.047024 
L 217.762296 187.212768 
L 219.51009 184.578153 
L 221.257883 176.680772 
L 224.753471 154.484713 
L 226.501264 145.058482 
L 228.249058 139.264208 
L 229.996852 138.021739 
L 231.744646 141.371236 
L 233.492439 148.578874 
L 235.240233 158.368769 
L 238.735821 179.658549 
L 240.483614 188.492411 
L 242.231408 194.948617 
L 243.979202 198.716665 
L 245.726995 199.909912 
L 247.474789 198.973577 
L 249.222583 196.565798 
L 252.71817 190.298484 
L 254.465964 187.767987 
L 256.213758 186.27455 
L 257.961552 186.052816 
L 259.709345 187.149195 
L 261.457139 189.45734 
L 263.204933 192.767521 
L 264.952726 196.817417 
L 268.448314 206.064164 
L 271.943901 215.309356 
L 273.691695 219.483061 
L 275.439489 223.176952 
L 277.187283 226.28479 
L 278.935076 228.722645 
L 280.68287 230.431329 
L 282.430664 231.379854 
L 284.178457 231.568078 
L 285.926251 231.027419 
L 287.674045 229.819277 
L 289.421839 228.031211 
L 291.169632 225.770846 
L 292.917426 223.157364 
L 296.413014 217.338984 
L 306.899776 199.095467 
L 308.64757 195.613579 
L 310.395363 191.747595 
L 312.143157 187.3893 
L 313.890951 182.449945 
L 315.638745 176.871835 
L 317.386538 170.638045 
L 319.134332 163.779819 
L 322.629919 148.584939 
L 326.125507 132.660367 
L 327.873301 125.125431 
L 329.621094 118.38356 
L 331.368888 112.89184 
L 333.116682 109.128952 
L 334.864476 107.512582 
L 336.612269 108.263398 
L 338.360063 111.235145 
L 340.107857 115.775822 
L 341.85565 120.72839 
L 343.603444 124.675656 
L 345.351238 126.443528 
L 347.099032 125.721825 
L 348.846825 123.533019 
L 350.594619 122.262814 
L 352.342413 125.085642 
L 354.090207 134.860232 
L 355.838 152.883837 
L 357.585794 178.102931 
L 361.081381 235.794528 
L 362.829175 259.440801 
L 364.576969 275.177956 
L 366.324763 281.918182 
L 368.072556 280.426044 
L 369.82035 272.765416 
L 371.568144 261.521904 
L 375.063731 237.323793 
L 376.811525 227.313566 
L 378.559319 219.620622 
L 380.307112 214.382228 
L 382.054906 211.478305 
L 383.8027 210.665009 
L 385.550494 211.698076 
L 387.298287 214.422318 
L 389.046081 218.774908 
L 390.793875 224.672725 
L 392.541668 231.825168 
L 396.037256 246.969748 
L 397.78505 252.886965 
L 399.532843 256.514894 
L 401.280637 257.627154 
L 403.028431 256.692777 
L 408.271812 250.61636 
L 410.019606 248.782381 
L 411.767399 246.067068 
L 413.515193 241.454954 
L 415.262987 234.453958 
L 420.506368 208.096688 
L 422.254162 203.139265 
L 424.001956 201.854648 
L 425.749749 203.506365 
L 427.497543 206.225676 
L 429.245337 207.722332 
L 430.99313 206.174542 
L 432.740924 200.933093 
L 434.488718 192.767615 
L 436.236512 183.565293 
L 437.984305 175.603345 
L 439.732099 170.692071 
L 441.479893 169.543482 
L 443.227687 171.613101 
L 446.723274 179.284044 
L 448.471068 181.796242 
L 450.218861 182.415577 
L 451.966655 181.412758 
L 455.462243 177.81647 
L 457.210036 176.627217 
L 458.95783 176.04008 
L 460.705624 175.651389 
L 462.453418 174.92848 
L 464.201211 173.551135 
L 467.696799 169.757217 
L 469.444592 168.687547 
L 471.192386 169.076161 
L 472.94018 171.113803 
L 474.687974 174.396075 
L 476.435767 178.019054 
L 478.183561 180.870223 
L 479.931355 182.007833 
L 481.679149 180.996109 
L 483.426942 178.075263 
L 486.92253 170.222268 
L 488.670323 167.534257 
L 490.418117 166.641203 
L 492.165911 167.484667 
L 495.661498 171.177523 
L 497.409292 171.774795 
L 499.157086 170.346849 
L 500.90488 166.700987 
L 502.652673 161.345081 
L 504.400467 155.333766 
L 506.148261 149.925426 
L 507.896054 146.176275 
L 509.643848 144.618723 
L 511.391642 145.123885 
L 513.139436 146.969342 
L 514.887229 149.069431 
L 516.635023 150.295121 
L 518.382817 149.802897 
L 520.130611 147.291836 
L 521.878404 143.115784 
L 523.626198 138.207768 
L 525.373992 133.830995 
L 527.121785 131.233219 
L 528.869579 131.31327 
L 530.617373 134.392642 
L 532.365167 140.137582 
L 537.608548 162.480867 
L 539.356342 167.14089 
L 541.104135 168.724061 
L 542.851929 167.043923 
L 544.599723 162.571337 
L 546.347516 156.308067 
L 548.09531 149.545002 
L 549.843104 143.582938 
L 551.590898 139.492293 
L 553.338691 137.955194 
L 555.086485 139.194988 
L 556.834279 142.977211 
L 558.582073 148.665776 
L 562.07766 161.870625 
L 563.825454 167.22476 
L 565.573247 170.490048 
L 567.321041 171.057319 
L 569.068835 168.649845 
L 570.816629 163.296591 
L 572.564422 155.262815 
L 574.312216 144.974028 
L 576.06001 132.960876 
L 583.051185 81.093533 
L 584.798978 71.129984 
L 586.546772 63.955269 
L 588.294566 60.108561 
L 590.04236 59.818049 
L 591.790153 62.95766 
L 593.537947 69.071754 
L 595.285741 77.452202 
L 600.529122 107.315015 
L 602.276916 115.823865 
L 604.024709 122.265725 
L 605.772503 126.046991 
L 607.520297 126.813646 
L 609.268091 124.527116 
L 611.015884 119.510609 
L 612.763678 112.431604 
L 618.007059 88.259027 
L 619.754853 82.202093 
L 621.502647 78.14089 
L 623.25044 76.296761 
L 624.998234 76.674639 
L 626.746028 79.104184 
L 628.493822 83.267511 
L 630.241615 88.710715 
L 633.737203 100.993284 
L 635.484997 106.398116 
L 637.23279 110.376478 
L 638.980584 112.42681 
L 640.728378 112.348913 
L 642.476171 110.291892 
L 644.223965 106.714631 
L 647.719553 97.744519 
L 649.467346 93.847794 
L 651.21514 91.279582 
L 652.962934 90.64734 
L 654.710728 92.451078 
L 656.458521 97.016571 
L 658.206315 104.363137 
L 659.954109 114.021818 
L 663.449696 135.398324 
L 665.19749 143.806816 
L 666.945284 148.945386 
L 668.693077 150.513882 
L 670.440871 149.0064 
L 672.188665 145.321386 
L 672.188665 145.321386 
" clip-path="url(#p5ad1ebca02)" style="fill: none; stroke: #b7d0ee; stroke-width: 2.2; stroke-linecap: square"/>
   </g>
   <g id="line2d_17">
    <path d="M 44.555937 155.268279 
L 702.075938 155.268279 
" clip-path="url(#p5ad1ebca02)" style="fill: none; stroke-dasharray: 3.33,1.44; stroke-dashoffset: 0; stroke: #0d1530; stroke-width: 0.9"/>
   </g>
   <g id="patch_3">
    <path d="M 44.555937 295 
L 44.555937 7.2 
" style="fill: none; stroke: #444444; stroke-width: 0.8; stroke-linejoin: miter; stroke-linecap: square"/>
   </g>
   <g id="patch_4">
    <path d="M 44.555937 295 
L 702.075937 295 
" style="fill: none; stroke: #444444; stroke-width: 0.8; stroke-linejoin: miter; stroke-linecap: square"/>
   </g>
   <g id="legend_1">
    <g id="line2d_18">
     <path d="M 554.4525 20.298437 
L 564.4525 20.298437 
L 574.4525 20.298437 
" style="fill: none; stroke: #4a4a4a; stroke-width: 2.2; stroke-linecap: square"/>
    </g>
    <g id="text_17">
     <!-- Neapdoroti duomenys -->
     <g style="fill: #222222" transform="translate(582.4525 23.798437) scale(0.1 -0.1)">
      <defs>
       <path id="DejaVuSans-4e" d="M 628 4666 
L 1478 4666 
L 3547 763 
L 3547 4666 
L 4159 4666 
L 4159 0 
L 3309 0 
L 1241 3903 
L 1241 0 
L 628 0 
L 628 4666 
z
" transform="scale(0.015625)"/>
       <path id="DejaVuSans-65" d="M 3597 1894 
L 3597 1613 
L 953 1613 
Q 991 1019 1311 708 
Q 1631 397 2203 397 
Q 2534 397 2845 478 
Q 3156 559 3463 722 
L 3463 178 
Q 3153 47 2828 -22 
Q 2503 -91 2169 -91 
Q 1331 -91 842 396 
Q 353 884 353 1716 
Q 353 2575 817 3079 
Q 1281 3584 2069 3584 
Q 2775 3584 3186 3129 
Q 3597 2675 3597 1894 
z
M 3022 2063 
Q 3016 2534 2758 2815 
Q 2500 3097 2075 3097 
Q 1594 3097 1305 2825 
Q 1016 2553 972 2059 
L 3022 2063 
z
" transform="scale(0.015625)"/>
       <path id="DejaVuSans-70" d="M 1159 525 
L 1159 -1331 
L 581 -1331 
L 581 3500 
L 1159 3500 
L 1159 2969 
Q 1341 3281 1617 3432 
Q 1894 3584 2278 3584 
Q 2916 3584 3314 3078 
Q 3713 2572 3713 1747 
Q 3713 922 3314 415 
Q 2916 -91 2278 -91 
Q 1894 -91 1617 61 
Q 1341 213 1159 525 
z
M 3116 1747 
Q 3116 2381 2855 2742 
Q 2594 3103 2138 3103 
Q 1681 3103 1420 2742 
Q 1159 2381 1159 1747 
Q 1159 1113 1420 752 
Q 1681 391 2138 391 
Q 2594 391 2855 752 
Q 3116 1113 3116 1747 
z
" transform="scale(0.015625)"/>
       <path id="DejaVuSans-64" d="M 2906 2969 
L 2906 4863 
L 3481 4863 
L 3481 0 
L 2906 0 
L 2906 525 
Q 2725 213 2448 61 
Q 2172 -91 1784 -91 
Q 1150 -91 751 415 
Q 353 922 353 1747 
Q 353 2572 751 3078 
Q 1150 3584 1784 3584 
Q 2172 3584 2448 3432 
Q 2725 3281 2906 2969 
z
M 947 1747 
Q 947 1113 1208 752 
Q 1469 391 1925 391 
Q 2381 391 2643 752 
Q 2906 1113 2906 1747 
Q 2906 2381 2643 2742 
Q 2381 3103 1925 3103 
Q 1469 3103 1208 2742 
Q 947 2381 947 1747 
z
" transform="scale(0.015625)"/>
       <path id="DejaVuSans-74" d="M 1172 4494 
L 1172 3500 
L 2356 3500 
L 2356 3053 
L 1172 3053 
L 1172 1153 
Q 1172 725 1289 603 
Q 1406 481 1766 481 
L 2356 481 
L 2356 0 
L 1766 0 
Q 1100 0 847 248 
Q 594 497 594 1153 
L 594 3053 
L 172 3053 
L 172 3500 
L 594 3500 
L 594 4494 
L 1172 4494 
z
" transform="scale(0.015625)"/>
       <path id="DejaVuSans-75" d="M 544 1381 
L 544 3500 
L 1119 3500 
L 1119 1403 
Q 1119 906 1312 657 
Q 1506 409 1894 409 
Q 2359 409 2629 706 
Q 2900 1003 2900 1516 
L 2900 3500 
L 3475 3500 
L 3475 0 
L 2900 0 
L 2900 538 
Q 2691 219 2414 64 
Q 2138 -91 1772 -91 
Q 1169 -91 856 284 
Q 544 659 544 1381 
z
M 1991 3584 
L 1991 3584 
z
" transform="scale(0.015625)"/>
       <path id="DejaVuSans-79" d="M 2059 -325 
Q 1816 -950 1584 -1140 
Q 1353 -1331 966 -1331 
L 506 -1331 
L 506 -850 
L 844 -850 
Q 1081 -850 1212 -737 
Q 1344 -625 1503 -206 
L 1606 56 
L 191 3500 
L 800 3500 
L 1894 763 
L 2988 3500 
L 3597 3500 
L 2059 -325 
z
" transform="scale(0.015625)"/>
      </defs>
      <use xlink:href="#DejaVuSans-4e"/>
      <use xlink:href="#DejaVuSans-65" x="74.804688"/>
      <use xlink:href="#DejaVuSans-61" x="136.328125"/>
      <use xlink:href="#DejaVuSans-70" x="197.607422"/>
      <use xlink:href="#DejaVuSans-64" x="261.083984"/>
      <use xlink:href="#DejaVuSans-6f" x="324.560547"/>
      <use xlink:href="#DejaVuSans-72" x="385.742188"/>
      <use xlink:href="#DejaVuSans-6f" x="424.605469"/>
      <use xlink:href="#DejaVuSans-74" x="485.787109"/>
      <use xlink:href="#DejaVuSans-69" x="524.996094"/>
      <use xlink:href="#DejaVuSans-20" x="552.779297"/>
      <use xlink:href="#DejaVuSans-64" x="584.566406"/>
      <use xlink:href="#DejaVuSans-75" x="648.042969"/>
      <use xlink:href="#DejaVuSans-6f" x="711.421875"/>
      <use xlink:href="#DejaVuSans-6d" x="772.603516"/>
      <use xlink:href="#DejaVuSans-65" x="870.015625"/>
      <use xlink:href="#DejaVuSans-6e" x="931.539062"/>
      <use xlink:href="#DejaVuSans-79" x="994.917969"/>
      <use xlink:href="#DejaVuSans-73" x="1054.097656"/>
     </g>
    </g>
    <g id="line2d_19">
     <path d="M 554.4525 34.976562 
L 564.4525 34.976562 
L 574.4525 34.976562 
" style="fill: none; stroke: #b7d0ee; stroke-width: 2.2; stroke-linecap: square"/>
    </g>
    <g id="text_18">
     <!-- σ=6.0 -->
     <g style="fill: #222222" transform="translate(582.4525 38.476562) scale(0.1 -0.1)">
      <defs>
       <path id="DejaVuSans-3c3" d="M 1959 3044 
Q 1484 3044 1228 2700 
Q 959 2341 959 1747 
Q 959 1119 1226 758 
Q 1494 397 1959 397 
Q 2419 397 2687 759 
Q 2956 1122 2956 1747 
Q 2956 2319 2688 2700 
Q 2441 3044 1959 3044 
z
M 1959 3500 
L 3869 3500 
L 3869 2925 
L 3225 2925 
Q 3566 2438 3566 1747 
Q 3566 888 3138 400 
Q 2709 -91 1959 -91 
Q 1206 -91 781 400 
Q 353 888 353 1747 
Q 353 2613 781 3097 
Q 1134 3500 1959 3500 
z
" transform="scale(0.015625)"/>
       <path id="DejaVuSans-3d" d="M 678 2906 
L 4684 2906 
L 4684 2381 
L 678 2381 
L 678 2906 
z
M 678 1631 
L 4684 1631 
L 4684 1100 
L 678 1100 
L 678 1631 
z
" transform="scale(0.015625)"/>
       <path id="DejaVuSans-2e" d="M 684 794 
L 1344 794 
L 1344 0 
L 684 0 
L 684 794 
z
" transform="scale(0.015625)"/>
      </defs>
      <use xlink:href="#DejaVuSans-3c3"/>
      <use xlink:href="#DejaVuSans-3d" x="63.378906"/>
      <use xlink:href="#DejaVuSans-36" x="147.167969"/>
      <use xlink:href="#DejaVuSans-2e" x="210.791016"/>
      <use xlink:href="#DejaVuSans-30" x="242.578125"/>
     </g>
    </g>
   </g>
  </g>
 </g>
 <defs>
  <clipPath id="p5ad1ebca02">
   <rect x="44.555937" y="7.2" width="657.52" height="287.8"/>
  </clipPath>
 </defs>
</svg>
