<?xml version="1.0" encoding="utf-8" standalone="no"?>
<!DOCTYPE svg PUBLIC "-//W3C//DTD SVG 1.1//EN"
  "http://www.w3.org/Graphics/SVG/1.1/DTD/svg11.dtd">
<svg xmlns:xlink="http://www.w3.org/1999/xlink" width="709.26625pt" height="334.170312pt" viewBox="0 0 709.26625 334.170312" xmlns="http://www.w3.org/2000/svg" version="1.1">
 <metadata>
  <rdf:RDF xmlns:dc="http://purl.org/dc/elements/1.1/" xmlns:cc="http://creativecommons.org/ns#" xmlns:rdf="http://www.w3.org/1999/02/22-rdf-syntax-ns#">
   <cc:Work>
    <dc:type rdf:resource="http://purl.org/dc/dcmitype/StillImage"/>
    <dc:date>2026-04-26T17:46:28.793870</dc:date>
    <dc:format>image/svg+xml</dc:format>
    <dc:creator>
     <cc:Agent>
      <dc:title>Matplotlib v3.8.0, https://matplotlib.org/</dc:title>
     </cc:Agent>
    </dc:creator>
   </cc:Work>
  </rdf:RDF>
 </metadata>
 <defs>
  <style type="text/css">*{stroke-linejoin: round; stroke-linecap: butt}</style>
 </defs>
 <g id="figure_1">
  <g id="patch_1">
   <path d="M 0 334.170312 
L 709.26625 334.170312 
L 709.26625 0 
L 0 0 
z
" style="fill: #ffffff"/>
  </g>
  <g id="axes_1">
   <g id="patch_2">
    <path d="M 36.17625 294.678437 
L 702.06625 294.678437 
L 702.06625 17.798437 
L 36.17625 17.798437 
z
" style="fill: #ffffff"/>
   </g>
   <g id="matplotlib.axis_1">
    <g id="xtick_1">
     <g id="line2d_1">
      <defs>
       <path id="m72d1673a12" d="M 0 0 
L 0 3.5 
" style="stroke: #222222; stroke-width: 0.8"/>
      </defs>
      <g>
       <use xlink:href="#m72d1673a12" x="123.085338" y="294.678437" style="fill: #222222; stroke: #222222; stroke-width: 0.8"/>
      </g>
     </g>
     <g id="text_1">
      <!-- 400 -->
      <g style="fill: #222222" transform="translate(113.541588 309.276875) scale(0.1 -0.1)">
       <defs>
        <path id="DejaVuSans-34" d="M 2419 4116 
L 825 1625 
L 2419 1625 
L 2419 4116 
z
M 2253 4666 
L 3047 4666 
L 3047 1625 
L 3713 1625 
L 3713 1100 
L 3047 1100 
L 3047 0 
L 2419 0 
L 2419 1100 
L 313 1100 
L 313 1709 
L 2253 4666 
z
" transform="scale(0.015625)"/>
        <path id="DejaVuSans-30" d="M 2034 4250 
Q 1547 4250 1301 3770 
Q 1056 3291 1056 2328 
Q 1056 1369 1301 889 
Q 1547 409 2034 409 
Q 2525 409 2770 889 
Q 3016 1369 3016 2328 
Q 3016 3291 2770 3770 
Q 2525 4250 2034 4250 
z
M 2034 4750 
Q 2819 4750 3233 4129 
Q 3647 3509 3647 2328 
Q 3647 1150 3233 529 
Q 2819 -91 2034 -91 
Q 1250 -91 836 529 
Q 422 1150 422 2328 
Q 422 3509 836 4129 
Q 1250 4750 2034 4750 
z
" transform="scale(0.015625)"/>
       </defs>
       <use xlink:href="#DejaVuSans-34"/>
       <use xlink:href="#DejaVuSans-30" x="63.623047"/>
       <use xlink:href="#DejaVuSans-30" x="127.246094"/>
      </g>
     </g>
    </g>
    <g id="xtick_2">
     <g id="line2d_2">
      <g>
       <use xlink:href="#m72d1673a12" x="211.587465" y="294.678437" style="fill: #222222; stroke: #222222; stroke-width: 0.8"/>
      </g>
     </g>
     <g id="text_2">
      <!-- 500 -->
      <g style="fill: #222222" transform="translate(202.043715 309.276875) scale(0.1 -0.1)">
       <defs>
        <path id="DejaVuSans-35" d="M 691 4666 
L 3169 4666 
L 3169 4134 
L 1269 4134 
L 1269 2991 
Q 1406 3038 1543 3061 
Q 1681 3084 1819 3084 
Q 2600 3084 3056 2656 
Q 3513 2228 3513 1497 
Q 3513 744 3044 326 
Q 2575 -91 1722 -91 
Q 1428 -91 1123 -41 
Q 819 9 494 109 
L 494 744 
Q 775 591 1075 516 
Q 1375 441 1709 441 
Q 2250 441 2565 725 
Q 2881 1009 2881 1497 
Q 2881 1984 2565 2268 
Q 2250 2553 1709 2553 
Q 1456 2553 1204 2497 
Q 953 2441 691 2322 
L 691 4666 
z
" transform="scale(0.015625)"/>
       </defs>
       <use xlink:href="#DejaVuSans-35"/>
       <use xlink:href="#DejaVuSans-30" x="63.623047"/>
       <use xlink:href="#DejaVuSans-30" x="127.246094"/>
      </g>
     </g>
    </g>
    <g id="xtick_3">
     <g id="line2d_3">
      <g>
       <use xlink:href="#m72d1673a12" x="300.089591" y="294.678437" style="fill: #222222; stroke: #222222; stroke-width: 0.8"/>
      </g>
     </g>
     <g id="text_3">
      <!-- 600 -->
      <g style="fill: #222222" transform="translate(290.545841 309.276875) scale(0.1 -0.1)">
       <defs>
        <path id="DejaVuSans-36" d="M 2113 2584 
Q 1688 2584 1439 2293 
Q 1191 2003 1191 1497 
Q 1191 994 1439 701 
Q 1688 409 2113 409 
Q 2538 409 2786 701 
Q 3034 994 3034 1497 
Q 3034 2003 2786 2293 
Q 2538 2584 2113 2584 
z
M 3366 4563 
L 3366 3988 
Q 3128 4100 2886 4159 
Q 2644 4219 2406 4219 
Q 1781 4219 1451 3797 
Q 1122 3375 1075 2522 
Q 1259 2794 1537 2939 
Q 1816 3084 2150 3084 
Q 2853 3084 3261 2657 
Q 3669 2231 3669 1497 
Q 3669 778 3244 343 
Q 2819 -91 2113 -91 
Q 1303 -91 875 529 
Q 447 1150 447 2328 
Q 447 3434 972 4092 
Q 1497 4750 2381 4750 
Q 2619 4750 2861 4703 
Q 3103 4656 3366 4563 
z
" transform="scale(0.015625)"/>
       </defs>
       <use xlink:href="#DejaVuSans-36"/>
       <use xlink:href="#DejaVuSans-30" x="63.623047"/>
       <use xlink:href="#DejaVuSans-30" x="127.246094"/>
      </g>
     </g>
    </g>
    <g id="xtick_4">
     <g id="line2d_4">
      <g>
       <use xlink:href="#m72d1673a12" x="388.591718" y="294.678437" style="fill: #222222; stroke: #222222; stroke-width: 0.8"/>
      </g>
     </g>
     <g id="text_4">
      <!-- 700 -->
      <g style="fill: #222222" transform="translate(379.047968 309.276875) scale(0.1 -0.1)">
       <defs>
        <path id="DejaVuSans-37" d="M 525 4666 
L 3525 4666 
L 3525 4397 
L 1831 0 
L 1172 0 
L 2766 4134 
L 525 4134 
L 525 4666 
z
" transform="scale(0.015625)"/>
       </defs>
       <use xlink:href="#DejaVuSans-37"/>
       <use xlink:href="#DejaVuSans-30" x="63.623047"/>
       <use xlink:href="#DejaVuSans-30" x="127.246094"/>
      </g>
     </g>
    </g>
    <g id="xtick_5">
     <g id="line2d_5">
      <g>
       <use xlink:href="#m72d1673a12" x="477.093844" y="294.678437" style="fill: #222222; stroke: #222222; stroke-width: 0.8"/>
      </g>
     </g>
     <g id="text_5">
      <!-- 800 -->
      <g style="fill: #222222" transform="translate(467.550094 309.276875) scale(0.1 -0.1)">
       <defs>
        <path id="DejaVuSans-38" d="M 2034 2216 
Q 1584 2216 1326 1975 
Q 1069 1734 1069 1313 
Q 1069 891 1326 650 
Q 1584 409 2034 409 
Q 2484 409 2743 651 
Q 3003 894 3003 1313 
Q 3003 1734 2745 1975 
Q 2488 2216 2034 2216 
z
M 1403 2484 
Q 997 2584 770 2862 
Q 544 3141 544 3541 
Q 544 4100 942 4425 
Q 1341 4750 2034 4750 
Q 2731 4750 3128 4425 
Q 3525 4100 3525 3541 
Q 3525 3141 3298 2862 
Q 3072 2584 2669 2484 
Q 3125 2378 3379 2068 
Q 3634 1759 3634 1313 
Q 3634 634 3220 271 
Q 2806 -91 2034 -91 
Q 1263 -91 848 271 
Q 434 634 434 1313 
Q 434 1759 690 2068 
Q 947 2378 1403 2484 
z
M 1172 3481 
Q 1172 3119 1398 2916 
Q 1625 2713 2034 2713 
Q 2441 2713 2670 2916 
Q 2900 3119 2900 3481 
Q 2900 3844 2670 4047 
Q 2441 4250 2034 4250 
Q 1625 4250 1398 4047 
Q 1172 3844 1172 3481 
z
" transform="scale(0.015625)"/>
       </defs>
       <use xlink:href="#DejaVuSans-38"/>
       <use xlink:href="#DejaVuSans-30" x="63.623047"/>
       <use xlink:href="#DejaVuSans-30" x="127.246094"/>
      </g>
     </g>
    </g>
    <g id="xtick_6">
     <g id="line2d_6">
      <g>
       <use xlink:href="#m72d1673a12" x="565.595971" y="294.678437" style="fill: #222222; stroke: #222222; stroke-width: 0.8"/>
      </g>
     </g>
     <g id="text_6">
      <!-- 900 -->
      <g style="fill: #222222" transform="translate(556.052221 309.276875) scale(0.1 -0.1)">
       <defs>
        <path id="DejaVuSans-39" d="M 703 97 
L 703 672 
Q 941 559 1184 500 
Q 1428 441 1663 441 
Q 2288 441 2617 861 
Q 2947 1281 2994 2138 
Q 2813 1869 2534 1725 
Q 2256 1581 1919 1581 
Q 1219 1581 811 2004 
Q 403 2428 403 3163 
Q 403 3881 828 4315 
Q 1253 4750 1959 4750 
Q 2769 4750 3195 4129 
Q 3622 3509 3622 2328 
Q 3622 1225 3098 567 
Q 2575 -91 1691 -91 
Q 1453 -91 1209 -44 
Q 966 3 703 97 
z
M 1959 2075 
Q 2384 2075 2632 2365 
Q 2881 2656 2881 3163 
Q 2881 3666 2632 3958 
Q 2384 4250 1959 4250 
Q 1534 4250 1286 3958 
Q 1038 3666 1038 3163 
Q 1038 2656 1286 2365 
Q 1534 2075 1959 2075 
z
" transform="scale(0.015625)"/>
       </defs>
       <use xlink:href="#DejaVuSans-39"/>
       <use xlink:href="#DejaVuSans-30" x="63.623047"/>
       <use xlink:href="#DejaVuSans-30" x="127.246094"/>
      </g>
     </g>
    </g>
    <g id="xtick_7">
     <g id="line2d_7">
      <g>
       <use xlink:href="#m72d1673a12" x="654.098097" y="294.678437" style="fill: #222222; stroke: #222222; stroke-width: 0.8"/>
      </g>
     </g>
     <g id="text_7">
      <!-- 1000 -->
      <g style="fill: #222222" transform="translate(641.373097 309.276875) scale(0.1 -0.1)">
       <defs>
        <path id="DejaVuSans-31" d="M 794 531 
L 1825 531 
L 1825 4091 
L 703 3866 
L 703 4441 
L 1819 4666 
L 2450 4666 
L 2450 531 
L 3481 531 
L 3481 0 
L 794 0 
L 794 531 
z
" transform="scale(0.015625)"/>
       </defs>
       <use xlink:href="#DejaVuSans-31"/>
       <use xlink:href="#DejaVuSans-30" x="63.623047"/>
       <use xlink:href="#DejaVuSans-30" x="127.246094"/>
       <use xlink:href="#DejaVuSans-30" x="190.869141"/>
      </g>
     </g>
    </g>
    <g id="text_8">
     <!-- Bangos ilgis, nm -->
     <g style="fill: #222222" transform="translate(319.616563 324.474687) scale(0.12 -0.12)">
      <defs>
       <path id="DejaVuSans-42" d="M 1259 2228 
L 1259 519 
L 2272 519 
Q 2781 519 3026 730 
Q 3272 941 3272 1375 
Q 3272 1813 3026 2020 
Q 2781 2228 2272 2228 
L 1259 2228 
z
M 1259 4147 
L 1259 2741 
L 2194 2741 
Q 2656 2741 2882 2914 
Q 3109 3088 3109 3444 
Q 3109 3797 2882 3972 
Q 2656 4147 2194 4147 
L 1259 4147 
z
M 628 4666 
L 2241 4666 
Q 2963 4666 3353 4366 
Q 3744 4066 3744 3513 
Q 3744 3084 3544 2831 
Q 3344 2578 2956 2516 
Q 3422 2416 3680 2098 
Q 3938 1781 3938 1306 
Q 3938 681 3513 340 
Q 3088 0 2303 0 
L 628 0 
L 628 4666 
z
" transform="scale(0.015625)"/>
       <path id="DejaVuSans-61" d="M 2194 1759 
Q 1497 1759 1228 1600 
Q 959 1441 959 1056 
Q 959 750 1161 570 
Q 1363 391 1709 391 
Q 2188 391 2477 730 
Q 2766 1069 2766 1631 
L 2766 1759 
L 2194 1759 
z
M 3341 1997 
L 3341 0 
L 2766 0 
L 2766 531 
Q 2569 213 2275 61 
Q 1981 -91 1556 -91 
Q 1019 -91 701 211 
Q 384 513 384 1019 
Q 384 1609 779 1909 
Q 1175 2209 1959 2209 
L 2766 2209 
L 2766 2266 
Q 2766 2663 2505 2880 
Q 2244 3097 1772 3097 
Q 1472 3097 1187 3025 
Q 903 2953 641 2809 
L 641 3341 
Q 956 3463 1253 3523 
Q 1550 3584 1831 3584 
Q 2591 3584 2966 3190 
Q 3341 2797 3341 1997 
z
" transform="scale(0.015625)"/>
       <path id="DejaVuSans-6e" d="M 3513 2113 
L 3513 0 
L 2938 0 
L 2938 2094 
Q 2938 2591 2744 2837 
Q 2550 3084 2163 3084 
Q 1697 3084 1428 2787 
Q 1159 2491 1159 1978 
L 1159 0 
L 581 0 
L 581 3500 
L 1159 3500 
L 1159 2956 
Q 1366 3272 1645 3428 
Q 1925 3584 2291 3584 
Q 2894 3584 3203 3211 
Q 3513 2838 3513 2113 
z
" transform="scale(0.015625)"/>
       <path id="DejaVuSans-67" d="M 2906 1791 
Q 2906 2416 2648 2759 
Q 2391 3103 1925 3103 
Q 1463 3103 1205 2759 
Q 947 2416 947 1791 
Q 947 1169 1205 825 
Q 1463 481 1925 481 
Q 2391 481 2648 825 
Q 2906 1169 2906 1791 
z
M 3481 434 
Q 3481 -459 3084 -895 
Q 2688 -1331 1869 -1331 
Q 1566 -1331 1297 -1286 
Q 1028 -1241 775 -1147 
L 775 -588 
Q 1028 -725 1275 -790 
Q 1522 -856 1778 -856 
Q 2344 -856 2625 -561 
Q 2906 -266 2906 331 
L 2906 616 
Q 2728 306 2450 153 
Q 2172 0 1784 0 
Q 1141 0 747 490 
Q 353 981 353 1791 
Q 353 2603 747 3093 
Q 1141 3584 1784 3584 
Q 2172 3584 2450 3431 
Q 2728 3278 2906 2969 
L 2906 3500 
L 3481 3500 
L 3481 434 
z
" transform="scale(0.015625)"/>
       <path id="DejaVuSans-6f" d="M 1959 3097 
Q 1497 3097 1228 2736 
Q 959 2375 959 1747 
Q 959 1119 1226 758 
Q 1494 397 1959 397 
Q 2419 397 2687 759 
Q 2956 1122 2956 1747 
Q 2956 2369 2687 2733 
Q 2419 3097 1959 3097 
z
M 1959 3584 
Q 2709 3584 3137 3096 
Q 3566 2609 3566 1747 
Q 3566 888 3137 398 
Q 2709 -91 1959 -91 
Q 1206 -91 779 398 
Q 353 888 353 1747 
Q 353 2609 779 3096 
Q 1206 3584 1959 3584 
z
" transform="scale(0.015625)"/>
       <path id="DejaVuSans-73" d="M 2834 3397 
L 2834 2853 
Q 2591 2978 2328 3040 
Q 2066 3103 1784 3103 
Q 1356 3103 1142 2972 
Q 928 2841 928 2578 
Q 928 2378 1081 2264 
Q 1234 2150 1697 2047 
L 1894 2003 
Q 2506 1872 2764 1633 
Q 3022 1394 3022 966 
Q 3022 478 2636 193 
Q 2250 -91 1575 -91 
Q 1294 -91 989 -36 
Q 684 19 347 128 
L 347 722 
Q 666 556 975 473 
Q 1284 391 1588 391 
Q 1994 391 2212 530 
Q 2431 669 2431 922 
Q 2431 1156 2273 1281 
Q 2116 1406 1581 1522 
L 1381 1569 
Q 847 1681 609 1914 
Q 372 2147 372 2553 
Q 372 3047 722 3315 
Q 1072 3584 1716 3584 
Q 2034 3584 2315 3537 
Q 2597 3491 2834 3397 
z
" transform="scale(0.015625)"/>
       <path id="DejaVuSans-20" transform="scale(0.015625)"/>
       <path id="DejaVuSans-69" d="M 603 3500 
L 1178 3500 
L 1178 0 
L 603 0 
L 603 3500 
z
M 603 4863 
L 1178 4863 
L 1178 4134 
L 603 4134 
L 603 4863 
z
" transform="scale(0.015625)"/>
       <path id="DejaVuSans-6c" d="M 603 4863 
L 1178 4863 
L 1178 0 
L 603 0 
L 603 4863 
z
" transform="scale(0.015625)"/>
       <path id="DejaVuSans-2c" d="M 750 794 
L 1409 794 
L 1409 256 
L 897 -744 
L 494 -744 
L 750 256 
L 750 794 
z
" transform="scale(0.015625)"/>
       <path id="DejaVuSans-6d" d="M 3328 2828 
Q 3544 3216 3844 3400 
Q 4144 3584 4550 3584 
Q 5097 3584 5394 3201 
Q 5691 2819 5691 2113 
L 5691 0 
L 5113 0 
L 5113 2094 
Q 5113 2597 4934 2840 
Q 4756 3084 4391 3084 
Q 3944 3084 3684 2787 
Q 3425 2491 3425 1978 
L 3425 0 
L 2847 0 
L 2847 2094 
Q 2847 2600 2669 2842 
Q 2491 3084 2119 3084 
Q 1678 3084 1418 2786 
Q 1159 2488 1159 1978 
L 1159 0 
L 581 0 
L 581 3500 
L 1159 3500 
L 1159 2956 
Q 1356 3278 1631 3431 
Q 1906 3584 2284 3584 
Q 2666 3584 2933 3390 
Q 3200 3197 3328 2828 
z
" transform="scale(0.015625)"/>
      </defs>
      <use xlink:href="#DejaVuSans-42"/>
      <use xlink:href="#DejaVuSans-61" x="68.603516"/>
      <use xlink:href="#DejaVuSans-6e" x="129.882812"/>
      <use xlink:href="#DejaVuSans-67" x="193.261719"/>
      <use xlink:href="#DejaVuSans-6f" x="256.738281"/>
      <use xlink:href="#DejaVuSans-73" x="317.919922"/>
      <use xlink:href="#DejaVuSans-20" x="370.019531"/>
      <use xlink:href="#DejaVuSans-69" x="401.806641"/>
      <use xlink:href="#DejaVuSans-6c" x="429.589844"/>
      <use xlink:href="#DejaVuSans-67" x="457.373047"/>
      <use xlink:href="#DejaVuSans-69" x="520.849609"/>
      <use xlink:href="#DejaVuSans-73" x="548.632812"/>
      <use xlink:href="#DejaVuSans-2c" x="600.732422"/>
      <use xlink:href="#DejaVuSans-20" x="632.519531"/>
      <use xlink:href="#DejaVuSans-6e" x="664.306641"/>
      <use xlink:href="#DejaVuSans-6d" x="727.685547"/>
     </g>
    </g>
   </g>
   <g id="matplotlib.axis_2">
    <g id="ytick_1">
     <g id="line2d_8">
      <defs>
       <path id="mbbe449c4ff" d="M 0 0 
L -3.5 0 
" style="stroke: #222222; stroke-width: 0.8"/>
      </defs>
      <g>
       <use xlink:href="#mbbe449c4ff" x="36.17625" y="287.196092" style="fill: #222222; stroke: #222222; stroke-width: 0.8"/>
      </g>
     </g>
     <g id="text_9">
      <!-- 0 -->
      <g style="fill: #222222" transform="translate(22.81375 290.995311) scale(0.1 -0.1)">
       <use xlink:href="#DejaVuSans-30"/>
      </g>
     </g>
    </g>
    <g id="ytick_2">
     <g id="line2d_9">
      <g>
       <use xlink:href="#mbbe449c4ff" x="36.17625" y="231.552159" style="fill: #222222; stroke: #222222; stroke-width: 0.8"/>
      </g>
     </g>
     <g id="text_10">
      <!-- 1 -->
      <g style="fill: #222222" transform="translate(22.81375 235.351378) scale(0.1 -0.1)">
       <use xlink:href="#DejaVuSans-31"/>
      </g>
     </g>
    </g>
    <g id="ytick_3">
     <g id="line2d_10">
      <g>
       <use xlink:href="#mbbe449c4ff" x="36.17625" y="175.908226" style="fill: #222222; stroke: #222222; stroke-width: 0.8"/>
      </g>
     </g>
     <g id="text_11">
      <!-- 2 -->
      <g style="fill: #222222" transform="translate(22.81375 179.707445) scale(0.1 -0.1)">
       <defs>
        <path id="DejaVuSans-32" d="M 1228 531 
L 3431 531 
L 3431 0 
L 469 0 
L 469 531 
Q 828 903 1448 1529 
Q 2069 2156 2228 2338 
Q 2531 2678 2651 2914 
Q 2772 3150 2772 3378 
Q 2772 3750 2511 3984 
Q 2250 4219 1831 4219 
Q 1534 4219 1204 4116 
Q 875 4013 500 3803 
L 500 4441 
Q 881 4594 1212 4672 
Q 1544 4750 1819 4750 
Q 2544 4750 2975 4387 
Q 3406 4025 3406 3419 
Q 3406 3131 3298 2873 
Q 3191 2616 2906 2266 
Q 2828 2175 2409 1742 
Q 1991 1309 1228 531 
z
" transform="scale(0.015625)"/>
       </defs>
       <use xlink:href="#DejaVuSans-32"/>
      </g>
     </g>
    </g>
    <g id="ytick_4">
     <g id="line2d_11">
      <g>
       <use xlink:href="#mbbe449c4ff" x="36.17625" y="120.264293" style="fill: #222222; stroke: #222222; stroke-width: 0.8"/>
      </g>
     </g>
     <g id="text_12">
      <!-- 3 -->
      <g style="fill: #222222" transform="translate(22.81375 124.063512) scale(0.1 -0.1)">
       <defs>
        <path id="DejaVuSans-33" d="M 2597 2516 
Q 3050 2419 3304 2112 
Q 3559 1806 3559 1356 
Q 3559 666 3084 287 
Q 2609 -91 1734 -91 
Q 1441 -91 1130 -33 
Q 819 25 488 141 
L 488 750 
Q 750 597 1062 519 
Q 1375 441 1716 441 
Q 2309 441 2620 675 
Q 2931 909 2931 1356 
Q 2931 1769 2642 2001 
Q 2353 2234 1838 2234 
L 1294 2234 
L 1294 2753 
L 1863 2753 
Q 2328 2753 2575 2939 
Q 2822 3125 2822 3475 
Q 2822 3834 2567 4026 
Q 2313 4219 1838 4219 
Q 1578 4219 1281 4162 
Q 984 4106 628 3988 
L 628 4550 
Q 988 4650 1302 4700 
Q 1616 4750 1894 4750 
Q 2613 4750 3031 4423 
Q 3450 4097 3450 3541 
Q 3450 3153 3228 2886 
Q 3006 2619 2597 2516 
z
" transform="scale(0.015625)"/>
       </defs>
       <use xlink:href="#DejaVuSans-33"/>
      </g>
     </g>
    </g>
    <g id="ytick_5">
     <g id="line2d_12">
      <g>
       <use xlink:href="#mbbe449c4ff" x="36.17625" y="64.62036" style="fill: #222222; stroke: #222222; stroke-width: 0.8"/>
      </g>
     </g>
     <g id="text_13">
      <!-- 4 -->
      <g style="fill: #222222" transform="translate(22.81375 68.419579) scale(0.1 -0.1)">
       <use xlink:href="#DejaVuSans-34"/>
      </g>
     </g>
    </g>
    <g id="text_14">
     <!-- Vidutinis normalizuotas srautas -->
     <g style="fill: #222222" transform="translate(16.318125 250.608125) rotate(-90) scale(0.12 -0.12)">
      <defs>
       <path id="DejaVuSans-56" d="M 1831 0 
L 50 4666 
L 709 4666 
L 2188 738 
L 3669 4666 
L 4325 4666 
L 2547 0 
L 1831 0 
z
" transform="scale(0.015625)"/>
       <path id="DejaVuSans-64" d="M 2906 2969 
L 2906 4863 
L 3481 4863 
L 3481 0 
L 2906 0 
L 2906 525 
Q 2725 213 2448 61 
Q 2172 -91 1784 -91 
Q 1150 -91 751 415 
Q 353 922 353 1747 
Q 353 2572 751 3078 
Q 1150 3584 1784 3584 
Q 2172 3584 2448 3432 
Q 2725 3281 2906 2969 
z
M 947 1747 
Q 947 1113 1208 752 
Q 1469 391 1925 391 
Q 2381 391 2643 752 
Q 2906 1113 2906 1747 
Q 2906 2381 2643 2742 
Q 2381 3103 1925 3103 
Q 1469 3103 1208 2742 
Q 947 2381 947 1747 
z
" transform="scale(0.015625)"/>
       <path id="DejaVuSans-75" d="M 544 1381 
L 544 3500 
L 1119 3500 
L 1119 1403 
Q 1119 906 1312 657 
Q 1506 409 1894 409 
Q 2359 409 2629 706 
Q 2900 1003 2900 1516 
L 2900 3500 
L 3475 3500 
L 3475 0 
L 2900 0 
L 2900 538 
Q 2691 219 2414 64 
Q 2138 -91 1772 -91 
Q 1169 -91 856 284 
Q 544 659 544 1381 
z
M 1991 3584 
L 1991 3584 
z
" transform="scale(0.015625)"/>
       <path id="DejaVuSans-74" d="M 1172 4494 
L 1172 3500 
L 2356 3500 
L 2356 3053 
L 1172 3053 
L 1172 1153 
Q 1172 725 1289 603 
Q 1406 481 1766 481 
L 2356 481 
L 2356 0 
L 1766 0 
Q 1100 0 847 248 
Q 594 497 594 1153 
L 594 3053 
L 172 3053 
L 172 3500 
L 594 3500 
L 594 4494 
L 1172 4494 
z
" transform="scale(0.015625)"/>
       <path id="DejaVuSans-72" d="M 2631 2963 
Q 2534 3019 2420 3045 
Q 2306 3072 2169 3072 
Q 1681 3072 1420 2755 
Q 1159 2438 1159 1844 
L 1159 0 
L 581 0 
L 581 3500 
L 1159 3500 
L 1159 2956 
Q 1341 3275 1631 3429 
Q 1922 3584 2338 3584 
Q 2397 3584 2469 3576 
Q 2541 3569 2628 3553 
L 2631 2963 
z
" transform="scale(0.015625)"/>
       <path id="DejaVuSans-7a" d="M 353 3500 
L 3084 3500 
L 3084 2975 
L 922 459 
L 3084 459 
L 3084 0 
L 275 0 
L 275 525 
L 2438 3041 
L 353 3041 
L 353 3500 
z
" transform="scale(0.015625)"/>
      </defs>
      <use xlink:href="#DejaVuSans-56"/>
      <use xlink:href="#DejaVuSans-69" x="66.158203"/>
      <use xlink:href="#DejaVuSans-64" x="93.941406"/>
      <use xlink:href="#DejaVuSans-75" x="157.417969"/>
      <use xlink:href="#DejaVuSans-74" x="220.796875"/>
      <use xlink:href="#DejaVuSans-69" x="260.005859"/>
      <use xlink:href="#DejaVuSans-6e" x="287.789062"/>
      <use xlink:href="#DejaVuSans-69" x="351.167969"/>
      <use xlink:href="#DejaVuSans-73" x="378.951172"/>
      <use xlink:href="#DejaVuSans-20" x="431.050781"/>
      <use xlink:href="#DejaVuSans-6e" x="462.837891"/>
      <use xlink:href="#DejaVuSans-6f" x="526.216797"/>
      <use xlink:href="#DejaVuSans-72" x="587.398438"/>
      <use xlink:href="#DejaVuSans-6d" x="626.761719"/>
      <use xlink:href="#DejaVuSans-61" x="724.173828"/>
      <use xlink:href="#DejaVuSans-6c" x="785.453125"/>
      <use xlink:href="#DejaVuSans-69" x="813.236328"/>
      <use xlink:href="#DejaVuSans-7a" x="841.019531"/>
      <use xlink:href="#DejaVuSans-75" x="893.509766"/>
      <use xlink:href="#DejaVuSans-6f" x="956.888672"/>
      <use xlink:href="#DejaVuSans-74" x="1018.070312"/>
      <use xlink:href="#DejaVuSans-61" x="1057.279297"/>
      <use xlink:href="#DejaVuSans-73" x="1118.558594"/>
      <use xlink:href="#DejaVuSans-20" x="1170.658203"/>
      <use xlink:href="#DejaVuSans-73" x="1202.445312"/>
      <use xlink:href="#DejaVuSans-72" x="1254.544922"/>
      <use xlink:href="#DejaVuSans-61" x="1295.658203"/>
      <use xlink:href="#DejaVuSans-75" x="1356.9375"/>
      <use xlink:href="#DejaVuSans-74" x="1420.316406"/>
      <use xlink:href="#DejaVuSans-61" x="1459.525391"/>
      <use xlink:href="#DejaVuSans-73" x="1520.804688"/>
     </g>
    </g>
    <g id="text_15">
     <!-- 1e−16 -->
     <g style="fill: #222222" transform="translate(36.17625 14.798437) scale(0.1 -0.1)">
      <defs>
       <path id="DejaVuSans-65" d="M 3597 1894 
L 3597 1613 
L 953 1613 
Q 991 1019 1311 708 
Q 1631 397 2203 397 
Q 2534 397 2845 478 
Q 3156 559 3463 722 
L 3463 178 
Q 3153 47 2828 -22 
Q 2503 -91 2169 -91 
Q 1331 -91 842 396 
Q 353 884 353 1716 
Q 353 2575 817 3079 
Q 1281 3584 2069 3584 
Q 2775 3584 3186 3129 
Q 3597 2675 3597 1894 
z
M 3022 2063 
Q 3016 2534 2758 2815 
Q 2500 3097 2075 3097 
Q 1594 3097 1305 2825 
Q 1016 2553 972 2059 
L 3022 2063 
z
" transform="scale(0.015625)"/>
       <path id="DejaVuSans-2212" d="M 678 2272 
L 4684 2272 
L 4684 1741 
L 678 1741 
L 678 2272 
z
" transform="scale(0.015625)"/>
      </defs>
      <use xlink:href="#DejaVuSans-31"/>
      <use xlink:href="#DejaVuSans-65" x="63.623047"/>
      <use xlink:href="#DejaVuSans-2212" x="125.146484"/>
      <use xlink:href="#DejaVuSans-31" x="208.935547"/>
      <use xlink:href="#DejaVuSans-36" x="272.558594"/>
     </g>
    </g>
   </g>
   <g id="line2d_13">
    <path d="M 66.443977 39.875119 
L 68.21402 30.383892 
L 69.984062 37.921717 
L 71.754105 51.73241 
L 73.524147 58.031089 
L 75.29419 59.857384 
L 77.064232 64.396248 
L 78.834275 75.570565 
L 80.604318 79.646149 
L 82.37436 71.485702 
L 84.144403 69.372956 
L 85.914445 77.900521 
L 87.684488 81.409405 
L 89.45453 82.946114 
L 91.224573 85.820799 
L 92.994615 90.0609 
L 94.764658 93.995283 
L 96.5347 95.715717 
L 100.074785 91.894888 
L 101.844828 96.238186 
L 103.61487 103.549038 
L 105.384913 107.684549 
L 107.154955 105.473862 
L 108.924998 99.854795 
L 110.695041 97.62628 
L 112.465083 100.942088 
L 114.235126 106.909164 
L 116.005168 111.476318 
L 117.775211 114.546864 
L 119.545253 116.743989 
L 121.315296 118.447998 
L 123.085338 119.973165 
L 124.855381 120.779624 
L 126.625423 122.444867 
L 128.395466 125.211107 
L 130.165508 129.078207 
L 131.935551 133.449073 
L 133.705593 137.18567 
L 135.475636 138.669693 
L 137.245678 138.481566 
L 139.015721 137.501091 
L 140.785764 137.152116 
L 142.555806 138.608797 
L 144.325849 142.114333 
L 146.095891 146.813013 
L 147.865934 152.140181 
L 149.635976 156.87383 
L 151.406019 160.605776 
L 153.176061 163.345499 
L 154.946104 164.949191 
L 156.716146 165.470903 
L 160.256231 165.884434 
L 162.026274 166.388928 
L 163.796316 167.348515 
L 165.566359 168.828299 
L 167.336402 170.796535 
L 170.876487 175.117345 
L 172.646529 177.122241 
L 174.416572 178.711207 
L 176.186614 180.105302 
L 181.496742 183.654796 
L 183.266784 184.925745 
L 185.036827 186.559838 
L 188.576912 190.343926 
L 195.657082 198.948677 
L 199.197167 202.426911 
L 200.96721 203.705204 
L 202.737252 204.577171 
L 204.507295 205.053746 
L 208.04738 205.669609 
L 211.587465 206.199241 
L 215.12755 207.889841 
L 216.897592 209.106328 
L 222.20772 213.134072 
L 223.977762 214.279224 
L 225.747805 215.211303 
L 229.28789 216.735108 
L 232.827975 217.943076 
L 236.36806 219.545551 
L 238.138103 220.501111 
L 246.988315 226.437553 
L 248.758358 227.363172 
L 252.298443 228.78784 
L 255.838528 229.868255 
L 257.608571 230.296132 
L 264.688741 232.806212 
L 271.768911 235.922341 
L 273.538953 236.518268 
L 277.079038 237.556503 
L 278.849081 238.155884 
L 282.389166 239.666338 
L 284.159209 240.544233 
L 285.929251 241.550652 
L 289.469336 243.218418 
L 291.239379 243.880329 
L 298.319549 245.435334 
L 301.859634 245.815939 
L 305.399719 246.495379 
L 308.939804 247.517961 
L 316.019974 249.808945 
L 317.790017 250.451012 
L 319.560059 250.960723 
L 324.870187 251.644865 
L 330.180314 252.130528 
L 331.950357 252.373981 
L 339.030527 254.371766 
L 340.80057 255.133568 
L 346.110697 256.765563 
L 349.650782 258.401661 
L 351.420825 258.838995 
L 353.190867 258.769563 
L 356.730952 257.997957 
L 358.500995 257.965205 
L 360.271037 258.261935 
L 363.811122 259.184389 
L 365.581165 259.499783 
L 369.12125 259.666543 
L 370.891293 259.875417 
L 372.661335 260.240226 
L 376.20142 261.20301 
L 377.971463 261.515051 
L 385.051633 262.210298 
L 390.36176 263.27376 
L 393.901845 263.603583 
L 395.671888 263.685287 
L 397.44193 263.90317 
L 404.522101 265.217623 
L 406.292143 265.383937 
L 409.832228 265.515802 
L 413.372313 265.923833 
L 418.682441 266.85352 
L 427.532654 267.534807 
L 434.612824 268.614077 
L 441.692994 269.044637 
L 448.773164 269.892519 
L 455.853334 270.216755 
L 459.393419 270.596455 
L 462.933504 271.112119 
L 466.473589 271.442834 
L 475.323802 271.906801 
L 484.174014 272.907909 
L 493.024227 273.429143 
L 501.87444 274.290518 
L 514.264738 274.763306 
L 517.804823 275.150137 
L 523.11495 275.438003 
L 530.19512 275.58213 
L 542.585418 276.422155 
L 553.205673 276.60523 
L 563.825928 277.435922 
L 574.446184 277.600279 
L 581.526354 278.244099 
L 585.066439 278.423564 
L 588.606524 278.52854 
L 593.916651 278.412896 
L 597.456736 278.423317 
L 600.996822 278.648941 
L 608.076992 279.351109 
L 615.157162 279.410739 
L 622.237332 279.157439 
L 627.547459 279.446738 
L 631.087545 279.870982 
L 634.62763 280.312302 
L 639.937757 280.428861 
L 643.477842 280.281932 
L 645.247885 280.051269 
L 652.328055 279.849709 
L 654.098097 279.970273 
L 655.86814 280.224023 
L 662.94831 281.731571 
L 666.488395 282.092983 
L 670.02848 281.620293 
L 671.798523 280.951305 
L 671.798523 280.951305 
" clip-path="url(#p6f161e6bc1)" style="fill: none; stroke: #4a4a4a; stroke-width: 2; stroke-linecap: square"/>
   </g>
   <g id="line2d_14">
    <path d="M 66.443977 43.731171 
L 68.21402 46.096731 
L 69.984062 49.01217 
L 71.754105 52.434669 
L 78.834275 67.569845 
L 80.604318 70.689145 
L 82.37436 73.435272 
L 92.994615 88.359102 
L 96.5347 92.696354 
L 100.074785 96.407341 
L 101.844828 98.06083 
L 103.61487 99.546212 
L 105.384913 100.845254 
L 108.924998 103.156712 
L 110.695041 104.472979 
L 112.465083 106.094162 
L 114.235126 108.062401 
L 117.775211 112.703436 
L 123.085338 119.770343 
L 128.395466 126.805607 
L 131.935551 131.49515 
L 133.705593 133.603803 
L 135.475636 135.49111 
L 140.785764 140.779902 
L 142.555806 142.960758 
L 144.325849 145.528193 
L 147.865934 151.536696 
L 151.406019 157.49463 
L 153.176061 160.000685 
L 154.946104 162.07884 
L 156.716146 163.755046 
L 158.486189 165.125246 
L 163.796316 168.705679 
L 167.336402 171.543579 
L 179.726699 182.555881 
L 183.266784 185.605719 
L 186.806869 188.974081 
L 192.116997 194.54841 
L 195.657082 198.153131 
L 197.427125 199.766198 
L 199.197167 201.197426 
L 200.96721 202.425997 
L 202.737252 203.453442 
L 204.507295 204.304637 
L 208.04738 205.672164 
L 211.587465 206.990287 
L 215.12755 208.62078 
L 218.667635 210.613348 
L 223.977762 213.76863 
L 227.517848 215.652776 
L 238.138103 220.928048 
L 248.758358 226.864399 
L 252.298443 228.433745 
L 257.608571 230.390079 
L 264.688741 232.957179 
L 282.389166 239.875671 
L 289.469336 242.795851 
L 293.009421 243.973615 
L 296.549506 244.889581 
L 308.939804 247.671869 
L 319.560059 250.55745 
L 323.100144 251.250759 
L 331.950357 252.736765 
L 335.490442 253.552149 
L 340.80057 255.093678 
L 346.110697 256.734894 
L 349.650782 257.601057 
L 353.190867 258.124521 
L 365.581165 259.312688 
L 372.661335 260.408095 
L 383.28159 262.090863 
L 399.211973 264.319887 
L 408.062186 265.437315 
L 441.692994 269.14046 
L 466.473589 271.317912 
L 484.174014 272.813541 
L 503.644482 274.259263 
L 516.03478 274.945443 
L 524.884993 275.439284 
L 537.27529 276.075774 
L 544.355461 276.369499 
L 553.205673 276.705268 
L 567.366013 277.441354 
L 576.216226 277.810897 
L 586.836481 278.368359 
L 600.996822 278.747932 
L 611.617077 279.309901 
L 627.547459 279.605453 
L 636.397672 280.172716 
L 641.7078 280.210094 
L 650.558012 280.099311 
L 654.098097 280.312708 
L 659.408225 280.939567 
L 664.718353 281.48282 
L 668.258438 281.610389 
L 671.798523 281.589103 
L 671.798523 281.589103 
" clip-path="url(#p6f161e6bc1)" style="fill: none; stroke: #b7d0ee; stroke-width: 2; stroke-linecap: square"/>
   </g>
   <g id="line2d_15">
    <path d="M 66.443977 173.391524 
L 68.21402 172.143891 
L 69.984062 175.254533 
L 71.754105 180.036417 
L 73.524147 182.6192 
L 77.064232 185.310027 
L 78.834275 188.621212 
L 80.604318 190.355625 
L 82.37436 189.273249 
L 84.144403 190.09315 
L 85.914445 192.649045 
L 87.684488 192.599802 
L 89.45453 193.567189 
L 91.224573 196.159979 
L 92.994615 198.049617 
L 94.764658 198.117442 
L 96.5347 197.810235 
L 98.304743 198.146704 
L 100.074785 199.245455 
L 101.844828 201.209224 
L 103.61487 202.336665 
L 105.384913 202.516483 
L 107.154955 202.38787 
L 110.695041 201.456402 
L 112.465083 201.650376 
L 114.235126 202.956394 
L 116.005168 204.862954 
L 117.775211 207.003125 
L 119.545253 208.485675 
L 121.315296 208.726286 
L 123.085338 208.066791 
L 124.855381 207.055499 
L 126.625423 207.140904 
L 128.395466 208.560479 
L 131.935551 213.360367 
L 133.705593 215.080648 
L 135.475636 215.362967 
L 137.245678 214.769619 
L 139.015721 213.979865 
L 140.785764 213.761065 
L 142.555806 214.596321 
L 144.325849 216.461677 
L 146.095891 218.848097 
L 147.865934 221.468867 
L 149.635976 223.759528 
L 151.406019 225.539245 
L 153.176061 226.793284 
L 154.946104 227.411344 
L 156.716146 227.393832 
L 162.026274 226.709137 
L 163.796316 226.887009 
L 165.566359 227.408377 
L 167.336402 228.23538 
L 170.876487 230.123701 
L 172.646529 230.972164 
L 176.186614 232.16213 
L 179.726699 233.10781 
L 183.266784 234.345011 
L 186.806869 236.015603 
L 190.346954 237.965883 
L 195.657082 241.146151 
L 199.197167 242.914967 
L 200.96721 243.555089 
L 202.737252 243.965672 
L 206.277337 244.237519 
L 211.587465 244.387572 
L 215.12755 245.168447 
L 218.667635 246.482481 
L 222.20772 247.84586 
L 223.977762 248.407159 
L 227.517848 249.151182 
L 231.057933 249.661989 
L 234.598018 250.135455 
L 238.138103 250.863402 
L 248.758358 254.009594 
L 254.068486 254.901371 
L 261.148656 255.840456 
L 264.688741 256.496636 
L 271.768911 257.969525 
L 282.389166 259.557434 
L 291.239379 261.70926 
L 298.319549 262.469795 
L 303.629676 262.747579 
L 307.169761 263.154619 
L 316.019974 264.564377 
L 319.560059 265.160302 
L 326.640229 265.503392 
L 331.950357 265.814816 
L 335.490442 266.296167 
L 337.260484 266.370953 
L 342.570612 267.745464 
L 346.110697 268.143359 
L 351.420825 269.136893 
L 353.190867 269.158412 
L 358.500995 268.709763 
L 360.271037 268.823702 
L 365.581165 269.532514 
L 372.661335 269.866437 
L 377.971463 270.474526 
L 385.051633 270.901785 
L 390.36176 271.476569 
L 393.901845 271.650297 
L 397.44193 271.779061 
L 406.292143 272.584785 
L 409.832228 272.656696 
L 415.142356 273.037435 
L 418.682441 273.388325 
L 429.302696 273.884025 
L 432.842781 274.173346 
L 436.382866 274.315719 
L 443.463036 274.615381 
L 448.773164 275.015247 
L 459.393419 275.360283 
L 464.703547 275.771613 
L 470.013674 275.950089 
L 475.323802 276.124124 
L 485.944057 276.770737 
L 493.024227 276.978364 
L 505.414525 277.538244 
L 514.264738 277.792407 
L 517.804823 278.034123 
L 524.884993 278.276258 
L 533.735205 278.493192 
L 542.585418 278.781158 
L 553.205673 278.836881 
L 565.595971 279.37836 
L 574.446184 279.474946 
L 588.606524 280.013274 
L 593.916651 279.965402 
L 599.226779 280.000468 
L 611.617077 280.590434 
L 615.157162 280.540117 
L 624.007374 280.449405 
L 627.547459 280.548124 
L 631.087545 280.809525 
L 638.167715 281.247242 
L 643.477842 281.198174 
L 645.247885 281.042512 
L 648.78797 280.884535 
L 652.328055 280.820483 
L 655.86814 280.91354 
L 664.718353 281.647178 
L 666.488395 281.7427 
L 670.02848 281.478576 
L 671.798523 281.084637 
L 671.798523 281.084637 
" clip-path="url(#p6f161e6bc1)" style="fill: none; stroke: #0d1530; stroke-width: 2; stroke-linecap: square"/>
   </g>
   <g id="line2d_16">
    <path d="M 66.443977 176.710407 
L 68.21402 177.745178 
L 69.984062 178.984485 
L 71.754105 180.412964 
L 80.604318 188.286285 
L 84.144403 190.84865 
L 89.45453 194.277453 
L 92.994615 196.347308 
L 96.5347 198.139964 
L 100.074785 199.67864 
L 103.61487 200.940139 
L 112.465083 203.478835 
L 116.005168 205.001389 
L 119.545253 206.576346 
L 126.625423 209.343827 
L 130.165508 211.103799 
L 133.705593 212.895365 
L 137.245678 214.376588 
L 140.785764 215.911587 
L 142.555806 216.916998 
L 144.325849 218.135765 
L 147.865934 221.017212 
L 151.406019 223.789643 
L 153.176061 224.885059 
L 154.946104 225.727592 
L 156.716146 226.334645 
L 160.256231 227.09259 
L 163.796316 227.758913 
L 167.336402 228.729494 
L 172.646529 230.668725 
L 185.036827 235.482342 
L 188.576912 237.18214 
L 195.657082 240.771823 
L 199.197167 242.257787 
L 202.737252 243.327342 
L 206.277337 244.022452 
L 213.357507 245.198464 
L 216.897592 246.060995 
L 225.747805 248.519371 
L 231.057933 249.640659 
L 238.138103 251.119829 
L 250.5284 254.139392 
L 255.838528 255.083301 
L 266.458783 256.885421 
L 294.779464 261.979016 
L 301.859634 262.707335 
L 308.939804 263.507794 
L 321.330102 265.113079 
L 335.490442 266.425436 
L 342.570612 267.566233 
L 347.88074 268.355182 
L 351.420825 268.697618 
L 356.730952 268.942086 
L 363.811122 269.287619 
L 377.971463 270.395329 
L 397.44193 271.881442 
L 416.912398 273.17154 
L 434.612824 274.199488 
L 484.174014 276.651271 
L 507.184567 277.582029 
L 547.895546 278.785374 
L 556.745758 279.032918 
L 567.366013 279.369422 
L 579.756311 279.71153 
L 588.606524 279.939246 
L 600.996822 280.150337 
L 613.387119 280.496228 
L 625.777417 280.596855 
L 641.7078 281.101817 
L 654.098097 281.00976 
L 670.02848 281.474279 
L 671.798523 281.454644 
L 671.798523 281.454644 
" clip-path="url(#p6f161e6bc1)" style="fill: none; stroke: #104a7e; stroke-width: 2; stroke-linecap: square"/>
   </g>
   <g id="patch_3">
    <path d="M 36.17625 294.678437 
L 36.17625 17.798437 
" style="fill: none; stroke: #444444; stroke-width: 0.8; stroke-linejoin: miter; stroke-linecap: square"/>
   </g>
   <g id="patch_4">
    <path d="M 36.17625 294.678437 
L 702.06625 294.678437 
" style="fill: none; stroke: #444444; stroke-width: 0.8; stroke-linejoin: miter; stroke-linecap: square"/>
   </g>
   <g id="legend_1">
    <g id="line2d_17">
     <path d="M 405.542812 30.896875 
L 415.542812 30.896875 
L 425.542812 30.896875 
" style="fill: none; stroke: #4a4a4a; stroke-width: 2; stroke-linecap: square"/>
    </g>
    <g id="text_16">
     <!-- Nedvinarė, neapdoroti -->
     <g style="fill: #222222" transform="translate(433.542812 34.396875) scale(0.1 -0.1)">
      <defs>
       <path id="DejaVuSans-4e" d="M 628 4666 
L 1478 4666 
L 3547 763 
L 3547 4666 
L 4159 4666 
L 4159 0 
L 3309 0 
L 1241 3903 
L 1241 0 
L 628 0 
L 628 4666 
z
" transform="scale(0.015625)"/>
       <path id="DejaVuSans-76" d="M 191 3500 
L 800 3500 
L 1894 563 
L 2988 3500 
L 3597 3500 
L 2284 0 
L 1503 0 
L 191 3500 
z
" transform="scale(0.015625)"/>
       <path id="DejaVuSans-117" d="M 1778 4863 
L 2353 4863 
L 2353 4134 
L 1778 4134 
L 1778 4863 
z
M 2072 3584 
L 2072 3584 
z
M 3597 1894 
L 3597 1613 
L 953 1613 
Q 991 1019 1311 708 
Q 1631 397 2203 397 
Q 2534 397 2845 478 
Q 3156 559 3463 722 
L 3463 178 
Q 3153 47 2828 -22 
Q 2503 -91 2169 -91 
Q 1331 -91 842 396 
Q 353 884 353 1716 
Q 353 2575 817 3079 
Q 1281 3584 2069 3584 
Q 2775 3584 3186 3129 
Q 3597 2675 3597 1894 
z
M 3022 2063 
Q 3016 2534 2758 2815 
Q 2500 3097 2075 3097 
Q 1594 3097 1305 2825 
Q 1016 2553 972 2059 
L 3022 2063 
z
" transform="scale(0.015625)"/>
       <path id="DejaVuSans-70" d="M 1159 525 
L 1159 -1331 
L 581 -1331 
L 581 3500 
L 1159 3500 
L 1159 2969 
Q 1341 3281 1617 3432 
Q 1894 3584 2278 3584 
Q 2916 3584 3314 3078 
Q 3713 2572 3713 1747 
Q 3713 922 3314 415 
Q 2916 -91 2278 -91 
Q 1894 -91 1617 61 
Q 1341 213 1159 525 
z
M 3116 1747 
Q 3116 2381 2855 2742 
Q 2594 3103 2138 3103 
Q 1681 3103 1420 2742 
Q 1159 2381 1159 1747 
Q 1159 1113 1420 752 
Q 1681 391 2138 391 
Q 2594 391 2855 752 
Q 3116 1113 3116 1747 
z
" transform="scale(0.015625)"/>
      </defs>
      <use xlink:href="#DejaVuSans-4e"/>
      <use xlink:href="#DejaVuSans-65" x="74.804688"/>
      <use xlink:href="#DejaVuSans-64" x="136.328125"/>
      <use xlink:href="#DejaVuSans-76" x="199.804688"/>
      <use xlink:href="#DejaVuSans-69" x="258.984375"/>
      <use xlink:href="#DejaVuSans-6e" x="286.767578"/>
      <use xlink:href="#DejaVuSans-61" x="350.146484"/>
      <use xlink:href="#DejaVuSans-72" x="411.425781"/>
      <use xlink:href="#DejaVuSans-117" x="452.539062"/>
      <use xlink:href="#DejaVuSans-2c" x="514.0625"/>
      <use xlink:href="#DejaVuSans-20" x="545.849609"/>
      <use xlink:href="#DejaVuSans-6e" x="577.636719"/>
      <use xlink:href="#DejaVuSans-65" x="641.015625"/>
      <use xlink:href="#DejaVuSans-61" x="702.539062"/>
      <use xlink:href="#DejaVuSans-70" x="763.818359"/>
      <use xlink:href="#DejaVuSans-64" x="827.294922"/>
      <use xlink:href="#DejaVuSans-6f" x="890.771484"/>
      <use xlink:href="#DejaVuSans-72" x="951.953125"/>
      <use xlink:href="#DejaVuSans-6f" x="990.816406"/>
      <use xlink:href="#DejaVuSans-74" x="1051.998047"/>
      <use xlink:href="#DejaVuSans-69" x="1091.207031"/>
     </g>
    </g>
    <g id="line2d_18">
     <path d="M 405.542812 45.575 
L 415.542812 45.575 
L 425.542812 45.575 
" style="fill: none; stroke: #b7d0ee; stroke-width: 2; stroke-linecap: square"/>
    </g>
    <g id="text_17">
     <!-- Nedvinarė, σ=6.0 -->
     <g style="fill: #222222" transform="translate(433.542812 49.075) scale(0.1 -0.1)">
      <defs>
       <path id="DejaVuSans-3c3" d="M 1959 3044 
Q 1484 3044 1228 2700 
Q 959 2341 959 1747 
Q 959 1119 1226 758 
Q 1494 397 1959 397 
Q 2419 397 2687 759 
Q 2956 1122 2956 1747 
Q 2956 2319 2688 2700 
Q 2441 3044 1959 3044 
z
M 1959 3500 
L 3869 3500 
L 3869 2925 
L 3225 2925 
Q 3566 2438 3566 1747 
Q 3566 888 3138 400 
Q 2709 -91 1959 -91 
Q 1206 -91 781 400 
Q 353 888 353 1747 
Q 353 2613 781 3097 
Q 1134 3500 1959 3500 
z
" transform="scale(0.015625)"/>
       <path id="DejaVuSans-3d" d="M 678 2906 
L 4684 2906 
L 4684 2381 
L 678 2381 
L 678 2906 
z
M 678 1631 
L 4684 1631 
L 4684 1100 
L 678 1100 
L 678 1631 
z
" transform="scale(0.015625)"/>
       <path id="DejaVuSans-2e" d="M 684 794 
L 1344 794 
L 1344 0 
L 684 0 
L 684 794 
z
" transform="scale(0.015625)"/>
      </defs>
      <use xlink:href="#DejaVuSans-4e"/>
      <use xlink:href="#DejaVuSans-65" x="74.804688"/>
      <use xlink:href="#DejaVuSans-64" x="136.328125"/>
      <use xlink:href="#DejaVuSans-76" x="199.804688"/>
      <use xlink:href="#DejaVuSans-69" x="258.984375"/>
      <use xlink:href="#DejaVuSans-6e" x="286.767578"/>
      <use xlink:href="#DejaVuSans-61" x="350.146484"/>
      <use xlink:href="#DejaVuSans-72" x="411.425781"/>
      <use xlink:href="#DejaVuSans-117" x="452.539062"/>
      <use xlink:href="#DejaVuSans-2c" x="514.0625"/>
      <use xlink:href="#DejaVuSans-20" x="545.849609"/>
      <use xlink:href="#DejaVuSans-3c3" x="577.636719"/>
      <use xlink:href="#DejaVuSans-3d" x="641.015625"/>
      <use xlink:href="#DejaVuSans-36" x="724.804688"/>
      <use xlink:href="#DejaVuSans-2e" x="788.427734"/>
      <use xlink:href="#DejaVuSans-30" x="820.214844"/>
     </g>
    </g>
    <g id="line2d_19">
     <path d="M 565.445937 30.896875 
L 575.445937 30.896875 
L 585.445937 30.896875 
" style="fill: none; stroke: #0d1530; stroke-width: 2; stroke-linecap: square"/>
    </g>
    <g id="text_18">
     <!-- Dvinarė, neapdoroti -->
     <g style="fill: #222222" transform="translate(593.445937 34.396875) scale(0.1 -0.1)">
      <defs>
       <path id="DejaVuSans-44" d="M 1259 4147 
L 1259 519 
L 2022 519 
Q 2988 519 3436 956 
Q 3884 1394 3884 2338 
Q 3884 3275 3436 3711 
Q 2988 4147 2022 4147 
L 1259 4147 
z
M 628 4666 
L 1925 4666 
Q 3281 4666 3915 4102 
Q 4550 3538 4550 2338 
Q 4550 1131 3912 565 
Q 3275 0 1925 0 
L 628 0 
L 628 4666 
z
" transform="scale(0.015625)"/>
      </defs>
      <use xlink:href="#DejaVuSans-44"/>
      <use xlink:href="#DejaVuSans-76" x="77.001953"/>
      <use xlink:href="#DejaVuSans-69" x="136.181641"/>
      <use xlink:href="#DejaVuSans-6e" x="163.964844"/>
      <use xlink:href="#DejaVuSans-61" x="227.34375"/>
      <use xlink:href="#DejaVuSans-72" x="288.623047"/>
      <use xlink:href="#DejaVuSans-117" x="329.736328"/>
      <use xlink:href="#DejaVuSans-2c" x="391.259766"/>
      <use xlink:href="#DejaVuSans-20" x="423.046875"/>
      <use xlink:href="#DejaVuSans-6e" x="454.833984"/>
      <use xlink:href="#DejaVuSans-65" x="518.212891"/>
      <use xlink:href="#DejaVuSans-61" x="579.736328"/>
      <use xlink:href="#DejaVuSans-70" x="641.015625"/>
      <use xlink:href="#DejaVuSans-64" x="704.492188"/>
      <use xlink:href="#DejaVuSans-6f" x="767.96875"/>
      <use xlink:href="#DejaVuSans-72" x="829.150391"/>
      <use xlink:href="#DejaVuSans-6f" x="868.013672"/>
      <use xlink:href="#DejaVuSans-74" x="929.195312"/>
      <use xlink:href="#DejaVuSans-69" x="968.404297"/>
     </g>
    </g>
    <g id="line2d_20">
     <path d="M 565.445937 45.575 
L 575.445937 45.575 
L 585.445937 45.575 
" style="fill: none; stroke: #104a7e; stroke-width: 2; stroke-linecap: square"/>
    </g>
    <g id="text_19">
     <!-- Dvinarė, σ=6.0 -->
     <g style="fill: #222222" transform="translate(593.445937 49.075) scale(0.1 -0.1)">
      <use xlink:href="#DejaVuSans-44"/>
      <use xlink:href="#DejaVuSans-76" x="77.001953"/>
      <use xlink:href="#DejaVuSans-69" x="136.181641"/>
      <use xlink:href="#DejaVuSans-6e" x="163.964844"/>
      <use xlink:href="#DejaVuSans-61" x="227.34375"/>
      <use xlink:href="#DejaVuSans-72" x="288.623047"/>
      <use xlink:href="#DejaVuSans-117" x="329.736328"/>
      <use xlink:href="#DejaVuSans-2c" x="391.259766"/>
      <use xlink:href="#DejaVuSans-20" x="423.046875"/>
      <use xlink:href="#DejaVuSans-3c3" x="454.833984"/>
      <use xlink:href="#DejaVuSans-3d" x="518.212891"/>
      <use xlink:href="#DejaVuSans-36" x="602.001953"/>
      <use xlink:href="#DejaVuSans-2e" x="665.625"/>
      <use xlink:href="#DejaVuSans-30" x="697.412109"/>
     </g>
    </g>
   </g>
  </g>
 </g>
 <defs>
  <clipPath id="p6f161e6bc1">
   <rect x="36.17625" y="17.798437" width="665.89" height="276.88"/>
  </clipPath>
 </defs>
</svg>
