<?xml version="1.0" encoding="utf-8" standalone="no"?>
<!DOCTYPE svg PUBLIC "-//W3C//DTD SVG 1.1//EN"
  "http://www.w3.org/Graphics/SVG/1.1/DTD/svg11.dtd">
<svg xmlns:xlink="http://www.w3.org/1999/xlink" width="781.365937pt" height="384.891875pt" viewBox="0 0 781.365937 384.891875" xmlns="http://www.w3.org/2000/svg" version="1.1">
 <metadata>
  <rdf:RDF xmlns:dc="http://purl.org/dc/elements/1.1/" xmlns:cc="http://creativecommons.org/ns#" xmlns:rdf="http://www.w3.org/1999/02/22-rdf-syntax-ns#">
   <cc:Work>
    <dc:type rdf:resource="http://purl.org/dc/dcmitype/StillImage"/>
    <dc:date>2026-04-26T17:33:19.745286</dc:date>
    <dc:format>image/svg+xml</dc:format>
    <dc:creator>
     <cc:Agent>
      <dc:title>Matplotlib v3.8.0, https://matplotlib.org/</dc:title>
     </cc:Agent>
    </dc:creator>
   </cc:Work>
  </rdf:RDF>
 </metadata>
 <defs>
  <style type="text/css">*{stroke-linejoin: round; stroke-linecap: butt}</style>
 </defs>
 <g id="figure_1">
  <g id="patch_1">
   <path d="M 0 384.891875 
L 781.365937 384.891875 
L 781.365937 0 
L 0 0 
z
" style="fill: #ffffff"/>
  </g>
  <g id="axes_1">
   <g id="patch_2">
    <path d="M 44.555937 345.4 
L 774.165938 345.4 
L 774.165938 7.2 
L 44.555937 7.2 
z
" style="fill: #ffffff"/>
   </g>
   <g id="matplotlib.axis_1">
    <g id="xtick_1">
     <g id="line2d_1">
      <defs>
       <path id="m29ba211de6" d="M 0 0 
L 0 3.5 
" style="stroke: #222222; stroke-width: 0.8"/>
      </defs>
      <g>
       <use xlink:href="#m29ba211de6" x="139.781485" y="345.4" style="fill: #222222; stroke: #222222; stroke-width: 0.8"/>
      </g>
     </g>
     <g id="text_1">
      <!-- 400 -->
      <g style="fill: #222222" transform="translate(130.237735 359.998438) scale(0.1 -0.1)">
       <defs>
        <path id="DejaVuSans-34" d="M 2419 4116 
L 825 1625 
L 2419 1625 
L 2419 4116 
z
M 2253 4666 
L 3047 4666 
L 3047 1625 
L 3713 1625 
L 3713 1100 
L 3047 1100 
L 3047 0 
L 2419 0 
L 2419 1100 
L 313 1100 
L 313 1709 
L 2253 4666 
z
" transform="scale(0.015625)"/>
        <path id="DejaVuSans-30" d="M 2034 4250 
Q 1547 4250 1301 3770 
Q 1056 3291 1056 2328 
Q 1056 1369 1301 889 
Q 1547 409 2034 409 
Q 2525 409 2770 889 
Q 3016 1369 3016 2328 
Q 3016 3291 2770 3770 
Q 2525 4250 2034 4250 
z
M 2034 4750 
Q 2819 4750 3233 4129 
Q 3647 3509 3647 2328 
Q 3647 1150 3233 529 
Q 2819 -91 2034 -91 
Q 1250 -91 836 529 
Q 422 1150 422 2328 
Q 422 3509 836 4129 
Q 1250 4750 2034 4750 
z
" transform="scale(0.015625)"/>
       </defs>
       <use xlink:href="#DejaVuSans-34"/>
       <use xlink:href="#DejaVuSans-30" x="63.623047"/>
       <use xlink:href="#DejaVuSans-30" x="127.246094"/>
      </g>
     </g>
    </g>
    <g id="xtick_2">
     <g id="line2d_2">
      <g>
       <use xlink:href="#m29ba211de6" x="236.752511" y="345.4" style="fill: #222222; stroke: #222222; stroke-width: 0.8"/>
      </g>
     </g>
     <g id="text_2">
      <!-- 500 -->
      <g style="fill: #222222" transform="translate(227.208761 359.998438) scale(0.1 -0.1)">
       <defs>
        <path id="DejaVuSans-35" d="M 691 4666 
L 3169 4666 
L 3169 4134 
L 1269 4134 
L 1269 2991 
Q 1406 3038 1543 3061 
Q 1681 3084 1819 3084 
Q 2600 3084 3056 2656 
Q 3513 2228 3513 1497 
Q 3513 744 3044 326 
Q 2575 -91 1722 -91 
Q 1428 -91 1123 -41 
Q 819 9 494 109 
L 494 744 
Q 775 591 1075 516 
Q 1375 441 1709 441 
Q 2250 441 2565 725 
Q 2881 1009 2881 1497 
Q 2881 1984 2565 2268 
Q 2250 2553 1709 2553 
Q 1456 2553 1204 2497 
Q 953 2441 691 2322 
L 691 4666 
z
" transform="scale(0.015625)"/>
       </defs>
       <use xlink:href="#DejaVuSans-35"/>
       <use xlink:href="#DejaVuSans-30" x="63.623047"/>
       <use xlink:href="#DejaVuSans-30" x="127.246094"/>
      </g>
     </g>
    </g>
    <g id="xtick_3">
     <g id="line2d_3">
      <g>
       <use xlink:href="#m29ba211de6" x="333.723537" y="345.4" style="fill: #222222; stroke: #222222; stroke-width: 0.8"/>
      </g>
     </g>
     <g id="text_3">
      <!-- 600 -->
      <g style="fill: #222222" transform="translate(324.179787 359.998438) scale(0.1 -0.1)">
       <defs>
        <path id="DejaVuSans-36" d="M 2113 2584 
Q 1688 2584 1439 2293 
Q 1191 2003 1191 1497 
Q 1191 994 1439 701 
Q 1688 409 2113 409 
Q 2538 409 2786 701 
Q 3034 994 3034 1497 
Q 3034 2003 2786 2293 
Q 2538 2584 2113 2584 
z
M 3366 4563 
L 3366 3988 
Q 3128 4100 2886 4159 
Q 2644 4219 2406 4219 
Q 1781 4219 1451 3797 
Q 1122 3375 1075 2522 
Q 1259 2794 1537 2939 
Q 1816 3084 2150 3084 
Q 2853 3084 3261 2657 
Q 3669 2231 3669 1497 
Q 3669 778 3244 343 
Q 2819 -91 2113 -91 
Q 1303 -91 875 529 
Q 447 1150 447 2328 
Q 447 3434 972 4092 
Q 1497 4750 2381 4750 
Q 2619 4750 2861 4703 
Q 3103 4656 3366 4563 
z
" transform="scale(0.015625)"/>
       </defs>
       <use xlink:href="#DejaVuSans-36"/>
       <use xlink:href="#DejaVuSans-30" x="63.623047"/>
       <use xlink:href="#DejaVuSans-30" x="127.246094"/>
      </g>
     </g>
    </g>
    <g id="xtick_4">
     <g id="line2d_4">
      <g>
       <use xlink:href="#m29ba211de6" x="430.694563" y="345.4" style="fill: #222222; stroke: #222222; stroke-width: 0.8"/>
      </g>
     </g>
     <g id="text_4">
      <!-- 700 -->
      <g style="fill: #222222" transform="translate(421.150813 359.998438) scale(0.1 -0.1)">
       <defs>
        <path id="DejaVuSans-37" d="M 525 4666 
L 3525 4666 
L 3525 4397 
L 1831 0 
L 1172 0 
L 2766 4134 
L 525 4134 
L 525 4666 
z
" transform="scale(0.015625)"/>
       </defs>
       <use xlink:href="#DejaVuSans-37"/>
       <use xlink:href="#DejaVuSans-30" x="63.623047"/>
       <use xlink:href="#DejaVuSans-30" x="127.246094"/>
      </g>
     </g>
    </g>
    <g id="xtick_5">
     <g id="line2d_5">
      <g>
       <use xlink:href="#m29ba211de6" x="527.665589" y="345.4" style="fill: #222222; stroke: #222222; stroke-width: 0.8"/>
      </g>
     </g>
     <g id="text_5">
      <!-- 800 -->
      <g style="fill: #222222" transform="translate(518.121839 359.998438) scale(0.1 -0.1)">
       <defs>
        <path id="DejaVuSans-38" d="M 2034 2216 
Q 1584 2216 1326 1975 
Q 1069 1734 1069 1313 
Q 1069 891 1326 650 
Q 1584 409 2034 409 
Q 2484 409 2743 651 
Q 3003 894 3003 1313 
Q 3003 1734 2745 1975 
Q 2488 2216 2034 2216 
z
M 1403 2484 
Q 997 2584 770 2862 
Q 544 3141 544 3541 
Q 544 4100 942 4425 
Q 1341 4750 2034 4750 
Q 2731 4750 3128 4425 
Q 3525 4100 3525 3541 
Q 3525 3141 3298 2862 
Q 3072 2584 2669 2484 
Q 3125 2378 3379 2068 
Q 3634 1759 3634 1313 
Q 3634 634 3220 271 
Q 2806 -91 2034 -91 
Q 1263 -91 848 271 
Q 434 634 434 1313 
Q 434 1759 690 2068 
Q 947 2378 1403 2484 
z
M 1172 3481 
Q 1172 3119 1398 2916 
Q 1625 2713 2034 2713 
Q 2441 2713 2670 2916 
Q 2900 3119 2900 3481 
Q 2900 3844 2670 4047 
Q 2441 4250 2034 4250 
Q 1625 4250 1398 4047 
Q 1172 3844 1172 3481 
z
" transform="scale(0.015625)"/>
       </defs>
       <use xlink:href="#DejaVuSans-38"/>
       <use xlink:href="#DejaVuSans-30" x="63.623047"/>
       <use xlink:href="#DejaVuSans-30" x="127.246094"/>
      </g>
     </g>
    </g>
    <g id="xtick_6">
     <g id="line2d_6">
      <g>
       <use xlink:href="#m29ba211de6" x="624.636615" y="345.4" style="fill: #222222; stroke: #222222; stroke-width: 0.8"/>
      </g>
     </g>
     <g id="text_6">
      <!-- 900 -->
      <g style="fill: #222222" transform="translate(615.092865 359.998438) scale(0.1 -0.1)">
       <defs>
        <path id="DejaVuSans-39" d="M 703 97 
L 703 672 
Q 941 559 1184 500 
Q 1428 441 1663 441 
Q 2288 441 2617 861 
Q 2947 1281 2994 2138 
Q 2813 1869 2534 1725 
Q 2256 1581 1919 1581 
Q 1219 1581 811 2004 
Q 403 2428 403 3163 
Q 403 3881 828 4315 
Q 1253 4750 1959 4750 
Q 2769 4750 3195 4129 
Q 3622 3509 3622 2328 
Q 3622 1225 3098 567 
Q 2575 -91 1691 -91 
Q 1453 -91 1209 -44 
Q 966 3 703 97 
z
M 1959 2075 
Q 2384 2075 2632 2365 
Q 2881 2656 2881 3163 
Q 2881 3666 2632 3958 
Q 2384 4250 1959 4250 
Q 1534 4250 1286 3958 
Q 1038 3666 1038 3163 
Q 1038 2656 1286 2365 
Q 1534 2075 1959 2075 
z
" transform="scale(0.015625)"/>
       </defs>
       <use xlink:href="#DejaVuSans-39"/>
       <use xlink:href="#DejaVuSans-30" x="63.623047"/>
       <use xlink:href="#DejaVuSans-30" x="127.246094"/>
      </g>
     </g>
    </g>
    <g id="xtick_7">
     <g id="line2d_7">
      <g>
       <use xlink:href="#m29ba211de6" x="721.607641" y="345.4" style="fill: #222222; stroke: #222222; stroke-width: 0.8"/>
      </g>
     </g>
     <g id="text_7">
      <!-- 1000 -->
      <g style="fill: #222222" transform="translate(708.882641 359.998438) scale(0.1 -0.1)">
       <defs>
        <path id="DejaVuSans-31" d="M 794 531 
L 1825 531 
L 1825 4091 
L 703 3866 
L 703 4441 
L 1819 4666 
L 2450 4666 
L 2450 531 
L 3481 531 
L 3481 0 
L 794 0 
L 794 531 
z
" transform="scale(0.015625)"/>
       </defs>
       <use xlink:href="#DejaVuSans-31"/>
       <use xlink:href="#DejaVuSans-30" x="63.623047"/>
       <use xlink:href="#DejaVuSans-30" x="127.246094"/>
       <use xlink:href="#DejaVuSans-30" x="190.869141"/>
      </g>
     </g>
    </g>
    <g id="text_8">
     <!-- Bangos ilgis, nm -->
     <g style="fill: #222222" transform="translate(359.85625 375.19625) scale(0.12 -0.12)">
      <defs>
       <path id="DejaVuSans-42" d="M 1259 2228 
L 1259 519 
L 2272 519 
Q 2781 519 3026 730 
Q 3272 941 3272 1375 
Q 3272 1813 3026 2020 
Q 2781 2228 2272 2228 
L 1259 2228 
z
M 1259 4147 
L 1259 2741 
L 2194 2741 
Q 2656 2741 2882 2914 
Q 3109 3088 3109 3444 
Q 3109 3797 2882 3972 
Q 2656 4147 2194 4147 
L 1259 4147 
z
M 628 4666 
L 2241 4666 
Q 2963 4666 3353 4366 
Q 3744 4066 3744 3513 
Q 3744 3084 3544 2831 
Q 3344 2578 2956 2516 
Q 3422 2416 3680 2098 
Q 3938 1781 3938 1306 
Q 3938 681 3513 340 
Q 3088 0 2303 0 
L 628 0 
L 628 4666 
z
" transform="scale(0.015625)"/>
       <path id="DejaVuSans-61" d="M 2194 1759 
Q 1497 1759 1228 1600 
Q 959 1441 959 1056 
Q 959 750 1161 570 
Q 1363 391 1709 391 
Q 2188 391 2477 730 
Q 2766 1069 2766 1631 
L 2766 1759 
L 2194 1759 
z
M 3341 1997 
L 3341 0 
L 2766 0 
L 2766 531 
Q 2569 213 2275 61 
Q 1981 -91 1556 -91 
Q 1019 -91 701 211 
Q 384 513 384 1019 
Q 384 1609 779 1909 
Q 1175 2209 1959 2209 
L 2766 2209 
L 2766 2266 
Q 2766 2663 2505 2880 
Q 2244 3097 1772 3097 
Q 1472 3097 1187 3025 
Q 903 2953 641 2809 
L 641 3341 
Q 956 3463 1253 3523 
Q 1550 3584 1831 3584 
Q 2591 3584 2966 3190 
Q 3341 2797 3341 1997 
z
" transform="scale(0.015625)"/>
       <path id="DejaVuSans-6e" d="M 3513 2113 
L 3513 0 
L 2938 0 
L 2938 2094 
Q 2938 2591 2744 2837 
Q 2550 3084 2163 3084 
Q 1697 3084 1428 2787 
Q 1159 2491 1159 1978 
L 1159 0 
L 581 0 
L 581 3500 
L 1159 3500 
L 1159 2956 
Q 1366 3272 1645 3428 
Q 1925 3584 2291 3584 
Q 2894 3584 3203 3211 
Q 3513 2838 3513 2113 
z
" transform="scale(0.015625)"/>
       <path id="DejaVuSans-67" d="M 2906 1791 
Q 2906 2416 2648 2759 
Q 2391 3103 1925 3103 
Q 1463 3103 1205 2759 
Q 947 2416 947 1791 
Q 947 1169 1205 825 
Q 1463 481 1925 481 
Q 2391 481 2648 825 
Q 2906 1169 2906 1791 
z
M 3481 434 
Q 3481 -459 3084 -895 
Q 2688 -1331 1869 -1331 
Q 1566 -1331 1297 -1286 
Q 1028 -1241 775 -1147 
L 775 -588 
Q 1028 -725 1275 -790 
Q 1522 -856 1778 -856 
Q 2344 -856 2625 -561 
Q 2906 -266 2906 331 
L 2906 616 
Q 2728 306 2450 153 
Q 2172 0 1784 0 
Q 1141 0 747 490 
Q 353 981 353 1791 
Q 353 2603 747 3093 
Q 1141 3584 1784 3584 
Q 2172 3584 2450 3431 
Q 2728 3278 2906 2969 
L 2906 3500 
L 3481 3500 
L 3481 434 
z
" transform="scale(0.015625)"/>
       <path id="DejaVuSans-6f" d="M 1959 3097 
Q 1497 3097 1228 2736 
Q 959 2375 959 1747 
Q 959 1119 1226 758 
Q 1494 397 1959 397 
Q 2419 397 2687 759 
Q 2956 1122 2956 1747 
Q 2956 2369 2687 2733 
Q 2419 3097 1959 3097 
z
M 1959 3584 
Q 2709 3584 3137 3096 
Q 3566 2609 3566 1747 
Q 3566 888 3137 398 
Q 2709 -91 1959 -91 
Q 1206 -91 779 398 
Q 353 888 353 1747 
Q 353 2609 779 3096 
Q 1206 3584 1959 3584 
z
" transform="scale(0.015625)"/>
       <path id="DejaVuSans-73" d="M 2834 3397 
L 2834 2853 
Q 2591 2978 2328 3040 
Q 2066 3103 1784 3103 
Q 1356 3103 1142 2972 
Q 928 2841 928 2578 
Q 928 2378 1081 2264 
Q 1234 2150 1697 2047 
L 1894 2003 
Q 2506 1872 2764 1633 
Q 3022 1394 3022 966 
Q 3022 478 2636 193 
Q 2250 -91 1575 -91 
Q 1294 -91 989 -36 
Q 684 19 347 128 
L 347 722 
Q 666 556 975 473 
Q 1284 391 1588 391 
Q 1994 391 2212 530 
Q 2431 669 2431 922 
Q 2431 1156 2273 1281 
Q 2116 1406 1581 1522 
L 1381 1569 
Q 847 1681 609 1914 
Q 372 2147 372 2553 
Q 372 3047 722 3315 
Q 1072 3584 1716 3584 
Q 2034 3584 2315 3537 
Q 2597 3491 2834 3397 
z
" transform="scale(0.015625)"/>
       <path id="DejaVuSans-20" transform="scale(0.015625)"/>
       <path id="DejaVuSans-69" d="M 603 3500 
L 1178 3500 
L 1178 0 
L 603 0 
L 603 3500 
z
M 603 4863 
L 1178 4863 
L 1178 4134 
L 603 4134 
L 603 4863 
z
" transform="scale(0.015625)"/>
       <path id="DejaVuSans-6c" d="M 603 4863 
L 1178 4863 
L 1178 0 
L 603 0 
L 603 4863 
z
" transform="scale(0.015625)"/>
       <path id="DejaVuSans-2c" d="M 750 794 
L 1409 794 
L 1409 256 
L 897 -744 
L 494 -744 
L 750 256 
L 750 794 
z
" transform="scale(0.015625)"/>
       <path id="DejaVuSans-6d" d="M 3328 2828 
Q 3544 3216 3844 3400 
Q 4144 3584 4550 3584 
Q 5097 3584 5394 3201 
Q 5691 2819 5691 2113 
L 5691 0 
L 5113 0 
L 5113 2094 
Q 5113 2597 4934 2840 
Q 4756 3084 4391 3084 
Q 3944 3084 3684 2787 
Q 3425 2491 3425 1978 
L 3425 0 
L 2847 0 
L 2847 2094 
Q 2847 2600 2669 2842 
Q 2491 3084 2119 3084 
Q 1678 3084 1418 2786 
Q 1159 2488 1159 1978 
L 1159 0 
L 581 0 
L 581 3500 
L 1159 3500 
L 1159 2956 
Q 1356 3278 1631 3431 
Q 1906 3584 2284 3584 
Q 2666 3584 2933 3390 
Q 3200 3197 3328 2828 
z
" transform="scale(0.015625)"/>
      </defs>
      <use xlink:href="#DejaVuSans-42"/>
      <use xlink:href="#DejaVuSans-61" x="68.603516"/>
      <use xlink:href="#DejaVuSans-6e" x="129.882812"/>
      <use xlink:href="#DejaVuSans-67" x="193.261719"/>
      <use xlink:href="#DejaVuSans-6f" x="256.738281"/>
      <use xlink:href="#DejaVuSans-73" x="317.919922"/>
      <use xlink:href="#DejaVuSans-20" x="370.019531"/>
      <use xlink:href="#DejaVuSans-69" x="401.806641"/>
      <use xlink:href="#DejaVuSans-6c" x="429.589844"/>
      <use xlink:href="#DejaVuSans-67" x="457.373047"/>
      <use xlink:href="#DejaVuSans-69" x="520.849609"/>
      <use xlink:href="#DejaVuSans-73" x="548.632812"/>
      <use xlink:href="#DejaVuSans-2c" x="600.732422"/>
      <use xlink:href="#DejaVuSans-20" x="632.519531"/>
      <use xlink:href="#DejaVuSans-6e" x="664.306641"/>
      <use xlink:href="#DejaVuSans-6d" x="727.685547"/>
     </g>
    </g>
   </g>
   <g id="matplotlib.axis_2">
    <g id="ytick_1">
     <g id="line2d_8">
      <defs>
       <path id="me60028f2d5" d="M 0 0 
L -3.5 0 
" style="stroke: #222222; stroke-width: 0.8"/>
      </defs>
      <g>
       <use xlink:href="#me60028f2d5" x="44.555937" y="272.450778" style="fill: #222222; stroke: #222222; stroke-width: 0.8"/>
      </g>
     </g>
     <g id="text_9">
      <!-- −5 -->
      <g style="fill: #222222" transform="translate(22.81375 276.249997) scale(0.1 -0.1)">
       <defs>
        <path id="DejaVuSans-2212" d="M 678 2272 
L 4684 2272 
L 4684 1741 
L 678 1741 
L 678 2272 
z
" transform="scale(0.015625)"/>
       </defs>
       <use xlink:href="#DejaVuSans-2212"/>
       <use xlink:href="#DejaVuSans-35" x="83.789062"/>
      </g>
     </g>
    </g>
    <g id="ytick_2">
     <g id="line2d_9">
      <g>
       <use xlink:href="#me60028f2d5" x="44.555937" y="199.396817" style="fill: #222222; stroke: #222222; stroke-width: 0.8"/>
      </g>
     </g>
     <g id="text_10">
      <!-- 0 -->
      <g style="fill: #222222" transform="translate(31.193437 203.196035) scale(0.1 -0.1)">
       <use xlink:href="#DejaVuSans-30"/>
      </g>
     </g>
    </g>
    <g id="ytick_3">
     <g id="line2d_10">
      <g>
       <use xlink:href="#me60028f2d5" x="44.555937" y="126.342855" style="fill: #222222; stroke: #222222; stroke-width: 0.8"/>
      </g>
     </g>
     <g id="text_11">
      <!-- 5 -->
      <g style="fill: #222222" transform="translate(31.193437 130.142074) scale(0.1 -0.1)">
       <use xlink:href="#DejaVuSans-35"/>
      </g>
     </g>
    </g>
    <g id="ytick_4">
     <g id="line2d_11">
      <g>
       <use xlink:href="#me60028f2d5" x="44.555937" y="53.288894" style="fill: #222222; stroke: #222222; stroke-width: 0.8"/>
      </g>
     </g>
     <g id="text_12">
      <!-- 10 -->
      <g style="fill: #222222" transform="translate(24.830937 57.088113) scale(0.1 -0.1)">
       <use xlink:href="#DejaVuSans-31"/>
       <use xlink:href="#DejaVuSans-30" x="63.623047"/>
      </g>
     </g>
    </g>
    <g id="text_13">
     <!-- Svoris -->
     <g style="fill: #222222" transform="translate(16.318125 194.590625) rotate(-90) scale(0.12 -0.12)">
      <defs>
       <path id="DejaVuSans-53" d="M 3425 4513 
L 3425 3897 
Q 3066 4069 2747 4153 
Q 2428 4238 2131 4238 
Q 1616 4238 1336 4038 
Q 1056 3838 1056 3469 
Q 1056 3159 1242 3001 
Q 1428 2844 1947 2747 
L 2328 2669 
Q 3034 2534 3370 2195 
Q 3706 1856 3706 1288 
Q 3706 609 3251 259 
Q 2797 -91 1919 -91 
Q 1588 -91 1214 -16 
Q 841 59 441 206 
L 441 856 
Q 825 641 1194 531 
Q 1563 422 1919 422 
Q 2459 422 2753 634 
Q 3047 847 3047 1241 
Q 3047 1584 2836 1778 
Q 2625 1972 2144 2069 
L 1759 2144 
Q 1053 2284 737 2584 
Q 422 2884 422 3419 
Q 422 4038 858 4394 
Q 1294 4750 2059 4750 
Q 2388 4750 2728 4690 
Q 3069 4631 3425 4513 
z
" transform="scale(0.015625)"/>
       <path id="DejaVuSans-76" d="M 191 3500 
L 800 3500 
L 1894 563 
L 2988 3500 
L 3597 3500 
L 2284 0 
L 1503 0 
L 191 3500 
z
" transform="scale(0.015625)"/>
       <path id="DejaVuSans-72" d="M 2631 2963 
Q 2534 3019 2420 3045 
Q 2306 3072 2169 3072 
Q 1681 3072 1420 2755 
Q 1159 2438 1159 1844 
L 1159 0 
L 581 0 
L 581 3500 
L 1159 3500 
L 1159 2956 
Q 1341 3275 1631 3429 
Q 1922 3584 2338 3584 
Q 2397 3584 2469 3576 
Q 2541 3569 2628 3553 
L 2631 2963 
z
" transform="scale(0.015625)"/>
      </defs>
      <use xlink:href="#DejaVuSans-53"/>
      <use xlink:href="#DejaVuSans-76" x="63.476562"/>
      <use xlink:href="#DejaVuSans-6f" x="122.65625"/>
      <use xlink:href="#DejaVuSans-72" x="183.837891"/>
      <use xlink:href="#DejaVuSans-69" x="224.951172"/>
      <use xlink:href="#DejaVuSans-73" x="252.734375"/>
     </g>
    </g>
   </g>
   <g id="line2d_12">
    <path d="M 77.720028 224.986291 
L 79.659449 103.946897 
L 81.598869 192.037661 
L 83.53829 311.212789 
L 85.47771 292.077473 
L 87.417131 168.152687 
L 89.356552 87.535462 
L 91.295972 122.689212 
L 93.235393 219.147689 
L 95.174813 237.81148 
L 97.114234 206.05302 
L 99.053654 201.137205 
L 100.993075 202.060639 
L 102.932495 161.564544 
L 104.871916 103.99158 
L 106.811336 88.817491 
L 108.750757 142.825027 
L 110.690177 229.329839 
L 112.629598 269.426311 
L 114.569018 258.338501 
L 116.508439 241.082891 
L 118.447859 236.726009 
L 120.38728 242.323123 
L 122.3267 257.354417 
L 124.266121 283.432339 
L 126.205541 304.431945 
L 128.144962 290.146351 
L 130.084382 224.766815 
L 132.023803 145.030409 
L 133.963224 106.229454 
L 135.902644 117.192039 
L 137.842065 148.46624 
L 139.781485 165.155824 
L 141.720906 147.883477 
L 143.660326 105.857206 
L 145.599747 68.015153 
L 147.539167 57.596668 
L 149.478588 78.940168 
L 153.357429 162.941953 
L 155.296849 186.702241 
L 157.23627 181.947214 
L 159.17569 151.055651 
L 163.054531 57.550318 
L 164.993952 25.418178 
L 166.933372 22.572727 
L 168.872793 55.801131 
L 170.812213 119.61746 
L 172.751634 197.258506 
L 174.691054 267.650143 
L 176.630475 314.01605 
L 178.569896 330.027273 
L 180.509316 321.074177 
L 182.448737 300.146995 
L 184.388157 280.725502 
L 186.327578 270.76591 
L 188.266998 270.467637 
L 190.206419 273.769089 
L 192.145839 272.15141 
L 194.08526 259.194576 
L 196.02468 234.074407 
L 199.903521 171.645401 
L 201.842942 150.196465 
L 203.782362 140.966005 
L 205.721783 142.481101 
L 209.600624 157.043325 
L 211.540044 158.971049 
L 213.479465 153.483107 
L 215.418885 142.006285 
L 217.358306 128.915995 
L 219.297726 119.750706 
L 221.237147 119.112202 
L 223.176567 129.11271 
L 225.115988 148.839633 
L 230.93425 225.458944 
L 232.87367 241.315407 
L 234.813091 247.813558 
L 236.752511 245.401722 
L 238.691932 236.309445 
L 242.570773 211.033176 
L 244.510193 200.92673 
L 246.449614 195.17519 
L 248.389034 194.37574 
L 250.328455 198.076256 
L 252.267875 205.063288 
L 256.146716 222.62132 
L 258.086137 230.448086 
L 260.025557 236.530177 
L 261.964978 240.633046 
L 263.904398 242.872214 
L 265.843819 243.54308 
L 267.783239 242.962721 
L 269.72266 241.365653 
L 271.662081 238.861945 
L 273.601501 235.460646 
L 275.540922 231.135761 
L 277.480342 225.914477 
L 279.419763 219.954357 
L 283.298604 207.273161 
L 285.238024 201.615937 
L 287.177445 197.203892 
L 289.116865 194.560794 
L 291.056286 194.065961 
L 292.995706 195.910572 
L 294.935127 200.067872 
L 296.874547 206.292385 
L 298.813968 214.128647 
L 304.632229 240.394271 
L 306.57165 247.419346 
L 308.51107 252.393575 
L 310.450491 254.883984 
L 312.389911 254.744723 
L 314.329332 252.126798 
L 316.268752 247.44302 
L 318.208173 241.294601 
L 324.026435 220.869081 
L 325.965855 215.380107 
L 327.905276 211.213548 
L 329.844696 208.525554 
L 331.784117 207.310797 
L 333.723537 207.41359 
L 335.662958 208.547689 
L 337.602378 210.319908 
L 339.541799 212.259473 
L 341.481219 213.858478 
L 343.42064 214.613217 
L 345.36006 214.075763 
L 347.299481 211.901197 
L 349.238901 207.883008 
L 351.178322 201.973392 
L 353.117742 194.283253 
L 355.057163 185.059871 
L 356.996583 174.648665 
L 360.875424 151.872078 
L 364.754266 129.064041 
L 368.633107 107.853895 
L 370.572527 116.593857 
L 372.511948 137.252861 
L 374.451368 154.028245 
L 376.390789 150.415243 
L 378.330209 138.100022 
L 380.26963 134.544919 
L 382.20905 138.915075 
L 384.148471 148.72726 
L 386.087891 164.789343 
L 388.027312 190.680904 
L 389.966732 227.377833 
L 391.906153 268.613637 
L 393.845573 303.477361 
L 395.784994 323.059896 
L 397.724414 324.116788 
L 399.663835 309.407122 
L 401.603255 286.667001 
L 403.542676 265.427751 
L 405.482096 251.608702 
L 407.421517 244.284221 
L 409.360937 238.122748 
L 411.300358 228.561725 
L 415.179199 202.040657 
L 417.11862 194.440065 
L 419.05804 194.65279 
L 420.997461 199.357469 
L 422.936881 202.314791 
L 424.876302 199.605676 
L 426.815722 192.919441 
L 428.755143 189.057587 
L 430.694563 195.986 
L 432.633984 217.111285 
L 434.573404 247.567062 
L 436.512825 276.111368 
L 438.452245 291.449021 
L 440.391666 288.196964 
L 442.331086 269.450356 
L 444.270507 245.578263 
L 446.209927 229.452118 
L 448.149348 229.307341 
L 450.088768 243.434988 
L 452.028189 261.171692 
L 453.967609 269.468484 
L 455.90703 259.995591 
L 457.846451 233.124294 
L 459.785871 198.043016 
L 461.725292 169.060306 
L 463.664712 158.766877 
L 465.604133 171.237737 
L 467.543553 199.863091 
L 469.482974 231.191678 
L 471.422394 251.57224 
L 473.361815 252.711698 
L 475.301235 234.518465 
L 479.180076 176.990521 
L 481.119497 162.461582 
L 483.058917 166.90222 
L 484.998338 187.304543 
L 486.937758 214.505542 
L 488.877179 237.835683 
L 490.816599 249.453008 
L 492.75602 246.940668 
L 494.69544 233.657524 
L 496.634861 216.762105 
L 498.574281 203.673084 
L 500.513702 198.715708 
L 502.453123 201.678488 
L 504.392543 208.63968 
L 506.331964 214.173071 
L 508.271384 213.801815 
L 510.210805 205.926507 
L 514.089646 178.847685 
L 516.029066 170.122043 
L 517.968487 169.971042 
L 519.907907 178.485598 
L 521.847328 192.634787 
L 523.786748 207.728337 
L 525.726169 219.152426 
L 527.665589 223.857748 
L 529.60501 221.334907 
L 531.54443 213.809554 
L 533.483851 205.38805 
L 535.423271 200.353 
L 537.362692 201.416577 
L 539.302112 208.817763 
L 541.241533 220.521004 
L 543.180953 233.113728 
L 545.120374 242.891888 
L 547.059794 246.872045 
L 548.999215 243.636448 
L 550.938636 233.850252 
L 554.817477 206.154925 
L 556.756897 195.234112 
L 558.696318 189.23638 
L 560.635738 188.222899 
L 562.575159 190.843159 
L 564.514579 195.057176 
L 566.454 198.835083 
L 568.39342 200.698038 
L 570.332841 200.068591 
L 572.272261 197.389998 
L 574.211682 193.925991 
L 576.151102 191.256834 
L 578.090523 190.648333 
L 580.029943 192.598419 
L 581.969364 196.736044 
L 585.848205 207.223564 
L 587.787625 211.030292 
L 589.727046 212.562487 
L 591.666466 211.456101 
L 593.605887 207.982065 
L 595.545308 202.983447 
L 597.484728 197.624738 
L 599.424149 193.013421 
L 601.363569 189.856539 
L 603.30299 188.316715 
L 605.24241 188.09382 
L 607.181831 188.648946 
L 609.121251 189.442922 
L 611.060672 190.116242 
L 614.939513 191.038703 
L 616.878933 191.864894 
L 618.818354 193.461937 
L 620.757774 196.024351 
L 624.636615 202.922139 
L 626.576036 205.803854 
L 628.515456 207.084184 
L 630.454877 205.977924 
L 632.394297 202.008326 
L 634.333718 195.101629 
L 636.273138 185.647044 
L 640.151979 163.13916 
L 642.0914 153.168397 
L 644.030821 146.363617 
L 645.970241 144.037561 
L 647.909662 146.652424 
L 649.849082 153.636853 
L 651.788503 163.560638 
L 653.727923 174.570919 
L 655.667344 184.867078 
L 657.606764 193.02425 
L 659.546185 198.148289 
L 661.485605 199.886319 
L 663.425026 198.388401 
L 665.364446 194.272961 
L 669.243287 182.565237 
L 671.182708 177.659077 
L 673.122128 174.946219 
L 675.061549 174.93006 
L 677.000969 177.354219 
L 678.94039 181.297186 
L 680.87981 185.510173 
L 682.819231 188.78164 
L 684.758651 190.204949 
L 686.698072 189.293177 
L 688.637493 185.994038 
L 690.576913 180.657975 
L 694.455754 167.164089 
L 696.395175 161.452349 
L 698.334595 158.324623 
L 700.274016 158.948911 
L 702.213436 163.746971 
L 704.152857 172.062182 
L 708.031698 191.944955 
L 709.971118 199.229375 
L 711.910539 202.68517 
L 713.849959 201.787532 
L 715.78938 196.756462 
L 717.7288 188.360085 
L 719.668221 177.770156 
L 721.607641 166.532376 
L 723.547062 156.653252 
L 725.486482 150.694319 
L 727.425903 151.764573 
L 729.365323 162.96208 
L 731.304744 185.452721 
L 733.244165 214.972155 
L 735.183585 238.65337 
L 737.123006 237.63284 
L 739.062426 197.375358 
L 741.001847 116.216394 
L 741.001847 116.216394 
" clip-path="url(#p78fea7d039)" style="fill: none; stroke: #4a4a4a; stroke-width: 2.2; stroke-linecap: square"/>
   </g>
   <g id="line2d_13">
    <path d="M 77.720028 173.550962 
L 79.659449 196.391923 
L 81.598869 209.87081 
L 83.53829 211.317224 
L 85.47771 201.483052 
L 87.417131 185.731238 
L 89.356552 172.648209 
L 91.295972 169.765345 
L 93.235393 178.9006 
L 95.174813 194.866116 
L 97.114234 208.747151 
L 99.053654 213.168954 
L 100.993075 206.027268 
L 104.871916 175.984052 
L 106.811336 168.330406 
L 108.750757 172.132526 
L 110.690177 185.73358 
L 112.629598 203.183608 
L 114.569018 218.338552 
L 116.508439 228.83903 
L 118.447859 236.829363 
L 120.38728 245.774158 
L 122.3267 256.130958 
L 124.266121 263.859342 
L 126.205541 263.235722 
L 128.144962 251.435307 
L 130.084382 230.848951 
L 132.023803 207.274819 
L 133.963224 185.642119 
L 137.842065 148.503261 
L 141.720906 106.593663 
L 143.660326 88.780415 
L 145.599747 80.376981 
L 147.539167 84.52246 
L 149.478588 99.779534 
L 151.418008 120.723682 
L 153.357429 140.239001 
L 155.296849 152.003556 
L 157.23627 152.191964 
L 159.17569 140.307623 
L 161.115111 119.462264 
L 163.054531 96.175608 
L 164.993952 79.330767 
L 166.933372 77.905225 
L 168.872793 97.747273 
L 170.812213 138.628913 
L 174.691054 249.55451 
L 176.630475 294.901743 
L 178.569896 321.401427 
L 180.509316 328.447541 
L 182.448737 322.024994 
L 184.388157 311.080208 
L 186.327578 302.971193 
L 188.266998 300.185977 
L 190.206419 299.694583 
L 192.145839 295.015593 
L 194.08526 279.898599 
L 196.02468 251.848402 
L 197.964101 213.815786 
L 199.903521 173.286389 
L 201.842942 139.299716 
L 203.782362 118.887006 
L 205.721783 114.511357 
L 207.661203 123.428583 
L 209.600624 138.988435 
L 211.540044 153.214292 
L 213.479465 159.677171 
L 215.418885 155.677172 
L 217.358306 143.018215 
L 219.297726 127.164107 
L 221.237147 115.151816 
L 223.176567 113.072761 
L 225.115988 124.024887 
L 227.055409 147.178192 
L 230.93425 210.388549 
L 232.87367 237.165411 
L 234.813091 253.317396 
L 236.752511 256.47825 
L 238.691932 247.411643 
L 240.631352 229.530668 
L 242.570773 207.847406 
L 244.510193 187.695623 
L 246.449614 173.551866 
L 248.389034 168.195599 
L 250.328455 172.338289 
L 252.267875 184.737412 
L 254.207296 202.70747 
L 258.086137 241.886007 
L 260.025557 257.161467 
L 261.964978 267.129722 
L 263.904398 271.367455 
L 265.843819 270.422551 
L 267.783239 265.501383 
L 269.72266 258.105313 
L 273.601501 241.450878 
L 275.540922 234.115191 
L 277.480342 227.991186 
L 279.419763 223.011875 
L 281.359183 218.886837 
L 283.298604 215.268606 
L 287.177445 208.692775 
L 289.116865 205.77971 
L 291.056286 203.453949 
L 292.995706 202.104874 
L 294.935127 202.11804 
L 296.874547 203.778623 
L 298.813968 207.192965 
L 300.753388 212.241065 
L 302.692809 218.568439 
L 306.57165 232.709407 
L 308.51107 239.113642 
L 310.450491 244.169288 
L 312.389911 247.359213 
L 314.329332 248.375053 
L 316.268752 247.151363 
L 318.208173 243.869973 
L 320.147594 238.934877 
L 322.087014 232.91963 
L 325.965855 220.330532 
L 327.905276 215.033535 
L 329.844696 211.055811 
L 331.784117 208.659876 
L 333.723537 207.897716 
L 335.662958 208.616248 
L 337.602378 210.481491 
L 341.481219 215.637689 
L 343.42064 217.717404 
L 345.36006 218.620124 
L 347.299481 217.762216 
L 349.238901 214.662576 
L 351.178322 208.992443 
L 353.117742 200.622153 
L 355.057163 189.666088 
L 356.996583 176.528117 
L 362.814845 133.182646 
L 364.754266 122.060174 
L 366.693686 115.157257 
L 368.633107 113.394539 
L 370.572527 116.619511 
L 372.511948 123.35042 
L 374.451368 131.042877 
L 376.390789 137.002257 
L 378.330209 139.698924 
L 380.26963 139.881029 
L 382.20905 140.805833 
L 384.148471 147.230824 
L 386.087891 163.377838 
L 388.027312 190.676915 
L 389.966732 226.440656 
L 391.906153 264.364394 
L 393.845573 296.787088 
L 395.784994 317.564009 
L 397.724414 324.080961 
L 399.663835 317.583961 
L 401.603255 301.976774 
L 407.421517 241.512146 
L 409.360937 223.904186 
L 411.300358 208.34466 
L 413.239779 195.046434 
L 415.179199 184.433659 
L 417.11862 176.784549 
L 419.05804 171.892146 
L 420.997461 169.186174 
L 422.936881 168.337119 
L 424.876302 169.878421 
L 426.815722 175.241931 
L 428.755143 185.947415 
L 430.694563 202.288143 
L 434.573404 241.878509 
L 436.512825 256.053278 
L 438.452245 261.248073 
L 440.391666 257.037314 
L 442.331086 246.591344 
L 444.270507 235.341075 
L 446.209927 228.387379 
L 448.149348 227.910161 
L 450.088768 231.981858 
L 452.028189 235.53406 
L 453.967609 233.05778 
L 455.90703 221.659932 
L 457.846451 202.923243 
L 459.785871 182.624812 
L 461.725292 168.367621 
L 463.664712 166.146866 
L 465.604133 177.436826 
L 467.543553 198.22349 
L 469.482974 220.493924 
L 471.422394 235.496504 
L 473.361815 237.296162 
L 475.301235 225.12118 
L 477.240656 203.589897 
L 479.180076 180.776481 
L 481.119497 164.934349 
L 483.058917 161.262427 
L 484.998338 170.082657 
L 486.937758 187.125804 
L 488.877179 205.633217 
L 490.816599 219.218313 
L 492.75602 224.236265 
L 494.69544 220.76329 
L 496.634861 211.95122 
L 498.574281 202.214954 
L 500.513702 195.158223 
L 502.453123 192.159669 
L 504.392543 192.145986 
L 506.331964 192.506506 
L 508.271384 190.635185 
L 510.210805 185.379806 
L 512.150225 177.75737 
L 514.089646 170.617544 
L 516.029066 167.404253 
L 517.968487 170.585964 
L 519.907907 180.472328 
L 523.786748 210.045176 
L 525.726169 221.541268 
L 527.665589 226.250645 
L 529.60501 223.292911 
L 531.54443 214.433016 
L 533.483851 203.495145 
L 535.423271 195.013729 
L 537.362692 192.624266 
L 539.302112 197.802982 
L 541.241533 209.392484 
L 543.180953 224.016593 
L 545.120374 237.182939 
L 547.059794 244.701929 
L 548.999215 244.001528 
L 550.938636 234.946146 
L 552.878056 219.883072 
L 554.817477 202.873402 
L 556.756897 188.372235 
L 558.696318 179.849932 
L 560.635738 178.842825 
L 562.575159 184.69497 
L 564.514579 194.962417 
L 566.454 206.257688 
L 568.39342 215.255354 
L 570.332841 219.602741 
L 572.272261 218.522468 
L 574.211682 212.952616 
L 576.151102 205.179554 
L 578.090523 198.079004 
L 580.029943 194.224027 
L 581.969364 195.155411 
L 583.908784 201.018026 
L 585.848205 210.611632 
L 587.787625 221.776495 
L 589.727046 231.974873 
L 591.666466 238.921738 
L 593.605887 241.126991 
L 595.545308 238.226058 
L 597.484728 231.012999 
L 603.30299 201.720873 
L 605.24241 195.40933 
L 607.181831 192.419021 
L 609.121251 192.59963 
L 611.060672 195.239305 
L 613.000092 199.322396 
L 614.939513 203.792815 
L 616.878933 207.772714 
L 618.818354 210.699759 
L 620.757774 212.359903 
L 622.697195 212.816129 
L 624.636615 212.265825 
L 626.576036 210.884685 
L 628.515456 208.716514 
L 630.454877 205.644566 
L 632.394297 201.446439 
L 634.333718 195.908753 
L 636.273138 188.966082 
L 638.212559 180.826233 
L 642.0914 163.508445 
L 644.030821 156.321665 
L 645.970241 151.579824 
L 647.909662 150.109845 
L 649.849082 152.247691 
L 651.788503 157.736268 
L 653.727923 165.773305 
L 657.606764 184.629115 
L 659.546185 192.861852 
L 661.485605 198.870145 
L 663.425026 202.019699 
L 665.364446 202.123837 
L 667.303867 199.464154 
L 669.243287 194.747208 
L 673.122128 183.287027 
L 675.061549 178.639513 
L 677.000969 175.671774 
L 678.94039 174.549793 
L 680.87981 174.992976 
L 682.819231 176.408499 
L 684.758651 178.082417 
L 686.698072 179.36498 
L 688.637493 179.810815 
L 690.576913 179.261304 
L 692.516334 177.870739 
L 694.455754 176.078117 
L 696.395175 174.520945 
L 698.334595 173.887898 
L 700.274016 174.723195 
L 702.213436 177.227196 
L 704.152857 181.127329 
L 706.092277 185.690505 
L 708.031698 189.896422 
L 709.971118 192.715692 
L 711.910539 193.390782 
L 713.849959 191.632306 
L 715.78938 187.698224 
L 719.668221 176.86938 
L 721.607641 172.675208 
L 723.547062 171.286625 
L 725.486482 173.813113 
L 727.425903 180.454632 
L 731.304744 200.047225 
L 733.244165 207.301336 
L 735.183585 209.276632 
L 737.123006 205.011729 
L 739.062426 195.156801 
L 741.001847 181.31016 
L 741.001847 181.31016 
" clip-path="url(#p78fea7d039)" style="fill: none; stroke: #b7d0ee; stroke-width: 2.2; stroke-linecap: square"/>
   </g>
   <g id="line2d_14">
    <path d="M 44.555937 199.396817 
L 774.165938 199.396817 
" clip-path="url(#p78fea7d039)" style="fill: none; stroke-dasharray: 3.33,1.44; stroke-dashoffset: 0; stroke: #0d1530; stroke-width: 0.9"/>
   </g>
   <g id="patch_3">
    <path d="M 44.555937 345.4 
L 44.555937 7.2 
" style="fill: none; stroke: #444444; stroke-width: 0.8; stroke-linejoin: miter; stroke-linecap: square"/>
   </g>
   <g id="patch_4">
    <path d="M 44.555937 345.4 
L 774.165937 345.4 
" style="fill: none; stroke: #444444; stroke-width: 0.8; stroke-linejoin: miter; stroke-linecap: square"/>
   </g>
   <g id="legend_1">
    <g id="line2d_15">
     <path d="M 586.48625 20.298437 
L 596.48625 20.298437 
L 606.48625 20.298437 
" style="fill: none; stroke: #4a4a4a; stroke-width: 2.2; stroke-linecap: square"/>
    </g>
    <g id="text_14">
     <!-- Neapdoroti + tiesinis SVM -->
     <g style="fill: #222222" transform="translate(614.48625 23.798437) scale(0.1 -0.1)">
      <defs>
       <path id="DejaVuSans-4e" d="M 628 4666 
L 1478 4666 
L 3547 763 
L 3547 4666 
L 4159 4666 
L 4159 0 
L 3309 0 
L 1241 3903 
L 1241 0 
L 628 0 
L 628 4666 
z
" transform="scale(0.015625)"/>
       <path id="DejaVuSans-65" d="M 3597 1894 
L 3597 1613 
L 953 1613 
Q 991 1019 1311 708 
Q 1631 397 2203 397 
Q 2534 397 2845 478 
Q 3156 559 3463 722 
L 3463 178 
Q 3153 47 2828 -22 
Q 2503 -91 2169 -91 
Q 1331 -91 842 396 
Q 353 884 353 1716 
Q 353 2575 817 3079 
Q 1281 3584 2069 3584 
Q 2775 3584 3186 3129 
Q 3597 2675 3597 1894 
z
M 3022 2063 
Q 3016 2534 2758 2815 
Q 2500 3097 2075 3097 
Q 1594 3097 1305 2825 
Q 1016 2553 972 2059 
L 3022 2063 
z
" transform="scale(0.015625)"/>
       <path id="DejaVuSans-70" d="M 1159 525 
L 1159 -1331 
L 581 -1331 
L 581 3500 
L 1159 3500 
L 1159 2969 
Q 1341 3281 1617 3432 
Q 1894 3584 2278 3584 
Q 2916 3584 3314 3078 
Q 3713 2572 3713 1747 
Q 3713 922 3314 415 
Q 2916 -91 2278 -91 
Q 1894 -91 1617 61 
Q 1341 213 1159 525 
z
M 3116 1747 
Q 3116 2381 2855 2742 
Q 2594 3103 2138 3103 
Q 1681 3103 1420 2742 
Q 1159 2381 1159 1747 
Q 1159 1113 1420 752 
Q 1681 391 2138 391 
Q 2594 391 2855 752 
Q 3116 1113 3116 1747 
z
" transform="scale(0.015625)"/>
       <path id="DejaVuSans-64" d="M 2906 2969 
L 2906 4863 
L 3481 4863 
L 3481 0 
L 2906 0 
L 2906 525 
Q 2725 213 2448 61 
Q 2172 -91 1784 -91 
Q 1150 -91 751 415 
Q 353 922 353 1747 
Q 353 2572 751 3078 
Q 1150 3584 1784 3584 
Q 2172 3584 2448 3432 
Q 2725 3281 2906 2969 
z
M 947 1747 
Q 947 1113 1208 752 
Q 1469 391 1925 391 
Q 2381 391 2643 752 
Q 2906 1113 2906 1747 
Q 2906 2381 2643 2742 
Q 2381 3103 1925 3103 
Q 1469 3103 1208 2742 
Q 947 2381 947 1747 
z
" transform="scale(0.015625)"/>
       <path id="DejaVuSans-74" d="M 1172 4494 
L 1172 3500 
L 2356 3500 
L 2356 3053 
L 1172 3053 
L 1172 1153 
Q 1172 725 1289 603 
Q 1406 481 1766 481 
L 2356 481 
L 2356 0 
L 1766 0 
Q 1100 0 847 248 
Q 594 497 594 1153 
L 594 3053 
L 172 3053 
L 172 3500 
L 594 3500 
L 594 4494 
L 1172 4494 
z
" transform="scale(0.015625)"/>
       <path id="DejaVuSans-2b" d="M 2944 4013 
L 2944 2272 
L 4684 2272 
L 4684 1741 
L 2944 1741 
L 2944 0 
L 2419 0 
L 2419 1741 
L 678 1741 
L 678 2272 
L 2419 2272 
L 2419 4013 
L 2944 4013 
z
" transform="scale(0.015625)"/>
       <path id="DejaVuSans-56" d="M 1831 0 
L 50 4666 
L 709 4666 
L 2188 738 
L 3669 4666 
L 4325 4666 
L 2547 0 
L 1831 0 
z
" transform="scale(0.015625)"/>
       <path id="DejaVuSans-4d" d="M 628 4666 
L 1569 4666 
L 2759 1491 
L 3956 4666 
L 4897 4666 
L 4897 0 
L 4281 0 
L 4281 4097 
L 3078 897 
L 2444 897 
L 1241 4097 
L 1241 0 
L 628 0 
L 628 4666 
z
" transform="scale(0.015625)"/>
      </defs>
      <use xlink:href="#DejaVuSans-4e"/>
      <use xlink:href="#DejaVuSans-65" x="74.804688"/>
      <use xlink:href="#DejaVuSans-61" x="136.328125"/>
      <use xlink:href="#DejaVuSans-70" x="197.607422"/>
      <use xlink:href="#DejaVuSans-64" x="261.083984"/>
      <use xlink:href="#DejaVuSans-6f" x="324.560547"/>
      <use xlink:href="#DejaVuSans-72" x="385.742188"/>
      <use xlink:href="#DejaVuSans-6f" x="424.605469"/>
      <use xlink:href="#DejaVuSans-74" x="485.787109"/>
      <use xlink:href="#DejaVuSans-69" x="524.996094"/>
      <use xlink:href="#DejaVuSans-20" x="552.779297"/>
      <use xlink:href="#DejaVuSans-2b" x="584.566406"/>
      <use xlink:href="#DejaVuSans-20" x="668.355469"/>
      <use xlink:href="#DejaVuSans-74" x="700.142578"/>
      <use xlink:href="#DejaVuSans-69" x="739.351562"/>
      <use xlink:href="#DejaVuSans-65" x="767.134766"/>
      <use xlink:href="#DejaVuSans-73" x="828.658203"/>
      <use xlink:href="#DejaVuSans-69" x="880.757812"/>
      <use xlink:href="#DejaVuSans-6e" x="908.541016"/>
      <use xlink:href="#DejaVuSans-69" x="971.919922"/>
      <use xlink:href="#DejaVuSans-73" x="999.703125"/>
      <use xlink:href="#DejaVuSans-20" x="1051.802734"/>
      <use xlink:href="#DejaVuSans-53" x="1083.589844"/>
      <use xlink:href="#DejaVuSans-56" x="1147.066406"/>
      <use xlink:href="#DejaVuSans-4d" x="1215.474609"/>
     </g>
    </g>
    <g id="line2d_16">
     <path d="M 586.48625 34.976562 
L 596.48625 34.976562 
L 606.48625 34.976562 
" style="fill: none; stroke: #b7d0ee; stroke-width: 2.2; stroke-linecap: square"/>
    </g>
    <g id="text_15">
     <!-- Glodinti + tiesinis SVM, σ=6.0 -->
     <g style="fill: #222222" transform="translate(614.48625 38.476562) scale(0.1 -0.1)">
      <defs>
       <path id="DejaVuSans-47" d="M 3809 666 
L 3809 1919 
L 2778 1919 
L 2778 2438 
L 4434 2438 
L 4434 434 
Q 4069 175 3628 42 
Q 3188 -91 2688 -91 
Q 1594 -91 976 548 
Q 359 1188 359 2328 
Q 359 3472 976 4111 
Q 1594 4750 2688 4750 
Q 3144 4750 3555 4637 
Q 3966 4525 4313 4306 
L 4313 3634 
Q 3963 3931 3569 4081 
Q 3175 4231 2741 4231 
Q 1884 4231 1454 3753 
Q 1025 3275 1025 2328 
Q 1025 1384 1454 906 
Q 1884 428 2741 428 
Q 3075 428 3337 486 
Q 3600 544 3809 666 
z
" transform="scale(0.015625)"/>
       <path id="DejaVuSans-3c3" d="M 1959 3044 
Q 1484 3044 1228 2700 
Q 959 2341 959 1747 
Q 959 1119 1226 758 
Q 1494 397 1959 397 
Q 2419 397 2687 759 
Q 2956 1122 2956 1747 
Q 2956 2319 2688 2700 
Q 2441 3044 1959 3044 
z
M 1959 3500 
L 3869 3500 
L 3869 2925 
L 3225 2925 
Q 3566 2438 3566 1747 
Q 3566 888 3138 400 
Q 2709 -91 1959 -91 
Q 1206 -91 781 400 
Q 353 888 353 1747 
Q 353 2613 781 3097 
Q 1134 3500 1959 3500 
z
" transform="scale(0.015625)"/>
       <path id="DejaVuSans-3d" d="M 678 2906 
L 4684 2906 
L 4684 2381 
L 678 2381 
L 678 2906 
z
M 678 1631 
L 4684 1631 
L 4684 1100 
L 678 1100 
L 678 1631 
z
" transform="scale(0.015625)"/>
       <path id="DejaVuSans-2e" d="M 684 794 
L 1344 794 
L 1344 0 
L 684 0 
L 684 794 
z
" transform="scale(0.015625)"/>
      </defs>
      <use xlink:href="#DejaVuSans-47"/>
      <use xlink:href="#DejaVuSans-6c" x="77.490234"/>
      <use xlink:href="#DejaVuSans-6f" x="105.273438"/>
      <use xlink:href="#DejaVuSans-64" x="166.455078"/>
      <use xlink:href="#DejaVuSans-69" x="229.931641"/>
      <use xlink:href="#DejaVuSans-6e" x="257.714844"/>
      <use xlink:href="#DejaVuSans-74" x="321.09375"/>
      <use xlink:href="#DejaVuSans-69" x="360.302734"/>
      <use xlink:href="#DejaVuSans-20" x="388.085938"/>
      <use xlink:href="#DejaVuSans-2b" x="419.873047"/>
      <use xlink:href="#DejaVuSans-20" x="503.662109"/>
      <use xlink:href="#DejaVuSans-74" x="535.449219"/>
      <use xlink:href="#DejaVuSans-69" x="574.658203"/>
      <use xlink:href="#DejaVuSans-65" x="602.441406"/>
      <use xlink:href="#DejaVuSans-73" x="663.964844"/>
      <use xlink:href="#DejaVuSans-69" x="716.064453"/>
      <use xlink:href="#DejaVuSans-6e" x="743.847656"/>
      <use xlink:href="#DejaVuSans-69" x="807.226562"/>
      <use xlink:href="#DejaVuSans-73" x="835.009766"/>
      <use xlink:href="#DejaVuSans-20" x="887.109375"/>
      <use xlink:href="#DejaVuSans-53" x="918.896484"/>
      <use xlink:href="#DejaVuSans-56" x="982.373047"/>
      <use xlink:href="#DejaVuSans-4d" x="1050.78125"/>
      <use xlink:href="#DejaVuSans-2c" x="1137.060547"/>
      <use xlink:href="#DejaVuSans-20" x="1168.847656"/>
      <use xlink:href="#DejaVuSans-3c3" x="1200.634766"/>
      <use xlink:href="#DejaVuSans-3d" x="1264.013672"/>
      <use xlink:href="#DejaVuSans-36" x="1347.802734"/>
      <use xlink:href="#DejaVuSans-2e" x="1411.425781"/>
      <use xlink:href="#DejaVuSans-30" x="1443.212891"/>
     </g>
    </g>
   </g>
  </g>
 </g>
 <defs>
  <clipPath id="p78fea7d039">
   <rect x="44.555937" y="7.2" width="729.61" height="338.2"/>
  </clipPath>
 </defs>
</svg>
