<?xml version="1.0" encoding="utf-8" standalone="no"?>
<!DOCTYPE svg PUBLIC "-//W3C//DTD SVG 1.1//EN"
  "http://www.w3.org/Graphics/SVG/1.1/DTD/svg11.dtd">
<svg xmlns:xlink="http://www.w3.org/1999/xlink" width="781.456562pt" height="384.891875pt" viewBox="0 0 781.456562 384.891875" xmlns="http://www.w3.org/2000/svg" version="1.1">
 <metadata>
  <rdf:RDF xmlns:dc="http://purl.org/dc/elements/1.1/" xmlns:cc="http://creativecommons.org/ns#" xmlns:rdf="http://www.w3.org/1999/02/22-rdf-syntax-ns#">
   <cc:Work>
    <dc:type rdf:resource="http://purl.org/dc/dcmitype/StillImage"/>
    <dc:date>2026-04-26T17:33:20.099252</dc:date>
    <dc:format>image/svg+xml</dc:format>
    <dc:creator>
     <cc:Agent>
      <dc:title>Matplotlib v3.8.0, https://matplotlib.org/</dc:title>
     </cc:Agent>
    </dc:creator>
   </cc:Work>
  </rdf:RDF>
 </metadata>
 <defs>
  <style type="text/css">*{stroke-linejoin: round; stroke-linecap: butt}</style>
 </defs>
 <g id="figure_1">
  <g id="patch_1">
   <path d="M 0 384.891875 
L 781.456562 384.891875 
L 781.456562 0 
L 0 0 
z
" style="fill: #ffffff"/>
  </g>
  <g id="axes_1">
   <g id="patch_2">
    <path d="M 54.096563 345.4 
L 774.256562 345.4 
L 774.256562 7.2 
L 54.096563 7.2 
z
" style="fill: #ffffff"/>
   </g>
   <g id="matplotlib.axis_1">
    <g id="xtick_1">
     <g id="line2d_1">
      <defs>
       <path id="m5c30d5a07e" d="M 0 0 
L 0 3.5 
" style="stroke: #222222; stroke-width: 0.8"/>
      </defs>
      <g>
       <use xlink:href="#m5c30d5a07e" x="148.088737" y="345.4" style="fill: #222222; stroke: #222222; stroke-width: 0.8"/>
      </g>
     </g>
     <g id="text_1">
      <!-- 400 -->
      <g style="fill: #222222" transform="translate(138.544987 359.998438) scale(0.1 -0.1)">
       <defs>
        <path id="DejaVuSans-34" d="M 2419 4116 
L 825 1625 
L 2419 1625 
L 2419 4116 
z
M 2253 4666 
L 3047 4666 
L 3047 1625 
L 3713 1625 
L 3713 1100 
L 3047 1100 
L 3047 0 
L 2419 0 
L 2419 1100 
L 313 1100 
L 313 1709 
L 2253 4666 
z
" transform="scale(0.015625)"/>
        <path id="DejaVuSans-30" d="M 2034 4250 
Q 1547 4250 1301 3770 
Q 1056 3291 1056 2328 
Q 1056 1369 1301 889 
Q 1547 409 2034 409 
Q 2525 409 2770 889 
Q 3016 1369 3016 2328 
Q 3016 3291 2770 3770 
Q 2525 4250 2034 4250 
z
M 2034 4750 
Q 2819 4750 3233 4129 
Q 3647 3509 3647 2328 
Q 3647 1150 3233 529 
Q 2819 -91 2034 -91 
Q 1250 -91 836 529 
Q 422 1150 422 2328 
Q 422 3509 836 4129 
Q 1250 4750 2034 4750 
z
" transform="scale(0.015625)"/>
       </defs>
       <use xlink:href="#DejaVuSans-34"/>
       <use xlink:href="#DejaVuSans-30" x="63.623047"/>
       <use xlink:href="#DejaVuSans-30" x="127.246094"/>
      </g>
     </g>
    </g>
    <g id="xtick_2">
     <g id="line2d_2">
      <g>
       <use xlink:href="#m5c30d5a07e" x="243.803782" y="345.4" style="fill: #222222; stroke: #222222; stroke-width: 0.8"/>
      </g>
     </g>
     <g id="text_2">
      <!-- 500 -->
      <g style="fill: #222222" transform="translate(234.260032 359.998438) scale(0.1 -0.1)">
       <defs>
        <path id="DejaVuSans-35" d="M 691 4666 
L 3169 4666 
L 3169 4134 
L 1269 4134 
L 1269 2991 
Q 1406 3038 1543 3061 
Q 1681 3084 1819 3084 
Q 2600 3084 3056 2656 
Q 3513 2228 3513 1497 
Q 3513 744 3044 326 
Q 2575 -91 1722 -91 
Q 1428 -91 1123 -41 
Q 819 9 494 109 
L 494 744 
Q 775 591 1075 516 
Q 1375 441 1709 441 
Q 2250 441 2565 725 
Q 2881 1009 2881 1497 
Q 2881 1984 2565 2268 
Q 2250 2553 1709 2553 
Q 1456 2553 1204 2497 
Q 953 2441 691 2322 
L 691 4666 
z
" transform="scale(0.015625)"/>
       </defs>
       <use xlink:href="#DejaVuSans-35"/>
       <use xlink:href="#DejaVuSans-30" x="63.623047"/>
       <use xlink:href="#DejaVuSans-30" x="127.246094"/>
      </g>
     </g>
    </g>
    <g id="xtick_3">
     <g id="line2d_3">
      <g>
       <use xlink:href="#m5c30d5a07e" x="339.518827" y="345.4" style="fill: #222222; stroke: #222222; stroke-width: 0.8"/>
      </g>
     </g>
     <g id="text_3">
      <!-- 600 -->
      <g style="fill: #222222" transform="translate(329.975077 359.998438) scale(0.1 -0.1)">
       <defs>
        <path id="DejaVuSans-36" d="M 2113 2584 
Q 1688 2584 1439 2293 
Q 1191 2003 1191 1497 
Q 1191 994 1439 701 
Q 1688 409 2113 409 
Q 2538 409 2786 701 
Q 3034 994 3034 1497 
Q 3034 2003 2786 2293 
Q 2538 2584 2113 2584 
z
M 3366 4563 
L 3366 3988 
Q 3128 4100 2886 4159 
Q 2644 4219 2406 4219 
Q 1781 4219 1451 3797 
Q 1122 3375 1075 2522 
Q 1259 2794 1537 2939 
Q 1816 3084 2150 3084 
Q 2853 3084 3261 2657 
Q 3669 2231 3669 1497 
Q 3669 778 3244 343 
Q 2819 -91 2113 -91 
Q 1303 -91 875 529 
Q 447 1150 447 2328 
Q 447 3434 972 4092 
Q 1497 4750 2381 4750 
Q 2619 4750 2861 4703 
Q 3103 4656 3366 4563 
z
" transform="scale(0.015625)"/>
       </defs>
       <use xlink:href="#DejaVuSans-36"/>
       <use xlink:href="#DejaVuSans-30" x="63.623047"/>
       <use xlink:href="#DejaVuSans-30" x="127.246094"/>
      </g>
     </g>
    </g>
    <g id="xtick_4">
     <g id="line2d_4">
      <g>
       <use xlink:href="#m5c30d5a07e" x="435.233872" y="345.4" style="fill: #222222; stroke: #222222; stroke-width: 0.8"/>
      </g>
     </g>
     <g id="text_4">
      <!-- 700 -->
      <g style="fill: #222222" transform="translate(425.690122 359.998438) scale(0.1 -0.1)">
       <defs>
        <path id="DejaVuSans-37" d="M 525 4666 
L 3525 4666 
L 3525 4397 
L 1831 0 
L 1172 0 
L 2766 4134 
L 525 4134 
L 525 4666 
z
" transform="scale(0.015625)"/>
       </defs>
       <use xlink:href="#DejaVuSans-37"/>
       <use xlink:href="#DejaVuSans-30" x="63.623047"/>
       <use xlink:href="#DejaVuSans-30" x="127.246094"/>
      </g>
     </g>
    </g>
    <g id="xtick_5">
     <g id="line2d_5">
      <g>
       <use xlink:href="#m5c30d5a07e" x="530.948918" y="345.4" style="fill: #222222; stroke: #222222; stroke-width: 0.8"/>
      </g>
     </g>
     <g id="text_5">
      <!-- 800 -->
      <g style="fill: #222222" transform="translate(521.405168 359.998438) scale(0.1 -0.1)">
       <defs>
        <path id="DejaVuSans-38" d="M 2034 2216 
Q 1584 2216 1326 1975 
Q 1069 1734 1069 1313 
Q 1069 891 1326 650 
Q 1584 409 2034 409 
Q 2484 409 2743 651 
Q 3003 894 3003 1313 
Q 3003 1734 2745 1975 
Q 2488 2216 2034 2216 
z
M 1403 2484 
Q 997 2584 770 2862 
Q 544 3141 544 3541 
Q 544 4100 942 4425 
Q 1341 4750 2034 4750 
Q 2731 4750 3128 4425 
Q 3525 4100 3525 3541 
Q 3525 3141 3298 2862 
Q 3072 2584 2669 2484 
Q 3125 2378 3379 2068 
Q 3634 1759 3634 1313 
Q 3634 634 3220 271 
Q 2806 -91 2034 -91 
Q 1263 -91 848 271 
Q 434 634 434 1313 
Q 434 1759 690 2068 
Q 947 2378 1403 2484 
z
M 1172 3481 
Q 1172 3119 1398 2916 
Q 1625 2713 2034 2713 
Q 2441 2713 2670 2916 
Q 2900 3119 2900 3481 
Q 2900 3844 2670 4047 
Q 2441 4250 2034 4250 
Q 1625 4250 1398 4047 
Q 1172 3844 1172 3481 
z
" transform="scale(0.015625)"/>
       </defs>
       <use xlink:href="#DejaVuSans-38"/>
       <use xlink:href="#DejaVuSans-30" x="63.623047"/>
       <use xlink:href="#DejaVuSans-30" x="127.246094"/>
      </g>
     </g>
    </g>
    <g id="xtick_6">
     <g id="line2d_6">
      <g>
       <use xlink:href="#m5c30d5a07e" x="626.663963" y="345.4" style="fill: #222222; stroke: #222222; stroke-width: 0.8"/>
      </g>
     </g>
     <g id="text_6">
      <!-- 900 -->
      <g style="fill: #222222" transform="translate(617.120213 359.998438) scale(0.1 -0.1)">
       <defs>
        <path id="DejaVuSans-39" d="M 703 97 
L 703 672 
Q 941 559 1184 500 
Q 1428 441 1663 441 
Q 2288 441 2617 861 
Q 2947 1281 2994 2138 
Q 2813 1869 2534 1725 
Q 2256 1581 1919 1581 
Q 1219 1581 811 2004 
Q 403 2428 403 3163 
Q 403 3881 828 4315 
Q 1253 4750 1959 4750 
Q 2769 4750 3195 4129 
Q 3622 3509 3622 2328 
Q 3622 1225 3098 567 
Q 2575 -91 1691 -91 
Q 1453 -91 1209 -44 
Q 966 3 703 97 
z
M 1959 2075 
Q 2384 2075 2632 2365 
Q 2881 2656 2881 3163 
Q 2881 3666 2632 3958 
Q 2384 4250 1959 4250 
Q 1534 4250 1286 3958 
Q 1038 3666 1038 3163 
Q 1038 2656 1286 2365 
Q 1534 2075 1959 2075 
z
" transform="scale(0.015625)"/>
       </defs>
       <use xlink:href="#DejaVuSans-39"/>
       <use xlink:href="#DejaVuSans-30" x="63.623047"/>
       <use xlink:href="#DejaVuSans-30" x="127.246094"/>
      </g>
     </g>
    </g>
    <g id="xtick_7">
     <g id="line2d_7">
      <g>
       <use xlink:href="#m5c30d5a07e" x="722.379008" y="345.4" style="fill: #222222; stroke: #222222; stroke-width: 0.8"/>
      </g>
     </g>
     <g id="text_7">
      <!-- 1000 -->
      <g style="fill: #222222" transform="translate(709.654008 359.998438) scale(0.1 -0.1)">
       <defs>
        <path id="DejaVuSans-31" d="M 794 531 
L 1825 531 
L 1825 4091 
L 703 3866 
L 703 4441 
L 1819 4666 
L 2450 4666 
L 2450 531 
L 3481 531 
L 3481 0 
L 794 0 
L 794 531 
z
" transform="scale(0.015625)"/>
       </defs>
       <use xlink:href="#DejaVuSans-31"/>
       <use xlink:href="#DejaVuSans-30" x="63.623047"/>
       <use xlink:href="#DejaVuSans-30" x="127.246094"/>
       <use xlink:href="#DejaVuSans-30" x="190.869141"/>
      </g>
     </g>
    </g>
    <g id="text_8">
     <!-- Bangos ilgis, nm -->
     <g style="fill: #222222" transform="translate(364.671875 375.19625) scale(0.12 -0.12)">
      <defs>
       <path id="DejaVuSans-42" d="M 1259 2228 
L 1259 519 
L 2272 519 
Q 2781 519 3026 730 
Q 3272 941 3272 1375 
Q 3272 1813 3026 2020 
Q 2781 2228 2272 2228 
L 1259 2228 
z
M 1259 4147 
L 1259 2741 
L 2194 2741 
Q 2656 2741 2882 2914 
Q 3109 3088 3109 3444 
Q 3109 3797 2882 3972 
Q 2656 4147 2194 4147 
L 1259 4147 
z
M 628 4666 
L 2241 4666 
Q 2963 4666 3353 4366 
Q 3744 4066 3744 3513 
Q 3744 3084 3544 2831 
Q 3344 2578 2956 2516 
Q 3422 2416 3680 2098 
Q 3938 1781 3938 1306 
Q 3938 681 3513 340 
Q 3088 0 2303 0 
L 628 0 
L 628 4666 
z
" transform="scale(0.015625)"/>
       <path id="DejaVuSans-61" d="M 2194 1759 
Q 1497 1759 1228 1600 
Q 959 1441 959 1056 
Q 959 750 1161 570 
Q 1363 391 1709 391 
Q 2188 391 2477 730 
Q 2766 1069 2766 1631 
L 2766 1759 
L 2194 1759 
z
M 3341 1997 
L 3341 0 
L 2766 0 
L 2766 531 
Q 2569 213 2275 61 
Q 1981 -91 1556 -91 
Q 1019 -91 701 211 
Q 384 513 384 1019 
Q 384 1609 779 1909 
Q 1175 2209 1959 2209 
L 2766 2209 
L 2766 2266 
Q 2766 2663 2505 2880 
Q 2244 3097 1772 3097 
Q 1472 3097 1187 3025 
Q 903 2953 641 2809 
L 641 3341 
Q 956 3463 1253 3523 
Q 1550 3584 1831 3584 
Q 2591 3584 2966 3190 
Q 3341 2797 3341 1997 
z
" transform="scale(0.015625)"/>
       <path id="DejaVuSans-6e" d="M 3513 2113 
L 3513 0 
L 2938 0 
L 2938 2094 
Q 2938 2591 2744 2837 
Q 2550 3084 2163 3084 
Q 1697 3084 1428 2787 
Q 1159 2491 1159 1978 
L 1159 0 
L 581 0 
L 581 3500 
L 1159 3500 
L 1159 2956 
Q 1366 3272 1645 3428 
Q 1925 3584 2291 3584 
Q 2894 3584 3203 3211 
Q 3513 2838 3513 2113 
z
" transform="scale(0.015625)"/>
       <path id="DejaVuSans-67" d="M 2906 1791 
Q 2906 2416 2648 2759 
Q 2391 3103 1925 3103 
Q 1463 3103 1205 2759 
Q 947 2416 947 1791 
Q 947 1169 1205 825 
Q 1463 481 1925 481 
Q 2391 481 2648 825 
Q 2906 1169 2906 1791 
z
M 3481 434 
Q 3481 -459 3084 -895 
Q 2688 -1331 1869 -1331 
Q 1566 -1331 1297 -1286 
Q 1028 -1241 775 -1147 
L 775 -588 
Q 1028 -725 1275 -790 
Q 1522 -856 1778 -856 
Q 2344 -856 2625 -561 
Q 2906 -266 2906 331 
L 2906 616 
Q 2728 306 2450 153 
Q 2172 0 1784 0 
Q 1141 0 747 490 
Q 353 981 353 1791 
Q 353 2603 747 3093 
Q 1141 3584 1784 3584 
Q 2172 3584 2450 3431 
Q 2728 3278 2906 2969 
L 2906 3500 
L 3481 3500 
L 3481 434 
z
" transform="scale(0.015625)"/>
       <path id="DejaVuSans-6f" d="M 1959 3097 
Q 1497 3097 1228 2736 
Q 959 2375 959 1747 
Q 959 1119 1226 758 
Q 1494 397 1959 397 
Q 2419 397 2687 759 
Q 2956 1122 2956 1747 
Q 2956 2369 2687 2733 
Q 2419 3097 1959 3097 
z
M 1959 3584 
Q 2709 3584 3137 3096 
Q 3566 2609 3566 1747 
Q 3566 888 3137 398 
Q 2709 -91 1959 -91 
Q 1206 -91 779 398 
Q 353 888 353 1747 
Q 353 2609 779 3096 
Q 1206 3584 1959 3584 
z
" transform="scale(0.015625)"/>
       <path id="DejaVuSans-73" d="M 2834 3397 
L 2834 2853 
Q 2591 2978 2328 3040 
Q 2066 3103 1784 3103 
Q 1356 3103 1142 2972 
Q 928 2841 928 2578 
Q 928 2378 1081 2264 
Q 1234 2150 1697 2047 
L 1894 2003 
Q 2506 1872 2764 1633 
Q 3022 1394 3022 966 
Q 3022 478 2636 193 
Q 2250 -91 1575 -91 
Q 1294 -91 989 -36 
Q 684 19 347 128 
L 347 722 
Q 666 556 975 473 
Q 1284 391 1588 391 
Q 1994 391 2212 530 
Q 2431 669 2431 922 
Q 2431 1156 2273 1281 
Q 2116 1406 1581 1522 
L 1381 1569 
Q 847 1681 609 1914 
Q 372 2147 372 2553 
Q 372 3047 722 3315 
Q 1072 3584 1716 3584 
Q 2034 3584 2315 3537 
Q 2597 3491 2834 3397 
z
" transform="scale(0.015625)"/>
       <path id="DejaVuSans-20" transform="scale(0.015625)"/>
       <path id="DejaVuSans-69" d="M 603 3500 
L 1178 3500 
L 1178 0 
L 603 0 
L 603 3500 
z
M 603 4863 
L 1178 4863 
L 1178 4134 
L 603 4134 
L 603 4863 
z
" transform="scale(0.015625)"/>
       <path id="DejaVuSans-6c" d="M 603 4863 
L 1178 4863 
L 1178 0 
L 603 0 
L 603 4863 
z
" transform="scale(0.015625)"/>
       <path id="DejaVuSans-2c" d="M 750 794 
L 1409 794 
L 1409 256 
L 897 -744 
L 494 -744 
L 750 256 
L 750 794 
z
" transform="scale(0.015625)"/>
       <path id="DejaVuSans-6d" d="M 3328 2828 
Q 3544 3216 3844 3400 
Q 4144 3584 4550 3584 
Q 5097 3584 5394 3201 
Q 5691 2819 5691 2113 
L 5691 0 
L 5113 0 
L 5113 2094 
Q 5113 2597 4934 2840 
Q 4756 3084 4391 3084 
Q 3944 3084 3684 2787 
Q 3425 2491 3425 1978 
L 3425 0 
L 2847 0 
L 2847 2094 
Q 2847 2600 2669 2842 
Q 2491 3084 2119 3084 
Q 1678 3084 1418 2786 
Q 1159 2488 1159 1978 
L 1159 0 
L 581 0 
L 581 3500 
L 1159 3500 
L 1159 2956 
Q 1356 3278 1631 3431 
Q 1906 3584 2284 3584 
Q 2666 3584 2933 3390 
Q 3200 3197 3328 2828 
z
" transform="scale(0.015625)"/>
      </defs>
      <use xlink:href="#DejaVuSans-42"/>
      <use xlink:href="#DejaVuSans-61" x="68.603516"/>
      <use xlink:href="#DejaVuSans-6e" x="129.882812"/>
      <use xlink:href="#DejaVuSans-67" x="193.261719"/>
      <use xlink:href="#DejaVuSans-6f" x="256.738281"/>
      <use xlink:href="#DejaVuSans-73" x="317.919922"/>
      <use xlink:href="#DejaVuSans-20" x="370.019531"/>
      <use xlink:href="#DejaVuSans-69" x="401.806641"/>
      <use xlink:href="#DejaVuSans-6c" x="429.589844"/>
      <use xlink:href="#DejaVuSans-67" x="457.373047"/>
      <use xlink:href="#DejaVuSans-69" x="520.849609"/>
      <use xlink:href="#DejaVuSans-73" x="548.632812"/>
      <use xlink:href="#DejaVuSans-2c" x="600.732422"/>
      <use xlink:href="#DejaVuSans-20" x="632.519531"/>
      <use xlink:href="#DejaVuSans-6e" x="664.306641"/>
      <use xlink:href="#DejaVuSans-6d" x="727.685547"/>
     </g>
    </g>
   </g>
   <g id="matplotlib.axis_2">
    <g id="ytick_1">
     <g id="line2d_8">
      <defs>
       <path id="m27fa1dcf4c" d="M 0 0 
L -3.5 0 
" style="stroke: #222222; stroke-width: 0.8"/>
      </defs>
      <g>
       <use xlink:href="#m27fa1dcf4c" x="54.096563" y="307.793984" style="fill: #222222; stroke: #222222; stroke-width: 0.8"/>
      </g>
     </g>
     <g id="text_9">
      <!-- −7.5 -->
      <g style="fill: #222222" transform="translate(22.81375 311.593203) scale(0.1 -0.1)">
       <defs>
        <path id="DejaVuSans-2212" d="M 678 2272 
L 4684 2272 
L 4684 1741 
L 678 1741 
L 678 2272 
z
" transform="scale(0.015625)"/>
        <path id="DejaVuSans-2e" d="M 684 794 
L 1344 794 
L 1344 0 
L 684 0 
L 684 794 
z
" transform="scale(0.015625)"/>
       </defs>
       <use xlink:href="#DejaVuSans-2212"/>
       <use xlink:href="#DejaVuSans-37" x="83.789062"/>
       <use xlink:href="#DejaVuSans-2e" x="147.412109"/>
       <use xlink:href="#DejaVuSans-35" x="179.199219"/>
      </g>
     </g>
    </g>
    <g id="ytick_2">
     <g id="line2d_9">
      <g>
       <use xlink:href="#m27fa1dcf4c" x="54.096563" y="269.636085" style="fill: #222222; stroke: #222222; stroke-width: 0.8"/>
      </g>
     </g>
     <g id="text_10">
      <!-- −5.0 -->
      <g style="fill: #222222" transform="translate(22.81375 273.435304) scale(0.1 -0.1)">
       <use xlink:href="#DejaVuSans-2212"/>
       <use xlink:href="#DejaVuSans-35" x="83.789062"/>
       <use xlink:href="#DejaVuSans-2e" x="147.412109"/>
       <use xlink:href="#DejaVuSans-30" x="179.199219"/>
      </g>
     </g>
    </g>
    <g id="ytick_3">
     <g id="line2d_10">
      <g>
       <use xlink:href="#m27fa1dcf4c" x="54.096563" y="231.478186" style="fill: #222222; stroke: #222222; stroke-width: 0.8"/>
      </g>
     </g>
     <g id="text_11">
      <!-- −2.5 -->
      <g style="fill: #222222" transform="translate(22.81375 235.277405) scale(0.1 -0.1)">
       <defs>
        <path id="DejaVuSans-32" d="M 1228 531 
L 3431 531 
L 3431 0 
L 469 0 
L 469 531 
Q 828 903 1448 1529 
Q 2069 2156 2228 2338 
Q 2531 2678 2651 2914 
Q 2772 3150 2772 3378 
Q 2772 3750 2511 3984 
Q 2250 4219 1831 4219 
Q 1534 4219 1204 4116 
Q 875 4013 500 3803 
L 500 4441 
Q 881 4594 1212 4672 
Q 1544 4750 1819 4750 
Q 2544 4750 2975 4387 
Q 3406 4025 3406 3419 
Q 3406 3131 3298 2873 
Q 3191 2616 2906 2266 
Q 2828 2175 2409 1742 
Q 1991 1309 1228 531 
z
" transform="scale(0.015625)"/>
       </defs>
       <use xlink:href="#DejaVuSans-2212"/>
       <use xlink:href="#DejaVuSans-32" x="83.789062"/>
       <use xlink:href="#DejaVuSans-2e" x="147.412109"/>
       <use xlink:href="#DejaVuSans-35" x="179.199219"/>
      </g>
     </g>
    </g>
    <g id="ytick_4">
     <g id="line2d_11">
      <g>
       <use xlink:href="#m27fa1dcf4c" x="54.096563" y="193.320287" style="fill: #222222; stroke: #222222; stroke-width: 0.8"/>
      </g>
     </g>
     <g id="text_12">
      <!-- 0.0 -->
      <g style="fill: #222222" transform="translate(31.193438 197.119506) scale(0.1 -0.1)">
       <use xlink:href="#DejaVuSans-30"/>
       <use xlink:href="#DejaVuSans-2e" x="63.623047"/>
       <use xlink:href="#DejaVuSans-30" x="95.410156"/>
      </g>
     </g>
    </g>
    <g id="ytick_5">
     <g id="line2d_12">
      <g>
       <use xlink:href="#m27fa1dcf4c" x="54.096563" y="155.162388" style="fill: #222222; stroke: #222222; stroke-width: 0.8"/>
      </g>
     </g>
     <g id="text_13">
      <!-- 2.5 -->
      <g style="fill: #222222" transform="translate(31.193438 158.961606) scale(0.1 -0.1)">
       <use xlink:href="#DejaVuSans-32"/>
       <use xlink:href="#DejaVuSans-2e" x="63.623047"/>
       <use xlink:href="#DejaVuSans-35" x="95.410156"/>
      </g>
     </g>
    </g>
    <g id="ytick_6">
     <g id="line2d_13">
      <g>
       <use xlink:href="#m27fa1dcf4c" x="54.096563" y="117.004489" style="fill: #222222; stroke: #222222; stroke-width: 0.8"/>
      </g>
     </g>
     <g id="text_14">
      <!-- 5.0 -->
      <g style="fill: #222222" transform="translate(31.193438 120.803707) scale(0.1 -0.1)">
       <use xlink:href="#DejaVuSans-35"/>
       <use xlink:href="#DejaVuSans-2e" x="63.623047"/>
       <use xlink:href="#DejaVuSans-30" x="95.410156"/>
      </g>
     </g>
    </g>
    <g id="ytick_7">
     <g id="line2d_14">
      <g>
       <use xlink:href="#m27fa1dcf4c" x="54.096563" y="78.84659" style="fill: #222222; stroke: #222222; stroke-width: 0.8"/>
      </g>
     </g>
     <g id="text_15">
      <!-- 7.5 -->
      <g style="fill: #222222" transform="translate(31.193438 82.645808) scale(0.1 -0.1)">
       <use xlink:href="#DejaVuSans-37"/>
       <use xlink:href="#DejaVuSans-2e" x="63.623047"/>
       <use xlink:href="#DejaVuSans-35" x="95.410156"/>
      </g>
     </g>
    </g>
    <g id="ytick_8">
     <g id="line2d_15">
      <g>
       <use xlink:href="#m27fa1dcf4c" x="54.096563" y="40.68869" style="fill: #222222; stroke: #222222; stroke-width: 0.8"/>
      </g>
     </g>
     <g id="text_16">
      <!-- 10.0 -->
      <g style="fill: #222222" transform="translate(24.830938 44.487909) scale(0.1 -0.1)">
       <use xlink:href="#DejaVuSans-31"/>
       <use xlink:href="#DejaVuSans-30" x="63.623047"/>
       <use xlink:href="#DejaVuSans-2e" x="127.246094"/>
       <use xlink:href="#DejaVuSans-30" x="159.033203"/>
      </g>
     </g>
    </g>
    <g id="text_17">
     <!-- Svoris -->
     <g style="fill: #222222" transform="translate(16.318125 194.590625) rotate(-90) scale(0.12 -0.12)">
      <defs>
       <path id="DejaVuSans-53" d="M 3425 4513 
L 3425 3897 
Q 3066 4069 2747 4153 
Q 2428 4238 2131 4238 
Q 1616 4238 1336 4038 
Q 1056 3838 1056 3469 
Q 1056 3159 1242 3001 
Q 1428 2844 1947 2747 
L 2328 2669 
Q 3034 2534 3370 2195 
Q 3706 1856 3706 1288 
Q 3706 609 3251 259 
Q 2797 -91 1919 -91 
Q 1588 -91 1214 -16 
Q 841 59 441 206 
L 441 856 
Q 825 641 1194 531 
Q 1563 422 1919 422 
Q 2459 422 2753 634 
Q 3047 847 3047 1241 
Q 3047 1584 2836 1778 
Q 2625 1972 2144 2069 
L 1759 2144 
Q 1053 2284 737 2584 
Q 422 2884 422 3419 
Q 422 4038 858 4394 
Q 1294 4750 2059 4750 
Q 2388 4750 2728 4690 
Q 3069 4631 3425 4513 
z
" transform="scale(0.015625)"/>
       <path id="DejaVuSans-76" d="M 191 3500 
L 800 3500 
L 1894 563 
L 2988 3500 
L 3597 3500 
L 2284 0 
L 1503 0 
L 191 3500 
z
" transform="scale(0.015625)"/>
       <path id="DejaVuSans-72" d="M 2631 2963 
Q 2534 3019 2420 3045 
Q 2306 3072 2169 3072 
Q 1681 3072 1420 2755 
Q 1159 2438 1159 1844 
L 1159 0 
L 581 0 
L 581 3500 
L 1159 3500 
L 1159 2956 
Q 1341 3275 1631 3429 
Q 1922 3584 2338 3584 
Q 2397 3584 2469 3576 
Q 2541 3569 2628 3553 
L 2631 2963 
z
" transform="scale(0.015625)"/>
      </defs>
      <use xlink:href="#DejaVuSans-53"/>
      <use xlink:href="#DejaVuSans-76" x="63.476562"/>
      <use xlink:href="#DejaVuSans-6f" x="122.65625"/>
      <use xlink:href="#DejaVuSans-72" x="183.837891"/>
      <use xlink:href="#DejaVuSans-69" x="224.951172"/>
      <use xlink:href="#DejaVuSans-73" x="252.734375"/>
     </g>
    </g>
   </g>
   <g id="line2d_16">
    <path d="M 86.831108 184.789611 
L 88.745409 148.186128 
L 90.65971 198.705456 
L 92.574011 262.178133 
L 94.488312 244.554499 
L 96.402612 165.147357 
L 98.316913 120.384762 
L 100.231214 156.589004 
L 102.145515 218.03048 
L 104.059816 205.077078 
L 105.974117 166.77035 
L 107.888418 168.479447 
L 109.802719 182.864932 
L 111.71702 159.59121 
L 113.631321 115.719459 
L 115.545622 105.113854 
L 117.459922 149.086668 
L 119.374223 209.104756 
L 121.288524 222.878939 
L 123.202825 200.693737 
L 125.117126 186.66706 
L 127.031427 198.490998 
L 130.860029 261.613891 
L 132.77433 285.527728 
L 134.688631 293.719664 
L 136.602931 263.875309 
L 140.431533 111.063388 
L 142.345834 84.192848 
L 144.260135 111.152426 
L 146.174436 158.530423 
L 148.088737 187.702405 
L 150.003038 175.759742 
L 153.83164 83.953479 
L 155.74594 62.303068 
L 157.660241 72.890096 
L 161.488843 138.681602 
L 163.403144 155.447325 
L 165.317445 147.397172 
L 167.231746 118.829878 
L 169.146047 80.568706 
L 171.060348 44.718083 
L 172.974649 22.572727 
L 174.88895 22.982311 
L 176.80325 49.330069 
L 178.717551 97.008486 
L 180.631852 154.4469 
L 182.546153 207.660366 
L 184.460454 245.554221 
L 186.374755 263.58491 
L 188.289056 264.482254 
L 190.203357 255.747277 
L 192.117658 245.30203 
L 194.031959 237.748933 
L 195.946259 232.995623 
L 197.86056 227.353942 
L 199.774861 216.222005 
L 201.689162 197.144582 
L 205.517764 145.748983 
L 207.432065 125.651483 
L 209.346366 116.238825 
L 211.260667 118.324685 
L 213.174968 128.830823 
L 215.089269 142.169192 
L 217.003569 152.213047 
L 218.91787 154.322123 
L 220.832171 146.942446 
L 222.746472 132.224595 
L 224.660773 115.320175 
L 226.575074 102.571233 
L 228.489375 99.359584 
L 230.403676 108.449057 
L 232.317977 129.30691 
L 234.232278 158.414901 
L 236.146578 190.331499 
L 238.060879 219.148332 
L 239.97518 239.944296 
L 241.889481 249.856281 
L 243.803782 248.50375 
L 245.718083 237.746457 
L 247.632384 220.967051 
L 249.546685 202.179099 
L 251.460986 185.196534 
L 253.375287 173.001703 
L 255.289587 167.353222 
L 257.203888 168.65732 
L 259.118189 176.081962 
L 261.03249 187.886287 
L 264.861092 215.890493 
L 266.775393 228.155935 
L 268.689694 237.508484 
L 270.603995 243.418489 
L 272.518296 245.906256 
L 274.432597 245.392955 
L 276.346897 242.547886 
L 278.261198 238.153552 
L 282.0898 227.816723 
L 284.004101 223.199361 
L 285.918402 219.598515 
L 287.832703 217.295893 
L 289.747004 216.420874 
L 291.661305 216.97507 
L 293.575606 218.867605 
L 295.489906 221.946361 
L 297.404207 226.021543 
L 299.318508 230.879495 
L 303.14711 241.965532 
L 306.975712 252.991385 
L 308.890013 257.696594 
L 310.804314 261.448164 
L 312.718615 263.988673 
L 314.632916 265.146793 
L 316.547216 264.863699 
L 318.461517 263.209705 
L 320.375818 260.372792 
L 322.290119 256.631715 
L 326.118721 247.757148 
L 328.033022 243.255766 
L 329.947323 239.04827 
L 331.861624 235.293799 
L 333.775925 232.067068 
L 335.690225 229.362255 
L 337.604526 227.099714 
L 343.347429 221.318122 
L 345.26173 219.007566 
L 347.176031 216.132961 
L 349.090332 212.510607 
L 351.004633 208.017668 
L 352.918934 202.6099 
L 354.833234 196.329224 
L 356.747535 189.301645 
L 360.576137 173.839907 
L 364.404739 158.214321 
L 366.31904 150.971961 
L 368.233341 144.389371 
L 370.147642 138.622947 
L 372.061943 133.785808 
L 373.976244 132.961613 
L 375.890544 139.468933 
L 377.804845 147.975461 
L 379.719146 157.919605 
L 381.633447 166.814519 
L 383.547748 174.007048 
L 385.462049 179.758732 
L 387.37635 179.745035 
L 391.204952 168.001423 
L 393.119253 171.890362 
L 395.033553 193.137359 
L 396.947854 229.704294 
L 398.862155 270.912657 
L 400.776456 305.220316 
L 402.690757 325.543761 
L 404.605058 330.027273 
L 406.519359 321.334603 
L 408.43366 305.298178 
L 410.347961 288.038452 
L 412.262262 272.911495 
L 414.176562 260.061713 
L 416.090863 248.507641 
L 418.005164 238.294076 
L 419.919465 231.041192 
L 421.833766 228.60859 
L 423.748067 230.888881 
L 425.662368 235.023415 
L 427.576669 237.300637 
L 429.49097 236.042324 
L 431.405271 233.051528 
L 433.319572 232.850224 
L 435.233872 240.028568 
L 437.148173 255.80688 
L 439.062474 276.175265 
L 440.976775 293.605063 
L 442.891076 301.247732 
L 444.805377 296.55176 
L 446.719678 282.558942 
L 448.633979 266.773356 
L 450.54828 257.766781 
L 452.462581 260.392066 
L 454.376881 272.466985 
L 456.291182 285.809996 
L 458.205483 290.94736 
L 460.119784 282.027369 
L 462.034085 259.553384 
L 463.948386 230.483231 
L 465.862687 205.666073 
L 467.776988 194.935418 
L 469.691289 202.005836 
L 471.60559 222.537694 
L 473.519891 246.613573 
L 475.434191 263.500376 
L 477.348492 265.882777 
L 479.262793 252.305815 
L 481.177094 227.603241 
L 483.091395 201.048444 
L 485.005696 182.393883 
L 486.919997 177.504576 
L 488.834298 186.115619 
L 492.6629 220.061323 
L 494.5772 231.427726 
L 496.491501 233.788033 
L 498.405802 228.073255 
L 500.320103 218.363695 
L 502.234404 209.685931 
L 504.148705 205.59342 
L 506.063006 206.791368 
L 509.891608 215.679866 
L 511.805909 216.761898 
L 513.720209 213.008896 
L 515.63451 205.334191 
L 517.548811 196.793694 
L 519.463112 191.178389 
L 521.377413 191.193811 
L 523.291714 197.257695 
L 525.206015 207.455484 
L 527.120316 218.401085 
L 529.034617 226.453069 
L 530.948918 228.897391 
L 532.863219 224.87403 
L 534.777519 215.780259 
L 536.69182 204.845376 
L 538.606121 195.888554 
L 540.520422 191.816054 
L 542.434723 193.623812 
L 544.349024 200.27014 
L 546.263325 209.224755 
L 548.177626 217.308553 
L 550.091927 221.582912 
L 552.006228 220.189741 
L 553.920528 212.997113 
L 555.834829 201.756717 
L 557.74913 189.53439 
L 559.663431 179.561266 
L 561.577732 174.092987 
L 563.492033 173.811732 
L 565.406334 177.895602 
L 569.234936 191.28307 
L 571.149237 196.086174 
L 573.063538 197.331295 
L 574.977838 194.506865 
L 576.892139 188.340324 
L 578.80644 180.587713 
L 580.720741 173.444822 
L 582.635042 168.830537 
L 584.549343 167.868258 
L 586.463644 170.717611 
L 588.377945 176.69417 
L 592.206547 192.572484 
L 594.120847 199.2348 
L 596.035148 203.156987 
L 597.949449 203.595789 
L 599.86375 200.606187 
L 601.778051 195.005626 
L 605.606653 181.262359 
L 607.520954 175.669166 
L 609.435255 172.085012 
L 611.349556 170.882233 
L 613.263856 172.098939 
L 615.178157 175.500542 
L 617.092458 180.616612 
L 622.835361 198.775583 
L 624.749662 202.904594 
L 626.663963 204.887605 
L 628.578264 204.36761 
L 630.492565 201.235725 
L 632.406866 195.568536 
L 634.321166 187.573978 
L 636.235467 177.570532 
L 638.149768 166.014591 
L 641.97837 141.099969 
L 643.892671 129.758482 
L 645.806972 120.748741 
L 647.721273 115.12314 
L 649.635574 113.488466 
L 651.549875 115.818365 
L 653.464175 121.469253 
L 655.378476 129.394944 
L 659.207078 147.459562 
L 661.121379 155.642525 
L 663.03568 162.334565 
L 664.949981 167.115056 
L 666.864282 169.755679 
L 668.778583 170.211375 
L 670.692884 168.63927 
L 672.607185 165.40607 
L 674.521485 161.062319 
L 678.350087 151.579867 
L 680.264388 147.462994 
L 682.178689 144.093557 
L 684.09299 141.458458 
L 686.007291 139.425988 
L 687.921592 137.845137 
L 689.835893 136.622458 
L 691.750194 135.75528 
L 693.664494 135.358264 
L 695.578795 135.63642 
L 697.493096 136.84612 
L 699.407397 139.188309 
L 701.321698 142.690261 
L 703.235999 147.090039 
L 705.1503 151.820731 
L 707.064601 156.129545 
L 708.978902 159.299958 
L 710.893203 160.839597 
L 712.807503 160.57997 
L 714.721804 158.641877 
L 716.636105 155.365763 
L 722.379008 143.163273 
L 724.293309 140.964066 
L 726.20761 141.570661 
L 728.121911 146.416973 
L 730.036212 156.769409 
L 731.950513 172.672724 
L 733.864813 191.234686 
L 735.779114 205.387142 
L 737.693415 205.708765 
L 739.607716 185.735191 
L 741.522017 145.699878 
L 741.522017 145.699878 
" clip-path="url(#pbee06f35cb)" style="fill: none; stroke: #4a4a4a; stroke-width: 2.2; stroke-linecap: square"/>
   </g>
   <g id="line2d_17">
    <path d="M 86.831108 187.758276 
L 88.745409 191.309597 
L 90.65971 193.701947 
L 92.574011 194.487901 
L 94.488312 193.543449 
L 96.402612 191.217805 
L 100.231214 185.347052 
L 102.145515 182.872479 
L 104.059816 180.629811 
L 105.974117 178.198107 
L 109.802719 172.398837 
L 111.71702 170.016396 
L 113.631321 169.05811 
L 115.545622 170.078569 
L 117.459922 173.081454 
L 119.374223 177.605307 
L 121.288524 183.121804 
L 123.202825 189.416851 
L 125.117126 196.568514 
L 128.945728 212.099427 
L 130.860029 217.658051 
L 132.77433 218.971808 
L 134.688631 214.720932 
L 136.602931 205.26185 
L 140.431533 179.993958 
L 142.345834 169.825498 
L 144.260135 163.295293 
L 146.174436 159.680097 
L 148.088737 157.072246 
L 150.003038 153.598904 
L 151.917339 148.466957 
L 155.74594 136.399892 
L 157.660241 132.144792 
L 159.574542 129.7569 
L 161.488843 128.274474 
L 163.403144 126.002062 
L 165.317445 121.434506 
L 167.231746 114.139936 
L 169.146047 105.188749 
L 171.060348 96.96804 
L 172.974649 92.487075 
L 174.88895 94.433509 
L 176.80325 104.286372 
L 178.717551 121.775089 
L 180.631852 144.884613 
L 184.460454 194.898615 
L 186.374755 215.437873 
L 188.289056 230.264858 
L 190.203357 238.783005 
L 192.117658 241.271422 
L 194.031959 238.462864 
L 195.946259 231.221726 
L 197.86056 220.433047 
L 199.774861 207.074754 
L 203.603463 177.676992 
L 205.517764 164.588853 
L 207.432065 154.334685 
L 209.346366 147.559815 
L 211.260667 144.08933 
L 213.174968 142.968616 
L 215.089269 142.755539 
L 217.003569 141.976642 
L 218.91787 139.611739 
L 220.832171 135.461801 
L 222.746472 130.279529 
L 224.660773 125.603382 
L 226.575074 123.327854 
L 228.489375 125.135676 
L 230.403676 131.969426 
L 232.317977 143.705651 
L 234.232278 159.123517 
L 238.060879 192.403873 
L 239.97518 205.579717 
L 241.889481 214.070665 
L 243.803782 217.182424 
L 245.718083 215.214399 
L 247.632384 209.315154 
L 251.460986 192.734973 
L 253.375287 185.693695 
L 255.289587 181.365445 
L 257.203888 180.437336 
L 259.118189 182.939368 
L 261.03249 188.323385 
L 262.946791 195.636315 
L 266.775393 211.539517 
L 268.689694 218.138302 
L 270.603995 222.961008 
L 272.518296 225.775692 
L 274.432597 226.667034 
L 276.346897 225.967603 
L 278.261198 224.169022 
L 282.0898 219.487416 
L 284.004101 217.597166 
L 285.918402 216.481587 
L 287.832703 216.315954 
L 289.747004 217.134936 
L 291.661305 218.859092 
L 293.575606 221.331756 
L 295.489906 224.356978 
L 299.318508 231.264183 
L 303.14711 238.170227 
L 305.061411 241.287933 
L 306.975712 244.047224 
L 308.890013 246.36874 
L 310.804314 248.189788 
L 312.718615 249.466154 
L 314.632916 250.17469 
L 316.547216 250.315291 
L 318.461517 249.911425 
L 320.375818 249.008958 
L 322.290119 247.673295 
L 324.20442 245.98483 
L 326.118721 244.032592 
L 329.947323 239.686334 
L 341.433128 226.058653 
L 343.347429 223.457726 
L 345.26173 220.569884 
L 347.176031 217.314292 
L 349.090332 213.624655 
L 351.004633 209.457876 
L 352.918934 204.801312 
L 354.833234 199.678302 
L 358.661836 188.327915 
L 362.490438 176.432457 
L 364.404739 170.803953 
L 366.31904 165.767859 
L 368.233341 161.665612 
L 370.147642 158.854782 
L 372.061943 157.647373 
L 373.976244 158.208224 
L 375.890544 160.428082 
L 377.804845 163.819911 
L 379.719146 167.519419 
L 381.633447 170.467977 
L 383.547748 171.788556 
L 385.462049 171.249452 
L 387.37635 169.614441 
L 389.290651 168.665614 
L 391.204952 170.774231 
L 393.119253 178.075729 
L 395.033553 191.539138 
L 396.947854 210.377489 
L 400.776456 253.472397 
L 402.690757 271.13587 
L 404.605058 282.891329 
L 406.519359 287.926194 
L 408.43366 286.811586 
L 410.347961 281.089192 
L 412.262262 272.690427 
L 416.090863 254.614738 
L 418.005164 247.137223 
L 419.919465 241.390689 
L 421.833766 237.477674 
L 423.748067 235.30848 
L 425.662368 234.700957 
L 427.576669 235.472646 
L 429.49097 237.50762 
L 431.405271 240.758952 
L 433.319572 245.164548 
L 435.233872 250.507334 
L 439.062474 261.820148 
L 440.976775 266.240235 
L 442.891076 268.950253 
L 444.805377 269.781097 
L 446.719678 269.083129 
L 452.462581 264.544121 
L 454.376881 263.174162 
L 456.291182 261.145856 
L 458.205483 257.700664 
L 460.119784 252.471007 
L 465.862687 232.782454 
L 467.776988 229.07932 
L 469.691289 228.119727 
L 471.60559 229.353539 
L 473.519891 231.384831 
L 475.434191 232.502814 
L 477.348492 231.346634 
L 479.262793 227.431337 
L 481.177094 221.331826 
L 483.091395 214.457805 
L 485.005696 208.51033 
L 486.919997 204.841669 
L 488.834298 203.983687 
L 490.748599 205.529666 
L 494.5772 211.259766 
L 496.491501 213.136346 
L 498.405802 213.598982 
L 500.320103 212.849889 
L 504.148705 210.163506 
L 506.063006 209.275149 
L 507.977307 208.836565 
L 509.891608 208.546217 
L 511.805909 208.006214 
L 513.720209 206.977354 
L 517.548811 204.143344 
L 519.463112 203.344314 
L 521.377413 203.634604 
L 523.291714 205.156697 
L 525.206015 207.608514 
L 527.120316 210.314834 
L 529.034617 212.444622 
L 530.948918 213.294402 
L 532.863219 212.538657 
L 534.777519 210.356821 
L 538.606121 204.490732 
L 540.520422 202.48282 
L 542.434723 201.81572 
L 544.349024 202.445777 
L 548.177626 205.204295 
L 550.091927 205.65045 
L 552.006228 204.583792 
L 553.920528 201.860378 
L 555.834829 197.859583 
L 557.74913 193.369205 
L 559.663431 189.329242 
L 561.577732 186.528673 
L 563.492033 185.3652 
L 565.406334 185.742551 
L 567.320635 187.121084 
L 569.234936 188.689825 
L 571.149237 189.605399 
L 573.063538 189.237715 
L 574.977838 187.361983 
L 576.892139 184.242524 
L 578.80644 180.576297 
L 580.720741 177.306901 
L 582.635042 175.366396 
L 584.549343 175.426193 
L 586.463644 177.726445 
L 588.377945 182.017844 
L 594.120847 198.708001 
L 596.035148 202.18898 
L 597.949449 203.371589 
L 599.86375 202.116547 
L 601.778051 198.775581 
L 603.692352 194.096996 
L 605.606653 189.04507 
L 607.520954 184.591482 
L 609.435255 181.535821 
L 611.349556 180.387627 
L 613.263856 181.313738 
L 615.178157 184.139011 
L 617.092458 188.388299 
L 620.92106 198.252158 
L 622.835361 202.25163 
L 624.749662 204.69076 
L 626.663963 205.114504 
L 628.578264 203.316151 
L 630.492565 199.317337 
L 632.406866 193.316205 
L 634.321166 185.630609 
L 636.235467 176.656934 
L 643.892671 137.912672 
L 645.806972 130.470024 
L 647.721273 125.110601 
L 649.635574 122.237158 
L 651.549875 122.020149 
L 653.464175 124.365399 
L 655.378476 128.932552 
L 657.292777 135.192642 
L 663.03568 157.499793 
L 664.949981 163.855799 
L 666.864282 168.667788 
L 668.778583 171.492347 
L 670.692884 172.065029 
L 672.607185 170.357019 
L 674.521485 166.609751 
L 676.435786 161.321822 
L 680.264388 148.925961 
L 682.178689 143.265207 
L 684.09299 138.740752 
L 686.007291 135.707084 
L 687.921592 134.329542 
L 689.835893 134.611813 
L 691.750194 136.426652 
L 693.664494 139.536607 
L 695.578795 143.602612 
L 699.407397 152.777539 
L 701.321698 156.814881 
L 703.235999 159.786668 
L 705.1503 161.318241 
L 707.064601 161.260052 
L 708.978902 159.723484 
L 710.893203 157.051314 
L 714.721804 150.350752 
L 716.636105 147.439946 
L 718.550406 145.521524 
L 720.464707 145.049247 
L 722.379008 146.396617 
L 724.293309 149.806984 
L 726.20761 155.294777 
L 728.121911 162.509692 
L 731.950513 178.477677 
L 733.864813 184.758716 
L 735.779114 188.597164 
L 737.693415 189.768812 
L 739.607716 188.642741 
L 741.522017 185.890081 
L 741.522017 185.890081 
" clip-path="url(#pbee06f35cb)" style="fill: none; stroke: #b7d0ee; stroke-width: 2.2; stroke-linecap: square"/>
   </g>
   <g id="line2d_18">
    <path d="M 54.096563 193.320287 
L 774.256562 193.320287 
" clip-path="url(#pbee06f35cb)" style="fill: none; stroke-dasharray: 3.33,1.44; stroke-dashoffset: 0; stroke: #0d1530; stroke-width: 0.9"/>
   </g>
   <g id="patch_3">
    <path d="M 54.096563 345.4 
L 54.096563 7.2 
" style="fill: none; stroke: #444444; stroke-width: 0.8; stroke-linejoin: miter; stroke-linecap: square"/>
   </g>
   <g id="patch_4">
    <path d="M 54.096563 345.4 
L 774.256562 345.4 
" style="fill: none; stroke: #444444; stroke-width: 0.8; stroke-linejoin: miter; stroke-linecap: square"/>
   </g>
   <g id="legend_1">
    <g id="line2d_19">
     <path d="M 557.815938 20.298438 
L 567.815938 20.298438 
L 577.815938 20.298438 
" style="fill: none; stroke: #4a4a4a; stroke-width: 2.2; stroke-linecap: square"/>
    </g>
    <g id="text_18">
     <!-- Neapdoroti + logistinė regresija -->
     <g style="fill: #222222" transform="translate(585.815938 23.798438) scale(0.1 -0.1)">
      <defs>
       <path id="DejaVuSans-4e" d="M 628 4666 
L 1478 4666 
L 3547 763 
L 3547 4666 
L 4159 4666 
L 4159 0 
L 3309 0 
L 1241 3903 
L 1241 0 
L 628 0 
L 628 4666 
z
" transform="scale(0.015625)"/>
       <path id="DejaVuSans-65" d="M 3597 1894 
L 3597 1613 
L 953 1613 
Q 991 1019 1311 708 
Q 1631 397 2203 397 
Q 2534 397 2845 478 
Q 3156 559 3463 722 
L 3463 178 
Q 3153 47 2828 -22 
Q 2503 -91 2169 -91 
Q 1331 -91 842 396 
Q 353 884 353 1716 
Q 353 2575 817 3079 
Q 1281 3584 2069 3584 
Q 2775 3584 3186 3129 
Q 3597 2675 3597 1894 
z
M 3022 2063 
Q 3016 2534 2758 2815 
Q 2500 3097 2075 3097 
Q 1594 3097 1305 2825 
Q 1016 2553 972 2059 
L 3022 2063 
z
" transform="scale(0.015625)"/>
       <path id="DejaVuSans-70" d="M 1159 525 
L 1159 -1331 
L 581 -1331 
L 581 3500 
L 1159 3500 
L 1159 2969 
Q 1341 3281 1617 3432 
Q 1894 3584 2278 3584 
Q 2916 3584 3314 3078 
Q 3713 2572 3713 1747 
Q 3713 922 3314 415 
Q 2916 -91 2278 -91 
Q 1894 -91 1617 61 
Q 1341 213 1159 525 
z
M 3116 1747 
Q 3116 2381 2855 2742 
Q 2594 3103 2138 3103 
Q 1681 3103 1420 2742 
Q 1159 2381 1159 1747 
Q 1159 1113 1420 752 
Q 1681 391 2138 391 
Q 2594 391 2855 752 
Q 3116 1113 3116 1747 
z
" transform="scale(0.015625)"/>
       <path id="DejaVuSans-64" d="M 2906 2969 
L 2906 4863 
L 3481 4863 
L 3481 0 
L 2906 0 
L 2906 525 
Q 2725 213 2448 61 
Q 2172 -91 1784 -91 
Q 1150 -91 751 415 
Q 353 922 353 1747 
Q 353 2572 751 3078 
Q 1150 3584 1784 3584 
Q 2172 3584 2448 3432 
Q 2725 3281 2906 2969 
z
M 947 1747 
Q 947 1113 1208 752 
Q 1469 391 1925 391 
Q 2381 391 2643 752 
Q 2906 1113 2906 1747 
Q 2906 2381 2643 2742 
Q 2381 3103 1925 3103 
Q 1469 3103 1208 2742 
Q 947 2381 947 1747 
z
" transform="scale(0.015625)"/>
       <path id="DejaVuSans-74" d="M 1172 4494 
L 1172 3500 
L 2356 3500 
L 2356 3053 
L 1172 3053 
L 1172 1153 
Q 1172 725 1289 603 
Q 1406 481 1766 481 
L 2356 481 
L 2356 0 
L 1766 0 
Q 1100 0 847 248 
Q 594 497 594 1153 
L 594 3053 
L 172 3053 
L 172 3500 
L 594 3500 
L 594 4494 
L 1172 4494 
z
" transform="scale(0.015625)"/>
       <path id="DejaVuSans-2b" d="M 2944 4013 
L 2944 2272 
L 4684 2272 
L 4684 1741 
L 2944 1741 
L 2944 0 
L 2419 0 
L 2419 1741 
L 678 1741 
L 678 2272 
L 2419 2272 
L 2419 4013 
L 2944 4013 
z
" transform="scale(0.015625)"/>
       <path id="DejaVuSans-117" d="M 1778 4863 
L 2353 4863 
L 2353 4134 
L 1778 4134 
L 1778 4863 
z
M 2072 3584 
L 2072 3584 
z
M 3597 1894 
L 3597 1613 
L 953 1613 
Q 991 1019 1311 708 
Q 1631 397 2203 397 
Q 2534 397 2845 478 
Q 3156 559 3463 722 
L 3463 178 
Q 3153 47 2828 -22 
Q 2503 -91 2169 -91 
Q 1331 -91 842 396 
Q 353 884 353 1716 
Q 353 2575 817 3079 
Q 1281 3584 2069 3584 
Q 2775 3584 3186 3129 
Q 3597 2675 3597 1894 
z
M 3022 2063 
Q 3016 2534 2758 2815 
Q 2500 3097 2075 3097 
Q 1594 3097 1305 2825 
Q 1016 2553 972 2059 
L 3022 2063 
z
" transform="scale(0.015625)"/>
       <path id="DejaVuSans-6a" d="M 603 3500 
L 1178 3500 
L 1178 -63 
Q 1178 -731 923 -1031 
Q 669 -1331 103 -1331 
L -116 -1331 
L -116 -844 
L 38 -844 
Q 366 -844 484 -692 
Q 603 -541 603 -63 
L 603 3500 
z
M 603 4863 
L 1178 4863 
L 1178 4134 
L 603 4134 
L 603 4863 
z
" transform="scale(0.015625)"/>
      </defs>
      <use xlink:href="#DejaVuSans-4e"/>
      <use xlink:href="#DejaVuSans-65" x="74.804688"/>
      <use xlink:href="#DejaVuSans-61" x="136.328125"/>
      <use xlink:href="#DejaVuSans-70" x="197.607422"/>
      <use xlink:href="#DejaVuSans-64" x="261.083984"/>
      <use xlink:href="#DejaVuSans-6f" x="324.560547"/>
      <use xlink:href="#DejaVuSans-72" x="385.742188"/>
      <use xlink:href="#DejaVuSans-6f" x="424.605469"/>
      <use xlink:href="#DejaVuSans-74" x="485.787109"/>
      <use xlink:href="#DejaVuSans-69" x="524.996094"/>
      <use xlink:href="#DejaVuSans-20" x="552.779297"/>
      <use xlink:href="#DejaVuSans-2b" x="584.566406"/>
      <use xlink:href="#DejaVuSans-20" x="668.355469"/>
      <use xlink:href="#DejaVuSans-6c" x="700.142578"/>
      <use xlink:href="#DejaVuSans-6f" x="727.925781"/>
      <use xlink:href="#DejaVuSans-67" x="789.107422"/>
      <use xlink:href="#DejaVuSans-69" x="852.583984"/>
      <use xlink:href="#DejaVuSans-73" x="880.367188"/>
      <use xlink:href="#DejaVuSans-74" x="932.466797"/>
      <use xlink:href="#DejaVuSans-69" x="971.675781"/>
      <use xlink:href="#DejaVuSans-6e" x="999.458984"/>
      <use xlink:href="#DejaVuSans-117" x="1062.837891"/>
      <use xlink:href="#DejaVuSans-20" x="1124.361328"/>
      <use xlink:href="#DejaVuSans-72" x="1156.148438"/>
      <use xlink:href="#DejaVuSans-65" x="1195.011719"/>
      <use xlink:href="#DejaVuSans-67" x="1256.535156"/>
      <use xlink:href="#DejaVuSans-72" x="1320.011719"/>
      <use xlink:href="#DejaVuSans-65" x="1358.875"/>
      <use xlink:href="#DejaVuSans-73" x="1420.398438"/>
      <use xlink:href="#DejaVuSans-69" x="1472.498047"/>
      <use xlink:href="#DejaVuSans-6a" x="1500.28125"/>
      <use xlink:href="#DejaVuSans-61" x="1528.064453"/>
     </g>
    </g>
    <g id="line2d_20">
     <path d="M 557.815938 34.976563 
L 567.815938 34.976563 
L 577.815938 34.976563 
" style="fill: none; stroke: #b7d0ee; stroke-width: 2.2; stroke-linecap: square"/>
    </g>
    <g id="text_19">
     <!-- Glodinti + logistinė regresija, σ=6.0 -->
     <g style="fill: #222222" transform="translate(585.815938 38.476563) scale(0.1 -0.1)">
      <defs>
       <path id="DejaVuSans-47" d="M 3809 666 
L 3809 1919 
L 2778 1919 
L 2778 2438 
L 4434 2438 
L 4434 434 
Q 4069 175 3628 42 
Q 3188 -91 2688 -91 
Q 1594 -91 976 548 
Q 359 1188 359 2328 
Q 359 3472 976 4111 
Q 1594 4750 2688 4750 
Q 3144 4750 3555 4637 
Q 3966 4525 4313 4306 
L 4313 3634 
Q 3963 3931 3569 4081 
Q 3175 4231 2741 4231 
Q 1884 4231 1454 3753 
Q 1025 3275 1025 2328 
Q 1025 1384 1454 906 
Q 1884 428 2741 428 
Q 3075 428 3337 486 
Q 3600 544 3809 666 
z
" transform="scale(0.015625)"/>
       <path id="DejaVuSans-3c3" d="M 1959 3044 
Q 1484 3044 1228 2700 
Q 959 2341 959 1747 
Q 959 1119 1226 758 
Q 1494 397 1959 397 
Q 2419 397 2687 759 
Q 2956 1122 2956 1747 
Q 2956 2319 2688 2700 
Q 2441 3044 1959 3044 
z
M 1959 3500 
L 3869 3500 
L 3869 2925 
L 3225 2925 
Q 3566 2438 3566 1747 
Q 3566 888 3138 400 
Q 2709 -91 1959 -91 
Q 1206 -91 781 400 
Q 353 888 353 1747 
Q 353 2613 781 3097 
Q 1134 3500 1959 3500 
z
" transform="scale(0.015625)"/>
       <path id="DejaVuSans-3d" d="M 678 2906 
L 4684 2906 
L 4684 2381 
L 678 2381 
L 678 2906 
z
M 678 1631 
L 4684 1631 
L 4684 1100 
L 678 1100 
L 678 1631 
z
" transform="scale(0.015625)"/>
      </defs>
      <use xlink:href="#DejaVuSans-47"/>
      <use xlink:href="#DejaVuSans-6c" x="77.490234"/>
      <use xlink:href="#DejaVuSans-6f" x="105.273438"/>
      <use xlink:href="#DejaVuSans-64" x="166.455078"/>
      <use xlink:href="#DejaVuSans-69" x="229.931641"/>
      <use xlink:href="#DejaVuSans-6e" x="257.714844"/>
      <use xlink:href="#DejaVuSans-74" x="321.09375"/>
      <use xlink:href="#DejaVuSans-69" x="360.302734"/>
      <use xlink:href="#DejaVuSans-20" x="388.085938"/>
      <use xlink:href="#DejaVuSans-2b" x="419.873047"/>
      <use xlink:href="#DejaVuSans-20" x="503.662109"/>
      <use xlink:href="#DejaVuSans-6c" x="535.449219"/>
      <use xlink:href="#DejaVuSans-6f" x="563.232422"/>
      <use xlink:href="#DejaVuSans-67" x="624.414062"/>
      <use xlink:href="#DejaVuSans-69" x="687.890625"/>
      <use xlink:href="#DejaVuSans-73" x="715.673828"/>
      <use xlink:href="#DejaVuSans-74" x="767.773438"/>
      <use xlink:href="#DejaVuSans-69" x="806.982422"/>
      <use xlink:href="#DejaVuSans-6e" x="834.765625"/>
      <use xlink:href="#DejaVuSans-117" x="898.144531"/>
      <use xlink:href="#DejaVuSans-20" x="959.667969"/>
      <use xlink:href="#DejaVuSans-72" x="991.455078"/>
      <use xlink:href="#DejaVuSans-65" x="1030.318359"/>
      <use xlink:href="#DejaVuSans-67" x="1091.841797"/>
      <use xlink:href="#DejaVuSans-72" x="1155.318359"/>
      <use xlink:href="#DejaVuSans-65" x="1194.181641"/>
      <use xlink:href="#DejaVuSans-73" x="1255.705078"/>
      <use xlink:href="#DejaVuSans-69" x="1307.804688"/>
      <use xlink:href="#DejaVuSans-6a" x="1335.587891"/>
      <use xlink:href="#DejaVuSans-61" x="1363.371094"/>
      <use xlink:href="#DejaVuSans-2c" x="1424.650391"/>
      <use xlink:href="#DejaVuSans-20" x="1456.4375"/>
      <use xlink:href="#DejaVuSans-3c3" x="1488.224609"/>
      <use xlink:href="#DejaVuSans-3d" x="1551.603516"/>
      <use xlink:href="#DejaVuSans-36" x="1635.392578"/>
      <use xlink:href="#DejaVuSans-2e" x="1699.015625"/>
      <use xlink:href="#DejaVuSans-30" x="1730.802734"/>
     </g>
    </g>
   </g>
  </g>
 </g>
 <defs>
  <clipPath id="pbee06f35cb">
   <rect x="54.096563" y="7.2" width="720.16" height="338.2"/>
  </clipPath>
 </defs>
</svg>
